<?xml version="1.0" encoding="utf-8" standalone="no"?>
<!DOCTYPE svg PUBLIC "-//W3C//DTD SVG 1.1//EN"
  "http://www.w3.org/Graphics/SVG/1.1/DTD/svg11.dtd">
<!-- Created with matplotlib (http://matplotlib.org/) -->
<svg height="345.6pt" version="1.1" viewBox="0 0 460.8 345.6" width="460.8pt" xmlns="http://www.w3.org/2000/svg" xmlns:xlink="http://www.w3.org/1999/xlink">
 <defs>
  <style type="text/css">
*{stroke-linecap:butt;stroke-linejoin:round;}
  </style>
 </defs>
 <g id="figure_1">
  <g id="patch_1">
   <path d="M 0 345.6 
L 460.8 345.6 
L 460.8 0 
L 0 0 
z
" style="fill:#ffffff;"/>
  </g>
  <g id="axes_1">
   <g id="patch_2">
    <path d="M 57.6 307.584 
L 414.72 307.584 
L 414.72 41.472 
L 57.6 41.472 
z
" style="fill:#ffffff;"/>
   </g>
   <g id="matplotlib.axis_1">
    <g id="xtick_1">
     <g id="line2d_1">
      <defs>
       <path d="M 0 0 
L 0 3.5 
" id="m7efe55e8cd" style="stroke:#000000;stroke-width:0.8;"/>
      </defs>
      <g>
       <use style="stroke:#000000;stroke-width:0.8;" x="73.562182" xlink:href="#m7efe55e8cd" y="307.584"/>
      </g>
     </g>
     <g id="text_1">
      <!-- 0 -->
      <defs>
       <path d="M 31.78125 66.40625 
Q 24.171875 66.40625 20.328125 58.90625 
Q 16.5 51.421875 16.5 36.375 
Q 16.5 21.390625 20.328125 13.890625 
Q 24.171875 6.390625 31.78125 6.390625 
Q 39.453125 6.390625 43.28125 13.890625 
Q 47.125 21.390625 47.125 36.375 
Q 47.125 51.421875 43.28125 58.90625 
Q 39.453125 66.40625 31.78125 66.40625 
z
M 31.78125 74.21875 
Q 44.046875 74.21875 50.515625 64.515625 
Q 56.984375 54.828125 56.984375 36.375 
Q 56.984375 17.96875 50.515625 8.265625 
Q 44.046875 -1.421875 31.78125 -1.421875 
Q 19.53125 -1.421875 13.0625 8.265625 
Q 6.59375 17.96875 6.59375 36.375 
Q 6.59375 54.828125 13.0625 64.515625 
Q 19.53125 74.21875 31.78125 74.21875 
z
" id="DejaVuSans-30"/>
      </defs>
      <g transform="translate(70.380932 322.182437)scale(0.1 -0.1)">
       <use xlink:href="#DejaVuSans-30"/>
      </g>
     </g>
    </g>
    <g id="xtick_2">
     <g id="line2d_2">
      <g>
       <use style="stroke:#000000;stroke-width:0.8;" x="127.671273" xlink:href="#m7efe55e8cd" y="307.584"/>
      </g>
     </g>
     <g id="text_2">
      <!-- 200 -->
      <defs>
       <path d="M 19.1875 8.296875 
L 53.609375 8.296875 
L 53.609375 0 
L 7.328125 0 
L 7.328125 8.296875 
Q 12.9375 14.109375 22.625 23.890625 
Q 32.328125 33.6875 34.8125 36.53125 
Q 39.546875 41.84375 41.421875 45.53125 
Q 43.3125 49.21875 43.3125 52.78125 
Q 43.3125 58.59375 39.234375 62.25 
Q 35.15625 65.921875 28.609375 65.921875 
Q 23.96875 65.921875 18.8125 64.3125 
Q 13.671875 62.703125 7.8125 59.421875 
L 7.8125 69.390625 
Q 13.765625 71.78125 18.9375 73 
Q 24.125 74.21875 28.421875 74.21875 
Q 39.75 74.21875 46.484375 68.546875 
Q 53.21875 62.890625 53.21875 53.421875 
Q 53.21875 48.921875 51.53125 44.890625 
Q 49.859375 40.875 45.40625 35.40625 
Q 44.1875 33.984375 37.640625 27.21875 
Q 31.109375 20.453125 19.1875 8.296875 
z
" id="DejaVuSans-32"/>
      </defs>
      <g transform="translate(118.127523 322.182437)scale(0.1 -0.1)">
       <use xlink:href="#DejaVuSans-32"/>
       <use x="63.623047" xlink:href="#DejaVuSans-30"/>
       <use x="127.246094" xlink:href="#DejaVuSans-30"/>
      </g>
     </g>
    </g>
    <g id="xtick_3">
     <g id="line2d_3">
      <g>
       <use style="stroke:#000000;stroke-width:0.8;" x="181.780364" xlink:href="#m7efe55e8cd" y="307.584"/>
      </g>
     </g>
     <g id="text_3">
      <!-- 400 -->
      <defs>
       <path d="M 37.796875 64.3125 
L 12.890625 25.390625 
L 37.796875 25.390625 
z
M 35.203125 72.90625 
L 47.609375 72.90625 
L 47.609375 25.390625 
L 58.015625 25.390625 
L 58.015625 17.1875 
L 47.609375 17.1875 
L 47.609375 0 
L 37.796875 0 
L 37.796875 17.1875 
L 4.890625 17.1875 
L 4.890625 26.703125 
z
" id="DejaVuSans-34"/>
      </defs>
      <g transform="translate(172.236614 322.182437)scale(0.1 -0.1)">
       <use xlink:href="#DejaVuSans-34"/>
       <use x="63.623047" xlink:href="#DejaVuSans-30"/>
       <use x="127.246094" xlink:href="#DejaVuSans-30"/>
      </g>
     </g>
    </g>
    <g id="xtick_4">
     <g id="line2d_4">
      <g>
       <use style="stroke:#000000;stroke-width:0.8;" x="235.889455" xlink:href="#m7efe55e8cd" y="307.584"/>
      </g>
     </g>
     <g id="text_4">
      <!-- 600 -->
      <defs>
       <path d="M 33.015625 40.375 
Q 26.375 40.375 22.484375 35.828125 
Q 18.609375 31.296875 18.609375 23.390625 
Q 18.609375 15.53125 22.484375 10.953125 
Q 26.375 6.390625 33.015625 6.390625 
Q 39.65625 6.390625 43.53125 10.953125 
Q 47.40625 15.53125 47.40625 23.390625 
Q 47.40625 31.296875 43.53125 35.828125 
Q 39.65625 40.375 33.015625 40.375 
z
M 52.59375 71.296875 
L 52.59375 62.3125 
Q 48.875 64.0625 45.09375 64.984375 
Q 41.3125 65.921875 37.59375 65.921875 
Q 27.828125 65.921875 22.671875 59.328125 
Q 17.53125 52.734375 16.796875 39.40625 
Q 19.671875 43.65625 24.015625 45.921875 
Q 28.375 48.1875 33.59375 48.1875 
Q 44.578125 48.1875 50.953125 41.515625 
Q 57.328125 34.859375 57.328125 23.390625 
Q 57.328125 12.15625 50.6875 5.359375 
Q 44.046875 -1.421875 33.015625 -1.421875 
Q 20.359375 -1.421875 13.671875 8.265625 
Q 6.984375 17.96875 6.984375 36.375 
Q 6.984375 53.65625 15.1875 63.9375 
Q 23.390625 74.21875 37.203125 74.21875 
Q 40.921875 74.21875 44.703125 73.484375 
Q 48.484375 72.75 52.59375 71.296875 
z
" id="DejaVuSans-36"/>
      </defs>
      <g transform="translate(226.345705 322.182437)scale(0.1 -0.1)">
       <use xlink:href="#DejaVuSans-36"/>
       <use x="63.623047" xlink:href="#DejaVuSans-30"/>
       <use x="127.246094" xlink:href="#DejaVuSans-30"/>
      </g>
     </g>
    </g>
    <g id="xtick_5">
     <g id="line2d_5">
      <g>
       <use style="stroke:#000000;stroke-width:0.8;" x="289.998545" xlink:href="#m7efe55e8cd" y="307.584"/>
      </g>
     </g>
     <g id="text_5">
      <!-- 800 -->
      <defs>
       <path d="M 31.78125 34.625 
Q 24.75 34.625 20.71875 30.859375 
Q 16.703125 27.09375 16.703125 20.515625 
Q 16.703125 13.921875 20.71875 10.15625 
Q 24.75 6.390625 31.78125 6.390625 
Q 38.8125 6.390625 42.859375 10.171875 
Q 46.921875 13.96875 46.921875 20.515625 
Q 46.921875 27.09375 42.890625 30.859375 
Q 38.875 34.625 31.78125 34.625 
z
M 21.921875 38.8125 
Q 15.578125 40.375 12.03125 44.71875 
Q 8.5 49.078125 8.5 55.328125 
Q 8.5 64.0625 14.71875 69.140625 
Q 20.953125 74.21875 31.78125 74.21875 
Q 42.671875 74.21875 48.875 69.140625 
Q 55.078125 64.0625 55.078125 55.328125 
Q 55.078125 49.078125 51.53125 44.71875 
Q 48 40.375 41.703125 38.8125 
Q 48.828125 37.15625 52.796875 32.3125 
Q 56.78125 27.484375 56.78125 20.515625 
Q 56.78125 9.90625 50.3125 4.234375 
Q 43.84375 -1.421875 31.78125 -1.421875 
Q 19.734375 -1.421875 13.25 4.234375 
Q 6.78125 9.90625 6.78125 20.515625 
Q 6.78125 27.484375 10.78125 32.3125 
Q 14.796875 37.15625 21.921875 38.8125 
z
M 18.3125 54.390625 
Q 18.3125 48.734375 21.84375 45.5625 
Q 25.390625 42.390625 31.78125 42.390625 
Q 38.140625 42.390625 41.71875 45.5625 
Q 45.3125 48.734375 45.3125 54.390625 
Q 45.3125 60.0625 41.71875 63.234375 
Q 38.140625 66.40625 31.78125 66.40625 
Q 25.390625 66.40625 21.84375 63.234375 
Q 18.3125 60.0625 18.3125 54.390625 
z
" id="DejaVuSans-38"/>
      </defs>
      <g transform="translate(280.454795 322.182437)scale(0.1 -0.1)">
       <use xlink:href="#DejaVuSans-38"/>
       <use x="63.623047" xlink:href="#DejaVuSans-30"/>
       <use x="127.246094" xlink:href="#DejaVuSans-30"/>
      </g>
     </g>
    </g>
    <g id="xtick_6">
     <g id="line2d_6">
      <g>
       <use style="stroke:#000000;stroke-width:0.8;" x="344.107636" xlink:href="#m7efe55e8cd" y="307.584"/>
      </g>
     </g>
     <g id="text_6">
      <!-- 1000 -->
      <defs>
       <path d="M 12.40625 8.296875 
L 28.515625 8.296875 
L 28.515625 63.921875 
L 10.984375 60.40625 
L 10.984375 69.390625 
L 28.421875 72.90625 
L 38.28125 72.90625 
L 38.28125 8.296875 
L 54.390625 8.296875 
L 54.390625 0 
L 12.40625 0 
z
" id="DejaVuSans-31"/>
      </defs>
      <g transform="translate(331.382636 322.182437)scale(0.1 -0.1)">
       <use xlink:href="#DejaVuSans-31"/>
       <use x="63.623047" xlink:href="#DejaVuSans-30"/>
       <use x="127.246094" xlink:href="#DejaVuSans-30"/>
       <use x="190.869141" xlink:href="#DejaVuSans-30"/>
      </g>
     </g>
    </g>
    <g id="xtick_7">
     <g id="line2d_7">
      <g>
       <use style="stroke:#000000;stroke-width:0.8;" x="398.216727" xlink:href="#m7efe55e8cd" y="307.584"/>
      </g>
     </g>
     <g id="text_7">
      <!-- 1200 -->
      <g transform="translate(385.491727 322.182437)scale(0.1 -0.1)">
       <use xlink:href="#DejaVuSans-31"/>
       <use x="63.623047" xlink:href="#DejaVuSans-32"/>
       <use x="127.246094" xlink:href="#DejaVuSans-30"/>
       <use x="190.869141" xlink:href="#DejaVuSans-30"/>
      </g>
     </g>
    </g>
    <g id="text_8">
     <!-- Generation number -->
     <defs>
      <path d="M 59.515625 10.40625 
L 59.515625 29.984375 
L 43.40625 29.984375 
L 43.40625 38.09375 
L 69.28125 38.09375 
L 69.28125 6.78125 
Q 63.578125 2.734375 56.6875 0.65625 
Q 49.8125 -1.421875 42 -1.421875 
Q 24.90625 -1.421875 15.25 8.5625 
Q 5.609375 18.5625 5.609375 36.375 
Q 5.609375 54.25 15.25 64.234375 
Q 24.90625 74.21875 42 74.21875 
Q 49.125 74.21875 55.546875 72.453125 
Q 61.96875 70.703125 67.390625 67.28125 
L 67.390625 56.78125 
Q 61.921875 61.421875 55.765625 63.765625 
Q 49.609375 66.109375 42.828125 66.109375 
Q 29.4375 66.109375 22.71875 58.640625 
Q 16.015625 51.171875 16.015625 36.375 
Q 16.015625 21.625 22.71875 14.15625 
Q 29.4375 6.6875 42.828125 6.6875 
Q 48.046875 6.6875 52.140625 7.59375 
Q 56.25 8.5 59.515625 10.40625 
z
" id="DejaVuSans-47"/>
      <path d="M 56.203125 29.59375 
L 56.203125 25.203125 
L 14.890625 25.203125 
Q 15.484375 15.921875 20.484375 11.0625 
Q 25.484375 6.203125 34.421875 6.203125 
Q 39.59375 6.203125 44.453125 7.46875 
Q 49.3125 8.734375 54.109375 11.28125 
L 54.109375 2.78125 
Q 49.265625 0.734375 44.1875 -0.34375 
Q 39.109375 -1.421875 33.890625 -1.421875 
Q 20.796875 -1.421875 13.15625 6.1875 
Q 5.515625 13.8125 5.515625 26.8125 
Q 5.515625 40.234375 12.765625 48.109375 
Q 20.015625 56 32.328125 56 
Q 43.359375 56 49.78125 48.890625 
Q 56.203125 41.796875 56.203125 29.59375 
z
M 47.21875 32.234375 
Q 47.125 39.59375 43.09375 43.984375 
Q 39.0625 48.390625 32.421875 48.390625 
Q 24.90625 48.390625 20.390625 44.140625 
Q 15.875 39.890625 15.1875 32.171875 
z
" id="DejaVuSans-65"/>
      <path d="M 54.890625 33.015625 
L 54.890625 0 
L 45.90625 0 
L 45.90625 32.71875 
Q 45.90625 40.484375 42.875 44.328125 
Q 39.84375 48.1875 33.796875 48.1875 
Q 26.515625 48.1875 22.3125 43.546875 
Q 18.109375 38.921875 18.109375 30.90625 
L 18.109375 0 
L 9.078125 0 
L 9.078125 54.6875 
L 18.109375 54.6875 
L 18.109375 46.1875 
Q 21.34375 51.125 25.703125 53.5625 
Q 30.078125 56 35.796875 56 
Q 45.21875 56 50.046875 50.171875 
Q 54.890625 44.34375 54.890625 33.015625 
z
" id="DejaVuSans-6e"/>
      <path d="M 41.109375 46.296875 
Q 39.59375 47.171875 37.8125 47.578125 
Q 36.03125 48 33.890625 48 
Q 26.265625 48 22.1875 43.046875 
Q 18.109375 38.09375 18.109375 28.8125 
L 18.109375 0 
L 9.078125 0 
L 9.078125 54.6875 
L 18.109375 54.6875 
L 18.109375 46.1875 
Q 20.953125 51.171875 25.484375 53.578125 
Q 30.03125 56 36.53125 56 
Q 37.453125 56 38.578125 55.875 
Q 39.703125 55.765625 41.0625 55.515625 
z
" id="DejaVuSans-72"/>
      <path d="M 34.28125 27.484375 
Q 23.390625 27.484375 19.1875 25 
Q 14.984375 22.515625 14.984375 16.5 
Q 14.984375 11.71875 18.140625 8.90625 
Q 21.296875 6.109375 26.703125 6.109375 
Q 34.1875 6.109375 38.703125 11.40625 
Q 43.21875 16.703125 43.21875 25.484375 
L 43.21875 27.484375 
z
M 52.203125 31.203125 
L 52.203125 0 
L 43.21875 0 
L 43.21875 8.296875 
Q 40.140625 3.328125 35.546875 0.953125 
Q 30.953125 -1.421875 24.3125 -1.421875 
Q 15.921875 -1.421875 10.953125 3.296875 
Q 6 8.015625 6 15.921875 
Q 6 25.140625 12.171875 29.828125 
Q 18.359375 34.515625 30.609375 34.515625 
L 43.21875 34.515625 
L 43.21875 35.40625 
Q 43.21875 41.609375 39.140625 45 
Q 35.0625 48.390625 27.6875 48.390625 
Q 23 48.390625 18.546875 47.265625 
Q 14.109375 46.140625 10.015625 43.890625 
L 10.015625 52.203125 
Q 14.9375 54.109375 19.578125 55.046875 
Q 24.21875 56 28.609375 56 
Q 40.484375 56 46.34375 49.84375 
Q 52.203125 43.703125 52.203125 31.203125 
z
" id="DejaVuSans-61"/>
      <path d="M 18.3125 70.21875 
L 18.3125 54.6875 
L 36.8125 54.6875 
L 36.8125 47.703125 
L 18.3125 47.703125 
L 18.3125 18.015625 
Q 18.3125 11.328125 20.140625 9.421875 
Q 21.96875 7.515625 27.59375 7.515625 
L 36.8125 7.515625 
L 36.8125 0 
L 27.59375 0 
Q 17.1875 0 13.234375 3.875 
Q 9.28125 7.765625 9.28125 18.015625 
L 9.28125 47.703125 
L 2.6875 47.703125 
L 2.6875 54.6875 
L 9.28125 54.6875 
L 9.28125 70.21875 
z
" id="DejaVuSans-74"/>
      <path d="M 9.421875 54.6875 
L 18.40625 54.6875 
L 18.40625 0 
L 9.421875 0 
z
M 9.421875 75.984375 
L 18.40625 75.984375 
L 18.40625 64.59375 
L 9.421875 64.59375 
z
" id="DejaVuSans-69"/>
      <path d="M 30.609375 48.390625 
Q 23.390625 48.390625 19.1875 42.75 
Q 14.984375 37.109375 14.984375 27.296875 
Q 14.984375 17.484375 19.15625 11.84375 
Q 23.34375 6.203125 30.609375 6.203125 
Q 37.796875 6.203125 41.984375 11.859375 
Q 46.1875 17.53125 46.1875 27.296875 
Q 46.1875 37.015625 41.984375 42.703125 
Q 37.796875 48.390625 30.609375 48.390625 
z
M 30.609375 56 
Q 42.328125 56 49.015625 48.375 
Q 55.71875 40.765625 55.71875 27.296875 
Q 55.71875 13.875 49.015625 6.21875 
Q 42.328125 -1.421875 30.609375 -1.421875 
Q 18.84375 -1.421875 12.171875 6.21875 
Q 5.515625 13.875 5.515625 27.296875 
Q 5.515625 40.765625 12.171875 48.375 
Q 18.84375 56 30.609375 56 
z
" id="DejaVuSans-6f"/>
      <path id="DejaVuSans-20"/>
      <path d="M 8.5 21.578125 
L 8.5 54.6875 
L 17.484375 54.6875 
L 17.484375 21.921875 
Q 17.484375 14.15625 20.5 10.265625 
Q 23.53125 6.390625 29.59375 6.390625 
Q 36.859375 6.390625 41.078125 11.03125 
Q 45.3125 15.671875 45.3125 23.6875 
L 45.3125 54.6875 
L 54.296875 54.6875 
L 54.296875 0 
L 45.3125 0 
L 45.3125 8.40625 
Q 42.046875 3.421875 37.71875 1 
Q 33.40625 -1.421875 27.6875 -1.421875 
Q 18.265625 -1.421875 13.375 4.4375 
Q 8.5 10.296875 8.5 21.578125 
z
M 31.109375 56 
z
" id="DejaVuSans-75"/>
      <path d="M 52 44.1875 
Q 55.375 50.25 60.0625 53.125 
Q 64.75 56 71.09375 56 
Q 79.640625 56 84.28125 50.015625 
Q 88.921875 44.046875 88.921875 33.015625 
L 88.921875 0 
L 79.890625 0 
L 79.890625 32.71875 
Q 79.890625 40.578125 77.09375 44.375 
Q 74.3125 48.1875 68.609375 48.1875 
Q 61.625 48.1875 57.5625 43.546875 
Q 53.515625 38.921875 53.515625 30.90625 
L 53.515625 0 
L 44.484375 0 
L 44.484375 32.71875 
Q 44.484375 40.625 41.703125 44.40625 
Q 38.921875 48.1875 33.109375 48.1875 
Q 26.21875 48.1875 22.15625 43.53125 
Q 18.109375 38.875 18.109375 30.90625 
L 18.109375 0 
L 9.078125 0 
L 9.078125 54.6875 
L 18.109375 54.6875 
L 18.109375 46.1875 
Q 21.1875 51.21875 25.484375 53.609375 
Q 29.78125 56 35.6875 56 
Q 41.65625 56 45.828125 52.96875 
Q 50 49.953125 52 44.1875 
z
" id="DejaVuSans-6d"/>
      <path d="M 48.6875 27.296875 
Q 48.6875 37.203125 44.609375 42.84375 
Q 40.53125 48.484375 33.40625 48.484375 
Q 26.265625 48.484375 22.1875 42.84375 
Q 18.109375 37.203125 18.109375 27.296875 
Q 18.109375 17.390625 22.1875 11.75 
Q 26.265625 6.109375 33.40625 6.109375 
Q 40.53125 6.109375 44.609375 11.75 
Q 48.6875 17.390625 48.6875 27.296875 
z
M 18.109375 46.390625 
Q 20.953125 51.265625 25.265625 53.625 
Q 29.59375 56 35.59375 56 
Q 45.5625 56 51.78125 48.09375 
Q 58.015625 40.1875 58.015625 27.296875 
Q 58.015625 14.40625 51.78125 6.484375 
Q 45.5625 -1.421875 35.59375 -1.421875 
Q 29.59375 -1.421875 25.265625 0.953125 
Q 20.953125 3.328125 18.109375 8.203125 
L 18.109375 0 
L 9.078125 0 
L 9.078125 75.984375 
L 18.109375 75.984375 
z
" id="DejaVuSans-62"/>
     </defs>
     <g transform="translate(187.163906 335.860562)scale(0.1 -0.1)">
      <use xlink:href="#DejaVuSans-47"/>
      <use x="77.490234" xlink:href="#DejaVuSans-65"/>
      <use x="139.013672" xlink:href="#DejaVuSans-6e"/>
      <use x="202.392578" xlink:href="#DejaVuSans-65"/>
      <use x="263.916016" xlink:href="#DejaVuSans-72"/>
      <use x="305.029297" xlink:href="#DejaVuSans-61"/>
      <use x="366.308594" xlink:href="#DejaVuSans-74"/>
      <use x="405.517578" xlink:href="#DejaVuSans-69"/>
      <use x="433.300781" xlink:href="#DejaVuSans-6f"/>
      <use x="494.482422" xlink:href="#DejaVuSans-6e"/>
      <use x="557.861328" xlink:href="#DejaVuSans-20"/>
      <use x="589.648438" xlink:href="#DejaVuSans-6e"/>
      <use x="653.027344" xlink:href="#DejaVuSans-75"/>
      <use x="716.40625" xlink:href="#DejaVuSans-6d"/>
      <use x="813.818359" xlink:href="#DejaVuSans-62"/>
      <use x="877.294922" xlink:href="#DejaVuSans-65"/>
      <use x="938.818359" xlink:href="#DejaVuSans-72"/>
     </g>
    </g>
   </g>
   <g id="matplotlib.axis_2">
    <g id="ytick_1">
     <g id="line2d_8">
      <defs>
       <path d="M 0 0 
L -3.5 0 
" id="me01fa83d75" style="stroke:#000000;stroke-width:0.8;"/>
      </defs>
      <g>
       <use style="stroke:#000000;stroke-width:0.8;" x="57.6" xlink:href="#me01fa83d75" y="273.109717"/>
      </g>
     </g>
     <g id="text_9">
      <!-- 12500 -->
      <defs>
       <path d="M 10.796875 72.90625 
L 49.515625 72.90625 
L 49.515625 64.59375 
L 19.828125 64.59375 
L 19.828125 46.734375 
Q 21.96875 47.46875 24.109375 47.828125 
Q 26.265625 48.1875 28.421875 48.1875 
Q 40.625 48.1875 47.75 41.5 
Q 54.890625 34.8125 54.890625 23.390625 
Q 54.890625 11.625 47.5625 5.09375 
Q 40.234375 -1.421875 26.90625 -1.421875 
Q 22.3125 -1.421875 17.546875 -0.640625 
Q 12.796875 0.140625 7.71875 1.703125 
L 7.71875 11.625 
Q 12.109375 9.234375 16.796875 8.0625 
Q 21.484375 6.890625 26.703125 6.890625 
Q 35.15625 6.890625 40.078125 11.328125 
Q 45.015625 15.765625 45.015625 23.390625 
Q 45.015625 31 40.078125 35.4375 
Q 35.15625 39.890625 26.703125 39.890625 
Q 22.75 39.890625 18.8125 39.015625 
Q 14.890625 38.140625 10.796875 36.28125 
z
" id="DejaVuSans-35"/>
      </defs>
      <g transform="translate(18.7875 276.908936)scale(0.1 -0.1)">
       <use xlink:href="#DejaVuSans-31"/>
       <use x="63.623047" xlink:href="#DejaVuSans-32"/>
       <use x="127.246094" xlink:href="#DejaVuSans-35"/>
       <use x="190.869141" xlink:href="#DejaVuSans-30"/>
       <use x="254.492188" xlink:href="#DejaVuSans-30"/>
      </g>
     </g>
    </g>
    <g id="ytick_2">
     <g id="line2d_9">
      <g>
       <use style="stroke:#000000;stroke-width:0.8;" x="57.6" xlink:href="#me01fa83d75" y="238.082352"/>
      </g>
     </g>
     <g id="text_10">
      <!-- 15000 -->
      <g transform="translate(18.7875 241.881571)scale(0.1 -0.1)">
       <use xlink:href="#DejaVuSans-31"/>
       <use x="63.623047" xlink:href="#DejaVuSans-35"/>
       <use x="127.246094" xlink:href="#DejaVuSans-30"/>
       <use x="190.869141" xlink:href="#DejaVuSans-30"/>
       <use x="254.492188" xlink:href="#DejaVuSans-30"/>
      </g>
     </g>
    </g>
    <g id="ytick_3">
     <g id="line2d_10">
      <g>
       <use style="stroke:#000000;stroke-width:0.8;" x="57.6" xlink:href="#me01fa83d75" y="203.054987"/>
      </g>
     </g>
     <g id="text_11">
      <!-- 17500 -->
      <defs>
       <path d="M 8.203125 72.90625 
L 55.078125 72.90625 
L 55.078125 68.703125 
L 28.609375 0 
L 18.3125 0 
L 43.21875 64.59375 
L 8.203125 64.59375 
z
" id="DejaVuSans-37"/>
      </defs>
      <g transform="translate(18.7875 206.854205)scale(0.1 -0.1)">
       <use xlink:href="#DejaVuSans-31"/>
       <use x="63.623047" xlink:href="#DejaVuSans-37"/>
       <use x="127.246094" xlink:href="#DejaVuSans-35"/>
       <use x="190.869141" xlink:href="#DejaVuSans-30"/>
       <use x="254.492188" xlink:href="#DejaVuSans-30"/>
      </g>
     </g>
    </g>
    <g id="ytick_4">
     <g id="line2d_11">
      <g>
       <use style="stroke:#000000;stroke-width:0.8;" x="57.6" xlink:href="#me01fa83d75" y="168.027622"/>
      </g>
     </g>
     <g id="text_12">
      <!-- 20000 -->
      <g transform="translate(18.7875 171.82684)scale(0.1 -0.1)">
       <use xlink:href="#DejaVuSans-32"/>
       <use x="63.623047" xlink:href="#DejaVuSans-30"/>
       <use x="127.246094" xlink:href="#DejaVuSans-30"/>
       <use x="190.869141" xlink:href="#DejaVuSans-30"/>
       <use x="254.492188" xlink:href="#DejaVuSans-30"/>
      </g>
     </g>
    </g>
    <g id="ytick_5">
     <g id="line2d_12">
      <g>
       <use style="stroke:#000000;stroke-width:0.8;" x="57.6" xlink:href="#me01fa83d75" y="133.000256"/>
      </g>
     </g>
     <g id="text_13">
      <!-- 22500 -->
      <g transform="translate(18.7875 136.799475)scale(0.1 -0.1)">
       <use xlink:href="#DejaVuSans-32"/>
       <use x="63.623047" xlink:href="#DejaVuSans-32"/>
       <use x="127.246094" xlink:href="#DejaVuSans-35"/>
       <use x="190.869141" xlink:href="#DejaVuSans-30"/>
       <use x="254.492188" xlink:href="#DejaVuSans-30"/>
      </g>
     </g>
    </g>
    <g id="ytick_6">
     <g id="line2d_13">
      <g>
       <use style="stroke:#000000;stroke-width:0.8;" x="57.6" xlink:href="#me01fa83d75" y="97.972891"/>
      </g>
     </g>
     <g id="text_14">
      <!-- 25000 -->
      <g transform="translate(18.7875 101.77211)scale(0.1 -0.1)">
       <use xlink:href="#DejaVuSans-32"/>
       <use x="63.623047" xlink:href="#DejaVuSans-35"/>
       <use x="127.246094" xlink:href="#DejaVuSans-30"/>
       <use x="190.869141" xlink:href="#DejaVuSans-30"/>
       <use x="254.492188" xlink:href="#DejaVuSans-30"/>
      </g>
     </g>
    </g>
    <g id="ytick_7">
     <g id="line2d_14">
      <g>
       <use style="stroke:#000000;stroke-width:0.8;" x="57.6" xlink:href="#me01fa83d75" y="62.945526"/>
      </g>
     </g>
     <g id="text_15">
      <!-- 27500 -->
      <g transform="translate(18.7875 66.744745)scale(0.1 -0.1)">
       <use xlink:href="#DejaVuSans-32"/>
       <use x="63.623047" xlink:href="#DejaVuSans-37"/>
       <use x="127.246094" xlink:href="#DejaVuSans-35"/>
       <use x="190.869141" xlink:href="#DejaVuSans-30"/>
       <use x="254.492188" xlink:href="#DejaVuSans-30"/>
      </g>
     </g>
    </g>
    <g id="text_16">
     <!-- Average fitness -->
     <defs>
      <path d="M 34.1875 63.1875 
L 20.796875 26.90625 
L 47.609375 26.90625 
z
M 28.609375 72.90625 
L 39.796875 72.90625 
L 67.578125 0 
L 57.328125 0 
L 50.6875 18.703125 
L 17.828125 18.703125 
L 11.1875 0 
L 0.78125 0 
z
" id="DejaVuSans-41"/>
      <path d="M 2.984375 54.6875 
L 12.5 54.6875 
L 29.59375 8.796875 
L 46.6875 54.6875 
L 56.203125 54.6875 
L 35.6875 0 
L 23.484375 0 
z
" id="DejaVuSans-76"/>
      <path d="M 45.40625 27.984375 
Q 45.40625 37.75 41.375 43.109375 
Q 37.359375 48.484375 30.078125 48.484375 
Q 22.859375 48.484375 18.828125 43.109375 
Q 14.796875 37.75 14.796875 27.984375 
Q 14.796875 18.265625 18.828125 12.890625 
Q 22.859375 7.515625 30.078125 7.515625 
Q 37.359375 7.515625 41.375 12.890625 
Q 45.40625 18.265625 45.40625 27.984375 
z
M 54.390625 6.78125 
Q 54.390625 -7.171875 48.1875 -13.984375 
Q 42 -20.796875 29.203125 -20.796875 
Q 24.46875 -20.796875 20.265625 -20.09375 
Q 16.0625 -19.390625 12.109375 -17.921875 
L 12.109375 -9.1875 
Q 16.0625 -11.328125 19.921875 -12.34375 
Q 23.78125 -13.375 27.78125 -13.375 
Q 36.625 -13.375 41.015625 -8.765625 
Q 45.40625 -4.15625 45.40625 5.171875 
L 45.40625 9.625 
Q 42.625 4.78125 38.28125 2.390625 
Q 33.9375 0 27.875 0 
Q 17.828125 0 11.671875 7.65625 
Q 5.515625 15.328125 5.515625 27.984375 
Q 5.515625 40.671875 11.671875 48.328125 
Q 17.828125 56 27.875 56 
Q 33.9375 56 38.28125 53.609375 
Q 42.625 51.21875 45.40625 46.390625 
L 45.40625 54.6875 
L 54.390625 54.6875 
z
" id="DejaVuSans-67"/>
      <path d="M 37.109375 75.984375 
L 37.109375 68.5 
L 28.515625 68.5 
Q 23.6875 68.5 21.796875 66.546875 
Q 19.921875 64.59375 19.921875 59.515625 
L 19.921875 54.6875 
L 34.71875 54.6875 
L 34.71875 47.703125 
L 19.921875 47.703125 
L 19.921875 0 
L 10.890625 0 
L 10.890625 47.703125 
L 2.296875 47.703125 
L 2.296875 54.6875 
L 10.890625 54.6875 
L 10.890625 58.5 
Q 10.890625 67.625 15.140625 71.796875 
Q 19.390625 75.984375 28.609375 75.984375 
z
" id="DejaVuSans-66"/>
      <path d="M 44.28125 53.078125 
L 44.28125 44.578125 
Q 40.484375 46.53125 36.375 47.5 
Q 32.28125 48.484375 27.875 48.484375 
Q 21.1875 48.484375 17.84375 46.4375 
Q 14.5 44.390625 14.5 40.28125 
Q 14.5 37.15625 16.890625 35.375 
Q 19.28125 33.59375 26.515625 31.984375 
L 29.59375 31.296875 
Q 39.15625 29.25 43.1875 25.515625 
Q 47.21875 21.78125 47.21875 15.09375 
Q 47.21875 7.46875 41.1875 3.015625 
Q 35.15625 -1.421875 24.609375 -1.421875 
Q 20.21875 -1.421875 15.453125 -0.5625 
Q 10.6875 0.296875 5.421875 2 
L 5.421875 11.28125 
Q 10.40625 8.6875 15.234375 7.390625 
Q 20.0625 6.109375 24.8125 6.109375 
Q 31.15625 6.109375 34.5625 8.28125 
Q 37.984375 10.453125 37.984375 14.40625 
Q 37.984375 18.0625 35.515625 20.015625 
Q 33.0625 21.96875 24.703125 23.78125 
L 21.578125 24.515625 
Q 13.234375 26.265625 9.515625 29.90625 
Q 5.8125 33.546875 5.8125 39.890625 
Q 5.8125 47.609375 11.28125 51.796875 
Q 16.75 56 26.8125 56 
Q 31.78125 56 36.171875 55.265625 
Q 40.578125 54.546875 44.28125 53.078125 
z
" id="DejaVuSans-73"/>
     </defs>
     <g transform="translate(12.707812 213.503781)rotate(-90)scale(0.1 -0.1)">
      <use xlink:href="#DejaVuSans-41"/>
      <use x="68.330078" xlink:href="#DejaVuSans-76"/>
      <use x="127.509766" xlink:href="#DejaVuSans-65"/>
      <use x="189.033203" xlink:href="#DejaVuSans-72"/>
      <use x="230.146484" xlink:href="#DejaVuSans-61"/>
      <use x="291.425781" xlink:href="#DejaVuSans-67"/>
      <use x="354.902344" xlink:href="#DejaVuSans-65"/>
      <use x="416.425781" xlink:href="#DejaVuSans-20"/>
      <use x="448.212891" xlink:href="#DejaVuSans-66"/>
      <use x="483.417969" xlink:href="#DejaVuSans-69"/>
      <use x="511.201172" xlink:href="#DejaVuSans-74"/>
      <use x="550.410156" xlink:href="#DejaVuSans-6e"/>
      <use x="613.789062" xlink:href="#DejaVuSans-65"/>
      <use x="675.3125" xlink:href="#DejaVuSans-73"/>
      <use x="727.412109" xlink:href="#DejaVuSans-73"/>
     </g>
    </g>
   </g>
   <g id="line2d_15">
    <path clip-path="url(#p87bda43b16)" d="M 73.832727 54.644041 
L 74.103273 82.356291 
L 74.644364 106.32902 
L 75.185455 117.991731 
L 75.726545 125.589867 
L 76.538182 133.176794 
L 77.890909 141.907015 
L 79.784727 150.827784 
L 80.596364 154.090934 
L 81.678545 157.852873 
L 82.760727 161.410252 
L 84.113455 165.47903 
L 85.195636 168.285423 
L 86.548364 171.713901 
L 86.818909 171.765742 
L 87.630545 179.603465 
L 88.171636 183.296751 
L 89.524364 189.214974 
L 89.794909 189.937939 
L 90.065455 187.897945 
L 90.336 190.229367 
L 90.606545 190.925711 
L 91.418182 196.161601 
L 91.959273 198.330496 
L 92.500364 200.385901 
L 93.312 203.105426 
L 93.582545 199.508816 
L 94.123636 203.308585 
L 94.394182 204.775531 
L 94.664727 203.098421 
L 95.205818 206.25929 
L 96.017455 209.867109 
L 96.558545 211.511994 
L 97.099636 212.929901 
L 97.370182 210.622299 
L 97.911273 213.156879 
L 98.452364 214.775143 
L 99.534545 217.955628 
L 99.805091 218.368951 
L 100.075636 214.162865 
L 100.616727 217.413404 
L 101.157818 219.421173 
L 101.428364 219.834496 
L 101.698909 219.896144 
L 101.969455 220.205786 
L 102.510545 222.320038 
L 103.322182 224.183493 
L 104.133818 225.724697 
L 104.404364 226.114202 
L 104.674909 223.540391 
L 104.945455 222.916904 
L 105.757091 226.128213 
L 107.109818 228.917792 
L 107.380364 229.242846 
L 107.921455 230.098915 
L 108.733091 231.121714 
L 109.274182 231.818058 
L 109.544727 231.973579 
L 109.815273 232.412122 
L 110.085818 232.449952 
L 110.356364 228.210239 
L 110.626909 221.933335 
L 111.168 226.453267 
L 111.709091 229.024275 
L 111.979636 227.195847 
L 112.520727 230.288063 
L 112.791273 231.563059 
L 113.061818 231.944156 
L 113.602909 233.57503 
L 113.873455 232.87028 
L 114.414545 234.571209 
L 114.955636 235.896644 
L 115.226182 231.707371 
L 116.037818 234.67489 
L 116.308364 233.195334 
L 116.578909 232.786214 
L 117.12 235.061592 
L 117.390545 236.00593 
L 117.661091 233.806211 
L 118.202182 236.361808 
L 119.013818 238.470455 
L 119.284364 239.016882 
L 119.554909 237.212272 
L 119.825455 238.190236 
L 121.178182 241.045667 
L 121.448727 236.773729 
L 121.719273 237.712463 
L 121.989818 236.616807 
L 122.260364 237.534524 
L 122.530909 236.241314 
L 123.072 238.959437 
L 123.342545 233.58764 
L 123.883636 237.704056 
L 124.154182 238.7843 
L 124.695273 235.994721 
L 124.965818 237.527518 
L 125.236364 236.307165 
L 125.777455 239.389573 
L 126.318545 241.642533 
L 126.589091 242.337476 
L 126.859636 241.409952 
L 127.130182 238.614768 
L 127.400727 240.581905 
L 127.671273 240.66597 
L 128.212364 243.11088 
L 128.482909 242.613492 
L 129.024 244.583431 
L 129.294545 245.282577 
L 129.835636 242.743794 
L 130.106182 239.12897 
L 130.647273 242.523822 
L 131.458909 245.276973 
L 131.729455 245.967712 
L 132 244.811809 
L 132.270545 245.8234 
L 132.541091 245.408676 
L 132.811636 246.47631 
L 133.082182 246.713095 
L 133.623273 248.203859 
L 133.893818 248.674627 
L 134.164364 248.800726 
L 134.705455 249.768882 
L 135.787636 251.106927 
L 136.058182 251.294674 
L 136.599273 251.944782 
L 136.869818 252.225001 
L 137.140364 252.267034 
L 137.410909 252.444973 
L 137.952 243.061842 
L 138.222545 245.045792 
L 138.493091 243.117886 
L 139.034182 246.52815 
L 139.575273 248.664819 
L 140.928 251.848106 
L 141.469091 252.718186 
L 142.551273 254.008594 
L 142.821818 253.909116 
L 143.362909 254.560625 
L 143.633455 254.590048 
L 143.904 251.139152 
L 144.174545 252.061073 
L 144.445091 249.826327 
L 144.715636 251.162971 
L 144.986182 248.451853 
L 145.527273 251.230224 
L 145.797818 246.264744 
L 146.609455 251.185389 
L 147.691636 254.231368 
L 147.962182 251.665964 
L 148.232727 253.061454 
L 148.503273 252.125523 
L 148.773818 252.317473 
L 149.044364 253.390711 
L 149.314909 252.7364 
L 149.585455 250.697808 
L 150.126545 253.336069 
L 150.667636 254.983756 
L 150.938182 248.897401 
L 151.479273 252.798048 
L 151.749818 252.950768 
L 152.020364 249.952425 
L 152.290909 250.442808 
L 152.561455 249.572729 
L 153.102545 252.942361 
L 153.373091 254.043622 
L 153.643636 251.461404 
L 154.184727 254.312632 
L 154.725818 256.233532 
L 155.266909 257.441276 
L 155.537455 251.172779 
L 155.808 249.682014 
L 156.349091 253.17074 
L 156.890182 255.195321 
L 157.160727 251.241432 
L 157.431273 253.28703 
L 157.701818 252.499615 
L 158.513455 256.446499 
L 158.784 250.322314 
L 159.325091 254.248181 
L 159.866182 256.662267 
L 160.948364 259.697038 
L 161.218909 260.005279 
L 161.489455 255.633864 
L 161.76 257.246524 
L 162.030545 256.216719 
L 162.571636 258.580366 
L 163.653818 261.085523 
L 164.465455 262.199393 
L 164.736 261.354533 
L 165.006545 262.020053 
L 165.277091 262.282058 
L 165.547636 259.140804 
L 165.818182 253.970765 
L 166.088727 253.556041 
L 166.629818 257.26754 
L 166.900364 258.408031 
L 167.170909 258.612591 
L 167.712 260.471844 
L 167.982545 256.400263 
L 168.523636 259.636791 
L 169.064727 261.545082 
L 169.335273 262.242827 
L 169.605818 258.507509 
L 169.876364 260.059922 
L 170.958545 263.366505 
L 171.770182 264.53782 
L 172.040727 257.058777 
L 172.311273 259.475665 
L 172.581818 254.89969 
L 172.852364 257.194683 
L 173.122909 255.332629 
L 173.664 259.542918 
L 173.934545 260.988848 
L 174.475636 262.500629 
L 175.016727 263.883509 
L 175.557818 265.124879 
L 175.828364 258.702261 
L 176.098909 257.365617 
L 176.910545 261.835109 
L 177.181091 262.615518 
L 177.451636 261.072913 
L 177.722182 261.809889 
L 177.992727 260.442421 
L 178.533818 263.072275 
L 179.074909 264.610677 
L 179.886545 266.07342 
L 180.157091 259.307534 
L 180.698182 262.263844 
L 180.968727 258.321163 
L 181.239273 260.386377 
L 181.509818 257.95828 
L 182.050909 261.942993 
L 182.321455 258.833964 
L 182.592 258.071769 
L 183.133091 261.65717 
L 184.215273 265.134686 
L 184.756364 266.21493 
L 185.026909 264.80683 
L 185.838545 266.968719 
L 186.109091 267.495531 
L 186.650182 266.817401 
L 186.920727 265.662899 
L 187.191273 266.409683 
L 187.461818 265.115071 
L 187.732364 265.887074 
L 188.002909 262.653348 
L 188.273455 264.480375 
L 188.544 261.797279 
L 189.085091 264.848863 
L 189.355636 265.997761 
L 189.626182 264.586858 
L 190.167273 266.876247 
L 190.437818 266.622649 
L 190.978909 268.407643 
L 191.790545 269.969864 
L 192.061091 270.384588 
L 192.331636 270.520494 
L 192.602182 268.602396 
L 192.872727 269.430443 
L 193.143273 267.575393 
L 193.684364 269.553739 
L 193.954909 269.941842 
L 194.225455 264.28142 
L 194.766545 267.349817 
L 195.307636 269.098383 
L 195.578182 269.776513 
L 195.848727 265.361664 
L 196.119273 263.136726 
L 196.389818 263.376313 
L 196.660364 265.249576 
L 196.930909 262.646342 
L 197.201455 264.579853 
L 197.472 263.47579 
L 197.742545 263.381917 
L 198.013091 263.953564 
L 198.554182 266.876247 
L 199.095273 268.749511 
L 199.365818 269.661623 
L 199.636364 266.659077 
L 200.177455 269.102586 
L 200.448 264.533617 
L 200.718545 263.307659 
L 201.259636 266.881851 
L 201.800727 268.862999 
L 202.341818 270.415412 
L 202.612364 270.788103 
L 203.153455 271.712826 
L 203.694545 272.626339 
L 203.965091 270.674615 
L 204.235636 270.80912 
L 204.506182 267.54597 
L 205.047273 270.460247 
L 205.317818 262.91255 
L 205.858909 267.349817 
L 206.129455 267.536163 
L 206.670545 270.059534 
L 206.941091 268.57017 
L 207.482182 270.946427 
L 208.023273 272.571697 
L 208.293818 267.006549 
L 208.564364 268.882615 
L 208.834909 269.381404 
L 209.376 271.491453 
L 210.187636 273.457188 
L 210.728727 274.136719 
L 210.999273 273.249826 
L 211.540364 274.404328 
L 211.810909 274.904519 
L 212.081455 275.009601 
L 212.352 268.193276 
L 212.893091 271.738045 
L 213.704727 274.299246 
L 214.786909 275.960944 
L 215.057455 276.264982 
L 215.328 273.028453 
L 215.598545 272.033676 
L 215.869091 273.189579 
L 216.139636 268.289952 
L 216.951273 272.441395 
L 217.221818 267.760338 
L 217.492364 268.862999 
L 218.033455 271.908979 
L 218.574545 273.412353 
L 218.845091 266.429298 
L 219.656727 271.785683 
L 220.197818 273.604303 
L 221.009455 275.18754 
L 221.28 275.523803 
L 221.550545 269.024125 
L 221.821091 266.647869 
L 222.362182 270.421016 
L 222.903273 272.685185 
L 223.173818 272.12755 
L 223.444364 273.273645 
L 223.714909 272.379747 
L 224.526545 274.90592 
L 224.797091 272.568894 
L 225.067636 274.033038 
L 225.338182 272.676779 
L 225.879273 274.63691 
L 226.690909 276.269185 
L 227.502545 277.251353 
L 227.773091 277.318605 
L 228.043636 277.663274 
L 228.314182 269.975468 
L 228.584727 268.879812 
L 229.125818 272.357329 
L 229.396364 267.08501 
L 229.937455 271.525079 
L 230.208 271.607744 
L 230.478545 272.826696 
L 230.749091 268.785939 
L 231.290182 272.790267 
L 231.831273 275.016607 
L 232.101818 275.467759 
L 232.642909 276.689514 
L 232.913455 271.298102 
L 233.454545 274.775618 
L 233.725091 271.970627 
L 234.266182 274.687349 
L 234.807273 276.363059 
L 235.077818 271.215437 
L 235.348364 273.091503 
L 235.889455 274.06106 
L 236.16 273.657545 
L 236.430545 270.83574 
L 236.701091 270.748873 
L 237.242182 274.191362 
L 237.512727 275.273007 
L 237.783273 270.713845 
L 238.053818 269.32536 
L 238.324364 271.571315 
L 238.594909 272.002852 
L 239.136 274.638311 
L 239.677091 276.434514 
L 239.947636 274.664932 
L 240.488727 276.665695 
L 240.759273 273.545457 
L 241.029818 275.069848 
L 241.300364 275.18754 
L 242.382545 278.41286 
L 242.923636 279.298352 
L 243.194182 279.570164 
L 243.735273 278.89904 
L 244.276364 279.734092 
L 244.546909 275.181936 
L 245.088 277.740335 
L 245.358545 276.654486 
L 245.629091 276.922095 
L 246.170182 278.508134 
L 246.440727 277.123853 
L 246.711273 278.072394 
L 246.981818 276.371465 
L 247.252364 277.68289 
L 247.793455 277.072013 
L 248.064 278.432475 
L 248.605091 279.741098 
L 248.875636 280.255299 
L 249.146182 275.925917 
L 249.687273 272.661367 
L 250.228364 276.311218 
L 250.769455 278.365223 
L 251.04 278.695881 
L 251.581091 279.89802 
L 251.851636 280.389805 
L 252.122182 277.202314 
L 252.392727 278.3358 
L 252.663273 276.075834 
L 253.204364 278.83459 
L 253.474909 279.530934 
L 253.745455 279.144231 
L 254.016 280.014311 
L 254.286545 274.774217 
L 254.557091 276.693717 
L 254.827636 275.654105 
L 255.098182 277.49094 
L 255.368727 278.554371 
L 255.639273 274.310455 
L 255.909818 275.354271 
L 256.450909 278.331597 
L 256.992 280.101179 
L 257.262545 277.458715 
L 257.803636 279.88541 
L 258.074182 276.465339 
L 258.344727 277.879043 
L 258.615273 277.597423 
L 258.885818 273.932159 
L 259.426909 278.021955 
L 259.968 280.132003 
L 260.238545 280.878787 
L 260.509091 276.947315 
L 260.779636 278.327393 
L 261.050182 278.363822 
L 261.591273 280.616782 
L 261.861818 274.744794 
L 262.132364 276.824019 
L 262.402909 276.189323 
L 262.944 278.842996 
L 263.485091 280.604172 
L 263.755636 281.147797 
L 264.026182 274.939547 
L 264.296727 277.426489 
L 264.567273 273.839687 
L 265.108364 277.652066 
L 265.378909 279.046155 
L 265.649455 276.601245 
L 265.92 278.433876 
L 266.190545 277.035584 
L 266.731636 279.851784 
L 267.272727 281.513482 
L 268.354909 283.333504 
L 270.248727 284.905532 
L 270.519273 285.03023 
L 270.789818 277.615637 
L 271.060364 275.645698 
L 271.601455 279.086787 
L 272.142545 281.137989 
L 272.413091 281.513482 
L 272.683636 278.609013 
L 272.954182 280.136206 
L 273.224727 274.875096 
L 273.765818 278.683271 
L 274.577455 281.402796 
L 275.659636 283.277461 
L 276.471273 284.077486 
L 276.741818 281.310324 
L 277.012364 282.169195 
L 277.282909 276.442921 
L 277.553455 274.274027 
L 277.824 276.587234 
L 278.094545 276.815612 
L 278.635636 279.685054 
L 278.906182 280.353376 
L 279.176727 277.539978 
L 279.717818 280.084366 
L 279.988364 280.412222 
L 280.529455 282.171997 
L 280.8 282.108948 
L 281.070545 282.988835 
L 281.341091 278.097614 
L 281.882182 280.999281 
L 283.234909 284.214793 
L 283.505455 277.900059 
L 283.776 279.763515 
L 284.046545 279.753708 
L 284.317091 276.707728 
L 284.587636 276.393883 
L 285.128727 280.188047 
L 285.940364 282.913176 
L 286.210909 283.538064 
L 286.752 280.413623 
L 287.293091 282.412985 
L 287.563636 280.974061 
L 287.834182 282.25326 
L 288.104727 277.771159 
L 288.375273 279.788735 
L 289.457455 283.627734 
L 290.269091 285.205367 
L 290.539636 281.865157 
L 290.810182 280.172635 
L 291.351273 283.119137 
L 291.892364 284.771027 
L 292.162909 285.149323 
L 292.433455 284.335287 
L 292.704 279.914833 
L 292.974545 279.165248 
L 293.786182 283.063093 
L 294.327273 284.570671 
L 295.138909 285.904513 
L 295.68 286.421517 
L 296.221091 286.825032 
L 296.491636 284.46699 
L 297.032727 283.000044 
L 297.573818 284.601495 
L 297.844364 281.673207 
L 298.385455 284.213392 
L 298.926545 285.550036 
L 299.467636 282.90617 
L 299.738182 284.209188 
L 300.008727 283.734217 
L 300.549818 285.423937 
L 300.820364 286.162314 
L 301.090909 285.499597 
L 302.714182 287.817007 
L 303.525818 288.324203 
L 304.066909 288.597417 
L 304.337455 280.529914 
L 304.878545 284.254023 
L 305.149091 285.597673 
L 305.419636 285.014818 
L 305.960727 286.773192 
L 306.501818 287.745551 
L 307.042909 288.084616 
L 307.313455 288.275165 
L 307.854545 288.85802 
L 308.125091 289.005135 
L 308.666182 289.478705 
L 308.936727 282.043096 
L 310.289455 287.294399 
L 310.56 287.92349 
L 310.830545 288.248544 
L 311.101091 281.205242 
L 311.642182 284.724791 
L 311.912727 280.1278 
L 312.453818 283.779052 
L 312.724364 283.082708 
L 313.265455 285.694349 
L 313.806545 287.199124 
L 314.888727 288.66607 
L 315.159273 282.788478 
L 315.970909 286.833439 
L 316.782545 288.60162 
L 317.053091 289.101811 
L 317.323636 289.366618 
L 317.594182 286.616269 
L 317.864727 282.425595 
L 318.405818 285.770008 
L 318.946909 287.477942 
L 319.217455 287.909479 
L 319.488 287.260772 
L 319.758545 284.951769 
L 320.299636 287.120663 
L 321.111273 288.828597 
L 321.922909 289.7281 
L 322.193455 288.682884 
L 322.464 286.166518 
L 322.734545 286.432726 
L 323.275636 288.314396 
L 323.546182 288.923872 
L 323.816727 289.220904 
L 324.087273 289.758924 
L 324.628364 290.075572 
L 324.898909 290.395021 
L 325.710545 290.830762 
L 325.981091 289.262937 
L 326.251636 289.79255 
L 326.522182 289.197085 
L 327.333818 290.638812 
L 327.604364 290.876998 
L 327.874909 290.900816 
L 328.145455 291.154414 
L 328.416 288.40967 
L 328.686545 287.587228 
L 329.227636 289.225107 
L 329.498182 286.637285 
L 330.039273 288.476923 
L 330.309818 287.971127 
L 330.850909 284.757016 
L 331.121455 286.025007 
L 331.392 286.422918 
L 331.933091 288.283572 
L 332.203636 288.143462 
L 332.744727 289.424063 
L 333.015273 283.846305 
L 333.556364 287.199124 
L 333.826909 288.277967 
L 334.097455 284.657539 
L 334.368 286.277204 
L 334.638545 286.22116 
L 334.909091 286.51539 
L 335.450182 288.443296 
L 335.720727 289.248926 
L 336.532364 290.481889 
L 337.344 291.03392 
L 337.885091 291.606968 
L 338.155636 291.714852 
L 338.426182 285.049845 
L 338.696727 286.057232 
L 338.967273 284.297457 
L 339.237818 285.103087 
L 339.508364 281.649389 
L 340.32 285.967562 
L 340.590545 284.69817 
L 341.131636 287.38547 
L 341.672727 289.132635 
L 342.213818 290.166643 
L 342.484364 284.516028 
L 343.025455 287.758161 
L 343.296 288.660466 
L 343.566545 283.284466 
L 344.107636 286.931515 
L 344.648727 288.943487 
L 344.919273 283.700591 
L 345.460364 287.393876 
L 345.730909 288.467115 
L 346.001455 283.232625 
L 346.272 283.624932 
L 346.813091 287.203328 
L 347.354182 288.970108 
L 347.895273 290.155434 
L 348.165818 285.208169 
L 348.436364 287.098246 
L 348.706909 285.292235 
L 348.977455 282.568507 
L 349.248 284.688363 
L 349.518545 284.375919 
L 349.789091 283.59691 
L 350.330182 286.773192 
L 350.871273 288.635246 
L 351.141818 289.358211 
L 351.412364 289.756122 
L 351.682909 290.385213 
L 352.494545 291.164222 
L 352.765091 287.690909 
L 353.035636 288.841207 
L 353.306182 284.00603 
L 353.576727 286.103468 
L 353.847273 287.18091 
L 354.117818 284.174161 
L 354.658909 287.556403 
L 355.2 289.463293 
L 355.470545 289.980297 
L 355.741091 287.994946 
L 356.011636 289.129833 
L 356.823273 291.028316 
L 357.364364 291.577545 
L 357.634909 288.181292 
L 357.905455 289.286755 
L 358.446545 290.66263 
L 358.717091 285.562646 
L 358.987636 283.556278 
L 359.528727 287.307009 
L 360.069818 289.236316 
L 360.340364 288.457307 
L 360.610909 283.742624 
L 361.152 287.710524 
L 361.693091 289.8556 
L 362.504727 291.604166 
L 362.775273 291.913808 
L 363.316364 284.943362 
L 364.128 289.047168 
L 364.669091 290.352988 
L 364.939636 288.33261 
L 365.210182 288.590411 
L 365.751273 290.32917 
L 366.021818 290.679443 
L 366.562909 291.696638 
L 367.104 292.482652 
L 367.374545 291.342161 
L 367.645091 291.043728 
L 367.915636 286.275803 
L 368.456727 289.099009 
L 368.727273 286.812422 
L 368.997818 288.287775 
L 369.268364 286.172122 
L 369.809455 289.121426 
L 370.350545 290.776119 
L 370.621091 290.26612 
L 371.162182 291.68683 
L 371.432727 291.762489 
L 371.703273 292.021692 
L 371.973818 289.630023 
L 372.244364 290.613592 
L 372.514909 285.70836 
L 373.056 289.334392 
L 373.597091 291.210458 
L 374.408727 292.734849 
L 374.679273 292.870755 
L 374.949818 293.32471 
L 375.220364 293.368144 
L 375.761455 293.681989 
L 376.032 291.689633 
L 376.573091 289.730902 
L 376.843636 290.991887 
L 377.114182 289.785545 
L 377.655273 291.667215 
L 377.925818 289.831781 
L 378.196364 289.623018 
L 378.737455 291.259496 
L 379.549091 292.778283 
L 380.090182 293.438199 
L 380.360727 291.758286 
L 380.631273 292.663393 
L 380.901818 290.051753 
L 381.172364 289.338596 
L 381.713455 291.415018 
L 381.984 287.612447 
L 382.525091 290.724278 
L 382.795636 291.63499 
L 383.066182 287.56481 
L 383.607273 290.537933 
L 384.148364 292.118367 
L 384.418909 286.944125 
L 384.689455 286.477561 
L 385.230545 289.897633 
L 385.501091 290.942849 
L 385.771636 288.848213 
L 386.042182 290.535131 
L 386.583273 292.125373 
L 387.124364 293.142568 
L 387.394909 290.80274 
L 387.665455 289.496919 
L 387.936 290.044747 
L 388.477091 292.12117 
L 388.747636 292.767074 
L 389.018182 293.101936 
L 389.288727 293.781467 
L 389.829818 293.97762 
L 390.641455 294.724403 
L 390.912 294.315284 
L 391.182545 292.273889 
L 391.723636 293.770258 
L 392.805818 295.134924 
L 393.076364 295.167149 
L 393.346909 295.488 
L 393.617455 293.059903 
L 393.888 293.929983 
L 394.429091 294.857507 
L 394.699636 292.668998 
L 394.970182 293.114546 
L 395.240727 291.918011 
L 395.781818 293.669379 
L 396.052364 294.315284 
L 396.593455 287.524178 
L 397.134545 290.832163 
L 397.405091 290.001314 
L 397.946182 292.345345 
L 398.216727 291.728863 
L 398.487273 289.555765 
L 398.487273 289.555765 
" style="fill:none;stroke:#1f77b4;stroke-linecap:square;stroke-width:1.5;"/>
   </g>
   <g id="line2d_16">
    <path clip-path="url(#p87bda43b16)" d="M 73.832727 53.568 
L 74.103273 81.196185 
L 74.644364 105.348253 
L 75.185455 117.431293 
L 75.726545 125.05605 
L 76.267636 130.624 
L 77.079273 136.594064 
L 78.973091 147.088263 
L 79.784727 151.012729 
L 80.325818 153.133986 
L 80.866909 156.422355 
L 83.031273 178.488194 
L 83.301818 180.815412 
L 83.572364 181.266565 
L 84.113455 186.456219 
L 84.384 187.130145 
L 85.195636 193.786746 
L 86.007273 197.61874 
L 86.277818 197.076516 
L 86.818909 200.48678 
L 87.089455 201.823425 
L 87.36 200.336863 
L 87.630545 201.106064 
L 87.901091 203.244134 
L 88.171636 203.171278 
L 88.983273 208.506646 
L 89.253818 208.882139 
L 89.524364 210.402327 
L 89.794909 210.541035 
L 90.336 213.044791 
L 90.606545 211.579246 
L 90.877091 210.955759 
L 91.418182 214.126436 
L 91.959273 216.642802 
L 92.229818 216.078161 
L 92.500364 215.227697 
L 92.770909 215.719481 
L 93.041455 216.708654 
L 93.853091 220.719987 
L 94.123636 221.521414 
L 94.394182 221.154327 
L 94.664727 219.66076 
L 95.205818 222.511987 
L 95.746909 224.507146 
L 96.017455 221.924929 
L 96.288 223.656682 
L 96.829091 224.937282 
L 97.370182 227.176231 
L 97.640727 223.251765 
L 98.181818 226.491096 
L 98.452364 227.710048 
L 98.722909 226.874996 
L 98.993455 228.140185 
L 99.264 226.950655 
L 99.534545 228.386777 
L 99.805091 227.525104 
L 100.075636 229.105539 
L 100.346182 229.084522 
L 100.887273 231.383719 
L 101.428364 233.102862 
L 101.698909 232.312644 
L 101.969455 230.907346 
L 102.510545 233.349454 
L 102.781091 228.962627 
L 103.051636 229.579109 
L 103.592727 232.493385 
L 103.863273 233.666102 
L 104.133818 230.764435 
L 104.674909 233.576432 
L 105.216 235.671068 
L 105.486545 236.674252 
L 105.757091 236.861998 
L 106.298182 238.547515 
L 106.839273 239.497457 
L 107.921455 241.558468 
L 108.462545 242.230993 
L 109.003636 242.896513 
L 111.438545 245.057001 
L 111.979636 245.55579 
L 112.520727 245.953701 
L 112.791273 245.854224 
L 114.685091 247.010127 
L 114.955636 240.060697 
L 115.226182 240.656163 
L 115.767273 242.80264 
L 116.037818 238.414411 
L 116.578909 239.543694 
L 117.390545 243.12349 
L 117.931636 244.418102 
L 118.202182 244.824419 
L 118.472727 245.725323 
L 118.743273 245.998536 
L 119.554909 247.213285 
L 119.825455 247.497708 
L 120.096 247.976882 
L 120.366545 248.168832 
L 120.907636 248.708253 
L 121.178182 248.835753 
L 121.448727 249.26729 
L 121.719273 248.995478 
L 122.260364 249.578333 
L 123.072 250.092535 
L 123.342545 250.503056 
L 123.613091 250.645967 
L 123.883636 245.040188 
L 124.154182 242.953958 
L 124.424727 242.270224 
L 124.695273 242.742392 
L 125.236364 245.090627 
L 125.506909 245.981723 
L 125.777455 245.901861 
L 126.589091 248.072156 
L 126.859636 248.681633 
L 127.130182 248.929626 
L 127.671273 250.002865 
L 127.941818 250.249457 
L 128.753455 251.287668 
L 129.294545 251.542668 
L 129.565091 251.769645 
L 129.835636 245.830405 
L 130.106182 243.245385 
L 130.647273 246.629029 
L 130.917818 242.212779 
L 131.188364 244.446124 
L 131.458909 244.296206 
L 132 247.424851 
L 132.541091 249.263087 
L 133.352727 251.112532 
L 133.893818 251.958793 
L 134.164364 252.425357 
L 134.434909 251.406762 
L 134.976 252.674752 
L 135.517091 253.319256 
L 135.787636 253.726974 
L 136.058182 252.138133 
L 136.599273 253.535024 
L 136.869818 251.962996 
L 137.140364 252.813461 
L 137.410909 252.174561 
L 138.222545 254.398099 
L 138.493091 248.720863 
L 138.763636 250.577314 
L 139.304727 252.674752 
L 139.575273 251.988216 
L 140.116364 254.061836 
L 141.198545 256.066802 
L 141.739636 256.892047 
L 142.280727 257.39504 
L 143.092364 258.3674 
L 143.362909 258.40663 
L 143.633455 256.412873 
L 143.904 256.901855 
L 144.174545 248.533116 
L 144.715636 252.531841 
L 145.527273 255.827215 
L 146.068364 257.155453 
L 146.338909 256.607625 
L 146.609455 252.855493 
L 146.88 251.074702 
L 147.150545 250.76506 
L 147.691636 253.962358 
L 148.232727 255.894468 
L 148.773818 257.281551 
L 149.856 259.017507 
L 150.126545 259.569539 
L 150.397091 259.683027 
L 150.667636 260.002477 
L 150.938182 255.883259 
L 151.208727 255.695512 
L 151.749818 257.954077 
L 152.020364 258.486493 
L 152.561455 259.862367 
L 153.102545 260.823518 
L 153.373091 261.063106 
L 153.643636 252.299259 
L 153.914182 251.450195 
L 154.455273 255.284991 
L 154.996364 257.315177 
L 155.808 259.470061 
L 156.078545 259.786708 
L 156.619636 260.718436 
L 157.431273 261.795878 
L 157.972364 262.339503 
L 158.242909 262.637936 
L 158.784 262.876122 
L 159.595636 263.610296 
L 159.866182 263.683152 
L 160.136727 264.015212 
L 160.948364 264.259002 
L 160.948364 264.259002 
" style="fill:none;stroke:#ff7f0e;stroke-linecap:square;stroke-width:1.5;"/>
   </g>
   <g id="patch_3">
    <path d="M 57.6 307.584 
L 57.6 41.472 
" style="fill:none;stroke:#000000;stroke-linecap:square;stroke-linejoin:miter;stroke-width:0.8;"/>
   </g>
   <g id="patch_4">
    <path d="M 414.72 307.584 
L 414.72 41.472 
" style="fill:none;stroke:#000000;stroke-linecap:square;stroke-linejoin:miter;stroke-width:0.8;"/>
   </g>
   <g id="patch_5">
    <path d="M 57.6 307.584 
L 414.72 307.584 
" style="fill:none;stroke:#000000;stroke-linecap:square;stroke-linejoin:miter;stroke-width:0.8;"/>
   </g>
   <g id="patch_6">
    <path d="M 57.6 41.472 
L 414.72 41.472 
" style="fill:none;stroke:#000000;stroke-linecap:square;stroke-linejoin:miter;stroke-width:0.8;"/>
   </g>
   <g id="text_17">
    <!-- Average fitness over 60 seconds for52cities -->
    <defs>
     <path d="M 48.78125 52.59375 
L 48.78125 44.1875 
Q 44.96875 46.296875 41.140625 47.34375 
Q 37.3125 48.390625 33.40625 48.390625 
Q 24.65625 48.390625 19.8125 42.84375 
Q 14.984375 37.3125 14.984375 27.296875 
Q 14.984375 17.28125 19.8125 11.734375 
Q 24.65625 6.203125 33.40625 6.203125 
Q 37.3125 6.203125 41.140625 7.25 
Q 44.96875 8.296875 48.78125 10.40625 
L 48.78125 2.09375 
Q 45.015625 0.34375 40.984375 -0.53125 
Q 36.96875 -1.421875 32.421875 -1.421875 
Q 20.0625 -1.421875 12.78125 6.34375 
Q 5.515625 14.109375 5.515625 27.296875 
Q 5.515625 40.671875 12.859375 48.328125 
Q 20.21875 56 33.015625 56 
Q 37.15625 56 41.109375 55.140625 
Q 45.0625 54.296875 48.78125 52.59375 
z
" id="DejaVuSans-63"/>
     <path d="M 45.40625 46.390625 
L 45.40625 75.984375 
L 54.390625 75.984375 
L 54.390625 0 
L 45.40625 0 
L 45.40625 8.203125 
Q 42.578125 3.328125 38.25 0.953125 
Q 33.9375 -1.421875 27.875 -1.421875 
Q 17.96875 -1.421875 11.734375 6.484375 
Q 5.515625 14.40625 5.515625 27.296875 
Q 5.515625 40.1875 11.734375 48.09375 
Q 17.96875 56 27.875 56 
Q 33.9375 56 38.25 53.625 
Q 42.578125 51.265625 45.40625 46.390625 
z
M 14.796875 27.296875 
Q 14.796875 17.390625 18.875 11.75 
Q 22.953125 6.109375 30.078125 6.109375 
Q 37.203125 6.109375 41.296875 11.75 
Q 45.40625 17.390625 45.40625 27.296875 
Q 45.40625 37.203125 41.296875 42.84375 
Q 37.203125 48.484375 30.078125 48.484375 
Q 22.953125 48.484375 18.875 42.84375 
Q 14.796875 37.203125 14.796875 27.296875 
z
" id="DejaVuSans-64"/>
    </defs>
    <g transform="translate(104.533125 35.472)scale(0.12 -0.12)">
     <use xlink:href="#DejaVuSans-41"/>
     <use x="68.330078" xlink:href="#DejaVuSans-76"/>
     <use x="127.509766" xlink:href="#DejaVuSans-65"/>
     <use x="189.033203" xlink:href="#DejaVuSans-72"/>
     <use x="230.146484" xlink:href="#DejaVuSans-61"/>
     <use x="291.425781" xlink:href="#DejaVuSans-67"/>
     <use x="354.902344" xlink:href="#DejaVuSans-65"/>
     <use x="416.425781" xlink:href="#DejaVuSans-20"/>
     <use x="448.212891" xlink:href="#DejaVuSans-66"/>
     <use x="483.417969" xlink:href="#DejaVuSans-69"/>
     <use x="511.201172" xlink:href="#DejaVuSans-74"/>
     <use x="550.410156" xlink:href="#DejaVuSans-6e"/>
     <use x="613.789062" xlink:href="#DejaVuSans-65"/>
     <use x="675.3125" xlink:href="#DejaVuSans-73"/>
     <use x="727.412109" xlink:href="#DejaVuSans-73"/>
     <use x="779.511719" xlink:href="#DejaVuSans-20"/>
     <use x="811.298828" xlink:href="#DejaVuSans-6f"/>
     <use x="872.480469" xlink:href="#DejaVuSans-76"/>
     <use x="931.660156" xlink:href="#DejaVuSans-65"/>
     <use x="993.183594" xlink:href="#DejaVuSans-72"/>
     <use x="1034.296875" xlink:href="#DejaVuSans-20"/>
     <use x="1066.083984" xlink:href="#DejaVuSans-36"/>
     <use x="1129.707031" xlink:href="#DejaVuSans-30"/>
     <use x="1193.330078" xlink:href="#DejaVuSans-20"/>
     <use x="1225.117188" xlink:href="#DejaVuSans-73"/>
     <use x="1277.216797" xlink:href="#DejaVuSans-65"/>
     <use x="1338.740234" xlink:href="#DejaVuSans-63"/>
     <use x="1393.720703" xlink:href="#DejaVuSans-6f"/>
     <use x="1454.902344" xlink:href="#DejaVuSans-6e"/>
     <use x="1518.28125" xlink:href="#DejaVuSans-64"/>
     <use x="1581.757812" xlink:href="#DejaVuSans-73"/>
     <use x="1633.857422" xlink:href="#DejaVuSans-20"/>
     <use x="1665.644531" xlink:href="#DejaVuSans-66"/>
     <use x="1700.849609" xlink:href="#DejaVuSans-6f"/>
     <use x="1762.03125" xlink:href="#DejaVuSans-72"/>
     <use x="1803.144531" xlink:href="#DejaVuSans-35"/>
     <use x="1866.767578" xlink:href="#DejaVuSans-32"/>
     <use x="1930.390625" xlink:href="#DejaVuSans-63"/>
     <use x="1985.371094" xlink:href="#DejaVuSans-69"/>
     <use x="2013.154297" xlink:href="#DejaVuSans-74"/>
     <use x="2052.363281" xlink:href="#DejaVuSans-69"/>
     <use x="2080.146484" xlink:href="#DejaVuSans-65"/>
     <use x="2141.669922" xlink:href="#DejaVuSans-73"/>
    </g>
   </g>
   <g id="legend_1">
    <g id="patch_7">
     <path d="M 105.75125 78.82825 
L 407.72 78.82825 
Q 409.72 78.82825 409.72 76.82825 
L 409.72 48.472 
Q 409.72 46.472 407.72 46.472 
L 105.75125 46.472 
Q 103.75125 46.472 103.75125 48.472 
L 103.75125 76.82825 
Q 103.75125 78.82825 105.75125 78.82825 
z
" style="fill:#ffffff;opacity:0.8;stroke:#cccccc;stroke-linejoin:miter;"/>
    </g>
    <g id="patch_8">
     <path d="M 107.75125 58.070437 
L 127.75125 58.070437 
L 127.75125 51.070437 
L 107.75125 51.070437 
z
" style="fill:#87ceeb;stroke:#87ceeb;stroke-linejoin:miter;"/>
    </g>
    <g id="text_18">
     <!-- Parallel min, 10902.8 Last Generation number 1202.0 -->
     <defs>
      <path d="M 19.671875 64.796875 
L 19.671875 37.40625 
L 32.078125 37.40625 
Q 38.96875 37.40625 42.71875 40.96875 
Q 46.484375 44.53125 46.484375 51.125 
Q 46.484375 57.671875 42.71875 61.234375 
Q 38.96875 64.796875 32.078125 64.796875 
z
M 9.8125 72.90625 
L 32.078125 72.90625 
Q 44.34375 72.90625 50.609375 67.359375 
Q 56.890625 61.8125 56.890625 51.125 
Q 56.890625 40.328125 50.609375 34.8125 
Q 44.34375 29.296875 32.078125 29.296875 
L 19.671875 29.296875 
L 19.671875 0 
L 9.8125 0 
z
" id="DejaVuSans-50"/>
      <path d="M 9.421875 75.984375 
L 18.40625 75.984375 
L 18.40625 0 
L 9.421875 0 
z
" id="DejaVuSans-6c"/>
      <path d="M 11.71875 12.40625 
L 22.015625 12.40625 
L 22.015625 4 
L 14.015625 -11.625 
L 7.71875 -11.625 
L 11.71875 4 
z
" id="DejaVuSans-2c"/>
      <path d="M 10.984375 1.515625 
L 10.984375 10.5 
Q 14.703125 8.734375 18.5 7.8125 
Q 22.3125 6.890625 25.984375 6.890625 
Q 35.75 6.890625 40.890625 13.453125 
Q 46.046875 20.015625 46.78125 33.40625 
Q 43.953125 29.203125 39.59375 26.953125 
Q 35.25 24.703125 29.984375 24.703125 
Q 19.046875 24.703125 12.671875 31.3125 
Q 6.296875 37.9375 6.296875 49.421875 
Q 6.296875 60.640625 12.9375 67.421875 
Q 19.578125 74.21875 30.609375 74.21875 
Q 43.265625 74.21875 49.921875 64.515625 
Q 56.59375 54.828125 56.59375 36.375 
Q 56.59375 19.140625 48.40625 8.859375 
Q 40.234375 -1.421875 26.421875 -1.421875 
Q 22.703125 -1.421875 18.890625 -0.6875 
Q 15.09375 0.046875 10.984375 1.515625 
z
M 30.609375 32.421875 
Q 37.25 32.421875 41.125 36.953125 
Q 45.015625 41.5 45.015625 49.421875 
Q 45.015625 57.28125 41.125 61.84375 
Q 37.25 66.40625 30.609375 66.40625 
Q 23.96875 66.40625 20.09375 61.84375 
Q 16.21875 57.28125 16.21875 49.421875 
Q 16.21875 41.5 20.09375 36.953125 
Q 23.96875 32.421875 30.609375 32.421875 
z
" id="DejaVuSans-39"/>
      <path d="M 10.6875 12.40625 
L 21 12.40625 
L 21 0 
L 10.6875 0 
z
" id="DejaVuSans-2e"/>
      <path d="M 9.8125 72.90625 
L 19.671875 72.90625 
L 19.671875 8.296875 
L 55.171875 8.296875 
L 55.171875 0 
L 9.8125 0 
z
" id="DejaVuSans-4c"/>
     </defs>
     <g transform="translate(135.75125 58.070437)scale(0.1 -0.1)">
      <use xlink:href="#DejaVuSans-50"/>
      <use x="60.240234" xlink:href="#DejaVuSans-61"/>
      <use x="121.519531" xlink:href="#DejaVuSans-72"/>
      <use x="162.632812" xlink:href="#DejaVuSans-61"/>
      <use x="223.912109" xlink:href="#DejaVuSans-6c"/>
      <use x="251.695312" xlink:href="#DejaVuSans-6c"/>
      <use x="279.478516" xlink:href="#DejaVuSans-65"/>
      <use x="341.001953" xlink:href="#DejaVuSans-6c"/>
      <use x="368.785156" xlink:href="#DejaVuSans-20"/>
      <use x="400.572266" xlink:href="#DejaVuSans-6d"/>
      <use x="497.984375" xlink:href="#DejaVuSans-69"/>
      <use x="525.767578" xlink:href="#DejaVuSans-6e"/>
      <use x="589.146484" xlink:href="#DejaVuSans-2c"/>
      <use x="620.933594" xlink:href="#DejaVuSans-20"/>
      <use x="652.720703" xlink:href="#DejaVuSans-31"/>
      <use x="716.34375" xlink:href="#DejaVuSans-30"/>
      <use x="779.966797" xlink:href="#DejaVuSans-39"/>
      <use x="843.589844" xlink:href="#DejaVuSans-30"/>
      <use x="907.212891" xlink:href="#DejaVuSans-32"/>
      <use x="970.835938" xlink:href="#DejaVuSans-2e"/>
      <use x="1002.623047" xlink:href="#DejaVuSans-38"/>
      <use x="1066.246094" xlink:href="#DejaVuSans-20"/>
      <use x="1098.033203" xlink:href="#DejaVuSans-4c"/>
      <use x="1153.746094" xlink:href="#DejaVuSans-61"/>
      <use x="1215.025391" xlink:href="#DejaVuSans-73"/>
      <use x="1267.125" xlink:href="#DejaVuSans-74"/>
      <use x="1306.333984" xlink:href="#DejaVuSans-20"/>
      <use x="1338.121094" xlink:href="#DejaVuSans-47"/>
      <use x="1415.611328" xlink:href="#DejaVuSans-65"/>
      <use x="1477.134766" xlink:href="#DejaVuSans-6e"/>
      <use x="1540.513672" xlink:href="#DejaVuSans-65"/>
      <use x="1602.037109" xlink:href="#DejaVuSans-72"/>
      <use x="1643.150391" xlink:href="#DejaVuSans-61"/>
      <use x="1704.429688" xlink:href="#DejaVuSans-74"/>
      <use x="1743.638672" xlink:href="#DejaVuSans-69"/>
      <use x="1771.421875" xlink:href="#DejaVuSans-6f"/>
      <use x="1832.603516" xlink:href="#DejaVuSans-6e"/>
      <use x="1895.982422" xlink:href="#DejaVuSans-20"/>
      <use x="1927.769531" xlink:href="#DejaVuSans-6e"/>
      <use x="1991.148438" xlink:href="#DejaVuSans-75"/>
      <use x="2054.527344" xlink:href="#DejaVuSans-6d"/>
      <use x="2151.939453" xlink:href="#DejaVuSans-62"/>
      <use x="2215.416016" xlink:href="#DejaVuSans-65"/>
      <use x="2276.939453" xlink:href="#DejaVuSans-72"/>
      <use x="2318.052734" xlink:href="#DejaVuSans-20"/>
      <use x="2349.839844" xlink:href="#DejaVuSans-31"/>
      <use x="2413.462891" xlink:href="#DejaVuSans-32"/>
      <use x="2477.085938" xlink:href="#DejaVuSans-30"/>
      <use x="2540.708984" xlink:href="#DejaVuSans-32"/>
      <use x="2604.332031" xlink:href="#DejaVuSans-2e"/>
      <use x="2636.119141" xlink:href="#DejaVuSans-30"/>
     </g>
    </g>
    <g id="patch_9">
     <path d="M 107.75125 72.748562 
L 127.75125 72.748562 
L 127.75125 65.748562 
L 107.75125 65.748562 
z
" style="fill:#ffa500;stroke:#ffa500;stroke-linejoin:miter;"/>
    </g>
    <g id="text_19">
     <!-- Serial min, 13131.7 Last Generation number 324.0 -->
     <defs>
      <path d="M 53.515625 70.515625 
L 53.515625 60.890625 
Q 47.90625 63.578125 42.921875 64.890625 
Q 37.9375 66.21875 33.296875 66.21875 
Q 25.25 66.21875 20.875 63.09375 
Q 16.5 59.96875 16.5 54.203125 
Q 16.5 49.359375 19.40625 46.890625 
Q 22.3125 44.4375 30.421875 42.921875 
L 36.375 41.703125 
Q 47.40625 39.59375 52.65625 34.296875 
Q 57.90625 29 57.90625 20.125 
Q 57.90625 9.515625 50.796875 4.046875 
Q 43.703125 -1.421875 29.984375 -1.421875 
Q 24.8125 -1.421875 18.96875 -0.25 
Q 13.140625 0.921875 6.890625 3.21875 
L 6.890625 13.375 
Q 12.890625 10.015625 18.65625 8.296875 
Q 24.421875 6.59375 29.984375 6.59375 
Q 38.421875 6.59375 43.015625 9.90625 
Q 47.609375 13.234375 47.609375 19.390625 
Q 47.609375 24.75 44.3125 27.78125 
Q 41.015625 30.8125 33.5 32.328125 
L 27.484375 33.5 
Q 16.453125 35.6875 11.515625 40.375 
Q 6.59375 45.0625 6.59375 53.421875 
Q 6.59375 63.09375 13.40625 68.65625 
Q 20.21875 74.21875 32.171875 74.21875 
Q 37.3125 74.21875 42.625 73.28125 
Q 47.953125 72.359375 53.515625 70.515625 
z
" id="DejaVuSans-53"/>
      <path d="M 40.578125 39.3125 
Q 47.65625 37.796875 51.625 33 
Q 55.609375 28.21875 55.609375 21.1875 
Q 55.609375 10.40625 48.1875 4.484375 
Q 40.765625 -1.421875 27.09375 -1.421875 
Q 22.515625 -1.421875 17.65625 -0.515625 
Q 12.796875 0.390625 7.625 2.203125 
L 7.625 11.71875 
Q 11.71875 9.328125 16.59375 8.109375 
Q 21.484375 6.890625 26.8125 6.890625 
Q 36.078125 6.890625 40.9375 10.546875 
Q 45.796875 14.203125 45.796875 21.1875 
Q 45.796875 27.640625 41.28125 31.265625 
Q 36.765625 34.90625 28.71875 34.90625 
L 20.21875 34.90625 
L 20.21875 43.015625 
L 29.109375 43.015625 
Q 36.375 43.015625 40.234375 45.921875 
Q 44.09375 48.828125 44.09375 54.296875 
Q 44.09375 59.90625 40.109375 62.90625 
Q 36.140625 65.921875 28.71875 65.921875 
Q 24.65625 65.921875 20.015625 65.03125 
Q 15.375 64.15625 9.8125 62.3125 
L 9.8125 71.09375 
Q 15.4375 72.65625 20.34375 73.4375 
Q 25.25 74.21875 29.59375 74.21875 
Q 40.828125 74.21875 47.359375 69.109375 
Q 53.90625 64.015625 53.90625 55.328125 
Q 53.90625 49.265625 50.4375 45.09375 
Q 46.96875 40.921875 40.578125 39.3125 
z
" id="DejaVuSans-33"/>
     </defs>
     <g transform="translate(135.75125 72.748562)scale(0.1 -0.1)">
      <use xlink:href="#DejaVuSans-53"/>
      <use x="63.476562" xlink:href="#DejaVuSans-65"/>
      <use x="125" xlink:href="#DejaVuSans-72"/>
      <use x="166.113281" xlink:href="#DejaVuSans-69"/>
      <use x="193.896484" xlink:href="#DejaVuSans-61"/>
      <use x="255.175781" xlink:href="#DejaVuSans-6c"/>
      <use x="282.958984" xlink:href="#DejaVuSans-20"/>
      <use x="314.746094" xlink:href="#DejaVuSans-6d"/>
      <use x="412.158203" xlink:href="#DejaVuSans-69"/>
      <use x="439.941406" xlink:href="#DejaVuSans-6e"/>
      <use x="503.320312" xlink:href="#DejaVuSans-2c"/>
      <use x="535.107422" xlink:href="#DejaVuSans-20"/>
      <use x="566.894531" xlink:href="#DejaVuSans-31"/>
      <use x="630.517578" xlink:href="#DejaVuSans-33"/>
      <use x="694.140625" xlink:href="#DejaVuSans-31"/>
      <use x="757.763672" xlink:href="#DejaVuSans-33"/>
      <use x="821.386719" xlink:href="#DejaVuSans-31"/>
      <use x="885.009766" xlink:href="#DejaVuSans-2e"/>
      <use x="916.796875" xlink:href="#DejaVuSans-37"/>
      <use x="980.419922" xlink:href="#DejaVuSans-20"/>
      <use x="1012.207031" xlink:href="#DejaVuSans-4c"/>
      <use x="1067.919922" xlink:href="#DejaVuSans-61"/>
      <use x="1129.199219" xlink:href="#DejaVuSans-73"/>
      <use x="1181.298828" xlink:href="#DejaVuSans-74"/>
      <use x="1220.507812" xlink:href="#DejaVuSans-20"/>
      <use x="1252.294922" xlink:href="#DejaVuSans-47"/>
      <use x="1329.785156" xlink:href="#DejaVuSans-65"/>
      <use x="1391.308594" xlink:href="#DejaVuSans-6e"/>
      <use x="1454.6875" xlink:href="#DejaVuSans-65"/>
      <use x="1516.210938" xlink:href="#DejaVuSans-72"/>
      <use x="1557.324219" xlink:href="#DejaVuSans-61"/>
      <use x="1618.603516" xlink:href="#DejaVuSans-74"/>
      <use x="1657.8125" xlink:href="#DejaVuSans-69"/>
      <use x="1685.595703" xlink:href="#DejaVuSans-6f"/>
      <use x="1746.777344" xlink:href="#DejaVuSans-6e"/>
      <use x="1810.15625" xlink:href="#DejaVuSans-20"/>
      <use x="1841.943359" xlink:href="#DejaVuSans-6e"/>
      <use x="1905.322266" xlink:href="#DejaVuSans-75"/>
      <use x="1968.701172" xlink:href="#DejaVuSans-6d"/>
      <use x="2066.113281" xlink:href="#DejaVuSans-62"/>
      <use x="2129.589844" xlink:href="#DejaVuSans-65"/>
      <use x="2191.113281" xlink:href="#DejaVuSans-72"/>
      <use x="2232.226562" xlink:href="#DejaVuSans-20"/>
      <use x="2264.013672" xlink:href="#DejaVuSans-33"/>
      <use x="2327.636719" xlink:href="#DejaVuSans-32"/>
      <use x="2391.259766" xlink:href="#DejaVuSans-34"/>
      <use x="2454.882812" xlink:href="#DejaVuSans-2e"/>
      <use x="2486.669922" xlink:href="#DejaVuSans-30"/>
     </g>
    </g>
   </g>
  </g>
 </g>
 <defs>
  <clipPath id="p87bda43b16">
   <rect height="266.112" width="357.12" x="57.6" y="41.472"/>
  </clipPath>
 </defs>
</svg>
