<?xml version="1.0" encoding="utf-8" standalone="no"?>
<!DOCTYPE svg PUBLIC "-//W3C//DTD SVG 1.1//EN"
  "http://www.w3.org/Graphics/SVG/1.1/DTD/svg11.dtd">
<!-- Created with matplotlib (http://matplotlib.org/) -->
<svg height="345.6pt" version="1.1" viewBox="0 0 460.8 345.6" width="460.8pt" xmlns="http://www.w3.org/2000/svg" xmlns:xlink="http://www.w3.org/1999/xlink">
 <defs>
  <style type="text/css">
*{stroke-linecap:butt;stroke-linejoin:round;}
  </style>
 </defs>
 <g id="figure_1">
  <g id="patch_1">
   <path d="M 0 345.6 
L 460.8 345.6 
L 460.8 0 
L 0 0 
z
" style="fill:#ffffff;"/>
  </g>
  <g id="axes_1">
   <g id="patch_2">
    <path d="M 57.6 307.584 
L 414.72 307.584 
L 414.72 41.472 
L 57.6 41.472 
z
" style="fill:#ffffff;"/>
   </g>
   <g id="matplotlib.axis_1">
    <g id="xtick_1">
     <g id="line2d_1">
      <defs>
       <path d="M 0 0 
L 0 3.5 
" id="m217cac7f65" style="stroke:#000000;stroke-width:0.8;"/>
      </defs>
      <g>
       <use style="stroke:#000000;stroke-width:0.8;" x="73.46254" xlink:href="#m217cac7f65" y="307.584"/>
      </g>
     </g>
     <g id="text_1">
      <!-- 0 -->
      <defs>
       <path d="M 31.78125 66.40625 
Q 24.171875 66.40625 20.328125 58.90625 
Q 16.5 51.421875 16.5 36.375 
Q 16.5 21.390625 20.328125 13.890625 
Q 24.171875 6.390625 31.78125 6.390625 
Q 39.453125 6.390625 43.28125 13.890625 
Q 47.125 21.390625 47.125 36.375 
Q 47.125 51.421875 43.28125 58.90625 
Q 39.453125 66.40625 31.78125 66.40625 
z
M 31.78125 74.21875 
Q 44.046875 74.21875 50.515625 64.515625 
Q 56.984375 54.828125 56.984375 36.375 
Q 56.984375 17.96875 50.515625 8.265625 
Q 44.046875 -1.421875 31.78125 -1.421875 
Q 19.53125 -1.421875 13.0625 8.265625 
Q 6.59375 17.96875 6.59375 36.375 
Q 6.59375 54.828125 13.0625 64.515625 
Q 19.53125 74.21875 31.78125 74.21875 
z
" id="DejaVuSans-30"/>
      </defs>
      <g transform="translate(70.28129 322.182437)scale(0.1 -0.1)">
       <use xlink:href="#DejaVuSans-30"/>
      </g>
     </g>
    </g>
    <g id="xtick_2">
     <g id="line2d_2">
      <g>
       <use style="stroke:#000000;stroke-width:0.8;" x="147.500064" xlink:href="#m217cac7f65" y="307.584"/>
      </g>
     </g>
     <g id="text_2">
      <!-- 200 -->
      <defs>
       <path d="M 19.1875 8.296875 
L 53.609375 8.296875 
L 53.609375 0 
L 7.328125 0 
L 7.328125 8.296875 
Q 12.9375 14.109375 22.625 23.890625 
Q 32.328125 33.6875 34.8125 36.53125 
Q 39.546875 41.84375 41.421875 45.53125 
Q 43.3125 49.21875 43.3125 52.78125 
Q 43.3125 58.59375 39.234375 62.25 
Q 35.15625 65.921875 28.609375 65.921875 
Q 23.96875 65.921875 18.8125 64.3125 
Q 13.671875 62.703125 7.8125 59.421875 
L 7.8125 69.390625 
Q 13.765625 71.78125 18.9375 73 
Q 24.125 74.21875 28.421875 74.21875 
Q 39.75 74.21875 46.484375 68.546875 
Q 53.21875 62.890625 53.21875 53.421875 
Q 53.21875 48.921875 51.53125 44.890625 
Q 49.859375 40.875 45.40625 35.40625 
Q 44.1875 33.984375 37.640625 27.21875 
Q 31.109375 20.453125 19.1875 8.296875 
z
" id="DejaVuSans-32"/>
      </defs>
      <g transform="translate(137.956314 322.182437)scale(0.1 -0.1)">
       <use xlink:href="#DejaVuSans-32"/>
       <use x="63.623047" xlink:href="#DejaVuSans-30"/>
       <use x="127.246094" xlink:href="#DejaVuSans-30"/>
      </g>
     </g>
    </g>
    <g id="xtick_3">
     <g id="line2d_3">
      <g>
       <use style="stroke:#000000;stroke-width:0.8;" x="221.537589" xlink:href="#m217cac7f65" y="307.584"/>
      </g>
     </g>
     <g id="text_3">
      <!-- 400 -->
      <defs>
       <path d="M 37.796875 64.3125 
L 12.890625 25.390625 
L 37.796875 25.390625 
z
M 35.203125 72.90625 
L 47.609375 72.90625 
L 47.609375 25.390625 
L 58.015625 25.390625 
L 58.015625 17.1875 
L 47.609375 17.1875 
L 47.609375 0 
L 37.796875 0 
L 37.796875 17.1875 
L 4.890625 17.1875 
L 4.890625 26.703125 
z
" id="DejaVuSans-34"/>
      </defs>
      <g transform="translate(211.993839 322.182437)scale(0.1 -0.1)">
       <use xlink:href="#DejaVuSans-34"/>
       <use x="63.623047" xlink:href="#DejaVuSans-30"/>
       <use x="127.246094" xlink:href="#DejaVuSans-30"/>
      </g>
     </g>
    </g>
    <g id="xtick_4">
     <g id="line2d_4">
      <g>
       <use style="stroke:#000000;stroke-width:0.8;" x="295.575114" xlink:href="#m217cac7f65" y="307.584"/>
      </g>
     </g>
     <g id="text_4">
      <!-- 600 -->
      <defs>
       <path d="M 33.015625 40.375 
Q 26.375 40.375 22.484375 35.828125 
Q 18.609375 31.296875 18.609375 23.390625 
Q 18.609375 15.53125 22.484375 10.953125 
Q 26.375 6.390625 33.015625 6.390625 
Q 39.65625 6.390625 43.53125 10.953125 
Q 47.40625 15.53125 47.40625 23.390625 
Q 47.40625 31.296875 43.53125 35.828125 
Q 39.65625 40.375 33.015625 40.375 
z
M 52.59375 71.296875 
L 52.59375 62.3125 
Q 48.875 64.0625 45.09375 64.984375 
Q 41.3125 65.921875 37.59375 65.921875 
Q 27.828125 65.921875 22.671875 59.328125 
Q 17.53125 52.734375 16.796875 39.40625 
Q 19.671875 43.65625 24.015625 45.921875 
Q 28.375 48.1875 33.59375 48.1875 
Q 44.578125 48.1875 50.953125 41.515625 
Q 57.328125 34.859375 57.328125 23.390625 
Q 57.328125 12.15625 50.6875 5.359375 
Q 44.046875 -1.421875 33.015625 -1.421875 
Q 20.359375 -1.421875 13.671875 8.265625 
Q 6.984375 17.96875 6.984375 36.375 
Q 6.984375 53.65625 15.1875 63.9375 
Q 23.390625 74.21875 37.203125 74.21875 
Q 40.921875 74.21875 44.703125 73.484375 
Q 48.484375 72.75 52.59375 71.296875 
z
" id="DejaVuSans-36"/>
      </defs>
      <g transform="translate(286.031364 322.182437)scale(0.1 -0.1)">
       <use xlink:href="#DejaVuSans-36"/>
       <use x="63.623047" xlink:href="#DejaVuSans-30"/>
       <use x="127.246094" xlink:href="#DejaVuSans-30"/>
      </g>
     </g>
    </g>
    <g id="xtick_5">
     <g id="line2d_5">
      <g>
       <use style="stroke:#000000;stroke-width:0.8;" x="369.612638" xlink:href="#m217cac7f65" y="307.584"/>
      </g>
     </g>
     <g id="text_5">
      <!-- 800 -->
      <defs>
       <path d="M 31.78125 34.625 
Q 24.75 34.625 20.71875 30.859375 
Q 16.703125 27.09375 16.703125 20.515625 
Q 16.703125 13.921875 20.71875 10.15625 
Q 24.75 6.390625 31.78125 6.390625 
Q 38.8125 6.390625 42.859375 10.171875 
Q 46.921875 13.96875 46.921875 20.515625 
Q 46.921875 27.09375 42.890625 30.859375 
Q 38.875 34.625 31.78125 34.625 
z
M 21.921875 38.8125 
Q 15.578125 40.375 12.03125 44.71875 
Q 8.5 49.078125 8.5 55.328125 
Q 8.5 64.0625 14.71875 69.140625 
Q 20.953125 74.21875 31.78125 74.21875 
Q 42.671875 74.21875 48.875 69.140625 
Q 55.078125 64.0625 55.078125 55.328125 
Q 55.078125 49.078125 51.53125 44.71875 
Q 48 40.375 41.703125 38.8125 
Q 48.828125 37.15625 52.796875 32.3125 
Q 56.78125 27.484375 56.78125 20.515625 
Q 56.78125 9.90625 50.3125 4.234375 
Q 43.84375 -1.421875 31.78125 -1.421875 
Q 19.734375 -1.421875 13.25 4.234375 
Q 6.78125 9.90625 6.78125 20.515625 
Q 6.78125 27.484375 10.78125 32.3125 
Q 14.796875 37.15625 21.921875 38.8125 
z
M 18.3125 54.390625 
Q 18.3125 48.734375 21.84375 45.5625 
Q 25.390625 42.390625 31.78125 42.390625 
Q 38.140625 42.390625 41.71875 45.5625 
Q 45.3125 48.734375 45.3125 54.390625 
Q 45.3125 60.0625 41.71875 63.234375 
Q 38.140625 66.40625 31.78125 66.40625 
Q 25.390625 66.40625 21.84375 63.234375 
Q 18.3125 60.0625 18.3125 54.390625 
z
" id="DejaVuSans-38"/>
      </defs>
      <g transform="translate(360.068888 322.182437)scale(0.1 -0.1)">
       <use xlink:href="#DejaVuSans-38"/>
       <use x="63.623047" xlink:href="#DejaVuSans-30"/>
       <use x="127.246094" xlink:href="#DejaVuSans-30"/>
      </g>
     </g>
    </g>
    <g id="text_6">
     <!-- Generation number -->
     <defs>
      <path d="M 59.515625 10.40625 
L 59.515625 29.984375 
L 43.40625 29.984375 
L 43.40625 38.09375 
L 69.28125 38.09375 
L 69.28125 6.78125 
Q 63.578125 2.734375 56.6875 0.65625 
Q 49.8125 -1.421875 42 -1.421875 
Q 24.90625 -1.421875 15.25 8.5625 
Q 5.609375 18.5625 5.609375 36.375 
Q 5.609375 54.25 15.25 64.234375 
Q 24.90625 74.21875 42 74.21875 
Q 49.125 74.21875 55.546875 72.453125 
Q 61.96875 70.703125 67.390625 67.28125 
L 67.390625 56.78125 
Q 61.921875 61.421875 55.765625 63.765625 
Q 49.609375 66.109375 42.828125 66.109375 
Q 29.4375 66.109375 22.71875 58.640625 
Q 16.015625 51.171875 16.015625 36.375 
Q 16.015625 21.625 22.71875 14.15625 
Q 29.4375 6.6875 42.828125 6.6875 
Q 48.046875 6.6875 52.140625 7.59375 
Q 56.25 8.5 59.515625 10.40625 
z
" id="DejaVuSans-47"/>
      <path d="M 56.203125 29.59375 
L 56.203125 25.203125 
L 14.890625 25.203125 
Q 15.484375 15.921875 20.484375 11.0625 
Q 25.484375 6.203125 34.421875 6.203125 
Q 39.59375 6.203125 44.453125 7.46875 
Q 49.3125 8.734375 54.109375 11.28125 
L 54.109375 2.78125 
Q 49.265625 0.734375 44.1875 -0.34375 
Q 39.109375 -1.421875 33.890625 -1.421875 
Q 20.796875 -1.421875 13.15625 6.1875 
Q 5.515625 13.8125 5.515625 26.8125 
Q 5.515625 40.234375 12.765625 48.109375 
Q 20.015625 56 32.328125 56 
Q 43.359375 56 49.78125 48.890625 
Q 56.203125 41.796875 56.203125 29.59375 
z
M 47.21875 32.234375 
Q 47.125 39.59375 43.09375 43.984375 
Q 39.0625 48.390625 32.421875 48.390625 
Q 24.90625 48.390625 20.390625 44.140625 
Q 15.875 39.890625 15.1875 32.171875 
z
" id="DejaVuSans-65"/>
      <path d="M 54.890625 33.015625 
L 54.890625 0 
L 45.90625 0 
L 45.90625 32.71875 
Q 45.90625 40.484375 42.875 44.328125 
Q 39.84375 48.1875 33.796875 48.1875 
Q 26.515625 48.1875 22.3125 43.546875 
Q 18.109375 38.921875 18.109375 30.90625 
L 18.109375 0 
L 9.078125 0 
L 9.078125 54.6875 
L 18.109375 54.6875 
L 18.109375 46.1875 
Q 21.34375 51.125 25.703125 53.5625 
Q 30.078125 56 35.796875 56 
Q 45.21875 56 50.046875 50.171875 
Q 54.890625 44.34375 54.890625 33.015625 
z
" id="DejaVuSans-6e"/>
      <path d="M 41.109375 46.296875 
Q 39.59375 47.171875 37.8125 47.578125 
Q 36.03125 48 33.890625 48 
Q 26.265625 48 22.1875 43.046875 
Q 18.109375 38.09375 18.109375 28.8125 
L 18.109375 0 
L 9.078125 0 
L 9.078125 54.6875 
L 18.109375 54.6875 
L 18.109375 46.1875 
Q 20.953125 51.171875 25.484375 53.578125 
Q 30.03125 56 36.53125 56 
Q 37.453125 56 38.578125 55.875 
Q 39.703125 55.765625 41.0625 55.515625 
z
" id="DejaVuSans-72"/>
      <path d="M 34.28125 27.484375 
Q 23.390625 27.484375 19.1875 25 
Q 14.984375 22.515625 14.984375 16.5 
Q 14.984375 11.71875 18.140625 8.90625 
Q 21.296875 6.109375 26.703125 6.109375 
Q 34.1875 6.109375 38.703125 11.40625 
Q 43.21875 16.703125 43.21875 25.484375 
L 43.21875 27.484375 
z
M 52.203125 31.203125 
L 52.203125 0 
L 43.21875 0 
L 43.21875 8.296875 
Q 40.140625 3.328125 35.546875 0.953125 
Q 30.953125 -1.421875 24.3125 -1.421875 
Q 15.921875 -1.421875 10.953125 3.296875 
Q 6 8.015625 6 15.921875 
Q 6 25.140625 12.171875 29.828125 
Q 18.359375 34.515625 30.609375 34.515625 
L 43.21875 34.515625 
L 43.21875 35.40625 
Q 43.21875 41.609375 39.140625 45 
Q 35.0625 48.390625 27.6875 48.390625 
Q 23 48.390625 18.546875 47.265625 
Q 14.109375 46.140625 10.015625 43.890625 
L 10.015625 52.203125 
Q 14.9375 54.109375 19.578125 55.046875 
Q 24.21875 56 28.609375 56 
Q 40.484375 56 46.34375 49.84375 
Q 52.203125 43.703125 52.203125 31.203125 
z
" id="DejaVuSans-61"/>
      <path d="M 18.3125 70.21875 
L 18.3125 54.6875 
L 36.8125 54.6875 
L 36.8125 47.703125 
L 18.3125 47.703125 
L 18.3125 18.015625 
Q 18.3125 11.328125 20.140625 9.421875 
Q 21.96875 7.515625 27.59375 7.515625 
L 36.8125 7.515625 
L 36.8125 0 
L 27.59375 0 
Q 17.1875 0 13.234375 3.875 
Q 9.28125 7.765625 9.28125 18.015625 
L 9.28125 47.703125 
L 2.6875 47.703125 
L 2.6875 54.6875 
L 9.28125 54.6875 
L 9.28125 70.21875 
z
" id="DejaVuSans-74"/>
      <path d="M 9.421875 54.6875 
L 18.40625 54.6875 
L 18.40625 0 
L 9.421875 0 
z
M 9.421875 75.984375 
L 18.40625 75.984375 
L 18.40625 64.59375 
L 9.421875 64.59375 
z
" id="DejaVuSans-69"/>
      <path d="M 30.609375 48.390625 
Q 23.390625 48.390625 19.1875 42.75 
Q 14.984375 37.109375 14.984375 27.296875 
Q 14.984375 17.484375 19.15625 11.84375 
Q 23.34375 6.203125 30.609375 6.203125 
Q 37.796875 6.203125 41.984375 11.859375 
Q 46.1875 17.53125 46.1875 27.296875 
Q 46.1875 37.015625 41.984375 42.703125 
Q 37.796875 48.390625 30.609375 48.390625 
z
M 30.609375 56 
Q 42.328125 56 49.015625 48.375 
Q 55.71875 40.765625 55.71875 27.296875 
Q 55.71875 13.875 49.015625 6.21875 
Q 42.328125 -1.421875 30.609375 -1.421875 
Q 18.84375 -1.421875 12.171875 6.21875 
Q 5.515625 13.875 5.515625 27.296875 
Q 5.515625 40.765625 12.171875 48.375 
Q 18.84375 56 30.609375 56 
z
" id="DejaVuSans-6f"/>
      <path id="DejaVuSans-20"/>
      <path d="M 8.5 21.578125 
L 8.5 54.6875 
L 17.484375 54.6875 
L 17.484375 21.921875 
Q 17.484375 14.15625 20.5 10.265625 
Q 23.53125 6.390625 29.59375 6.390625 
Q 36.859375 6.390625 41.078125 11.03125 
Q 45.3125 15.671875 45.3125 23.6875 
L 45.3125 54.6875 
L 54.296875 54.6875 
L 54.296875 0 
L 45.3125 0 
L 45.3125 8.40625 
Q 42.046875 3.421875 37.71875 1 
Q 33.40625 -1.421875 27.6875 -1.421875 
Q 18.265625 -1.421875 13.375 4.4375 
Q 8.5 10.296875 8.5 21.578125 
z
M 31.109375 56 
z
" id="DejaVuSans-75"/>
      <path d="M 52 44.1875 
Q 55.375 50.25 60.0625 53.125 
Q 64.75 56 71.09375 56 
Q 79.640625 56 84.28125 50.015625 
Q 88.921875 44.046875 88.921875 33.015625 
L 88.921875 0 
L 79.890625 0 
L 79.890625 32.71875 
Q 79.890625 40.578125 77.09375 44.375 
Q 74.3125 48.1875 68.609375 48.1875 
Q 61.625 48.1875 57.5625 43.546875 
Q 53.515625 38.921875 53.515625 30.90625 
L 53.515625 0 
L 44.484375 0 
L 44.484375 32.71875 
Q 44.484375 40.625 41.703125 44.40625 
Q 38.921875 48.1875 33.109375 48.1875 
Q 26.21875 48.1875 22.15625 43.53125 
Q 18.109375 38.875 18.109375 30.90625 
L 18.109375 0 
L 9.078125 0 
L 9.078125 54.6875 
L 18.109375 54.6875 
L 18.109375 46.1875 
Q 21.1875 51.21875 25.484375 53.609375 
Q 29.78125 56 35.6875 56 
Q 41.65625 56 45.828125 52.96875 
Q 50 49.953125 52 44.1875 
z
" id="DejaVuSans-6d"/>
      <path d="M 48.6875 27.296875 
Q 48.6875 37.203125 44.609375 42.84375 
Q 40.53125 48.484375 33.40625 48.484375 
Q 26.265625 48.484375 22.1875 42.84375 
Q 18.109375 37.203125 18.109375 27.296875 
Q 18.109375 17.390625 22.1875 11.75 
Q 26.265625 6.109375 33.40625 6.109375 
Q 40.53125 6.109375 44.609375 11.75 
Q 48.6875 17.390625 48.6875 27.296875 
z
M 18.109375 46.390625 
Q 20.953125 51.265625 25.265625 53.625 
Q 29.59375 56 35.59375 56 
Q 45.5625 56 51.78125 48.09375 
Q 58.015625 40.1875 58.015625 27.296875 
Q 58.015625 14.40625 51.78125 6.484375 
Q 45.5625 -1.421875 35.59375 -1.421875 
Q 29.59375 -1.421875 25.265625 0.953125 
Q 20.953125 3.328125 18.109375 8.203125 
L 18.109375 0 
L 9.078125 0 
L 9.078125 75.984375 
L 18.109375 75.984375 
z
" id="DejaVuSans-62"/>
     </defs>
     <g transform="translate(187.163906 335.860562)scale(0.1 -0.1)">
      <use xlink:href="#DejaVuSans-47"/>
      <use x="77.490234" xlink:href="#DejaVuSans-65"/>
      <use x="139.013672" xlink:href="#DejaVuSans-6e"/>
      <use x="202.392578" xlink:href="#DejaVuSans-65"/>
      <use x="263.916016" xlink:href="#DejaVuSans-72"/>
      <use x="305.029297" xlink:href="#DejaVuSans-61"/>
      <use x="366.308594" xlink:href="#DejaVuSans-74"/>
      <use x="405.517578" xlink:href="#DejaVuSans-69"/>
      <use x="433.300781" xlink:href="#DejaVuSans-6f"/>
      <use x="494.482422" xlink:href="#DejaVuSans-6e"/>
      <use x="557.861328" xlink:href="#DejaVuSans-20"/>
      <use x="589.648438" xlink:href="#DejaVuSans-6e"/>
      <use x="653.027344" xlink:href="#DejaVuSans-75"/>
      <use x="716.40625" xlink:href="#DejaVuSans-6d"/>
      <use x="813.818359" xlink:href="#DejaVuSans-62"/>
      <use x="877.294922" xlink:href="#DejaVuSans-65"/>
      <use x="938.818359" xlink:href="#DejaVuSans-72"/>
     </g>
    </g>
   </g>
   <g id="matplotlib.axis_2">
    <g id="ytick_1">
     <g id="line2d_6">
      <defs>
       <path d="M 0 0 
L -3.5 0 
" id="m36b949ec14" style="stroke:#000000;stroke-width:0.8;"/>
      </defs>
      <g>
       <use style="stroke:#000000;stroke-width:0.8;" x="57.6" xlink:href="#m36b949ec14" y="277.456935"/>
      </g>
     </g>
     <g id="text_7">
      <!-- 12500 -->
      <defs>
       <path d="M 12.40625 8.296875 
L 28.515625 8.296875 
L 28.515625 63.921875 
L 10.984375 60.40625 
L 10.984375 69.390625 
L 28.421875 72.90625 
L 38.28125 72.90625 
L 38.28125 8.296875 
L 54.390625 8.296875 
L 54.390625 0 
L 12.40625 0 
z
" id="DejaVuSans-31"/>
       <path d="M 10.796875 72.90625 
L 49.515625 72.90625 
L 49.515625 64.59375 
L 19.828125 64.59375 
L 19.828125 46.734375 
Q 21.96875 47.46875 24.109375 47.828125 
Q 26.265625 48.1875 28.421875 48.1875 
Q 40.625 48.1875 47.75 41.5 
Q 54.890625 34.8125 54.890625 23.390625 
Q 54.890625 11.625 47.5625 5.09375 
Q 40.234375 -1.421875 26.90625 -1.421875 
Q 22.3125 -1.421875 17.546875 -0.640625 
Q 12.796875 0.140625 7.71875 1.703125 
L 7.71875 11.625 
Q 12.109375 9.234375 16.796875 8.0625 
Q 21.484375 6.890625 26.703125 6.890625 
Q 35.15625 6.890625 40.078125 11.328125 
Q 45.015625 15.765625 45.015625 23.390625 
Q 45.015625 31 40.078125 35.4375 
Q 35.15625 39.890625 26.703125 39.890625 
Q 22.75 39.890625 18.8125 39.015625 
Q 14.890625 38.140625 10.796875 36.28125 
z
" id="DejaVuSans-35"/>
      </defs>
      <g transform="translate(18.7875 281.256154)scale(0.1 -0.1)">
       <use xlink:href="#DejaVuSans-31"/>
       <use x="63.623047" xlink:href="#DejaVuSans-32"/>
       <use x="127.246094" xlink:href="#DejaVuSans-35"/>
       <use x="190.869141" xlink:href="#DejaVuSans-30"/>
       <use x="254.492188" xlink:href="#DejaVuSans-30"/>
      </g>
     </g>
    </g>
    <g id="ytick_2">
     <g id="line2d_7">
      <g>
       <use style="stroke:#000000;stroke-width:0.8;" x="57.6" xlink:href="#m36b949ec14" y="241.70655"/>
      </g>
     </g>
     <g id="text_8">
      <!-- 15000 -->
      <g transform="translate(18.7875 245.505769)scale(0.1 -0.1)">
       <use xlink:href="#DejaVuSans-31"/>
       <use x="63.623047" xlink:href="#DejaVuSans-35"/>
       <use x="127.246094" xlink:href="#DejaVuSans-30"/>
       <use x="190.869141" xlink:href="#DejaVuSans-30"/>
       <use x="254.492188" xlink:href="#DejaVuSans-30"/>
      </g>
     </g>
    </g>
    <g id="ytick_3">
     <g id="line2d_8">
      <g>
       <use style="stroke:#000000;stroke-width:0.8;" x="57.6" xlink:href="#m36b949ec14" y="205.956164"/>
      </g>
     </g>
     <g id="text_9">
      <!-- 17500 -->
      <defs>
       <path d="M 8.203125 72.90625 
L 55.078125 72.90625 
L 55.078125 68.703125 
L 28.609375 0 
L 18.3125 0 
L 43.21875 64.59375 
L 8.203125 64.59375 
z
" id="DejaVuSans-37"/>
      </defs>
      <g transform="translate(18.7875 209.755383)scale(0.1 -0.1)">
       <use xlink:href="#DejaVuSans-31"/>
       <use x="63.623047" xlink:href="#DejaVuSans-37"/>
       <use x="127.246094" xlink:href="#DejaVuSans-35"/>
       <use x="190.869141" xlink:href="#DejaVuSans-30"/>
       <use x="254.492188" xlink:href="#DejaVuSans-30"/>
      </g>
     </g>
    </g>
    <g id="ytick_4">
     <g id="line2d_9">
      <g>
       <use style="stroke:#000000;stroke-width:0.8;" x="57.6" xlink:href="#m36b949ec14" y="170.205778"/>
      </g>
     </g>
     <g id="text_10">
      <!-- 20000 -->
      <g transform="translate(18.7875 174.004997)scale(0.1 -0.1)">
       <use xlink:href="#DejaVuSans-32"/>
       <use x="63.623047" xlink:href="#DejaVuSans-30"/>
       <use x="127.246094" xlink:href="#DejaVuSans-30"/>
       <use x="190.869141" xlink:href="#DejaVuSans-30"/>
       <use x="254.492188" xlink:href="#DejaVuSans-30"/>
      </g>
     </g>
    </g>
    <g id="ytick_5">
     <g id="line2d_10">
      <g>
       <use style="stroke:#000000;stroke-width:0.8;" x="57.6" xlink:href="#m36b949ec14" y="134.455393"/>
      </g>
     </g>
     <g id="text_11">
      <!-- 22500 -->
      <g transform="translate(18.7875 138.254611)scale(0.1 -0.1)">
       <use xlink:href="#DejaVuSans-32"/>
       <use x="63.623047" xlink:href="#DejaVuSans-32"/>
       <use x="127.246094" xlink:href="#DejaVuSans-35"/>
       <use x="190.869141" xlink:href="#DejaVuSans-30"/>
       <use x="254.492188" xlink:href="#DejaVuSans-30"/>
      </g>
     </g>
    </g>
    <g id="ytick_6">
     <g id="line2d_11">
      <g>
       <use style="stroke:#000000;stroke-width:0.8;" x="57.6" xlink:href="#m36b949ec14" y="98.705007"/>
      </g>
     </g>
     <g id="text_12">
      <!-- 25000 -->
      <g transform="translate(18.7875 102.504226)scale(0.1 -0.1)">
       <use xlink:href="#DejaVuSans-32"/>
       <use x="63.623047" xlink:href="#DejaVuSans-35"/>
       <use x="127.246094" xlink:href="#DejaVuSans-30"/>
       <use x="190.869141" xlink:href="#DejaVuSans-30"/>
       <use x="254.492188" xlink:href="#DejaVuSans-30"/>
      </g>
     </g>
    </g>
    <g id="ytick_7">
     <g id="line2d_12">
      <g>
       <use style="stroke:#000000;stroke-width:0.8;" x="57.6" xlink:href="#m36b949ec14" y="62.954621"/>
      </g>
     </g>
     <g id="text_13">
      <!-- 27500 -->
      <g transform="translate(18.7875 66.75384)scale(0.1 -0.1)">
       <use xlink:href="#DejaVuSans-32"/>
       <use x="63.623047" xlink:href="#DejaVuSans-37"/>
       <use x="127.246094" xlink:href="#DejaVuSans-35"/>
       <use x="190.869141" xlink:href="#DejaVuSans-30"/>
       <use x="254.492188" xlink:href="#DejaVuSans-30"/>
      </g>
     </g>
    </g>
    <g id="text_14">
     <!-- Average fitness -->
     <defs>
      <path d="M 34.1875 63.1875 
L 20.796875 26.90625 
L 47.609375 26.90625 
z
M 28.609375 72.90625 
L 39.796875 72.90625 
L 67.578125 0 
L 57.328125 0 
L 50.6875 18.703125 
L 17.828125 18.703125 
L 11.1875 0 
L 0.78125 0 
z
" id="DejaVuSans-41"/>
      <path d="M 2.984375 54.6875 
L 12.5 54.6875 
L 29.59375 8.796875 
L 46.6875 54.6875 
L 56.203125 54.6875 
L 35.6875 0 
L 23.484375 0 
z
" id="DejaVuSans-76"/>
      <path d="M 45.40625 27.984375 
Q 45.40625 37.75 41.375 43.109375 
Q 37.359375 48.484375 30.078125 48.484375 
Q 22.859375 48.484375 18.828125 43.109375 
Q 14.796875 37.75 14.796875 27.984375 
Q 14.796875 18.265625 18.828125 12.890625 
Q 22.859375 7.515625 30.078125 7.515625 
Q 37.359375 7.515625 41.375 12.890625 
Q 45.40625 18.265625 45.40625 27.984375 
z
M 54.390625 6.78125 
Q 54.390625 -7.171875 48.1875 -13.984375 
Q 42 -20.796875 29.203125 -20.796875 
Q 24.46875 -20.796875 20.265625 -20.09375 
Q 16.0625 -19.390625 12.109375 -17.921875 
L 12.109375 -9.1875 
Q 16.0625 -11.328125 19.921875 -12.34375 
Q 23.78125 -13.375 27.78125 -13.375 
Q 36.625 -13.375 41.015625 -8.765625 
Q 45.40625 -4.15625 45.40625 5.171875 
L 45.40625 9.625 
Q 42.625 4.78125 38.28125 2.390625 
Q 33.9375 0 27.875 0 
Q 17.828125 0 11.671875 7.65625 
Q 5.515625 15.328125 5.515625 27.984375 
Q 5.515625 40.671875 11.671875 48.328125 
Q 17.828125 56 27.875 56 
Q 33.9375 56 38.28125 53.609375 
Q 42.625 51.21875 45.40625 46.390625 
L 45.40625 54.6875 
L 54.390625 54.6875 
z
" id="DejaVuSans-67"/>
      <path d="M 37.109375 75.984375 
L 37.109375 68.5 
L 28.515625 68.5 
Q 23.6875 68.5 21.796875 66.546875 
Q 19.921875 64.59375 19.921875 59.515625 
L 19.921875 54.6875 
L 34.71875 54.6875 
L 34.71875 47.703125 
L 19.921875 47.703125 
L 19.921875 0 
L 10.890625 0 
L 10.890625 47.703125 
L 2.296875 47.703125 
L 2.296875 54.6875 
L 10.890625 54.6875 
L 10.890625 58.5 
Q 10.890625 67.625 15.140625 71.796875 
Q 19.390625 75.984375 28.609375 75.984375 
z
" id="DejaVuSans-66"/>
      <path d="M 44.28125 53.078125 
L 44.28125 44.578125 
Q 40.484375 46.53125 36.375 47.5 
Q 32.28125 48.484375 27.875 48.484375 
Q 21.1875 48.484375 17.84375 46.4375 
Q 14.5 44.390625 14.5 40.28125 
Q 14.5 37.15625 16.890625 35.375 
Q 19.28125 33.59375 26.515625 31.984375 
L 29.59375 31.296875 
Q 39.15625 29.25 43.1875 25.515625 
Q 47.21875 21.78125 47.21875 15.09375 
Q 47.21875 7.46875 41.1875 3.015625 
Q 35.15625 -1.421875 24.609375 -1.421875 
Q 20.21875 -1.421875 15.453125 -0.5625 
Q 10.6875 0.296875 5.421875 2 
L 5.421875 11.28125 
Q 10.40625 8.6875 15.234375 7.390625 
Q 20.0625 6.109375 24.8125 6.109375 
Q 31.15625 6.109375 34.5625 8.28125 
Q 37.984375 10.453125 37.984375 14.40625 
Q 37.984375 18.0625 35.515625 20.015625 
Q 33.0625 21.96875 24.703125 23.78125 
L 21.578125 24.515625 
Q 13.234375 26.265625 9.515625 29.90625 
Q 5.8125 33.546875 5.8125 39.890625 
Q 5.8125 47.609375 11.28125 51.796875 
Q 16.75 56 26.8125 56 
Q 31.78125 56 36.171875 55.265625 
Q 40.578125 54.546875 44.28125 53.078125 
z
" id="DejaVuSans-73"/>
     </defs>
     <g transform="translate(12.707812 213.503781)rotate(-90)scale(0.1 -0.1)">
      <use xlink:href="#DejaVuSans-41"/>
      <use x="68.330078" xlink:href="#DejaVuSans-76"/>
      <use x="127.509766" xlink:href="#DejaVuSans-65"/>
      <use x="189.033203" xlink:href="#DejaVuSans-72"/>
      <use x="230.146484" xlink:href="#DejaVuSans-61"/>
      <use x="291.425781" xlink:href="#DejaVuSans-67"/>
      <use x="354.902344" xlink:href="#DejaVuSans-65"/>
      <use x="416.425781" xlink:href="#DejaVuSans-20"/>
      <use x="448.212891" xlink:href="#DejaVuSans-66"/>
      <use x="483.417969" xlink:href="#DejaVuSans-69"/>
      <use x="511.201172" xlink:href="#DejaVuSans-74"/>
      <use x="550.410156" xlink:href="#DejaVuSans-6e"/>
      <use x="613.789062" xlink:href="#DejaVuSans-65"/>
      <use x="675.3125" xlink:href="#DejaVuSans-73"/>
      <use x="727.412109" xlink:href="#DejaVuSans-73"/>
     </g>
    </g>
   </g>
   <g id="line2d_13">
    <path clip-path="url(#pb8b98d746d)" d="M 73.832727 54.827844 
L 74.202915 82.758905 
L 74.573103 97.599605 
L 75.313478 113.883191 
L 76.053853 123.417104 
L 76.794228 129.925104 
L 78.645166 142.948254 
L 79.385542 149.467695 
L 82.347043 176.329104 
L 84.197981 187.02276 
L 84.568168 188.8589 
L 84.938356 189.260734 
L 85.308544 190.647849 
L 86.048919 194.601842 
L 86.419106 194.955055 
L 86.789294 196.844106 
L 87.529669 198.560124 
L 87.899857 200.756628 
L 88.270045 202.152323 
L 88.640232 203.050373 
L 89.01042 204.774971 
L 89.380607 204.734931 
L 89.750795 205.427058 
L 90.120983 207.293228 
L 90.49117 207.961046 
L 91.231546 211.350182 
L 91.601733 211.11137 
L 91.971921 212.588576 
L 92.342108 211.690526 
L 92.712296 212.308293 
L 93.082484 213.867009 
L 93.452671 214.770779 
L 93.822859 215.179764 
L 94.193047 214.982421 
L 94.563234 216.145024 
L 94.933422 217.749501 
L 95.303609 217.798122 
L 95.673797 219.428339 
L 96.043985 220.243448 
L 96.414172 221.636283 
L 96.78436 219.870214 
L 97.154548 221.673464 
L 97.524735 221.862226 
L 97.894923 223.501023 
L 98.26511 224.13452 
L 98.635298 223.792747 
L 99.375673 226.293843 
L 99.745861 226.403955 
L 100.856424 229.527108 
L 102.337174 232.209817 
L 102.707362 232.557311 
L 103.077549 228.913632 
L 103.447737 228.71486 
L 103.817925 230.054784 
L 104.188112 228.400256 
L 104.5583 230.096255 
L 104.928488 229.015163 
L 105.668863 231.845163 
L 106.409238 234.104588 
L 106.779426 235.091298 
L 108.260176 237.569515 
L 108.630364 235.573214 
L 109.000551 234.364851 
L 109.370739 234.515002 
L 109.740927 235.959318 
L 110.481302 233.442491 
L 111.962052 238.082891 
L 112.33224 234.35484 
L 112.702428 236.243891 
L 113.072615 235.616114 
L 114.183178 239.345594 
L 115.293741 241.921052 
L 116.034116 242.953523 
L 116.404304 241.627899 
L 116.774492 242.753321 
L 117.144679 243.348207 
L 117.514867 244.174756 
L 118.255242 245.298749 
L 118.62543 242.909193 
L 118.995617 239.768879 
L 119.365805 241.334746 
L 119.735993 239.773169 
L 120.10618 240.482457 
L 120.476368 239.139672 
L 121.216743 242.398677 
L 121.586931 238.799328 
L 122.327306 242.814812 
L 122.697494 241.503488 
L 123.067681 241.260385 
L 123.808056 244.302028 
L 124.548432 246.259719 
L 125.288807 247.854186 
L 125.658995 246.195368 
L 126.029182 247.429472 
L 126.39937 247.077688 
L 126.769557 243.628491 
L 127.509933 246.734484 
L 127.88012 248.123029 
L 128.250308 248.939568 
L 128.620495 245.847874 
L 128.990683 244.53083 
L 129.360871 245.354519 
L 130.471434 249.033949 
L 130.841621 246.947556 
L 131.581996 249.713206 
L 131.952184 250.828618 
L 132.322372 251.559356 
L 132.692559 249.216991 
L 133.062747 248.095859 
L 133.432935 249.654576 
L 133.803122 246.33122 
L 134.17331 245.955126 
L 134.543497 247.885646 
L 135.283873 248.818016 
L 136.394436 252.317264 
L 138.245374 255.446138 
L 138.615561 255.789342 
L 138.985749 248.546314 
L 139.355937 250.95732 
L 139.726124 250.123621 
L 140.096312 251.620847 
L 140.466499 247.32508 
L 140.836687 249.889098 
L 141.206875 249.743236 
L 141.577062 250.495425 
L 141.94725 252.261494 
L 142.317438 253.458417 
L 142.687625 253.020832 
L 144.168376 256.831823 
L 144.538563 257.561131 
L 144.908751 252.065582 
L 145.278939 252.092752 
L 145.649126 250.352423 
L 146.389501 253.944622 
L 146.759689 250.476834 
L 147.129877 252.543207 
L 147.500064 252.726249 
L 147.870252 254.254935 
L 148.24044 253.193864 
L 148.610627 255.052884 
L 148.980815 255.58771 
L 149.351002 251.556496 
L 149.72119 252.786309 
L 150.091378 254.643899 
L 150.831753 256.924774 
L 151.20194 257.858574 
L 151.572128 253.130943 
L 151.942316 253.567098 
L 152.682691 256.767472 
L 153.423066 258.639362 
L 154.533629 260.528413 
L 154.903817 261.046078 
L 155.274004 260.333931 
L 156.384567 261.972728 
L 156.754755 262.245861 
L 157.124942 259.048347 
L 157.865318 261.133309 
L 158.235505 258.825264 
L 158.605693 260.195219 
L 158.975881 256.756032 
L 159.716256 259.896346 
L 160.086443 260.075098 
L 160.456631 261.310631 
L 160.826819 259.188488 
L 161.197006 260.29103 
L 161.567194 257.782783 
L 161.937382 257.245097 
L 162.307569 255.184445 
L 163.047944 259.244259 
L 163.78832 261.549444 
L 164.528695 263.109591 
L 165.26907 262.487534 
L 165.639258 263.173941 
L 166.009445 262.301632 
L 166.379633 263.445644 
L 166.749821 261.529424 
L 167.490196 263.863209 
L 168.230571 265.303234 
L 168.600759 263.404174 
L 169.711322 265.893831 
L 170.451697 266.889121 
L 171.192072 267.499738 
L 171.932447 268.233336 
L 172.302635 265.313244 
L 172.672823 260.329641 
L 173.04301 262.300202 
L 173.783386 264.808449 
L 174.153573 265.570647 
L 174.523761 264.837049 
L 175.264136 266.77758 
L 175.634324 267.240905 
L 176.004511 261.670995 
L 176.744886 265.161663 
L 177.115074 260.562733 
L 177.855449 264.573926 
L 178.225637 265.384745 
L 178.595825 265.081582 
L 179.3362 266.939172 
L 180.446763 268.550799 
L 180.81695 265.576367 
L 181.187138 265.356145 
L 181.557326 263.355553 
L 181.927513 265.015801 
L 182.297701 265.377595 
L 182.667888 266.584528 
L 183.038076 266.651739 
L 183.408264 264.149212 
L 183.778451 265.750829 
L 184.148639 264.490986 
L 184.889014 267.362457 
L 185.259202 264.249313 
L 185.629389 263.817448 
L 185.999577 262.171501 
L 186.739952 265.78944 
L 187.11014 266.901992 
L 187.480328 264.020511 
L 188.220703 267.167974 
L 188.59089 263.08385 
L 189.331266 266.77472 
L 190.071641 268.735271 
L 190.441829 269.783473 
L 190.812016 270.149557 
L 191.922579 271.887025 
L 192.662954 272.439011 
L 193.033142 270.015135 
L 193.40333 270.907465 
L 194.143705 272.197339 
L 194.513892 270.908895 
L 194.88408 271.686823 
L 195.994643 273.056778 
L 196.364831 267.755711 
L 196.735018 265.401905 
L 197.105206 267.365317 
L 197.845581 269.586131 
L 198.215769 267.488298 
L 198.956144 270.226777 
L 199.326332 270.848834 
L 199.696519 271.741164 
L 200.066707 269.782043 
L 200.807082 271.842695 
L 201.17727 264.526736 
L 201.917645 268.838232 
L 202.287832 270.385509 
L 202.65802 264.326534 
L 203.028208 266.883401 
L 203.768583 270.033725 
L 204.138771 268.788182 
L 204.879146 271.41083 
L 205.249333 271.101947 
L 205.619521 269.853543 
L 205.989709 269.733422 
L 206.359896 270.973246 
L 208.210834 274.268001 
L 208.95121 275.173201 
L 209.691585 275.728047 
L 210.061773 272.769345 
L 210.43196 270.785913 
L 210.802148 272.225939 
L 211.172335 273.161169 
L 211.542523 266.963482 
L 211.912711 269.318718 
L 212.282898 266.417216 
L 212.653086 267.155104 
L 213.023274 267.097904 
L 213.393461 269.281537 
L 213.763649 270.694393 
L 214.133836 270.145267 
L 214.504024 271.611032 
L 214.874212 271.229218 
L 215.244399 272.639213 
L 215.614587 273.607334 
L 216.354962 274.788527 
L 216.72515 270.173867 
L 217.095337 270.268248 
L 217.465525 271.146277 
L 218.2059 273.451462 
L 218.576088 274.18077 
L 218.946276 272.31889 
L 219.316463 273.505803 
L 220.427026 275.768087 
L 221.537589 277.208113 
L 221.907777 277.303924 
L 222.277964 277.730068 
L 223.018339 269.300127 
L 223.388527 271.320739 
L 223.758715 269.701962 
L 224.128902 270.815944 
L 224.869277 273.723165 
L 225.97984 276.322933 
L 226.720216 277.405455 
L 227.460591 278.028942 
L 228.200966 278.708199 
L 229.311529 279.544758 
L 229.681717 279.541898 
L 230.051904 275.434894 
L 230.422092 276.588916 
L 230.792279 271.453731 
L 231.162467 271.869865 
L 231.902842 274.852877 
L 233.013405 277.312504 
L 233.383593 277.91597 
L 233.75378 272.070067 
L 234.123968 271.878445 
L 234.494156 273.869027 
L 235.234531 276.265733 
L 236.345094 278.427916 
L 236.715281 278.861211 
L 237.085469 271.466601 
L 237.455657 272.165878 
L 237.825844 272.150148 
L 238.56622 275.703737 
L 239.306595 277.804429 
L 239.676782 272.084368 
L 240.04697 274.15932 
L 240.417158 274.983009 
L 240.787345 271.825535 
L 241.527721 275.539285 
L 241.897908 272.167308 
L 242.638283 275.779527 
L 243.008471 273.537263 
L 243.748846 276.883499 
L 244.119034 274.037769 
L 245.599784 279.097163 
L 245.969972 279.74639 
L 246.34016 280.122484 
L 246.710347 280.771711 
L 247.080535 280.874672 
L 247.450723 281.445248 
L 248.561285 282.384769 
L 248.931473 282.48344 
L 249.301661 282.812343 
L 249.671848 279.071423 
L 250.042036 276.491675 
L 250.412223 277.128032 
L 250.782411 272.880886 
L 251.152599 271.779774 
L 251.892974 275.919669 
L 252.263162 274.880048 
L 253.003537 277.963161 
L 253.373724 278.668159 
L 253.743912 274.418153 
L 254.1141 276.437334 
L 254.484287 275.08311 
L 254.854475 274.380972 
L 255.59485 277.675728 
L 256.335225 279.790721 
L 257.075601 281.116345 
L 257.445788 276.91925 
L 257.815976 274.970139 
L 258.186164 276.804848 
L 258.556351 275.353383 
L 258.926539 277.362554 
L 259.296726 278.716779 
L 259.666914 274.708446 
L 260.037102 277.059391 
L 260.777477 279.71922 
L 261.147665 281.044844 
L 261.517852 281.62829 
L 261.88804 282.001524 
L 262.258227 282.672202 
L 262.998603 283.181287 
L 263.36879 283.676073 
L 264.109166 284.275249 
L 264.849541 284.797205 
L 265.219728 279.907982 
L 265.960104 282.424809 
L 266.330291 276.819149 
L 266.700479 279.025662 
L 267.440854 281.485289 
L 268.551417 283.47444 
L 268.921605 284.013556 
L 269.291792 283.817644 
L 269.66198 284.34389 
L 270.032168 280.305526 
L 270.402355 280.934733 
L 270.772543 279.110033 
L 271.14273 279.77213 
L 271.512918 277.375425 
L 272.253293 280.826052 
L 272.993668 282.832363 
L 273.363856 282.49631 
L 274.104231 283.922035 
L 274.474419 284.489751 
L 274.844607 283.45013 
L 275.214794 284.31958 
L 275.584982 284.898736 
L 275.955169 285.084638 
L 276.325357 282.290388 
L 277.065732 284.293839 
L 277.43592 284.891586 
L 277.806108 279.809311 
L 278.176295 277.961731 
L 278.91667 281.466699 
L 279.286858 282.626441 
L 279.657046 282.745133 
L 280.027233 283.650332 
L 280.767609 284.714264 
L 281.507984 285.442142 
L 281.878171 285.786775 
L 282.248359 285.946937 
L 282.618547 286.345911 
L 282.988734 279.72494 
L 283.72911 277.991761 
L 284.099297 276.235702 
L 284.839672 280.299806 
L 285.20986 280.590099 
L 285.950235 282.838084 
L 287.060798 284.791485 
L 288.171361 285.948367 
L 289.652112 287.030889 
L 290.392487 287.192481 
L 290.762674 287.488494 
L 291.132862 280.367017 
L 291.50305 277.85162 
L 291.873237 277.341104 
L 292.243425 279.73781 
L 292.9838 282.723682 
L 293.353988 281.502449 
L 293.724175 279.805021 
L 294.094363 281.668331 
L 294.834738 283.954926 
L 295.204926 284.538372 
L 295.575114 285.33203 
L 295.945301 285.703834 
L 296.315489 286.272981 
L 296.685676 286.460313 
L 297.055864 286.973688 
L 297.426052 281.212156 
L 297.796239 277.628537 
L 298.536614 281.835643 
L 298.906802 283.207028 
L 299.647177 285.015997 
L 301.127928 287.14386 
L 302.978866 288.293592 
L 303.349054 285.889736 
L 303.719241 286.420272 
L 304.089429 284.253799 
L 304.459616 280.901843 
L 304.829804 282.855244 
L 305.570179 284.985967 
L 306.310555 286.616184 
L 307.791305 288.363663 
L 308.161493 288.676837 
L 308.53168 282.846664 
L 308.901868 283.001105 
L 309.272056 284.269529 
L 309.642243 280.67447 
L 310.012431 282.808053 
L 310.382618 283.670353 
L 310.752806 284.970237 
L 311.493181 286.510363 
L 311.863369 281.369458 
L 312.603744 284.818655 
L 313.714307 287.702996 
L 314.084495 288.04191 
L 314.454682 288.685417 
L 315.565245 289.543426 
L 315.935433 289.807979 
L 316.30562 287.728736 
L 316.675808 288.553855 
L 317.045996 289.085821 
L 317.416183 283.347169 
L 318.156559 286.434572 
L 318.526746 279.862221 
L 318.896934 282.420519 
L 319.637309 285.628044 
L 320.007497 286.566134 
L 320.377684 286.461743 
L 321.11806 288.292162 
L 321.488247 283.40866 
L 321.858435 282.945335 
L 322.228622 284.705684 
L 322.59881 283.946345 
L 322.968998 281.509599 
L 323.709373 285.346331 
L 324.449748 287.502794 
L 324.819936 283.717543 
L 325.190123 281.982934 
L 325.560311 284.132247 
L 326.300686 281.719811 
L 327.041061 285.529373 
L 327.781437 287.690126 
L 328.151624 281.822773 
L 328.521812 284.147978 
L 328.892 285.31058 
L 329.262187 285.171869 
L 329.632375 286.581864 
L 330.002562 285.483612 
L 330.37275 286.860717 
L 330.742938 284.877286 
L 331.113125 286.468893 
L 331.483313 284.644193 
L 331.853501 283.497321 
L 332.223688 285.437852 
L 332.964063 287.741606 
L 333.334251 288.706867 
L 334.074626 289.89664 
L 335.185189 291.047802 
L 335.555377 291.272315 
L 335.925564 291.642689 
L 336.295752 291.77139 
L 336.66594 289.792249 
L 337.036127 288.782658 
L 337.406315 289.576316 
L 337.776503 286.144279 
L 338.516878 288.816978 
L 339.257253 290.530137 
L 339.997628 291.443916 
L 340.367816 291.066392 
L 340.738004 291.462507 
L 341.108191 291.538297 
L 341.848566 292.281905 
L 342.218754 292.484968 
L 342.588942 287.038039 
L 342.959129 283.646042 
L 343.699505 287.348352 
L 344.069692 287.472764 
L 344.43988 288.746907 
L 345.550443 290.87906 
L 347.401381 292.74523 
L 348.141756 293.171375 
L 348.511944 293.435928 
L 348.882131 293.445938 
L 349.252319 291.944422 
L 349.622506 288.942819 
L 349.992694 288.222092 
L 350.362882 289.730758 
L 350.733069 289.614927 
L 351.103257 289.358954 
L 351.473445 290.507256 
L 352.21382 291.672719 
L 352.584007 292.136044 
L 352.954195 291.310925 
L 353.324383 288.182051 
L 353.69457 287.578585 
L 354.434946 290.072532 
L 354.805133 290.85761 
L 355.175321 285.404961 
L 355.545508 283.900585 
L 356.285884 287.225371 
L 356.656071 287.803097 
L 357.026259 287.464183 
L 357.396447 288.186341 
L 357.766634 289.450475 
L 358.136822 289.91809 
L 358.507009 289.663547 
L 358.877197 290.806129 
L 359.617572 292.003052 
L 360.357948 293.078424 
L 361.098323 293.59323 
L 361.46851 293.354417 
L 361.838698 291.119303 
L 362.579073 292.888232 
L 364.059824 294.216716 
L 364.430011 294.000784 
L 364.800199 291.473947 
L 365.170387 292.369136 
L 365.540574 290.125442 
L 365.910762 290.681718 
L 366.651137 292.437777 
L 367.021325 293.129905 
L 368.502075 294.371158 
L 369.612638 295.040405 
L 369.982826 295.038975 
L 370.353013 289.507675 
L 370.723201 287.539974 
L 371.463576 290.617367 
L 372.203951 292.310506 
L 373.314514 293.511719 
L 374.05489 294.152366 
L 374.795265 294.755832 
L 375.165452 294.780142 
L 376.276015 295.359299 
L 376.646203 295.488 
L 377.386578 284.489751 
L 377.756766 286.937938 
L 378.126953 284.988827 
L 378.867329 288.96999 
L 379.607704 290.946271 
L 379.977892 291.688449 
L 380.348079 291.453926 
L 380.718267 290.82901 
L 381.088454 290.900511 
L 381.458642 288.242112 
L 382.199017 291.237994 
L 382.939393 292.805291 
L 384.049955 294.472689 
L 384.420143 290.598777 
L 384.790331 289.679277 
L 385.160518 289.519116 
L 385.530706 290.901941 
L 386.271081 292.833891 
L 386.641269 292.359126 
L 387.011456 287.913208 
L 387.381644 288.187771 
L 388.122019 291.117873 
L 388.862395 292.753811 
L 389.232582 293.324387 
L 389.60277 290.158332 
L 389.972957 291.568328 
L 390.343145 288.342213 
L 391.08352 291.561178 
L 391.823896 293.330107 
L 392.194083 293.985054 
L 392.934458 294.790152 
L 393.674834 295.376459 
L 394.045021 292.363416 
L 394.415209 287.568575 
L 394.785396 287.558564 
L 395.525772 290.984881 
L 395.895959 292.171794 
L 396.266147 292.878222 
L 396.636335 287.388393 
L 397.37671 291.239424 
L 397.746897 292.440637 
L 398.117085 286.653365 
L 398.487273 289.01861 
L 398.487273 289.01861 
" style="fill:none;stroke:#1f77b4;stroke-linecap:square;stroke-width:1.5;"/>
   </g>
   <g id="line2d_14">
    <path clip-path="url(#pb8b98d746d)" d="M 73.832727 53.568 
L 74.202915 81.694973 
L 74.573103 97.021879 
L 74.94329 106.324129 
L 75.313478 119.004076 
L 76.053853 132.439071 
L 76.424041 137.140962 
L 77.164416 149.204572 
L 77.904791 157.673123 
L 79.755729 174.104 
L 81.606667 186.792527 
L 81.976855 188.664418 
L 82.71723 190.519148 
L 83.827793 196.470872 
L 84.197981 197.667795 
L 84.568168 198.269831 
L 84.938356 199.900049 
L 85.308544 200.991151 
L 85.678731 200.95683 
L 86.048919 201.348654 
L 86.419106 203.229125 
L 86.789294 203.73106 
L 88.640232 210.329151 
L 89.01042 211.087059 
L 90.120983 215.258414 
L 90.49117 216.528268 
L 91.231546 218.328658 
L 91.601733 218.168496 
L 91.971921 218.654701 
L 92.342108 219.368279 
L 92.712296 217.976874 
L 93.082484 217.846742 
L 94.193047 221.526172 
L 94.563234 220.735374 
L 95.303609 223.21931 
L 95.673797 220.692473 
L 96.414172 223.952908 
L 97.154548 226.228063 
L 97.524735 221.764985 
L 97.894923 222.637294 
L 98.26511 224.261792 
L 98.635298 223.110629 
L 99.005486 225.199882 
L 99.375673 224.921029 
L 100.116049 228.067063 
L 100.486236 225.211322 
L 100.856424 226.576987 
L 101.226611 226.438275 
L 101.596799 228.466037 
L 101.966987 228.677679 
L 102.337174 229.617199 
L 102.707362 231.320348 
L 103.077549 231.715032 
L 103.447737 233.103577 
L 105.298675 237.533765 
L 106.03905 238.823639 
L 106.409238 239.052441 
L 107.519801 240.649768 
L 108.260176 241.361916 
L 108.630364 241.926772 
L 109.000551 242.061194 
L 109.740927 242.603169 
L 110.111114 240.745579 
L 110.481302 237.13765 
L 110.85149 235.138489 
L 111.221677 235.511723 
L 111.591865 236.997509 
L 111.962052 237.972779 
L 112.33224 234.121748 
L 112.702428 234.991197 
L 113.072615 236.848787 
L 114.183178 240.458146 
L 114.923553 242.109814 
L 115.293741 241.177444 
L 115.663929 238.650607 
L 116.034116 240.483887 
L 116.404304 240.259374 
L 116.774492 240.378065 
L 117.144679 241.888162 
L 117.885054 243.649941 
L 118.255242 237.743977 
L 118.995617 242.121254 
L 120.10618 245.681993 
L 120.476368 246.650113 
L 120.846555 240.392366 
L 121.216743 240.413816 
L 121.586931 241.371926 
L 122.697494 245.975146 
L 123.067681 246.954706 
L 123.437869 247.599643 
L 123.808056 248.543454 
L 124.548432 249.811877 
L 124.918619 242.249956 
L 125.288807 244.751053 
L 126.769557 250.10646 
L 127.139745 247.613944 
L 127.509933 247.962867 
L 127.88012 246.309769 
L 128.620495 249.528734 
L 130.101246 252.89499 
L 131.211809 254.420817 
L 131.952184 255.283116 
L 132.322372 254.156264 
L 133.432935 255.925193 
L 134.17331 256.851843 
L 134.543497 248.25602 
L 134.913685 247.087698 
L 136.024248 251.666607 
L 136.764623 253.299685 
L 137.134811 247.029067 
L 137.875186 251.563646 
L 138.615561 254.193444 
L 138.985749 253.642889 
L 139.355937 255.004263 
L 139.726124 252.465986 
L 140.096312 254.120514 
L 140.466499 255.218766 
L 140.836687 255.275966 
L 141.577062 257.070636 
L 142.317438 258.45775 
L 142.687625 254.457997 
L 143.057813 252.194283 
L 144.538563 257.023445 
L 144.908751 257.931505 
L 146.019314 259.517392 
L 146.389501 259.026897 
L 146.759689 259.448751 
L 147.500064 260.572743 
L 148.24044 261.598064 
L 148.980815 262.221551 
L 149.351002 260.973148 
L 149.72119 261.752506 
L 151.20194 263.142481 
L 151.572128 263.321233 
L 151.942316 263.261172 
L 152.312503 263.537165 
L 152.682691 262.730637 
L 153.052879 256.60016 
L 153.423066 258.544981 
L 153.793254 257.604031 
L 154.163441 257.409549 
L 154.903817 259.816265 
L 156.01438 262.011339 
L 157.49513 263.674447 
L 157.49513 263.674447 
" style="fill:none;stroke:#ff7f0e;stroke-linecap:square;stroke-width:1.5;"/>
   </g>
   <g id="patch_3">
    <path d="M 57.6 307.584 
L 57.6 41.472 
" style="fill:none;stroke:#000000;stroke-linecap:square;stroke-linejoin:miter;stroke-width:0.8;"/>
   </g>
   <g id="patch_4">
    <path d="M 414.72 307.584 
L 414.72 41.472 
" style="fill:none;stroke:#000000;stroke-linecap:square;stroke-linejoin:miter;stroke-width:0.8;"/>
   </g>
   <g id="patch_5">
    <path d="M 57.6 307.584 
L 414.72 307.584 
" style="fill:none;stroke:#000000;stroke-linecap:square;stroke-linejoin:miter;stroke-width:0.8;"/>
   </g>
   <g id="patch_6">
    <path d="M 57.6 41.472 
L 414.72 41.472 
" style="fill:none;stroke:#000000;stroke-linecap:square;stroke-linejoin:miter;stroke-width:0.8;"/>
   </g>
   <g id="text_15">
    <!-- Average fitness over 60 seconds for52cities -->
    <defs>
     <path d="M 48.78125 52.59375 
L 48.78125 44.1875 
Q 44.96875 46.296875 41.140625 47.34375 
Q 37.3125 48.390625 33.40625 48.390625 
Q 24.65625 48.390625 19.8125 42.84375 
Q 14.984375 37.3125 14.984375 27.296875 
Q 14.984375 17.28125 19.8125 11.734375 
Q 24.65625 6.203125 33.40625 6.203125 
Q 37.3125 6.203125 41.140625 7.25 
Q 44.96875 8.296875 48.78125 10.40625 
L 48.78125 2.09375 
Q 45.015625 0.34375 40.984375 -0.53125 
Q 36.96875 -1.421875 32.421875 -1.421875 
Q 20.0625 -1.421875 12.78125 6.34375 
Q 5.515625 14.109375 5.515625 27.296875 
Q 5.515625 40.671875 12.859375 48.328125 
Q 20.21875 56 33.015625 56 
Q 37.15625 56 41.109375 55.140625 
Q 45.0625 54.296875 48.78125 52.59375 
z
" id="DejaVuSans-63"/>
     <path d="M 45.40625 46.390625 
L 45.40625 75.984375 
L 54.390625 75.984375 
L 54.390625 0 
L 45.40625 0 
L 45.40625 8.203125 
Q 42.578125 3.328125 38.25 0.953125 
Q 33.9375 -1.421875 27.875 -1.421875 
Q 17.96875 -1.421875 11.734375 6.484375 
Q 5.515625 14.40625 5.515625 27.296875 
Q 5.515625 40.1875 11.734375 48.09375 
Q 17.96875 56 27.875 56 
Q 33.9375 56 38.25 53.625 
Q 42.578125 51.265625 45.40625 46.390625 
z
M 14.796875 27.296875 
Q 14.796875 17.390625 18.875 11.75 
Q 22.953125 6.109375 30.078125 6.109375 
Q 37.203125 6.109375 41.296875 11.75 
Q 45.40625 17.390625 45.40625 27.296875 
Q 45.40625 37.203125 41.296875 42.84375 
Q 37.203125 48.484375 30.078125 48.484375 
Q 22.953125 48.484375 18.875 42.84375 
Q 14.796875 37.203125 14.796875 27.296875 
z
" id="DejaVuSans-64"/>
    </defs>
    <g transform="translate(104.533125 35.472)scale(0.12 -0.12)">
     <use xlink:href="#DejaVuSans-41"/>
     <use x="68.330078" xlink:href="#DejaVuSans-76"/>
     <use x="127.509766" xlink:href="#DejaVuSans-65"/>
     <use x="189.033203" xlink:href="#DejaVuSans-72"/>
     <use x="230.146484" xlink:href="#DejaVuSans-61"/>
     <use x="291.425781" xlink:href="#DejaVuSans-67"/>
     <use x="354.902344" xlink:href="#DejaVuSans-65"/>
     <use x="416.425781" xlink:href="#DejaVuSans-20"/>
     <use x="448.212891" xlink:href="#DejaVuSans-66"/>
     <use x="483.417969" xlink:href="#DejaVuSans-69"/>
     <use x="511.201172" xlink:href="#DejaVuSans-74"/>
     <use x="550.410156" xlink:href="#DejaVuSans-6e"/>
     <use x="613.789062" xlink:href="#DejaVuSans-65"/>
     <use x="675.3125" xlink:href="#DejaVuSans-73"/>
     <use x="727.412109" xlink:href="#DejaVuSans-73"/>
     <use x="779.511719" xlink:href="#DejaVuSans-20"/>
     <use x="811.298828" xlink:href="#DejaVuSans-6f"/>
     <use x="872.480469" xlink:href="#DejaVuSans-76"/>
     <use x="931.660156" xlink:href="#DejaVuSans-65"/>
     <use x="993.183594" xlink:href="#DejaVuSans-72"/>
     <use x="1034.296875" xlink:href="#DejaVuSans-20"/>
     <use x="1066.083984" xlink:href="#DejaVuSans-36"/>
     <use x="1129.707031" xlink:href="#DejaVuSans-30"/>
     <use x="1193.330078" xlink:href="#DejaVuSans-20"/>
     <use x="1225.117188" xlink:href="#DejaVuSans-73"/>
     <use x="1277.216797" xlink:href="#DejaVuSans-65"/>
     <use x="1338.740234" xlink:href="#DejaVuSans-63"/>
     <use x="1393.720703" xlink:href="#DejaVuSans-6f"/>
     <use x="1454.902344" xlink:href="#DejaVuSans-6e"/>
     <use x="1518.28125" xlink:href="#DejaVuSans-64"/>
     <use x="1581.757812" xlink:href="#DejaVuSans-73"/>
     <use x="1633.857422" xlink:href="#DejaVuSans-20"/>
     <use x="1665.644531" xlink:href="#DejaVuSans-66"/>
     <use x="1700.849609" xlink:href="#DejaVuSans-6f"/>
     <use x="1762.03125" xlink:href="#DejaVuSans-72"/>
     <use x="1803.144531" xlink:href="#DejaVuSans-35"/>
     <use x="1866.767578" xlink:href="#DejaVuSans-32"/>
     <use x="1930.390625" xlink:href="#DejaVuSans-63"/>
     <use x="1985.371094" xlink:href="#DejaVuSans-69"/>
     <use x="2013.154297" xlink:href="#DejaVuSans-74"/>
     <use x="2052.363281" xlink:href="#DejaVuSans-69"/>
     <use x="2080.146484" xlink:href="#DejaVuSans-65"/>
     <use x="2141.669922" xlink:href="#DejaVuSans-73"/>
    </g>
   </g>
   <g id="legend_1">
    <g id="patch_7">
     <path d="M 112.11375 78.82825 
L 407.72 78.82825 
Q 409.72 78.82825 409.72 76.82825 
L 409.72 48.472 
Q 409.72 46.472 407.72 46.472 
L 112.11375 46.472 
Q 110.11375 46.472 110.11375 48.472 
L 110.11375 76.82825 
Q 110.11375 78.82825 112.11375 78.82825 
z
" style="fill:#ffffff;opacity:0.8;stroke:#cccccc;stroke-linejoin:miter;"/>
    </g>
    <g id="patch_8">
     <path d="M 114.11375 58.070437 
L 134.11375 58.070437 
L 134.11375 51.070437 
L 114.11375 51.070437 
z
" style="fill:#87ceeb;stroke:#87ceeb;stroke-linejoin:miter;"/>
    </g>
    <g id="text_16">
     <!-- Parallel min, 11239.1 Last Generation number 879.0 -->
     <defs>
      <path d="M 19.671875 64.796875 
L 19.671875 37.40625 
L 32.078125 37.40625 
Q 38.96875 37.40625 42.71875 40.96875 
Q 46.484375 44.53125 46.484375 51.125 
Q 46.484375 57.671875 42.71875 61.234375 
Q 38.96875 64.796875 32.078125 64.796875 
z
M 9.8125 72.90625 
L 32.078125 72.90625 
Q 44.34375 72.90625 50.609375 67.359375 
Q 56.890625 61.8125 56.890625 51.125 
Q 56.890625 40.328125 50.609375 34.8125 
Q 44.34375 29.296875 32.078125 29.296875 
L 19.671875 29.296875 
L 19.671875 0 
L 9.8125 0 
z
" id="DejaVuSans-50"/>
      <path d="M 9.421875 75.984375 
L 18.40625 75.984375 
L 18.40625 0 
L 9.421875 0 
z
" id="DejaVuSans-6c"/>
      <path d="M 11.71875 12.40625 
L 22.015625 12.40625 
L 22.015625 4 
L 14.015625 -11.625 
L 7.71875 -11.625 
L 11.71875 4 
z
" id="DejaVuSans-2c"/>
      <path d="M 40.578125 39.3125 
Q 47.65625 37.796875 51.625 33 
Q 55.609375 28.21875 55.609375 21.1875 
Q 55.609375 10.40625 48.1875 4.484375 
Q 40.765625 -1.421875 27.09375 -1.421875 
Q 22.515625 -1.421875 17.65625 -0.515625 
Q 12.796875 0.390625 7.625 2.203125 
L 7.625 11.71875 
Q 11.71875 9.328125 16.59375 8.109375 
Q 21.484375 6.890625 26.8125 6.890625 
Q 36.078125 6.890625 40.9375 10.546875 
Q 45.796875 14.203125 45.796875 21.1875 
Q 45.796875 27.640625 41.28125 31.265625 
Q 36.765625 34.90625 28.71875 34.90625 
L 20.21875 34.90625 
L 20.21875 43.015625 
L 29.109375 43.015625 
Q 36.375 43.015625 40.234375 45.921875 
Q 44.09375 48.828125 44.09375 54.296875 
Q 44.09375 59.90625 40.109375 62.90625 
Q 36.140625 65.921875 28.71875 65.921875 
Q 24.65625 65.921875 20.015625 65.03125 
Q 15.375 64.15625 9.8125 62.3125 
L 9.8125 71.09375 
Q 15.4375 72.65625 20.34375 73.4375 
Q 25.25 74.21875 29.59375 74.21875 
Q 40.828125 74.21875 47.359375 69.109375 
Q 53.90625 64.015625 53.90625 55.328125 
Q 53.90625 49.265625 50.4375 45.09375 
Q 46.96875 40.921875 40.578125 39.3125 
z
" id="DejaVuSans-33"/>
      <path d="M 10.984375 1.515625 
L 10.984375 10.5 
Q 14.703125 8.734375 18.5 7.8125 
Q 22.3125 6.890625 25.984375 6.890625 
Q 35.75 6.890625 40.890625 13.453125 
Q 46.046875 20.015625 46.78125 33.40625 
Q 43.953125 29.203125 39.59375 26.953125 
Q 35.25 24.703125 29.984375 24.703125 
Q 19.046875 24.703125 12.671875 31.3125 
Q 6.296875 37.9375 6.296875 49.421875 
Q 6.296875 60.640625 12.9375 67.421875 
Q 19.578125 74.21875 30.609375 74.21875 
Q 43.265625 74.21875 49.921875 64.515625 
Q 56.59375 54.828125 56.59375 36.375 
Q 56.59375 19.140625 48.40625 8.859375 
Q 40.234375 -1.421875 26.421875 -1.421875 
Q 22.703125 -1.421875 18.890625 -0.6875 
Q 15.09375 0.046875 10.984375 1.515625 
z
M 30.609375 32.421875 
Q 37.25 32.421875 41.125 36.953125 
Q 45.015625 41.5 45.015625 49.421875 
Q 45.015625 57.28125 41.125 61.84375 
Q 37.25 66.40625 30.609375 66.40625 
Q 23.96875 66.40625 20.09375 61.84375 
Q 16.21875 57.28125 16.21875 49.421875 
Q 16.21875 41.5 20.09375 36.953125 
Q 23.96875 32.421875 30.609375 32.421875 
z
" id="DejaVuSans-39"/>
      <path d="M 10.6875 12.40625 
L 21 12.40625 
L 21 0 
L 10.6875 0 
z
" id="DejaVuSans-2e"/>
      <path d="M 9.8125 72.90625 
L 19.671875 72.90625 
L 19.671875 8.296875 
L 55.171875 8.296875 
L 55.171875 0 
L 9.8125 0 
z
" id="DejaVuSans-4c"/>
     </defs>
     <g transform="translate(142.11375 58.070437)scale(0.1 -0.1)">
      <use xlink:href="#DejaVuSans-50"/>
      <use x="60.240234" xlink:href="#DejaVuSans-61"/>
      <use x="121.519531" xlink:href="#DejaVuSans-72"/>
      <use x="162.632812" xlink:href="#DejaVuSans-61"/>
      <use x="223.912109" xlink:href="#DejaVuSans-6c"/>
      <use x="251.695312" xlink:href="#DejaVuSans-6c"/>
      <use x="279.478516" xlink:href="#DejaVuSans-65"/>
      <use x="341.001953" xlink:href="#DejaVuSans-6c"/>
      <use x="368.785156" xlink:href="#DejaVuSans-20"/>
      <use x="400.572266" xlink:href="#DejaVuSans-6d"/>
      <use x="497.984375" xlink:href="#DejaVuSans-69"/>
      <use x="525.767578" xlink:href="#DejaVuSans-6e"/>
      <use x="589.146484" xlink:href="#DejaVuSans-2c"/>
      <use x="620.933594" xlink:href="#DejaVuSans-20"/>
      <use x="652.720703" xlink:href="#DejaVuSans-31"/>
      <use x="716.34375" xlink:href="#DejaVuSans-31"/>
      <use x="779.966797" xlink:href="#DejaVuSans-32"/>
      <use x="843.589844" xlink:href="#DejaVuSans-33"/>
      <use x="907.212891" xlink:href="#DejaVuSans-39"/>
      <use x="970.835938" xlink:href="#DejaVuSans-2e"/>
      <use x="1002.623047" xlink:href="#DejaVuSans-31"/>
      <use x="1066.246094" xlink:href="#DejaVuSans-20"/>
      <use x="1098.033203" xlink:href="#DejaVuSans-4c"/>
      <use x="1153.746094" xlink:href="#DejaVuSans-61"/>
      <use x="1215.025391" xlink:href="#DejaVuSans-73"/>
      <use x="1267.125" xlink:href="#DejaVuSans-74"/>
      <use x="1306.333984" xlink:href="#DejaVuSans-20"/>
      <use x="1338.121094" xlink:href="#DejaVuSans-47"/>
      <use x="1415.611328" xlink:href="#DejaVuSans-65"/>
      <use x="1477.134766" xlink:href="#DejaVuSans-6e"/>
      <use x="1540.513672" xlink:href="#DejaVuSans-65"/>
      <use x="1602.037109" xlink:href="#DejaVuSans-72"/>
      <use x="1643.150391" xlink:href="#DejaVuSans-61"/>
      <use x="1704.429688" xlink:href="#DejaVuSans-74"/>
      <use x="1743.638672" xlink:href="#DejaVuSans-69"/>
      <use x="1771.421875" xlink:href="#DejaVuSans-6f"/>
      <use x="1832.603516" xlink:href="#DejaVuSans-6e"/>
      <use x="1895.982422" xlink:href="#DejaVuSans-20"/>
      <use x="1927.769531" xlink:href="#DejaVuSans-6e"/>
      <use x="1991.148438" xlink:href="#DejaVuSans-75"/>
      <use x="2054.527344" xlink:href="#DejaVuSans-6d"/>
      <use x="2151.939453" xlink:href="#DejaVuSans-62"/>
      <use x="2215.416016" xlink:href="#DejaVuSans-65"/>
      <use x="2276.939453" xlink:href="#DejaVuSans-72"/>
      <use x="2318.052734" xlink:href="#DejaVuSans-20"/>
      <use x="2349.839844" xlink:href="#DejaVuSans-38"/>
      <use x="2413.462891" xlink:href="#DejaVuSans-37"/>
      <use x="2477.085938" xlink:href="#DejaVuSans-39"/>
      <use x="2540.708984" xlink:href="#DejaVuSans-2e"/>
      <use x="2572.496094" xlink:href="#DejaVuSans-30"/>
     </g>
    </g>
    <g id="patch_9">
     <path d="M 114.11375 72.748562 
L 134.11375 72.748562 
L 134.11375 65.748562 
L 114.11375 65.748562 
z
" style="fill:#ffa500;stroke:#ffa500;stroke-linejoin:miter;"/>
    </g>
    <g id="text_17">
     <!-- Serial min, 13463.8 Last Generation number 228.0 -->
     <defs>
      <path d="M 53.515625 70.515625 
L 53.515625 60.890625 
Q 47.90625 63.578125 42.921875 64.890625 
Q 37.9375 66.21875 33.296875 66.21875 
Q 25.25 66.21875 20.875 63.09375 
Q 16.5 59.96875 16.5 54.203125 
Q 16.5 49.359375 19.40625 46.890625 
Q 22.3125 44.4375 30.421875 42.921875 
L 36.375 41.703125 
Q 47.40625 39.59375 52.65625 34.296875 
Q 57.90625 29 57.90625 20.125 
Q 57.90625 9.515625 50.796875 4.046875 
Q 43.703125 -1.421875 29.984375 -1.421875 
Q 24.8125 -1.421875 18.96875 -0.25 
Q 13.140625 0.921875 6.890625 3.21875 
L 6.890625 13.375 
Q 12.890625 10.015625 18.65625 8.296875 
Q 24.421875 6.59375 29.984375 6.59375 
Q 38.421875 6.59375 43.015625 9.90625 
Q 47.609375 13.234375 47.609375 19.390625 
Q 47.609375 24.75 44.3125 27.78125 
Q 41.015625 30.8125 33.5 32.328125 
L 27.484375 33.5 
Q 16.453125 35.6875 11.515625 40.375 
Q 6.59375 45.0625 6.59375 53.421875 
Q 6.59375 63.09375 13.40625 68.65625 
Q 20.21875 74.21875 32.171875 74.21875 
Q 37.3125 74.21875 42.625 73.28125 
Q 47.953125 72.359375 53.515625 70.515625 
z
" id="DejaVuSans-53"/>
     </defs>
     <g transform="translate(142.11375 72.748562)scale(0.1 -0.1)">
      <use xlink:href="#DejaVuSans-53"/>
      <use x="63.476562" xlink:href="#DejaVuSans-65"/>
      <use x="125" xlink:href="#DejaVuSans-72"/>
      <use x="166.113281" xlink:href="#DejaVuSans-69"/>
      <use x="193.896484" xlink:href="#DejaVuSans-61"/>
      <use x="255.175781" xlink:href="#DejaVuSans-6c"/>
      <use x="282.958984" xlink:href="#DejaVuSans-20"/>
      <use x="314.746094" xlink:href="#DejaVuSans-6d"/>
      <use x="412.158203" xlink:href="#DejaVuSans-69"/>
      <use x="439.941406" xlink:href="#DejaVuSans-6e"/>
      <use x="503.320312" xlink:href="#DejaVuSans-2c"/>
      <use x="535.107422" xlink:href="#DejaVuSans-20"/>
      <use x="566.894531" xlink:href="#DejaVuSans-31"/>
      <use x="630.517578" xlink:href="#DejaVuSans-33"/>
      <use x="694.140625" xlink:href="#DejaVuSans-34"/>
      <use x="757.763672" xlink:href="#DejaVuSans-36"/>
      <use x="821.386719" xlink:href="#DejaVuSans-33"/>
      <use x="885.009766" xlink:href="#DejaVuSans-2e"/>
      <use x="916.796875" xlink:href="#DejaVuSans-38"/>
      <use x="980.419922" xlink:href="#DejaVuSans-20"/>
      <use x="1012.207031" xlink:href="#DejaVuSans-4c"/>
      <use x="1067.919922" xlink:href="#DejaVuSans-61"/>
      <use x="1129.199219" xlink:href="#DejaVuSans-73"/>
      <use x="1181.298828" xlink:href="#DejaVuSans-74"/>
      <use x="1220.507812" xlink:href="#DejaVuSans-20"/>
      <use x="1252.294922" xlink:href="#DejaVuSans-47"/>
      <use x="1329.785156" xlink:href="#DejaVuSans-65"/>
      <use x="1391.308594" xlink:href="#DejaVuSans-6e"/>
      <use x="1454.6875" xlink:href="#DejaVuSans-65"/>
      <use x="1516.210938" xlink:href="#DejaVuSans-72"/>
      <use x="1557.324219" xlink:href="#DejaVuSans-61"/>
      <use x="1618.603516" xlink:href="#DejaVuSans-74"/>
      <use x="1657.8125" xlink:href="#DejaVuSans-69"/>
      <use x="1685.595703" xlink:href="#DejaVuSans-6f"/>
      <use x="1746.777344" xlink:href="#DejaVuSans-6e"/>
      <use x="1810.15625" xlink:href="#DejaVuSans-20"/>
      <use x="1841.943359" xlink:href="#DejaVuSans-6e"/>
      <use x="1905.322266" xlink:href="#DejaVuSans-75"/>
      <use x="1968.701172" xlink:href="#DejaVuSans-6d"/>
      <use x="2066.113281" xlink:href="#DejaVuSans-62"/>
      <use x="2129.589844" xlink:href="#DejaVuSans-65"/>
      <use x="2191.113281" xlink:href="#DejaVuSans-72"/>
      <use x="2232.226562" xlink:href="#DejaVuSans-20"/>
      <use x="2264.013672" xlink:href="#DejaVuSans-32"/>
      <use x="2327.636719" xlink:href="#DejaVuSans-32"/>
      <use x="2391.259766" xlink:href="#DejaVuSans-38"/>
      <use x="2454.882812" xlink:href="#DejaVuSans-2e"/>
      <use x="2486.669922" xlink:href="#DejaVuSans-30"/>
     </g>
    </g>
   </g>
  </g>
 </g>
 <defs>
  <clipPath id="pb8b98d746d">
   <rect height="266.112" width="357.12" x="57.6" y="41.472"/>
  </clipPath>
 </defs>
</svg>
