<?xml version="1.0" encoding="utf-8" standalone="no"?>
<!DOCTYPE svg PUBLIC "-//W3C//DTD SVG 1.1//EN"
  "http://www.w3.org/Graphics/SVG/1.1/DTD/svg11.dtd">
<!-- Created with matplotlib (http://matplotlib.org/) -->
<svg height="345.6pt" version="1.1" viewBox="0 0 460.8 345.6" width="460.8pt" xmlns="http://www.w3.org/2000/svg" xmlns:xlink="http://www.w3.org/1999/xlink">
 <defs>
  <style type="text/css">
*{stroke-linecap:butt;stroke-linejoin:round;}
  </style>
 </defs>
 <g id="figure_1">
  <g id="patch_1">
   <path d="M 0 345.6 
L 460.8 345.6 
L 460.8 0 
L 0 0 
z
" style="fill:#ffffff;"/>
  </g>
  <g id="axes_1">
   <g id="patch_2">
    <path d="M 57.6 307.584 
L 414.72 307.584 
L 414.72 41.472 
L 57.6 41.472 
z
" style="fill:#ffffff;"/>
   </g>
   <g id="matplotlib.axis_1">
    <g id="xtick_1">
     <g id="line2d_1">
      <defs>
       <path d="M 0 0 
L 0 3.5 
" id="m81d51dd9e5" style="stroke:#000000;stroke-width:0.8;"/>
      </defs>
      <g>
       <use style="stroke:#000000;stroke-width:0.8;" x="73.661043" xlink:href="#m81d51dd9e5" y="307.584"/>
      </g>
     </g>
     <g id="text_1">
      <!-- 0 -->
      <defs>
       <path d="M 31.78125 66.40625 
Q 24.171875 66.40625 20.328125 58.90625 
Q 16.5 51.421875 16.5 36.375 
Q 16.5 21.390625 20.328125 13.890625 
Q 24.171875 6.390625 31.78125 6.390625 
Q 39.453125 6.390625 43.28125 13.890625 
Q 47.125 21.390625 47.125 36.375 
Q 47.125 51.421875 43.28125 58.90625 
Q 39.453125 66.40625 31.78125 66.40625 
z
M 31.78125 74.21875 
Q 44.046875 74.21875 50.515625 64.515625 
Q 56.984375 54.828125 56.984375 36.375 
Q 56.984375 17.96875 50.515625 8.265625 
Q 44.046875 -1.421875 31.78125 -1.421875 
Q 19.53125 -1.421875 13.0625 8.265625 
Q 6.59375 17.96875 6.59375 36.375 
Q 6.59375 54.828125 13.0625 64.515625 
Q 19.53125 74.21875 31.78125 74.21875 
z
" id="DejaVuSans-30"/>
      </defs>
      <g transform="translate(70.479793 322.182437)scale(0.1 -0.1)">
       <use xlink:href="#DejaVuSans-30"/>
      </g>
     </g>
    </g>
    <g id="xtick_2">
     <g id="line2d_2">
      <g>
       <use style="stroke:#000000;stroke-width:0.8;" x="116.582057" xlink:href="#m81d51dd9e5" y="307.584"/>
      </g>
     </g>
     <g id="text_2">
      <!-- 250 -->
      <defs>
       <path d="M 19.1875 8.296875 
L 53.609375 8.296875 
L 53.609375 0 
L 7.328125 0 
L 7.328125 8.296875 
Q 12.9375 14.109375 22.625 23.890625 
Q 32.328125 33.6875 34.8125 36.53125 
Q 39.546875 41.84375 41.421875 45.53125 
Q 43.3125 49.21875 43.3125 52.78125 
Q 43.3125 58.59375 39.234375 62.25 
Q 35.15625 65.921875 28.609375 65.921875 
Q 23.96875 65.921875 18.8125 64.3125 
Q 13.671875 62.703125 7.8125 59.421875 
L 7.8125 69.390625 
Q 13.765625 71.78125 18.9375 73 
Q 24.125 74.21875 28.421875 74.21875 
Q 39.75 74.21875 46.484375 68.546875 
Q 53.21875 62.890625 53.21875 53.421875 
Q 53.21875 48.921875 51.53125 44.890625 
Q 49.859375 40.875 45.40625 35.40625 
Q 44.1875 33.984375 37.640625 27.21875 
Q 31.109375 20.453125 19.1875 8.296875 
z
" id="DejaVuSans-32"/>
       <path d="M 10.796875 72.90625 
L 49.515625 72.90625 
L 49.515625 64.59375 
L 19.828125 64.59375 
L 19.828125 46.734375 
Q 21.96875 47.46875 24.109375 47.828125 
Q 26.265625 48.1875 28.421875 48.1875 
Q 40.625 48.1875 47.75 41.5 
Q 54.890625 34.8125 54.890625 23.390625 
Q 54.890625 11.625 47.5625 5.09375 
Q 40.234375 -1.421875 26.90625 -1.421875 
Q 22.3125 -1.421875 17.546875 -0.640625 
Q 12.796875 0.140625 7.71875 1.703125 
L 7.71875 11.625 
Q 12.109375 9.234375 16.796875 8.0625 
Q 21.484375 6.890625 26.703125 6.890625 
Q 35.15625 6.890625 40.078125 11.328125 
Q 45.015625 15.765625 45.015625 23.390625 
Q 45.015625 31 40.078125 35.4375 
Q 35.15625 39.890625 26.703125 39.890625 
Q 22.75 39.890625 18.8125 39.015625 
Q 14.890625 38.140625 10.796875 36.28125 
z
" id="DejaVuSans-35"/>
      </defs>
      <g transform="translate(107.038307 322.182437)scale(0.1 -0.1)">
       <use xlink:href="#DejaVuSans-32"/>
       <use x="63.623047" xlink:href="#DejaVuSans-35"/>
       <use x="127.246094" xlink:href="#DejaVuSans-30"/>
      </g>
     </g>
    </g>
    <g id="xtick_3">
     <g id="line2d_3">
      <g>
       <use style="stroke:#000000;stroke-width:0.8;" x="159.50307" xlink:href="#m81d51dd9e5" y="307.584"/>
      </g>
     </g>
     <g id="text_3">
      <!-- 500 -->
      <g transform="translate(149.95932 322.182437)scale(0.1 -0.1)">
       <use xlink:href="#DejaVuSans-35"/>
       <use x="63.623047" xlink:href="#DejaVuSans-30"/>
       <use x="127.246094" xlink:href="#DejaVuSans-30"/>
      </g>
     </g>
    </g>
    <g id="xtick_4">
     <g id="line2d_4">
      <g>
       <use style="stroke:#000000;stroke-width:0.8;" x="202.424083" xlink:href="#m81d51dd9e5" y="307.584"/>
      </g>
     </g>
     <g id="text_4">
      <!-- 750 -->
      <defs>
       <path d="M 8.203125 72.90625 
L 55.078125 72.90625 
L 55.078125 68.703125 
L 28.609375 0 
L 18.3125 0 
L 43.21875 64.59375 
L 8.203125 64.59375 
z
" id="DejaVuSans-37"/>
      </defs>
      <g transform="translate(192.880333 322.182437)scale(0.1 -0.1)">
       <use xlink:href="#DejaVuSans-37"/>
       <use x="63.623047" xlink:href="#DejaVuSans-35"/>
       <use x="127.246094" xlink:href="#DejaVuSans-30"/>
      </g>
     </g>
    </g>
    <g id="xtick_5">
     <g id="line2d_5">
      <g>
       <use style="stroke:#000000;stroke-width:0.8;" x="245.345097" xlink:href="#m81d51dd9e5" y="307.584"/>
      </g>
     </g>
     <g id="text_5">
      <!-- 1000 -->
      <defs>
       <path d="M 12.40625 8.296875 
L 28.515625 8.296875 
L 28.515625 63.921875 
L 10.984375 60.40625 
L 10.984375 69.390625 
L 28.421875 72.90625 
L 38.28125 72.90625 
L 38.28125 8.296875 
L 54.390625 8.296875 
L 54.390625 0 
L 12.40625 0 
z
" id="DejaVuSans-31"/>
      </defs>
      <g transform="translate(232.620097 322.182437)scale(0.1 -0.1)">
       <use xlink:href="#DejaVuSans-31"/>
       <use x="63.623047" xlink:href="#DejaVuSans-30"/>
       <use x="127.246094" xlink:href="#DejaVuSans-30"/>
       <use x="190.869141" xlink:href="#DejaVuSans-30"/>
      </g>
     </g>
    </g>
    <g id="xtick_6">
     <g id="line2d_6">
      <g>
       <use style="stroke:#000000;stroke-width:0.8;" x="288.26611" xlink:href="#m81d51dd9e5" y="307.584"/>
      </g>
     </g>
     <g id="text_6">
      <!-- 1250 -->
      <g transform="translate(275.54111 322.182437)scale(0.1 -0.1)">
       <use xlink:href="#DejaVuSans-31"/>
       <use x="63.623047" xlink:href="#DejaVuSans-32"/>
       <use x="127.246094" xlink:href="#DejaVuSans-35"/>
       <use x="190.869141" xlink:href="#DejaVuSans-30"/>
      </g>
     </g>
    </g>
    <g id="xtick_7">
     <g id="line2d_7">
      <g>
       <use style="stroke:#000000;stroke-width:0.8;" x="331.187124" xlink:href="#m81d51dd9e5" y="307.584"/>
      </g>
     </g>
     <g id="text_7">
      <!-- 1500 -->
      <g transform="translate(318.462124 322.182437)scale(0.1 -0.1)">
       <use xlink:href="#DejaVuSans-31"/>
       <use x="63.623047" xlink:href="#DejaVuSans-35"/>
       <use x="127.246094" xlink:href="#DejaVuSans-30"/>
       <use x="190.869141" xlink:href="#DejaVuSans-30"/>
      </g>
     </g>
    </g>
    <g id="xtick_8">
     <g id="line2d_8">
      <g>
       <use style="stroke:#000000;stroke-width:0.8;" x="374.108137" xlink:href="#m81d51dd9e5" y="307.584"/>
      </g>
     </g>
     <g id="text_8">
      <!-- 1750 -->
      <g transform="translate(361.383137 322.182437)scale(0.1 -0.1)">
       <use xlink:href="#DejaVuSans-31"/>
       <use x="63.623047" xlink:href="#DejaVuSans-37"/>
       <use x="127.246094" xlink:href="#DejaVuSans-35"/>
       <use x="190.869141" xlink:href="#DejaVuSans-30"/>
      </g>
     </g>
    </g>
    <g id="text_9">
     <!-- Generation number -->
     <defs>
      <path d="M 59.515625 10.40625 
L 59.515625 29.984375 
L 43.40625 29.984375 
L 43.40625 38.09375 
L 69.28125 38.09375 
L 69.28125 6.78125 
Q 63.578125 2.734375 56.6875 0.65625 
Q 49.8125 -1.421875 42 -1.421875 
Q 24.90625 -1.421875 15.25 8.5625 
Q 5.609375 18.5625 5.609375 36.375 
Q 5.609375 54.25 15.25 64.234375 
Q 24.90625 74.21875 42 74.21875 
Q 49.125 74.21875 55.546875 72.453125 
Q 61.96875 70.703125 67.390625 67.28125 
L 67.390625 56.78125 
Q 61.921875 61.421875 55.765625 63.765625 
Q 49.609375 66.109375 42.828125 66.109375 
Q 29.4375 66.109375 22.71875 58.640625 
Q 16.015625 51.171875 16.015625 36.375 
Q 16.015625 21.625 22.71875 14.15625 
Q 29.4375 6.6875 42.828125 6.6875 
Q 48.046875 6.6875 52.140625 7.59375 
Q 56.25 8.5 59.515625 10.40625 
z
" id="DejaVuSans-47"/>
      <path d="M 56.203125 29.59375 
L 56.203125 25.203125 
L 14.890625 25.203125 
Q 15.484375 15.921875 20.484375 11.0625 
Q 25.484375 6.203125 34.421875 6.203125 
Q 39.59375 6.203125 44.453125 7.46875 
Q 49.3125 8.734375 54.109375 11.28125 
L 54.109375 2.78125 
Q 49.265625 0.734375 44.1875 -0.34375 
Q 39.109375 -1.421875 33.890625 -1.421875 
Q 20.796875 -1.421875 13.15625 6.1875 
Q 5.515625 13.8125 5.515625 26.8125 
Q 5.515625 40.234375 12.765625 48.109375 
Q 20.015625 56 32.328125 56 
Q 43.359375 56 49.78125 48.890625 
Q 56.203125 41.796875 56.203125 29.59375 
z
M 47.21875 32.234375 
Q 47.125 39.59375 43.09375 43.984375 
Q 39.0625 48.390625 32.421875 48.390625 
Q 24.90625 48.390625 20.390625 44.140625 
Q 15.875 39.890625 15.1875 32.171875 
z
" id="DejaVuSans-65"/>
      <path d="M 54.890625 33.015625 
L 54.890625 0 
L 45.90625 0 
L 45.90625 32.71875 
Q 45.90625 40.484375 42.875 44.328125 
Q 39.84375 48.1875 33.796875 48.1875 
Q 26.515625 48.1875 22.3125 43.546875 
Q 18.109375 38.921875 18.109375 30.90625 
L 18.109375 0 
L 9.078125 0 
L 9.078125 54.6875 
L 18.109375 54.6875 
L 18.109375 46.1875 
Q 21.34375 51.125 25.703125 53.5625 
Q 30.078125 56 35.796875 56 
Q 45.21875 56 50.046875 50.171875 
Q 54.890625 44.34375 54.890625 33.015625 
z
" id="DejaVuSans-6e"/>
      <path d="M 41.109375 46.296875 
Q 39.59375 47.171875 37.8125 47.578125 
Q 36.03125 48 33.890625 48 
Q 26.265625 48 22.1875 43.046875 
Q 18.109375 38.09375 18.109375 28.8125 
L 18.109375 0 
L 9.078125 0 
L 9.078125 54.6875 
L 18.109375 54.6875 
L 18.109375 46.1875 
Q 20.953125 51.171875 25.484375 53.578125 
Q 30.03125 56 36.53125 56 
Q 37.453125 56 38.578125 55.875 
Q 39.703125 55.765625 41.0625 55.515625 
z
" id="DejaVuSans-72"/>
      <path d="M 34.28125 27.484375 
Q 23.390625 27.484375 19.1875 25 
Q 14.984375 22.515625 14.984375 16.5 
Q 14.984375 11.71875 18.140625 8.90625 
Q 21.296875 6.109375 26.703125 6.109375 
Q 34.1875 6.109375 38.703125 11.40625 
Q 43.21875 16.703125 43.21875 25.484375 
L 43.21875 27.484375 
z
M 52.203125 31.203125 
L 52.203125 0 
L 43.21875 0 
L 43.21875 8.296875 
Q 40.140625 3.328125 35.546875 0.953125 
Q 30.953125 -1.421875 24.3125 -1.421875 
Q 15.921875 -1.421875 10.953125 3.296875 
Q 6 8.015625 6 15.921875 
Q 6 25.140625 12.171875 29.828125 
Q 18.359375 34.515625 30.609375 34.515625 
L 43.21875 34.515625 
L 43.21875 35.40625 
Q 43.21875 41.609375 39.140625 45 
Q 35.0625 48.390625 27.6875 48.390625 
Q 23 48.390625 18.546875 47.265625 
Q 14.109375 46.140625 10.015625 43.890625 
L 10.015625 52.203125 
Q 14.9375 54.109375 19.578125 55.046875 
Q 24.21875 56 28.609375 56 
Q 40.484375 56 46.34375 49.84375 
Q 52.203125 43.703125 52.203125 31.203125 
z
" id="DejaVuSans-61"/>
      <path d="M 18.3125 70.21875 
L 18.3125 54.6875 
L 36.8125 54.6875 
L 36.8125 47.703125 
L 18.3125 47.703125 
L 18.3125 18.015625 
Q 18.3125 11.328125 20.140625 9.421875 
Q 21.96875 7.515625 27.59375 7.515625 
L 36.8125 7.515625 
L 36.8125 0 
L 27.59375 0 
Q 17.1875 0 13.234375 3.875 
Q 9.28125 7.765625 9.28125 18.015625 
L 9.28125 47.703125 
L 2.6875 47.703125 
L 2.6875 54.6875 
L 9.28125 54.6875 
L 9.28125 70.21875 
z
" id="DejaVuSans-74"/>
      <path d="M 9.421875 54.6875 
L 18.40625 54.6875 
L 18.40625 0 
L 9.421875 0 
z
M 9.421875 75.984375 
L 18.40625 75.984375 
L 18.40625 64.59375 
L 9.421875 64.59375 
z
" id="DejaVuSans-69"/>
      <path d="M 30.609375 48.390625 
Q 23.390625 48.390625 19.1875 42.75 
Q 14.984375 37.109375 14.984375 27.296875 
Q 14.984375 17.484375 19.15625 11.84375 
Q 23.34375 6.203125 30.609375 6.203125 
Q 37.796875 6.203125 41.984375 11.859375 
Q 46.1875 17.53125 46.1875 27.296875 
Q 46.1875 37.015625 41.984375 42.703125 
Q 37.796875 48.390625 30.609375 48.390625 
z
M 30.609375 56 
Q 42.328125 56 49.015625 48.375 
Q 55.71875 40.765625 55.71875 27.296875 
Q 55.71875 13.875 49.015625 6.21875 
Q 42.328125 -1.421875 30.609375 -1.421875 
Q 18.84375 -1.421875 12.171875 6.21875 
Q 5.515625 13.875 5.515625 27.296875 
Q 5.515625 40.765625 12.171875 48.375 
Q 18.84375 56 30.609375 56 
z
" id="DejaVuSans-6f"/>
      <path id="DejaVuSans-20"/>
      <path d="M 8.5 21.578125 
L 8.5 54.6875 
L 17.484375 54.6875 
L 17.484375 21.921875 
Q 17.484375 14.15625 20.5 10.265625 
Q 23.53125 6.390625 29.59375 6.390625 
Q 36.859375 6.390625 41.078125 11.03125 
Q 45.3125 15.671875 45.3125 23.6875 
L 45.3125 54.6875 
L 54.296875 54.6875 
L 54.296875 0 
L 45.3125 0 
L 45.3125 8.40625 
Q 42.046875 3.421875 37.71875 1 
Q 33.40625 -1.421875 27.6875 -1.421875 
Q 18.265625 -1.421875 13.375 4.4375 
Q 8.5 10.296875 8.5 21.578125 
z
M 31.109375 56 
z
" id="DejaVuSans-75"/>
      <path d="M 52 44.1875 
Q 55.375 50.25 60.0625 53.125 
Q 64.75 56 71.09375 56 
Q 79.640625 56 84.28125 50.015625 
Q 88.921875 44.046875 88.921875 33.015625 
L 88.921875 0 
L 79.890625 0 
L 79.890625 32.71875 
Q 79.890625 40.578125 77.09375 44.375 
Q 74.3125 48.1875 68.609375 48.1875 
Q 61.625 48.1875 57.5625 43.546875 
Q 53.515625 38.921875 53.515625 30.90625 
L 53.515625 0 
L 44.484375 0 
L 44.484375 32.71875 
Q 44.484375 40.625 41.703125 44.40625 
Q 38.921875 48.1875 33.109375 48.1875 
Q 26.21875 48.1875 22.15625 43.53125 
Q 18.109375 38.875 18.109375 30.90625 
L 18.109375 0 
L 9.078125 0 
L 9.078125 54.6875 
L 18.109375 54.6875 
L 18.109375 46.1875 
Q 21.1875 51.21875 25.484375 53.609375 
Q 29.78125 56 35.6875 56 
Q 41.65625 56 45.828125 52.96875 
Q 50 49.953125 52 44.1875 
z
" id="DejaVuSans-6d"/>
      <path d="M 48.6875 27.296875 
Q 48.6875 37.203125 44.609375 42.84375 
Q 40.53125 48.484375 33.40625 48.484375 
Q 26.265625 48.484375 22.1875 42.84375 
Q 18.109375 37.203125 18.109375 27.296875 
Q 18.109375 17.390625 22.1875 11.75 
Q 26.265625 6.109375 33.40625 6.109375 
Q 40.53125 6.109375 44.609375 11.75 
Q 48.6875 17.390625 48.6875 27.296875 
z
M 18.109375 46.390625 
Q 20.953125 51.265625 25.265625 53.625 
Q 29.59375 56 35.59375 56 
Q 45.5625 56 51.78125 48.09375 
Q 58.015625 40.1875 58.015625 27.296875 
Q 58.015625 14.40625 51.78125 6.484375 
Q 45.5625 -1.421875 35.59375 -1.421875 
Q 29.59375 -1.421875 25.265625 0.953125 
Q 20.953125 3.328125 18.109375 8.203125 
L 18.109375 0 
L 9.078125 0 
L 9.078125 75.984375 
L 18.109375 75.984375 
z
" id="DejaVuSans-62"/>
     </defs>
     <g transform="translate(187.163906 335.860562)scale(0.1 -0.1)">
      <use xlink:href="#DejaVuSans-47"/>
      <use x="77.490234" xlink:href="#DejaVuSans-65"/>
      <use x="139.013672" xlink:href="#DejaVuSans-6e"/>
      <use x="202.392578" xlink:href="#DejaVuSans-65"/>
      <use x="263.916016" xlink:href="#DejaVuSans-72"/>
      <use x="305.029297" xlink:href="#DejaVuSans-61"/>
      <use x="366.308594" xlink:href="#DejaVuSans-74"/>
      <use x="405.517578" xlink:href="#DejaVuSans-69"/>
      <use x="433.300781" xlink:href="#DejaVuSans-6f"/>
      <use x="494.482422" xlink:href="#DejaVuSans-6e"/>
      <use x="557.861328" xlink:href="#DejaVuSans-20"/>
      <use x="589.648438" xlink:href="#DejaVuSans-6e"/>
      <use x="653.027344" xlink:href="#DejaVuSans-75"/>
      <use x="716.40625" xlink:href="#DejaVuSans-6d"/>
      <use x="813.818359" xlink:href="#DejaVuSans-62"/>
      <use x="877.294922" xlink:href="#DejaVuSans-65"/>
      <use x="938.818359" xlink:href="#DejaVuSans-72"/>
     </g>
    </g>
   </g>
   <g id="matplotlib.axis_2">
    <g id="ytick_1">
     <g id="line2d_9">
      <defs>
       <path d="M 0 0 
L -3.5 0 
" id="maf401256a5" style="stroke:#000000;stroke-width:0.8;"/>
      </defs>
      <g>
       <use style="stroke:#000000;stroke-width:0.8;" x="57.6" xlink:href="#maf401256a5" y="301.946628"/>
      </g>
     </g>
     <g id="text_10">
      <!-- 10000 -->
      <g transform="translate(18.7875 305.745847)scale(0.1 -0.1)">
       <use xlink:href="#DejaVuSans-31"/>
       <use x="63.623047" xlink:href="#DejaVuSans-30"/>
       <use x="127.246094" xlink:href="#DejaVuSans-30"/>
       <use x="190.869141" xlink:href="#DejaVuSans-30"/>
       <use x="254.492188" xlink:href="#DejaVuSans-30"/>
      </g>
     </g>
    </g>
    <g id="ytick_2">
     <g id="line2d_10">
      <g>
       <use style="stroke:#000000;stroke-width:0.8;" x="57.6" xlink:href="#maf401256a5" y="267.810116"/>
      </g>
     </g>
     <g id="text_11">
      <!-- 12500 -->
      <g transform="translate(18.7875 271.609335)scale(0.1 -0.1)">
       <use xlink:href="#DejaVuSans-31"/>
       <use x="63.623047" xlink:href="#DejaVuSans-32"/>
       <use x="127.246094" xlink:href="#DejaVuSans-35"/>
       <use x="190.869141" xlink:href="#DejaVuSans-30"/>
       <use x="254.492188" xlink:href="#DejaVuSans-30"/>
      </g>
     </g>
    </g>
    <g id="ytick_3">
     <g id="line2d_11">
      <g>
       <use style="stroke:#000000;stroke-width:0.8;" x="57.6" xlink:href="#maf401256a5" y="233.673604"/>
      </g>
     </g>
     <g id="text_12">
      <!-- 15000 -->
      <g transform="translate(18.7875 237.472822)scale(0.1 -0.1)">
       <use xlink:href="#DejaVuSans-31"/>
       <use x="63.623047" xlink:href="#DejaVuSans-35"/>
       <use x="127.246094" xlink:href="#DejaVuSans-30"/>
       <use x="190.869141" xlink:href="#DejaVuSans-30"/>
       <use x="254.492188" xlink:href="#DejaVuSans-30"/>
      </g>
     </g>
    </g>
    <g id="ytick_4">
     <g id="line2d_12">
      <g>
       <use style="stroke:#000000;stroke-width:0.8;" x="57.6" xlink:href="#maf401256a5" y="199.537092"/>
      </g>
     </g>
     <g id="text_13">
      <!-- 17500 -->
      <g transform="translate(18.7875 203.33631)scale(0.1 -0.1)">
       <use xlink:href="#DejaVuSans-31"/>
       <use x="63.623047" xlink:href="#DejaVuSans-37"/>
       <use x="127.246094" xlink:href="#DejaVuSans-35"/>
       <use x="190.869141" xlink:href="#DejaVuSans-30"/>
       <use x="254.492188" xlink:href="#DejaVuSans-30"/>
      </g>
     </g>
    </g>
    <g id="ytick_5">
     <g id="line2d_13">
      <g>
       <use style="stroke:#000000;stroke-width:0.8;" x="57.6" xlink:href="#maf401256a5" y="165.400579"/>
      </g>
     </g>
     <g id="text_14">
      <!-- 20000 -->
      <g transform="translate(18.7875 169.199798)scale(0.1 -0.1)">
       <use xlink:href="#DejaVuSans-32"/>
       <use x="63.623047" xlink:href="#DejaVuSans-30"/>
       <use x="127.246094" xlink:href="#DejaVuSans-30"/>
       <use x="190.869141" xlink:href="#DejaVuSans-30"/>
       <use x="254.492188" xlink:href="#DejaVuSans-30"/>
      </g>
     </g>
    </g>
    <g id="ytick_6">
     <g id="line2d_14">
      <g>
       <use style="stroke:#000000;stroke-width:0.8;" x="57.6" xlink:href="#maf401256a5" y="131.264067"/>
      </g>
     </g>
     <g id="text_15">
      <!-- 22500 -->
      <g transform="translate(18.7875 135.063286)scale(0.1 -0.1)">
       <use xlink:href="#DejaVuSans-32"/>
       <use x="63.623047" xlink:href="#DejaVuSans-32"/>
       <use x="127.246094" xlink:href="#DejaVuSans-35"/>
       <use x="190.869141" xlink:href="#DejaVuSans-30"/>
       <use x="254.492188" xlink:href="#DejaVuSans-30"/>
      </g>
     </g>
    </g>
    <g id="ytick_7">
     <g id="line2d_15">
      <g>
       <use style="stroke:#000000;stroke-width:0.8;" x="57.6" xlink:href="#maf401256a5" y="97.127555"/>
      </g>
     </g>
     <g id="text_16">
      <!-- 25000 -->
      <g transform="translate(18.7875 100.926774)scale(0.1 -0.1)">
       <use xlink:href="#DejaVuSans-32"/>
       <use x="63.623047" xlink:href="#DejaVuSans-35"/>
       <use x="127.246094" xlink:href="#DejaVuSans-30"/>
       <use x="190.869141" xlink:href="#DejaVuSans-30"/>
       <use x="254.492188" xlink:href="#DejaVuSans-30"/>
      </g>
     </g>
    </g>
    <g id="ytick_8">
     <g id="line2d_16">
      <g>
       <use style="stroke:#000000;stroke-width:0.8;" x="57.6" xlink:href="#maf401256a5" y="62.991043"/>
      </g>
     </g>
     <g id="text_17">
      <!-- 27500 -->
      <g transform="translate(18.7875 66.790262)scale(0.1 -0.1)">
       <use xlink:href="#DejaVuSans-32"/>
       <use x="63.623047" xlink:href="#DejaVuSans-37"/>
       <use x="127.246094" xlink:href="#DejaVuSans-35"/>
       <use x="190.869141" xlink:href="#DejaVuSans-30"/>
       <use x="254.492188" xlink:href="#DejaVuSans-30"/>
      </g>
     </g>
    </g>
    <g id="text_18">
     <!-- Average fitness -->
     <defs>
      <path d="M 34.1875 63.1875 
L 20.796875 26.90625 
L 47.609375 26.90625 
z
M 28.609375 72.90625 
L 39.796875 72.90625 
L 67.578125 0 
L 57.328125 0 
L 50.6875 18.703125 
L 17.828125 18.703125 
L 11.1875 0 
L 0.78125 0 
z
" id="DejaVuSans-41"/>
      <path d="M 2.984375 54.6875 
L 12.5 54.6875 
L 29.59375 8.796875 
L 46.6875 54.6875 
L 56.203125 54.6875 
L 35.6875 0 
L 23.484375 0 
z
" id="DejaVuSans-76"/>
      <path d="M 45.40625 27.984375 
Q 45.40625 37.75 41.375 43.109375 
Q 37.359375 48.484375 30.078125 48.484375 
Q 22.859375 48.484375 18.828125 43.109375 
Q 14.796875 37.75 14.796875 27.984375 
Q 14.796875 18.265625 18.828125 12.890625 
Q 22.859375 7.515625 30.078125 7.515625 
Q 37.359375 7.515625 41.375 12.890625 
Q 45.40625 18.265625 45.40625 27.984375 
z
M 54.390625 6.78125 
Q 54.390625 -7.171875 48.1875 -13.984375 
Q 42 -20.796875 29.203125 -20.796875 
Q 24.46875 -20.796875 20.265625 -20.09375 
Q 16.0625 -19.390625 12.109375 -17.921875 
L 12.109375 -9.1875 
Q 16.0625 -11.328125 19.921875 -12.34375 
Q 23.78125 -13.375 27.78125 -13.375 
Q 36.625 -13.375 41.015625 -8.765625 
Q 45.40625 -4.15625 45.40625 5.171875 
L 45.40625 9.625 
Q 42.625 4.78125 38.28125 2.390625 
Q 33.9375 0 27.875 0 
Q 17.828125 0 11.671875 7.65625 
Q 5.515625 15.328125 5.515625 27.984375 
Q 5.515625 40.671875 11.671875 48.328125 
Q 17.828125 56 27.875 56 
Q 33.9375 56 38.28125 53.609375 
Q 42.625 51.21875 45.40625 46.390625 
L 45.40625 54.6875 
L 54.390625 54.6875 
z
" id="DejaVuSans-67"/>
      <path d="M 37.109375 75.984375 
L 37.109375 68.5 
L 28.515625 68.5 
Q 23.6875 68.5 21.796875 66.546875 
Q 19.921875 64.59375 19.921875 59.515625 
L 19.921875 54.6875 
L 34.71875 54.6875 
L 34.71875 47.703125 
L 19.921875 47.703125 
L 19.921875 0 
L 10.890625 0 
L 10.890625 47.703125 
L 2.296875 47.703125 
L 2.296875 54.6875 
L 10.890625 54.6875 
L 10.890625 58.5 
Q 10.890625 67.625 15.140625 71.796875 
Q 19.390625 75.984375 28.609375 75.984375 
z
" id="DejaVuSans-66"/>
      <path d="M 44.28125 53.078125 
L 44.28125 44.578125 
Q 40.484375 46.53125 36.375 47.5 
Q 32.28125 48.484375 27.875 48.484375 
Q 21.1875 48.484375 17.84375 46.4375 
Q 14.5 44.390625 14.5 40.28125 
Q 14.5 37.15625 16.890625 35.375 
Q 19.28125 33.59375 26.515625 31.984375 
L 29.59375 31.296875 
Q 39.15625 29.25 43.1875 25.515625 
Q 47.21875 21.78125 47.21875 15.09375 
Q 47.21875 7.46875 41.1875 3.015625 
Q 35.15625 -1.421875 24.609375 -1.421875 
Q 20.21875 -1.421875 15.453125 -0.5625 
Q 10.6875 0.296875 5.421875 2 
L 5.421875 11.28125 
Q 10.40625 8.6875 15.234375 7.390625 
Q 20.0625 6.109375 24.8125 6.109375 
Q 31.15625 6.109375 34.5625 8.28125 
Q 37.984375 10.453125 37.984375 14.40625 
Q 37.984375 18.0625 35.515625 20.015625 
Q 33.0625 21.96875 24.703125 23.78125 
L 21.578125 24.515625 
Q 13.234375 26.265625 9.515625 29.90625 
Q 5.8125 33.546875 5.8125 39.890625 
Q 5.8125 47.609375 11.28125 51.796875 
Q 16.75 56 26.8125 56 
Q 31.78125 56 36.171875 55.265625 
Q 40.578125 54.546875 44.28125 53.078125 
z
" id="DejaVuSans-73"/>
     </defs>
     <g transform="translate(12.707812 213.503781)rotate(-90)scale(0.1 -0.1)">
      <use xlink:href="#DejaVuSans-41"/>
      <use x="68.330078" xlink:href="#DejaVuSans-76"/>
      <use x="127.509766" xlink:href="#DejaVuSans-65"/>
      <use x="189.033203" xlink:href="#DejaVuSans-72"/>
      <use x="230.146484" xlink:href="#DejaVuSans-61"/>
      <use x="291.425781" xlink:href="#DejaVuSans-67"/>
      <use x="354.902344" xlink:href="#DejaVuSans-65"/>
      <use x="416.425781" xlink:href="#DejaVuSans-20"/>
      <use x="448.212891" xlink:href="#DejaVuSans-66"/>
      <use x="483.417969" xlink:href="#DejaVuSans-69"/>
      <use x="511.201172" xlink:href="#DejaVuSans-74"/>
      <use x="550.410156" xlink:href="#DejaVuSans-6e"/>
      <use x="613.789062" xlink:href="#DejaVuSans-65"/>
      <use x="675.3125" xlink:href="#DejaVuSans-73"/>
      <use x="727.412109" xlink:href="#DejaVuSans-73"/>
     </g>
    </g>
   </g>
   <g id="line2d_17">
    <path clip-path="url(#pff5afff139)" d="M 73.832727 55.16832 
L 74.176095 95.906833 
L 74.519463 111.979669 
L 75.034516 124.270179 
L 75.721252 133.500691 
L 76.407988 139.759962 
L 77.438092 147.239955 
L 78.124829 151.43465 
L 78.983249 156.478661 
L 81.043458 165.862105 
L 82.245246 170.134631 
L 82.760298 171.980733 
L 84.992191 178.582735 
L 85.163875 178.379281 
L 85.678927 181.361447 
L 86.537347 184.717749 
L 86.709031 183.932609 
L 87.224083 187.344895 
L 88.082504 191.19959 
L 89.112608 193.761194 
L 89.284292 193.669708 
L 89.62766 195.013321 
L 89.799344 193.137178 
L 90.142712 195.854445 
L 90.657765 198.997735 
L 90.829449 199.892111 
L 91.001133 198.700064 
L 91.344501 201.096447 
L 91.516185 200.383677 
L 92.031237 203.421827 
L 92.546289 205.099978 
L 93.061341 207.00343 
L 93.233025 204.529215 
L 93.576393 206.972024 
L 93.748077 207.783107 
L 93.919762 206.451783 
L 94.434814 209.369773 
L 94.606498 207.989292 
L 94.949866 210.343346 
L 95.12155 210.378848 
L 95.293234 209.156761 
L 95.464918 210.418446 
L 95.636602 209.465355 
L 95.97997 212.694669 
L 97.181759 218.136029 
L 97.353443 218.383177 
L 97.696811 219.373136 
L 98.040179 220.182854 
L 98.383547 220.720846 
L 98.726915 221.518274 
L 98.898599 219.339 
L 99.241967 221.04446 
L 99.413651 218.960767 
L 99.585335 218.28623 
L 100.100387 221.08952 
L 100.61544 223.055783 
L 100.787124 217.674503 
L 101.302176 221.810483 
L 102.33228 226.377948 
L 103.019016 228.174894 
L 103.705753 229.263166 
L 103.877437 229.61409 
L 104.049121 223.671606 
L 104.392489 226.567747 
L 104.564173 226.692004 
L 104.907541 228.486219 
L 105.079225 222.362129 
L 105.422593 226.173129 
L 105.594277 226.144455 
L 106.109329 229.418829 
L 106.452697 230.797944 
L 107.139434 233.240753 
L 107.482802 233.953523 
L 107.654486 227.579554 
L 107.997854 231.057381 
L 108.68459 234.344045 
L 109.199642 235.967577 
L 109.371326 235.411835 
L 109.714694 236.337617 
L 110.058063 237.289343 
L 110.401431 237.920186 
L 110.573115 237.550146 
L 110.744799 237.614323 
L 111.431535 238.906048 
L 111.603219 233.554809 
L 111.774903 235.105972 
L 111.946587 231.832963 
L 112.118271 231.954489 
L 112.805007 236.419545 
L 112.976692 235.876092 
L 113.148376 236.759544 
L 113.32006 236.905649 
L 113.491744 236.377216 
L 114.006796 238.996169 
L 114.17848 235.4132 
L 114.350164 236.883801 
L 114.693532 236.015368 
L 114.865216 236.377216 
L 115.0369 235.052719 
L 115.380268 237.644363 
L 115.89532 240.140425 
L 116.410373 241.890945 
L 116.753741 242.493113 
L 116.925425 239.393518 
L 117.440477 242.174961 
L 117.955529 243.731586 
L 118.127213 243.885883 
L 118.470581 245.001464 
L 118.642265 245.247247 
L 118.813949 245.28548 
L 118.985633 245.68556 
L 119.157317 245.801624 
L 119.329001 246.223551 
L 119.67237 246.498009 
L 119.844054 246.72331 
L 120.015738 239.845485 
L 120.359106 242.837209 
L 120.53079 243.171747 
L 120.702474 239.303397 
L 121.045842 242.288294 
L 121.560894 244.971424 
L 122.762683 247.826602 
L 122.934367 247.993188 
L 123.277735 248.572143 
L 123.621103 248.96403 
L 123.964471 249.260335 
L 124.136155 249.54162 
L 124.307839 238.662996 
L 124.651207 243.253675 
L 124.994575 245.961383 
L 125.166259 245.950459 
L 125.509627 247.590377 
L 125.681311 242.082109 
L 126.02468 245.356484 
L 126.368048 247.347325 
L 127.054784 249.848849 
L 127.226468 243.43255 
L 127.398152 243.3001 
L 127.74152 246.390137 
L 128.256572 248.559854 
L 128.428256 242.11215 
L 128.943308 247.489333 
L 129.630045 250.561619 
L 129.801729 244.90042 
L 130.145097 248.215758 
L 130.316781 247.09608 
L 130.831833 250.117844 
L 131.346885 251.976236 
L 131.518569 252.458244 
L 131.690253 252.336718 
L 132.033621 253.05495 
L 132.205306 253.251576 
L 132.37699 253.751335 
L 132.548674 249.129251 
L 133.407094 253.203785 
L 133.922146 254.626595 
L 134.09383 254.839607 
L 134.265514 252.392702 
L 134.608882 253.674869 
L 134.780566 248.524352 
L 135.123934 251.554309 
L 135.295618 247.470217 
L 135.467303 249.33407 
L 135.638987 245.439777 
L 135.982355 249.426921 
L 136.325723 251.871096 
L 136.669091 253.422259 
L 137.012459 254.408121 
L 137.355827 255.369405 
L 137.527511 255.168683 
L 137.699195 255.810449 
L 137.870879 255.998883 
L 138.214247 256.654304 
L 138.7293 257.491331 
L 139.072668 257.920086 
L 139.416036 258.344744 
L 139.58772 258.328358 
L 139.931088 258.692936 
L 140.789508 259.342895 
L 140.961192 259.301932 
L 141.132876 259.722493 
L 141.476244 259.930043 
L 141.647928 256.965629 
L 141.991297 258.40619 
L 142.162981 248.446521 
L 142.506349 253.109568 
L 142.678033 254.399928 
L 142.849717 253.113665 
L 143.364769 256.119043 
L 144.051505 258.414382 
L 144.394873 259.03157 
L 144.566557 255.736714 
L 145.08161 258.195909 
L 145.768346 259.77165 
L 146.283398 260.574541 
L 146.79845 261.294138 
L 147.141818 261.617753 
L 147.313502 259.510847 
L 147.828554 261.018315 
L 148.000238 259.247313 
L 148.343607 260.562252 
L 149.545395 262.528515 
L 149.888763 262.685543 
L 150.060447 258.593258 
L 150.232131 259.486269 
L 150.403815 251.103707 
L 150.747183 255.200088 
L 151.262235 258.818559 
L 151.605604 259.811248 
L 151.948972 260.720645 
L 152.120656 259.584582 
L 152.29234 260.242734 
L 152.464024 255.155028 
L 152.807392 257.840889 
L 153.15076 259.512213 
L 153.494128 260.731569 
L 153.665812 255.466353 
L 154.00918 258.743458 
L 154.695917 261.642331 
L 155.210969 253.818242 
L 155.726021 258.725707 
L 156.069389 260.208597 
L 156.241073 253.893343 
L 156.927809 259.88908 
L 157.614545 262.320965 
L 157.78623 256.433099 
L 158.129598 259.940967 
L 158.301282 260.928195 
L 158.472966 254.621133 
L 158.816334 258.707956 
L 158.988018 258.961932 
L 159.331386 261.344661 
L 159.50307 262.211728 
L 159.674754 261.41703 
L 160.189806 263.541686 
L 160.876542 265.22803 
L 161.048227 265.576223 
L 161.219911 265.271725 
L 161.391595 265.368673 
L 162.078331 266.577105 
L 162.250015 266.780559 
L 162.421699 264.083774 
L 162.593383 264.141124 
L 162.936751 265.341363 
L 163.108435 261.946829 
L 163.280119 261.358315 
L 163.451803 262.738796 
L 163.623487 262.234941 
L 163.966855 263.951325 
L 164.138539 260.035184 
L 164.653592 263.455662 
L 164.825276 258.135828 
L 164.99696 256.96836 
L 165.340328 260.656468 
L 165.683696 262.778394 
L 166.027064 264.162971 
L 166.198748 258.653338 
L 166.885484 263.584016 
L 167.400537 265.521604 
L 167.915589 266.612607 
L 168.087273 267.029073 
L 168.258957 262.927229 
L 168.430641 264.365059 
L 168.602325 259.068438 
L 168.945693 262.72241 
L 169.117377 259.245948 
L 169.460745 262.637752 
L 170.147481 265.877989 
L 170.834218 267.73365 
L 171.177586 267.863369 
L 171.34927 268.289393 
L 171.520954 268.324895 
L 172.20769 269.219271 
L 172.551058 269.316219 
L 172.722742 266.769635 
L 173.237794 268.50377 
L 173.409478 261.004661 
L 173.752846 264.654537 
L 174.096215 266.788751 
L 174.611267 268.511963 
L 175.126319 269.658949 
L 175.298003 269.772283 
L 175.813055 270.607944 
L 175.984739 270.627061 
L 176.328107 271.00939 
L 176.499791 271.021679 
L 176.843159 271.413566 
L 177.014844 271.380795 
L 178.56 272.273806 
L 178.731684 270.388105 
L 179.075052 271.286578 
L 179.246736 271.343928 
L 179.41842 271.670273 
L 179.590104 267.128751 
L 179.933472 269.088187 
L 180.105156 260.797111 
L 180.448525 265.064175 
L 180.791893 267.347225 
L 181.306945 269.480074 
L 181.478629 269.698548 
L 181.821997 270.687141 
L 181.993681 270.717181 
L 182.508733 271.513245 
L 182.680417 271.495494 
L 183.023785 272.013003 
L 183.195469 262.533977 
L 183.367154 261.882652 
L 183.538838 263.926746 
L 183.710522 262.046507 
L 184.05389 265.783773 
L 184.397258 268.191079 
L 184.568942 263.609959 
L 184.740626 265.488833 
L 184.91231 264.020963 
L 185.255678 267.131482 
L 185.77073 269.76409 
L 186.629151 271.711237 
L 186.800835 271.842321 
L 187.144203 272.503204 
L 187.487571 272.717581 
L 187.659255 273.173645 
L 188.002623 273.134046 
L 188.345991 273.54505 
L 188.689359 264.897589 
L 188.861043 266.74096 
L 189.032727 264.982247 
L 189.376095 267.943931 
L 189.719463 269.518307 
L 190.062832 270.999832 
L 190.234516 270.982081 
L 190.4062 271.552843 
L 190.749568 271.888746 
L 190.921252 272.124971 
L 191.092936 269.380395 
L 191.26462 262.934057 
L 191.607988 266.97855 
L 191.951356 269.460958 
L 192.12304 266.594856 
L 192.294724 265.731885 
L 192.638092 268.712685 
L 192.981461 270.497342 
L 193.324829 271.656618 
L 193.496513 272.126337 
L 193.668197 271.623847 
L 193.839881 272.355734 
L 194.183249 271.611558 
L 194.354933 272.332521 
L 194.526617 268.283931 
L 194.869985 270.840073 
L 195.041669 267.721361 
L 195.385037 270.322563 
L 195.900089 272.503204 
L 196.071773 272.822721 
L 196.243458 272.497742 
L 196.586826 273.628343 
L 197.445246 275.025209 
L 197.61693 275.189064 
L 197.788614 267.283048 
L 197.960298 269.459592 
L 198.131982 265.16795 
L 198.47535 268.97895 
L 199.162086 272.373485 
L 199.677139 273.793564 
L 199.848823 272.886898 
L 200.363875 274.222318 
L 200.535559 274.596455 
L 200.878927 269.89927 
L 201.050611 271.375333 
L 201.222295 270.908346 
L 201.565663 272.885533 
L 202.080715 274.603282 
L 202.767452 275.818542 
L 202.939136 276.043843 
L 203.11082 275.056615 
L 203.282504 272.938786 
L 203.625872 274.705691 
L 203.797556 272.178224 
L 203.96924 267.964413 
L 204.140924 267.639433 
L 204.484292 270.607944 
L 204.999344 273.222801 
L 205.68608 274.91051 
L 205.857765 275.101675 
L 206.029449 275.459426 
L 206.372817 275.78304 
L 207.059553 276.476694 
L 207.917973 276.976452 
L 208.261341 277.119826 
L 208.433025 277.248179 
L 208.604709 277.233159 
L 208.776393 277.513078 
L 208.948077 277.500789 
L 209.119762 275.05798 
L 209.291446 267.73365 
L 209.634814 271.61702 
L 209.806498 272.32979 
L 210.149866 274.171796 
L 210.32155 272.731236 
L 210.836602 274.970591 
L 211.695022 276.823521 
L 211.866706 273.999748 
L 212.03839 274.840872 
L 212.210075 271.432683 
L 212.381759 272.9975 
L 212.553443 273.428986 
L 213.068495 275.608261 
L 213.240179 271.113165 
L 213.411863 270.468667 
L 213.755231 273.140874 
L 214.270283 275.572759 
L 214.785335 276.977818 
L 214.957019 277.051553 
L 215.300387 277.615488 
L 215.472072 277.752034 
L 215.643756 278.057897 
L 215.81544 278.048339 
L 216.158808 278.433399 
L 216.330492 278.415648 
L 216.67386 278.744724 
L 216.845544 276.913641 
L 217.188912 277.773881 
L 217.360596 268.693569 
L 217.53228 271.185534 
L 217.703964 269.787303 
L 218.047332 272.945613 
L 218.219016 270.306178 
L 218.562385 273.771716 
L 218.734069 274.95284 
L 218.905753 274.783523 
L 219.077437 275.656052 
L 219.249121 274.358864 
L 219.764173 276.614605 
L 219.935857 270.646177 
L 220.279225 273.96015 
L 220.622593 270.632523 
L 220.965961 273.725291 
L 221.137645 274.813563 
L 221.309329 268.954372 
L 221.652697 272.863685 
L 222.16775 275.925048 
L 222.854486 277.884483 
L 223.02617 278.347375 
L 223.369538 278.720145 
L 223.712906 279.267695 
L 223.88459 279.357815 
L 224.227958 279.666409 
L 224.399642 279.680064 
L 224.914694 280.197573 
L 225.086379 278.213559 
L 225.429747 279.323679 
L 225.601431 275.034767 
L 225.773115 276.402959 
L 225.944799 275.747538 
L 226.116483 276.722477 
L 226.288167 276.329224 
L 226.803219 278.359664 
L 227.146587 279.047856 
L 227.489955 279.557172 
L 227.833323 280.011871 
L 228.005007 273.640632 
L 228.348376 276.635087 
L 228.691744 277.832596 
L 228.863428 272.886898 
L 229.035112 271.901036 
L 229.37848 275.340631 
L 229.893532 277.660548 
L 230.065216 271.188265 
L 230.408584 275.219105 
L 230.923636 278.06609 
L 231.09532 278.3938 
L 231.438689 279.314121 
L 231.610373 279.502554 
L 231.782057 278.731069 
L 232.125425 279.872594 
L 232.297109 280.092433 
L 232.468793 280.540304 
L 232.640477 280.55942 
L 232.812161 280.889862 
L 232.983845 271.86963 
L 233.327213 275.99059 
L 233.498897 277.26593 
L 233.670581 273.072601 
L 234.185633 277.234524 
L 234.529001 278.544001 
L 234.700686 275.904566 
L 235.215738 278.787053 
L 235.387422 277.85854 
L 235.902474 280.048738 
L 236.760894 281.59444 
L 237.104262 281.720062 
L 237.275946 281.763757 
L 237.790999 282.339981 
L 237.962683 282.180222 
L 238.306051 282.449218 
L 238.649419 282.607611 
L 239.507839 283.018615 
L 240.881311 283.320382 
L 241.052996 283.562068 
L 241.396364 275.466253 
L 241.739732 278.284563 
L 242.254784 280.242634 
L 242.426468 280.720545 
L 242.598152 280.85436 
L 242.94152 281.707773 
L 243.113204 274.173162 
L 243.456572 277.664644 
L 243.79994 279.764722 
L 244.143308 280.907613 
L 244.486677 281.842953 
L 244.658361 281.782873 
L 245.001729 282.431467 
L 245.173413 282.481989 
L 245.516781 282.999498 
L 245.860149 283.149699 
L 246.031833 283.459659 
L 246.546885 283.56753 
L 246.890253 283.899337 
L 247.061937 282.338616 
L 247.233621 282.700463 
L 247.405306 281.830664 
L 247.57699 279.243117 
L 247.748674 279.544883 
L 248.263726 281.695484 
L 248.778778 282.651306 
L 249.29383 283.517008 
L 249.465514 283.339498 
L 249.980566 283.919819 
L 250.323934 284.2052 
L 250.667303 284.227047 
L 251.010671 275.407538 
L 251.182355 276.913641 
L 251.354039 274.114447 
L 251.869091 279.08882 
L 252.040775 279.703277 
L 252.212459 275.702478 
L 252.555827 279.151631 
L 252.727511 275.478542 
L 253.242563 280.103357 
L 253.9293 282.158375 
L 254.100984 274.141756 
L 254.272668 276.404324 
L 254.444352 275.993321 
L 254.78772 279.047856 
L 255.302772 281.176609 
L 255.64614 282.103756 
L 255.817824 276.173561 
L 255.989508 278.031953 
L 256.161192 277.339665 
L 256.332876 278.903117 
L 256.50456 277.88858 
L 256.847928 280.357332 
L 257.191297 281.741909 
L 257.362981 276.374284 
L 257.706349 279.656851 
L 257.878033 275.793963 
L 258.221401 279.279984 
L 258.564769 281.079661 
L 259.079821 282.488816 
L 259.423189 282.9599 
L 259.594873 283.078695 
L 259.938241 283.713634 
L 260.109925 281.509781 
L 260.28161 282.24713 
L 260.453294 277.678299 
L 260.624978 277.231793 
L 260.968346 279.779743 
L 261.483398 281.814279 
L 262.170134 283.275321 
L 262.341818 283.323113 
L 262.685186 283.725923 
L 262.85687 283.928012 
L 263.028554 283.926646 
L 263.543607 284.468734 
L 263.715291 277.950026 
L 264.058659 280.907613 
L 264.230343 276.792115 
L 264.402027 275.762558 
L 264.745395 279.207615 
L 265.088763 281.283115 
L 265.603815 282.740061 
L 266.118867 278.597254 
L 266.290551 278.321431 
L 266.462235 279.808417 
L 266.63392 279.512112 
L 267.148972 282.15974 
L 267.664024 283.324478 
L 268.522444 284.621665 
L 268.865812 284.935721 
L 269.037496 285.044958 
L 269.20918 283.207048 
L 269.895917 285.001263 
L 270.926021 285.860138 
L 271.097705 284.188814 
L 271.956125 285.563833 
L 272.299493 279.645927 
L 272.642861 282.537973 
L 273.329598 284.845601 
L 273.84465 285.573391 
L 274.016334 285.91066 
L 274.188018 285.928411 
L 274.359702 286.186483 
L 274.531386 286.183752 
L 274.874754 286.556523 
L 275.218122 286.663029 
L 276.591595 287.048089 
L 276.763279 287.23106 
L 276.934963 282.238937 
L 277.106647 283.388655 
L 277.278331 277.309625 
L 277.621699 280.813396 
L 277.793383 282.184318 
L 277.965067 276.916372 
L 278.308435 280.623597 
L 278.480119 279.140707 
L 278.651803 280.73693 
L 278.823487 278.812997 
L 279.166855 281.941267 
L 279.510224 283.530663 
L 279.681908 278.442957 
L 279.853592 280.304079 
L 280.025276 280.025525 
L 280.19696 281.483837 
L 280.540328 282.710021 
L 281.05538 284.730902 
L 281.227064 285.267528 
L 281.398748 285.398612 
L 282.085484 286.316202 
L 282.772221 286.907446 
L 282.943905 286.988008 
L 283.115589 285.969375 
L 283.802325 286.878772 
L 283.974009 287.045358 
L 284.317377 287.030338 
L 284.832429 287.579253 
L 285.004113 281.229862 
L 285.519165 284.760942 
L 285.862534 285.722227 
L 286.034218 286.301182 
L 286.205902 279.081992 
L 286.54927 282.436929 
L 287.064322 284.830581 
L 287.40769 285.731785 
L 287.579374 285.498291 
L 288.094426 286.361262 
L 288.26611 283.650823 
L 288.437794 283.488333 
L 288.609478 279.383759 
L 289.124531 283.481506 
L 289.639583 285.319416 
L 289.811267 285.552909 
L 289.982951 282.867049 
L 290.326319 284.610742 
L 290.498003 285.120059 
L 290.669687 281.709138 
L 291.356423 285.084557 
L 291.699791 285.674435 
L 292.043159 284.355401 
L 292.729896 286.224716 
L 292.90158 285.223834 
L 293.073264 285.67307 
L 293.244948 285.193793 
L 293.76 286.683511 
L 293.931684 286.757246 
L 294.446736 287.347125 
L 295.305156 288.062626 
L 295.476841 288.014835 
L 295.820209 288.46134 
L 296.163577 280.043276 
L 296.335261 279.10384 
L 296.678629 282.398696 
L 297.193681 284.694035 
L 297.365365 280.593557 
L 297.708733 283.814678 
L 297.880417 280.532111 
L 298.223785 283.604397 
L 298.395469 280.660465 
L 298.738838 283.705441 
L 298.910522 280.003678 
L 299.25389 283.200221 
L 299.425574 284.328091 
L 299.597258 283.851546 
L 300.283994 286.512828 
L 300.455678 286.862386 
L 300.627362 282.700463 
L 300.799046 283.988092 
L 300.97073 282.89982 
L 301.142414 283.963513 
L 301.314098 279.289542 
L 301.657466 282.805603 
L 301.829151 280.033718 
L 302.172519 283.104639 
L 302.515887 285.036765 
L 303.030939 286.495077 
L 303.202623 280.047373 
L 303.717675 284.616204 
L 304.061043 286.055399 
L 304.919463 287.972505 
L 305.6062 288.540537 
L 305.777884 282.817892 
L 305.949568 280.98681 
L 306.46462 284.790983 
L 306.807988 286.021262 
L 307.32304 287.23106 
L 307.666408 287.647526 
L 308.181461 288.25379 
L 308.353145 283.095081 
L 308.696513 285.513311 
L 308.868197 286.632989 
L 309.039881 286.926563 
L 309.383249 288.020297 
L 309.554933 288.089935 
L 309.726617 288.434031 
L 309.898301 283.319016 
L 310.069985 284.212027 
L 310.241669 282.192511 
L 310.585037 285.032669 
L 310.928405 286.499174 
L 311.271773 287.329374 
L 311.443458 287.549213 
L 311.615142 280.548497 
L 312.130194 285.3754 
L 312.645246 287.468651 
L 313.331982 288.850497 
L 313.67535 289.103107 
L 314.190402 289.55644 
L 314.362086 289.617885 
L 314.705455 284.038614 
L 315.048823 286.391302 
L 315.220507 284.531545 
L 315.392191 285.841022 
L 315.563875 285.89564 
L 315.907243 287.491863 
L 316.078927 283.888413 
L 316.250611 285.326243 
L 316.422295 283.545683 
L 316.937347 286.57837 
L 317.109031 283.600301 
L 317.624083 286.930659 
L 317.967452 287.752666 
L 318.139136 285.685359 
L 318.482504 287.64343 
L 318.825872 288.464071 
L 318.997556 288.705758 
L 319.16924 289.165918 
L 319.340924 289.236922 
L 319.512608 289.61652 
L 319.684292 289.660215 
L 320.02766 290.114913 
L 320.199344 290.067122 
L 320.371028 289.683427 
L 320.542712 289.836359 
L 320.714396 290.292423 
L 320.88608 290.213226 
L 321.057765 290.441258 
L 321.229449 290.450816 
L 321.401133 290.300616 
L 321.744501 282.868414 
L 321.916185 284.919336 
L 322.087869 281.427853 
L 322.431237 284.889296 
L 322.774605 286.723109 
L 323.117973 287.946562 
L 323.289657 287.97114 
L 323.976393 289.352986 
L 325.864918 290.598286 
L 326.036602 288.309774 
L 326.208286 288.862786 
L 326.551654 280.325927 
L 326.723338 282.886165 
L 326.895022 281.46199 
L 327.066706 281.197091 
L 327.410075 284.875641 
L 327.753443 286.880137 
L 327.925127 287.344394 
L 328.096811 284.410019 
L 328.268495 285.74817 
L 328.440179 282.146086 
L 328.611863 283.245281 
L 328.783547 283.216607 
L 329.298599 286.944314 
L 329.813651 288.588328 
L 330.328703 289.368006 
L 331.187124 290.297885 
L 331.358808 284.1301 
L 331.87386 287.885116 
L 332.045544 285.652588 
L 332.560596 288.457244 
L 332.903964 289.51411 
L 333.075648 284.939818 
L 333.419016 287.590177 
L 333.5907 288.4313 
L 333.762385 288.716681 
L 333.934069 287.471381 
L 334.449121 289.490898 
L 334.620805 289.597403 
L 334.964173 290.162704 
L 335.307541 290.561419 
L 335.479225 290.622864 
L 335.994277 291.263265 
L 336.165961 288.701661 
L 336.509329 289.48407 
L 336.681013 286.306644 
L 337.196066 289.153629 
L 337.36775 289.687524 
L 337.539434 285.34536 
L 338.054486 288.783589 
L 338.569538 290.184551 
L 338.741222 290.322463 
L 339.08459 290.796278 
L 339.427958 291.282382 
L 339.771326 291.431217 
L 340.286379 291.802622 
L 340.629747 291.981497 
L 340.801431 292.078445 
L 341.144799 285.166484 
L 341.659851 288.571943 
L 342.003219 289.66158 
L 342.346587 285.428653 
L 342.689955 287.885116 
L 343.033323 289.279251 
L 343.205007 289.299733 
L 343.548376 290.176359 
L 343.72006 287.995718 
L 343.891744 288.727605 
L 344.063428 286.510097 
L 344.406796 288.626561 
L 344.57848 289.332504 
L 344.750164 286.794113 
L 345.093532 288.96383 
L 345.608584 290.611941 
L 345.780268 290.682945 
L 345.951952 291.06937 
L 346.123636 291.119892 
L 346.467004 291.575956 
L 346.638689 289.729853 
L 346.982057 290.81676 
L 347.325425 291.305595 
L 347.497109 288.29612 
L 348.183845 291.033868 
L 348.355529 288.480457 
L 348.870581 290.68431 
L 349.213949 291.268727 
L 349.385633 288.151381 
L 349.557317 289.239653 
L 349.729001 285.529697 
L 349.900686 286.495077 
L 350.07237 284.246164 
L 350.415738 287.237888 
L 350.759106 289.06897 
L 350.93079 289.54142 
L 351.102474 286.320298 
L 351.617526 289.391219 
L 351.78921 289.647925 
L 351.960894 290.304712 
L 352.132578 288.954272 
L 352.304262 289.320215 
L 352.64763 290.577804 
L 352.990999 291.218205 
L 353.334367 291.636036 
L 353.506051 292.082542 
L 353.677735 292.036116 
L 353.849419 292.456678 
L 354.021103 288.802705 
L 354.364471 290.516358 
L 354.536155 288.449051 
L 354.879523 289.926479 
L 355.222891 290.93692 
L 355.394575 291.388888 
L 355.566259 291.175876 
L 356.081311 292.309208 
L 356.252996 292.331055 
L 356.596364 292.788485 
L 356.768048 287.740377 
L 356.939732 288.858689 
L 357.111416 285.660781 
L 357.626468 289.807684 
L 357.798152 290.12174 
L 357.969836 290.900053 
L 358.14152 290.794912 
L 358.656572 291.821739 
L 358.828256 291.834028 
L 359.171624 292.453947 
L 359.343308 292.489449 
L 359.686677 292.974187 
L 359.858361 291.220936 
L 360.201729 292.153545 
L 360.373413 286.896523 
L 360.545097 288.361662 
L 360.716781 287.830498 
L 360.888465 286.856924 
L 361.231833 289.647925 
L 361.403517 290.413949 
L 361.575201 287.385357 
L 362.261937 290.945113 
L 362.433621 287.093149 
L 362.77699 289.697082 
L 363.292042 291.674269 
L 363.978778 292.668324 
L 364.150462 288.679814 
L 364.322146 288.410818 
L 364.665514 290.60921 
L 365.008882 291.704309 
L 365.523934 292.580935 
L 365.867303 292.912742 
L 366.210671 293.423424 
L 366.382355 293.39748 
L 366.554039 290.572342 
L 367.069091 292.365192 
L 367.755827 293.463022 
L 368.099195 291.870895 
L 368.614247 293.015151 
L 368.957615 293.454829 
L 369.1293 293.818042 
L 369.300984 293.685592 
L 369.816036 294.106154 
L 370.331088 294.25772 
L 370.502772 287.822305 
L 370.674456 288.974753 
L 370.84614 288.137726 
L 371.361192 291.347924 
L 371.70456 292.266879 
L 371.876244 292.818525 
L 372.047928 292.970091 
L 372.391297 293.460291 
L 373.593085 294.265913 
L 374.108137 294.45025 
L 374.623189 294.700129 
L 375.309925 294.933623 
L 375.48161 288.881902 
L 375.824978 291.200454 
L 375.996662 292.149449 
L 376.168346 289.372102 
L 376.511714 291.577321 
L 377.026766 293.09981 
L 377.19845 293.035633 
L 377.541818 293.741576 
L 377.885186 293.87266 
L 378.05687 293.966877 
L 378.228554 288.102224 
L 378.571923 291.234591 
L 378.743607 292.000614 
L 378.915291 288.156843 
L 379.086975 289.61652 
L 379.258659 289.434914 
L 379.602027 291.27692 
L 379.945395 292.298284 
L 380.288763 293.148966 
L 380.632131 293.484869 
L 380.803815 293.525833 
L 381.147183 293.841255 
L 381.318867 293.879488 
L 381.83392 294.354668 
L 382.005604 289.923749 
L 382.348972 291.881819 
L 382.69234 293.01242 
L 382.864024 291.421659 
L 383.207392 292.822621 
L 383.894128 294.119809 
L 384.065812 294.1676 
L 384.237496 293.008324 
L 384.40918 293.166717 
L 384.580864 291.297402 
L 384.752548 291.859971 
L 384.924232 291.377964 
L 385.095917 292.280533 
L 385.267601 292.473063 
L 385.610969 293.428886 
L 385.954337 293.738845 
L 386.297705 289.150898 
L 386.641073 291.566397 
L 387.499493 293.849447 
L 387.671177 292.514027 
L 388.18623 294.05017 
L 388.529598 294.3178 
L 388.872966 294.764306 
L 389.216334 294.906314 
L 389.388018 291.541819 
L 389.731386 293.277319 
L 389.90307 293.554508 
L 390.074754 288.932424 
L 390.246438 290.480856 
L 390.418122 290.868647 
L 390.76149 292.421176 
L 390.933174 292.914107 
L 391.104858 290.905515 
L 391.276542 291.655152 
L 391.448227 291.728887 
L 391.791595 292.976918 
L 392.134963 293.676034 
L 392.306647 294.088403 
L 392.478331 294.052901 
L 392.993383 294.783422 
L 393.165067 294.779326 
L 393.508435 294.939085 
L 393.851803 295.22037 
L 394.023487 295.329607 
L 394.366855 295.225832 
L 394.538539 295.488 
L 394.710224 292.653304 
L 394.881908 291.996518 
L 395.39696 293.682861 
L 395.740328 294.380612 
L 395.912012 294.633222 
L 396.083696 291.073466 
L 396.25538 292.096196 
L 396.427064 288.59379 
L 396.770432 291.357482 
L 397.1138 292.751617 
L 397.457168 293.004227 
L 397.628852 293.510813 
L 397.800537 293.125753 
L 398.143905 294.011937 
L 398.487273 294.351937 
L 398.487273 294.351937 
" style="fill:none;stroke:#1f77b4;stroke-linecap:square;stroke-width:1.5;"/>
   </g>
   <g id="line2d_18">
    <path clip-path="url(#pff5afff139)" d="M 73.832727 53.568 
L 74.176095 95.478079 
L 74.519463 111.003364 
L 75.034516 123.386726 
L 75.549568 131.086557 
L 76.407988 139.579722 
L 77.266408 146.914975 
L 78.296513 154.164205 
L 78.811565 157.838659 
L 79.326617 161.476246 
L 80.013353 165.399214 
L 81.901878 185.199756 
L 82.073562 185.868832 
L 82.41693 189.170516 
L 82.588614 188.710355 
L 83.103666 194.349707 
L 83.962086 199.997252 
L 84.13377 200.80697 
L 84.305455 201.017251 
L 84.648823 202.932992 
L 84.992191 204.092268 
L 85.163875 203.016285 
L 85.678927 205.931543 
L 86.022295 207.312024 
L 86.365663 206.632024 
L 87.052399 209.440776 
L 87.224083 208.558689 
L 87.567452 210.440294 
L 87.91082 207.892344 
L 88.254188 211.012421 
L 88.76924 213.462058 
L 89.112608 212.235874 
L 89.455976 214.299085 
L 89.62766 214.514828 
L 89.971028 216.597155 
L 90.314396 215.571694 
L 90.48608 215.719164 
L 90.657765 215.014586 
L 90.829449 216.720046 
L 91.001133 214.976353 
L 91.516185 218.80647 
L 92.031237 221.673937 
L 92.202921 217.356351 
L 92.374605 216.972657 
L 92.546289 217.589845 
L 92.889657 220.49691 
L 93.061341 218.661731 
L 93.576393 223.012088 
L 94.26313 226.611442 
L 94.606498 227.452566 
L 94.778182 226.743892 
L 94.949866 227.404775 
L 95.12155 223.074899 
L 95.293234 223.19506 
L 95.636602 225.994254 
L 95.808286 224.978351 
L 96.323338 228.897223 
L 96.666706 230.604049 
L 96.83839 224.691605 
L 97.353443 228.469834 
L 97.525127 225.314255 
L 98.040179 230.135696 
L 98.726915 233.833363 
L 99.413651 235.959385 
L 99.928703 237.263399 
L 100.272072 237.965246 
L 100.787124 238.725808 
L 100.958808 231.445172 
L 101.47386 236.029023 
L 101.817228 235.301233 
L 102.160596 236.875609 
L 102.503964 238.639784 
L 102.675648 238.534643 
L 102.847332 236.796412 
L 103.1907 238.940185 
L 103.705753 240.707091 
L 104.907541 243.114398 
L 105.765961 244.165802 
L 105.937645 235.896573 
L 106.109329 233.868865 
L 106.452697 236.891994 
L 106.624382 238.245165 
L 106.796066 234.977619 
L 107.139434 238.899221 
L 107.311118 240.007975 
L 107.482802 234.737297 
L 107.654486 236.987576 
L 107.82617 237.200588 
L 107.997854 235.766855 
L 108.341222 239.199622 
L 108.856274 242.64741 
L 109.027958 242.723876 
L 109.199642 237.360347 
L 109.371326 238.40629 
L 109.54301 237.337134 
L 110.058063 242.27737 
L 110.916483 246.242668 
L 111.603219 247.944031 
L 112.118271 248.831581 
L 112.289955 242.560021 
L 112.461639 244.503071 
L 112.633323 245.04789 
L 112.976692 247.09608 
L 113.148376 240.405324 
L 113.491744 244.419778 
L 114.006796 247.365076 
L 114.693532 249.929411 
L 115.723636 252.071818 
L 115.89532 245.49303 
L 116.067004 244.268212 
L 116.410373 247.158892 
L 116.753741 249.029572 
L 116.925425 249.422825 
L 117.268793 250.893426 
L 117.440477 251.152863 
L 117.783845 251.918887 
L 118.642265 252.974388 
L 118.813949 253.418162 
L 118.985633 253.423624 
L 119.157317 253.73768 
L 119.329001 252.055433 
L 119.500686 252.480091 
L 119.67237 252.080011 
L 119.844054 248.869814 
L 120.359106 251.828766 
L 121.217526 253.799126 
L 121.38921 249.988126 
L 121.904262 252.863785 
L 122.762683 255.048522 
L 123.621103 256.009806 
L 123.792787 250.583466 
L 124.136155 249.458327 
L 124.479523 252.118244 
L 124.822891 253.461857 
L 125.166259 254.842338 
L 126.196364 257.035267 
L 126.368048 254.819125 
L 126.539732 249.682262 
L 127.054784 253.901535 
L 127.569836 255.916955 
L 128.084888 257.376632 
L 129.458361 259.263699 
L 129.630045 259.225466 
L 129.801729 259.304663 
L 130.145097 259.820807 
L 130.316781 255.944264 
L 130.660149 257.733018 
L 131.175201 259.408438 
L 131.690253 260.371087 
L 132.033621 260.835344 
L 132.205306 255.84322 
L 132.37699 257.036633 
L 132.548674 252.093666 
L 132.892042 255.551012 
L 133.407094 257.597837 
L 133.578778 250.336318 
L 133.750462 252.927962 
L 133.922146 252.409087 
L 134.265514 255.587879 
L 134.780566 258.260085 
L 136.325723 261.399279 
L 136.840775 262.117511 
L 137.184143 255.186434 
L 137.699195 258.878639 
L 138.7293 261.642331 
L 138.900984 261.661447 
L 139.416036 262.604981 
L 139.58772 262.604981 
L 139.931088 263.073333 
L 140.102772 263.215341 
L 140.274456 259.689722 
L 140.789508 262.03968 
L 140.961192 260.698798 
L 141.30456 262.14482 
L 141.476244 259.491731 
L 141.991297 262.176226 
L 142.162981 261.298235 
L 142.506349 262.564017 
L 142.849717 263.218072 
L 143.193085 264.146585 
L 143.536453 264.471565 
L 144.051505 265.12289 
L 144.223189 262.513495 
L 145.08161 265.042328 
L 145.253294 264.384176 
L 145.424978 259.434381 
L 146.111714 263.388755 
L 146.283398 259.331972 
L 146.455082 259.894541 
L 146.79845 261.896307 
L 147.65687 264.276304 
L 148.171923 265.299034 
L 149.030343 266.170198 
L 149.373711 260.595023 
L 149.545395 261.615022 
L 149.717079 256.146352 
L 150.060447 260.044742 
L 150.747183 263.23992 
L 151.090551 264.497509 
L 151.262235 265.015018 
L 151.43392 259.927313 
L 151.605604 258.174061 
L 152.120656 262.240403 
L 152.635708 264.194377 
L 152.807392 264.403292 
L 153.322444 265.651323 
L 153.494128 265.671805 
L 153.837496 266.227547 
L 154.352548 266.846101 
L 154.524232 266.945779 
L 154.695917 258.845868 
L 155.039285 262.498475 
L 155.382653 264.759677 
L 155.726021 266.093732 
L 156.412757 267.784172 
L 156.756125 268.288027 
L 157.099493 268.879271 
L 157.442861 269.119593 
L 157.614545 269.287544 
L 157.78623 262.0547 
L 157.957914 263.831164 
L 158.129598 260.745223 
L 158.64465 264.436063 
L 158.816334 264.179356 
L 158.988018 264.964496 
L 158.988018 264.964496 
" style="fill:none;stroke:#ff7f0e;stroke-linecap:square;stroke-width:1.5;"/>
   </g>
   <g id="patch_3">
    <path d="M 57.6 307.584 
L 57.6 41.472 
" style="fill:none;stroke:#000000;stroke-linecap:square;stroke-linejoin:miter;stroke-width:0.8;"/>
   </g>
   <g id="patch_4">
    <path d="M 414.72 307.584 
L 414.72 41.472 
" style="fill:none;stroke:#000000;stroke-linecap:square;stroke-linejoin:miter;stroke-width:0.8;"/>
   </g>
   <g id="patch_5">
    <path d="M 57.6 307.584 
L 414.72 307.584 
" style="fill:none;stroke:#000000;stroke-linecap:square;stroke-linejoin:miter;stroke-width:0.8;"/>
   </g>
   <g id="patch_6">
    <path d="M 57.6 41.472 
L 414.72 41.472 
" style="fill:none;stroke:#000000;stroke-linecap:square;stroke-linejoin:miter;stroke-width:0.8;"/>
   </g>
   <g id="text_19">
    <!-- Average fitness over 60 seconds for52cities -->
    <defs>
     <path d="M 33.015625 40.375 
Q 26.375 40.375 22.484375 35.828125 
Q 18.609375 31.296875 18.609375 23.390625 
Q 18.609375 15.53125 22.484375 10.953125 
Q 26.375 6.390625 33.015625 6.390625 
Q 39.65625 6.390625 43.53125 10.953125 
Q 47.40625 15.53125 47.40625 23.390625 
Q 47.40625 31.296875 43.53125 35.828125 
Q 39.65625 40.375 33.015625 40.375 
z
M 52.59375 71.296875 
L 52.59375 62.3125 
Q 48.875 64.0625 45.09375 64.984375 
Q 41.3125 65.921875 37.59375 65.921875 
Q 27.828125 65.921875 22.671875 59.328125 
Q 17.53125 52.734375 16.796875 39.40625 
Q 19.671875 43.65625 24.015625 45.921875 
Q 28.375 48.1875 33.59375 48.1875 
Q 44.578125 48.1875 50.953125 41.515625 
Q 57.328125 34.859375 57.328125 23.390625 
Q 57.328125 12.15625 50.6875 5.359375 
Q 44.046875 -1.421875 33.015625 -1.421875 
Q 20.359375 -1.421875 13.671875 8.265625 
Q 6.984375 17.96875 6.984375 36.375 
Q 6.984375 53.65625 15.1875 63.9375 
Q 23.390625 74.21875 37.203125 74.21875 
Q 40.921875 74.21875 44.703125 73.484375 
Q 48.484375 72.75 52.59375 71.296875 
z
" id="DejaVuSans-36"/>
     <path d="M 48.78125 52.59375 
L 48.78125 44.1875 
Q 44.96875 46.296875 41.140625 47.34375 
Q 37.3125 48.390625 33.40625 48.390625 
Q 24.65625 48.390625 19.8125 42.84375 
Q 14.984375 37.3125 14.984375 27.296875 
Q 14.984375 17.28125 19.8125 11.734375 
Q 24.65625 6.203125 33.40625 6.203125 
Q 37.3125 6.203125 41.140625 7.25 
Q 44.96875 8.296875 48.78125 10.40625 
L 48.78125 2.09375 
Q 45.015625 0.34375 40.984375 -0.53125 
Q 36.96875 -1.421875 32.421875 -1.421875 
Q 20.0625 -1.421875 12.78125 6.34375 
Q 5.515625 14.109375 5.515625 27.296875 
Q 5.515625 40.671875 12.859375 48.328125 
Q 20.21875 56 33.015625 56 
Q 37.15625 56 41.109375 55.140625 
Q 45.0625 54.296875 48.78125 52.59375 
z
" id="DejaVuSans-63"/>
     <path d="M 45.40625 46.390625 
L 45.40625 75.984375 
L 54.390625 75.984375 
L 54.390625 0 
L 45.40625 0 
L 45.40625 8.203125 
Q 42.578125 3.328125 38.25 0.953125 
Q 33.9375 -1.421875 27.875 -1.421875 
Q 17.96875 -1.421875 11.734375 6.484375 
Q 5.515625 14.40625 5.515625 27.296875 
Q 5.515625 40.1875 11.734375 48.09375 
Q 17.96875 56 27.875 56 
Q 33.9375 56 38.25 53.625 
Q 42.578125 51.265625 45.40625 46.390625 
z
M 14.796875 27.296875 
Q 14.796875 17.390625 18.875 11.75 
Q 22.953125 6.109375 30.078125 6.109375 
Q 37.203125 6.109375 41.296875 11.75 
Q 45.40625 17.390625 45.40625 27.296875 
Q 45.40625 37.203125 41.296875 42.84375 
Q 37.203125 48.484375 30.078125 48.484375 
Q 22.953125 48.484375 18.875 42.84375 
Q 14.796875 37.203125 14.796875 27.296875 
z
" id="DejaVuSans-64"/>
    </defs>
    <g transform="translate(104.533125 35.472)scale(0.12 -0.12)">
     <use xlink:href="#DejaVuSans-41"/>
     <use x="68.330078" xlink:href="#DejaVuSans-76"/>
     <use x="127.509766" xlink:href="#DejaVuSans-65"/>
     <use x="189.033203" xlink:href="#DejaVuSans-72"/>
     <use x="230.146484" xlink:href="#DejaVuSans-61"/>
     <use x="291.425781" xlink:href="#DejaVuSans-67"/>
     <use x="354.902344" xlink:href="#DejaVuSans-65"/>
     <use x="416.425781" xlink:href="#DejaVuSans-20"/>
     <use x="448.212891" xlink:href="#DejaVuSans-66"/>
     <use x="483.417969" xlink:href="#DejaVuSans-69"/>
     <use x="511.201172" xlink:href="#DejaVuSans-74"/>
     <use x="550.410156" xlink:href="#DejaVuSans-6e"/>
     <use x="613.789062" xlink:href="#DejaVuSans-65"/>
     <use x="675.3125" xlink:href="#DejaVuSans-73"/>
     <use x="727.412109" xlink:href="#DejaVuSans-73"/>
     <use x="779.511719" xlink:href="#DejaVuSans-20"/>
     <use x="811.298828" xlink:href="#DejaVuSans-6f"/>
     <use x="872.480469" xlink:href="#DejaVuSans-76"/>
     <use x="931.660156" xlink:href="#DejaVuSans-65"/>
     <use x="993.183594" xlink:href="#DejaVuSans-72"/>
     <use x="1034.296875" xlink:href="#DejaVuSans-20"/>
     <use x="1066.083984" xlink:href="#DejaVuSans-36"/>
     <use x="1129.707031" xlink:href="#DejaVuSans-30"/>
     <use x="1193.330078" xlink:href="#DejaVuSans-20"/>
     <use x="1225.117188" xlink:href="#DejaVuSans-73"/>
     <use x="1277.216797" xlink:href="#DejaVuSans-65"/>
     <use x="1338.740234" xlink:href="#DejaVuSans-63"/>
     <use x="1393.720703" xlink:href="#DejaVuSans-6f"/>
     <use x="1454.902344" xlink:href="#DejaVuSans-6e"/>
     <use x="1518.28125" xlink:href="#DejaVuSans-64"/>
     <use x="1581.757812" xlink:href="#DejaVuSans-73"/>
     <use x="1633.857422" xlink:href="#DejaVuSans-20"/>
     <use x="1665.644531" xlink:href="#DejaVuSans-66"/>
     <use x="1700.849609" xlink:href="#DejaVuSans-6f"/>
     <use x="1762.03125" xlink:href="#DejaVuSans-72"/>
     <use x="1803.144531" xlink:href="#DejaVuSans-35"/>
     <use x="1866.767578" xlink:href="#DejaVuSans-32"/>
     <use x="1930.390625" xlink:href="#DejaVuSans-63"/>
     <use x="1985.371094" xlink:href="#DejaVuSans-69"/>
     <use x="2013.154297" xlink:href="#DejaVuSans-74"/>
     <use x="2052.363281" xlink:href="#DejaVuSans-69"/>
     <use x="2080.146484" xlink:href="#DejaVuSans-65"/>
     <use x="2141.669922" xlink:href="#DejaVuSans-73"/>
    </g>
   </g>
   <g id="legend_1">
    <g id="patch_7">
     <path d="M 105.75125 78.82825 
L 407.72 78.82825 
Q 409.72 78.82825 409.72 76.82825 
L 409.72 48.472 
Q 409.72 46.472 407.72 46.472 
L 105.75125 46.472 
Q 103.75125 46.472 103.75125 48.472 
L 103.75125 76.82825 
Q 103.75125 78.82825 105.75125 78.82825 
z
" style="fill:#ffffff;opacity:0.8;stroke:#cccccc;stroke-linejoin:miter;"/>
    </g>
    <g id="patch_8">
     <path d="M 107.75125 58.070437 
L 127.75125 58.070437 
L 127.75125 51.070437 
L 107.75125 51.070437 
z
" style="fill:#87ceeb;stroke:#87ceeb;stroke-linejoin:miter;"/>
    </g>
    <g id="text_20">
     <!-- Parallel min, 10473.0 Last Generation number 1893.0 -->
     <defs>
      <path d="M 19.671875 64.796875 
L 19.671875 37.40625 
L 32.078125 37.40625 
Q 38.96875 37.40625 42.71875 40.96875 
Q 46.484375 44.53125 46.484375 51.125 
Q 46.484375 57.671875 42.71875 61.234375 
Q 38.96875 64.796875 32.078125 64.796875 
z
M 9.8125 72.90625 
L 32.078125 72.90625 
Q 44.34375 72.90625 50.609375 67.359375 
Q 56.890625 61.8125 56.890625 51.125 
Q 56.890625 40.328125 50.609375 34.8125 
Q 44.34375 29.296875 32.078125 29.296875 
L 19.671875 29.296875 
L 19.671875 0 
L 9.8125 0 
z
" id="DejaVuSans-50"/>
      <path d="M 9.421875 75.984375 
L 18.40625 75.984375 
L 18.40625 0 
L 9.421875 0 
z
" id="DejaVuSans-6c"/>
      <path d="M 11.71875 12.40625 
L 22.015625 12.40625 
L 22.015625 4 
L 14.015625 -11.625 
L 7.71875 -11.625 
L 11.71875 4 
z
" id="DejaVuSans-2c"/>
      <path d="M 37.796875 64.3125 
L 12.890625 25.390625 
L 37.796875 25.390625 
z
M 35.203125 72.90625 
L 47.609375 72.90625 
L 47.609375 25.390625 
L 58.015625 25.390625 
L 58.015625 17.1875 
L 47.609375 17.1875 
L 47.609375 0 
L 37.796875 0 
L 37.796875 17.1875 
L 4.890625 17.1875 
L 4.890625 26.703125 
z
" id="DejaVuSans-34"/>
      <path d="M 40.578125 39.3125 
Q 47.65625 37.796875 51.625 33 
Q 55.609375 28.21875 55.609375 21.1875 
Q 55.609375 10.40625 48.1875 4.484375 
Q 40.765625 -1.421875 27.09375 -1.421875 
Q 22.515625 -1.421875 17.65625 -0.515625 
Q 12.796875 0.390625 7.625 2.203125 
L 7.625 11.71875 
Q 11.71875 9.328125 16.59375 8.109375 
Q 21.484375 6.890625 26.8125 6.890625 
Q 36.078125 6.890625 40.9375 10.546875 
Q 45.796875 14.203125 45.796875 21.1875 
Q 45.796875 27.640625 41.28125 31.265625 
Q 36.765625 34.90625 28.71875 34.90625 
L 20.21875 34.90625 
L 20.21875 43.015625 
L 29.109375 43.015625 
Q 36.375 43.015625 40.234375 45.921875 
Q 44.09375 48.828125 44.09375 54.296875 
Q 44.09375 59.90625 40.109375 62.90625 
Q 36.140625 65.921875 28.71875 65.921875 
Q 24.65625 65.921875 20.015625 65.03125 
Q 15.375 64.15625 9.8125 62.3125 
L 9.8125 71.09375 
Q 15.4375 72.65625 20.34375 73.4375 
Q 25.25 74.21875 29.59375 74.21875 
Q 40.828125 74.21875 47.359375 69.109375 
Q 53.90625 64.015625 53.90625 55.328125 
Q 53.90625 49.265625 50.4375 45.09375 
Q 46.96875 40.921875 40.578125 39.3125 
z
" id="DejaVuSans-33"/>
      <path d="M 10.6875 12.40625 
L 21 12.40625 
L 21 0 
L 10.6875 0 
z
" id="DejaVuSans-2e"/>
      <path d="M 9.8125 72.90625 
L 19.671875 72.90625 
L 19.671875 8.296875 
L 55.171875 8.296875 
L 55.171875 0 
L 9.8125 0 
z
" id="DejaVuSans-4c"/>
      <path d="M 31.78125 34.625 
Q 24.75 34.625 20.71875 30.859375 
Q 16.703125 27.09375 16.703125 20.515625 
Q 16.703125 13.921875 20.71875 10.15625 
Q 24.75 6.390625 31.78125 6.390625 
Q 38.8125 6.390625 42.859375 10.171875 
Q 46.921875 13.96875 46.921875 20.515625 
Q 46.921875 27.09375 42.890625 30.859375 
Q 38.875 34.625 31.78125 34.625 
z
M 21.921875 38.8125 
Q 15.578125 40.375 12.03125 44.71875 
Q 8.5 49.078125 8.5 55.328125 
Q 8.5 64.0625 14.71875 69.140625 
Q 20.953125 74.21875 31.78125 74.21875 
Q 42.671875 74.21875 48.875 69.140625 
Q 55.078125 64.0625 55.078125 55.328125 
Q 55.078125 49.078125 51.53125 44.71875 
Q 48 40.375 41.703125 38.8125 
Q 48.828125 37.15625 52.796875 32.3125 
Q 56.78125 27.484375 56.78125 20.515625 
Q 56.78125 9.90625 50.3125 4.234375 
Q 43.84375 -1.421875 31.78125 -1.421875 
Q 19.734375 -1.421875 13.25 4.234375 
Q 6.78125 9.90625 6.78125 20.515625 
Q 6.78125 27.484375 10.78125 32.3125 
Q 14.796875 37.15625 21.921875 38.8125 
z
M 18.3125 54.390625 
Q 18.3125 48.734375 21.84375 45.5625 
Q 25.390625 42.390625 31.78125 42.390625 
Q 38.140625 42.390625 41.71875 45.5625 
Q 45.3125 48.734375 45.3125 54.390625 
Q 45.3125 60.0625 41.71875 63.234375 
Q 38.140625 66.40625 31.78125 66.40625 
Q 25.390625 66.40625 21.84375 63.234375 
Q 18.3125 60.0625 18.3125 54.390625 
z
" id="DejaVuSans-38"/>
      <path d="M 10.984375 1.515625 
L 10.984375 10.5 
Q 14.703125 8.734375 18.5 7.8125 
Q 22.3125 6.890625 25.984375 6.890625 
Q 35.75 6.890625 40.890625 13.453125 
Q 46.046875 20.015625 46.78125 33.40625 
Q 43.953125 29.203125 39.59375 26.953125 
Q 35.25 24.703125 29.984375 24.703125 
Q 19.046875 24.703125 12.671875 31.3125 
Q 6.296875 37.9375 6.296875 49.421875 
Q 6.296875 60.640625 12.9375 67.421875 
Q 19.578125 74.21875 30.609375 74.21875 
Q 43.265625 74.21875 49.921875 64.515625 
Q 56.59375 54.828125 56.59375 36.375 
Q 56.59375 19.140625 48.40625 8.859375 
Q 40.234375 -1.421875 26.421875 -1.421875 
Q 22.703125 -1.421875 18.890625 -0.6875 
Q 15.09375 0.046875 10.984375 1.515625 
z
M 30.609375 32.421875 
Q 37.25 32.421875 41.125 36.953125 
Q 45.015625 41.5 45.015625 49.421875 
Q 45.015625 57.28125 41.125 61.84375 
Q 37.25 66.40625 30.609375 66.40625 
Q 23.96875 66.40625 20.09375 61.84375 
Q 16.21875 57.28125 16.21875 49.421875 
Q 16.21875 41.5 20.09375 36.953125 
Q 23.96875 32.421875 30.609375 32.421875 
z
" id="DejaVuSans-39"/>
     </defs>
     <g transform="translate(135.75125 58.070437)scale(0.1 -0.1)">
      <use xlink:href="#DejaVuSans-50"/>
      <use x="60.240234" xlink:href="#DejaVuSans-61"/>
      <use x="121.519531" xlink:href="#DejaVuSans-72"/>
      <use x="162.632812" xlink:href="#DejaVuSans-61"/>
      <use x="223.912109" xlink:href="#DejaVuSans-6c"/>
      <use x="251.695312" xlink:href="#DejaVuSans-6c"/>
      <use x="279.478516" xlink:href="#DejaVuSans-65"/>
      <use x="341.001953" xlink:href="#DejaVuSans-6c"/>
      <use x="368.785156" xlink:href="#DejaVuSans-20"/>
      <use x="400.572266" xlink:href="#DejaVuSans-6d"/>
      <use x="497.984375" xlink:href="#DejaVuSans-69"/>
      <use x="525.767578" xlink:href="#DejaVuSans-6e"/>
      <use x="589.146484" xlink:href="#DejaVuSans-2c"/>
      <use x="620.933594" xlink:href="#DejaVuSans-20"/>
      <use x="652.720703" xlink:href="#DejaVuSans-31"/>
      <use x="716.34375" xlink:href="#DejaVuSans-30"/>
      <use x="779.966797" xlink:href="#DejaVuSans-34"/>
      <use x="843.589844" xlink:href="#DejaVuSans-37"/>
      <use x="907.212891" xlink:href="#DejaVuSans-33"/>
      <use x="970.835938" xlink:href="#DejaVuSans-2e"/>
      <use x="1002.623047" xlink:href="#DejaVuSans-30"/>
      <use x="1066.246094" xlink:href="#DejaVuSans-20"/>
      <use x="1098.033203" xlink:href="#DejaVuSans-4c"/>
      <use x="1153.746094" xlink:href="#DejaVuSans-61"/>
      <use x="1215.025391" xlink:href="#DejaVuSans-73"/>
      <use x="1267.125" xlink:href="#DejaVuSans-74"/>
      <use x="1306.333984" xlink:href="#DejaVuSans-20"/>
      <use x="1338.121094" xlink:href="#DejaVuSans-47"/>
      <use x="1415.611328" xlink:href="#DejaVuSans-65"/>
      <use x="1477.134766" xlink:href="#DejaVuSans-6e"/>
      <use x="1540.513672" xlink:href="#DejaVuSans-65"/>
      <use x="1602.037109" xlink:href="#DejaVuSans-72"/>
      <use x="1643.150391" xlink:href="#DejaVuSans-61"/>
      <use x="1704.429688" xlink:href="#DejaVuSans-74"/>
      <use x="1743.638672" xlink:href="#DejaVuSans-69"/>
      <use x="1771.421875" xlink:href="#DejaVuSans-6f"/>
      <use x="1832.603516" xlink:href="#DejaVuSans-6e"/>
      <use x="1895.982422" xlink:href="#DejaVuSans-20"/>
      <use x="1927.769531" xlink:href="#DejaVuSans-6e"/>
      <use x="1991.148438" xlink:href="#DejaVuSans-75"/>
      <use x="2054.527344" xlink:href="#DejaVuSans-6d"/>
      <use x="2151.939453" xlink:href="#DejaVuSans-62"/>
      <use x="2215.416016" xlink:href="#DejaVuSans-65"/>
      <use x="2276.939453" xlink:href="#DejaVuSans-72"/>
      <use x="2318.052734" xlink:href="#DejaVuSans-20"/>
      <use x="2349.839844" xlink:href="#DejaVuSans-31"/>
      <use x="2413.462891" xlink:href="#DejaVuSans-38"/>
      <use x="2477.085938" xlink:href="#DejaVuSans-39"/>
      <use x="2540.708984" xlink:href="#DejaVuSans-33"/>
      <use x="2604.332031" xlink:href="#DejaVuSans-2e"/>
      <use x="2636.119141" xlink:href="#DejaVuSans-30"/>
     </g>
    </g>
    <g id="patch_9">
     <path d="M 107.75125 72.748562 
L 127.75125 72.748562 
L 127.75125 65.748562 
L 107.75125 65.748562 
z
" style="fill:#ffa500;stroke:#ffa500;stroke-linejoin:miter;"/>
    </g>
    <g id="text_21">
     <!-- Serial min, 12391.8 Last Generation number 498.0 -->
     <defs>
      <path d="M 53.515625 70.515625 
L 53.515625 60.890625 
Q 47.90625 63.578125 42.921875 64.890625 
Q 37.9375 66.21875 33.296875 66.21875 
Q 25.25 66.21875 20.875 63.09375 
Q 16.5 59.96875 16.5 54.203125 
Q 16.5 49.359375 19.40625 46.890625 
Q 22.3125 44.4375 30.421875 42.921875 
L 36.375 41.703125 
Q 47.40625 39.59375 52.65625 34.296875 
Q 57.90625 29 57.90625 20.125 
Q 57.90625 9.515625 50.796875 4.046875 
Q 43.703125 -1.421875 29.984375 -1.421875 
Q 24.8125 -1.421875 18.96875 -0.25 
Q 13.140625 0.921875 6.890625 3.21875 
L 6.890625 13.375 
Q 12.890625 10.015625 18.65625 8.296875 
Q 24.421875 6.59375 29.984375 6.59375 
Q 38.421875 6.59375 43.015625 9.90625 
Q 47.609375 13.234375 47.609375 19.390625 
Q 47.609375 24.75 44.3125 27.78125 
Q 41.015625 30.8125 33.5 32.328125 
L 27.484375 33.5 
Q 16.453125 35.6875 11.515625 40.375 
Q 6.59375 45.0625 6.59375 53.421875 
Q 6.59375 63.09375 13.40625 68.65625 
Q 20.21875 74.21875 32.171875 74.21875 
Q 37.3125 74.21875 42.625 73.28125 
Q 47.953125 72.359375 53.515625 70.515625 
z
" id="DejaVuSans-53"/>
     </defs>
     <g transform="translate(135.75125 72.748562)scale(0.1 -0.1)">
      <use xlink:href="#DejaVuSans-53"/>
      <use x="63.476562" xlink:href="#DejaVuSans-65"/>
      <use x="125" xlink:href="#DejaVuSans-72"/>
      <use x="166.113281" xlink:href="#DejaVuSans-69"/>
      <use x="193.896484" xlink:href="#DejaVuSans-61"/>
      <use x="255.175781" xlink:href="#DejaVuSans-6c"/>
      <use x="282.958984" xlink:href="#DejaVuSans-20"/>
      <use x="314.746094" xlink:href="#DejaVuSans-6d"/>
      <use x="412.158203" xlink:href="#DejaVuSans-69"/>
      <use x="439.941406" xlink:href="#DejaVuSans-6e"/>
      <use x="503.320312" xlink:href="#DejaVuSans-2c"/>
      <use x="535.107422" xlink:href="#DejaVuSans-20"/>
      <use x="566.894531" xlink:href="#DejaVuSans-31"/>
      <use x="630.517578" xlink:href="#DejaVuSans-32"/>
      <use x="694.140625" xlink:href="#DejaVuSans-33"/>
      <use x="757.763672" xlink:href="#DejaVuSans-39"/>
      <use x="821.386719" xlink:href="#DejaVuSans-31"/>
      <use x="885.009766" xlink:href="#DejaVuSans-2e"/>
      <use x="916.796875" xlink:href="#DejaVuSans-38"/>
      <use x="980.419922" xlink:href="#DejaVuSans-20"/>
      <use x="1012.207031" xlink:href="#DejaVuSans-4c"/>
      <use x="1067.919922" xlink:href="#DejaVuSans-61"/>
      <use x="1129.199219" xlink:href="#DejaVuSans-73"/>
      <use x="1181.298828" xlink:href="#DejaVuSans-74"/>
      <use x="1220.507812" xlink:href="#DejaVuSans-20"/>
      <use x="1252.294922" xlink:href="#DejaVuSans-47"/>
      <use x="1329.785156" xlink:href="#DejaVuSans-65"/>
      <use x="1391.308594" xlink:href="#DejaVuSans-6e"/>
      <use x="1454.6875" xlink:href="#DejaVuSans-65"/>
      <use x="1516.210938" xlink:href="#DejaVuSans-72"/>
      <use x="1557.324219" xlink:href="#DejaVuSans-61"/>
      <use x="1618.603516" xlink:href="#DejaVuSans-74"/>
      <use x="1657.8125" xlink:href="#DejaVuSans-69"/>
      <use x="1685.595703" xlink:href="#DejaVuSans-6f"/>
      <use x="1746.777344" xlink:href="#DejaVuSans-6e"/>
      <use x="1810.15625" xlink:href="#DejaVuSans-20"/>
      <use x="1841.943359" xlink:href="#DejaVuSans-6e"/>
      <use x="1905.322266" xlink:href="#DejaVuSans-75"/>
      <use x="1968.701172" xlink:href="#DejaVuSans-6d"/>
      <use x="2066.113281" xlink:href="#DejaVuSans-62"/>
      <use x="2129.589844" xlink:href="#DejaVuSans-65"/>
      <use x="2191.113281" xlink:href="#DejaVuSans-72"/>
      <use x="2232.226562" xlink:href="#DejaVuSans-20"/>
      <use x="2264.013672" xlink:href="#DejaVuSans-34"/>
      <use x="2327.636719" xlink:href="#DejaVuSans-39"/>
      <use x="2391.259766" xlink:href="#DejaVuSans-38"/>
      <use x="2454.882812" xlink:href="#DejaVuSans-2e"/>
      <use x="2486.669922" xlink:href="#DejaVuSans-30"/>
     </g>
    </g>
   </g>
  </g>
 </g>
 <defs>
  <clipPath id="pff5afff139">
   <rect height="266.112" width="357.12" x="57.6" y="41.472"/>
  </clipPath>
 </defs>
</svg>
