<?xml version="1.0" encoding="utf-8" standalone="no"?>
<!DOCTYPE svg PUBLIC "-//W3C//DTD SVG 1.1//EN"
  "http://www.w3.org/Graphics/SVG/1.1/DTD/svg11.dtd">
<!-- Created with matplotlib (http://matplotlib.org/) -->
<svg height="345.6pt" version="1.1" viewBox="0 0 460.8 345.6" width="460.8pt" xmlns="http://www.w3.org/2000/svg" xmlns:xlink="http://www.w3.org/1999/xlink">
 <defs>
  <style type="text/css">
*{stroke-linecap:butt;stroke-linejoin:round;}
  </style>
 </defs>
 <g id="figure_1">
  <g id="patch_1">
   <path d="M 0 345.6 
L 460.8 345.6 
L 460.8 0 
L 0 0 
z
" style="fill:#ffffff;"/>
  </g>
  <g id="axes_1">
   <g id="patch_2">
    <path d="M 57.6 307.584 
L 414.72 307.584 
L 414.72 41.472 
L 57.6 41.472 
z
" style="fill:#ffffff;"/>
   </g>
   <g id="matplotlib.axis_1">
    <g id="xtick_1">
     <g id="line2d_1">
      <defs>
       <path d="M 0 0 
L 0 3.5 
" id="me6a59393a2" style="stroke:#000000;stroke-width:0.8;"/>
      </defs>
      <g>
       <use style="stroke:#000000;stroke-width:0.8;" x="73.52616" xlink:href="#me6a59393a2" y="307.584"/>
      </g>
     </g>
     <g id="text_1">
      <!-- 0 -->
      <defs>
       <path d="M 31.78125 66.40625 
Q 24.171875 66.40625 20.328125 58.90625 
Q 16.5 51.421875 16.5 36.375 
Q 16.5 21.390625 20.328125 13.890625 
Q 24.171875 6.390625 31.78125 6.390625 
Q 39.453125 6.390625 43.28125 13.890625 
Q 47.125 21.390625 47.125 36.375 
Q 47.125 51.421875 43.28125 58.90625 
Q 39.453125 66.40625 31.78125 66.40625 
z
M 31.78125 74.21875 
Q 44.046875 74.21875 50.515625 64.515625 
Q 56.984375 54.828125 56.984375 36.375 
Q 56.984375 17.96875 50.515625 8.265625 
Q 44.046875 -1.421875 31.78125 -1.421875 
Q 19.53125 -1.421875 13.0625 8.265625 
Q 6.59375 17.96875 6.59375 36.375 
Q 6.59375 54.828125 13.0625 64.515625 
Q 19.53125 74.21875 31.78125 74.21875 
z
" id="DejaVuSans-30"/>
      </defs>
      <g transform="translate(70.34491 322.182437)scale(0.1 -0.1)">
       <use xlink:href="#DejaVuSans-30"/>
      </g>
     </g>
    </g>
    <g id="xtick_2">
     <g id="line2d_2">
      <g>
       <use style="stroke:#000000;stroke-width:0.8;" x="134.839578" xlink:href="#me6a59393a2" y="307.584"/>
      </g>
     </g>
     <g id="text_2">
      <!-- 200 -->
      <defs>
       <path d="M 19.1875 8.296875 
L 53.609375 8.296875 
L 53.609375 0 
L 7.328125 0 
L 7.328125 8.296875 
Q 12.9375 14.109375 22.625 23.890625 
Q 32.328125 33.6875 34.8125 36.53125 
Q 39.546875 41.84375 41.421875 45.53125 
Q 43.3125 49.21875 43.3125 52.78125 
Q 43.3125 58.59375 39.234375 62.25 
Q 35.15625 65.921875 28.609375 65.921875 
Q 23.96875 65.921875 18.8125 64.3125 
Q 13.671875 62.703125 7.8125 59.421875 
L 7.8125 69.390625 
Q 13.765625 71.78125 18.9375 73 
Q 24.125 74.21875 28.421875 74.21875 
Q 39.75 74.21875 46.484375 68.546875 
Q 53.21875 62.890625 53.21875 53.421875 
Q 53.21875 48.921875 51.53125 44.890625 
Q 49.859375 40.875 45.40625 35.40625 
Q 44.1875 33.984375 37.640625 27.21875 
Q 31.109375 20.453125 19.1875 8.296875 
z
" id="DejaVuSans-32"/>
      </defs>
      <g transform="translate(125.295828 322.182437)scale(0.1 -0.1)">
       <use xlink:href="#DejaVuSans-32"/>
       <use x="63.623047" xlink:href="#DejaVuSans-30"/>
       <use x="127.246094" xlink:href="#DejaVuSans-30"/>
      </g>
     </g>
    </g>
    <g id="xtick_3">
     <g id="line2d_3">
      <g>
       <use style="stroke:#000000;stroke-width:0.8;" x="196.152995" xlink:href="#me6a59393a2" y="307.584"/>
      </g>
     </g>
     <g id="text_3">
      <!-- 400 -->
      <defs>
       <path d="M 37.796875 64.3125 
L 12.890625 25.390625 
L 37.796875 25.390625 
z
M 35.203125 72.90625 
L 47.609375 72.90625 
L 47.609375 25.390625 
L 58.015625 25.390625 
L 58.015625 17.1875 
L 47.609375 17.1875 
L 47.609375 0 
L 37.796875 0 
L 37.796875 17.1875 
L 4.890625 17.1875 
L 4.890625 26.703125 
z
" id="DejaVuSans-34"/>
      </defs>
      <g transform="translate(186.609245 322.182437)scale(0.1 -0.1)">
       <use xlink:href="#DejaVuSans-34"/>
       <use x="63.623047" xlink:href="#DejaVuSans-30"/>
       <use x="127.246094" xlink:href="#DejaVuSans-30"/>
      </g>
     </g>
    </g>
    <g id="xtick_4">
     <g id="line2d_4">
      <g>
       <use style="stroke:#000000;stroke-width:0.8;" x="257.466413" xlink:href="#me6a59393a2" y="307.584"/>
      </g>
     </g>
     <g id="text_4">
      <!-- 600 -->
      <defs>
       <path d="M 33.015625 40.375 
Q 26.375 40.375 22.484375 35.828125 
Q 18.609375 31.296875 18.609375 23.390625 
Q 18.609375 15.53125 22.484375 10.953125 
Q 26.375 6.390625 33.015625 6.390625 
Q 39.65625 6.390625 43.53125 10.953125 
Q 47.40625 15.53125 47.40625 23.390625 
Q 47.40625 31.296875 43.53125 35.828125 
Q 39.65625 40.375 33.015625 40.375 
z
M 52.59375 71.296875 
L 52.59375 62.3125 
Q 48.875 64.0625 45.09375 64.984375 
Q 41.3125 65.921875 37.59375 65.921875 
Q 27.828125 65.921875 22.671875 59.328125 
Q 17.53125 52.734375 16.796875 39.40625 
Q 19.671875 43.65625 24.015625 45.921875 
Q 28.375 48.1875 33.59375 48.1875 
Q 44.578125 48.1875 50.953125 41.515625 
Q 57.328125 34.859375 57.328125 23.390625 
Q 57.328125 12.15625 50.6875 5.359375 
Q 44.046875 -1.421875 33.015625 -1.421875 
Q 20.359375 -1.421875 13.671875 8.265625 
Q 6.984375 17.96875 6.984375 36.375 
Q 6.984375 53.65625 15.1875 63.9375 
Q 23.390625 74.21875 37.203125 74.21875 
Q 40.921875 74.21875 44.703125 73.484375 
Q 48.484375 72.75 52.59375 71.296875 
z
" id="DejaVuSans-36"/>
      </defs>
      <g transform="translate(247.922663 322.182437)scale(0.1 -0.1)">
       <use xlink:href="#DejaVuSans-36"/>
       <use x="63.623047" xlink:href="#DejaVuSans-30"/>
       <use x="127.246094" xlink:href="#DejaVuSans-30"/>
      </g>
     </g>
    </g>
    <g id="xtick_5">
     <g id="line2d_5">
      <g>
       <use style="stroke:#000000;stroke-width:0.8;" x="318.77983" xlink:href="#me6a59393a2" y="307.584"/>
      </g>
     </g>
     <g id="text_5">
      <!-- 800 -->
      <defs>
       <path d="M 31.78125 34.625 
Q 24.75 34.625 20.71875 30.859375 
Q 16.703125 27.09375 16.703125 20.515625 
Q 16.703125 13.921875 20.71875 10.15625 
Q 24.75 6.390625 31.78125 6.390625 
Q 38.8125 6.390625 42.859375 10.171875 
Q 46.921875 13.96875 46.921875 20.515625 
Q 46.921875 27.09375 42.890625 30.859375 
Q 38.875 34.625 31.78125 34.625 
z
M 21.921875 38.8125 
Q 15.578125 40.375 12.03125 44.71875 
Q 8.5 49.078125 8.5 55.328125 
Q 8.5 64.0625 14.71875 69.140625 
Q 20.953125 74.21875 31.78125 74.21875 
Q 42.671875 74.21875 48.875 69.140625 
Q 55.078125 64.0625 55.078125 55.328125 
Q 55.078125 49.078125 51.53125 44.71875 
Q 48 40.375 41.703125 38.8125 
Q 48.828125 37.15625 52.796875 32.3125 
Q 56.78125 27.484375 56.78125 20.515625 
Q 56.78125 9.90625 50.3125 4.234375 
Q 43.84375 -1.421875 31.78125 -1.421875 
Q 19.734375 -1.421875 13.25 4.234375 
Q 6.78125 9.90625 6.78125 20.515625 
Q 6.78125 27.484375 10.78125 32.3125 
Q 14.796875 37.15625 21.921875 38.8125 
z
M 18.3125 54.390625 
Q 18.3125 48.734375 21.84375 45.5625 
Q 25.390625 42.390625 31.78125 42.390625 
Q 38.140625 42.390625 41.71875 45.5625 
Q 45.3125 48.734375 45.3125 54.390625 
Q 45.3125 60.0625 41.71875 63.234375 
Q 38.140625 66.40625 31.78125 66.40625 
Q 25.390625 66.40625 21.84375 63.234375 
Q 18.3125 60.0625 18.3125 54.390625 
z
" id="DejaVuSans-38"/>
      </defs>
      <g transform="translate(309.23608 322.182437)scale(0.1 -0.1)">
       <use xlink:href="#DejaVuSans-38"/>
       <use x="63.623047" xlink:href="#DejaVuSans-30"/>
       <use x="127.246094" xlink:href="#DejaVuSans-30"/>
      </g>
     </g>
    </g>
    <g id="xtick_6">
     <g id="line2d_6">
      <g>
       <use style="stroke:#000000;stroke-width:0.8;" x="380.093247" xlink:href="#me6a59393a2" y="307.584"/>
      </g>
     </g>
     <g id="text_6">
      <!-- 1000 -->
      <defs>
       <path d="M 12.40625 8.296875 
L 28.515625 8.296875 
L 28.515625 63.921875 
L 10.984375 60.40625 
L 10.984375 69.390625 
L 28.421875 72.90625 
L 38.28125 72.90625 
L 38.28125 8.296875 
L 54.390625 8.296875 
L 54.390625 0 
L 12.40625 0 
z
" id="DejaVuSans-31"/>
      </defs>
      <g transform="translate(367.368247 322.182437)scale(0.1 -0.1)">
       <use xlink:href="#DejaVuSans-31"/>
       <use x="63.623047" xlink:href="#DejaVuSans-30"/>
       <use x="127.246094" xlink:href="#DejaVuSans-30"/>
       <use x="190.869141" xlink:href="#DejaVuSans-30"/>
      </g>
     </g>
    </g>
    <g id="text_7">
     <!-- Generation number -->
     <defs>
      <path d="M 59.515625 10.40625 
L 59.515625 29.984375 
L 43.40625 29.984375 
L 43.40625 38.09375 
L 69.28125 38.09375 
L 69.28125 6.78125 
Q 63.578125 2.734375 56.6875 0.65625 
Q 49.8125 -1.421875 42 -1.421875 
Q 24.90625 -1.421875 15.25 8.5625 
Q 5.609375 18.5625 5.609375 36.375 
Q 5.609375 54.25 15.25 64.234375 
Q 24.90625 74.21875 42 74.21875 
Q 49.125 74.21875 55.546875 72.453125 
Q 61.96875 70.703125 67.390625 67.28125 
L 67.390625 56.78125 
Q 61.921875 61.421875 55.765625 63.765625 
Q 49.609375 66.109375 42.828125 66.109375 
Q 29.4375 66.109375 22.71875 58.640625 
Q 16.015625 51.171875 16.015625 36.375 
Q 16.015625 21.625 22.71875 14.15625 
Q 29.4375 6.6875 42.828125 6.6875 
Q 48.046875 6.6875 52.140625 7.59375 
Q 56.25 8.5 59.515625 10.40625 
z
" id="DejaVuSans-47"/>
      <path d="M 56.203125 29.59375 
L 56.203125 25.203125 
L 14.890625 25.203125 
Q 15.484375 15.921875 20.484375 11.0625 
Q 25.484375 6.203125 34.421875 6.203125 
Q 39.59375 6.203125 44.453125 7.46875 
Q 49.3125 8.734375 54.109375 11.28125 
L 54.109375 2.78125 
Q 49.265625 0.734375 44.1875 -0.34375 
Q 39.109375 -1.421875 33.890625 -1.421875 
Q 20.796875 -1.421875 13.15625 6.1875 
Q 5.515625 13.8125 5.515625 26.8125 
Q 5.515625 40.234375 12.765625 48.109375 
Q 20.015625 56 32.328125 56 
Q 43.359375 56 49.78125 48.890625 
Q 56.203125 41.796875 56.203125 29.59375 
z
M 47.21875 32.234375 
Q 47.125 39.59375 43.09375 43.984375 
Q 39.0625 48.390625 32.421875 48.390625 
Q 24.90625 48.390625 20.390625 44.140625 
Q 15.875 39.890625 15.1875 32.171875 
z
" id="DejaVuSans-65"/>
      <path d="M 54.890625 33.015625 
L 54.890625 0 
L 45.90625 0 
L 45.90625 32.71875 
Q 45.90625 40.484375 42.875 44.328125 
Q 39.84375 48.1875 33.796875 48.1875 
Q 26.515625 48.1875 22.3125 43.546875 
Q 18.109375 38.921875 18.109375 30.90625 
L 18.109375 0 
L 9.078125 0 
L 9.078125 54.6875 
L 18.109375 54.6875 
L 18.109375 46.1875 
Q 21.34375 51.125 25.703125 53.5625 
Q 30.078125 56 35.796875 56 
Q 45.21875 56 50.046875 50.171875 
Q 54.890625 44.34375 54.890625 33.015625 
z
" id="DejaVuSans-6e"/>
      <path d="M 41.109375 46.296875 
Q 39.59375 47.171875 37.8125 47.578125 
Q 36.03125 48 33.890625 48 
Q 26.265625 48 22.1875 43.046875 
Q 18.109375 38.09375 18.109375 28.8125 
L 18.109375 0 
L 9.078125 0 
L 9.078125 54.6875 
L 18.109375 54.6875 
L 18.109375 46.1875 
Q 20.953125 51.171875 25.484375 53.578125 
Q 30.03125 56 36.53125 56 
Q 37.453125 56 38.578125 55.875 
Q 39.703125 55.765625 41.0625 55.515625 
z
" id="DejaVuSans-72"/>
      <path d="M 34.28125 27.484375 
Q 23.390625 27.484375 19.1875 25 
Q 14.984375 22.515625 14.984375 16.5 
Q 14.984375 11.71875 18.140625 8.90625 
Q 21.296875 6.109375 26.703125 6.109375 
Q 34.1875 6.109375 38.703125 11.40625 
Q 43.21875 16.703125 43.21875 25.484375 
L 43.21875 27.484375 
z
M 52.203125 31.203125 
L 52.203125 0 
L 43.21875 0 
L 43.21875 8.296875 
Q 40.140625 3.328125 35.546875 0.953125 
Q 30.953125 -1.421875 24.3125 -1.421875 
Q 15.921875 -1.421875 10.953125 3.296875 
Q 6 8.015625 6 15.921875 
Q 6 25.140625 12.171875 29.828125 
Q 18.359375 34.515625 30.609375 34.515625 
L 43.21875 34.515625 
L 43.21875 35.40625 
Q 43.21875 41.609375 39.140625 45 
Q 35.0625 48.390625 27.6875 48.390625 
Q 23 48.390625 18.546875 47.265625 
Q 14.109375 46.140625 10.015625 43.890625 
L 10.015625 52.203125 
Q 14.9375 54.109375 19.578125 55.046875 
Q 24.21875 56 28.609375 56 
Q 40.484375 56 46.34375 49.84375 
Q 52.203125 43.703125 52.203125 31.203125 
z
" id="DejaVuSans-61"/>
      <path d="M 18.3125 70.21875 
L 18.3125 54.6875 
L 36.8125 54.6875 
L 36.8125 47.703125 
L 18.3125 47.703125 
L 18.3125 18.015625 
Q 18.3125 11.328125 20.140625 9.421875 
Q 21.96875 7.515625 27.59375 7.515625 
L 36.8125 7.515625 
L 36.8125 0 
L 27.59375 0 
Q 17.1875 0 13.234375 3.875 
Q 9.28125 7.765625 9.28125 18.015625 
L 9.28125 47.703125 
L 2.6875 47.703125 
L 2.6875 54.6875 
L 9.28125 54.6875 
L 9.28125 70.21875 
z
" id="DejaVuSans-74"/>
      <path d="M 9.421875 54.6875 
L 18.40625 54.6875 
L 18.40625 0 
L 9.421875 0 
z
M 9.421875 75.984375 
L 18.40625 75.984375 
L 18.40625 64.59375 
L 9.421875 64.59375 
z
" id="DejaVuSans-69"/>
      <path d="M 30.609375 48.390625 
Q 23.390625 48.390625 19.1875 42.75 
Q 14.984375 37.109375 14.984375 27.296875 
Q 14.984375 17.484375 19.15625 11.84375 
Q 23.34375 6.203125 30.609375 6.203125 
Q 37.796875 6.203125 41.984375 11.859375 
Q 46.1875 17.53125 46.1875 27.296875 
Q 46.1875 37.015625 41.984375 42.703125 
Q 37.796875 48.390625 30.609375 48.390625 
z
M 30.609375 56 
Q 42.328125 56 49.015625 48.375 
Q 55.71875 40.765625 55.71875 27.296875 
Q 55.71875 13.875 49.015625 6.21875 
Q 42.328125 -1.421875 30.609375 -1.421875 
Q 18.84375 -1.421875 12.171875 6.21875 
Q 5.515625 13.875 5.515625 27.296875 
Q 5.515625 40.765625 12.171875 48.375 
Q 18.84375 56 30.609375 56 
z
" id="DejaVuSans-6f"/>
      <path id="DejaVuSans-20"/>
      <path d="M 8.5 21.578125 
L 8.5 54.6875 
L 17.484375 54.6875 
L 17.484375 21.921875 
Q 17.484375 14.15625 20.5 10.265625 
Q 23.53125 6.390625 29.59375 6.390625 
Q 36.859375 6.390625 41.078125 11.03125 
Q 45.3125 15.671875 45.3125 23.6875 
L 45.3125 54.6875 
L 54.296875 54.6875 
L 54.296875 0 
L 45.3125 0 
L 45.3125 8.40625 
Q 42.046875 3.421875 37.71875 1 
Q 33.40625 -1.421875 27.6875 -1.421875 
Q 18.265625 -1.421875 13.375 4.4375 
Q 8.5 10.296875 8.5 21.578125 
z
M 31.109375 56 
z
" id="DejaVuSans-75"/>
      <path d="M 52 44.1875 
Q 55.375 50.25 60.0625 53.125 
Q 64.75 56 71.09375 56 
Q 79.640625 56 84.28125 50.015625 
Q 88.921875 44.046875 88.921875 33.015625 
L 88.921875 0 
L 79.890625 0 
L 79.890625 32.71875 
Q 79.890625 40.578125 77.09375 44.375 
Q 74.3125 48.1875 68.609375 48.1875 
Q 61.625 48.1875 57.5625 43.546875 
Q 53.515625 38.921875 53.515625 30.90625 
L 53.515625 0 
L 44.484375 0 
L 44.484375 32.71875 
Q 44.484375 40.625 41.703125 44.40625 
Q 38.921875 48.1875 33.109375 48.1875 
Q 26.21875 48.1875 22.15625 43.53125 
Q 18.109375 38.875 18.109375 30.90625 
L 18.109375 0 
L 9.078125 0 
L 9.078125 54.6875 
L 18.109375 54.6875 
L 18.109375 46.1875 
Q 21.1875 51.21875 25.484375 53.609375 
Q 29.78125 56 35.6875 56 
Q 41.65625 56 45.828125 52.96875 
Q 50 49.953125 52 44.1875 
z
" id="DejaVuSans-6d"/>
      <path d="M 48.6875 27.296875 
Q 48.6875 37.203125 44.609375 42.84375 
Q 40.53125 48.484375 33.40625 48.484375 
Q 26.265625 48.484375 22.1875 42.84375 
Q 18.109375 37.203125 18.109375 27.296875 
Q 18.109375 17.390625 22.1875 11.75 
Q 26.265625 6.109375 33.40625 6.109375 
Q 40.53125 6.109375 44.609375 11.75 
Q 48.6875 17.390625 48.6875 27.296875 
z
M 18.109375 46.390625 
Q 20.953125 51.265625 25.265625 53.625 
Q 29.59375 56 35.59375 56 
Q 45.5625 56 51.78125 48.09375 
Q 58.015625 40.1875 58.015625 27.296875 
Q 58.015625 14.40625 51.78125 6.484375 
Q 45.5625 -1.421875 35.59375 -1.421875 
Q 29.59375 -1.421875 25.265625 0.953125 
Q 20.953125 3.328125 18.109375 8.203125 
L 18.109375 0 
L 9.078125 0 
L 9.078125 75.984375 
L 18.109375 75.984375 
z
" id="DejaVuSans-62"/>
     </defs>
     <g transform="translate(187.163906 335.860562)scale(0.1 -0.1)">
      <use xlink:href="#DejaVuSans-47"/>
      <use x="77.490234" xlink:href="#DejaVuSans-65"/>
      <use x="139.013672" xlink:href="#DejaVuSans-6e"/>
      <use x="202.392578" xlink:href="#DejaVuSans-65"/>
      <use x="263.916016" xlink:href="#DejaVuSans-72"/>
      <use x="305.029297" xlink:href="#DejaVuSans-61"/>
      <use x="366.308594" xlink:href="#DejaVuSans-74"/>
      <use x="405.517578" xlink:href="#DejaVuSans-69"/>
      <use x="433.300781" xlink:href="#DejaVuSans-6f"/>
      <use x="494.482422" xlink:href="#DejaVuSans-6e"/>
      <use x="557.861328" xlink:href="#DejaVuSans-20"/>
      <use x="589.648438" xlink:href="#DejaVuSans-6e"/>
      <use x="653.027344" xlink:href="#DejaVuSans-75"/>
      <use x="716.40625" xlink:href="#DejaVuSans-6d"/>
      <use x="813.818359" xlink:href="#DejaVuSans-62"/>
      <use x="877.294922" xlink:href="#DejaVuSans-65"/>
      <use x="938.818359" xlink:href="#DejaVuSans-72"/>
     </g>
    </g>
   </g>
   <g id="matplotlib.axis_2">
    <g id="ytick_1">
     <g id="line2d_7">
      <defs>
       <path d="M 0 0 
L -3.5 0 
" id="m4d8e34bf40" style="stroke:#000000;stroke-width:0.8;"/>
      </defs>
      <g>
       <use style="stroke:#000000;stroke-width:0.8;" x="57.6" xlink:href="#m4d8e34bf40" y="276.199075"/>
      </g>
     </g>
     <g id="text_8">
      <!-- 12500 -->
      <defs>
       <path d="M 10.796875 72.90625 
L 49.515625 72.90625 
L 49.515625 64.59375 
L 19.828125 64.59375 
L 19.828125 46.734375 
Q 21.96875 47.46875 24.109375 47.828125 
Q 26.265625 48.1875 28.421875 48.1875 
Q 40.625 48.1875 47.75 41.5 
Q 54.890625 34.8125 54.890625 23.390625 
Q 54.890625 11.625 47.5625 5.09375 
Q 40.234375 -1.421875 26.90625 -1.421875 
Q 22.3125 -1.421875 17.546875 -0.640625 
Q 12.796875 0.140625 7.71875 1.703125 
L 7.71875 11.625 
Q 12.109375 9.234375 16.796875 8.0625 
Q 21.484375 6.890625 26.703125 6.890625 
Q 35.15625 6.890625 40.078125 11.328125 
Q 45.015625 15.765625 45.015625 23.390625 
Q 45.015625 31 40.078125 35.4375 
Q 35.15625 39.890625 26.703125 39.890625 
Q 22.75 39.890625 18.8125 39.015625 
Q 14.890625 38.140625 10.796875 36.28125 
z
" id="DejaVuSans-35"/>
      </defs>
      <g transform="translate(18.7875 279.998294)scale(0.1 -0.1)">
       <use xlink:href="#DejaVuSans-31"/>
       <use x="63.623047" xlink:href="#DejaVuSans-32"/>
       <use x="127.246094" xlink:href="#DejaVuSans-35"/>
       <use x="190.869141" xlink:href="#DejaVuSans-30"/>
       <use x="254.492188" xlink:href="#DejaVuSans-30"/>
      </g>
     </g>
    </g>
    <g id="ytick_2">
     <g id="line2d_8">
      <g>
       <use style="stroke:#000000;stroke-width:0.8;" x="57.6" xlink:href="#m4d8e34bf40" y="240.67881"/>
      </g>
     </g>
     <g id="text_9">
      <!-- 15000 -->
      <g transform="translate(18.7875 244.478029)scale(0.1 -0.1)">
       <use xlink:href="#DejaVuSans-31"/>
       <use x="63.623047" xlink:href="#DejaVuSans-35"/>
       <use x="127.246094" xlink:href="#DejaVuSans-30"/>
       <use x="190.869141" xlink:href="#DejaVuSans-30"/>
       <use x="254.492188" xlink:href="#DejaVuSans-30"/>
      </g>
     </g>
    </g>
    <g id="ytick_3">
     <g id="line2d_9">
      <g>
       <use style="stroke:#000000;stroke-width:0.8;" x="57.6" xlink:href="#m4d8e34bf40" y="205.158545"/>
      </g>
     </g>
     <g id="text_10">
      <!-- 17500 -->
      <defs>
       <path d="M 8.203125 72.90625 
L 55.078125 72.90625 
L 55.078125 68.703125 
L 28.609375 0 
L 18.3125 0 
L 43.21875 64.59375 
L 8.203125 64.59375 
z
" id="DejaVuSans-37"/>
      </defs>
      <g transform="translate(18.7875 208.957764)scale(0.1 -0.1)">
       <use xlink:href="#DejaVuSans-31"/>
       <use x="63.623047" xlink:href="#DejaVuSans-37"/>
       <use x="127.246094" xlink:href="#DejaVuSans-35"/>
       <use x="190.869141" xlink:href="#DejaVuSans-30"/>
       <use x="254.492188" xlink:href="#DejaVuSans-30"/>
      </g>
     </g>
    </g>
    <g id="ytick_4">
     <g id="line2d_10">
      <g>
       <use style="stroke:#000000;stroke-width:0.8;" x="57.6" xlink:href="#m4d8e34bf40" y="169.63828"/>
      </g>
     </g>
     <g id="text_11">
      <!-- 20000 -->
      <g transform="translate(18.7875 173.437499)scale(0.1 -0.1)">
       <use xlink:href="#DejaVuSans-32"/>
       <use x="63.623047" xlink:href="#DejaVuSans-30"/>
       <use x="127.246094" xlink:href="#DejaVuSans-30"/>
       <use x="190.869141" xlink:href="#DejaVuSans-30"/>
       <use x="254.492188" xlink:href="#DejaVuSans-30"/>
      </g>
     </g>
    </g>
    <g id="ytick_5">
     <g id="line2d_11">
      <g>
       <use style="stroke:#000000;stroke-width:0.8;" x="57.6" xlink:href="#m4d8e34bf40" y="134.118015"/>
      </g>
     </g>
     <g id="text_12">
      <!-- 22500 -->
      <g transform="translate(18.7875 137.917234)scale(0.1 -0.1)">
       <use xlink:href="#DejaVuSans-32"/>
       <use x="63.623047" xlink:href="#DejaVuSans-32"/>
       <use x="127.246094" xlink:href="#DejaVuSans-35"/>
       <use x="190.869141" xlink:href="#DejaVuSans-30"/>
       <use x="254.492188" xlink:href="#DejaVuSans-30"/>
      </g>
     </g>
    </g>
    <g id="ytick_6">
     <g id="line2d_12">
      <g>
       <use style="stroke:#000000;stroke-width:0.8;" x="57.6" xlink:href="#m4d8e34bf40" y="98.59775"/>
      </g>
     </g>
     <g id="text_13">
      <!-- 25000 -->
      <g transform="translate(18.7875 102.396969)scale(0.1 -0.1)">
       <use xlink:href="#DejaVuSans-32"/>
       <use x="63.623047" xlink:href="#DejaVuSans-35"/>
       <use x="127.246094" xlink:href="#DejaVuSans-30"/>
       <use x="190.869141" xlink:href="#DejaVuSans-30"/>
       <use x="254.492188" xlink:href="#DejaVuSans-30"/>
      </g>
     </g>
    </g>
    <g id="ytick_7">
     <g id="line2d_13">
      <g>
       <use style="stroke:#000000;stroke-width:0.8;" x="57.6" xlink:href="#m4d8e34bf40" y="63.077485"/>
      </g>
     </g>
     <g id="text_14">
      <!-- 27500 -->
      <g transform="translate(18.7875 66.876704)scale(0.1 -0.1)">
       <use xlink:href="#DejaVuSans-32"/>
       <use x="63.623047" xlink:href="#DejaVuSans-37"/>
       <use x="127.246094" xlink:href="#DejaVuSans-35"/>
       <use x="190.869141" xlink:href="#DejaVuSans-30"/>
       <use x="254.492188" xlink:href="#DejaVuSans-30"/>
      </g>
     </g>
    </g>
    <g id="text_15">
     <!-- Average fitness -->
     <defs>
      <path d="M 34.1875 63.1875 
L 20.796875 26.90625 
L 47.609375 26.90625 
z
M 28.609375 72.90625 
L 39.796875 72.90625 
L 67.578125 0 
L 57.328125 0 
L 50.6875 18.703125 
L 17.828125 18.703125 
L 11.1875 0 
L 0.78125 0 
z
" id="DejaVuSans-41"/>
      <path d="M 2.984375 54.6875 
L 12.5 54.6875 
L 29.59375 8.796875 
L 46.6875 54.6875 
L 56.203125 54.6875 
L 35.6875 0 
L 23.484375 0 
z
" id="DejaVuSans-76"/>
      <path d="M 45.40625 27.984375 
Q 45.40625 37.75 41.375 43.109375 
Q 37.359375 48.484375 30.078125 48.484375 
Q 22.859375 48.484375 18.828125 43.109375 
Q 14.796875 37.75 14.796875 27.984375 
Q 14.796875 18.265625 18.828125 12.890625 
Q 22.859375 7.515625 30.078125 7.515625 
Q 37.359375 7.515625 41.375 12.890625 
Q 45.40625 18.265625 45.40625 27.984375 
z
M 54.390625 6.78125 
Q 54.390625 -7.171875 48.1875 -13.984375 
Q 42 -20.796875 29.203125 -20.796875 
Q 24.46875 -20.796875 20.265625 -20.09375 
Q 16.0625 -19.390625 12.109375 -17.921875 
L 12.109375 -9.1875 
Q 16.0625 -11.328125 19.921875 -12.34375 
Q 23.78125 -13.375 27.78125 -13.375 
Q 36.625 -13.375 41.015625 -8.765625 
Q 45.40625 -4.15625 45.40625 5.171875 
L 45.40625 9.625 
Q 42.625 4.78125 38.28125 2.390625 
Q 33.9375 0 27.875 0 
Q 17.828125 0 11.671875 7.65625 
Q 5.515625 15.328125 5.515625 27.984375 
Q 5.515625 40.671875 11.671875 48.328125 
Q 17.828125 56 27.875 56 
Q 33.9375 56 38.28125 53.609375 
Q 42.625 51.21875 45.40625 46.390625 
L 45.40625 54.6875 
L 54.390625 54.6875 
z
" id="DejaVuSans-67"/>
      <path d="M 37.109375 75.984375 
L 37.109375 68.5 
L 28.515625 68.5 
Q 23.6875 68.5 21.796875 66.546875 
Q 19.921875 64.59375 19.921875 59.515625 
L 19.921875 54.6875 
L 34.71875 54.6875 
L 34.71875 47.703125 
L 19.921875 47.703125 
L 19.921875 0 
L 10.890625 0 
L 10.890625 47.703125 
L 2.296875 47.703125 
L 2.296875 54.6875 
L 10.890625 54.6875 
L 10.890625 58.5 
Q 10.890625 67.625 15.140625 71.796875 
Q 19.390625 75.984375 28.609375 75.984375 
z
" id="DejaVuSans-66"/>
      <path d="M 44.28125 53.078125 
L 44.28125 44.578125 
Q 40.484375 46.53125 36.375 47.5 
Q 32.28125 48.484375 27.875 48.484375 
Q 21.1875 48.484375 17.84375 46.4375 
Q 14.5 44.390625 14.5 40.28125 
Q 14.5 37.15625 16.890625 35.375 
Q 19.28125 33.59375 26.515625 31.984375 
L 29.59375 31.296875 
Q 39.15625 29.25 43.1875 25.515625 
Q 47.21875 21.78125 47.21875 15.09375 
Q 47.21875 7.46875 41.1875 3.015625 
Q 35.15625 -1.421875 24.609375 -1.421875 
Q 20.21875 -1.421875 15.453125 -0.5625 
Q 10.6875 0.296875 5.421875 2 
L 5.421875 11.28125 
Q 10.40625 8.6875 15.234375 7.390625 
Q 20.0625 6.109375 24.8125 6.109375 
Q 31.15625 6.109375 34.5625 8.28125 
Q 37.984375 10.453125 37.984375 14.40625 
Q 37.984375 18.0625 35.515625 20.015625 
Q 33.0625 21.96875 24.703125 23.78125 
L 21.578125 24.515625 
Q 13.234375 26.265625 9.515625 29.90625 
Q 5.8125 33.546875 5.8125 39.890625 
Q 5.8125 47.609375 11.28125 51.796875 
Q 16.75 56 26.8125 56 
Q 31.78125 56 36.171875 55.265625 
Q 40.578125 54.546875 44.28125 53.078125 
z
" id="DejaVuSans-73"/>
     </defs>
     <g transform="translate(12.707812 213.503781)rotate(-90)scale(0.1 -0.1)">
      <use xlink:href="#DejaVuSans-41"/>
      <use x="68.330078" xlink:href="#DejaVuSans-76"/>
      <use x="127.509766" xlink:href="#DejaVuSans-65"/>
      <use x="189.033203" xlink:href="#DejaVuSans-72"/>
      <use x="230.146484" xlink:href="#DejaVuSans-61"/>
      <use x="291.425781" xlink:href="#DejaVuSans-67"/>
      <use x="354.902344" xlink:href="#DejaVuSans-65"/>
      <use x="416.425781" xlink:href="#DejaVuSans-20"/>
      <use x="448.212891" xlink:href="#DejaVuSans-66"/>
      <use x="483.417969" xlink:href="#DejaVuSans-69"/>
      <use x="511.201172" xlink:href="#DejaVuSans-74"/>
      <use x="550.410156" xlink:href="#DejaVuSans-6e"/>
      <use x="613.789062" xlink:href="#DejaVuSans-65"/>
      <use x="675.3125" xlink:href="#DejaVuSans-73"/>
      <use x="727.412109" xlink:href="#DejaVuSans-73"/>
     </g>
    </g>
   </g>
   <g id="line2d_14">
    <path clip-path="url(#pcf5570e774)" d="M 73.832727 54.490106 
L 74.139294 82.08509 
L 74.445861 97.039121 
L 75.058996 113.452325 
L 76.591831 140.883915 
L 77.204965 152.297287 
L 77.818099 160.851988 
L 79.044368 173.356542 
L 79.657502 178.678898 
L 79.964069 181.475053 
L 80.577203 184.78128 
L 81.190337 189.552362 
L 81.803472 192.798914 
L 82.723173 198.651233 
L 83.949441 203.972168 
L 84.256008 204.955369 
L 84.562575 204.36005 
L 85.482277 207.90071 
L 85.788844 208.615378 
L 86.095411 209.612787 
L 86.401978 208.35679 
L 86.708545 207.88366 
L 87.321679 210.956873 
L 88.854515 215.813204 
L 89.161082 215.138319 
L 89.467649 216.378687 
L 90.693917 219.289928 
L 91.000484 218.232844 
L 91.307051 219.301294 
L 91.613618 219.9435 
L 91.920185 220.915335 
L 92.839887 222.72971 
L 93.146454 222.451231 
L 93.759588 223.818051 
L 94.066155 224.34233 
L 94.372722 216.956957 
L 94.679289 217.545172 
L 94.985856 218.671875 
L 95.59899 221.641369 
L 95.905558 222.118761 
L 96.212125 219.558461 
L 96.518692 220.771833 
L 97.131826 223.910404 
L 97.74496 226.159547 
L 98.358094 228.033596 
L 98.664661 228.712743 
L 98.971228 228.341912 
L 99.584363 230.125029 
L 99.89093 230.762973 
L 100.197497 226.277474 
L 100.504064 226.852902 
L 100.810631 225.145088 
L 101.117198 226.872794 
L 101.423765 227.564728 
L 102.036899 230.402087 
L 102.956601 233.132885 
L 103.263168 232.396905 
L 103.876302 234.430085 
L 104.489436 235.894941 
L 104.796003 234.866274 
L 105.715704 237.256078 
L 106.022271 237.562973 
L 106.635406 238.622897 
L 106.941973 238.945421 
L 107.24854 238.529124 
L 107.555107 239.226742 
L 107.861674 239.614623 
L 108.168241 239.431339 
L 109.087942 240.840783 
L 109.394509 234.424402 
L 109.701076 236.281401 
L 110.007644 235.278309 
L 111.233912 239.814957 
L 112.153613 241.868029 
L 112.46018 242.051313 
L 113.379882 243.740657 
L 113.686449 241.994481 
L 113.993016 242.838442 
L 114.299583 240.862095 
L 114.60615 241.991639 
L 116.138985 245.151522 
L 116.752119 246.065103 
L 117.058687 246.276804 
L 117.671821 247.025571 
L 117.978388 245.269449 
L 118.591522 245.996904 
L 118.898089 236.409274 
L 119.511223 241.349433 
L 119.81779 242.964895 
L 121.350626 247.427661 
L 121.657193 247.947677 
L 122.270327 243.405346 
L 122.576894 245.127368 
L 123.496595 248.085496 
L 124.10973 249.293185 
L 124.722864 250.205345 
L 125.029431 250.130042 
L 125.335998 250.590385 
L 125.642565 244.397072 
L 125.949132 245.506725 
L 126.562266 248.167903 
L 126.868833 242.957791 
L 127.1754 242.559964 
L 127.788535 246.188714 
L 128.708236 249.095692 
L 129.627937 251.22975 
L 129.934504 248.270201 
L 130.241071 247.809859 
L 130.547638 249.408271 
L 130.854206 250.395734 
L 131.160773 250.041952 
L 131.773907 251.908897 
L 132.080474 252.82532 
L 133.306742 254.834346 
L 133.919876 255.405512 
L 134.226443 250.846131 
L 134.839578 253.35102 
L 135.452712 255.014789 
L 135.759279 255.578851 
L 136.065846 255.830335 
L 136.372413 249.789048 
L 136.67898 246.116252 
L 137.292114 250.246549 
L 137.905249 252.568153 
L 138.82495 254.801668 
L 139.131517 255.097196 
L 139.438084 255.996569 
L 140.357785 257.109064 
L 140.970919 258.022645 
L 141.584054 258.38069 
L 141.890621 255.722353 
L 142.503755 257.613452 
L 142.810322 256.012198 
L 143.116889 257.13748 
L 143.423456 251.785287 
L 143.730023 250.7211 
L 144.03659 251.522437 
L 144.343157 253.191889 
L 144.649724 253.208939 
L 144.956292 252.048137 
L 145.875993 256.338985 
L 146.489127 258.113577 
L 146.795694 258.728788 
L 147.408828 255.071622 
L 147.715395 256.697029 
L 148.021962 256.920096 
L 148.635097 258.849557 
L 149.248231 260.055825 
L 149.861365 260.987877 
L 150.474499 261.894354 
L 151.087633 262.358959 
L 151.3942 262.772415 
L 151.700767 262.888922 
L 152.007335 263.251228 
L 152.313902 259.771663 
L 152.620469 258.458834 
L 152.927036 259.162135 
L 153.233603 260.337146 
L 153.54017 260.536059 
L 153.846737 257.170159 
L 154.153304 257.59214 
L 154.459871 258.988797 
L 154.766438 259.822812 
L 155.073005 255.686833 
L 155.379572 257.576511 
L 155.68614 258.217296 
L 156.299274 260.588629 
L 156.605841 254.15662 
L 156.912408 255.483657 
L 157.525542 258.818299 
L 157.832109 260.197906 
L 158.75181 262.035014 
L 159.058378 259.295692 
L 159.364945 257.886247 
L 159.978079 260.760547 
L 160.591213 262.552189 
L 161.817481 264.585369 
L 162.124048 265.088336 
L 162.430616 265.282987 
L 162.737183 265.821475 
L 164.576585 266.921182 
L 164.883152 266.783363 
L 166.109421 267.672791 
L 166.722555 268.114663 
L 167.029122 262.637438 
L 167.335689 262.479728 
L 167.642256 263.539653 
L 167.948823 260.661091 
L 168.25539 261.549097 
L 168.868524 263.950267 
L 169.481659 265.474797 
L 170.094793 266.686748 
L 170.40136 262.927283 
L 171.321061 266.099954 
L 171.627628 266.510568 
L 171.934195 265.457747 
L 172.547329 266.906974 
L 172.853896 264.120764 
L 173.160464 264.743079 
L 173.467031 259.149348 
L 173.773598 259.368153 
L 174.080165 260.946674 
L 174.386732 258.126364 
L 174.999866 262.258082 
L 175.613 264.69193 
L 176.226134 266.21646 
L 176.532702 266.561717 
L 177.452403 268.255323 
L 178.065537 268.819385 
L 178.372104 269.225737 
L 178.678671 268.283739 
L 179.291805 269.245628 
L 179.598372 269.447383 
L 179.904939 269.899201 
L 180.518074 270.339652 
L 180.824641 270.656493 
L 181.437775 264.11224 
L 182.050909 266.972331 
L 182.97061 268.938733 
L 184.196879 270.596819 
L 185.11658 271.307224 
L 185.423147 261.613034 
L 186.036281 265.946506 
L 186.649415 268.414454 
L 186.955982 269.244207 
L 187.26255 260.592892 
L 187.875684 265.192056 
L 188.488818 267.836184 
L 189.101952 269.264099 
L 189.408519 263.565227 
L 190.021653 267.381525 
L 190.634788 269.293936 
L 191.247922 270.842619 
L 191.861056 271.818716 
L 192.167623 272.065937 
L 192.780757 272.871537 
L 193.087324 273.05198 
L 193.393891 266.915499 
L 193.700458 264.497279 
L 194.007025 265.101124 
L 194.62016 267.777931 
L 194.926727 268.971412 
L 196.152995 271.619803 
L 196.459562 272.118507 
L 196.766129 272.367149 
L 197.072696 263.526866 
L 197.685831 267.971161 
L 198.298965 270.385118 
L 198.605532 271.321433 
L 198.912099 271.759042 
L 199.218666 272.745085 
L 199.8318 273.434178 
L 201.058069 274.864934 
L 201.364636 269.347927 
L 201.97777 263.660422 
L 202.897471 269.225737 
L 203.510605 271.382527 
L 204.430306 273.307726 
L 204.736874 268.523856 
L 205.350008 270.987542 
L 205.656575 270.042703 
L 206.269709 272.500705 
L 206.576276 273.296359 
L 206.882843 266.070117 
L 207.495977 270.449055 
L 207.802544 264.868111 
L 208.415679 269.333718 
L 209.028813 272.091512 
L 209.641947 273.445544 
L 209.948514 270.315499 
L 210.255081 271.821558 
L 210.561648 272.199493 
L 210.868215 271.855657 
L 211.481349 273.837688 
L 212.401051 275.546923 
L 212.707618 275.912072 
L 213.014185 268.246798 
L 213.320752 270.254404 
L 213.627319 265.652398 
L 213.933886 268.418716 
L 214.54702 271.540237 
L 215.160155 273.47254 
L 215.466722 274.137479 
L 215.773289 272.797655 
L 216.69299 275.411946 
L 217.612691 276.613952 
L 217.919258 271.564391 
L 218.532392 274.445795 
L 219.145527 275.643538 
L 219.452094 271.977847 
L 219.758661 271.342745 
L 220.065228 269.014036 
L 220.678362 272.904216 
L 221.598063 275.73447 
L 221.90463 276.595481 
L 222.824332 277.844374 
L 224.663734 279.356116 
L 224.970301 277.608519 
L 225.276868 278.215206 
L 225.583435 278.57325 
L 225.890003 275.777095 
L 226.503137 277.66251 
L 227.116271 278.705385 
L 227.729405 279.39732 
L 228.342539 279.83493 
L 228.649106 279.925862 
L 228.955673 280.20434 
L 229.262241 280.278223 
L 229.568808 280.619217 
L 232.021344 281.612364 
L 232.327911 281.474545 
L 232.941046 281.859585 
L 233.247613 281.872372 
L 233.55418 282.11391 
L 233.860747 282.152272 
L 234.167314 276.59264 
L 234.473881 274.165895 
L 235.393582 277.524692 
L 235.700149 272.813284 
L 236.313284 276.280062 
L 236.926418 278.181106 
L 237.232985 278.641449 
L 237.846119 279.924441 
L 238.152686 280.34358 
L 238.459253 280.511235 
L 238.76582 280.897696 
L 239.072387 280.911904 
L 239.685522 281.743078 
L 240.298656 282.051394 
L 240.605223 282.369656 
L 240.91179 281.632255 
L 241.831491 282.538732 
L 242.138058 282.650976 
L 242.751192 271.263179 
L 243.057759 273.587625 
L 243.364327 270.156368 
L 243.977461 274.4188 
L 244.590595 276.878223 
L 244.897162 274.637604 
L 245.203729 273.675716 
L 245.816863 276.797237 
L 246.429997 278.659919 
L 247.349699 280.173083 
L 247.656266 280.879225 
L 247.962833 281.018465 
L 248.575967 281.662092 
L 249.802235 282.608352 
L 250.108802 282.011611 
L 251.028504 283.0076 
L 251.335071 283.111319 
L 251.948205 283.563137 
L 252.254772 283.591553 
L 253.174473 284.034846 
L 253.48104 283.985117 
L 253.787608 284.202501 
L 254.094175 284.193977 
L 254.707309 284.431252 
L 255.013876 284.411361 
L 255.62701 284.60317 
L 256.853278 284.84897 
L 257.466413 285.002418 
L 257.77298 285.029413 
L 258.386114 285.296526 
L 258.999248 285.518172 
L 259.612382 285.361883 
L 259.918949 277.010358 
L 260.225516 277.111236 
L 260.838651 280.062259 
L 261.145218 280.964474 
L 261.451785 281.433342 
L 262.064919 282.572832 
L 262.371486 280.464349 
L 262.678053 279.214035 
L 263.597754 281.319677 
L 264.210888 282.65808 
L 264.824023 283.335807 
L 265.13059 282.00877 
L 265.743724 283.344332 
L 267.276559 284.736726 
L 267.583126 279.270868 
L 267.889694 280.499869 
L 268.196261 274.9104 
L 268.502828 274.546673 
L 269.115962 278.148427 
L 269.729096 280.451561 
L 270.035663 281.082401 
L 270.34223 280.158874 
L 270.648797 281.23727 
L 270.955364 279.736894 
L 271.261931 280.813868 
L 271.568499 279.211194 
L 272.181633 281.548427 
L 272.4882 282.118172 
L 272.794767 281.382192 
L 273.101334 280.228494 
L 273.714468 282.209104 
L 275.247304 284.510817 
L 275.860438 284.762301 
L 276.473572 285.327783 
L 276.780139 285.428661 
L 277.393273 285.79523 
L 278.312975 286.244206 
L 278.619542 281.788544 
L 278.926109 279.456994 
L 279.232676 276.047049 
L 279.539243 278.425486 
L 280.152377 281.130709 
L 280.458944 274.614871 
L 280.765511 277.213534 
L 281.072078 276.561382 
L 281.378645 277.52185 
L 281.685212 277.99498 
L 282.298347 280.876384 
L 282.911481 282.489004 
L 283.524615 283.698114 
L 284.137749 284.355949 
L 284.444316 284.908644 
L 285.05745 285.340571 
L 285.364018 285.636099 
L 285.670585 280.281064 
L 285.977152 281.940571 
L 286.283719 282.872623 
L 286.590286 281.686246 
L 287.20342 283.494938 
L 287.509987 283.855824 
L 288.123121 284.993893 
L 288.429688 285.495439 
L 289.655957 286.471536 
L 290.269091 286.711653 
L 290.882225 287.125109 
L 291.188792 285.83075 
L 291.495359 286.369238 
L 292.108493 274.908979 
L 292.721628 279.525193 
L 293.334762 282.153693 
L 293.947896 283.580186 
L 294.254463 284.176927 
L 294.56103 284.49803 
L 295.174164 285.540905 
L 297.013567 287.001498 
L 297.626701 287.159208 
L 297.933268 285.599158 
L 299.159536 287.373751 
L 299.772671 287.902292 
L 300.079238 287.781523 
L 300.692372 288.264599 
L 300.998939 288.328535 
L 301.305506 288.071369 
L 301.612073 288.177929 
L 302.225207 288.646797 
L 302.531774 288.778932 
L 302.838341 287.493099 
L 303.451476 288.327115 
L 303.758043 282.9735 
L 304.06461 280.991469 
L 304.677744 284.174085 
L 305.597445 286.310984 
L 305.904012 286.785535 
L 306.517147 287.306973 
L 306.823714 287.714745 
L 307.130281 282.523103 
L 307.436848 283.256242 
L 307.743415 284.370157 
L 308.049982 282.567148 
L 308.663116 285.280897 
L 309.582817 287.19757 
L 310.195952 288.102627 
L 310.502519 288.125359 
L 310.809086 287.981858 
L 311.115653 285.425819 
L 311.728787 287.216041 
L 312.341921 281.866689 
L 312.648488 277.264683 
L 313.261622 281.784282 
L 313.56819 283.406847 
L 313.874757 284.328954 
L 314.181324 282.466271 
L 314.487891 284.054737 
L 314.794458 283.365644 
L 315.407592 285.484073 
L 315.714159 286.281147 
L 316.940428 288.241866 
L 317.246995 282.419384 
L 317.553562 283.105636 
L 317.860129 284.716835 
L 318.473263 286.552522 
L 318.77983 278.149848 
L 319.086397 280.81671 
L 319.392964 279.336225 
L 320.006098 283.117002 
L 320.619233 285.296526 
L 320.9258 286.014035 
L 321.232367 284.458247 
L 321.845501 286.622142 
L 322.152068 287.10948 
L 322.458635 283.637019 
L 322.765202 285.180019 
L 323.071769 282.244624 
L 323.378336 281.608101 
L 323.991471 284.775088 
L 324.604605 286.643454 
L 324.911172 281.461758 
L 325.524306 285.224064 
L 326.13744 287.198991 
L 327.057141 288.751937 
L 327.363708 287.196149 
L 327.976843 288.491929 
L 328.589977 289.629998 
L 328.896544 289.202334 
L 329.816245 290.331878 
L 330.429379 290.898782 
L 330.735946 290.96556 
L 331.349081 291.471368 
L 332.268782 291.673124 
L 332.575349 292.008435 
L 332.881916 291.926028 
L 333.49505 292.048218 
L 333.801617 292.251393 
L 335.027886 292.481565 
L 335.334453 292.430416 
L 335.947587 292.640696 
L 337.786989 292.883654 
L 338.093557 293.071201 
L 338.400124 293.011527 
L 339.013258 293.081147 
L 339.626392 293.119509 
L 339.932959 293.26159 
L 340.239526 292.004172 
L 340.546093 286.943245 
L 341.159227 289.465184 
L 341.772362 290.711235 
L 342.692063 291.816625 
L 342.99863 291.99991 
L 343.305197 289.708142 
L 343.611764 290.569154 
L 344.531465 291.903295 
L 345.1446 292.269864 
L 345.451167 290.769488 
L 345.757734 290.608936 
L 346.064301 291.259668 
L 346.677435 285.160128 
L 347.290569 288.129622 
L 347.903703 289.644206 
L 348.516837 290.758122 
L 348.823405 290.964139 
L 349.129972 291.309396 
L 349.436539 286.931879 
L 349.743106 287.474628 
L 350.35624 289.82607 
L 350.662807 290.005092 
L 351.275941 290.962718 
L 351.582508 284.125778 
L 352.195643 287.7048 
L 352.50221 288.997737 
L 353.421911 291.040863 
L 353.728478 291.266772 
L 354.648179 292.478723 
L 355.567881 292.907808 
L 355.874448 293.182024 
L 356.487582 293.324105 
L 356.794149 286.046714 
L 357.100716 287.805677 
L 357.407283 282.631085 
L 358.020417 286.781273 
L 358.326984 288.025903 
L 358.633551 281.62373 
L 358.940118 284.506555 
L 359.246686 286.241365 
L 359.553253 285.064933 
L 359.85982 285.806597 
L 360.166387 284.699785 
L 360.779521 287.751686 
L 361.392655 289.574586 
L 362.005789 290.888836 
L 362.618924 291.569404 
L 363.232058 292.167566 
L 364.458326 293.126613 
L 364.764893 293.113825 
L 365.07146 293.260169 
L 365.378027 288.456408 
L 365.684594 289.523437 
L 365.991161 289.068778 
L 366.297729 287.588293 
L 366.604296 288.283069 
L 366.910863 289.517754 
L 367.21743 288.614118 
L 367.830564 290.364557 
L 368.137131 291.025234 
L 368.443698 287.699116 
L 369.056832 290.039191 
L 369.363399 285.569321 
L 369.669967 286.630667 
L 369.976534 288.094102 
L 370.283101 287.737478 
L 370.589668 288.834344 
L 370.896235 288.861339 
L 371.509369 290.333299 
L 372.42907 291.73706 
L 373.348772 292.609438 
L 373.655339 292.976007 
L 373.961906 293.126613 
L 374.268473 287.790048 
L 374.57504 288.585702 
L 374.881607 287.227407 
L 375.801308 290.863261 
L 376.414442 292.107892 
L 377.027577 292.679057 
L 377.334144 293.061255 
L 377.640711 287.638021 
L 377.947278 286.681816 
L 378.560412 289.459501 
L 379.173546 291.016709 
L 380.093247 292.509981 
L 380.399815 292.679057 
L 381.012949 293.31416 
L 382.545784 294.179433 
L 382.852351 294.189379 
L 383.158918 294.469279 
L 383.465485 294.449387 
L 384.07862 294.631251 
L 385.611455 295.311819 
L 385.918022 295.243621 
L 386.224589 295.407014 
L 386.531156 295.280562 
L 386.837723 295.488 
L 387.14429 288.139568 
L 387.450858 289.917002 
L 387.757425 287.476049 
L 388.370559 290.374503 
L 388.677126 291.315079 
L 388.983693 291.812363 
L 389.29026 287.294185 
L 389.903394 290.635932 
L 390.209961 291.688752 
L 390.823096 292.818297 
L 391.129663 285.925945 
L 391.43623 288.185034 
L 392.049364 290.780854 
L 392.355931 291.531042 
L 392.662498 291.376174 
L 393.275632 292.75294 
L 393.888766 293.555698 
L 395.115035 294.625568 
L 395.728169 294.948092 
L 396.034736 288.523186 
L 396.341303 285.727031 
L 396.64787 284.634428 
L 397.261004 288.753358 
L 397.874139 291.009605 
L 398.487273 292.309647 
L 398.487273 292.309647 
" style="fill:none;stroke:#1f77b4;stroke-linecap:square;stroke-width:1.5;"/>
   </g>
   <g id="line2d_15">
    <path clip-path="url(#pcf5570e774)" d="M 73.832727 53.568 
L 74.139294 81.584964 
L 74.445861 96.710914 
L 75.058996 112.892526 
L 75.67213 122.552617 
L 76.285264 129.129549 
L 76.898398 133.913419 
L 78.124666 141.097037 
L 79.657502 148.404266 
L 80.577203 152.383956 
L 81.190337 154.535064 
L 81.803472 157.869706 
L 84.256008 180.246052 
L 84.562575 182.606019 
L 84.869142 183.06352 
L 85.482277 188.326202 
L 85.788844 189.009612 
L 86.708545 195.759883 
L 87.628246 199.6458 
L 87.934813 199.095946 
L 88.547947 202.554199 
L 88.854515 203.909653 
L 89.161082 202.402173 
L 89.467649 203.182198 
L 89.774216 205.350355 
L 90.080783 205.276473 
L 91.000484 210.686919 
L 91.307051 211.067697 
L 91.613618 212.609276 
L 91.920185 212.749936 
L 92.53332 215.288925 
L 92.839887 213.802757 
L 93.146454 213.170496 
L 93.759588 216.385791 
L 94.372722 218.937567 
L 94.679289 218.36498 
L 94.985856 217.502548 
L 95.292423 218.001252 
L 95.59899 219.004345 
L 96.518692 223.072125 
L 96.825259 223.884829 
L 97.131826 223.512577 
L 97.438393 221.997993 
L 98.051527 224.889342 
L 98.664661 226.912576 
L 98.971228 224.294022 
L 99.277796 226.050144 
L 99.89093 227.348765 
L 100.504064 229.619221 
L 100.810631 225.63953 
L 101.423765 228.924444 
L 101.730332 230.160549 
L 102.036899 229.313746 
L 102.343466 230.596738 
L 102.650033 229.39047 
L 102.956601 230.846801 
L 103.263168 229.973002 
L 103.569735 231.575677 
L 103.876302 231.554365 
L 104.489436 233.885915 
L 105.10257 235.629249 
L 105.409137 234.827912 
L 105.715704 233.402839 
L 106.328839 235.879312 
L 106.635406 231.430754 
L 106.941973 232.055911 
L 107.24854 233.915752 
L 107.861674 236.200415 
L 108.168241 233.257917 
L 108.474808 235.026826 
L 109.701076 239.250896 
L 110.007644 239.441284 
L 110.620778 241.150519 
L 111.233912 242.113829 
L 112.153613 243.767653 
L 113.073314 244.88583 
L 113.686449 245.560716 
L 116.445552 247.751605 
L 117.058687 248.257414 
L 117.671821 248.660924 
L 117.978388 248.560047 
L 120.124357 249.732215 
L 120.430925 242.684995 
L 120.737492 243.288839 
L 121.350626 245.465521 
L 121.657193 241.015542 
L 122.270327 242.160716 
L 122.883461 244.804844 
L 123.496595 246.579437 
L 124.10973 247.515751 
L 124.416297 248.429332 
L 124.722864 248.70639 
L 125.335998 249.659754 
L 125.949132 250.226658 
L 126.255699 250.712575 
L 126.562266 250.907226 
L 127.1754 251.454238 
L 127.481968 251.583532 
L 127.788535 252.021141 
L 128.095102 251.745504 
L 128.708236 252.336561 
L 129.627937 252.857999 
L 129.934504 253.274296 
L 130.241071 253.419219 
L 130.547638 247.734556 
L 130.854206 245.618969 
L 131.160773 244.925613 
L 131.46734 245.404426 
L 132.080474 247.785705 
L 132.387041 248.68934 
L 132.693608 248.608354 
L 133.306742 250.317589 
L 134.839578 252.767067 
L 135.146145 253.01713 
L 135.759279 253.746005 
L 136.065846 254.06995 
L 136.67898 254.328538 
L 136.985547 254.558709 
L 137.292114 248.535893 
L 137.598681 245.914497 
L 138.211816 249.345755 
L 138.518383 244.86736 
L 138.82495 247.132132 
L 139.131517 246.980105 
L 139.744651 250.152775 
L 140.357785 252.016879 
L 141.277486 253.892349 
L 141.890621 254.750518 
L 142.197188 255.223648 
L 142.503755 254.190719 
L 143.116889 255.476553 
L 143.730023 256.130126 
L 144.03659 256.543581 
L 144.343157 254.932382 
L 144.956292 256.34893 
L 145.262859 254.754781 
L 145.569426 255.617213 
L 145.875993 254.969323 
L 146.795694 257.22415 
L 147.102261 251.467025 
L 147.408828 253.349599 
L 148.021962 255.476553 
L 148.328529 254.780356 
L 148.941664 256.883155 
L 150.167932 258.916335 
L 150.474499 259.454822 
L 152.313902 261.249306 
L 152.620469 261.289089 
L 152.927036 259.267275 
L 153.233603 259.763138 
L 153.54017 251.276637 
L 154.153304 255.33163 
L 155.073005 258.673377 
L 155.68614 260.020305 
L 155.992707 259.464768 
L 156.299274 255.659837 
L 156.605841 253.853987 
L 156.912408 253.539988 
L 157.525542 256.782278 
L 157.832109 258.015541 
L 158.75181 260.148178 
L 159.978079 261.908562 
L 160.284646 262.468362 
L 160.591213 262.583447 
L 160.89778 262.907392 
L 161.204347 258.730209 
L 161.510914 258.53982 
L 162.124048 260.830167 
L 162.430616 261.370075 
L 163.04375 262.765311 
L 163.656884 263.739987 
L 163.963451 263.982946 
L 164.270018 255.095775 
L 164.576585 254.234764 
L 165.189719 258.123523 
L 165.802853 260.182277 
L 166.722555 262.367484 
L 167.029122 262.688587 
L 167.642256 263.633426 
L 168.561957 264.72603 
L 169.175091 265.277304 
L 169.481659 265.579937 
L 170.094793 265.821475 
L 171.014494 266.565979 
L 171.321061 266.639862 
L 171.627628 266.976594 
L 172.547329 267.223815 
L 172.547329 267.223815 
" style="fill:none;stroke:#ff7f0e;stroke-linecap:square;stroke-width:1.5;"/>
   </g>
   <g id="patch_3">
    <path d="M 57.6 307.584 
L 57.6 41.472 
" style="fill:none;stroke:#000000;stroke-linecap:square;stroke-linejoin:miter;stroke-width:0.8;"/>
   </g>
   <g id="patch_4">
    <path d="M 414.72 307.584 
L 414.72 41.472 
" style="fill:none;stroke:#000000;stroke-linecap:square;stroke-linejoin:miter;stroke-width:0.8;"/>
   </g>
   <g id="patch_5">
    <path d="M 57.6 307.584 
L 414.72 307.584 
" style="fill:none;stroke:#000000;stroke-linecap:square;stroke-linejoin:miter;stroke-width:0.8;"/>
   </g>
   <g id="patch_6">
    <path d="M 57.6 41.472 
L 414.72 41.472 
" style="fill:none;stroke:#000000;stroke-linecap:square;stroke-linejoin:miter;stroke-width:0.8;"/>
   </g>
   <g id="text_16">
    <!-- Average fitness over 60 seconds for52cities -->
    <defs>
     <path d="M 48.78125 52.59375 
L 48.78125 44.1875 
Q 44.96875 46.296875 41.140625 47.34375 
Q 37.3125 48.390625 33.40625 48.390625 
Q 24.65625 48.390625 19.8125 42.84375 
Q 14.984375 37.3125 14.984375 27.296875 
Q 14.984375 17.28125 19.8125 11.734375 
Q 24.65625 6.203125 33.40625 6.203125 
Q 37.3125 6.203125 41.140625 7.25 
Q 44.96875 8.296875 48.78125 10.40625 
L 48.78125 2.09375 
Q 45.015625 0.34375 40.984375 -0.53125 
Q 36.96875 -1.421875 32.421875 -1.421875 
Q 20.0625 -1.421875 12.78125 6.34375 
Q 5.515625 14.109375 5.515625 27.296875 
Q 5.515625 40.671875 12.859375 48.328125 
Q 20.21875 56 33.015625 56 
Q 37.15625 56 41.109375 55.140625 
Q 45.0625 54.296875 48.78125 52.59375 
z
" id="DejaVuSans-63"/>
     <path d="M 45.40625 46.390625 
L 45.40625 75.984375 
L 54.390625 75.984375 
L 54.390625 0 
L 45.40625 0 
L 45.40625 8.203125 
Q 42.578125 3.328125 38.25 0.953125 
Q 33.9375 -1.421875 27.875 -1.421875 
Q 17.96875 -1.421875 11.734375 6.484375 
Q 5.515625 14.40625 5.515625 27.296875 
Q 5.515625 40.1875 11.734375 48.09375 
Q 17.96875 56 27.875 56 
Q 33.9375 56 38.25 53.625 
Q 42.578125 51.265625 45.40625 46.390625 
z
M 14.796875 27.296875 
Q 14.796875 17.390625 18.875 11.75 
Q 22.953125 6.109375 30.078125 6.109375 
Q 37.203125 6.109375 41.296875 11.75 
Q 45.40625 17.390625 45.40625 27.296875 
Q 45.40625 37.203125 41.296875 42.84375 
Q 37.203125 48.484375 30.078125 48.484375 
Q 22.953125 48.484375 18.875 42.84375 
Q 14.796875 37.203125 14.796875 27.296875 
z
" id="DejaVuSans-64"/>
    </defs>
    <g transform="translate(104.533125 35.472)scale(0.12 -0.12)">
     <use xlink:href="#DejaVuSans-41"/>
     <use x="68.330078" xlink:href="#DejaVuSans-76"/>
     <use x="127.509766" xlink:href="#DejaVuSans-65"/>
     <use x="189.033203" xlink:href="#DejaVuSans-72"/>
     <use x="230.146484" xlink:href="#DejaVuSans-61"/>
     <use x="291.425781" xlink:href="#DejaVuSans-67"/>
     <use x="354.902344" xlink:href="#DejaVuSans-65"/>
     <use x="416.425781" xlink:href="#DejaVuSans-20"/>
     <use x="448.212891" xlink:href="#DejaVuSans-66"/>
     <use x="483.417969" xlink:href="#DejaVuSans-69"/>
     <use x="511.201172" xlink:href="#DejaVuSans-74"/>
     <use x="550.410156" xlink:href="#DejaVuSans-6e"/>
     <use x="613.789062" xlink:href="#DejaVuSans-65"/>
     <use x="675.3125" xlink:href="#DejaVuSans-73"/>
     <use x="727.412109" xlink:href="#DejaVuSans-73"/>
     <use x="779.511719" xlink:href="#DejaVuSans-20"/>
     <use x="811.298828" xlink:href="#DejaVuSans-6f"/>
     <use x="872.480469" xlink:href="#DejaVuSans-76"/>
     <use x="931.660156" xlink:href="#DejaVuSans-65"/>
     <use x="993.183594" xlink:href="#DejaVuSans-72"/>
     <use x="1034.296875" xlink:href="#DejaVuSans-20"/>
     <use x="1066.083984" xlink:href="#DejaVuSans-36"/>
     <use x="1129.707031" xlink:href="#DejaVuSans-30"/>
     <use x="1193.330078" xlink:href="#DejaVuSans-20"/>
     <use x="1225.117188" xlink:href="#DejaVuSans-73"/>
     <use x="1277.216797" xlink:href="#DejaVuSans-65"/>
     <use x="1338.740234" xlink:href="#DejaVuSans-63"/>
     <use x="1393.720703" xlink:href="#DejaVuSans-6f"/>
     <use x="1454.902344" xlink:href="#DejaVuSans-6e"/>
     <use x="1518.28125" xlink:href="#DejaVuSans-64"/>
     <use x="1581.757812" xlink:href="#DejaVuSans-73"/>
     <use x="1633.857422" xlink:href="#DejaVuSans-20"/>
     <use x="1665.644531" xlink:href="#DejaVuSans-66"/>
     <use x="1700.849609" xlink:href="#DejaVuSans-6f"/>
     <use x="1762.03125" xlink:href="#DejaVuSans-72"/>
     <use x="1803.144531" xlink:href="#DejaVuSans-35"/>
     <use x="1866.767578" xlink:href="#DejaVuSans-32"/>
     <use x="1930.390625" xlink:href="#DejaVuSans-63"/>
     <use x="1985.371094" xlink:href="#DejaVuSans-69"/>
     <use x="2013.154297" xlink:href="#DejaVuSans-74"/>
     <use x="2052.363281" xlink:href="#DejaVuSans-69"/>
     <use x="2080.146484" xlink:href="#DejaVuSans-65"/>
     <use x="2141.669922" xlink:href="#DejaVuSans-73"/>
    </g>
   </g>
   <g id="legend_1">
    <g id="patch_7">
     <path d="M 105.75125 78.82825 
L 407.72 78.82825 
Q 409.72 78.82825 409.72 76.82825 
L 409.72 48.472 
Q 409.72 46.472 407.72 46.472 
L 105.75125 46.472 
Q 103.75125 46.472 103.75125 48.472 
L 103.75125 76.82825 
Q 103.75125 78.82825 105.75125 78.82825 
z
" style="fill:#ffffff;opacity:0.8;stroke:#cccccc;stroke-linejoin:miter;"/>
    </g>
    <g id="patch_8">
     <path d="M 107.75125 58.070437 
L 127.75125 58.070437 
L 127.75125 51.070437 
L 107.75125 51.070437 
z
" style="fill:#87ceeb;stroke:#87ceeb;stroke-linejoin:miter;"/>
    </g>
    <g id="text_17">
     <!-- Parallel min, 11142.4 Last Generation number 1061.0 -->
     <defs>
      <path d="M 19.671875 64.796875 
L 19.671875 37.40625 
L 32.078125 37.40625 
Q 38.96875 37.40625 42.71875 40.96875 
Q 46.484375 44.53125 46.484375 51.125 
Q 46.484375 57.671875 42.71875 61.234375 
Q 38.96875 64.796875 32.078125 64.796875 
z
M 9.8125 72.90625 
L 32.078125 72.90625 
Q 44.34375 72.90625 50.609375 67.359375 
Q 56.890625 61.8125 56.890625 51.125 
Q 56.890625 40.328125 50.609375 34.8125 
Q 44.34375 29.296875 32.078125 29.296875 
L 19.671875 29.296875 
L 19.671875 0 
L 9.8125 0 
z
" id="DejaVuSans-50"/>
      <path d="M 9.421875 75.984375 
L 18.40625 75.984375 
L 18.40625 0 
L 9.421875 0 
z
" id="DejaVuSans-6c"/>
      <path d="M 11.71875 12.40625 
L 22.015625 12.40625 
L 22.015625 4 
L 14.015625 -11.625 
L 7.71875 -11.625 
L 11.71875 4 
z
" id="DejaVuSans-2c"/>
      <path d="M 10.6875 12.40625 
L 21 12.40625 
L 21 0 
L 10.6875 0 
z
" id="DejaVuSans-2e"/>
      <path d="M 9.8125 72.90625 
L 19.671875 72.90625 
L 19.671875 8.296875 
L 55.171875 8.296875 
L 55.171875 0 
L 9.8125 0 
z
" id="DejaVuSans-4c"/>
     </defs>
     <g transform="translate(135.75125 58.070437)scale(0.1 -0.1)">
      <use xlink:href="#DejaVuSans-50"/>
      <use x="60.240234" xlink:href="#DejaVuSans-61"/>
      <use x="121.519531" xlink:href="#DejaVuSans-72"/>
      <use x="162.632812" xlink:href="#DejaVuSans-61"/>
      <use x="223.912109" xlink:href="#DejaVuSans-6c"/>
      <use x="251.695312" xlink:href="#DejaVuSans-6c"/>
      <use x="279.478516" xlink:href="#DejaVuSans-65"/>
      <use x="341.001953" xlink:href="#DejaVuSans-6c"/>
      <use x="368.785156" xlink:href="#DejaVuSans-20"/>
      <use x="400.572266" xlink:href="#DejaVuSans-6d"/>
      <use x="497.984375" xlink:href="#DejaVuSans-69"/>
      <use x="525.767578" xlink:href="#DejaVuSans-6e"/>
      <use x="589.146484" xlink:href="#DejaVuSans-2c"/>
      <use x="620.933594" xlink:href="#DejaVuSans-20"/>
      <use x="652.720703" xlink:href="#DejaVuSans-31"/>
      <use x="716.34375" xlink:href="#DejaVuSans-31"/>
      <use x="779.966797" xlink:href="#DejaVuSans-31"/>
      <use x="843.589844" xlink:href="#DejaVuSans-34"/>
      <use x="907.212891" xlink:href="#DejaVuSans-32"/>
      <use x="970.835938" xlink:href="#DejaVuSans-2e"/>
      <use x="1002.623047" xlink:href="#DejaVuSans-34"/>
      <use x="1066.246094" xlink:href="#DejaVuSans-20"/>
      <use x="1098.033203" xlink:href="#DejaVuSans-4c"/>
      <use x="1153.746094" xlink:href="#DejaVuSans-61"/>
      <use x="1215.025391" xlink:href="#DejaVuSans-73"/>
      <use x="1267.125" xlink:href="#DejaVuSans-74"/>
      <use x="1306.333984" xlink:href="#DejaVuSans-20"/>
      <use x="1338.121094" xlink:href="#DejaVuSans-47"/>
      <use x="1415.611328" xlink:href="#DejaVuSans-65"/>
      <use x="1477.134766" xlink:href="#DejaVuSans-6e"/>
      <use x="1540.513672" xlink:href="#DejaVuSans-65"/>
      <use x="1602.037109" xlink:href="#DejaVuSans-72"/>
      <use x="1643.150391" xlink:href="#DejaVuSans-61"/>
      <use x="1704.429688" xlink:href="#DejaVuSans-74"/>
      <use x="1743.638672" xlink:href="#DejaVuSans-69"/>
      <use x="1771.421875" xlink:href="#DejaVuSans-6f"/>
      <use x="1832.603516" xlink:href="#DejaVuSans-6e"/>
      <use x="1895.982422" xlink:href="#DejaVuSans-20"/>
      <use x="1927.769531" xlink:href="#DejaVuSans-6e"/>
      <use x="1991.148438" xlink:href="#DejaVuSans-75"/>
      <use x="2054.527344" xlink:href="#DejaVuSans-6d"/>
      <use x="2151.939453" xlink:href="#DejaVuSans-62"/>
      <use x="2215.416016" xlink:href="#DejaVuSans-65"/>
      <use x="2276.939453" xlink:href="#DejaVuSans-72"/>
      <use x="2318.052734" xlink:href="#DejaVuSans-20"/>
      <use x="2349.839844" xlink:href="#DejaVuSans-31"/>
      <use x="2413.462891" xlink:href="#DejaVuSans-30"/>
      <use x="2477.085938" xlink:href="#DejaVuSans-36"/>
      <use x="2540.708984" xlink:href="#DejaVuSans-31"/>
      <use x="2604.332031" xlink:href="#DejaVuSans-2e"/>
      <use x="2636.119141" xlink:href="#DejaVuSans-30"/>
     </g>
    </g>
    <g id="patch_9">
     <path d="M 107.75125 72.748562 
L 127.75125 72.748562 
L 127.75125 65.748562 
L 107.75125 65.748562 
z
" style="fill:#ffa500;stroke:#ffa500;stroke-linejoin:miter;"/>
    </g>
    <g id="text_18">
     <!-- Serial min, 13131.7 Last Generation number 324.0 -->
     <defs>
      <path d="M 53.515625 70.515625 
L 53.515625 60.890625 
Q 47.90625 63.578125 42.921875 64.890625 
Q 37.9375 66.21875 33.296875 66.21875 
Q 25.25 66.21875 20.875 63.09375 
Q 16.5 59.96875 16.5 54.203125 
Q 16.5 49.359375 19.40625 46.890625 
Q 22.3125 44.4375 30.421875 42.921875 
L 36.375 41.703125 
Q 47.40625 39.59375 52.65625 34.296875 
Q 57.90625 29 57.90625 20.125 
Q 57.90625 9.515625 50.796875 4.046875 
Q 43.703125 -1.421875 29.984375 -1.421875 
Q 24.8125 -1.421875 18.96875 -0.25 
Q 13.140625 0.921875 6.890625 3.21875 
L 6.890625 13.375 
Q 12.890625 10.015625 18.65625 8.296875 
Q 24.421875 6.59375 29.984375 6.59375 
Q 38.421875 6.59375 43.015625 9.90625 
Q 47.609375 13.234375 47.609375 19.390625 
Q 47.609375 24.75 44.3125 27.78125 
Q 41.015625 30.8125 33.5 32.328125 
L 27.484375 33.5 
Q 16.453125 35.6875 11.515625 40.375 
Q 6.59375 45.0625 6.59375 53.421875 
Q 6.59375 63.09375 13.40625 68.65625 
Q 20.21875 74.21875 32.171875 74.21875 
Q 37.3125 74.21875 42.625 73.28125 
Q 47.953125 72.359375 53.515625 70.515625 
z
" id="DejaVuSans-53"/>
      <path d="M 40.578125 39.3125 
Q 47.65625 37.796875 51.625 33 
Q 55.609375 28.21875 55.609375 21.1875 
Q 55.609375 10.40625 48.1875 4.484375 
Q 40.765625 -1.421875 27.09375 -1.421875 
Q 22.515625 -1.421875 17.65625 -0.515625 
Q 12.796875 0.390625 7.625 2.203125 
L 7.625 11.71875 
Q 11.71875 9.328125 16.59375 8.109375 
Q 21.484375 6.890625 26.8125 6.890625 
Q 36.078125 6.890625 40.9375 10.546875 
Q 45.796875 14.203125 45.796875 21.1875 
Q 45.796875 27.640625 41.28125 31.265625 
Q 36.765625 34.90625 28.71875 34.90625 
L 20.21875 34.90625 
L 20.21875 43.015625 
L 29.109375 43.015625 
Q 36.375 43.015625 40.234375 45.921875 
Q 44.09375 48.828125 44.09375 54.296875 
Q 44.09375 59.90625 40.109375 62.90625 
Q 36.140625 65.921875 28.71875 65.921875 
Q 24.65625 65.921875 20.015625 65.03125 
Q 15.375 64.15625 9.8125 62.3125 
L 9.8125 71.09375 
Q 15.4375 72.65625 20.34375 73.4375 
Q 25.25 74.21875 29.59375 74.21875 
Q 40.828125 74.21875 47.359375 69.109375 
Q 53.90625 64.015625 53.90625 55.328125 
Q 53.90625 49.265625 50.4375 45.09375 
Q 46.96875 40.921875 40.578125 39.3125 
z
" id="DejaVuSans-33"/>
     </defs>
     <g transform="translate(135.75125 72.748562)scale(0.1 -0.1)">
      <use xlink:href="#DejaVuSans-53"/>
      <use x="63.476562" xlink:href="#DejaVuSans-65"/>
      <use x="125" xlink:href="#DejaVuSans-72"/>
      <use x="166.113281" xlink:href="#DejaVuSans-69"/>
      <use x="193.896484" xlink:href="#DejaVuSans-61"/>
      <use x="255.175781" xlink:href="#DejaVuSans-6c"/>
      <use x="282.958984" xlink:href="#DejaVuSans-20"/>
      <use x="314.746094" xlink:href="#DejaVuSans-6d"/>
      <use x="412.158203" xlink:href="#DejaVuSans-69"/>
      <use x="439.941406" xlink:href="#DejaVuSans-6e"/>
      <use x="503.320312" xlink:href="#DejaVuSans-2c"/>
      <use x="535.107422" xlink:href="#DejaVuSans-20"/>
      <use x="566.894531" xlink:href="#DejaVuSans-31"/>
      <use x="630.517578" xlink:href="#DejaVuSans-33"/>
      <use x="694.140625" xlink:href="#DejaVuSans-31"/>
      <use x="757.763672" xlink:href="#DejaVuSans-33"/>
      <use x="821.386719" xlink:href="#DejaVuSans-31"/>
      <use x="885.009766" xlink:href="#DejaVuSans-2e"/>
      <use x="916.796875" xlink:href="#DejaVuSans-37"/>
      <use x="980.419922" xlink:href="#DejaVuSans-20"/>
      <use x="1012.207031" xlink:href="#DejaVuSans-4c"/>
      <use x="1067.919922" xlink:href="#DejaVuSans-61"/>
      <use x="1129.199219" xlink:href="#DejaVuSans-73"/>
      <use x="1181.298828" xlink:href="#DejaVuSans-74"/>
      <use x="1220.507812" xlink:href="#DejaVuSans-20"/>
      <use x="1252.294922" xlink:href="#DejaVuSans-47"/>
      <use x="1329.785156" xlink:href="#DejaVuSans-65"/>
      <use x="1391.308594" xlink:href="#DejaVuSans-6e"/>
      <use x="1454.6875" xlink:href="#DejaVuSans-65"/>
      <use x="1516.210938" xlink:href="#DejaVuSans-72"/>
      <use x="1557.324219" xlink:href="#DejaVuSans-61"/>
      <use x="1618.603516" xlink:href="#DejaVuSans-74"/>
      <use x="1657.8125" xlink:href="#DejaVuSans-69"/>
      <use x="1685.595703" xlink:href="#DejaVuSans-6f"/>
      <use x="1746.777344" xlink:href="#DejaVuSans-6e"/>
      <use x="1810.15625" xlink:href="#DejaVuSans-20"/>
      <use x="1841.943359" xlink:href="#DejaVuSans-6e"/>
      <use x="1905.322266" xlink:href="#DejaVuSans-75"/>
      <use x="1968.701172" xlink:href="#DejaVuSans-6d"/>
      <use x="2066.113281" xlink:href="#DejaVuSans-62"/>
      <use x="2129.589844" xlink:href="#DejaVuSans-65"/>
      <use x="2191.113281" xlink:href="#DejaVuSans-72"/>
      <use x="2232.226562" xlink:href="#DejaVuSans-20"/>
      <use x="2264.013672" xlink:href="#DejaVuSans-33"/>
      <use x="2327.636719" xlink:href="#DejaVuSans-32"/>
      <use x="2391.259766" xlink:href="#DejaVuSans-34"/>
      <use x="2454.882812" xlink:href="#DejaVuSans-2e"/>
      <use x="2486.669922" xlink:href="#DejaVuSans-30"/>
     </g>
    </g>
   </g>
  </g>
 </g>
 <defs>
  <clipPath id="pcf5570e774">
   <rect height="266.112" width="357.12" x="57.6" y="41.472"/>
  </clipPath>
 </defs>
</svg>
