<?xml version="1.0" encoding="utf-8" standalone="no"?>
<!DOCTYPE svg PUBLIC "-//W3C//DTD SVG 1.1//EN"
  "http://www.w3.org/Graphics/SVG/1.1/DTD/svg11.dtd">
<!-- Created with matplotlib (http://matplotlib.org/) -->
<svg height="345.6pt" version="1.1" viewBox="0 0 460.8 345.6" width="460.8pt" xmlns="http://www.w3.org/2000/svg" xmlns:xlink="http://www.w3.org/1999/xlink">
 <defs>
  <style type="text/css">
*{stroke-linecap:butt;stroke-linejoin:round;}
  </style>
 </defs>
 <g id="figure_1">
  <g id="patch_1">
   <path d="M 0 345.6 
L 460.8 345.6 
L 460.8 0 
L 0 0 
z
" style="fill:#ffffff;"/>
  </g>
  <g id="axes_1">
   <g id="patch_2">
    <path d="M 57.6 307.584 
L 414.72 307.584 
L 414.72 41.472 
L 57.6 41.472 
z
" style="fill:#ffffff;"/>
   </g>
   <g id="matplotlib.axis_1">
    <g id="xtick_1">
     <g id="line2d_1">
      <defs>
       <path d="M 0 0 
L 0 3.5 
" id="mb90cae08e9" style="stroke:#000000;stroke-width:0.8;"/>
      </defs>
      <g>
       <use style="stroke:#000000;stroke-width:0.8;" x="73.488449" xlink:href="#mb90cae08e9" y="307.584"/>
      </g>
     </g>
     <g id="text_1">
      <!-- 0 -->
      <defs>
       <path d="M 31.78125 66.40625 
Q 24.171875 66.40625 20.328125 58.90625 
Q 16.5 51.421875 16.5 36.375 
Q 16.5 21.390625 20.328125 13.890625 
Q 24.171875 6.390625 31.78125 6.390625 
Q 39.453125 6.390625 43.28125 13.890625 
Q 47.125 21.390625 47.125 36.375 
Q 47.125 51.421875 43.28125 58.90625 
Q 39.453125 66.40625 31.78125 66.40625 
z
M 31.78125 74.21875 
Q 44.046875 74.21875 50.515625 64.515625 
Q 56.984375 54.828125 56.984375 36.375 
Q 56.984375 17.96875 50.515625 8.265625 
Q 44.046875 -1.421875 31.78125 -1.421875 
Q 19.53125 -1.421875 13.0625 8.265625 
Q 6.59375 17.96875 6.59375 36.375 
Q 6.59375 54.828125 13.0625 64.515625 
Q 19.53125 74.21875 31.78125 74.21875 
z
" id="DejaVuSans-30"/>
      </defs>
      <g transform="translate(70.307199 322.182437)scale(0.1 -0.1)">
       <use xlink:href="#DejaVuSans-30"/>
      </g>
     </g>
    </g>
    <g id="xtick_2">
     <g id="line2d_2">
      <g>
       <use style="stroke:#000000;stroke-width:0.8;" x="142.344132" xlink:href="#mb90cae08e9" y="307.584"/>
      </g>
     </g>
     <g id="text_2">
      <!-- 200 -->
      <defs>
       <path d="M 19.1875 8.296875 
L 53.609375 8.296875 
L 53.609375 0 
L 7.328125 0 
L 7.328125 8.296875 
Q 12.9375 14.109375 22.625 23.890625 
Q 32.328125 33.6875 34.8125 36.53125 
Q 39.546875 41.84375 41.421875 45.53125 
Q 43.3125 49.21875 43.3125 52.78125 
Q 43.3125 58.59375 39.234375 62.25 
Q 35.15625 65.921875 28.609375 65.921875 
Q 23.96875 65.921875 18.8125 64.3125 
Q 13.671875 62.703125 7.8125 59.421875 
L 7.8125 69.390625 
Q 13.765625 71.78125 18.9375 73 
Q 24.125 74.21875 28.421875 74.21875 
Q 39.75 74.21875 46.484375 68.546875 
Q 53.21875 62.890625 53.21875 53.421875 
Q 53.21875 48.921875 51.53125 44.890625 
Q 49.859375 40.875 45.40625 35.40625 
Q 44.1875 33.984375 37.640625 27.21875 
Q 31.109375 20.453125 19.1875 8.296875 
z
" id="DejaVuSans-32"/>
      </defs>
      <g transform="translate(132.800382 322.182437)scale(0.1 -0.1)">
       <use xlink:href="#DejaVuSans-32"/>
       <use x="63.623047" xlink:href="#DejaVuSans-30"/>
       <use x="127.246094" xlink:href="#DejaVuSans-30"/>
      </g>
     </g>
    </g>
    <g id="xtick_3">
     <g id="line2d_3">
      <g>
       <use style="stroke:#000000;stroke-width:0.8;" x="211.199815" xlink:href="#mb90cae08e9" y="307.584"/>
      </g>
     </g>
     <g id="text_3">
      <!-- 400 -->
      <defs>
       <path d="M 37.796875 64.3125 
L 12.890625 25.390625 
L 37.796875 25.390625 
z
M 35.203125 72.90625 
L 47.609375 72.90625 
L 47.609375 25.390625 
L 58.015625 25.390625 
L 58.015625 17.1875 
L 47.609375 17.1875 
L 47.609375 0 
L 37.796875 0 
L 37.796875 17.1875 
L 4.890625 17.1875 
L 4.890625 26.703125 
z
" id="DejaVuSans-34"/>
      </defs>
      <g transform="translate(201.656065 322.182437)scale(0.1 -0.1)">
       <use xlink:href="#DejaVuSans-34"/>
       <use x="63.623047" xlink:href="#DejaVuSans-30"/>
       <use x="127.246094" xlink:href="#DejaVuSans-30"/>
      </g>
     </g>
    </g>
    <g id="xtick_4">
     <g id="line2d_4">
      <g>
       <use style="stroke:#000000;stroke-width:0.8;" x="280.055498" xlink:href="#mb90cae08e9" y="307.584"/>
      </g>
     </g>
     <g id="text_4">
      <!-- 600 -->
      <defs>
       <path d="M 33.015625 40.375 
Q 26.375 40.375 22.484375 35.828125 
Q 18.609375 31.296875 18.609375 23.390625 
Q 18.609375 15.53125 22.484375 10.953125 
Q 26.375 6.390625 33.015625 6.390625 
Q 39.65625 6.390625 43.53125 10.953125 
Q 47.40625 15.53125 47.40625 23.390625 
Q 47.40625 31.296875 43.53125 35.828125 
Q 39.65625 40.375 33.015625 40.375 
z
M 52.59375 71.296875 
L 52.59375 62.3125 
Q 48.875 64.0625 45.09375 64.984375 
Q 41.3125 65.921875 37.59375 65.921875 
Q 27.828125 65.921875 22.671875 59.328125 
Q 17.53125 52.734375 16.796875 39.40625 
Q 19.671875 43.65625 24.015625 45.921875 
Q 28.375 48.1875 33.59375 48.1875 
Q 44.578125 48.1875 50.953125 41.515625 
Q 57.328125 34.859375 57.328125 23.390625 
Q 57.328125 12.15625 50.6875 5.359375 
Q 44.046875 -1.421875 33.015625 -1.421875 
Q 20.359375 -1.421875 13.671875 8.265625 
Q 6.984375 17.96875 6.984375 36.375 
Q 6.984375 53.65625 15.1875 63.9375 
Q 23.390625 74.21875 37.203125 74.21875 
Q 40.921875 74.21875 44.703125 73.484375 
Q 48.484375 72.75 52.59375 71.296875 
z
" id="DejaVuSans-36"/>
      </defs>
      <g transform="translate(270.511748 322.182437)scale(0.1 -0.1)">
       <use xlink:href="#DejaVuSans-36"/>
       <use x="63.623047" xlink:href="#DejaVuSans-30"/>
       <use x="127.246094" xlink:href="#DejaVuSans-30"/>
      </g>
     </g>
    </g>
    <g id="xtick_5">
     <g id="line2d_5">
      <g>
       <use style="stroke:#000000;stroke-width:0.8;" x="348.911181" xlink:href="#mb90cae08e9" y="307.584"/>
      </g>
     </g>
     <g id="text_5">
      <!-- 800 -->
      <defs>
       <path d="M 31.78125 34.625 
Q 24.75 34.625 20.71875 30.859375 
Q 16.703125 27.09375 16.703125 20.515625 
Q 16.703125 13.921875 20.71875 10.15625 
Q 24.75 6.390625 31.78125 6.390625 
Q 38.8125 6.390625 42.859375 10.171875 
Q 46.921875 13.96875 46.921875 20.515625 
Q 46.921875 27.09375 42.890625 30.859375 
Q 38.875 34.625 31.78125 34.625 
z
M 21.921875 38.8125 
Q 15.578125 40.375 12.03125 44.71875 
Q 8.5 49.078125 8.5 55.328125 
Q 8.5 64.0625 14.71875 69.140625 
Q 20.953125 74.21875 31.78125 74.21875 
Q 42.671875 74.21875 48.875 69.140625 
Q 55.078125 64.0625 55.078125 55.328125 
Q 55.078125 49.078125 51.53125 44.71875 
Q 48 40.375 41.703125 38.8125 
Q 48.828125 37.15625 52.796875 32.3125 
Q 56.78125 27.484375 56.78125 20.515625 
Q 56.78125 9.90625 50.3125 4.234375 
Q 43.84375 -1.421875 31.78125 -1.421875 
Q 19.734375 -1.421875 13.25 4.234375 
Q 6.78125 9.90625 6.78125 20.515625 
Q 6.78125 27.484375 10.78125 32.3125 
Q 14.796875 37.15625 21.921875 38.8125 
z
M 18.3125 54.390625 
Q 18.3125 48.734375 21.84375 45.5625 
Q 25.390625 42.390625 31.78125 42.390625 
Q 38.140625 42.390625 41.71875 45.5625 
Q 45.3125 48.734375 45.3125 54.390625 
Q 45.3125 60.0625 41.71875 63.234375 
Q 38.140625 66.40625 31.78125 66.40625 
Q 25.390625 66.40625 21.84375 63.234375 
Q 18.3125 60.0625 18.3125 54.390625 
z
" id="DejaVuSans-38"/>
      </defs>
      <g transform="translate(339.367431 322.182437)scale(0.1 -0.1)">
       <use xlink:href="#DejaVuSans-38"/>
       <use x="63.623047" xlink:href="#DejaVuSans-30"/>
       <use x="127.246094" xlink:href="#DejaVuSans-30"/>
      </g>
     </g>
    </g>
    <g id="text_6">
     <!-- Generation number -->
     <defs>
      <path d="M 59.515625 10.40625 
L 59.515625 29.984375 
L 43.40625 29.984375 
L 43.40625 38.09375 
L 69.28125 38.09375 
L 69.28125 6.78125 
Q 63.578125 2.734375 56.6875 0.65625 
Q 49.8125 -1.421875 42 -1.421875 
Q 24.90625 -1.421875 15.25 8.5625 
Q 5.609375 18.5625 5.609375 36.375 
Q 5.609375 54.25 15.25 64.234375 
Q 24.90625 74.21875 42 74.21875 
Q 49.125 74.21875 55.546875 72.453125 
Q 61.96875 70.703125 67.390625 67.28125 
L 67.390625 56.78125 
Q 61.921875 61.421875 55.765625 63.765625 
Q 49.609375 66.109375 42.828125 66.109375 
Q 29.4375 66.109375 22.71875 58.640625 
Q 16.015625 51.171875 16.015625 36.375 
Q 16.015625 21.625 22.71875 14.15625 
Q 29.4375 6.6875 42.828125 6.6875 
Q 48.046875 6.6875 52.140625 7.59375 
Q 56.25 8.5 59.515625 10.40625 
z
" id="DejaVuSans-47"/>
      <path d="M 56.203125 29.59375 
L 56.203125 25.203125 
L 14.890625 25.203125 
Q 15.484375 15.921875 20.484375 11.0625 
Q 25.484375 6.203125 34.421875 6.203125 
Q 39.59375 6.203125 44.453125 7.46875 
Q 49.3125 8.734375 54.109375 11.28125 
L 54.109375 2.78125 
Q 49.265625 0.734375 44.1875 -0.34375 
Q 39.109375 -1.421875 33.890625 -1.421875 
Q 20.796875 -1.421875 13.15625 6.1875 
Q 5.515625 13.8125 5.515625 26.8125 
Q 5.515625 40.234375 12.765625 48.109375 
Q 20.015625 56 32.328125 56 
Q 43.359375 56 49.78125 48.890625 
Q 56.203125 41.796875 56.203125 29.59375 
z
M 47.21875 32.234375 
Q 47.125 39.59375 43.09375 43.984375 
Q 39.0625 48.390625 32.421875 48.390625 
Q 24.90625 48.390625 20.390625 44.140625 
Q 15.875 39.890625 15.1875 32.171875 
z
" id="DejaVuSans-65"/>
      <path d="M 54.890625 33.015625 
L 54.890625 0 
L 45.90625 0 
L 45.90625 32.71875 
Q 45.90625 40.484375 42.875 44.328125 
Q 39.84375 48.1875 33.796875 48.1875 
Q 26.515625 48.1875 22.3125 43.546875 
Q 18.109375 38.921875 18.109375 30.90625 
L 18.109375 0 
L 9.078125 0 
L 9.078125 54.6875 
L 18.109375 54.6875 
L 18.109375 46.1875 
Q 21.34375 51.125 25.703125 53.5625 
Q 30.078125 56 35.796875 56 
Q 45.21875 56 50.046875 50.171875 
Q 54.890625 44.34375 54.890625 33.015625 
z
" id="DejaVuSans-6e"/>
      <path d="M 41.109375 46.296875 
Q 39.59375 47.171875 37.8125 47.578125 
Q 36.03125 48 33.890625 48 
Q 26.265625 48 22.1875 43.046875 
Q 18.109375 38.09375 18.109375 28.8125 
L 18.109375 0 
L 9.078125 0 
L 9.078125 54.6875 
L 18.109375 54.6875 
L 18.109375 46.1875 
Q 20.953125 51.171875 25.484375 53.578125 
Q 30.03125 56 36.53125 56 
Q 37.453125 56 38.578125 55.875 
Q 39.703125 55.765625 41.0625 55.515625 
z
" id="DejaVuSans-72"/>
      <path d="M 34.28125 27.484375 
Q 23.390625 27.484375 19.1875 25 
Q 14.984375 22.515625 14.984375 16.5 
Q 14.984375 11.71875 18.140625 8.90625 
Q 21.296875 6.109375 26.703125 6.109375 
Q 34.1875 6.109375 38.703125 11.40625 
Q 43.21875 16.703125 43.21875 25.484375 
L 43.21875 27.484375 
z
M 52.203125 31.203125 
L 52.203125 0 
L 43.21875 0 
L 43.21875 8.296875 
Q 40.140625 3.328125 35.546875 0.953125 
Q 30.953125 -1.421875 24.3125 -1.421875 
Q 15.921875 -1.421875 10.953125 3.296875 
Q 6 8.015625 6 15.921875 
Q 6 25.140625 12.171875 29.828125 
Q 18.359375 34.515625 30.609375 34.515625 
L 43.21875 34.515625 
L 43.21875 35.40625 
Q 43.21875 41.609375 39.140625 45 
Q 35.0625 48.390625 27.6875 48.390625 
Q 23 48.390625 18.546875 47.265625 
Q 14.109375 46.140625 10.015625 43.890625 
L 10.015625 52.203125 
Q 14.9375 54.109375 19.578125 55.046875 
Q 24.21875 56 28.609375 56 
Q 40.484375 56 46.34375 49.84375 
Q 52.203125 43.703125 52.203125 31.203125 
z
" id="DejaVuSans-61"/>
      <path d="M 18.3125 70.21875 
L 18.3125 54.6875 
L 36.8125 54.6875 
L 36.8125 47.703125 
L 18.3125 47.703125 
L 18.3125 18.015625 
Q 18.3125 11.328125 20.140625 9.421875 
Q 21.96875 7.515625 27.59375 7.515625 
L 36.8125 7.515625 
L 36.8125 0 
L 27.59375 0 
Q 17.1875 0 13.234375 3.875 
Q 9.28125 7.765625 9.28125 18.015625 
L 9.28125 47.703125 
L 2.6875 47.703125 
L 2.6875 54.6875 
L 9.28125 54.6875 
L 9.28125 70.21875 
z
" id="DejaVuSans-74"/>
      <path d="M 9.421875 54.6875 
L 18.40625 54.6875 
L 18.40625 0 
L 9.421875 0 
z
M 9.421875 75.984375 
L 18.40625 75.984375 
L 18.40625 64.59375 
L 9.421875 64.59375 
z
" id="DejaVuSans-69"/>
      <path d="M 30.609375 48.390625 
Q 23.390625 48.390625 19.1875 42.75 
Q 14.984375 37.109375 14.984375 27.296875 
Q 14.984375 17.484375 19.15625 11.84375 
Q 23.34375 6.203125 30.609375 6.203125 
Q 37.796875 6.203125 41.984375 11.859375 
Q 46.1875 17.53125 46.1875 27.296875 
Q 46.1875 37.015625 41.984375 42.703125 
Q 37.796875 48.390625 30.609375 48.390625 
z
M 30.609375 56 
Q 42.328125 56 49.015625 48.375 
Q 55.71875 40.765625 55.71875 27.296875 
Q 55.71875 13.875 49.015625 6.21875 
Q 42.328125 -1.421875 30.609375 -1.421875 
Q 18.84375 -1.421875 12.171875 6.21875 
Q 5.515625 13.875 5.515625 27.296875 
Q 5.515625 40.765625 12.171875 48.375 
Q 18.84375 56 30.609375 56 
z
" id="DejaVuSans-6f"/>
      <path id="DejaVuSans-20"/>
      <path d="M 8.5 21.578125 
L 8.5 54.6875 
L 17.484375 54.6875 
L 17.484375 21.921875 
Q 17.484375 14.15625 20.5 10.265625 
Q 23.53125 6.390625 29.59375 6.390625 
Q 36.859375 6.390625 41.078125 11.03125 
Q 45.3125 15.671875 45.3125 23.6875 
L 45.3125 54.6875 
L 54.296875 54.6875 
L 54.296875 0 
L 45.3125 0 
L 45.3125 8.40625 
Q 42.046875 3.421875 37.71875 1 
Q 33.40625 -1.421875 27.6875 -1.421875 
Q 18.265625 -1.421875 13.375 4.4375 
Q 8.5 10.296875 8.5 21.578125 
z
M 31.109375 56 
z
" id="DejaVuSans-75"/>
      <path d="M 52 44.1875 
Q 55.375 50.25 60.0625 53.125 
Q 64.75 56 71.09375 56 
Q 79.640625 56 84.28125 50.015625 
Q 88.921875 44.046875 88.921875 33.015625 
L 88.921875 0 
L 79.890625 0 
L 79.890625 32.71875 
Q 79.890625 40.578125 77.09375 44.375 
Q 74.3125 48.1875 68.609375 48.1875 
Q 61.625 48.1875 57.5625 43.546875 
Q 53.515625 38.921875 53.515625 30.90625 
L 53.515625 0 
L 44.484375 0 
L 44.484375 32.71875 
Q 44.484375 40.625 41.703125 44.40625 
Q 38.921875 48.1875 33.109375 48.1875 
Q 26.21875 48.1875 22.15625 43.53125 
Q 18.109375 38.875 18.109375 30.90625 
L 18.109375 0 
L 9.078125 0 
L 9.078125 54.6875 
L 18.109375 54.6875 
L 18.109375 46.1875 
Q 21.1875 51.21875 25.484375 53.609375 
Q 29.78125 56 35.6875 56 
Q 41.65625 56 45.828125 52.96875 
Q 50 49.953125 52 44.1875 
z
" id="DejaVuSans-6d"/>
      <path d="M 48.6875 27.296875 
Q 48.6875 37.203125 44.609375 42.84375 
Q 40.53125 48.484375 33.40625 48.484375 
Q 26.265625 48.484375 22.1875 42.84375 
Q 18.109375 37.203125 18.109375 27.296875 
Q 18.109375 17.390625 22.1875 11.75 
Q 26.265625 6.109375 33.40625 6.109375 
Q 40.53125 6.109375 44.609375 11.75 
Q 48.6875 17.390625 48.6875 27.296875 
z
M 18.109375 46.390625 
Q 20.953125 51.265625 25.265625 53.625 
Q 29.59375 56 35.59375 56 
Q 45.5625 56 51.78125 48.09375 
Q 58.015625 40.1875 58.015625 27.296875 
Q 58.015625 14.40625 51.78125 6.484375 
Q 45.5625 -1.421875 35.59375 -1.421875 
Q 29.59375 -1.421875 25.265625 0.953125 
Q 20.953125 3.328125 18.109375 8.203125 
L 18.109375 0 
L 9.078125 0 
L 9.078125 75.984375 
L 18.109375 75.984375 
z
" id="DejaVuSans-62"/>
     </defs>
     <g transform="translate(187.163906 335.860562)scale(0.1 -0.1)">
      <use xlink:href="#DejaVuSans-47"/>
      <use x="77.490234" xlink:href="#DejaVuSans-65"/>
      <use x="139.013672" xlink:href="#DejaVuSans-6e"/>
      <use x="202.392578" xlink:href="#DejaVuSans-65"/>
      <use x="263.916016" xlink:href="#DejaVuSans-72"/>
      <use x="305.029297" xlink:href="#DejaVuSans-61"/>
      <use x="366.308594" xlink:href="#DejaVuSans-74"/>
      <use x="405.517578" xlink:href="#DejaVuSans-69"/>
      <use x="433.300781" xlink:href="#DejaVuSans-6f"/>
      <use x="494.482422" xlink:href="#DejaVuSans-6e"/>
      <use x="557.861328" xlink:href="#DejaVuSans-20"/>
      <use x="589.648438" xlink:href="#DejaVuSans-6e"/>
      <use x="653.027344" xlink:href="#DejaVuSans-75"/>
      <use x="716.40625" xlink:href="#DejaVuSans-6d"/>
      <use x="813.818359" xlink:href="#DejaVuSans-62"/>
      <use x="877.294922" xlink:href="#DejaVuSans-65"/>
      <use x="938.818359" xlink:href="#DejaVuSans-72"/>
     </g>
    </g>
   </g>
   <g id="matplotlib.axis_2">
    <g id="ytick_1">
     <g id="line2d_6">
      <defs>
       <path d="M 0 0 
L -3.5 0 
" id="m350b319efa" style="stroke:#000000;stroke-width:0.8;"/>
      </defs>
      <g>
       <use style="stroke:#000000;stroke-width:0.8;" x="57.6" xlink:href="#m350b319efa" y="279.466446"/>
      </g>
     </g>
     <g id="text_7">
      <!-- 12500 -->
      <defs>
       <path d="M 12.40625 8.296875 
L 28.515625 8.296875 
L 28.515625 63.921875 
L 10.984375 60.40625 
L 10.984375 69.390625 
L 28.421875 72.90625 
L 38.28125 72.90625 
L 38.28125 8.296875 
L 54.390625 8.296875 
L 54.390625 0 
L 12.40625 0 
z
" id="DejaVuSans-31"/>
       <path d="M 10.796875 72.90625 
L 49.515625 72.90625 
L 49.515625 64.59375 
L 19.828125 64.59375 
L 19.828125 46.734375 
Q 21.96875 47.46875 24.109375 47.828125 
Q 26.265625 48.1875 28.421875 48.1875 
Q 40.625 48.1875 47.75 41.5 
Q 54.890625 34.8125 54.890625 23.390625 
Q 54.890625 11.625 47.5625 5.09375 
Q 40.234375 -1.421875 26.90625 -1.421875 
Q 22.3125 -1.421875 17.546875 -0.640625 
Q 12.796875 0.140625 7.71875 1.703125 
L 7.71875 11.625 
Q 12.109375 9.234375 16.796875 8.0625 
Q 21.484375 6.890625 26.703125 6.890625 
Q 35.15625 6.890625 40.078125 11.328125 
Q 45.015625 15.765625 45.015625 23.390625 
Q 45.015625 31 40.078125 35.4375 
Q 35.15625 39.890625 26.703125 39.890625 
Q 22.75 39.890625 18.8125 39.015625 
Q 14.890625 38.140625 10.796875 36.28125 
z
" id="DejaVuSans-35"/>
      </defs>
      <g transform="translate(18.7875 283.265664)scale(0.1 -0.1)">
       <use xlink:href="#DejaVuSans-31"/>
       <use x="63.623047" xlink:href="#DejaVuSans-32"/>
       <use x="127.246094" xlink:href="#DejaVuSans-35"/>
       <use x="190.869141" xlink:href="#DejaVuSans-30"/>
       <use x="254.492188" xlink:href="#DejaVuSans-30"/>
      </g>
     </g>
    </g>
    <g id="ytick_2">
     <g id="line2d_7">
      <g>
       <use style="stroke:#000000;stroke-width:0.8;" x="57.6" xlink:href="#m350b319efa" y="243.472659"/>
      </g>
     </g>
     <g id="text_8">
      <!-- 15000 -->
      <g transform="translate(18.7875 247.271878)scale(0.1 -0.1)">
       <use xlink:href="#DejaVuSans-31"/>
       <use x="63.623047" xlink:href="#DejaVuSans-35"/>
       <use x="127.246094" xlink:href="#DejaVuSans-30"/>
       <use x="190.869141" xlink:href="#DejaVuSans-30"/>
       <use x="254.492188" xlink:href="#DejaVuSans-30"/>
      </g>
     </g>
    </g>
    <g id="ytick_3">
     <g id="line2d_8">
      <g>
       <use style="stroke:#000000;stroke-width:0.8;" x="57.6" xlink:href="#m350b319efa" y="207.478872"/>
      </g>
     </g>
     <g id="text_9">
      <!-- 17500 -->
      <defs>
       <path d="M 8.203125 72.90625 
L 55.078125 72.90625 
L 55.078125 68.703125 
L 28.609375 0 
L 18.3125 0 
L 43.21875 64.59375 
L 8.203125 64.59375 
z
" id="DejaVuSans-37"/>
      </defs>
      <g transform="translate(18.7875 211.278091)scale(0.1 -0.1)">
       <use xlink:href="#DejaVuSans-31"/>
       <use x="63.623047" xlink:href="#DejaVuSans-37"/>
       <use x="127.246094" xlink:href="#DejaVuSans-35"/>
       <use x="190.869141" xlink:href="#DejaVuSans-30"/>
       <use x="254.492188" xlink:href="#DejaVuSans-30"/>
      </g>
     </g>
    </g>
    <g id="ytick_4">
     <g id="line2d_9">
      <g>
       <use style="stroke:#000000;stroke-width:0.8;" x="57.6" xlink:href="#m350b319efa" y="171.485085"/>
      </g>
     </g>
     <g id="text_10">
      <!-- 20000 -->
      <g transform="translate(18.7875 175.284304)scale(0.1 -0.1)">
       <use xlink:href="#DejaVuSans-32"/>
       <use x="63.623047" xlink:href="#DejaVuSans-30"/>
       <use x="127.246094" xlink:href="#DejaVuSans-30"/>
       <use x="190.869141" xlink:href="#DejaVuSans-30"/>
       <use x="254.492188" xlink:href="#DejaVuSans-30"/>
      </g>
     </g>
    </g>
    <g id="ytick_5">
     <g id="line2d_10">
      <g>
       <use style="stroke:#000000;stroke-width:0.8;" x="57.6" xlink:href="#m350b319efa" y="135.491298"/>
      </g>
     </g>
     <g id="text_11">
      <!-- 22500 -->
      <g transform="translate(18.7875 139.290517)scale(0.1 -0.1)">
       <use xlink:href="#DejaVuSans-32"/>
       <use x="63.623047" xlink:href="#DejaVuSans-32"/>
       <use x="127.246094" xlink:href="#DejaVuSans-35"/>
       <use x="190.869141" xlink:href="#DejaVuSans-30"/>
       <use x="254.492188" xlink:href="#DejaVuSans-30"/>
      </g>
     </g>
    </g>
    <g id="ytick_6">
     <g id="line2d_11">
      <g>
       <use style="stroke:#000000;stroke-width:0.8;" x="57.6" xlink:href="#m350b319efa" y="99.497512"/>
      </g>
     </g>
     <g id="text_12">
      <!-- 25000 -->
      <g transform="translate(18.7875 103.29673)scale(0.1 -0.1)">
       <use xlink:href="#DejaVuSans-32"/>
       <use x="63.623047" xlink:href="#DejaVuSans-35"/>
       <use x="127.246094" xlink:href="#DejaVuSans-30"/>
       <use x="190.869141" xlink:href="#DejaVuSans-30"/>
       <use x="254.492188" xlink:href="#DejaVuSans-30"/>
      </g>
     </g>
    </g>
    <g id="ytick_7">
     <g id="line2d_12">
      <g>
       <use style="stroke:#000000;stroke-width:0.8;" x="57.6" xlink:href="#m350b319efa" y="63.503725"/>
      </g>
     </g>
     <g id="text_13">
      <!-- 27500 -->
      <g transform="translate(18.7875 67.302944)scale(0.1 -0.1)">
       <use xlink:href="#DejaVuSans-32"/>
       <use x="63.623047" xlink:href="#DejaVuSans-37"/>
       <use x="127.246094" xlink:href="#DejaVuSans-35"/>
       <use x="190.869141" xlink:href="#DejaVuSans-30"/>
       <use x="254.492188" xlink:href="#DejaVuSans-30"/>
      </g>
     </g>
    </g>
    <g id="text_14">
     <!-- Average fitness -->
     <defs>
      <path d="M 34.1875 63.1875 
L 20.796875 26.90625 
L 47.609375 26.90625 
z
M 28.609375 72.90625 
L 39.796875 72.90625 
L 67.578125 0 
L 57.328125 0 
L 50.6875 18.703125 
L 17.828125 18.703125 
L 11.1875 0 
L 0.78125 0 
z
" id="DejaVuSans-41"/>
      <path d="M 2.984375 54.6875 
L 12.5 54.6875 
L 29.59375 8.796875 
L 46.6875 54.6875 
L 56.203125 54.6875 
L 35.6875 0 
L 23.484375 0 
z
" id="DejaVuSans-76"/>
      <path d="M 45.40625 27.984375 
Q 45.40625 37.75 41.375 43.109375 
Q 37.359375 48.484375 30.078125 48.484375 
Q 22.859375 48.484375 18.828125 43.109375 
Q 14.796875 37.75 14.796875 27.984375 
Q 14.796875 18.265625 18.828125 12.890625 
Q 22.859375 7.515625 30.078125 7.515625 
Q 37.359375 7.515625 41.375 12.890625 
Q 45.40625 18.265625 45.40625 27.984375 
z
M 54.390625 6.78125 
Q 54.390625 -7.171875 48.1875 -13.984375 
Q 42 -20.796875 29.203125 -20.796875 
Q 24.46875 -20.796875 20.265625 -20.09375 
Q 16.0625 -19.390625 12.109375 -17.921875 
L 12.109375 -9.1875 
Q 16.0625 -11.328125 19.921875 -12.34375 
Q 23.78125 -13.375 27.78125 -13.375 
Q 36.625 -13.375 41.015625 -8.765625 
Q 45.40625 -4.15625 45.40625 5.171875 
L 45.40625 9.625 
Q 42.625 4.78125 38.28125 2.390625 
Q 33.9375 0 27.875 0 
Q 17.828125 0 11.671875 7.65625 
Q 5.515625 15.328125 5.515625 27.984375 
Q 5.515625 40.671875 11.671875 48.328125 
Q 17.828125 56 27.875 56 
Q 33.9375 56 38.28125 53.609375 
Q 42.625 51.21875 45.40625 46.390625 
L 45.40625 54.6875 
L 54.390625 54.6875 
z
" id="DejaVuSans-67"/>
      <path d="M 37.109375 75.984375 
L 37.109375 68.5 
L 28.515625 68.5 
Q 23.6875 68.5 21.796875 66.546875 
Q 19.921875 64.59375 19.921875 59.515625 
L 19.921875 54.6875 
L 34.71875 54.6875 
L 34.71875 47.703125 
L 19.921875 47.703125 
L 19.921875 0 
L 10.890625 0 
L 10.890625 47.703125 
L 2.296875 47.703125 
L 2.296875 54.6875 
L 10.890625 54.6875 
L 10.890625 58.5 
Q 10.890625 67.625 15.140625 71.796875 
Q 19.390625 75.984375 28.609375 75.984375 
z
" id="DejaVuSans-66"/>
      <path d="M 44.28125 53.078125 
L 44.28125 44.578125 
Q 40.484375 46.53125 36.375 47.5 
Q 32.28125 48.484375 27.875 48.484375 
Q 21.1875 48.484375 17.84375 46.4375 
Q 14.5 44.390625 14.5 40.28125 
Q 14.5 37.15625 16.890625 35.375 
Q 19.28125 33.59375 26.515625 31.984375 
L 29.59375 31.296875 
Q 39.15625 29.25 43.1875 25.515625 
Q 47.21875 21.78125 47.21875 15.09375 
Q 47.21875 7.46875 41.1875 3.015625 
Q 35.15625 -1.421875 24.609375 -1.421875 
Q 20.21875 -1.421875 15.453125 -0.5625 
Q 10.6875 0.296875 5.421875 2 
L 5.421875 11.28125 
Q 10.40625 8.6875 15.234375 7.390625 
Q 20.0625 6.109375 24.8125 6.109375 
Q 31.15625 6.109375 34.5625 8.28125 
Q 37.984375 10.453125 37.984375 14.40625 
Q 37.984375 18.0625 35.515625 20.015625 
Q 33.0625 21.96875 24.703125 23.78125 
L 21.578125 24.515625 
Q 13.234375 26.265625 9.515625 29.90625 
Q 5.8125 33.546875 5.8125 39.890625 
Q 5.8125 47.609375 11.28125 51.796875 
Q 16.75 56 26.8125 56 
Q 31.78125 56 36.171875 55.265625 
Q 40.578125 54.546875 44.28125 53.078125 
z
" id="DejaVuSans-73"/>
     </defs>
     <g transform="translate(12.707812 213.503781)rotate(-90)scale(0.1 -0.1)">
      <use xlink:href="#DejaVuSans-41"/>
      <use x="68.330078" xlink:href="#DejaVuSans-76"/>
      <use x="127.509766" xlink:href="#DejaVuSans-65"/>
      <use x="189.033203" xlink:href="#DejaVuSans-72"/>
      <use x="230.146484" xlink:href="#DejaVuSans-61"/>
      <use x="291.425781" xlink:href="#DejaVuSans-67"/>
      <use x="354.902344" xlink:href="#DejaVuSans-65"/>
      <use x="416.425781" xlink:href="#DejaVuSans-20"/>
      <use x="448.212891" xlink:href="#DejaVuSans-66"/>
      <use x="483.417969" xlink:href="#DejaVuSans-69"/>
      <use x="511.201172" xlink:href="#DejaVuSans-74"/>
      <use x="550.410156" xlink:href="#DejaVuSans-6e"/>
      <use x="613.789062" xlink:href="#DejaVuSans-65"/>
      <use x="675.3125" xlink:href="#DejaVuSans-73"/>
      <use x="727.412109" xlink:href="#DejaVuSans-73"/>
     </g>
    </g>
   </g>
   <g id="line2d_13">
    <path clip-path="url(#p33883ad9e1)" d="M 73.832727 54.401616 
L 74.177006 82.94037 
L 74.521284 98.036164 
L 75.209841 114.534276 
L 75.898398 124.254038 
L 76.586955 130.885534 
L 77.61979 138.115965 
L 78.652625 143.107584 
L 79.341182 148.043052 
L 80.718296 154.7163 
L 81.062574 156.025034 
L 81.751131 161.699095 
L 82.783966 168.114627 
L 84.16108 178.303748 
L 85.193915 185.237591 
L 85.882472 189.284733 
L 86.571029 192.956099 
L 87.259585 195.849999 
L 87.603864 196.345274 
L 87.948142 197.75623 
L 88.292421 197.501394 
L 88.980978 201.287941 
L 89.325256 202.071166 
L 90.70237 206.91305 
L 91.390926 208.509734 
L 91.735205 205.699339 
L 92.423762 209.264164 
L 92.76804 210.682319 
L 93.112319 208.853835 
L 93.800875 212.617345 
L 94.489432 214.749617 
L 94.833711 215.853906 
L 95.177989 214.244264 
L 95.522267 216.056911 
L 95.866546 216.249838 
L 96.899381 220.366087 
L 97.24366 220.907434 
L 97.587938 221.921019 
L 97.932216 219.369779 
L 98.276495 219.82762 
L 98.620773 221.130596 
L 98.965052 221.064367 
L 99.997887 224.135357 
L 100.342165 224.672384 
L 100.686444 225.881775 
L 101.375 227.24522 
L 102.063557 228.479087 
L 102.407836 228.712327 
L 102.752114 226.531103 
L 103.096393 227.70738 
L 103.440671 228.453171 
L 103.784949 227.550447 
L 104.129228 228.942687 
L 104.817785 230.614238 
L 105.506341 232.085664 
L 105.85062 228.024126 
L 106.194898 229.67552 
L 106.539177 229.600653 
L 106.883455 230.766852 
L 107.227734 231.325476 
L 107.572012 232.206604 
L 108.260569 234.331677 
L 110.326239 237.838911 
L 112.047631 239.454312 
L 112.39191 239.520541 
L 112.736188 239.906394 
L 113.080467 232.419687 
L 113.424745 234.324478 
L 113.769023 235.29775 
L 114.113302 236.793652 
L 114.45758 237.070084 
L 115.146137 239.432716 
L 115.490416 239.893437 
L 115.834694 240.827835 
L 116.523251 241.747837 
L 116.867529 242.500827 
L 118.244643 243.855633 
L 118.588921 244.352347 
L 118.9332 244.552472 
L 119.277478 245.021831 
L 119.966035 245.416323 
L 120.310313 244.029843 
L 121.687427 246.018139 
L 122.031705 246.270096 
L 122.375984 246.691943 
L 122.720262 246.723618 
L 123.064541 247.025965 
L 123.408819 247.040363 
L 123.753097 247.486686 
L 124.097376 247.747281 
L 124.441654 242.060263 
L 125.130211 244.605743 
L 125.818768 246.251379 
L 126.163046 246.897828 
L 126.851603 247.773196 
L 127.195882 248.268471 
L 127.54016 248.478675 
L 127.884438 248.906281 
L 128.228717 249.014262 
L 128.572995 249.54841 
L 128.917274 249.653512 
L 129.261552 250.050883 
L 129.605831 250.272605 
L 129.950109 250.334514 
L 130.294387 250.70453 
L 130.982944 250.884499 
L 131.327223 251.234359 
L 132.015779 251.63317 
L 133.048615 252.118366 
L 133.392893 247.75016 
L 134.08145 249.731258 
L 134.425728 250.370508 
L 134.770007 250.671416 
L 135.458564 248.372133 
L 136.14712 250.194858 
L 137.524234 252.535894 
L 137.868512 252.723062 
L 138.557069 253.444378 
L 138.901348 242.113533 
L 139.245626 244.879296 
L 139.589905 245.14709 
L 140.278461 248.095701 
L 140.967018 250.430978 
L 141.999853 252.666912 
L 143.032689 253.997242 
L 143.376967 247.479487 
L 143.721246 249.570006 
L 144.409802 251.538147 
L 144.754081 252.484063 
L 145.098359 251.155173 
L 145.442638 247.917172 
L 146.131194 251.219962 
L 146.819751 253.342155 
L 147.852587 255.51618 
L 148.885422 257.006323 
L 149.2297 257.144539 
L 149.573979 257.408013 
L 149.918257 257.88889 
L 150.262535 258.110612 
L 150.606814 258.12501 
L 152.328206 259.420786 
L 152.672484 259.358877 
L 153.016763 259.599315 
L 153.361041 259.620911 
L 154.393876 260.362383 
L 155.082433 260.594183 
L 155.426712 260.620099 
L 156.115268 261.01747 
L 156.459547 260.487642 
L 157.148104 260.944043 
L 157.492382 261.324137 
L 158.180939 261.640883 
L 158.869496 261.792057 
L 159.213774 262.06417 
L 159.558053 261.995062 
L 160.935166 262.452902 
L 161.279445 262.645829 
L 163.000837 262.98705 
L 163.345115 258.448954 
L 163.689394 259.538846 
L 164.033672 253.889261 
L 164.37795 254.809262 
L 164.722229 254.031796 
L 165.066507 255.845883 
L 165.410786 252.941904 
L 166.099343 256.109358 
L 166.787899 258.281942 
L 167.476456 255.143284 
L 167.820735 251.549665 
L 168.509291 255.62992 
L 169.197848 258.034305 
L 169.542127 256.290766 
L 170.230684 258.951427 
L 170.574962 259.785043 
L 170.91924 256.957371 
L 171.263519 258.381285 
L 171.607797 256.362754 
L 172.296354 259.006137 
L 172.640632 260.172336 
L 173.329189 261.515624 
L 173.673468 261.915875 
L 174.017746 262.634311 
L 174.706303 263.581668 
L 175.050581 255.487385 
L 175.739138 259.269612 
L 176.427695 261.440757 
L 177.116252 262.945297 
L 177.46053 263.45065 
L 177.804809 260.480443 
L 178.149087 260.625858 
L 178.493365 262.012339 
L 179.181922 263.718444 
L 179.526201 259.924699 
L 179.870479 259.190426 
L 180.559036 262.154874 
L 180.903314 262.879069 
L 181.247593 263.896973 
L 181.591871 259.390551 
L 182.280428 262.589679 
L 182.624706 258.973023 
L 182.968985 261.129771 
L 184.00182 264.285706 
L 184.346099 264.821294 
L 184.690377 265.578603 
L 186.411769 267.706556 
L 187.100326 268.021861 
L 187.444604 265.231623 
L 188.133161 266.831187 
L 188.821718 268.021861 
L 189.165996 261.233433 
L 189.854553 264.732029 
L 191.231667 267.664803 
L 191.575945 268.410594 
L 192.264502 269.114633 
L 192.60878 269.392505 
L 192.953059 267.048589 
L 193.297337 268.062174 
L 193.641616 268.705743 
L 193.985894 268.253661 
L 194.674451 269.614226 
L 195.018729 269.890659 
L 195.707286 270.755949 
L 196.051565 262.883388 
L 196.740121 266.477008 
L 197.0844 260.66905 
L 197.428678 262.922261 
L 197.772957 262.363638 
L 198.461514 265.617476 
L 198.805792 266.299918 
L 199.15007 267.323582 
L 199.838627 268.553129 
L 201.560019 270.704118 
L 202.937133 271.537734 
L 203.62569 272.162586 
L 203.969968 272.305122 
L 204.314247 272.251851 
L 205.002803 272.806155 
L 205.69136 273.078268 
L 206.035639 270.861051 
L 206.379917 271.50462 
L 206.724196 261.557377 
L 207.068474 264.426802 
L 207.757031 267.445961 
L 208.445588 269.563835 
L 209.478423 271.352006 
L 209.822701 262.424107 
L 210.16698 265.142358 
L 211.199815 269.287403 
L 211.544093 262.599757 
L 212.23265 267.018354 
L 212.921207 269.555196 
L 214.298321 272.349754 
L 214.642599 272.977486 
L 214.986877 273.145937 
L 216.019713 274.176799 
L 216.363991 274.666314 
L 217.052548 266.184738 
L 217.741105 269.654539 
L 218.085383 270.778985 
L 218.429662 270.722835 
L 218.77394 271.904871 
L 219.806775 273.585061 
L 220.151054 273.906125 
L 220.495332 266.140106 
L 220.839611 264.43544 
L 221.528167 268.350125 
L 222.216724 270.398891 
L 223.249559 272.515326 
L 223.593838 272.843589 
L 224.282395 273.690163 
L 225.31523 274.725344 
L 226.348065 275.494171 
L 227.3809 276.415612 
L 227.725179 276.333546 
L 228.069457 276.422811 
L 228.758014 276.895049 
L 229.446571 277.041904 
L 230.135128 277.377366 
L 231.512241 277.625003 
L 231.85652 277.735864 
L 232.200798 277.334174 
L 232.545077 277.609166 
L 233.233633 277.776177 
L 233.577912 276.31339 
L 233.92219 277.080777 
L 234.266469 274.912512 
L 234.610747 276.006723 
L 236.332139 278.068447 
L 236.676418 277.982062 
L 237.020696 278.449981 
L 238.053531 279.125225 
L 238.39781 279.046038 
L 239.086367 279.321031 
L 239.430645 279.344067 
L 239.774923 279.655053 
L 240.119202 279.572987 
L 240.807759 279.797588 
L 241.496315 279.970359 
L 241.840594 280.225195 
L 242.184872 280.200719 
L 242.529151 280.421001 
L 242.873429 280.282785 
L 243.217708 280.302941 
L 243.561986 280.534741 
L 243.906264 280.589452 
L 244.594821 271.752257 
L 244.9391 271.125965 
L 245.283378 273.016359 
L 245.971935 275.09824 
L 246.316213 272.617548 
L 247.00477 275.283968 
L 247.693327 276.751074 
L 248.037605 277.468071 
L 248.726162 278.16491 
L 249.414719 278.796961 
L 249.758997 276.067192 
L 250.103276 277.089416 
L 250.447554 277.432077 
L 251.136111 278.749449 
L 251.824668 279.704005 
L 252.168946 280.122972 
L 252.513225 280.353333 
L 252.857503 280.341815 
L 253.201782 280.809734 
L 255.267452 281.693741 
L 255.61173 282.056559 
L 255.956009 281.892427 
L 256.300287 282.206293 
L 256.644566 281.057371 
L 257.333123 281.761409 
L 257.677401 279.162658 
L 258.710236 280.616807 
L 259.054515 280.755023 
L 259.398793 281.316526 
L 260.08735 281.870831 
L 260.775907 282.140064 
L 261.120185 282.019125 
L 261.464464 282.115588 
L 261.808742 280.279905 
L 262.15302 276.694924 
L 262.497299 278.036772 
L 262.841577 273.392134 
L 263.185856 275.351636 
L 263.874412 277.610606 
L 264.218691 273.023558 
L 264.562969 274.706627 
L 264.907248 272.654981 
L 265.940083 276.968477 
L 266.62864 278.766726 
L 266.972918 279.136743 
L 267.317197 279.957401 
L 269.727145 282.127106 
L 270.415702 282.344509 
L 271.104259 282.838344 
L 271.792816 283.100378 
L 272.137094 283.287546 
L 272.825651 283.473274 
L 273.16993 283.716592 
L 273.514208 276.902248 
L 273.858486 278.501812 
L 274.202765 278.202344 
L 274.547043 279.377181 
L 274.891322 277.087976 
L 275.2356 277.364408 
L 275.924157 279.715523 
L 276.956992 281.208545 
L 277.989827 282.485604 
L 278.334106 282.818187 
L 278.678384 282.885855 
L 279.022663 283.335058 
L 280.055498 283.967109 
L 280.399776 274.382683 
L 280.744055 276.676207 
L 281.088333 275.3286 
L 281.77689 278.375114 
L 282.809725 281.06601 
L 283.498282 282.142944 
L 284.186839 282.715965 
L 284.875396 283.480473 
L 285.563953 283.853368 
L 285.908231 284.203228 
L 286.252509 284.086608 
L 286.596788 284.486859 
L 286.941066 284.602039 
L 287.285345 284.574684 
L 287.629623 284.82664 
L 287.973901 284.767611 
L 288.662458 285.153464 
L 289.695294 285.343511 
L 290.039572 285.448613 
L 290.38385 285.707768 
L 291.072407 285.725045 
L 291.416686 286.001478 
L 292.105242 285.828707 
L 292.449521 285.892056 
L 292.793799 285.611305 
L 293.138078 281.81612 
L 293.826635 283.689237 
L 295.203748 284.921664 
L 295.548027 274.854922 
L 295.892305 276.251481 
L 296.236583 278.556523 
L 297.269419 282.252365 
L 297.613697 282.988078 
L 297.957976 283.337937 
L 298.302254 283.867766 
L 298.646532 284.07365 
L 298.990811 284.530052 
L 299.335089 281.793084 
L 300.023646 283.648924 
L 300.712203 284.910146 
L 301.40076 285.736563 
L 302.089316 286.060507 
L 303.122152 286.748709 
L 303.46643 286.91284 
L 303.810709 285.356469 
L 304.154987 286.067706 
L 305.532101 286.941635 
L 306.220657 287.025141 
L 306.564936 287.284296 
L 306.909214 287.403795 
L 307.597771 276.897929 
L 308.286328 280.639843 
L 308.630606 281.693741 
L 308.974885 280.063942 
L 309.319163 280.970986 
L 309.663442 281.495055 
L 311.040555 284.30977 
L 312.417669 285.689051 
L 313.106226 286.113778 
L 313.450504 286.262073 
L 313.794783 286.234717 
L 314.483339 286.632089 
L 314.827618 286.607613 
L 315.171896 287.120164 
L 316.204732 287.295814 
L 316.893288 287.192152 
L 318.958959 287.891871 
L 319.303237 287.982576 
L 319.647516 287.953781 
L 319.991794 288.19134 
L 320.336072 288.171183 
L 322.057465 288.528241 
L 322.401743 288.571434 
L 322.746021 286.318223 
L 323.434578 287.231025 
L 323.778857 287.488741 
L 324.123135 279.967479 
L 324.467413 276.779869 
L 325.15597 280.48435 
L 325.844527 282.633899 
L 326.188806 280.652801 
L 326.877362 282.967921 
L 327.221641 283.715152 
L 327.565919 284.029018 
L 328.254476 284.936061 
L 329.287311 286.239037 
L 329.63159 286.205922 
L 329.975868 286.50827 
L 330.320147 278.409668 
L 331.008703 282.553273 
L 331.69726 284.940381 
L 332.730095 286.470837 
L 333.074374 286.850931 
L 333.762931 279.754396 
L 334.451488 283.37969 
L 334.795766 284.069331 
L 335.484323 285.720726 
L 335.828601 277.685473 
L 336.17288 278.899184 
L 336.861436 282.495683 
L 337.205715 283.824573 
L 337.894272 285.195217 
L 338.582828 286.247675 
L 338.927107 286.531306 
L 339.271385 287.049617 
L 339.959942 279.404536 
L 340.304221 279.397338 
L 340.648499 281.52817 
L 341.337056 283.977187 
L 342.369891 285.922291 
L 342.714169 283.795778 
L 343.058448 285.042603 
L 344.091283 287.040978 
L 344.435562 282.230768 
L 344.77984 283.864886 
L 345.124118 281.153834 
L 345.468397 282.74188 
L 345.812675 278.658745 
L 346.501232 283.214119 
L 347.534067 286.205922 
L 347.878346 285.442854 
L 348.222624 285.262885 
L 348.911181 286.987707 
L 349.255459 284.411992 
L 349.599738 285.647299 
L 349.944016 284.278095 
L 350.288295 284.459504 
L 351.32113 287.180634 
L 352.353965 288.761481 
L 352.698244 285.474529 
L 353.042522 284.743135 
L 353.3868 280.837089 
L 354.075357 284.437907 
L 354.419636 285.245608 
L 354.763914 286.465078 
L 356.141028 288.948649 
L 356.485306 288.271966 
L 357.86242 289.959354 
L 358.206698 290.054378 
L 359.583812 291.065083 
L 359.92809 282.74044 
L 360.272369 283.919597 
L 360.616647 281.482098 
L 361.305204 284.977814 
L 362.338039 287.651433 
L 362.682318 287.891871 
L 363.026596 288.518163 
L 363.370874 281.204226 
L 363.715153 283.49775 
L 364.059431 282.426575 
L 364.747988 285.87046 
L 365.780823 288.221574 
L 366.125102 288.817631 
L 366.46938 288.673656 
L 367.502215 289.936318 
L 367.846494 290.338009 
L 368.190772 290.404238 
L 368.535051 290.608682 
L 369.223607 291.266649 
L 369.912164 291.564677 
L 370.600721 291.941892 
L 370.945 291.972127 
L 371.977835 292.336384 
L 372.322113 292.309029 
L 373.01067 292.611377 
L 374.043505 292.775508 
L 374.387784 291.132752 
L 375.07634 292.1305 
L 375.420619 282.475526 
L 376.109176 286.993466 
L 376.453454 288.369869 
L 376.797733 284.949019 
L 377.486289 287.622638 
L 377.830568 288.744204 
L 378.174846 289.34746 
L 378.519125 288.621825 
L 379.207681 290.090372 
L 379.55196 285.818629 
L 380.240517 288.914095 
L 380.929074 290.378322 
L 381.61763 291.419262 
L 382.994744 292.720798 
L 384.027579 293.11385 
L 384.371858 293.476667 
L 384.716136 290.56261 
L 385.404693 292.097385 
L 385.748971 292.405492 
L 386.09325 292.933881 
L 386.437528 293.038983 
L 387.126085 293.646558 
L 387.814642 293.711347 
L 388.847477 294.38803 
L 389.191756 294.333319 
L 389.536034 290.037101 
L 390.224591 292.310469 
L 390.568869 293.139765 
L 390.913148 293.218952 
L 391.601704 293.956104 
L 392.63454 294.576637 
L 392.978818 294.532005 
L 393.323097 294.796919 
L 394.70021 295.130942 
L 395.044489 295.488 
L 395.388767 295.342585 
L 395.733045 295.452006 
L 396.077324 295.345465 
L 396.421602 291.410624 
L 397.110159 293.118169 
L 397.798716 294.232537 
L 398.142994 293.789093 
L 398.487273 284.894309 
L 398.487273 284.894309 
" style="fill:none;stroke:#1f77b4;stroke-linecap:square;stroke-width:1.5;"/>
   </g>
   <g id="line2d_14">
    <path clip-path="url(#p33883ad9e1)" d="M 73.832727 53.568 
L 74.177006 82.319837 
L 74.521284 97.758292 
L 75.209841 114.128266 
L 75.898398 123.827872 
L 76.931233 132.957336 
L 77.964068 139.339754 
L 78.652625 142.715971 
L 81.406852 154.817082 
L 82.095409 157.053017 
L 82.783966 159.63737 
L 83.472523 161.84307 
L 84.16108 165.003324 
L 84.849637 167.34724 
L 85.193915 168.301795 
L 85.538193 169.6638 
L 86.22675 171.483646 
L 89.325256 189.428708 
L 89.669534 190.161541 
L 90.013813 192.361482 
L 90.358091 193.06696 
L 91.046648 196.548279 
L 91.390926 196.063083 
L 92.079483 200.314669 
L 92.76804 203.361183 
L 93.800875 207.124693 
L 94.489432 208.817841 
L 94.833711 209.039563 
L 95.522267 211.059534 
L 96.210824 212.281883 
L 96.555103 211.147359 
L 97.24366 213.321384 
L 97.932216 215.003013 
L 98.276495 215.676817 
L 98.620773 215.226175 
L 98.965052 214.959821 
L 99.30933 215.761762 
L 99.653608 216.945238 
L 99.997887 217.673752 
L 100.342165 217.921389 
L 100.686444 216.99131 
L 101.375 218.975288 
L 102.063557 216.288711 
L 102.752114 219.578543 
L 103.784949 222.161458 
L 104.129228 221.320643 
L 104.473506 220.868561 
L 105.162063 223.044025 
L 105.506341 223.271506 
L 106.194898 225.467127 
L 106.539177 224.6983 
L 106.883455 224.385874 
L 107.227734 224.541367 
L 107.572012 223.798455 
L 107.91629 225.596705 
L 108.260569 223.758142 
L 108.604847 225.45129 
L 108.949126 226.063184 
L 109.293404 227.796645 
L 110.326239 230.820123 
L 110.670518 226.267629 
L 111.014796 225.863059 
L 111.359075 226.513826 
L 111.703353 228.506442 
L 112.047631 229.579057 
L 112.39191 227.644031 
L 113.080467 231.054802 
L 114.113302 234.19778 
L 114.801859 236.026264 
L 115.490416 236.913151 
L 115.834694 236.16592 
L 116.178972 236.86276 
L 116.523251 232.297308 
L 116.867529 232.424006 
L 117.556086 235.375497 
L 117.900364 234.304321 
L 118.588921 237.175186 
L 119.277478 239.510463 
L 119.621756 240.236098 
L 119.966035 234.001974 
L 120.99887 237.985766 
L 121.343149 234.6585 
L 122.031705 238.54295 
L 123.064541 242.13513 
L 124.785933 245.558859 
L 125.130211 245.882803 
L 125.47449 246.437107 
L 125.818768 246.752413 
L 126.507325 247.689691 
L 127.195882 248.233917 
L 127.54016 248.416765 
L 127.884438 248.799739 
L 128.228717 241.122984 
L 128.917274 244.759797 
L 129.261552 245.95623 
L 129.605831 245.469594 
L 129.950109 245.188843 
L 130.294387 246.293132 
L 130.638666 246.848876 
L 130.982944 247.63642 
L 131.327223 248.709035 
L 131.671501 248.598174 
L 132.015779 246.76537 
L 132.360058 248.154731 
L 133.048615 249.748536 
L 133.737172 250.888819 
L 134.08145 251.274672 
L 134.425728 251.448882 
L 136.14712 253.427101 
L 137.868512 254.535709 
L 138.212791 245.816574 
L 138.557069 243.678543 
L 138.901348 245.663961 
L 139.589905 248.292947 
L 139.934183 244.847621 
L 140.278461 247.34703 
L 140.967018 250.151666 
L 141.311297 244.594225 
L 141.655575 246.966936 
L 141.999853 247.191537 
L 142.344132 245.679798 
L 142.68841 247.907093 
L 143.721246 251.998867 
L 144.065524 252.934706 
L 144.409802 253.015332 
L 144.754081 247.359988 
L 145.098359 248.462837 
L 145.442638 247.335512 
L 146.131194 251.135016 
L 146.475473 252.544533 
L 147.852587 255.887636 
L 148.196865 256.725571 
L 148.885422 257.579344 
L 149.2297 257.957998 
L 149.573979 258.519501 
L 150.606814 259.45534 
L 150.951092 252.842561 
L 151.295371 254.891328 
L 151.639649 255.465789 
L 152.328206 257.625416 
L 152.672484 250.570634 
L 153.361041 254.803503 
L 154.049598 257.099907 
L 155.082433 259.368955 
L 155.77099 260.6129 
L 156.803825 261.730147 
L 157.148104 261.997941 
L 157.492382 262.553685 
L 157.836661 262.87187 
L 158.180939 255.935148 
L 158.525217 254.643691 
L 159.213774 257.691644 
L 159.902331 259.664104 
L 160.246609 260.078752 
L 160.935166 261.629365 
L 161.279445 261.902917 
L 161.623723 262.416909 
L 162.656558 263.325392 
L 163.000837 263.414656 
L 163.345115 263.770275 
L 163.689394 263.823546 
L 164.033672 264.291465 
L 164.37795 264.297224 
L 164.722229 264.628367 
L 165.066507 262.854593 
L 165.410786 263.302356 
L 165.755064 262.880509 
L 166.099343 259.495653 
L 166.787899 261.901478 
L 167.132178 262.615594 
L 168.85357 264.693156 
L 169.197848 260.674809 
L 170.230684 263.706926 
L 170.574962 264.226676 
L 170.91924 265.022859 
L 171.263519 265.162515 
L 171.607797 265.728337 
L 172.984911 266.900295 
L 173.673468 267.024113 
L 174.017746 261.302541 
L 174.706303 260.116186 
L 175.050581 261.802135 
L 175.39486 262.920822 
L 176.083417 264.337537 
L 176.771973 265.793126 
L 177.804809 267.047149 
L 178.149087 267.5669 
L 178.837644 268.105367 
L 179.181922 265.76865 
L 179.526201 260.352305 
L 180.214758 263.45065 
L 180.559036 264.801137 
L 180.903314 265.643392 
L 181.247593 266.104112 
L 181.93615 267.545303 
L 182.280428 268.126963 
L 183.657542 269.337794 
L 184.00182 269.36371 
L 184.346099 269.743804 
L 185.034655 270.146934 
L 185.378934 270.455041 
L 185.723212 270.414728 
L 186.067491 270.498234 
L 186.756047 271.04246 
L 187.100326 266.955005 
L 187.444604 268.237824 
L 189.165996 271.0439 
L 190.54311 272.112195 
L 190.887388 266.848464 
L 191.231667 268.106807 
L 191.575945 262.894906 
L 192.264502 266.540357 
L 193.297337 268.698544 
L 193.641616 261.041946 
L 193.985894 263.774594 
L 194.330173 263.227489 
L 194.674451 265.231623 
L 195.363008 267.778543 
L 196.051565 269.396824 
L 198.461514 272.191381 
L 199.15007 272.706812 
L 200.182906 273.464122 
L 200.871462 266.155943 
L 201.560019 268.950501 
L 201.904298 270.049031 
L 203.969968 272.963088 
L 204.314247 272.983245 
L 205.347082 273.978113 
L 205.69136 273.978113 
L 206.035639 274.339491 
L 206.724196 274.621682 
L 207.068474 270.904244 
L 207.757031 272.580114 
L 208.101309 273.382056 
L 208.445588 271.96822 
L 208.789866 272.889661 
L 209.134144 273.492917 
L 209.478423 270.69548 
L 210.511258 273.526031 
L 210.855536 272.600271 
L 211.199815 273.521712 
L 212.921207 275.603592 
L 213.609764 275.946253 
L 214.642599 276.633015 
L 214.986877 273.88165 
L 215.675434 275.245094 
L 216.019713 275.954892 
L 216.363991 276.163656 
L 216.70827 276.548069 
L 217.052548 275.854109 
L 217.396826 270.63501 
L 218.77394 274.80453 
L 219.118218 270.527029 
L 219.462497 271.120206 
L 220.151054 273.230882 
L 221.528167 275.520087 
L 221.872446 275.740369 
L 222.561003 276.578304 
L 223.593838 277.332734 
L 223.938116 277.380246 
L 224.282395 277.774738 
L 224.626673 277.737304 
L 225.31523 271.858799 
L 225.659508 272.934293 
L 226.003787 267.168089 
L 226.692344 271.278579 
L 227.036622 272.007093 
L 227.725179 273.757831 
L 228.413736 275.5604 
L 229.102292 276.519274 
L 229.446571 271.15476 
L 229.790849 269.306119 
L 230.479406 272.359832 
L 231.167963 274.444592 
L 231.512241 274.869319 
L 231.85652 275.653984 
L 232.200798 275.874266 
L 233.233633 277.190199 
L 233.577912 277.211795 
L 233.92219 277.635082 
L 234.610747 278.068447 
L 235.299304 278.449981 
L 235.643582 278.555083 
L 235.987861 270.014477 
L 236.332139 272.391507 
L 237.020696 275.275329 
L 237.709253 277.059181 
L 238.742088 278.677462 
L 240.119202 279.970359 
L 240.46348 280.400844 
L 241.152037 280.674397 
L 241.840594 281.024257 
L 242.184872 273.397893 
L 242.529151 275.27101 
L 242.873429 272.017172 
L 243.217708 273.551947 
L 243.561986 274.522339 
L 243.906264 275.90882 
L 244.250543 275.638146 
L 244.594821 276.466004 
L 244.594821 276.466004 
" style="fill:none;stroke:#ff7f0e;stroke-linecap:square;stroke-width:1.5;"/>
   </g>
   <g id="patch_3">
    <path d="M 57.6 307.584 
L 57.6 41.472 
" style="fill:none;stroke:#000000;stroke-linecap:square;stroke-linejoin:miter;stroke-width:0.8;"/>
   </g>
   <g id="patch_4">
    <path d="M 414.72 307.584 
L 414.72 41.472 
" style="fill:none;stroke:#000000;stroke-linecap:square;stroke-linejoin:miter;stroke-width:0.8;"/>
   </g>
   <g id="patch_5">
    <path d="M 57.6 307.584 
L 414.72 307.584 
" style="fill:none;stroke:#000000;stroke-linecap:square;stroke-linejoin:miter;stroke-width:0.8;"/>
   </g>
   <g id="patch_6">
    <path d="M 57.6 41.472 
L 414.72 41.472 
" style="fill:none;stroke:#000000;stroke-linecap:square;stroke-linejoin:miter;stroke-width:0.8;"/>
   </g>
   <g id="text_15">
    <!-- Average fitness over 60 seconds for52cities -->
    <defs>
     <path d="M 48.78125 52.59375 
L 48.78125 44.1875 
Q 44.96875 46.296875 41.140625 47.34375 
Q 37.3125 48.390625 33.40625 48.390625 
Q 24.65625 48.390625 19.8125 42.84375 
Q 14.984375 37.3125 14.984375 27.296875 
Q 14.984375 17.28125 19.8125 11.734375 
Q 24.65625 6.203125 33.40625 6.203125 
Q 37.3125 6.203125 41.140625 7.25 
Q 44.96875 8.296875 48.78125 10.40625 
L 48.78125 2.09375 
Q 45.015625 0.34375 40.984375 -0.53125 
Q 36.96875 -1.421875 32.421875 -1.421875 
Q 20.0625 -1.421875 12.78125 6.34375 
Q 5.515625 14.109375 5.515625 27.296875 
Q 5.515625 40.671875 12.859375 48.328125 
Q 20.21875 56 33.015625 56 
Q 37.15625 56 41.109375 55.140625 
Q 45.0625 54.296875 48.78125 52.59375 
z
" id="DejaVuSans-63"/>
     <path d="M 45.40625 46.390625 
L 45.40625 75.984375 
L 54.390625 75.984375 
L 54.390625 0 
L 45.40625 0 
L 45.40625 8.203125 
Q 42.578125 3.328125 38.25 0.953125 
Q 33.9375 -1.421875 27.875 -1.421875 
Q 17.96875 -1.421875 11.734375 6.484375 
Q 5.515625 14.40625 5.515625 27.296875 
Q 5.515625 40.1875 11.734375 48.09375 
Q 17.96875 56 27.875 56 
Q 33.9375 56 38.25 53.625 
Q 42.578125 51.265625 45.40625 46.390625 
z
M 14.796875 27.296875 
Q 14.796875 17.390625 18.875 11.75 
Q 22.953125 6.109375 30.078125 6.109375 
Q 37.203125 6.109375 41.296875 11.75 
Q 45.40625 17.390625 45.40625 27.296875 
Q 45.40625 37.203125 41.296875 42.84375 
Q 37.203125 48.484375 30.078125 48.484375 
Q 22.953125 48.484375 18.875 42.84375 
Q 14.796875 37.203125 14.796875 27.296875 
z
" id="DejaVuSans-64"/>
    </defs>
    <g transform="translate(104.533125 35.472)scale(0.12 -0.12)">
     <use xlink:href="#DejaVuSans-41"/>
     <use x="68.330078" xlink:href="#DejaVuSans-76"/>
     <use x="127.509766" xlink:href="#DejaVuSans-65"/>
     <use x="189.033203" xlink:href="#DejaVuSans-72"/>
     <use x="230.146484" xlink:href="#DejaVuSans-61"/>
     <use x="291.425781" xlink:href="#DejaVuSans-67"/>
     <use x="354.902344" xlink:href="#DejaVuSans-65"/>
     <use x="416.425781" xlink:href="#DejaVuSans-20"/>
     <use x="448.212891" xlink:href="#DejaVuSans-66"/>
     <use x="483.417969" xlink:href="#DejaVuSans-69"/>
     <use x="511.201172" xlink:href="#DejaVuSans-74"/>
     <use x="550.410156" xlink:href="#DejaVuSans-6e"/>
     <use x="613.789062" xlink:href="#DejaVuSans-65"/>
     <use x="675.3125" xlink:href="#DejaVuSans-73"/>
     <use x="727.412109" xlink:href="#DejaVuSans-73"/>
     <use x="779.511719" xlink:href="#DejaVuSans-20"/>
     <use x="811.298828" xlink:href="#DejaVuSans-6f"/>
     <use x="872.480469" xlink:href="#DejaVuSans-76"/>
     <use x="931.660156" xlink:href="#DejaVuSans-65"/>
     <use x="993.183594" xlink:href="#DejaVuSans-72"/>
     <use x="1034.296875" xlink:href="#DejaVuSans-20"/>
     <use x="1066.083984" xlink:href="#DejaVuSans-36"/>
     <use x="1129.707031" xlink:href="#DejaVuSans-30"/>
     <use x="1193.330078" xlink:href="#DejaVuSans-20"/>
     <use x="1225.117188" xlink:href="#DejaVuSans-73"/>
     <use x="1277.216797" xlink:href="#DejaVuSans-65"/>
     <use x="1338.740234" xlink:href="#DejaVuSans-63"/>
     <use x="1393.720703" xlink:href="#DejaVuSans-6f"/>
     <use x="1454.902344" xlink:href="#DejaVuSans-6e"/>
     <use x="1518.28125" xlink:href="#DejaVuSans-64"/>
     <use x="1581.757812" xlink:href="#DejaVuSans-73"/>
     <use x="1633.857422" xlink:href="#DejaVuSans-20"/>
     <use x="1665.644531" xlink:href="#DejaVuSans-66"/>
     <use x="1700.849609" xlink:href="#DejaVuSans-6f"/>
     <use x="1762.03125" xlink:href="#DejaVuSans-72"/>
     <use x="1803.144531" xlink:href="#DejaVuSans-35"/>
     <use x="1866.767578" xlink:href="#DejaVuSans-32"/>
     <use x="1930.390625" xlink:href="#DejaVuSans-63"/>
     <use x="1985.371094" xlink:href="#DejaVuSans-69"/>
     <use x="2013.154297" xlink:href="#DejaVuSans-74"/>
     <use x="2052.363281" xlink:href="#DejaVuSans-69"/>
     <use x="2080.146484" xlink:href="#DejaVuSans-65"/>
     <use x="2141.669922" xlink:href="#DejaVuSans-73"/>
    </g>
   </g>
   <g id="legend_1">
    <g id="patch_7">
     <path d="M 112.11375 78.82825 
L 407.72 78.82825 
Q 409.72 78.82825 409.72 76.82825 
L 409.72 48.472 
Q 409.72 46.472 407.72 46.472 
L 112.11375 46.472 
Q 110.11375 46.472 110.11375 48.472 
L 110.11375 76.82825 
Q 110.11375 78.82825 112.11375 78.82825 
z
" style="fill:#ffffff;opacity:0.8;stroke:#cccccc;stroke-linejoin:miter;"/>
    </g>
    <g id="patch_8">
     <path d="M 114.11375 58.070437 
L 134.11375 58.070437 
L 134.11375 51.070437 
L 114.11375 51.070437 
z
" style="fill:#87ceeb;stroke:#87ceeb;stroke-linejoin:miter;"/>
    </g>
    <g id="text_16">
     <!-- Parallel min, 11387.2 Last Generation number 945.0 -->
     <defs>
      <path d="M 19.671875 64.796875 
L 19.671875 37.40625 
L 32.078125 37.40625 
Q 38.96875 37.40625 42.71875 40.96875 
Q 46.484375 44.53125 46.484375 51.125 
Q 46.484375 57.671875 42.71875 61.234375 
Q 38.96875 64.796875 32.078125 64.796875 
z
M 9.8125 72.90625 
L 32.078125 72.90625 
Q 44.34375 72.90625 50.609375 67.359375 
Q 56.890625 61.8125 56.890625 51.125 
Q 56.890625 40.328125 50.609375 34.8125 
Q 44.34375 29.296875 32.078125 29.296875 
L 19.671875 29.296875 
L 19.671875 0 
L 9.8125 0 
z
" id="DejaVuSans-50"/>
      <path d="M 9.421875 75.984375 
L 18.40625 75.984375 
L 18.40625 0 
L 9.421875 0 
z
" id="DejaVuSans-6c"/>
      <path d="M 11.71875 12.40625 
L 22.015625 12.40625 
L 22.015625 4 
L 14.015625 -11.625 
L 7.71875 -11.625 
L 11.71875 4 
z
" id="DejaVuSans-2c"/>
      <path d="M 40.578125 39.3125 
Q 47.65625 37.796875 51.625 33 
Q 55.609375 28.21875 55.609375 21.1875 
Q 55.609375 10.40625 48.1875 4.484375 
Q 40.765625 -1.421875 27.09375 -1.421875 
Q 22.515625 -1.421875 17.65625 -0.515625 
Q 12.796875 0.390625 7.625 2.203125 
L 7.625 11.71875 
Q 11.71875 9.328125 16.59375 8.109375 
Q 21.484375 6.890625 26.8125 6.890625 
Q 36.078125 6.890625 40.9375 10.546875 
Q 45.796875 14.203125 45.796875 21.1875 
Q 45.796875 27.640625 41.28125 31.265625 
Q 36.765625 34.90625 28.71875 34.90625 
L 20.21875 34.90625 
L 20.21875 43.015625 
L 29.109375 43.015625 
Q 36.375 43.015625 40.234375 45.921875 
Q 44.09375 48.828125 44.09375 54.296875 
Q 44.09375 59.90625 40.109375 62.90625 
Q 36.140625 65.921875 28.71875 65.921875 
Q 24.65625 65.921875 20.015625 65.03125 
Q 15.375 64.15625 9.8125 62.3125 
L 9.8125 71.09375 
Q 15.4375 72.65625 20.34375 73.4375 
Q 25.25 74.21875 29.59375 74.21875 
Q 40.828125 74.21875 47.359375 69.109375 
Q 53.90625 64.015625 53.90625 55.328125 
Q 53.90625 49.265625 50.4375 45.09375 
Q 46.96875 40.921875 40.578125 39.3125 
z
" id="DejaVuSans-33"/>
      <path d="M 10.6875 12.40625 
L 21 12.40625 
L 21 0 
L 10.6875 0 
z
" id="DejaVuSans-2e"/>
      <path d="M 9.8125 72.90625 
L 19.671875 72.90625 
L 19.671875 8.296875 
L 55.171875 8.296875 
L 55.171875 0 
L 9.8125 0 
z
" id="DejaVuSans-4c"/>
      <path d="M 10.984375 1.515625 
L 10.984375 10.5 
Q 14.703125 8.734375 18.5 7.8125 
Q 22.3125 6.890625 25.984375 6.890625 
Q 35.75 6.890625 40.890625 13.453125 
Q 46.046875 20.015625 46.78125 33.40625 
Q 43.953125 29.203125 39.59375 26.953125 
Q 35.25 24.703125 29.984375 24.703125 
Q 19.046875 24.703125 12.671875 31.3125 
Q 6.296875 37.9375 6.296875 49.421875 
Q 6.296875 60.640625 12.9375 67.421875 
Q 19.578125 74.21875 30.609375 74.21875 
Q 43.265625 74.21875 49.921875 64.515625 
Q 56.59375 54.828125 56.59375 36.375 
Q 56.59375 19.140625 48.40625 8.859375 
Q 40.234375 -1.421875 26.421875 -1.421875 
Q 22.703125 -1.421875 18.890625 -0.6875 
Q 15.09375 0.046875 10.984375 1.515625 
z
M 30.609375 32.421875 
Q 37.25 32.421875 41.125 36.953125 
Q 45.015625 41.5 45.015625 49.421875 
Q 45.015625 57.28125 41.125 61.84375 
Q 37.25 66.40625 30.609375 66.40625 
Q 23.96875 66.40625 20.09375 61.84375 
Q 16.21875 57.28125 16.21875 49.421875 
Q 16.21875 41.5 20.09375 36.953125 
Q 23.96875 32.421875 30.609375 32.421875 
z
" id="DejaVuSans-39"/>
     </defs>
     <g transform="translate(142.11375 58.070437)scale(0.1 -0.1)">
      <use xlink:href="#DejaVuSans-50"/>
      <use x="60.240234" xlink:href="#DejaVuSans-61"/>
      <use x="121.519531" xlink:href="#DejaVuSans-72"/>
      <use x="162.632812" xlink:href="#DejaVuSans-61"/>
      <use x="223.912109" xlink:href="#DejaVuSans-6c"/>
      <use x="251.695312" xlink:href="#DejaVuSans-6c"/>
      <use x="279.478516" xlink:href="#DejaVuSans-65"/>
      <use x="341.001953" xlink:href="#DejaVuSans-6c"/>
      <use x="368.785156" xlink:href="#DejaVuSans-20"/>
      <use x="400.572266" xlink:href="#DejaVuSans-6d"/>
      <use x="497.984375" xlink:href="#DejaVuSans-69"/>
      <use x="525.767578" xlink:href="#DejaVuSans-6e"/>
      <use x="589.146484" xlink:href="#DejaVuSans-2c"/>
      <use x="620.933594" xlink:href="#DejaVuSans-20"/>
      <use x="652.720703" xlink:href="#DejaVuSans-31"/>
      <use x="716.34375" xlink:href="#DejaVuSans-31"/>
      <use x="779.966797" xlink:href="#DejaVuSans-33"/>
      <use x="843.589844" xlink:href="#DejaVuSans-38"/>
      <use x="907.212891" xlink:href="#DejaVuSans-37"/>
      <use x="970.835938" xlink:href="#DejaVuSans-2e"/>
      <use x="1002.623047" xlink:href="#DejaVuSans-32"/>
      <use x="1066.246094" xlink:href="#DejaVuSans-20"/>
      <use x="1098.033203" xlink:href="#DejaVuSans-4c"/>
      <use x="1153.746094" xlink:href="#DejaVuSans-61"/>
      <use x="1215.025391" xlink:href="#DejaVuSans-73"/>
      <use x="1267.125" xlink:href="#DejaVuSans-74"/>
      <use x="1306.333984" xlink:href="#DejaVuSans-20"/>
      <use x="1338.121094" xlink:href="#DejaVuSans-47"/>
      <use x="1415.611328" xlink:href="#DejaVuSans-65"/>
      <use x="1477.134766" xlink:href="#DejaVuSans-6e"/>
      <use x="1540.513672" xlink:href="#DejaVuSans-65"/>
      <use x="1602.037109" xlink:href="#DejaVuSans-72"/>
      <use x="1643.150391" xlink:href="#DejaVuSans-61"/>
      <use x="1704.429688" xlink:href="#DejaVuSans-74"/>
      <use x="1743.638672" xlink:href="#DejaVuSans-69"/>
      <use x="1771.421875" xlink:href="#DejaVuSans-6f"/>
      <use x="1832.603516" xlink:href="#DejaVuSans-6e"/>
      <use x="1895.982422" xlink:href="#DejaVuSans-20"/>
      <use x="1927.769531" xlink:href="#DejaVuSans-6e"/>
      <use x="1991.148438" xlink:href="#DejaVuSans-75"/>
      <use x="2054.527344" xlink:href="#DejaVuSans-6d"/>
      <use x="2151.939453" xlink:href="#DejaVuSans-62"/>
      <use x="2215.416016" xlink:href="#DejaVuSans-65"/>
      <use x="2276.939453" xlink:href="#DejaVuSans-72"/>
      <use x="2318.052734" xlink:href="#DejaVuSans-20"/>
      <use x="2349.839844" xlink:href="#DejaVuSans-39"/>
      <use x="2413.462891" xlink:href="#DejaVuSans-34"/>
      <use x="2477.085938" xlink:href="#DejaVuSans-35"/>
      <use x="2540.708984" xlink:href="#DejaVuSans-2e"/>
      <use x="2572.496094" xlink:href="#DejaVuSans-30"/>
     </g>
    </g>
    <g id="patch_9">
     <path d="M 114.11375 72.748562 
L 134.11375 72.748562 
L 134.11375 65.748562 
L 114.11375 65.748562 
z
" style="fill:#ffa500;stroke:#ffa500;stroke-linejoin:miter;"/>
    </g>
    <g id="text_17">
     <!-- Serial min, 12391.8 Last Generation number 498.0 -->
     <defs>
      <path d="M 53.515625 70.515625 
L 53.515625 60.890625 
Q 47.90625 63.578125 42.921875 64.890625 
Q 37.9375 66.21875 33.296875 66.21875 
Q 25.25 66.21875 20.875 63.09375 
Q 16.5 59.96875 16.5 54.203125 
Q 16.5 49.359375 19.40625 46.890625 
Q 22.3125 44.4375 30.421875 42.921875 
L 36.375 41.703125 
Q 47.40625 39.59375 52.65625 34.296875 
Q 57.90625 29 57.90625 20.125 
Q 57.90625 9.515625 50.796875 4.046875 
Q 43.703125 -1.421875 29.984375 -1.421875 
Q 24.8125 -1.421875 18.96875 -0.25 
Q 13.140625 0.921875 6.890625 3.21875 
L 6.890625 13.375 
Q 12.890625 10.015625 18.65625 8.296875 
Q 24.421875 6.59375 29.984375 6.59375 
Q 38.421875 6.59375 43.015625 9.90625 
Q 47.609375 13.234375 47.609375 19.390625 
Q 47.609375 24.75 44.3125 27.78125 
Q 41.015625 30.8125 33.5 32.328125 
L 27.484375 33.5 
Q 16.453125 35.6875 11.515625 40.375 
Q 6.59375 45.0625 6.59375 53.421875 
Q 6.59375 63.09375 13.40625 68.65625 
Q 20.21875 74.21875 32.171875 74.21875 
Q 37.3125 74.21875 42.625 73.28125 
Q 47.953125 72.359375 53.515625 70.515625 
z
" id="DejaVuSans-53"/>
     </defs>
     <g transform="translate(142.11375 72.748562)scale(0.1 -0.1)">
      <use xlink:href="#DejaVuSans-53"/>
      <use x="63.476562" xlink:href="#DejaVuSans-65"/>
      <use x="125" xlink:href="#DejaVuSans-72"/>
      <use x="166.113281" xlink:href="#DejaVuSans-69"/>
      <use x="193.896484" xlink:href="#DejaVuSans-61"/>
      <use x="255.175781" xlink:href="#DejaVuSans-6c"/>
      <use x="282.958984" xlink:href="#DejaVuSans-20"/>
      <use x="314.746094" xlink:href="#DejaVuSans-6d"/>
      <use x="412.158203" xlink:href="#DejaVuSans-69"/>
      <use x="439.941406" xlink:href="#DejaVuSans-6e"/>
      <use x="503.320312" xlink:href="#DejaVuSans-2c"/>
      <use x="535.107422" xlink:href="#DejaVuSans-20"/>
      <use x="566.894531" xlink:href="#DejaVuSans-31"/>
      <use x="630.517578" xlink:href="#DejaVuSans-32"/>
      <use x="694.140625" xlink:href="#DejaVuSans-33"/>
      <use x="757.763672" xlink:href="#DejaVuSans-39"/>
      <use x="821.386719" xlink:href="#DejaVuSans-31"/>
      <use x="885.009766" xlink:href="#DejaVuSans-2e"/>
      <use x="916.796875" xlink:href="#DejaVuSans-38"/>
      <use x="980.419922" xlink:href="#DejaVuSans-20"/>
      <use x="1012.207031" xlink:href="#DejaVuSans-4c"/>
      <use x="1067.919922" xlink:href="#DejaVuSans-61"/>
      <use x="1129.199219" xlink:href="#DejaVuSans-73"/>
      <use x="1181.298828" xlink:href="#DejaVuSans-74"/>
      <use x="1220.507812" xlink:href="#DejaVuSans-20"/>
      <use x="1252.294922" xlink:href="#DejaVuSans-47"/>
      <use x="1329.785156" xlink:href="#DejaVuSans-65"/>
      <use x="1391.308594" xlink:href="#DejaVuSans-6e"/>
      <use x="1454.6875" xlink:href="#DejaVuSans-65"/>
      <use x="1516.210938" xlink:href="#DejaVuSans-72"/>
      <use x="1557.324219" xlink:href="#DejaVuSans-61"/>
      <use x="1618.603516" xlink:href="#DejaVuSans-74"/>
      <use x="1657.8125" xlink:href="#DejaVuSans-69"/>
      <use x="1685.595703" xlink:href="#DejaVuSans-6f"/>
      <use x="1746.777344" xlink:href="#DejaVuSans-6e"/>
      <use x="1810.15625" xlink:href="#DejaVuSans-20"/>
      <use x="1841.943359" xlink:href="#DejaVuSans-6e"/>
      <use x="1905.322266" xlink:href="#DejaVuSans-75"/>
      <use x="1968.701172" xlink:href="#DejaVuSans-6d"/>
      <use x="2066.113281" xlink:href="#DejaVuSans-62"/>
      <use x="2129.589844" xlink:href="#DejaVuSans-65"/>
      <use x="2191.113281" xlink:href="#DejaVuSans-72"/>
      <use x="2232.226562" xlink:href="#DejaVuSans-20"/>
      <use x="2264.013672" xlink:href="#DejaVuSans-34"/>
      <use x="2327.636719" xlink:href="#DejaVuSans-39"/>
      <use x="2391.259766" xlink:href="#DejaVuSans-38"/>
      <use x="2454.882812" xlink:href="#DejaVuSans-2e"/>
      <use x="2486.669922" xlink:href="#DejaVuSans-30"/>
     </g>
    </g>
   </g>
  </g>
 </g>
 <defs>
  <clipPath id="p33883ad9e1">
   <rect height="266.112" width="357.12" x="57.6" y="41.472"/>
  </clipPath>
 </defs>
</svg>
