<?xml version="1.0" encoding="utf-8" standalone="no"?>
<!DOCTYPE svg PUBLIC "-//W3C//DTD SVG 1.1//EN"
  "http://www.w3.org/Graphics/SVG/1.1/DTD/svg11.dtd">
<!-- Created with matplotlib (http://matplotlib.org/) -->
<svg height="345.6pt" version="1.1" viewBox="0 0 460.8 345.6" width="460.8pt" xmlns="http://www.w3.org/2000/svg" xmlns:xlink="http://www.w3.org/1999/xlink">
 <defs>
  <style type="text/css">
*{stroke-linecap:butt;stroke-linejoin:round;}
  </style>
 </defs>
 <g id="figure_1">
  <g id="patch_1">
   <path d="M 0 345.6 
L 460.8 345.6 
L 460.8 0 
L 0 0 
z
" style="fill:#ffffff;"/>
  </g>
  <g id="axes_1">
   <g id="patch_2">
    <path d="M 57.6 307.584 
L 414.72 307.584 
L 414.72 41.472 
L 57.6 41.472 
z
" style="fill:#ffffff;"/>
   </g>
   <g id="matplotlib.axis_1">
    <g id="xtick_1">
     <g id="line2d_1">
      <defs>
       <path d="M 0 0 
L 0 3.5 
" id="mc65266aaac" style="stroke:#000000;stroke-width:0.8;"/>
      </defs>
      <g>
       <use style="stroke:#000000;stroke-width:0.8;" x="73.634646" xlink:href="#mc65266aaac" y="307.584"/>
      </g>
     </g>
     <g id="text_1">
      <!-- 0 -->
      <defs>
       <path d="M 31.78125 66.40625 
Q 24.171875 66.40625 20.328125 58.90625 
Q 16.5 51.421875 16.5 36.375 
Q 16.5 21.390625 20.328125 13.890625 
Q 24.171875 6.390625 31.78125 6.390625 
Q 39.453125 6.390625 43.28125 13.890625 
Q 47.125 21.390625 47.125 36.375 
Q 47.125 51.421875 43.28125 58.90625 
Q 39.453125 66.40625 31.78125 66.40625 
z
M 31.78125 74.21875 
Q 44.046875 74.21875 50.515625 64.515625 
Q 56.984375 54.828125 56.984375 36.375 
Q 56.984375 17.96875 50.515625 8.265625 
Q 44.046875 -1.421875 31.78125 -1.421875 
Q 19.53125 -1.421875 13.0625 8.265625 
Q 6.59375 17.96875 6.59375 36.375 
Q 6.59375 54.828125 13.0625 64.515625 
Q 19.53125 74.21875 31.78125 74.21875 
z
" id="DejaVuSans-30"/>
      </defs>
      <g transform="translate(70.453396 322.182437)scale(0.1 -0.1)">
       <use xlink:href="#DejaVuSans-30"/>
      </g>
     </g>
    </g>
    <g id="xtick_2">
     <g id="line2d_2">
      <g>
       <use style="stroke:#000000;stroke-width:0.8;" x="123.154864" xlink:href="#mc65266aaac" y="307.584"/>
      </g>
     </g>
     <g id="text_2">
      <!-- 250 -->
      <defs>
       <path d="M 19.1875 8.296875 
L 53.609375 8.296875 
L 53.609375 0 
L 7.328125 0 
L 7.328125 8.296875 
Q 12.9375 14.109375 22.625 23.890625 
Q 32.328125 33.6875 34.8125 36.53125 
Q 39.546875 41.84375 41.421875 45.53125 
Q 43.3125 49.21875 43.3125 52.78125 
Q 43.3125 58.59375 39.234375 62.25 
Q 35.15625 65.921875 28.609375 65.921875 
Q 23.96875 65.921875 18.8125 64.3125 
Q 13.671875 62.703125 7.8125 59.421875 
L 7.8125 69.390625 
Q 13.765625 71.78125 18.9375 73 
Q 24.125 74.21875 28.421875 74.21875 
Q 39.75 74.21875 46.484375 68.546875 
Q 53.21875 62.890625 53.21875 53.421875 
Q 53.21875 48.921875 51.53125 44.890625 
Q 49.859375 40.875 45.40625 35.40625 
Q 44.1875 33.984375 37.640625 27.21875 
Q 31.109375 20.453125 19.1875 8.296875 
z
" id="DejaVuSans-32"/>
       <path d="M 10.796875 72.90625 
L 49.515625 72.90625 
L 49.515625 64.59375 
L 19.828125 64.59375 
L 19.828125 46.734375 
Q 21.96875 47.46875 24.109375 47.828125 
Q 26.265625 48.1875 28.421875 48.1875 
Q 40.625 48.1875 47.75 41.5 
Q 54.890625 34.8125 54.890625 23.390625 
Q 54.890625 11.625 47.5625 5.09375 
Q 40.234375 -1.421875 26.90625 -1.421875 
Q 22.3125 -1.421875 17.546875 -0.640625 
Q 12.796875 0.140625 7.71875 1.703125 
L 7.71875 11.625 
Q 12.109375 9.234375 16.796875 8.0625 
Q 21.484375 6.890625 26.703125 6.890625 
Q 35.15625 6.890625 40.078125 11.328125 
Q 45.015625 15.765625 45.015625 23.390625 
Q 45.015625 31 40.078125 35.4375 
Q 35.15625 39.890625 26.703125 39.890625 
Q 22.75 39.890625 18.8125 39.015625 
Q 14.890625 38.140625 10.796875 36.28125 
z
" id="DejaVuSans-35"/>
      </defs>
      <g transform="translate(113.611114 322.182437)scale(0.1 -0.1)">
       <use xlink:href="#DejaVuSans-32"/>
       <use x="63.623047" xlink:href="#DejaVuSans-35"/>
       <use x="127.246094" xlink:href="#DejaVuSans-30"/>
      </g>
     </g>
    </g>
    <g id="xtick_3">
     <g id="line2d_3">
      <g>
       <use style="stroke:#000000;stroke-width:0.8;" x="172.675081" xlink:href="#mc65266aaac" y="307.584"/>
      </g>
     </g>
     <g id="text_3">
      <!-- 500 -->
      <g transform="translate(163.131331 322.182437)scale(0.1 -0.1)">
       <use xlink:href="#DejaVuSans-35"/>
       <use x="63.623047" xlink:href="#DejaVuSans-30"/>
       <use x="127.246094" xlink:href="#DejaVuSans-30"/>
      </g>
     </g>
    </g>
    <g id="xtick_4">
     <g id="line2d_4">
      <g>
       <use style="stroke:#000000;stroke-width:0.8;" x="222.195299" xlink:href="#mc65266aaac" y="307.584"/>
      </g>
     </g>
     <g id="text_4">
      <!-- 750 -->
      <defs>
       <path d="M 8.203125 72.90625 
L 55.078125 72.90625 
L 55.078125 68.703125 
L 28.609375 0 
L 18.3125 0 
L 43.21875 64.59375 
L 8.203125 64.59375 
z
" id="DejaVuSans-37"/>
      </defs>
      <g transform="translate(212.651549 322.182437)scale(0.1 -0.1)">
       <use xlink:href="#DejaVuSans-37"/>
       <use x="63.623047" xlink:href="#DejaVuSans-35"/>
       <use x="127.246094" xlink:href="#DejaVuSans-30"/>
      </g>
     </g>
    </g>
    <g id="xtick_5">
     <g id="line2d_5">
      <g>
       <use style="stroke:#000000;stroke-width:0.8;" x="271.715516" xlink:href="#mc65266aaac" y="307.584"/>
      </g>
     </g>
     <g id="text_5">
      <!-- 1000 -->
      <defs>
       <path d="M 12.40625 8.296875 
L 28.515625 8.296875 
L 28.515625 63.921875 
L 10.984375 60.40625 
L 10.984375 69.390625 
L 28.421875 72.90625 
L 38.28125 72.90625 
L 38.28125 8.296875 
L 54.390625 8.296875 
L 54.390625 0 
L 12.40625 0 
z
" id="DejaVuSans-31"/>
      </defs>
      <g transform="translate(258.990516 322.182437)scale(0.1 -0.1)">
       <use xlink:href="#DejaVuSans-31"/>
       <use x="63.623047" xlink:href="#DejaVuSans-30"/>
       <use x="127.246094" xlink:href="#DejaVuSans-30"/>
       <use x="190.869141" xlink:href="#DejaVuSans-30"/>
      </g>
     </g>
    </g>
    <g id="xtick_6">
     <g id="line2d_6">
      <g>
       <use style="stroke:#000000;stroke-width:0.8;" x="321.235734" xlink:href="#mc65266aaac" y="307.584"/>
      </g>
     </g>
     <g id="text_6">
      <!-- 1250 -->
      <g transform="translate(308.510734 322.182437)scale(0.1 -0.1)">
       <use xlink:href="#DejaVuSans-31"/>
       <use x="63.623047" xlink:href="#DejaVuSans-32"/>
       <use x="127.246094" xlink:href="#DejaVuSans-35"/>
       <use x="190.869141" xlink:href="#DejaVuSans-30"/>
      </g>
     </g>
    </g>
    <g id="xtick_7">
     <g id="line2d_7">
      <g>
       <use style="stroke:#000000;stroke-width:0.8;" x="370.755951" xlink:href="#mc65266aaac" y="307.584"/>
      </g>
     </g>
     <g id="text_7">
      <!-- 1500 -->
      <g transform="translate(358.030951 322.182437)scale(0.1 -0.1)">
       <use xlink:href="#DejaVuSans-31"/>
       <use x="63.623047" xlink:href="#DejaVuSans-35"/>
       <use x="127.246094" xlink:href="#DejaVuSans-30"/>
       <use x="190.869141" xlink:href="#DejaVuSans-30"/>
      </g>
     </g>
    </g>
    <g id="text_8">
     <!-- Generation number -->
     <defs>
      <path d="M 59.515625 10.40625 
L 59.515625 29.984375 
L 43.40625 29.984375 
L 43.40625 38.09375 
L 69.28125 38.09375 
L 69.28125 6.78125 
Q 63.578125 2.734375 56.6875 0.65625 
Q 49.8125 -1.421875 42 -1.421875 
Q 24.90625 -1.421875 15.25 8.5625 
Q 5.609375 18.5625 5.609375 36.375 
Q 5.609375 54.25 15.25 64.234375 
Q 24.90625 74.21875 42 74.21875 
Q 49.125 74.21875 55.546875 72.453125 
Q 61.96875 70.703125 67.390625 67.28125 
L 67.390625 56.78125 
Q 61.921875 61.421875 55.765625 63.765625 
Q 49.609375 66.109375 42.828125 66.109375 
Q 29.4375 66.109375 22.71875 58.640625 
Q 16.015625 51.171875 16.015625 36.375 
Q 16.015625 21.625 22.71875 14.15625 
Q 29.4375 6.6875 42.828125 6.6875 
Q 48.046875 6.6875 52.140625 7.59375 
Q 56.25 8.5 59.515625 10.40625 
z
" id="DejaVuSans-47"/>
      <path d="M 56.203125 29.59375 
L 56.203125 25.203125 
L 14.890625 25.203125 
Q 15.484375 15.921875 20.484375 11.0625 
Q 25.484375 6.203125 34.421875 6.203125 
Q 39.59375 6.203125 44.453125 7.46875 
Q 49.3125 8.734375 54.109375 11.28125 
L 54.109375 2.78125 
Q 49.265625 0.734375 44.1875 -0.34375 
Q 39.109375 -1.421875 33.890625 -1.421875 
Q 20.796875 -1.421875 13.15625 6.1875 
Q 5.515625 13.8125 5.515625 26.8125 
Q 5.515625 40.234375 12.765625 48.109375 
Q 20.015625 56 32.328125 56 
Q 43.359375 56 49.78125 48.890625 
Q 56.203125 41.796875 56.203125 29.59375 
z
M 47.21875 32.234375 
Q 47.125 39.59375 43.09375 43.984375 
Q 39.0625 48.390625 32.421875 48.390625 
Q 24.90625 48.390625 20.390625 44.140625 
Q 15.875 39.890625 15.1875 32.171875 
z
" id="DejaVuSans-65"/>
      <path d="M 54.890625 33.015625 
L 54.890625 0 
L 45.90625 0 
L 45.90625 32.71875 
Q 45.90625 40.484375 42.875 44.328125 
Q 39.84375 48.1875 33.796875 48.1875 
Q 26.515625 48.1875 22.3125 43.546875 
Q 18.109375 38.921875 18.109375 30.90625 
L 18.109375 0 
L 9.078125 0 
L 9.078125 54.6875 
L 18.109375 54.6875 
L 18.109375 46.1875 
Q 21.34375 51.125 25.703125 53.5625 
Q 30.078125 56 35.796875 56 
Q 45.21875 56 50.046875 50.171875 
Q 54.890625 44.34375 54.890625 33.015625 
z
" id="DejaVuSans-6e"/>
      <path d="M 41.109375 46.296875 
Q 39.59375 47.171875 37.8125 47.578125 
Q 36.03125 48 33.890625 48 
Q 26.265625 48 22.1875 43.046875 
Q 18.109375 38.09375 18.109375 28.8125 
L 18.109375 0 
L 9.078125 0 
L 9.078125 54.6875 
L 18.109375 54.6875 
L 18.109375 46.1875 
Q 20.953125 51.171875 25.484375 53.578125 
Q 30.03125 56 36.53125 56 
Q 37.453125 56 38.578125 55.875 
Q 39.703125 55.765625 41.0625 55.515625 
z
" id="DejaVuSans-72"/>
      <path d="M 34.28125 27.484375 
Q 23.390625 27.484375 19.1875 25 
Q 14.984375 22.515625 14.984375 16.5 
Q 14.984375 11.71875 18.140625 8.90625 
Q 21.296875 6.109375 26.703125 6.109375 
Q 34.1875 6.109375 38.703125 11.40625 
Q 43.21875 16.703125 43.21875 25.484375 
L 43.21875 27.484375 
z
M 52.203125 31.203125 
L 52.203125 0 
L 43.21875 0 
L 43.21875 8.296875 
Q 40.140625 3.328125 35.546875 0.953125 
Q 30.953125 -1.421875 24.3125 -1.421875 
Q 15.921875 -1.421875 10.953125 3.296875 
Q 6 8.015625 6 15.921875 
Q 6 25.140625 12.171875 29.828125 
Q 18.359375 34.515625 30.609375 34.515625 
L 43.21875 34.515625 
L 43.21875 35.40625 
Q 43.21875 41.609375 39.140625 45 
Q 35.0625 48.390625 27.6875 48.390625 
Q 23 48.390625 18.546875 47.265625 
Q 14.109375 46.140625 10.015625 43.890625 
L 10.015625 52.203125 
Q 14.9375 54.109375 19.578125 55.046875 
Q 24.21875 56 28.609375 56 
Q 40.484375 56 46.34375 49.84375 
Q 52.203125 43.703125 52.203125 31.203125 
z
" id="DejaVuSans-61"/>
      <path d="M 18.3125 70.21875 
L 18.3125 54.6875 
L 36.8125 54.6875 
L 36.8125 47.703125 
L 18.3125 47.703125 
L 18.3125 18.015625 
Q 18.3125 11.328125 20.140625 9.421875 
Q 21.96875 7.515625 27.59375 7.515625 
L 36.8125 7.515625 
L 36.8125 0 
L 27.59375 0 
Q 17.1875 0 13.234375 3.875 
Q 9.28125 7.765625 9.28125 18.015625 
L 9.28125 47.703125 
L 2.6875 47.703125 
L 2.6875 54.6875 
L 9.28125 54.6875 
L 9.28125 70.21875 
z
" id="DejaVuSans-74"/>
      <path d="M 9.421875 54.6875 
L 18.40625 54.6875 
L 18.40625 0 
L 9.421875 0 
z
M 9.421875 75.984375 
L 18.40625 75.984375 
L 18.40625 64.59375 
L 9.421875 64.59375 
z
" id="DejaVuSans-69"/>
      <path d="M 30.609375 48.390625 
Q 23.390625 48.390625 19.1875 42.75 
Q 14.984375 37.109375 14.984375 27.296875 
Q 14.984375 17.484375 19.15625 11.84375 
Q 23.34375 6.203125 30.609375 6.203125 
Q 37.796875 6.203125 41.984375 11.859375 
Q 46.1875 17.53125 46.1875 27.296875 
Q 46.1875 37.015625 41.984375 42.703125 
Q 37.796875 48.390625 30.609375 48.390625 
z
M 30.609375 56 
Q 42.328125 56 49.015625 48.375 
Q 55.71875 40.765625 55.71875 27.296875 
Q 55.71875 13.875 49.015625 6.21875 
Q 42.328125 -1.421875 30.609375 -1.421875 
Q 18.84375 -1.421875 12.171875 6.21875 
Q 5.515625 13.875 5.515625 27.296875 
Q 5.515625 40.765625 12.171875 48.375 
Q 18.84375 56 30.609375 56 
z
" id="DejaVuSans-6f"/>
      <path id="DejaVuSans-20"/>
      <path d="M 8.5 21.578125 
L 8.5 54.6875 
L 17.484375 54.6875 
L 17.484375 21.921875 
Q 17.484375 14.15625 20.5 10.265625 
Q 23.53125 6.390625 29.59375 6.390625 
Q 36.859375 6.390625 41.078125 11.03125 
Q 45.3125 15.671875 45.3125 23.6875 
L 45.3125 54.6875 
L 54.296875 54.6875 
L 54.296875 0 
L 45.3125 0 
L 45.3125 8.40625 
Q 42.046875 3.421875 37.71875 1 
Q 33.40625 -1.421875 27.6875 -1.421875 
Q 18.265625 -1.421875 13.375 4.4375 
Q 8.5 10.296875 8.5 21.578125 
z
M 31.109375 56 
z
" id="DejaVuSans-75"/>
      <path d="M 52 44.1875 
Q 55.375 50.25 60.0625 53.125 
Q 64.75 56 71.09375 56 
Q 79.640625 56 84.28125 50.015625 
Q 88.921875 44.046875 88.921875 33.015625 
L 88.921875 0 
L 79.890625 0 
L 79.890625 32.71875 
Q 79.890625 40.578125 77.09375 44.375 
Q 74.3125 48.1875 68.609375 48.1875 
Q 61.625 48.1875 57.5625 43.546875 
Q 53.515625 38.921875 53.515625 30.90625 
L 53.515625 0 
L 44.484375 0 
L 44.484375 32.71875 
Q 44.484375 40.625 41.703125 44.40625 
Q 38.921875 48.1875 33.109375 48.1875 
Q 26.21875 48.1875 22.15625 43.53125 
Q 18.109375 38.875 18.109375 30.90625 
L 18.109375 0 
L 9.078125 0 
L 9.078125 54.6875 
L 18.109375 54.6875 
L 18.109375 46.1875 
Q 21.1875 51.21875 25.484375 53.609375 
Q 29.78125 56 35.6875 56 
Q 41.65625 56 45.828125 52.96875 
Q 50 49.953125 52 44.1875 
z
" id="DejaVuSans-6d"/>
      <path d="M 48.6875 27.296875 
Q 48.6875 37.203125 44.609375 42.84375 
Q 40.53125 48.484375 33.40625 48.484375 
Q 26.265625 48.484375 22.1875 42.84375 
Q 18.109375 37.203125 18.109375 27.296875 
Q 18.109375 17.390625 22.1875 11.75 
Q 26.265625 6.109375 33.40625 6.109375 
Q 40.53125 6.109375 44.609375 11.75 
Q 48.6875 17.390625 48.6875 27.296875 
z
M 18.109375 46.390625 
Q 20.953125 51.265625 25.265625 53.625 
Q 29.59375 56 35.59375 56 
Q 45.5625 56 51.78125 48.09375 
Q 58.015625 40.1875 58.015625 27.296875 
Q 58.015625 14.40625 51.78125 6.484375 
Q 45.5625 -1.421875 35.59375 -1.421875 
Q 29.59375 -1.421875 25.265625 0.953125 
Q 20.953125 3.328125 18.109375 8.203125 
L 18.109375 0 
L 9.078125 0 
L 9.078125 75.984375 
L 18.109375 75.984375 
z
" id="DejaVuSans-62"/>
     </defs>
     <g transform="translate(187.163906 335.860562)scale(0.1 -0.1)">
      <use xlink:href="#DejaVuSans-47"/>
      <use x="77.490234" xlink:href="#DejaVuSans-65"/>
      <use x="139.013672" xlink:href="#DejaVuSans-6e"/>
      <use x="202.392578" xlink:href="#DejaVuSans-65"/>
      <use x="263.916016" xlink:href="#DejaVuSans-72"/>
      <use x="305.029297" xlink:href="#DejaVuSans-61"/>
      <use x="366.308594" xlink:href="#DejaVuSans-74"/>
      <use x="405.517578" xlink:href="#DejaVuSans-69"/>
      <use x="433.300781" xlink:href="#DejaVuSans-6f"/>
      <use x="494.482422" xlink:href="#DejaVuSans-6e"/>
      <use x="557.861328" xlink:href="#DejaVuSans-20"/>
      <use x="589.648438" xlink:href="#DejaVuSans-6e"/>
      <use x="653.027344" xlink:href="#DejaVuSans-75"/>
      <use x="716.40625" xlink:href="#DejaVuSans-6d"/>
      <use x="813.818359" xlink:href="#DejaVuSans-62"/>
      <use x="877.294922" xlink:href="#DejaVuSans-65"/>
      <use x="938.818359" xlink:href="#DejaVuSans-72"/>
     </g>
    </g>
   </g>
   <g id="matplotlib.axis_2">
    <g id="ytick_1">
     <g id="line2d_8">
      <defs>
       <path d="M 0 0 
L -3.5 0 
" id="md621de5963" style="stroke:#000000;stroke-width:0.8;"/>
      </defs>
      <g>
       <use style="stroke:#000000;stroke-width:0.8;" x="57.6" xlink:href="#md621de5963" y="303.400462"/>
      </g>
     </g>
     <g id="text_9">
      <!-- 10000 -->
      <g transform="translate(18.7875 307.199681)scale(0.1 -0.1)">
       <use xlink:href="#DejaVuSans-31"/>
       <use x="63.623047" xlink:href="#DejaVuSans-30"/>
       <use x="127.246094" xlink:href="#DejaVuSans-30"/>
       <use x="190.869141" xlink:href="#DejaVuSans-30"/>
       <use x="254.492188" xlink:href="#DejaVuSans-30"/>
      </g>
     </g>
    </g>
    <g id="ytick_2">
     <g id="line2d_9">
      <g>
       <use style="stroke:#000000;stroke-width:0.8;" x="57.6" xlink:href="#md621de5963" y="269.064139"/>
      </g>
     </g>
     <g id="text_10">
      <!-- 12500 -->
      <g transform="translate(18.7875 272.863358)scale(0.1 -0.1)">
       <use xlink:href="#DejaVuSans-31"/>
       <use x="63.623047" xlink:href="#DejaVuSans-32"/>
       <use x="127.246094" xlink:href="#DejaVuSans-35"/>
       <use x="190.869141" xlink:href="#DejaVuSans-30"/>
       <use x="254.492188" xlink:href="#DejaVuSans-30"/>
      </g>
     </g>
    </g>
    <g id="ytick_3">
     <g id="line2d_10">
      <g>
       <use style="stroke:#000000;stroke-width:0.8;" x="57.6" xlink:href="#md621de5963" y="234.727816"/>
      </g>
     </g>
     <g id="text_11">
      <!-- 15000 -->
      <g transform="translate(18.7875 238.527034)scale(0.1 -0.1)">
       <use xlink:href="#DejaVuSans-31"/>
       <use x="63.623047" xlink:href="#DejaVuSans-35"/>
       <use x="127.246094" xlink:href="#DejaVuSans-30"/>
       <use x="190.869141" xlink:href="#DejaVuSans-30"/>
       <use x="254.492188" xlink:href="#DejaVuSans-30"/>
      </g>
     </g>
    </g>
    <g id="ytick_4">
     <g id="line2d_11">
      <g>
       <use style="stroke:#000000;stroke-width:0.8;" x="57.6" xlink:href="#md621de5963" y="200.391492"/>
      </g>
     </g>
     <g id="text_12">
      <!-- 17500 -->
      <g transform="translate(18.7875 204.190711)scale(0.1 -0.1)">
       <use xlink:href="#DejaVuSans-31"/>
       <use x="63.623047" xlink:href="#DejaVuSans-37"/>
       <use x="127.246094" xlink:href="#DejaVuSans-35"/>
       <use x="190.869141" xlink:href="#DejaVuSans-30"/>
       <use x="254.492188" xlink:href="#DejaVuSans-30"/>
      </g>
     </g>
    </g>
    <g id="ytick_5">
     <g id="line2d_12">
      <g>
       <use style="stroke:#000000;stroke-width:0.8;" x="57.6" xlink:href="#md621de5963" y="166.055169"/>
      </g>
     </g>
     <g id="text_13">
      <!-- 20000 -->
      <g transform="translate(18.7875 169.854388)scale(0.1 -0.1)">
       <use xlink:href="#DejaVuSans-32"/>
       <use x="63.623047" xlink:href="#DejaVuSans-30"/>
       <use x="127.246094" xlink:href="#DejaVuSans-30"/>
       <use x="190.869141" xlink:href="#DejaVuSans-30"/>
       <use x="254.492188" xlink:href="#DejaVuSans-30"/>
      </g>
     </g>
    </g>
    <g id="ytick_6">
     <g id="line2d_13">
      <g>
       <use style="stroke:#000000;stroke-width:0.8;" x="57.6" xlink:href="#md621de5963" y="131.718845"/>
      </g>
     </g>
     <g id="text_14">
      <!-- 22500 -->
      <g transform="translate(18.7875 135.518064)scale(0.1 -0.1)">
       <use xlink:href="#DejaVuSans-32"/>
       <use x="63.623047" xlink:href="#DejaVuSans-32"/>
       <use x="127.246094" xlink:href="#DejaVuSans-35"/>
       <use x="190.869141" xlink:href="#DejaVuSans-30"/>
       <use x="254.492188" xlink:href="#DejaVuSans-30"/>
      </g>
     </g>
    </g>
    <g id="ytick_7">
     <g id="line2d_14">
      <g>
       <use style="stroke:#000000;stroke-width:0.8;" x="57.6" xlink:href="#md621de5963" y="97.382522"/>
      </g>
     </g>
     <g id="text_15">
      <!-- 25000 -->
      <g transform="translate(18.7875 101.181741)scale(0.1 -0.1)">
       <use xlink:href="#DejaVuSans-32"/>
       <use x="63.623047" xlink:href="#DejaVuSans-35"/>
       <use x="127.246094" xlink:href="#DejaVuSans-30"/>
       <use x="190.869141" xlink:href="#DejaVuSans-30"/>
       <use x="254.492188" xlink:href="#DejaVuSans-30"/>
      </g>
     </g>
    </g>
    <g id="ytick_8">
     <g id="line2d_15">
      <g>
       <use style="stroke:#000000;stroke-width:0.8;" x="57.6" xlink:href="#md621de5963" y="63.046199"/>
      </g>
     </g>
     <g id="text_16">
      <!-- 27500 -->
      <g transform="translate(18.7875 66.845417)scale(0.1 -0.1)">
       <use xlink:href="#DejaVuSans-32"/>
       <use x="63.623047" xlink:href="#DejaVuSans-37"/>
       <use x="127.246094" xlink:href="#DejaVuSans-35"/>
       <use x="190.869141" xlink:href="#DejaVuSans-30"/>
       <use x="254.492188" xlink:href="#DejaVuSans-30"/>
      </g>
     </g>
    </g>
    <g id="text_17">
     <!-- Average fitness -->
     <defs>
      <path d="M 34.1875 63.1875 
L 20.796875 26.90625 
L 47.609375 26.90625 
z
M 28.609375 72.90625 
L 39.796875 72.90625 
L 67.578125 0 
L 57.328125 0 
L 50.6875 18.703125 
L 17.828125 18.703125 
L 11.1875 0 
L 0.78125 0 
z
" id="DejaVuSans-41"/>
      <path d="M 2.984375 54.6875 
L 12.5 54.6875 
L 29.59375 8.796875 
L 46.6875 54.6875 
L 56.203125 54.6875 
L 35.6875 0 
L 23.484375 0 
z
" id="DejaVuSans-76"/>
      <path d="M 45.40625 27.984375 
Q 45.40625 37.75 41.375 43.109375 
Q 37.359375 48.484375 30.078125 48.484375 
Q 22.859375 48.484375 18.828125 43.109375 
Q 14.796875 37.75 14.796875 27.984375 
Q 14.796875 18.265625 18.828125 12.890625 
Q 22.859375 7.515625 30.078125 7.515625 
Q 37.359375 7.515625 41.375 12.890625 
Q 45.40625 18.265625 45.40625 27.984375 
z
M 54.390625 6.78125 
Q 54.390625 -7.171875 48.1875 -13.984375 
Q 42 -20.796875 29.203125 -20.796875 
Q 24.46875 -20.796875 20.265625 -20.09375 
Q 16.0625 -19.390625 12.109375 -17.921875 
L 12.109375 -9.1875 
Q 16.0625 -11.328125 19.921875 -12.34375 
Q 23.78125 -13.375 27.78125 -13.375 
Q 36.625 -13.375 41.015625 -8.765625 
Q 45.40625 -4.15625 45.40625 5.171875 
L 45.40625 9.625 
Q 42.625 4.78125 38.28125 2.390625 
Q 33.9375 0 27.875 0 
Q 17.828125 0 11.671875 7.65625 
Q 5.515625 15.328125 5.515625 27.984375 
Q 5.515625 40.671875 11.671875 48.328125 
Q 17.828125 56 27.875 56 
Q 33.9375 56 38.28125 53.609375 
Q 42.625 51.21875 45.40625 46.390625 
L 45.40625 54.6875 
L 54.390625 54.6875 
z
" id="DejaVuSans-67"/>
      <path d="M 37.109375 75.984375 
L 37.109375 68.5 
L 28.515625 68.5 
Q 23.6875 68.5 21.796875 66.546875 
Q 19.921875 64.59375 19.921875 59.515625 
L 19.921875 54.6875 
L 34.71875 54.6875 
L 34.71875 47.703125 
L 19.921875 47.703125 
L 19.921875 0 
L 10.890625 0 
L 10.890625 47.703125 
L 2.296875 47.703125 
L 2.296875 54.6875 
L 10.890625 54.6875 
L 10.890625 58.5 
Q 10.890625 67.625 15.140625 71.796875 
Q 19.390625 75.984375 28.609375 75.984375 
z
" id="DejaVuSans-66"/>
      <path d="M 44.28125 53.078125 
L 44.28125 44.578125 
Q 40.484375 46.53125 36.375 47.5 
Q 32.28125 48.484375 27.875 48.484375 
Q 21.1875 48.484375 17.84375 46.4375 
Q 14.5 44.390625 14.5 40.28125 
Q 14.5 37.15625 16.890625 35.375 
Q 19.28125 33.59375 26.515625 31.984375 
L 29.59375 31.296875 
Q 39.15625 29.25 43.1875 25.515625 
Q 47.21875 21.78125 47.21875 15.09375 
Q 47.21875 7.46875 41.1875 3.015625 
Q 35.15625 -1.421875 24.609375 -1.421875 
Q 20.21875 -1.421875 15.453125 -0.5625 
Q 10.6875 0.296875 5.421875 2 
L 5.421875 11.28125 
Q 10.40625 8.6875 15.234375 7.390625 
Q 20.0625 6.109375 24.8125 6.109375 
Q 31.15625 6.109375 34.5625 8.28125 
Q 37.984375 10.453125 37.984375 14.40625 
Q 37.984375 18.0625 35.515625 20.015625 
Q 33.0625 21.96875 24.703125 23.78125 
L 21.578125 24.515625 
Q 13.234375 26.265625 9.515625 29.90625 
Q 5.8125 33.546875 5.8125 39.890625 
Q 5.8125 47.609375 11.28125 51.796875 
Q 16.75 56 26.8125 56 
Q 31.78125 56 36.171875 55.265625 
Q 40.578125 54.546875 44.28125 53.078125 
z
" id="DejaVuSans-73"/>
     </defs>
     <g transform="translate(12.707812 213.503781)rotate(-90)scale(0.1 -0.1)">
      <use xlink:href="#DejaVuSans-41"/>
      <use x="68.330078" xlink:href="#DejaVuSans-76"/>
      <use x="127.509766" xlink:href="#DejaVuSans-65"/>
      <use x="189.033203" xlink:href="#DejaVuSans-72"/>
      <use x="230.146484" xlink:href="#DejaVuSans-61"/>
      <use x="291.425781" xlink:href="#DejaVuSans-67"/>
      <use x="354.902344" xlink:href="#DejaVuSans-65"/>
      <use x="416.425781" xlink:href="#DejaVuSans-20"/>
      <use x="448.212891" xlink:href="#DejaVuSans-66"/>
      <use x="483.417969" xlink:href="#DejaVuSans-69"/>
      <use x="511.201172" xlink:href="#DejaVuSans-74"/>
      <use x="550.410156" xlink:href="#DejaVuSans-6e"/>
      <use x="613.789062" xlink:href="#DejaVuSans-65"/>
      <use x="675.3125" xlink:href="#DejaVuSans-73"/>
      <use x="727.412109" xlink:href="#DejaVuSans-73"/>
     </g>
    </g>
   </g>
   <g id="line2d_16">
    <path clip-path="url(#p3cffceaf53)" d="M 73.832727 55.238119 
L 74.228889 96.297494 
L 74.625051 111.90404 
L 75.219293 124.357138 
L 76.011617 134.13887 
L 77.002021 142.317782 
L 77.992426 148.731807 
L 79.577072 156.419023 
L 81.557881 166.009845 
L 81.755962 166.803701 
L 83.142528 178.200613 
L 83.340609 178.031678 
L 83.934852 184.835764 
L 84.331013 185.993585 
L 84.925256 191.848615 
L 85.123337 191.095963 
L 85.519499 194.24117 
L 85.91566 197.519602 
L 86.113741 198.744722 
L 86.311822 197.917903 
L 86.906065 202.564295 
L 87.104146 202.087707 
L 87.698388 205.997927 
L 87.896469 206.995054 
L 88.09455 203.92676 
L 88.292631 205.543314 
L 88.490712 205.95947 
L 88.688793 207.441426 
L 88.886873 206.002047 
L 89.481116 211.100305 
L 89.877278 213.098679 
L 90.075359 212.315811 
L 90.47152 214.779785 
L 90.669601 213.181086 
L 90.867682 214.656174 
L 91.065763 214.223537 
L 91.660006 217.603604 
L 91.858086 218.319173 
L 92.056167 217.257494 
L 92.254248 218.530685 
L 92.452329 218.650176 
L 92.848491 220.30656 
L 93.244653 221.612714 
L 93.640814 222.932602 
L 93.838895 223.664652 
L 94.036976 219.460513 
L 94.235057 220.015388 
L 94.433138 219.640435 
L 94.631219 221.329782 
L 94.829299 221.870923 
L 95.621623 225.900634 
L 95.819704 225.775649 
L 96.215866 227.169704 
L 96.413946 227.177945 
L 96.810108 228.647539 
L 97.008189 228.056955 
L 97.20627 224.436533 
L 97.404351 224.9763 
L 97.800513 227.640798 
L 97.998593 227.193053 
L 98.196674 224.815606 
L 98.790917 229.012878 
L 98.988998 224.981794 
L 99.58324 229.453756 
L 100.375564 233.131863 
L 100.573645 229.571873 
L 100.969806 232.369597 
L 101.167887 233.387326 
L 101.365968 231.647161 
L 101.76213 233.641414 
L 101.960211 234.797862 
L 102.158292 233.689485 
L 102.752534 236.425403 
L 103.148696 237.492576 
L 103.346777 232.307792 
L 103.544858 233.193669 
L 104.1391 236.745418 
L 104.535262 238.205398 
L 104.931424 239.33163 
L 105.129505 239.363219 
L 105.723747 240.950931 
L 105.921828 241.184418 
L 106.31799 241.779123 
L 106.714152 242.328504 
L 106.912233 238.124365 
L 107.110313 238.228747 
L 107.308394 235.219512 
L 107.902637 239.221754 
L 108.496879 241.481084 
L 109.091122 243.008363 
L 109.289203 238.133979 
L 109.487284 236.867655 
L 110.081526 240.659759 
L 110.279607 240.950931 
L 111.270012 244.034333 
L 111.468093 240.255964 
L 111.864254 243.088024 
L 112.260416 244.785611 
L 112.656578 245.858278 
L 112.854659 241.648645 
L 113.052739 243.182792 
L 113.25082 242.610062 
L 113.646982 244.705951 
L 114.439306 246.98451 
L 114.637386 247.557239 
L 115.033548 247.937686 
L 116.222033 249.937433 
L 116.618195 250.217618 
L 116.816276 245.22649 
L 117.014357 244.130474 
L 117.608599 247.364956 
L 118.004761 248.738409 
L 118.202842 249.014473 
L 118.995166 250.780734 
L 119.193246 250.923573 
L 119.391327 250.017094 
L 119.589408 248.470586 
L 119.98557 249.822063 
L 120.183651 247.595696 
L 120.381732 248.320879 
L 120.579813 246.941933 
L 120.777893 247.432255 
L 121.174055 249.279549 
L 121.372136 249.878375 
L 121.570217 249.643514 
L 122.164459 251.266936 
L 123.154864 252.935681 
L 123.551026 253.126591 
L 124.145268 253.864135 
L 124.739511 254.255569 
L 125.135673 249.138084 
L 125.729915 251.80945 
L 125.927996 252.31076 
L 126.126077 242.655386 
L 126.720319 249.088639 
L 126.9184 249.05705 
L 127.512643 251.934434 
L 127.710724 244.012357 
L 127.908805 246.382937 
L 128.106886 245.019098 
L 128.304966 246.904849 
L 128.701128 247.522903 
L 128.899209 246.178293 
L 129.09729 245.600069 
L 129.493452 249.044689 
L 129.691533 248.9458 
L 130.285775 252.036069 
L 130.483856 252.762626 
L 130.681937 249.193022 
L 130.880018 249.793221 
L 131.078099 247.21525 
L 131.276179 247.407533 
L 131.672341 250.713434 
L 132.266584 253.207625 
L 133.058907 255.410643 
L 133.851231 256.624776 
L 134.049312 257.028571 
L 134.247393 257.154929 
L 134.445473 250.89473 
L 134.643554 252.57721 
L 134.841635 251.110362 
L 135.039716 251.188649 
L 135.435878 253.931435 
L 135.832039 255.384548 
L 136.03012 251.629527 
L 136.426282 254.380554 
L 137.020525 256.843155 
L 138.20901 259.27554 
L 138.407091 259.106605 
L 138.605172 259.69719 
L 138.803253 259.683455 
L 139.001333 260.032312 
L 139.199414 260.106479 
L 139.595576 260.719039 
L 139.793657 260.739641 
L 140.58598 261.515642 
L 140.784061 259.184892 
L 141.180223 260.357821 
L 141.378304 260.605042 
L 141.774466 261.283528 
L 142.368708 261.898835 
L 142.566789 262.000471 
L 142.962951 262.426241 
L 143.161032 260.989609 
L 143.557193 261.754622 
L 143.755274 261.949653 
L 143.953355 258.136947 
L 144.151436 257.43374 
L 144.745679 260.000723 
L 145.14184 261.170905 
L 145.339921 253.430124 
L 145.736083 256.812939 
L 145.934164 253.961651 
L 146.330326 256.383048 
L 146.726487 258.678088 
L 147.122649 260.12296 
L 147.914973 261.602169 
L 148.311134 262.239451 
L 148.509215 262.343834 
L 149.49962 263.525003 
L 149.6977 263.562087 
L 150.093862 263.98511 
L 150.490024 264.317486 
L 150.688105 253.784475 
L 150.886186 254.258316 
L 151.282347 256.910454 
L 151.678509 258.967886 
L 151.87659 258.480311 
L 152.272752 260.100985 
L 152.470833 253.513905 
L 152.866994 258.01471 
L 153.461237 261.278034 
L 153.857399 262.770978 
L 154.451641 264.073011 
L 154.649722 257.348585 
L 154.847803 259.526882 
L 155.045884 259.515894 
L 155.442046 261.875486 
L 155.640126 262.809434 
L 155.838207 257.529881 
L 156.234369 260.708051 
L 156.630531 262.485299 
L 157.224773 264.364183 
L 157.422854 259.638131 
L 157.819016 262.26692 
L 158.215178 264.151298 
L 158.413259 264.680077 
L 158.61134 262.992104 
L 158.80942 263.75849 
L 159.007501 258.882732 
L 159.403663 261.755996 
L 159.601744 262.959141 
L 159.799825 260.301509 
L 159.997906 261.809561 
L 160.195986 261.172278 
L 160.394067 260.979995 
L 160.98831 263.589556 
L 161.186391 257.612288 
L 161.582553 261.485426 
L 162.374876 264.895709 
L 162.969119 266.374918 
L 163.36528 267.148172 
L 163.563361 267.578063 
L 163.761442 260.852264 
L 163.959523 262.766857 
L 164.157604 257.734526 
L 164.355685 259.688949 
L 164.553766 260.120213 
L 164.949927 263.121208 
L 165.742251 266.037049 
L 166.138413 266.965503 
L 166.336493 267.414622 
L 166.732655 267.764853 
L 166.930736 268.139805 
L 167.128817 268.198864 
L 167.524979 268.7661 
L 167.92114 269.092981 
L 168.119221 268.665838 
L 168.515383 269.121824 
L 168.911545 262.016952 
L 169.505787 265.837898 
L 169.703868 266.580936 
L 169.901949 261.768357 
L 170.10003 261.214855 
L 170.694273 265.274782 
L 171.288515 267.251181 
L 171.486596 267.797815 
L 171.684677 267.078126 
L 171.882758 267.759359 
L 172.080839 267.958509 
L 172.675081 269.065512 
L 172.873162 267.93104 
L 173.071243 264.322979 
L 173.269324 265.846139 
L 173.467405 266.27603 
L 173.665486 267.266289 
L 173.863566 267.166027 
L 174.061647 267.734637 
L 174.259728 266.357063 
L 175.052052 269.259169 
L 175.646294 270.252176 
L 176.042456 270.546095 
L 176.240537 267.525872 
L 176.83478 269.961004 
L 177.230941 270.75898 
L 177.429022 268.623261 
L 177.627103 269.130065 
L 177.825184 269.013321 
L 178.023265 269.838766 
L 178.221346 270.096976 
L 178.815588 271.203979 
L 179.013669 271.403129 
L 179.21175 267.020441 
L 179.409831 267.111089 
L 179.607912 266.212851 
L 179.805993 267.575316 
L 180.004073 267.049284 
L 180.202154 267.153666 
L 180.796397 269.761853 
L 181.192559 265.574195 
L 181.39064 265.101727 
L 181.786801 267.617893 
L 182.381044 269.700048 
L 182.579125 270.345571 
L 182.777206 268.716655 
L 183.173367 270.334583 
L 183.371448 268.656223 
L 183.965691 270.973239 
L 184.163772 262.380917 
L 184.361853 263.007212 
L 184.758014 266.89271 
L 184.956095 264.173273 
L 185.352257 267.593171 
L 185.748419 269.814044 
L 186.342661 271.431972 
L 186.936904 272.508759 
L 187.134985 265.153918 
L 187.531146 268.652103 
L 187.729227 262.632259 
L 187.927308 263.397272 
L 188.32347 267.057524 
L 189.313874 270.978732 
L 189.710036 265.677204 
L 190.106198 268.969371 
L 190.70044 271.728638 
L 191.096602 265.322853 
L 191.492764 268.819664 
L 192.087006 271.661338 
L 192.285087 269.329215 
L 192.681249 271.686061 
L 192.87933 267.04791 
L 193.077411 267.1674 
L 193.275492 268.777087 
L 193.473573 269.013321 
L 193.671653 270.276898 
L 193.869734 269.039417 
L 194.265896 271.172389 
L 194.662058 272.658465 
L 195.05822 273.540222 
L 195.2563 270.552962 
L 195.652462 272.452447 
L 195.850543 273.402877 
L 196.048624 273.586919 
L 196.246705 274.259911 
L 196.444786 274.507133 
L 196.642866 274.100591 
L 197.237109 275.252918 
L 197.43519 268.908939 
L 197.633271 269.827779 
L 198.227513 273.460562 
L 198.623675 274.615636 
L 199.019837 275.239183 
L 199.61408 276.263779 
L 200.010241 276.416233 
L 200.208322 276.905182 
L 201.000646 277.484779 
L 201.198726 277.712772 
L 201.594888 277.668822 
L 201.792969 273.645978 
L 201.99105 273.1378 
L 202.783373 275.917669 
L 202.981454 274.224202 
L 203.179535 274.980974 
L 203.377616 273.211967 
L 203.773778 275.123813 
L 204.16994 276.03716 
L 204.566101 276.832389 
L 205.556506 277.965487 
L 206.150748 278.377523 
L 206.744991 278.804667 
L 206.943072 278.808788 
L 207.141153 278.937892 
L 207.339233 273.672074 
L 207.537314 274.213214 
L 207.735395 275.369661 
L 207.933476 273.529234 
L 208.329638 275.740494 
L 208.527719 276.207468 
L 208.7258 277.024672 
L 208.92388 270.829026 
L 209.121961 272.630996 
L 209.320042 270.550215 
L 209.914285 274.656839 
L 210.508527 276.34756 
L 210.706608 274.151409 
L 210.904689 275.235063 
L 211.10277 275.688302 
L 211.300851 271.986847 
L 211.498932 273.78607 
L 211.697013 273.471549 
L 212.093174 275.553704 
L 212.489336 276.480785 
L 213.28166 278.255286 
L 213.47974 273.8259 
L 213.677821 272.306861 
L 214.073983 274.698043 
L 214.272064 270.022809 
L 214.668226 273.641858 
L 214.866307 269.771467 
L 215.064387 271.666832 
L 215.262468 269.575063 
L 215.856711 274.419232 
L 216.450953 276.531603 
L 216.649034 276.80904 
L 217.045196 277.686677 
L 217.243277 278.167385 
L 217.441358 272.209346 
L 217.639439 272.749113 
L 218.0356 275.401251 
L 218.629843 277.416106 
L 218.827924 275.8902 
L 219.224086 277.080984 
L 219.620247 278.197601 
L 220.016409 279.003818 
L 220.21449 278.285502 
L 220.610652 279.245546 
L 220.808733 273.211967 
L 221.006813 274.923289 
L 221.204894 275.328458 
L 221.402975 276.453316 
L 221.601056 270.749366 
L 222.195299 275.868225 
L 222.59146 277.543837 
L 222.789541 272.118698 
L 222.987622 272.71203 
L 223.383784 275.741867 
L 223.779946 277.499887 
L 223.978027 278.047895 
L 224.176107 277.800673 
L 224.968431 279.805914 
L 225.166512 278.65084 
L 225.364593 276.5783 
L 225.562673 277.585041 
L 225.760754 274.893073 
L 225.958835 274.751608 
L 226.354997 277.23481 
L 226.553078 277.344687 
L 226.751159 276.748608 
L 227.14732 278.208589 
L 227.345401 277.851491 
L 227.543482 278.692044 
L 227.741563 273.158402 
L 227.939644 272.172263 
L 228.335806 275.54409 
L 228.731967 277.291122 
L 229.524291 279.539465 
L 229.722372 279.540838 
L 229.920453 279.94326 
L 230.316614 280.266021 
L 230.514695 280.548952 
L 230.712776 280.459678 
L 230.910857 280.743983 
L 231.108938 280.823643 
L 231.307019 281.113442 
L 231.5051 280.036654 
L 231.901261 280.739862 
L 232.099342 281.081852 
L 232.495504 281.202716 
L 232.693585 281.572175 
L 232.891666 281.677931 
L 233.089747 281.930646 
L 233.287827 277.891321 
L 233.485908 279.003818 
L 233.683989 276.642852 
L 234.080151 279.087599 
L 234.674393 280.926652 
L 235.070555 281.721881 
L 235.466717 282.103701 
L 235.664798 282.478654 
L 235.862879 282.456679 
L 236.06096 282.69978 
L 236.25904 282.541833 
L 236.655202 282.942881 
L 236.853283 282.989578 
L 237.051364 274.472797 
L 237.447526 278.314344 
L 237.645607 279.384264 
L 237.843687 275.914922 
L 238.239849 278.315718 
L 238.834092 280.583289 
L 239.428334 281.819396 
L 239.626415 282.021294 
L 239.824496 279.461178 
L 240.220658 281.036528 
L 240.8149 282.396247 
L 241.211062 282.843992 
L 241.409143 283.319207 
L 241.607224 273.464682 
L 241.805305 273.040285 
L 242.201467 276.357174 
L 242.597628 278.435208 
L 242.99379 279.579295 
L 243.191871 279.113694 
L 243.786113 280.647841 
L 243.984194 281.018673 
L 244.182275 281.037902 
L 244.380356 281.510369 
L 244.974599 281.978717 
L 245.17268 282.287744 
L 245.37076 282.311093 
L 245.568841 282.515737 
L 245.766922 274.806546 
L 246.163084 271.94839 
L 246.559246 276.646973 
L 246.955407 278.766211 
L 247.153488 277.752602 
L 247.351569 278.65084 
L 247.54965 275.533102 
L 247.945812 278.256659 
L 248.341973 280.109447 
L 248.540054 280.871714 
L 248.738135 280.076485 
L 249.332378 281.693039 
L 249.72854 282.269889 
L 249.92662 282.046016 
L 250.322782 282.732743 
L 250.520863 283.019794 
L 250.718944 282.907171 
L 250.917025 283.269763 
L 251.115106 283.341182 
L 251.313187 283.544453 
L 251.511267 283.048637 
L 251.709348 283.566429 
L 251.907429 283.679052 
L 252.10551 278.490146 
L 252.303591 279.786686 
L 252.501672 279.222197 
L 252.699753 278.057509 
L 253.293995 281.223318 
L 253.888238 282.611879 
L 254.48248 283.433204 
L 254.878642 283.7697 
L 255.076723 283.972971 
L 255.274804 281.219197 
L 255.670966 282.85498 
L 255.869047 282.58441 
L 256.463289 284.12405 
L 257.057532 284.681672 
L 257.255613 285.129418 
L 257.453693 285.099202 
L 258.047936 285.365652 
L 258.246017 282.536339 
L 258.642179 283.955116 
L 258.84026 275.28176 
L 259.236421 279.505128 
L 259.632583 281.610632 
L 260.028745 282.879702 
L 260.424907 284.010054 
L 261.019149 284.677552 
L 261.21723 283.536213 
L 261.811473 284.559435 
L 262.405715 285.553815 
L 262.603796 285.526346 
L 262.801877 285.847734 
L 262.999958 278.822522 
L 263.198039 277.22657 
L 263.5942 280.245419 
L 263.792281 277.528729 
L 264.188443 280.856606 
L 264.782686 283.354917 
L 265.575009 285.036023 
L 266.169252 285.61562 
L 266.367333 285.695281 
L 266.565414 285.947996 
L 266.961575 280.190481 
L 267.159656 280.691792 
L 267.555818 282.758838 
L 267.753899 277.876213 
L 268.15006 281.264521 
L 268.348141 281.622993 
L 268.744303 283.379639 
L 269.140465 284.49763 
L 269.338546 281.389506 
L 269.932788 284.107569 
L 270.527031 285.353291 
L 270.725112 285.711762 
L 270.923193 285.783182 
L 271.517435 286.496004 
L 271.715516 286.41909 
L 272.111678 278.663202 
L 272.50784 281.98009 
L 272.70592 282.903051 
L 272.904001 282.247914 
L 273.498244 284.630855 
L 273.696325 284.839619 
L 273.894406 285.471408 
L 274.092487 282.581663 
L 274.686729 284.857474 
L 274.88481 280.661576 
L 275.082891 280.67119 
L 275.677134 283.897431 
L 276.271376 285.202211 
L 276.469457 285.299726 
L 276.865619 286.034523 
L 277.459861 286.45068 
L 277.657942 286.504244 
L 278.054104 286.969845 
L 278.252185 285.862842 
L 278.648347 286.472655 
L 278.846427 284.488015 
L 279.044508 283.918032 
L 279.44067 285.34093 
L 279.836832 286.222686 
L 280.034913 286.550942 
L 280.232994 278.869219 
L 280.431074 279.430962 
L 280.629155 277.889948 
L 281.025317 281.241173 
L 281.61956 284.059498 
L 282.213802 285.435698 
L 282.411883 280.101207 
L 282.808045 283.24092 
L 283.402287 285.526346 
L 283.798449 286.317455 
L 283.99653 285.600512 
L 284.590773 286.762454 
L 284.788854 286.844861 
L 285.185015 287.442313 
L 285.383096 286.629229 
L 285.779258 287.33381 
L 285.977339 287.405229 
L 286.17542 284.051257 
L 286.571581 285.833999 
L 287.165824 287.229428 
L 287.760067 287.916154 
L 287.958147 288.230675 
L 288.55239 288.530087 
L 288.948552 288.791043 
L 289.146633 288.8295 
L 289.344714 289.084962 
L 289.542794 288.959978 
L 289.740875 289.150888 
L 290.137037 289.041012 
L 290.533199 289.200332 
L 290.73128 289.137154 
L 291.127441 289.488758 
L 291.523603 289.443434 
L 291.721684 289.638464 
L 292.315927 289.540949 
L 292.514007 282.721755 
L 292.712088 284.363031 
L 292.910169 281.091466 
L 293.306331 283.828758 
L 293.504412 281.05301 
L 293.900574 284.085594 
L 294.296735 285.801036 
L 295.28714 287.561803 
L 295.48522 287.704642 
L 295.683301 288.072728 
L 295.881382 288.201832 
L 296.079463 282.113315 
L 296.475625 284.820391 
L 297.069867 287.072854 
L 297.267948 287.607127 
L 297.466029 287.718377 
L 298.060272 288.583652 
L 298.456434 288.894052 
L 298.852595 289.145394 
L 299.050676 285.752966 
L 299.446838 287.248656 
L 299.843 288.171616 
L 300.04108 282.721755 
L 300.239161 281.167006 
L 300.635323 284.096581 
L 301.229566 286.487763 
L 301.625727 287.18685 
L 301.823808 287.387375 
L 302.21997 282.150399 
L 302.616132 284.695407 
L 302.814213 281.524104 
L 303.012294 283.386506 
L 303.210374 281.89631 
L 303.804617 285.485142 
L 304.002698 279.109574 
L 304.59694 284.308093 
L 304.993102 286.140279 
L 305.389264 287.215693 
L 305.587345 284.232553 
L 305.785426 285.523599 
L 306.181587 286.333936 
L 306.379668 284.217445 
L 306.77583 286.338057 
L 306.973911 284.31084 
L 307.568154 286.850354 
L 307.766234 287.131912 
L 307.964315 287.880444 
L 308.162396 288.050752 
L 308.360477 288.458668 
L 308.558558 288.359779 
L 308.756639 287.984827 
L 309.1528 288.852849 
L 309.350881 288.775936 
L 309.548962 284.634975 
L 309.945124 286.784429 
L 310.341286 287.920274 
L 310.737447 288.773189 
L 311.33169 289.486011 
L 311.925933 289.856843 
L 312.322094 282.213577 
L 312.520175 280.060003 
L 312.916337 283.922153 
L 313.51058 286.898425 
L 313.906741 287.712883 
L 314.104822 288.002682 
L 314.302903 284.711888 
L 314.500984 285.151393 
L 314.699065 285.262643 
L 315.095227 287.065987 
L 315.689469 288.553436 
L 316.679874 289.78405 
L 317.274116 290.120546 
L 317.472197 283.639222 
L 317.670278 281.018673 
L 317.868359 280.625866 
L 318.26452 284.46192 
L 318.660682 286.49463 
L 319.453006 288.659192 
L 319.651087 284.367152 
L 320.047248 286.474028 
L 320.245329 282.839872 
L 320.44341 283.15714 
L 320.641491 284.698154 
L 320.839572 283.330195 
L 321.235734 286.06886 
L 321.631895 287.83512 
L 321.829976 288.40785 
L 322.028057 286.230927 
L 322.424219 287.998561 
L 322.6223 288.811645 
L 322.82038 286.040017 
L 323.018461 287.193718 
L 323.216542 286.844861 
L 324.008866 289.495625 
L 324.603108 290.417212 
L 325.593513 291.161623 
L 325.791594 291.097071 
L 325.989674 291.263259 
L 326.187755 291.219308 
L 326.583917 291.524215 
L 326.781998 287.712883 
L 326.980079 288.574038 
L 327.17816 287.501371 
L 327.376241 287.652451 
L 327.574321 284.31496 
L 327.970483 287.261017 
L 328.168564 287.115431 
L 329.158968 290.248277 
L 329.357049 290.238663 
L 329.55513 290.474897 
L 329.753211 289.160502 
L 330.347454 290.517474 
L 330.743615 291.290728 
L 330.941696 289.293727 
L 331.139777 290.027151 
L 331.337858 285.302473 
L 331.535939 286.019415 
L 331.73402 287.457421 
L 331.932101 287.156634 
L 332.526343 289.539575 
L 333.120586 290.727612 
L 333.318667 290.891053 
L 333.516747 291.208321 
L 333.714828 288.1414 
L 333.912909 288.953111 
L 334.11099 283.743604 
L 334.309071 283.515611 
L 334.705233 286.464414 
L 335.101394 287.994441 
L 336.091799 290.040886 
L 336.28988 290.160376 
L 336.487961 290.491378 
L 336.884122 290.668554 
L 337.478365 291.057241 
L 337.676446 283.34805 
L 337.874527 284.143279 
L 338.270688 286.897052 
L 338.468769 287.681294 
L 338.66685 281.699906 
L 339.261093 287.188224 
L 339.657254 288.972339 
L 339.855335 289.343172 
L 340.053416 289.957105 
L 340.251497 286.945123 
L 340.647659 289.219561 
L 341.439982 291.227549 
L 341.638063 291.334678 
L 341.836144 291.745341 
L 342.034225 285.068986 
L 342.232306 283.206584 
L 342.628467 286.776188 
L 343.024629 288.517726 
L 343.816953 290.517474 
L 344.015034 290.696023 
L 344.213114 291.081963 
L 344.411195 291.134154 
L 344.609276 291.594261 
L 345.005438 291.597008 
L 345.4016 292.054368 
L 345.599681 289.690655 
L 345.995842 290.976207 
L 346.193923 285.215945 
L 346.590085 288.663312 
L 346.986247 290.213941 
L 347.580489 291.690403 
L 347.77857 291.798905 
L 347.976651 283.497756 
L 348.372813 287.572791 
L 348.768974 289.722245 
L 349.759379 291.959599 
L 350.155541 292.495246 
L 350.353621 292.436188 
L 350.749783 293.120167 
L 350.947864 293.085831 
L 351.344026 293.263006 
L 351.740187 287.016542 
L 352.136349 289.498372 
L 352.33443 289.292354 
L 352.730592 290.924016 
L 352.928673 288.234795 
L 353.324834 290.32519 
L 354.315239 292.275494 
L 354.51332 286.853101 
L 354.909481 289.741473 
L 355.305643 291.046253 
L 355.701805 291.954106 
L 355.899886 292.342793 
L 356.097967 291.404724 
L 356.296047 292.143642 
L 356.494128 288.888559 
L 356.692209 288.5191 
L 357.682614 291.97196 
L 357.880694 291.954106 
L 358.276856 292.559798 
L 358.673018 292.984195 
L 359.267261 293.333052 
L 359.465341 287.615368 
L 360.257665 291.547564 
L 361.049988 292.752082 
L 361.248069 292.930631 
L 361.44615 287.160755 
L 361.842312 289.871951 
L 362.238474 291.761822 
L 362.634635 292.470524 
L 363.426959 293.437435 
L 364.021201 293.905782 
L 364.219282 293.933251 
L 364.615444 288.324069 
L 365.011606 290.66306 
L 365.209687 285.824385 
L 365.605848 289.185224 
L 366.200091 291.340172 
L 366.794334 292.639459 
L 366.992414 292.834489 
L 367.190495 293.227296 
L 367.388576 292.88256 
L 367.586657 290.792164 
L 368.1809 292.937498 
L 368.378981 293.087204 
L 368.775142 293.776678 
L 368.973223 293.746462 
L 369.171304 294.055489 
L 369.369385 292.785045 
L 369.567466 293.328932 
L 369.765547 292.559798 
L 370.161708 293.625598 
L 370.359789 293.458037 
L 370.55787 293.927757 
L 370.755951 293.949733 
L 370.954032 294.194207 
L 371.152113 294.236784 
L 371.548274 294.828743 
L 372.142517 295.064976 
L 372.340598 295.269621 
L 372.538679 295.126782 
L 373.331002 295.365763 
L 373.529083 290.479017 
L 374.123326 293.046001 
L 374.519487 293.798653 
L 374.717568 292.796032 
L 374.915649 293.269874 
L 375.11373 293.254766 
L 375.906054 294.343914 
L 376.104134 294.448296 
L 376.302215 294.782045 
L 376.698377 294.836983 
L 377.094539 295.30121 
L 377.29262 294.33842 
L 377.490701 294.663928 
L 377.688781 292.226049 
L 378.283024 294.069223 
L 378.481105 294.504608 
L 378.679186 291.623103 
L 378.877267 290.466656 
L 379.273428 292.517221 
L 379.66959 293.554178 
L 379.867671 290.183725 
L 380.461914 292.852344 
L 381.254237 294.433188 
L 381.84848 294.902909 
L 382.046561 290.01479 
L 382.244641 290.691902 
L 382.442722 288.639964 
L 382.838884 291.139648 
L 383.036965 292.033766 
L 383.235046 292.397731 
L 383.433127 288.898173 
L 384.027369 292.443055 
L 384.423531 293.33992 
L 384.621612 292.557051 
L 385.413935 294.011538 
L 385.612016 293.331679 
L 386.008178 294.345287 
L 387.394744 295.299837 
L 387.592825 295.144637 
L 387.790906 294.83973 
L 388.187068 295.428942 
L 388.385148 295.488 
L 388.583229 291.061361 
L 388.979391 293.072096 
L 389.177472 293.746462 
L 389.375553 286.769321 
L 389.771714 290.544943 
L 390.167876 292.34554 
L 390.762119 294.007418 
L 391.158281 294.37413 
L 391.356361 294.478512 
L 391.752523 295.078711 
L 392.148685 295.132276 
L 392.346766 289.510733 
L 392.742928 292.015911 
L 393.139089 293.666801 
L 393.33717 294.106306 
L 393.535251 290.518847 
L 393.931413 292.644952 
L 394.327574 293.879687 
L 394.525655 293.23279 
L 394.723736 287.436819 
L 394.921817 289.59314 
L 395.119898 286.457547 
L 395.51606 290.138401 
L 395.912221 292.139522 
L 396.308383 293.275367 
L 397.496868 294.766937 
L 397.694949 290.85809 
L 398.289192 293.675042 
L 398.487273 294.096692 
L 398.487273 294.096692 
" style="fill:none;stroke:#1f77b4;stroke-linecap:square;stroke-width:1.5;"/>
   </g>
   <g id="line2d_17">
    <path clip-path="url(#p3cffceaf53)" d="M 73.832727 53.568 
L 74.228889 95.723391 
L 74.625051 111.339551 
L 75.219293 123.795395 
L 75.813536 131.540297 
L 76.605859 138.610832 
L 78.388587 151.113374 
L 81.161719 167.912077 
L 81.557881 171.914319 
L 81.954043 174.768354 
L 82.746366 183.172513 
L 82.944447 183.8716 
L 83.142528 185.970236 
L 83.340609 186.643228 
L 83.736771 189.964238 
L 83.934852 189.501384 
L 84.529094 195.173745 
L 85.321418 200.053623 
L 85.717579 201.668803 
L 85.91566 201.880315 
L 86.311822 203.80727 
L 86.707984 204.973331 
L 86.906065 203.89105 
L 87.500307 206.823372 
L 87.896469 208.211933 
L 88.292631 207.527954 
L 89.084954 210.353146 
L 89.283035 209.465896 
L 89.679197 211.358514 
L 90.075359 208.795651 
L 90.47152 211.933991 
L 91.065763 214.397965 
L 91.461925 213.164605 
L 91.858086 215.239892 
L 92.056167 215.456897 
L 92.452329 217.551413 
L 92.65041 216.817989 
L 92.848491 216.51995 
L 93.046572 216.668283 
L 93.244653 215.959581 
L 93.442733 217.675024 
L 93.640814 215.921125 
L 93.838895 217.536305 
L 94.036976 218.120023 
L 94.433138 220.695247 
L 94.829299 222.657911 
L 95.02738 218.315053 
L 95.225461 217.929113 
L 95.423542 218.549913 
L 95.819704 221.473995 
L 96.017785 219.628074 
L 96.413946 222.881784 
L 97.20627 226.805739 
L 97.602432 228.085797 
L 97.800513 228.470364 
L 97.998593 227.757542 
L 98.196674 228.422293 
L 98.394755 224.067074 
L 98.592836 224.187938 
L 98.988998 227.003516 
L 99.187079 225.981667 
L 99.781321 229.923477 
L 100.177483 231.640293 
L 100.375564 225.693242 
L 100.969806 229.493586 
L 101.167887 226.319537 
L 101.564049 230.025113 
L 102.356373 234.113882 
L 102.950615 236.043584 
L 103.346777 237.026976 
L 103.941019 238.338623 
L 104.337181 239.044578 
L 104.931424 239.809591 
L 105.129505 232.48634 
L 105.525666 235.955683 
L 105.723747 237.097022 
L 106.119909 236.364971 
L 106.516071 237.948563 
L 106.912233 239.723064 
L 107.110313 239.617308 
L 107.308394 237.868902 
L 107.704556 240.025224 
L 108.298799 241.802472 
L 109.685365 244.223869 
L 110.675769 245.281428 
L 110.87385 236.963797 
L 111.071931 234.924219 
L 111.468093 237.965044 
L 111.666173 239.326136 
L 111.864254 236.039463 
L 112.260416 239.98402 
L 112.458497 241.099264 
L 112.656578 235.797735 
L 112.854659 238.061186 
L 113.052739 238.275445 
L 113.25082 236.833319 
L 113.646982 240.28618 
L 114.241225 243.754148 
L 114.439306 243.831062 
L 114.637386 238.436139 
L 114.835467 239.488203 
L 115.033548 238.41279 
L 115.42971 242.037332 
L 115.825872 244.241724 
L 116.222033 246.058802 
L 117.608599 249.356463 
L 118.004761 249.974517 
L 118.202842 243.666247 
L 118.400923 245.620671 
L 118.599004 246.168679 
L 118.995166 248.228858 
L 119.193246 241.498939 
L 119.589408 245.53689 
L 120.183651 248.499428 
L 120.975974 251.078773 
L 121.570217 252.144572 
L 121.768298 252.400035 
L 122.164459 253.23372 
L 122.36254 246.616424 
L 122.560621 245.384437 
L 122.956783 248.292037 
L 123.352945 250.173667 
L 123.551026 250.569222 
L 123.947187 252.048431 
L 124.145268 252.309387 
L 124.54143 253.079894 
L 125.531834 254.141573 
L 125.729915 254.587945 
L 125.927996 254.593439 
L 126.126077 254.909333 
L 126.324158 253.217239 
L 126.522239 253.644383 
L 126.720319 253.241961 
L 126.9184 250.012973 
L 127.512643 252.989246 
L 128.503047 254.971138 
L 128.701128 251.137831 
L 129.295371 254.030323 
L 130.285775 256.227848 
L 130.681937 256.834914 
L 130.880018 257.076642 
L 131.276179 257.194759 
L 131.47426 251.736657 
L 131.870422 250.604932 
L 132.266584 253.280418 
L 132.662746 254.631896 
L 133.058907 256.020456 
L 134.247393 258.226222 
L 134.445473 255.997108 
L 134.643554 250.830178 
L 135.237797 255.074147 
L 135.832039 257.101364 
L 136.426282 258.569585 
L 138.010929 260.467697 
L 138.20901 260.42924 
L 138.407091 260.508901 
L 138.803253 261.028066 
L 139.001333 257.128833 
L 139.397495 258.928056 
L 139.991738 260.613283 
L 140.387899 261.290395 
L 140.982142 262.048541 
L 141.180223 257.027197 
L 141.378304 258.227595 
L 141.576385 253.255696 
L 141.972546 256.733279 
L 142.566789 258.792084 
L 142.76487 251.488062 
L 142.962951 254.094875 
L 143.161032 253.572963 
L 143.557193 256.770362 
L 143.953355 258.73852 
L 144.349517 259.837282 
L 144.943759 261.008838 
L 145.14184 261.223096 
L 145.736083 262.309497 
L 146.528406 263.338214 
L 146.924568 256.366567 
L 147.518811 260.080383 
L 148.707296 262.860252 
L 148.905377 262.87948 
L 149.49962 263.828536 
L 149.6977 263.828536 
L 150.093862 264.299631 
L 150.291943 264.44247 
L 150.490024 260.896214 
L 151.084266 263.259927 
L 151.282347 261.911196 
L 151.678509 263.365683 
L 151.87659 260.697064 
L 152.470833 263.397272 
L 152.668913 262.514142 
L 153.065075 263.787333 
L 153.263156 264.280402 
L 153.461237 264.445217 
L 153.857399 265.379165 
L 154.25356 265.706047 
L 154.847803 266.361184 
L 155.045884 263.736515 
L 156.036288 266.28015 
L 156.234369 265.618146 
L 156.43245 260.639379 
L 157.224773 264.616898 
L 157.422854 260.53637 
L 157.620935 261.102232 
L 158.017097 263.115714 
L 159.007501 265.509643 
L 159.601744 266.538359 
L 160.592148 267.414622 
L 160.98831 261.806814 
L 161.186391 262.832783 
L 161.384472 257.332104 
L 161.780633 261.253312 
L 162.374876 263.618398 
L 162.969119 265.732142 
L 163.1672 266.252681 
L 163.36528 261.135195 
L 163.563361 259.371682 
L 164.157604 263.461824 
L 164.553766 264.678704 
L 164.751846 265.427236 
L 164.949927 265.637374 
L 165.54417 266.89271 
L 165.742251 266.913312 
L 166.138413 267.472307 
L 166.732655 268.094481 
L 166.930736 268.194743 
L 167.128817 260.04742 
L 167.524979 263.721407 
L 167.92114 265.995845 
L 168.317302 267.337709 
L 169.109626 269.038043 
L 169.505787 269.544848 
L 169.901949 270.139553 
L 170.298111 270.38128 
L 170.496192 270.550215 
L 170.694273 263.275035 
L 170.892353 265.061897 
L 171.090434 261.957893 
L 171.684677 265.670337 
L 171.882758 265.412128 
L 172.080839 266.201863 
L 172.080839 266.201863 
" style="fill:none;stroke:#ff7f0e;stroke-linecap:square;stroke-width:1.5;"/>
   </g>
   <g id="patch_3">
    <path d="M 57.6 307.584 
L 57.6 41.472 
" style="fill:none;stroke:#000000;stroke-linecap:square;stroke-linejoin:miter;stroke-width:0.8;"/>
   </g>
   <g id="patch_4">
    <path d="M 414.72 307.584 
L 414.72 41.472 
" style="fill:none;stroke:#000000;stroke-linecap:square;stroke-linejoin:miter;stroke-width:0.8;"/>
   </g>
   <g id="patch_5">
    <path d="M 57.6 307.584 
L 414.72 307.584 
" style="fill:none;stroke:#000000;stroke-linecap:square;stroke-linejoin:miter;stroke-width:0.8;"/>
   </g>
   <g id="patch_6">
    <path d="M 57.6 41.472 
L 414.72 41.472 
" style="fill:none;stroke:#000000;stroke-linecap:square;stroke-linejoin:miter;stroke-width:0.8;"/>
   </g>
   <g id="text_18">
    <!-- Average fitness over 60 seconds for52cities -->
    <defs>
     <path d="M 33.015625 40.375 
Q 26.375 40.375 22.484375 35.828125 
Q 18.609375 31.296875 18.609375 23.390625 
Q 18.609375 15.53125 22.484375 10.953125 
Q 26.375 6.390625 33.015625 6.390625 
Q 39.65625 6.390625 43.53125 10.953125 
Q 47.40625 15.53125 47.40625 23.390625 
Q 47.40625 31.296875 43.53125 35.828125 
Q 39.65625 40.375 33.015625 40.375 
z
M 52.59375 71.296875 
L 52.59375 62.3125 
Q 48.875 64.0625 45.09375 64.984375 
Q 41.3125 65.921875 37.59375 65.921875 
Q 27.828125 65.921875 22.671875 59.328125 
Q 17.53125 52.734375 16.796875 39.40625 
Q 19.671875 43.65625 24.015625 45.921875 
Q 28.375 48.1875 33.59375 48.1875 
Q 44.578125 48.1875 50.953125 41.515625 
Q 57.328125 34.859375 57.328125 23.390625 
Q 57.328125 12.15625 50.6875 5.359375 
Q 44.046875 -1.421875 33.015625 -1.421875 
Q 20.359375 -1.421875 13.671875 8.265625 
Q 6.984375 17.96875 6.984375 36.375 
Q 6.984375 53.65625 15.1875 63.9375 
Q 23.390625 74.21875 37.203125 74.21875 
Q 40.921875 74.21875 44.703125 73.484375 
Q 48.484375 72.75 52.59375 71.296875 
z
" id="DejaVuSans-36"/>
     <path d="M 48.78125 52.59375 
L 48.78125 44.1875 
Q 44.96875 46.296875 41.140625 47.34375 
Q 37.3125 48.390625 33.40625 48.390625 
Q 24.65625 48.390625 19.8125 42.84375 
Q 14.984375 37.3125 14.984375 27.296875 
Q 14.984375 17.28125 19.8125 11.734375 
Q 24.65625 6.203125 33.40625 6.203125 
Q 37.3125 6.203125 41.140625 7.25 
Q 44.96875 8.296875 48.78125 10.40625 
L 48.78125 2.09375 
Q 45.015625 0.34375 40.984375 -0.53125 
Q 36.96875 -1.421875 32.421875 -1.421875 
Q 20.0625 -1.421875 12.78125 6.34375 
Q 5.515625 14.109375 5.515625 27.296875 
Q 5.515625 40.671875 12.859375 48.328125 
Q 20.21875 56 33.015625 56 
Q 37.15625 56 41.109375 55.140625 
Q 45.0625 54.296875 48.78125 52.59375 
z
" id="DejaVuSans-63"/>
     <path d="M 45.40625 46.390625 
L 45.40625 75.984375 
L 54.390625 75.984375 
L 54.390625 0 
L 45.40625 0 
L 45.40625 8.203125 
Q 42.578125 3.328125 38.25 0.953125 
Q 33.9375 -1.421875 27.875 -1.421875 
Q 17.96875 -1.421875 11.734375 6.484375 
Q 5.515625 14.40625 5.515625 27.296875 
Q 5.515625 40.1875 11.734375 48.09375 
Q 17.96875 56 27.875 56 
Q 33.9375 56 38.25 53.625 
Q 42.578125 51.265625 45.40625 46.390625 
z
M 14.796875 27.296875 
Q 14.796875 17.390625 18.875 11.75 
Q 22.953125 6.109375 30.078125 6.109375 
Q 37.203125 6.109375 41.296875 11.75 
Q 45.40625 17.390625 45.40625 27.296875 
Q 45.40625 37.203125 41.296875 42.84375 
Q 37.203125 48.484375 30.078125 48.484375 
Q 22.953125 48.484375 18.875 42.84375 
Q 14.796875 37.203125 14.796875 27.296875 
z
" id="DejaVuSans-64"/>
    </defs>
    <g transform="translate(104.533125 35.472)scale(0.12 -0.12)">
     <use xlink:href="#DejaVuSans-41"/>
     <use x="68.330078" xlink:href="#DejaVuSans-76"/>
     <use x="127.509766" xlink:href="#DejaVuSans-65"/>
     <use x="189.033203" xlink:href="#DejaVuSans-72"/>
     <use x="230.146484" xlink:href="#DejaVuSans-61"/>
     <use x="291.425781" xlink:href="#DejaVuSans-67"/>
     <use x="354.902344" xlink:href="#DejaVuSans-65"/>
     <use x="416.425781" xlink:href="#DejaVuSans-20"/>
     <use x="448.212891" xlink:href="#DejaVuSans-66"/>
     <use x="483.417969" xlink:href="#DejaVuSans-69"/>
     <use x="511.201172" xlink:href="#DejaVuSans-74"/>
     <use x="550.410156" xlink:href="#DejaVuSans-6e"/>
     <use x="613.789062" xlink:href="#DejaVuSans-65"/>
     <use x="675.3125" xlink:href="#DejaVuSans-73"/>
     <use x="727.412109" xlink:href="#DejaVuSans-73"/>
     <use x="779.511719" xlink:href="#DejaVuSans-20"/>
     <use x="811.298828" xlink:href="#DejaVuSans-6f"/>
     <use x="872.480469" xlink:href="#DejaVuSans-76"/>
     <use x="931.660156" xlink:href="#DejaVuSans-65"/>
     <use x="993.183594" xlink:href="#DejaVuSans-72"/>
     <use x="1034.296875" xlink:href="#DejaVuSans-20"/>
     <use x="1066.083984" xlink:href="#DejaVuSans-36"/>
     <use x="1129.707031" xlink:href="#DejaVuSans-30"/>
     <use x="1193.330078" xlink:href="#DejaVuSans-20"/>
     <use x="1225.117188" xlink:href="#DejaVuSans-73"/>
     <use x="1277.216797" xlink:href="#DejaVuSans-65"/>
     <use x="1338.740234" xlink:href="#DejaVuSans-63"/>
     <use x="1393.720703" xlink:href="#DejaVuSans-6f"/>
     <use x="1454.902344" xlink:href="#DejaVuSans-6e"/>
     <use x="1518.28125" xlink:href="#DejaVuSans-64"/>
     <use x="1581.757812" xlink:href="#DejaVuSans-73"/>
     <use x="1633.857422" xlink:href="#DejaVuSans-20"/>
     <use x="1665.644531" xlink:href="#DejaVuSans-66"/>
     <use x="1700.849609" xlink:href="#DejaVuSans-6f"/>
     <use x="1762.03125" xlink:href="#DejaVuSans-72"/>
     <use x="1803.144531" xlink:href="#DejaVuSans-35"/>
     <use x="1866.767578" xlink:href="#DejaVuSans-32"/>
     <use x="1930.390625" xlink:href="#DejaVuSans-63"/>
     <use x="1985.371094" xlink:href="#DejaVuSans-69"/>
     <use x="2013.154297" xlink:href="#DejaVuSans-74"/>
     <use x="2052.363281" xlink:href="#DejaVuSans-69"/>
     <use x="2080.146484" xlink:href="#DejaVuSans-65"/>
     <use x="2141.669922" xlink:href="#DejaVuSans-73"/>
    </g>
   </g>
   <g id="legend_1">
    <g id="patch_7">
     <path d="M 105.75125 78.82825 
L 407.72 78.82825 
Q 409.72 78.82825 409.72 76.82825 
L 409.72 48.472 
Q 409.72 46.472 407.72 46.472 
L 105.75125 46.472 
Q 103.75125 46.472 103.75125 48.472 
L 103.75125 76.82825 
Q 103.75125 78.82825 105.75125 78.82825 
z
" style="fill:#ffffff;opacity:0.8;stroke:#cccccc;stroke-linejoin:miter;"/>
    </g>
    <g id="patch_8">
     <path d="M 107.75125 58.070437 
L 127.75125 58.070437 
L 127.75125 51.070437 
L 107.75125 51.070437 
z
" style="fill:#87ceeb;stroke:#87ceeb;stroke-linejoin:miter;"/>
    </g>
    <g id="text_19">
     <!-- Parallel min, 10576.1 Last Generation number 1641.0 -->
     <defs>
      <path d="M 19.671875 64.796875 
L 19.671875 37.40625 
L 32.078125 37.40625 
Q 38.96875 37.40625 42.71875 40.96875 
Q 46.484375 44.53125 46.484375 51.125 
Q 46.484375 57.671875 42.71875 61.234375 
Q 38.96875 64.796875 32.078125 64.796875 
z
M 9.8125 72.90625 
L 32.078125 72.90625 
Q 44.34375 72.90625 50.609375 67.359375 
Q 56.890625 61.8125 56.890625 51.125 
Q 56.890625 40.328125 50.609375 34.8125 
Q 44.34375 29.296875 32.078125 29.296875 
L 19.671875 29.296875 
L 19.671875 0 
L 9.8125 0 
z
" id="DejaVuSans-50"/>
      <path d="M 9.421875 75.984375 
L 18.40625 75.984375 
L 18.40625 0 
L 9.421875 0 
z
" id="DejaVuSans-6c"/>
      <path d="M 11.71875 12.40625 
L 22.015625 12.40625 
L 22.015625 4 
L 14.015625 -11.625 
L 7.71875 -11.625 
L 11.71875 4 
z
" id="DejaVuSans-2c"/>
      <path d="M 10.6875 12.40625 
L 21 12.40625 
L 21 0 
L 10.6875 0 
z
" id="DejaVuSans-2e"/>
      <path d="M 9.8125 72.90625 
L 19.671875 72.90625 
L 19.671875 8.296875 
L 55.171875 8.296875 
L 55.171875 0 
L 9.8125 0 
z
" id="DejaVuSans-4c"/>
      <path d="M 37.796875 64.3125 
L 12.890625 25.390625 
L 37.796875 25.390625 
z
M 35.203125 72.90625 
L 47.609375 72.90625 
L 47.609375 25.390625 
L 58.015625 25.390625 
L 58.015625 17.1875 
L 47.609375 17.1875 
L 47.609375 0 
L 37.796875 0 
L 37.796875 17.1875 
L 4.890625 17.1875 
L 4.890625 26.703125 
z
" id="DejaVuSans-34"/>
     </defs>
     <g transform="translate(135.75125 58.070437)scale(0.1 -0.1)">
      <use xlink:href="#DejaVuSans-50"/>
      <use x="60.240234" xlink:href="#DejaVuSans-61"/>
      <use x="121.519531" xlink:href="#DejaVuSans-72"/>
      <use x="162.632812" xlink:href="#DejaVuSans-61"/>
      <use x="223.912109" xlink:href="#DejaVuSans-6c"/>
      <use x="251.695312" xlink:href="#DejaVuSans-6c"/>
      <use x="279.478516" xlink:href="#DejaVuSans-65"/>
      <use x="341.001953" xlink:href="#DejaVuSans-6c"/>
      <use x="368.785156" xlink:href="#DejaVuSans-20"/>
      <use x="400.572266" xlink:href="#DejaVuSans-6d"/>
      <use x="497.984375" xlink:href="#DejaVuSans-69"/>
      <use x="525.767578" xlink:href="#DejaVuSans-6e"/>
      <use x="589.146484" xlink:href="#DejaVuSans-2c"/>
      <use x="620.933594" xlink:href="#DejaVuSans-20"/>
      <use x="652.720703" xlink:href="#DejaVuSans-31"/>
      <use x="716.34375" xlink:href="#DejaVuSans-30"/>
      <use x="779.966797" xlink:href="#DejaVuSans-35"/>
      <use x="843.589844" xlink:href="#DejaVuSans-37"/>
      <use x="907.212891" xlink:href="#DejaVuSans-36"/>
      <use x="970.835938" xlink:href="#DejaVuSans-2e"/>
      <use x="1002.623047" xlink:href="#DejaVuSans-31"/>
      <use x="1066.246094" xlink:href="#DejaVuSans-20"/>
      <use x="1098.033203" xlink:href="#DejaVuSans-4c"/>
      <use x="1153.746094" xlink:href="#DejaVuSans-61"/>
      <use x="1215.025391" xlink:href="#DejaVuSans-73"/>
      <use x="1267.125" xlink:href="#DejaVuSans-74"/>
      <use x="1306.333984" xlink:href="#DejaVuSans-20"/>
      <use x="1338.121094" xlink:href="#DejaVuSans-47"/>
      <use x="1415.611328" xlink:href="#DejaVuSans-65"/>
      <use x="1477.134766" xlink:href="#DejaVuSans-6e"/>
      <use x="1540.513672" xlink:href="#DejaVuSans-65"/>
      <use x="1602.037109" xlink:href="#DejaVuSans-72"/>
      <use x="1643.150391" xlink:href="#DejaVuSans-61"/>
      <use x="1704.429688" xlink:href="#DejaVuSans-74"/>
      <use x="1743.638672" xlink:href="#DejaVuSans-69"/>
      <use x="1771.421875" xlink:href="#DejaVuSans-6f"/>
      <use x="1832.603516" xlink:href="#DejaVuSans-6e"/>
      <use x="1895.982422" xlink:href="#DejaVuSans-20"/>
      <use x="1927.769531" xlink:href="#DejaVuSans-6e"/>
      <use x="1991.148438" xlink:href="#DejaVuSans-75"/>
      <use x="2054.527344" xlink:href="#DejaVuSans-6d"/>
      <use x="2151.939453" xlink:href="#DejaVuSans-62"/>
      <use x="2215.416016" xlink:href="#DejaVuSans-65"/>
      <use x="2276.939453" xlink:href="#DejaVuSans-72"/>
      <use x="2318.052734" xlink:href="#DejaVuSans-20"/>
      <use x="2349.839844" xlink:href="#DejaVuSans-31"/>
      <use x="2413.462891" xlink:href="#DejaVuSans-36"/>
      <use x="2477.085938" xlink:href="#DejaVuSans-34"/>
      <use x="2540.708984" xlink:href="#DejaVuSans-31"/>
      <use x="2604.332031" xlink:href="#DejaVuSans-2e"/>
      <use x="2636.119141" xlink:href="#DejaVuSans-30"/>
     </g>
    </g>
    <g id="patch_9">
     <path d="M 107.75125 72.748562 
L 127.75125 72.748562 
L 127.75125 65.748562 
L 107.75125 65.748562 
z
" style="fill:#ffa500;stroke:#ffa500;stroke-linejoin:miter;"/>
    </g>
    <g id="text_20">
     <!-- Serial min, 12391.8 Last Generation number 498.0 -->
     <defs>
      <path d="M 53.515625 70.515625 
L 53.515625 60.890625 
Q 47.90625 63.578125 42.921875 64.890625 
Q 37.9375 66.21875 33.296875 66.21875 
Q 25.25 66.21875 20.875 63.09375 
Q 16.5 59.96875 16.5 54.203125 
Q 16.5 49.359375 19.40625 46.890625 
Q 22.3125 44.4375 30.421875 42.921875 
L 36.375 41.703125 
Q 47.40625 39.59375 52.65625 34.296875 
Q 57.90625 29 57.90625 20.125 
Q 57.90625 9.515625 50.796875 4.046875 
Q 43.703125 -1.421875 29.984375 -1.421875 
Q 24.8125 -1.421875 18.96875 -0.25 
Q 13.140625 0.921875 6.890625 3.21875 
L 6.890625 13.375 
Q 12.890625 10.015625 18.65625 8.296875 
Q 24.421875 6.59375 29.984375 6.59375 
Q 38.421875 6.59375 43.015625 9.90625 
Q 47.609375 13.234375 47.609375 19.390625 
Q 47.609375 24.75 44.3125 27.78125 
Q 41.015625 30.8125 33.5 32.328125 
L 27.484375 33.5 
Q 16.453125 35.6875 11.515625 40.375 
Q 6.59375 45.0625 6.59375 53.421875 
Q 6.59375 63.09375 13.40625 68.65625 
Q 20.21875 74.21875 32.171875 74.21875 
Q 37.3125 74.21875 42.625 73.28125 
Q 47.953125 72.359375 53.515625 70.515625 
z
" id="DejaVuSans-53"/>
      <path d="M 40.578125 39.3125 
Q 47.65625 37.796875 51.625 33 
Q 55.609375 28.21875 55.609375 21.1875 
Q 55.609375 10.40625 48.1875 4.484375 
Q 40.765625 -1.421875 27.09375 -1.421875 
Q 22.515625 -1.421875 17.65625 -0.515625 
Q 12.796875 0.390625 7.625 2.203125 
L 7.625 11.71875 
Q 11.71875 9.328125 16.59375 8.109375 
Q 21.484375 6.890625 26.8125 6.890625 
Q 36.078125 6.890625 40.9375 10.546875 
Q 45.796875 14.203125 45.796875 21.1875 
Q 45.796875 27.640625 41.28125 31.265625 
Q 36.765625 34.90625 28.71875 34.90625 
L 20.21875 34.90625 
L 20.21875 43.015625 
L 29.109375 43.015625 
Q 36.375 43.015625 40.234375 45.921875 
Q 44.09375 48.828125 44.09375 54.296875 
Q 44.09375 59.90625 40.109375 62.90625 
Q 36.140625 65.921875 28.71875 65.921875 
Q 24.65625 65.921875 20.015625 65.03125 
Q 15.375 64.15625 9.8125 62.3125 
L 9.8125 71.09375 
Q 15.4375 72.65625 20.34375 73.4375 
Q 25.25 74.21875 29.59375 74.21875 
Q 40.828125 74.21875 47.359375 69.109375 
Q 53.90625 64.015625 53.90625 55.328125 
Q 53.90625 49.265625 50.4375 45.09375 
Q 46.96875 40.921875 40.578125 39.3125 
z
" id="DejaVuSans-33"/>
      <path d="M 10.984375 1.515625 
L 10.984375 10.5 
Q 14.703125 8.734375 18.5 7.8125 
Q 22.3125 6.890625 25.984375 6.890625 
Q 35.75 6.890625 40.890625 13.453125 
Q 46.046875 20.015625 46.78125 33.40625 
Q 43.953125 29.203125 39.59375 26.953125 
Q 35.25 24.703125 29.984375 24.703125 
Q 19.046875 24.703125 12.671875 31.3125 
Q 6.296875 37.9375 6.296875 49.421875 
Q 6.296875 60.640625 12.9375 67.421875 
Q 19.578125 74.21875 30.609375 74.21875 
Q 43.265625 74.21875 49.921875 64.515625 
Q 56.59375 54.828125 56.59375 36.375 
Q 56.59375 19.140625 48.40625 8.859375 
Q 40.234375 -1.421875 26.421875 -1.421875 
Q 22.703125 -1.421875 18.890625 -0.6875 
Q 15.09375 0.046875 10.984375 1.515625 
z
M 30.609375 32.421875 
Q 37.25 32.421875 41.125 36.953125 
Q 45.015625 41.5 45.015625 49.421875 
Q 45.015625 57.28125 41.125 61.84375 
Q 37.25 66.40625 30.609375 66.40625 
Q 23.96875 66.40625 20.09375 61.84375 
Q 16.21875 57.28125 16.21875 49.421875 
Q 16.21875 41.5 20.09375 36.953125 
Q 23.96875 32.421875 30.609375 32.421875 
z
" id="DejaVuSans-39"/>
      <path d="M 31.78125 34.625 
Q 24.75 34.625 20.71875 30.859375 
Q 16.703125 27.09375 16.703125 20.515625 
Q 16.703125 13.921875 20.71875 10.15625 
Q 24.75 6.390625 31.78125 6.390625 
Q 38.8125 6.390625 42.859375 10.171875 
Q 46.921875 13.96875 46.921875 20.515625 
Q 46.921875 27.09375 42.890625 30.859375 
Q 38.875 34.625 31.78125 34.625 
z
M 21.921875 38.8125 
Q 15.578125 40.375 12.03125 44.71875 
Q 8.5 49.078125 8.5 55.328125 
Q 8.5 64.0625 14.71875 69.140625 
Q 20.953125 74.21875 31.78125 74.21875 
Q 42.671875 74.21875 48.875 69.140625 
Q 55.078125 64.0625 55.078125 55.328125 
Q 55.078125 49.078125 51.53125 44.71875 
Q 48 40.375 41.703125 38.8125 
Q 48.828125 37.15625 52.796875 32.3125 
Q 56.78125 27.484375 56.78125 20.515625 
Q 56.78125 9.90625 50.3125 4.234375 
Q 43.84375 -1.421875 31.78125 -1.421875 
Q 19.734375 -1.421875 13.25 4.234375 
Q 6.78125 9.90625 6.78125 20.515625 
Q 6.78125 27.484375 10.78125 32.3125 
Q 14.796875 37.15625 21.921875 38.8125 
z
M 18.3125 54.390625 
Q 18.3125 48.734375 21.84375 45.5625 
Q 25.390625 42.390625 31.78125 42.390625 
Q 38.140625 42.390625 41.71875 45.5625 
Q 45.3125 48.734375 45.3125 54.390625 
Q 45.3125 60.0625 41.71875 63.234375 
Q 38.140625 66.40625 31.78125 66.40625 
Q 25.390625 66.40625 21.84375 63.234375 
Q 18.3125 60.0625 18.3125 54.390625 
z
" id="DejaVuSans-38"/>
     </defs>
     <g transform="translate(135.75125 72.748562)scale(0.1 -0.1)">
      <use xlink:href="#DejaVuSans-53"/>
      <use x="63.476562" xlink:href="#DejaVuSans-65"/>
      <use x="125" xlink:href="#DejaVuSans-72"/>
      <use x="166.113281" xlink:href="#DejaVuSans-69"/>
      <use x="193.896484" xlink:href="#DejaVuSans-61"/>
      <use x="255.175781" xlink:href="#DejaVuSans-6c"/>
      <use x="282.958984" xlink:href="#DejaVuSans-20"/>
      <use x="314.746094" xlink:href="#DejaVuSans-6d"/>
      <use x="412.158203" xlink:href="#DejaVuSans-69"/>
      <use x="439.941406" xlink:href="#DejaVuSans-6e"/>
      <use x="503.320312" xlink:href="#DejaVuSans-2c"/>
      <use x="535.107422" xlink:href="#DejaVuSans-20"/>
      <use x="566.894531" xlink:href="#DejaVuSans-31"/>
      <use x="630.517578" xlink:href="#DejaVuSans-32"/>
      <use x="694.140625" xlink:href="#DejaVuSans-33"/>
      <use x="757.763672" xlink:href="#DejaVuSans-39"/>
      <use x="821.386719" xlink:href="#DejaVuSans-31"/>
      <use x="885.009766" xlink:href="#DejaVuSans-2e"/>
      <use x="916.796875" xlink:href="#DejaVuSans-38"/>
      <use x="980.419922" xlink:href="#DejaVuSans-20"/>
      <use x="1012.207031" xlink:href="#DejaVuSans-4c"/>
      <use x="1067.919922" xlink:href="#DejaVuSans-61"/>
      <use x="1129.199219" xlink:href="#DejaVuSans-73"/>
      <use x="1181.298828" xlink:href="#DejaVuSans-74"/>
      <use x="1220.507812" xlink:href="#DejaVuSans-20"/>
      <use x="1252.294922" xlink:href="#DejaVuSans-47"/>
      <use x="1329.785156" xlink:href="#DejaVuSans-65"/>
      <use x="1391.308594" xlink:href="#DejaVuSans-6e"/>
      <use x="1454.6875" xlink:href="#DejaVuSans-65"/>
      <use x="1516.210938" xlink:href="#DejaVuSans-72"/>
      <use x="1557.324219" xlink:href="#DejaVuSans-61"/>
      <use x="1618.603516" xlink:href="#DejaVuSans-74"/>
      <use x="1657.8125" xlink:href="#DejaVuSans-69"/>
      <use x="1685.595703" xlink:href="#DejaVuSans-6f"/>
      <use x="1746.777344" xlink:href="#DejaVuSans-6e"/>
      <use x="1810.15625" xlink:href="#DejaVuSans-20"/>
      <use x="1841.943359" xlink:href="#DejaVuSans-6e"/>
      <use x="1905.322266" xlink:href="#DejaVuSans-75"/>
      <use x="1968.701172" xlink:href="#DejaVuSans-6d"/>
      <use x="2066.113281" xlink:href="#DejaVuSans-62"/>
      <use x="2129.589844" xlink:href="#DejaVuSans-65"/>
      <use x="2191.113281" xlink:href="#DejaVuSans-72"/>
      <use x="2232.226562" xlink:href="#DejaVuSans-20"/>
      <use x="2264.013672" xlink:href="#DejaVuSans-34"/>
      <use x="2327.636719" xlink:href="#DejaVuSans-39"/>
      <use x="2391.259766" xlink:href="#DejaVuSans-38"/>
      <use x="2454.882812" xlink:href="#DejaVuSans-2e"/>
      <use x="2486.669922" xlink:href="#DejaVuSans-30"/>
     </g>
    </g>
   </g>
  </g>
 </g>
 <defs>
  <clipPath id="p3cffceaf53">
   <rect height="266.112" width="357.12" x="57.6" y="41.472"/>
  </clipPath>
 </defs>
</svg>
