<?xml version="1.0" encoding="utf-8" standalone="no"?>
<!DOCTYPE svg PUBLIC "-//W3C//DTD SVG 1.1//EN"
  "http://www.w3.org/Graphics/SVG/1.1/DTD/svg11.dtd">
<!-- Created with matplotlib (http://matplotlib.org/) -->
<svg height="345.6pt" version="1.1" viewBox="0 0 460.8 345.6" width="460.8pt" xmlns="http://www.w3.org/2000/svg" xmlns:xlink="http://www.w3.org/1999/xlink">
 <defs>
  <style type="text/css">
*{stroke-linecap:butt;stroke-linejoin:round;}
  </style>
 </defs>
 <g id="figure_1">
  <g id="patch_1">
   <path d="M 0 345.6 
L 460.8 345.6 
L 460.8 0 
L 0 0 
z
" style="fill:#ffffff;"/>
  </g>
  <g id="axes_1">
   <g id="patch_2">
    <path d="M 57.6 307.584 
L 414.72 307.584 
L 414.72 41.472 
L 57.6 41.472 
z
" style="fill:#ffffff;"/>
   </g>
   <g id="matplotlib.axis_1">
    <g id="xtick_1">
     <g id="line2d_1">
      <defs>
       <path d="M 0 0 
L 0 3.5 
" id="m3c15392cdd" style="stroke:#000000;stroke-width:0.8;"/>
      </defs>
      <g>
       <use style="stroke:#000000;stroke-width:0.8;" x="73.674745" xlink:href="#m3c15392cdd" y="307.584"/>
      </g>
     </g>
     <g id="text_1">
      <!-- 0 -->
      <defs>
       <path d="M 31.78125 66.40625 
Q 24.171875 66.40625 20.328125 58.90625 
Q 16.5 51.421875 16.5 36.375 
Q 16.5 21.390625 20.328125 13.890625 
Q 24.171875 6.390625 31.78125 6.390625 
Q 39.453125 6.390625 43.28125 13.890625 
Q 47.125 21.390625 47.125 36.375 
Q 47.125 51.421875 43.28125 58.90625 
Q 39.453125 66.40625 31.78125 66.40625 
z
M 31.78125 74.21875 
Q 44.046875 74.21875 50.515625 64.515625 
Q 56.984375 54.828125 56.984375 36.375 
Q 56.984375 17.96875 50.515625 8.265625 
Q 44.046875 -1.421875 31.78125 -1.421875 
Q 19.53125 -1.421875 13.0625 8.265625 
Q 6.59375 17.96875 6.59375 36.375 
Q 6.59375 54.828125 13.0625 64.515625 
Q 19.53125 74.21875 31.78125 74.21875 
z
" id="DejaVuSans-30"/>
      </defs>
      <g transform="translate(70.493495 322.182437)scale(0.1 -0.1)">
       <use xlink:href="#DejaVuSans-30"/>
      </g>
     </g>
    </g>
    <g id="xtick_2">
     <g id="line2d_2">
      <g>
       <use style="stroke:#000000;stroke-width:0.8;" x="152.666118" xlink:href="#m3c15392cdd" y="307.584"/>
      </g>
     </g>
     <g id="text_2">
      <!-- 500 -->
      <defs>
       <path d="M 10.796875 72.90625 
L 49.515625 72.90625 
L 49.515625 64.59375 
L 19.828125 64.59375 
L 19.828125 46.734375 
Q 21.96875 47.46875 24.109375 47.828125 
Q 26.265625 48.1875 28.421875 48.1875 
Q 40.625 48.1875 47.75 41.5 
Q 54.890625 34.8125 54.890625 23.390625 
Q 54.890625 11.625 47.5625 5.09375 
Q 40.234375 -1.421875 26.90625 -1.421875 
Q 22.3125 -1.421875 17.546875 -0.640625 
Q 12.796875 0.140625 7.71875 1.703125 
L 7.71875 11.625 
Q 12.109375 9.234375 16.796875 8.0625 
Q 21.484375 6.890625 26.703125 6.890625 
Q 35.15625 6.890625 40.078125 11.328125 
Q 45.015625 15.765625 45.015625 23.390625 
Q 45.015625 31 40.078125 35.4375 
Q 35.15625 39.890625 26.703125 39.890625 
Q 22.75 39.890625 18.8125 39.015625 
Q 14.890625 38.140625 10.796875 36.28125 
z
" id="DejaVuSans-35"/>
      </defs>
      <g transform="translate(143.122368 322.182437)scale(0.1 -0.1)">
       <use xlink:href="#DejaVuSans-35"/>
       <use x="63.623047" xlink:href="#DejaVuSans-30"/>
       <use x="127.246094" xlink:href="#DejaVuSans-30"/>
      </g>
     </g>
    </g>
    <g id="xtick_3">
     <g id="line2d_3">
      <g>
       <use style="stroke:#000000;stroke-width:0.8;" x="231.657492" xlink:href="#m3c15392cdd" y="307.584"/>
      </g>
     </g>
     <g id="text_3">
      <!-- 1000 -->
      <defs>
       <path d="M 12.40625 8.296875 
L 28.515625 8.296875 
L 28.515625 63.921875 
L 10.984375 60.40625 
L 10.984375 69.390625 
L 28.421875 72.90625 
L 38.28125 72.90625 
L 38.28125 8.296875 
L 54.390625 8.296875 
L 54.390625 0 
L 12.40625 0 
z
" id="DejaVuSans-31"/>
      </defs>
      <g transform="translate(218.932492 322.182437)scale(0.1 -0.1)">
       <use xlink:href="#DejaVuSans-31"/>
       <use x="63.623047" xlink:href="#DejaVuSans-30"/>
       <use x="127.246094" xlink:href="#DejaVuSans-30"/>
       <use x="190.869141" xlink:href="#DejaVuSans-30"/>
      </g>
     </g>
    </g>
    <g id="xtick_4">
     <g id="line2d_4">
      <g>
       <use style="stroke:#000000;stroke-width:0.8;" x="310.648865" xlink:href="#m3c15392cdd" y="307.584"/>
      </g>
     </g>
     <g id="text_4">
      <!-- 1500 -->
      <g transform="translate(297.923865 322.182437)scale(0.1 -0.1)">
       <use xlink:href="#DejaVuSans-31"/>
       <use x="63.623047" xlink:href="#DejaVuSans-35"/>
       <use x="127.246094" xlink:href="#DejaVuSans-30"/>
       <use x="190.869141" xlink:href="#DejaVuSans-30"/>
      </g>
     </g>
    </g>
    <g id="xtick_5">
     <g id="line2d_5">
      <g>
       <use style="stroke:#000000;stroke-width:0.8;" x="389.640239" xlink:href="#m3c15392cdd" y="307.584"/>
      </g>
     </g>
     <g id="text_5">
      <!-- 2000 -->
      <defs>
       <path d="M 19.1875 8.296875 
L 53.609375 8.296875 
L 53.609375 0 
L 7.328125 0 
L 7.328125 8.296875 
Q 12.9375 14.109375 22.625 23.890625 
Q 32.328125 33.6875 34.8125 36.53125 
Q 39.546875 41.84375 41.421875 45.53125 
Q 43.3125 49.21875 43.3125 52.78125 
Q 43.3125 58.59375 39.234375 62.25 
Q 35.15625 65.921875 28.609375 65.921875 
Q 23.96875 65.921875 18.8125 64.3125 
Q 13.671875 62.703125 7.8125 59.421875 
L 7.8125 69.390625 
Q 13.765625 71.78125 18.9375 73 
Q 24.125 74.21875 28.421875 74.21875 
Q 39.75 74.21875 46.484375 68.546875 
Q 53.21875 62.890625 53.21875 53.421875 
Q 53.21875 48.921875 51.53125 44.890625 
Q 49.859375 40.875 45.40625 35.40625 
Q 44.1875 33.984375 37.640625 27.21875 
Q 31.109375 20.453125 19.1875 8.296875 
z
" id="DejaVuSans-32"/>
      </defs>
      <g transform="translate(376.915239 322.182437)scale(0.1 -0.1)">
       <use xlink:href="#DejaVuSans-32"/>
       <use x="63.623047" xlink:href="#DejaVuSans-30"/>
       <use x="127.246094" xlink:href="#DejaVuSans-30"/>
       <use x="190.869141" xlink:href="#DejaVuSans-30"/>
      </g>
     </g>
    </g>
    <g id="text_6">
     <!-- Generation number -->
     <defs>
      <path d="M 59.515625 10.40625 
L 59.515625 29.984375 
L 43.40625 29.984375 
L 43.40625 38.09375 
L 69.28125 38.09375 
L 69.28125 6.78125 
Q 63.578125 2.734375 56.6875 0.65625 
Q 49.8125 -1.421875 42 -1.421875 
Q 24.90625 -1.421875 15.25 8.5625 
Q 5.609375 18.5625 5.609375 36.375 
Q 5.609375 54.25 15.25 64.234375 
Q 24.90625 74.21875 42 74.21875 
Q 49.125 74.21875 55.546875 72.453125 
Q 61.96875 70.703125 67.390625 67.28125 
L 67.390625 56.78125 
Q 61.921875 61.421875 55.765625 63.765625 
Q 49.609375 66.109375 42.828125 66.109375 
Q 29.4375 66.109375 22.71875 58.640625 
Q 16.015625 51.171875 16.015625 36.375 
Q 16.015625 21.625 22.71875 14.15625 
Q 29.4375 6.6875 42.828125 6.6875 
Q 48.046875 6.6875 52.140625 7.59375 
Q 56.25 8.5 59.515625 10.40625 
z
" id="DejaVuSans-47"/>
      <path d="M 56.203125 29.59375 
L 56.203125 25.203125 
L 14.890625 25.203125 
Q 15.484375 15.921875 20.484375 11.0625 
Q 25.484375 6.203125 34.421875 6.203125 
Q 39.59375 6.203125 44.453125 7.46875 
Q 49.3125 8.734375 54.109375 11.28125 
L 54.109375 2.78125 
Q 49.265625 0.734375 44.1875 -0.34375 
Q 39.109375 -1.421875 33.890625 -1.421875 
Q 20.796875 -1.421875 13.15625 6.1875 
Q 5.515625 13.8125 5.515625 26.8125 
Q 5.515625 40.234375 12.765625 48.109375 
Q 20.015625 56 32.328125 56 
Q 43.359375 56 49.78125 48.890625 
Q 56.203125 41.796875 56.203125 29.59375 
z
M 47.21875 32.234375 
Q 47.125 39.59375 43.09375 43.984375 
Q 39.0625 48.390625 32.421875 48.390625 
Q 24.90625 48.390625 20.390625 44.140625 
Q 15.875 39.890625 15.1875 32.171875 
z
" id="DejaVuSans-65"/>
      <path d="M 54.890625 33.015625 
L 54.890625 0 
L 45.90625 0 
L 45.90625 32.71875 
Q 45.90625 40.484375 42.875 44.328125 
Q 39.84375 48.1875 33.796875 48.1875 
Q 26.515625 48.1875 22.3125 43.546875 
Q 18.109375 38.921875 18.109375 30.90625 
L 18.109375 0 
L 9.078125 0 
L 9.078125 54.6875 
L 18.109375 54.6875 
L 18.109375 46.1875 
Q 21.34375 51.125 25.703125 53.5625 
Q 30.078125 56 35.796875 56 
Q 45.21875 56 50.046875 50.171875 
Q 54.890625 44.34375 54.890625 33.015625 
z
" id="DejaVuSans-6e"/>
      <path d="M 41.109375 46.296875 
Q 39.59375 47.171875 37.8125 47.578125 
Q 36.03125 48 33.890625 48 
Q 26.265625 48 22.1875 43.046875 
Q 18.109375 38.09375 18.109375 28.8125 
L 18.109375 0 
L 9.078125 0 
L 9.078125 54.6875 
L 18.109375 54.6875 
L 18.109375 46.1875 
Q 20.953125 51.171875 25.484375 53.578125 
Q 30.03125 56 36.53125 56 
Q 37.453125 56 38.578125 55.875 
Q 39.703125 55.765625 41.0625 55.515625 
z
" id="DejaVuSans-72"/>
      <path d="M 34.28125 27.484375 
Q 23.390625 27.484375 19.1875 25 
Q 14.984375 22.515625 14.984375 16.5 
Q 14.984375 11.71875 18.140625 8.90625 
Q 21.296875 6.109375 26.703125 6.109375 
Q 34.1875 6.109375 38.703125 11.40625 
Q 43.21875 16.703125 43.21875 25.484375 
L 43.21875 27.484375 
z
M 52.203125 31.203125 
L 52.203125 0 
L 43.21875 0 
L 43.21875 8.296875 
Q 40.140625 3.328125 35.546875 0.953125 
Q 30.953125 -1.421875 24.3125 -1.421875 
Q 15.921875 -1.421875 10.953125 3.296875 
Q 6 8.015625 6 15.921875 
Q 6 25.140625 12.171875 29.828125 
Q 18.359375 34.515625 30.609375 34.515625 
L 43.21875 34.515625 
L 43.21875 35.40625 
Q 43.21875 41.609375 39.140625 45 
Q 35.0625 48.390625 27.6875 48.390625 
Q 23 48.390625 18.546875 47.265625 
Q 14.109375 46.140625 10.015625 43.890625 
L 10.015625 52.203125 
Q 14.9375 54.109375 19.578125 55.046875 
Q 24.21875 56 28.609375 56 
Q 40.484375 56 46.34375 49.84375 
Q 52.203125 43.703125 52.203125 31.203125 
z
" id="DejaVuSans-61"/>
      <path d="M 18.3125 70.21875 
L 18.3125 54.6875 
L 36.8125 54.6875 
L 36.8125 47.703125 
L 18.3125 47.703125 
L 18.3125 18.015625 
Q 18.3125 11.328125 20.140625 9.421875 
Q 21.96875 7.515625 27.59375 7.515625 
L 36.8125 7.515625 
L 36.8125 0 
L 27.59375 0 
Q 17.1875 0 13.234375 3.875 
Q 9.28125 7.765625 9.28125 18.015625 
L 9.28125 47.703125 
L 2.6875 47.703125 
L 2.6875 54.6875 
L 9.28125 54.6875 
L 9.28125 70.21875 
z
" id="DejaVuSans-74"/>
      <path d="M 9.421875 54.6875 
L 18.40625 54.6875 
L 18.40625 0 
L 9.421875 0 
z
M 9.421875 75.984375 
L 18.40625 75.984375 
L 18.40625 64.59375 
L 9.421875 64.59375 
z
" id="DejaVuSans-69"/>
      <path d="M 30.609375 48.390625 
Q 23.390625 48.390625 19.1875 42.75 
Q 14.984375 37.109375 14.984375 27.296875 
Q 14.984375 17.484375 19.15625 11.84375 
Q 23.34375 6.203125 30.609375 6.203125 
Q 37.796875 6.203125 41.984375 11.859375 
Q 46.1875 17.53125 46.1875 27.296875 
Q 46.1875 37.015625 41.984375 42.703125 
Q 37.796875 48.390625 30.609375 48.390625 
z
M 30.609375 56 
Q 42.328125 56 49.015625 48.375 
Q 55.71875 40.765625 55.71875 27.296875 
Q 55.71875 13.875 49.015625 6.21875 
Q 42.328125 -1.421875 30.609375 -1.421875 
Q 18.84375 -1.421875 12.171875 6.21875 
Q 5.515625 13.875 5.515625 27.296875 
Q 5.515625 40.765625 12.171875 48.375 
Q 18.84375 56 30.609375 56 
z
" id="DejaVuSans-6f"/>
      <path id="DejaVuSans-20"/>
      <path d="M 8.5 21.578125 
L 8.5 54.6875 
L 17.484375 54.6875 
L 17.484375 21.921875 
Q 17.484375 14.15625 20.5 10.265625 
Q 23.53125 6.390625 29.59375 6.390625 
Q 36.859375 6.390625 41.078125 11.03125 
Q 45.3125 15.671875 45.3125 23.6875 
L 45.3125 54.6875 
L 54.296875 54.6875 
L 54.296875 0 
L 45.3125 0 
L 45.3125 8.40625 
Q 42.046875 3.421875 37.71875 1 
Q 33.40625 -1.421875 27.6875 -1.421875 
Q 18.265625 -1.421875 13.375 4.4375 
Q 8.5 10.296875 8.5 21.578125 
z
M 31.109375 56 
z
" id="DejaVuSans-75"/>
      <path d="M 52 44.1875 
Q 55.375 50.25 60.0625 53.125 
Q 64.75 56 71.09375 56 
Q 79.640625 56 84.28125 50.015625 
Q 88.921875 44.046875 88.921875 33.015625 
L 88.921875 0 
L 79.890625 0 
L 79.890625 32.71875 
Q 79.890625 40.578125 77.09375 44.375 
Q 74.3125 48.1875 68.609375 48.1875 
Q 61.625 48.1875 57.5625 43.546875 
Q 53.515625 38.921875 53.515625 30.90625 
L 53.515625 0 
L 44.484375 0 
L 44.484375 32.71875 
Q 44.484375 40.625 41.703125 44.40625 
Q 38.921875 48.1875 33.109375 48.1875 
Q 26.21875 48.1875 22.15625 43.53125 
Q 18.109375 38.875 18.109375 30.90625 
L 18.109375 0 
L 9.078125 0 
L 9.078125 54.6875 
L 18.109375 54.6875 
L 18.109375 46.1875 
Q 21.1875 51.21875 25.484375 53.609375 
Q 29.78125 56 35.6875 56 
Q 41.65625 56 45.828125 52.96875 
Q 50 49.953125 52 44.1875 
z
" id="DejaVuSans-6d"/>
      <path d="M 48.6875 27.296875 
Q 48.6875 37.203125 44.609375 42.84375 
Q 40.53125 48.484375 33.40625 48.484375 
Q 26.265625 48.484375 22.1875 42.84375 
Q 18.109375 37.203125 18.109375 27.296875 
Q 18.109375 17.390625 22.1875 11.75 
Q 26.265625 6.109375 33.40625 6.109375 
Q 40.53125 6.109375 44.609375 11.75 
Q 48.6875 17.390625 48.6875 27.296875 
z
M 18.109375 46.390625 
Q 20.953125 51.265625 25.265625 53.625 
Q 29.59375 56 35.59375 56 
Q 45.5625 56 51.78125 48.09375 
Q 58.015625 40.1875 58.015625 27.296875 
Q 58.015625 14.40625 51.78125 6.484375 
Q 45.5625 -1.421875 35.59375 -1.421875 
Q 29.59375 -1.421875 25.265625 0.953125 
Q 20.953125 3.328125 18.109375 8.203125 
L 18.109375 0 
L 9.078125 0 
L 9.078125 75.984375 
L 18.109375 75.984375 
z
" id="DejaVuSans-62"/>
     </defs>
     <g transform="translate(187.163906 335.860562)scale(0.1 -0.1)">
      <use xlink:href="#DejaVuSans-47"/>
      <use x="77.490234" xlink:href="#DejaVuSans-65"/>
      <use x="139.013672" xlink:href="#DejaVuSans-6e"/>
      <use x="202.392578" xlink:href="#DejaVuSans-65"/>
      <use x="263.916016" xlink:href="#DejaVuSans-72"/>
      <use x="305.029297" xlink:href="#DejaVuSans-61"/>
      <use x="366.308594" xlink:href="#DejaVuSans-74"/>
      <use x="405.517578" xlink:href="#DejaVuSans-69"/>
      <use x="433.300781" xlink:href="#DejaVuSans-6f"/>
      <use x="494.482422" xlink:href="#DejaVuSans-6e"/>
      <use x="557.861328" xlink:href="#DejaVuSans-20"/>
      <use x="589.648438" xlink:href="#DejaVuSans-6e"/>
      <use x="653.027344" xlink:href="#DejaVuSans-75"/>
      <use x="716.40625" xlink:href="#DejaVuSans-6d"/>
      <use x="813.818359" xlink:href="#DejaVuSans-62"/>
      <use x="877.294922" xlink:href="#DejaVuSans-65"/>
      <use x="938.818359" xlink:href="#DejaVuSans-72"/>
     </g>
    </g>
   </g>
   <g id="matplotlib.axis_2">
    <g id="ytick_1">
     <g id="line2d_6">
      <defs>
       <path d="M 0 0 
L -3.5 0 
" id="mdad6a28ee5" style="stroke:#000000;stroke-width:0.8;"/>
      </defs>
      <g>
       <use style="stroke:#000000;stroke-width:0.8;" x="57.6" xlink:href="#mdad6a28ee5" y="296.630273"/>
      </g>
     </g>
     <g id="text_7">
      <!-- 2000 -->
      <g transform="translate(25.15 300.429492)scale(0.1 -0.1)">
       <use xlink:href="#DejaVuSans-32"/>
       <use x="63.623047" xlink:href="#DejaVuSans-30"/>
       <use x="127.246094" xlink:href="#DejaVuSans-30"/>
       <use x="190.869141" xlink:href="#DejaVuSans-30"/>
      </g>
     </g>
    </g>
    <g id="ytick_2">
     <g id="line2d_7">
      <g>
       <use style="stroke:#000000;stroke-width:0.8;" x="57.6" xlink:href="#mdad6a28ee5" y="251.83525"/>
      </g>
     </g>
     <g id="text_8">
      <!-- 2500 -->
      <g transform="translate(25.15 255.634469)scale(0.1 -0.1)">
       <use xlink:href="#DejaVuSans-32"/>
       <use x="63.623047" xlink:href="#DejaVuSans-35"/>
       <use x="127.246094" xlink:href="#DejaVuSans-30"/>
       <use x="190.869141" xlink:href="#DejaVuSans-30"/>
      </g>
     </g>
    </g>
    <g id="ytick_3">
     <g id="line2d_8">
      <g>
       <use style="stroke:#000000;stroke-width:0.8;" x="57.6" xlink:href="#mdad6a28ee5" y="207.040228"/>
      </g>
     </g>
     <g id="text_9">
      <!-- 3000 -->
      <defs>
       <path d="M 40.578125 39.3125 
Q 47.65625 37.796875 51.625 33 
Q 55.609375 28.21875 55.609375 21.1875 
Q 55.609375 10.40625 48.1875 4.484375 
Q 40.765625 -1.421875 27.09375 -1.421875 
Q 22.515625 -1.421875 17.65625 -0.515625 
Q 12.796875 0.390625 7.625 2.203125 
L 7.625 11.71875 
Q 11.71875 9.328125 16.59375 8.109375 
Q 21.484375 6.890625 26.8125 6.890625 
Q 36.078125 6.890625 40.9375 10.546875 
Q 45.796875 14.203125 45.796875 21.1875 
Q 45.796875 27.640625 41.28125 31.265625 
Q 36.765625 34.90625 28.71875 34.90625 
L 20.21875 34.90625 
L 20.21875 43.015625 
L 29.109375 43.015625 
Q 36.375 43.015625 40.234375 45.921875 
Q 44.09375 48.828125 44.09375 54.296875 
Q 44.09375 59.90625 40.109375 62.90625 
Q 36.140625 65.921875 28.71875 65.921875 
Q 24.65625 65.921875 20.015625 65.03125 
Q 15.375 64.15625 9.8125 62.3125 
L 9.8125 71.09375 
Q 15.4375 72.65625 20.34375 73.4375 
Q 25.25 74.21875 29.59375 74.21875 
Q 40.828125 74.21875 47.359375 69.109375 
Q 53.90625 64.015625 53.90625 55.328125 
Q 53.90625 49.265625 50.4375 45.09375 
Q 46.96875 40.921875 40.578125 39.3125 
z
" id="DejaVuSans-33"/>
      </defs>
      <g transform="translate(25.15 210.839446)scale(0.1 -0.1)">
       <use xlink:href="#DejaVuSans-33"/>
       <use x="63.623047" xlink:href="#DejaVuSans-30"/>
       <use x="127.246094" xlink:href="#DejaVuSans-30"/>
       <use x="190.869141" xlink:href="#DejaVuSans-30"/>
      </g>
     </g>
    </g>
    <g id="ytick_4">
     <g id="line2d_9">
      <g>
       <use style="stroke:#000000;stroke-width:0.8;" x="57.6" xlink:href="#mdad6a28ee5" y="162.245205"/>
      </g>
     </g>
     <g id="text_10">
      <!-- 3500 -->
      <g transform="translate(25.15 166.044424)scale(0.1 -0.1)">
       <use xlink:href="#DejaVuSans-33"/>
       <use x="63.623047" xlink:href="#DejaVuSans-35"/>
       <use x="127.246094" xlink:href="#DejaVuSans-30"/>
       <use x="190.869141" xlink:href="#DejaVuSans-30"/>
      </g>
     </g>
    </g>
    <g id="ytick_5">
     <g id="line2d_10">
      <g>
       <use style="stroke:#000000;stroke-width:0.8;" x="57.6" xlink:href="#mdad6a28ee5" y="117.450182"/>
      </g>
     </g>
     <g id="text_11">
      <!-- 4000 -->
      <defs>
       <path d="M 37.796875 64.3125 
L 12.890625 25.390625 
L 37.796875 25.390625 
z
M 35.203125 72.90625 
L 47.609375 72.90625 
L 47.609375 25.390625 
L 58.015625 25.390625 
L 58.015625 17.1875 
L 47.609375 17.1875 
L 47.609375 0 
L 37.796875 0 
L 37.796875 17.1875 
L 4.890625 17.1875 
L 4.890625 26.703125 
z
" id="DejaVuSans-34"/>
      </defs>
      <g transform="translate(25.15 121.249401)scale(0.1 -0.1)">
       <use xlink:href="#DejaVuSans-34"/>
       <use x="63.623047" xlink:href="#DejaVuSans-30"/>
       <use x="127.246094" xlink:href="#DejaVuSans-30"/>
       <use x="190.869141" xlink:href="#DejaVuSans-30"/>
      </g>
     </g>
    </g>
    <g id="ytick_6">
     <g id="line2d_11">
      <g>
       <use style="stroke:#000000;stroke-width:0.8;" x="57.6" xlink:href="#mdad6a28ee5" y="72.655159"/>
      </g>
     </g>
     <g id="text_12">
      <!-- 4500 -->
      <g transform="translate(25.15 76.454378)scale(0.1 -0.1)">
       <use xlink:href="#DejaVuSans-34"/>
       <use x="63.623047" xlink:href="#DejaVuSans-35"/>
       <use x="127.246094" xlink:href="#DejaVuSans-30"/>
       <use x="190.869141" xlink:href="#DejaVuSans-30"/>
      </g>
     </g>
    </g>
    <g id="text_13">
     <!-- Average fitness -->
     <defs>
      <path d="M 34.1875 63.1875 
L 20.796875 26.90625 
L 47.609375 26.90625 
z
M 28.609375 72.90625 
L 39.796875 72.90625 
L 67.578125 0 
L 57.328125 0 
L 50.6875 18.703125 
L 17.828125 18.703125 
L 11.1875 0 
L 0.78125 0 
z
" id="DejaVuSans-41"/>
      <path d="M 2.984375 54.6875 
L 12.5 54.6875 
L 29.59375 8.796875 
L 46.6875 54.6875 
L 56.203125 54.6875 
L 35.6875 0 
L 23.484375 0 
z
" id="DejaVuSans-76"/>
      <path d="M 45.40625 27.984375 
Q 45.40625 37.75 41.375 43.109375 
Q 37.359375 48.484375 30.078125 48.484375 
Q 22.859375 48.484375 18.828125 43.109375 
Q 14.796875 37.75 14.796875 27.984375 
Q 14.796875 18.265625 18.828125 12.890625 
Q 22.859375 7.515625 30.078125 7.515625 
Q 37.359375 7.515625 41.375 12.890625 
Q 45.40625 18.265625 45.40625 27.984375 
z
M 54.390625 6.78125 
Q 54.390625 -7.171875 48.1875 -13.984375 
Q 42 -20.796875 29.203125 -20.796875 
Q 24.46875 -20.796875 20.265625 -20.09375 
Q 16.0625 -19.390625 12.109375 -17.921875 
L 12.109375 -9.1875 
Q 16.0625 -11.328125 19.921875 -12.34375 
Q 23.78125 -13.375 27.78125 -13.375 
Q 36.625 -13.375 41.015625 -8.765625 
Q 45.40625 -4.15625 45.40625 5.171875 
L 45.40625 9.625 
Q 42.625 4.78125 38.28125 2.390625 
Q 33.9375 0 27.875 0 
Q 17.828125 0 11.671875 7.65625 
Q 5.515625 15.328125 5.515625 27.984375 
Q 5.515625 40.671875 11.671875 48.328125 
Q 17.828125 56 27.875 56 
Q 33.9375 56 38.28125 53.609375 
Q 42.625 51.21875 45.40625 46.390625 
L 45.40625 54.6875 
L 54.390625 54.6875 
z
" id="DejaVuSans-67"/>
      <path d="M 37.109375 75.984375 
L 37.109375 68.5 
L 28.515625 68.5 
Q 23.6875 68.5 21.796875 66.546875 
Q 19.921875 64.59375 19.921875 59.515625 
L 19.921875 54.6875 
L 34.71875 54.6875 
L 34.71875 47.703125 
L 19.921875 47.703125 
L 19.921875 0 
L 10.890625 0 
L 10.890625 47.703125 
L 2.296875 47.703125 
L 2.296875 54.6875 
L 10.890625 54.6875 
L 10.890625 58.5 
Q 10.890625 67.625 15.140625 71.796875 
Q 19.390625 75.984375 28.609375 75.984375 
z
" id="DejaVuSans-66"/>
      <path d="M 44.28125 53.078125 
L 44.28125 44.578125 
Q 40.484375 46.53125 36.375 47.5 
Q 32.28125 48.484375 27.875 48.484375 
Q 21.1875 48.484375 17.84375 46.4375 
Q 14.5 44.390625 14.5 40.28125 
Q 14.5 37.15625 16.890625 35.375 
Q 19.28125 33.59375 26.515625 31.984375 
L 29.59375 31.296875 
Q 39.15625 29.25 43.1875 25.515625 
Q 47.21875 21.78125 47.21875 15.09375 
Q 47.21875 7.46875 41.1875 3.015625 
Q 35.15625 -1.421875 24.609375 -1.421875 
Q 20.21875 -1.421875 15.453125 -0.5625 
Q 10.6875 0.296875 5.421875 2 
L 5.421875 11.28125 
Q 10.40625 8.6875 15.234375 7.390625 
Q 20.0625 6.109375 24.8125 6.109375 
Q 31.15625 6.109375 34.5625 8.28125 
Q 37.984375 10.453125 37.984375 14.40625 
Q 37.984375 18.0625 35.515625 20.015625 
Q 33.0625 21.96875 24.703125 23.78125 
L 21.578125 24.515625 
Q 13.234375 26.265625 9.515625 29.90625 
Q 5.8125 33.546875 5.8125 39.890625 
Q 5.8125 47.609375 11.28125 51.796875 
Q 16.75 56 26.8125 56 
Q 31.78125 56 36.171875 55.265625 
Q 40.578125 54.546875 44.28125 53.078125 
z
" id="DejaVuSans-73"/>
     </defs>
     <g transform="translate(19.070312 213.503781)rotate(-90)scale(0.1 -0.1)">
      <use xlink:href="#DejaVuSans-41"/>
      <use x="68.330078" xlink:href="#DejaVuSans-76"/>
      <use x="127.509766" xlink:href="#DejaVuSans-65"/>
      <use x="189.033203" xlink:href="#DejaVuSans-72"/>
      <use x="230.146484" xlink:href="#DejaVuSans-61"/>
      <use x="291.425781" xlink:href="#DejaVuSans-67"/>
      <use x="354.902344" xlink:href="#DejaVuSans-65"/>
      <use x="416.425781" xlink:href="#DejaVuSans-20"/>
      <use x="448.212891" xlink:href="#DejaVuSans-66"/>
      <use x="483.417969" xlink:href="#DejaVuSans-69"/>
      <use x="511.201172" xlink:href="#DejaVuSans-74"/>
      <use x="550.410156" xlink:href="#DejaVuSans-6e"/>
      <use x="613.789062" xlink:href="#DejaVuSans-65"/>
      <use x="675.3125" xlink:href="#DejaVuSans-73"/>
      <use x="727.412109" xlink:href="#DejaVuSans-73"/>
     </g>
    </g>
   </g>
   <g id="line2d_12">
    <path clip-path="url(#pb78d732e4a)" d="M 73.832727 53.963092 
L 74.148693 99.08691 
L 74.464658 116.645663 
L 74.938607 129.981142 
L 75.570537 141.456731 
L 76.360451 151.443333 
L 77.782296 163.550532 
L 78.888175 170.921105 
L 79.678089 175.457049 
L 79.836072 175.977567 
L 80.468003 179.215351 
L 81.573882 184.464432 
L 82.205813 187.8151 
L 83.153709 191.846652 
L 83.78564 193.995021 
L 85.523451 200.222425 
L 85.681433 200.561971 
L 85.997399 201.638844 
L 86.945295 204.107945 
L 87.103278 204.315794 
L 88.051175 208.323157 
L 88.36714 208.970893 
L 88.683106 209.909797 
L 89.315036 211.503604 
L 89.788985 212.685296 
L 90.262933 213.488023 
L 90.736881 214.776328 
L 90.894864 214.891899 
L 91.210829 215.596973 
L 91.368812 215.779736 
L 91.84276 216.904092 
L 92.474691 218.152081 
L 92.632674 218.274819 
L 92.94864 219.015729 
L 93.264605 219.521017 
L 94.212502 221.149764 
L 94.370484 221.736579 
L 94.528467 221.710597 
L 96.266277 224.399195 
L 96.42426 224.477138 
L 96.740226 225.099789 
L 96.898208 223.243483 
L 97.372157 225.761859 
L 97.688122 226.819918 
L 98.16207 228.149434 
L 98.320053 228.488084 
L 98.478036 229.110735 
L 98.636019 229.019353 
L 98.951984 229.719948 
L 99.109967 230.072932 
L 99.26795 222.117336 
L 99.583915 227.955024 
L 100.057863 231.929238 
L 100.689794 235.178669 
L 102.111639 239.02029 
L 102.427605 239.344606 
L 102.74357 240.072077 
L 102.901553 240.177794 
L 103.691466 241.823563 
L 103.849449 241.845064 
L 104.165415 242.25897 
L 104.639363 242.844889 
L 105.113311 243.334051 
L 105.745242 243.853673 
L 106.535156 244.657296 
L 106.693139 244.627731 
L 107.009104 245.184085 
L 107.167087 245.351619 
L 107.32507 245.264716 
L 107.641035 245.477941 
L 107.799018 245.41254 
L 108.114983 246.242144 
L 110.010776 247.823408 
L 110.168759 247.573452 
L 110.642707 248.044695 
L 110.958673 248.236418 
L 111.274638 248.584923 
L 112.064552 249.187864 
L 112.222535 248.984495 
L 112.380518 249.126943 
L 112.696483 249.582957 
L 113.802362 249.996863 
L 114.118328 250.199336 
L 114.276311 250.142894 
L 115.224207 250.836321 
L 115.38219 251.051337 
L 115.540173 250.985041 
L 116.014121 251.398947 
L 116.172104 251.214391 
L 116.646052 251.63636 
L 117.12 251.732222 
L 117.277983 251.883629 
L 117.435965 251.777913 
L 117.593948 252.059225 
L 117.909914 251.912298 
L 118.067896 252.086998 
L 118.225879 247.221363 
L 118.699827 250.455564 
L 119.331758 252.422961 
L 119.489741 252.487466 
L 120.121672 253.486395 
L 120.753603 254.115317 
L 121.385534 254.548933 
L 121.543517 254.532807 
L 122.017465 254.942233 
L 122.175448 254.87952 
L 122.333431 244.030166 
L 122.649396 249.043624 
L 123.123344 252.876287 
L 123.597293 254.655545 
L 123.755275 255.040782 
L 123.913258 251.33713 
L 124.387206 254.577602 
L 124.861155 256.11855 
L 125.17712 256.868419 
L 125.335103 256.785996 
L 125.651068 257.65054 
L 125.967034 257.901392 
L 126.282999 258.495374 
L 126.440982 258.80446 
L 126.756948 258.954971 
L 126.91493 259.234492 
L 127.072913 259.275704 
L 127.230896 259.59554 
L 127.546861 259.511325 
L 127.862827 259.908209 
L 128.494758 260.186834 
L 128.810723 260.597157 
L 128.968706 260.579239 
L 129.126689 260.747668 
L 129.284672 260.684059 
L 129.442654 260.775441 
L 129.600637 261.116779 
L 129.75862 260.961788 
L 130.232568 261.347921 
L 130.390551 261.230558 
L 130.706516 261.426761 
L 130.864499 261.784225 
L 131.022482 261.494849 
L 131.180464 261.75466 
L 131.338447 261.659695 
L 131.49643 261.861272 
L 131.812395 261.750181 
L 132.286344 262.317286 
L 132.444326 262.328932 
L 132.602309 262.461526 
L 132.760292 262.446295 
L 132.918275 262.608453 
L 133.076257 262.567242 
L 133.23424 262.347746 
L 133.392223 262.870056 
L 133.708188 262.63533 
L 133.866171 263.025943 
L 134.498102 262.906788 
L 134.814068 263.121804 
L 135.130033 263.472101 
L 135.288016 263.269628 
L 135.761964 263.548253 
L 135.919947 263.437161 
L 136.235912 263.591256 
L 136.393895 263.596631 
L 136.709861 263.736392 
L 136.867843 253.224792 
L 137.025826 256.28698 
L 137.183809 248.127118 
L 137.657757 255.710916 
L 138.131705 258.67993 
L 138.605654 260.310469 
L 138.921619 261.175013 
L 139.079602 261.388237 
L 139.395567 262.199027 
L 139.55355 262.350434 
L 140.185481 263.491811 
L 140.343464 263.496291 
L 140.501447 263.756998 
L 140.659429 263.782979 
L 140.817412 264.139547 
L 140.975395 258.015172 
L 141.449343 262.334308 
L 141.607326 262.770611 
L 141.923291 264.190613 
L 142.555222 265.282716 
L 142.713205 265.516546 
L 142.871188 265.436811 
L 143.029171 265.971664 
L 143.503119 266.360484 
L 143.819084 266.767223 
L 144.13505 267.085268 
L 145.082946 267.696272 
L 145.240929 267.715086 
L 145.398912 268.05732 
L 145.556894 267.98744 
L 146.188825 268.473018 
L 146.662774 268.453308 
L 146.978739 268.820627 
L 147.136722 268.928135 
L 147.294705 268.670116 
L 147.452687 269.02758 
L 147.61067 269.019517 
L 147.926636 269.110003 
L 148.242601 269.173612 
L 148.400584 266.933861 
L 148.716549 267.988336 
L 149.032515 268.567983 
L 149.506463 268.795542 
L 150.138394 269.432527 
L 150.296377 269.307101 
L 150.45436 269.559745 
L 150.928308 269.56512 
L 151.244273 269.876894 
L 151.402256 269.756843 
L 151.560239 270.121475 
L 151.718222 265.167145 
L 152.034187 267.317306 
L 152.350153 268.59486 
L 152.508135 268.757914 
L 152.824101 269.543619 
L 152.982084 269.591997 
L 153.456032 270.112515 
L 153.614015 270.246005 
L 153.771997 270.151039 
L 154.245946 270.807734 
L 154.403928 270.698434 
L 154.561911 270.770106 
L 155.035859 271.22164 
L 155.351825 271.200139 
L 155.66779 271.683029 
L 155.825773 271.575521 
L 155.983756 271.699155 
L 156.299721 271.708114 
L 156.457704 271.825477 
L 156.615687 271.786058 
L 156.77367 272.054828 
L 157.247618 271.979572 
L 157.563583 271.846083 
L 158.195514 272.17667 
L 158.51148 272.145314 
L 158.669463 272.34062 
L 158.827445 272.277011 
L 158.985428 272.541302 
L 159.143411 272.576242 
L 159.301393 272.77334 
L 159.459376 272.525175 
L 160.091307 272.784987 
L 160.24929 272.526071 
L 160.407273 272.622829 
L 160.565255 272.588784 
L 161.197186 272.922955 
L 161.513152 272.741983 
L 161.829117 272.815447 
L 161.9871 273.269669 
L 162.145083 273.050173 
L 162.461048 273.169328 
L 162.777014 273.224874 
L 163.250962 273.394199 
L 163.408945 273.378969 
L 163.566928 273.241 
L 163.72491 273.259814 
L 164.040876 273.65401 
L 164.198859 273.546502 
L 164.356841 273.672824 
L 164.514824 273.586817 
L 164.672807 273.748975 
L 164.83079 273.558149 
L 164.988772 273.60384 
L 165.146755 273.806313 
L 165.620703 273.83319 
L 165.778686 273.929051 
L 165.936669 273.665657 
L 166.094652 274.080459 
L 166.252634 273.850212 
L 166.410617 273.895903 
L 166.726583 273.845733 
L 166.884565 273.998932 
L 167.358514 273.903966 
L 167.516496 274.181695 
L 167.674479 274.075979 
L 167.990445 274.200509 
L 168.30641 273.923676 
L 168.622376 274.067916 
L 168.780358 273.952345 
L 169.096324 274.079563 
L 169.254307 273.941594 
L 169.886238 274.262326 
L 170.04422 274.097481 
L 170.202203 274.225594 
L 170.676151 274.163777 
L 170.834134 274.436131 
L 170.992117 274.139588 
L 171.466065 274.367147 
L 172.255979 274.233658 
L 172.413962 274.414629 
L 172.571944 274.289203 
L 172.729927 274.42986 
L 173.203875 274.377898 
L 173.361858 274.430756 
L 173.519841 274.700422 
L 173.835806 274.611728 
L 173.993789 274.747009 
L 174.309754 274.799867 
L 174.62572 274.78374 
L 174.783703 274.595601 
L 175.099668 274.930668 
L 175.415634 274.841078 
L 175.889582 275.047135 
L 176.047565 269.856288 
L 176.521513 272.731233 
L 176.837478 273.413013 
L 176.995461 273.407637 
L 177.469409 274.273077 
L 177.785375 274.524825 
L 177.943358 274.562453 
L 178.10134 274.975463 
L 178.259323 274.778365 
L 178.417306 275.164498 
L 178.733271 275.171665 
L 179.049237 275.100889 
L 179.365202 275.560486 
L 179.523185 275.414454 
L 179.839151 275.701143 
L 180.155116 275.59453 
L 180.471082 275.923326 
L 180.629064 275.629471 
L 180.787047 275.737874 
L 180.94503 275.704726 
L 181.103013 275.805963 
L 181.418978 275.675161 
L 181.734944 276.043377 
L 181.892926 276.063086 
L 182.050909 275.85255 
L 182.208892 276.043377 
L 182.366875 275.974392 
L 182.524857 276.278998 
L 182.840823 276.192096 
L 182.998806 276.207326 
L 183.314771 276.571062 
L 183.472754 276.466242 
L 183.630737 276.532538 
L 183.788719 276.786974 
L 183.946702 276.453699 
L 184.262668 276.475201 
L 184.42065 276.368588 
L 184.736616 276.623024 
L 184.894599 276.485055 
L 185.052581 276.5845 
L 185.210564 276.521787 
L 185.368547 276.585396 
L 185.52653 276.457283 
L 185.842495 276.601522 
L 186.000478 276.437573 
L 186.158461 265.779941 
L 186.316443 265.271069 
L 186.632409 269.658294 
L 186.948374 271.791433 
L 187.896271 274.199613 
L 188.212236 274.693255 
L 188.528202 275.138517 
L 188.844167 275.759376 
L 189.318115 276.033522 
L 189.476098 276.190304 
L 189.634081 276.076525 
L 190.108029 276.476096 
L 190.266012 276.430406 
L 190.581977 276.701863 
L 190.73996 276.533434 
L 190.897943 276.776223 
L 191.055926 276.685737 
L 191.845839 277.291366 
L 192.161805 277.097851 
L 192.635753 277.317347 
L 192.793736 277.207151 
L 192.951719 277.433814 
L 193.109701 277.433814 
L 193.267684 277.302117 
L 193.425667 277.374685 
L 193.58365 277.609411 
L 193.741632 277.410521 
L 193.899615 277.552073 
L 194.215581 277.418584 
L 194.373563 277.38006 
L 194.847512 277.7429 
L 195.32146 277.663165 
L 195.795408 278.051985 
L 195.953391 278.108427 
L 196.111374 277.939102 
L 196.427339 278.337778 
L 196.585322 278.028692 
L 196.901287 278.180099 
L 197.05927 278.001815 
L 197.217253 278.337778 
L 197.375236 278.120074 
L 197.691201 278.233853 
L 198.007167 278.189058 
L 198.165149 278.022421 
L 198.323132 278.179203 
L 198.481115 278.06184 
L 198.79708 278.310005 
L 199.586994 278.441702 
L 199.90296 278.254459 
L 200.376908 278.628049 
L 200.534891 278.470371 
L 200.692873 278.540251 
L 200.850856 278.352112 
L 201.166821 278.473059 
L 202.114718 278.706889 
L 202.272701 278.544731 
L 202.588666 278.804542 
L 202.904632 278.978346 
L 203.062614 273.404054 
L 203.37858 275.816714 
L 203.536563 266.965217 
L 203.852528 271.880127 
L 204.168494 274.213052 
L 204.800425 276.56927 
L 205.432356 277.534155 
L 206.222269 278.368238 
L 207.486131 279.299975 
L 207.802097 279.216656 
L 207.96008 279.566953 
L 208.276045 279.432568 
L 208.434028 279.783761 
L 208.592011 276.866709 
L 209.065959 278.737349 
L 209.539907 279.597414 
L 209.69789 279.509615 
L 209.855873 279.869767 
L 210.013855 279.70313 
L 210.171838 278.261626 
L 210.487804 278.999848 
L 211.119735 279.813326 
L 211.277717 279.879622 
L 211.751666 280.467333 
L 212.067631 280.401036 
L 212.225614 280.669806 
L 212.541579 280.65816 
L 212.857545 280.755813 
L 213.17351 280.938577 
L 213.331493 273.623549 
L 213.805441 277.756338 
L 214.27939 279.174549 
L 214.437372 279.560682 
L 214.595355 275.338303 
L 215.069303 278.126345 
L 215.385269 279.084063 
L 215.543251 273.47483 
L 215.859217 276.812059 
L 216.0172 277.493839 
L 216.175182 268.160348 
L 216.491148 273.4157 
L 216.965096 276.957195 
L 217.123079 277.458003 
L 217.281062 278.393323 
L 217.597027 278.797375 
L 217.75501 279.18082 
L 217.912993 279.213072 
L 218.228958 280.018487 
L 218.386941 279.959357 
L 219.334837 280.733415 
L 219.49282 280.72356 
L 219.650803 281.075649 
L 219.808786 280.923346 
L 220.124751 281.213618 
L 220.282734 281.176886 
L 220.756682 281.596168 
L 220.914665 281.450136 
L 222.178527 281.919588 
L 222.33651 281.793266 
L 222.494492 282.086225 
L 222.810458 282.020824 
L 222.968441 281.882856 
L 223.284406 282.114894 
L 223.442389 282.444585 
L 223.600372 282.460711 
L 223.758354 282.319159 
L 224.07432 282.397998 
L 224.232303 282.300345 
L 224.390285 282.389935 
L 224.548268 282.3102 
L 224.706251 282.673936 
L 224.864234 282.386352 
L 225.022216 282.475942 
L 225.180199 282.422188 
L 225.338182 282.612119 
L 226.128096 282.330806 
L 226.444061 282.608535 
L 226.602044 282.662289 
L 226.760027 282.574491 
L 226.918009 282.61839 
L 227.233975 282.810113 
L 227.391958 282.726794 
L 227.54994 282.974958 
L 227.865906 282.927476 
L 228.023889 283.063652 
L 228.339854 282.677519 
L 228.497837 282.87193 
L 228.65582 282.713355 
L 228.971785 282.97675 
L 229.919681 283.144284 
L 230.235647 282.803841 
L 230.39363 283.050214 
L 231.341526 283.050214 
L 231.499509 283.355716 
L 231.657492 283.376322 
L 231.815474 283.181015 
L 231.973457 283.358404 
L 232.13144 283.219539 
L 232.289423 283.306442 
L 232.447405 283.164889 
L 232.605388 283.279564 
L 232.763371 283.544751 
L 233.395302 283.102176 
L 233.553285 283.198038 
L 233.711267 271.412467 
L 234.185216 278.128137 
L 234.501181 279.864392 
L 234.817147 281.037126 
L 235.133112 281.540622 
L 235.291095 278.902195 
L 235.60706 280.771043 
L 235.923026 281.507473 
L 236.081009 281.949152 
L 236.238991 282.016345 
L 237.186888 283.350341 
L 237.344871 283.524145 
L 237.502853 283.502644 
L 237.976802 284.011515 
L 238.292767 284.217572 
L 238.45075 284.035704 
L 238.608733 284.20503 
L 238.766715 284.168298 
L 238.924698 284.283869 
L 239.082681 284.221156 
L 239.240664 284.426317 
L 239.398646 284.365396 
L 239.714612 284.629686 
L 240.030577 284.704942 
L 240.18856 284.880539 
L 240.346543 284.808867 
L 240.504526 284.866204 
L 240.662508 284.743466 
L 241.136457 284.893081 
L 241.294439 285.188728 
L 241.452422 285.121536 
L 241.610405 285.35447 
L 242.242336 285.232627 
L 242.716284 285.291757 
L 242.874267 285.090179 
L 243.03225 285.243378 
L 243.190232 285.201271 
L 243.822163 285.421662 
L 243.980146 285.285486 
L 244.138129 285.306091 
L 244.296111 285.488855 
L 244.454094 285.29982 
L 244.612077 285.524691 
L 244.928042 285.407328 
L 245.086025 285.593675 
L 245.401991 285.543505 
L 246.191904 285.600843 
L 246.349887 285.628615 
L 246.50787 285.520212 
L 246.823835 285.840048 
L 246.981818 285.801524 
L 247.139801 285.915304 
L 247.297784 285.737019 
L 247.771732 285.91172 
L 248.087697 285.921575 
L 248.24568 282.898807 
L 248.561646 284.029433 
L 248.719628 277.461587 
L 249.035594 280.863321 
L 249.509542 283.223123 
L 249.98349 284.311642 
L 250.141473 284.454986 
L 250.299456 284.408399 
L 250.457439 284.88681 
L 250.615421 277.177586 
L 250.931387 280.654576 
L 251.405335 283.078883 
L 251.721301 283.977471 
L 252.037266 284.411983 
L 252.511214 284.990734 
L 252.82718 285.083908 
L 252.985163 285.320426 
L 253.143145 273.078842 
L 253.301128 276.316626 
L 253.459111 272.442753 
L 253.775076 277.363934 
L 254.091042 279.849162 
L 254.56499 281.782515 
L 255.354904 283.407678 
L 255.986835 284.289244 
L 256.144818 284.098418 
L 256.618766 284.599226 
L 256.776749 284.500677 
L 257.250697 285.071365 
L 257.408679 284.924438 
L 257.566662 285.057031 
L 257.724645 284.829472 
L 258.04061 285.451227 
L 258.356576 285.635783 
L 258.672541 276.567478 
L 259.14649 281.860458 
L 260.252369 284.803491 
L 260.410352 284.988943 
L 260.568334 284.901144 
L 260.8843 285.601738 
L 261.042283 285.479 
L 261.832196 286.190345 
L 261.990179 286.201096 
L 262.148162 286.410737 
L 262.306145 286.354295 
L 262.464127 286.594396 
L 262.62211 286.460011 
L 263.412024 286.715343 
L 263.727989 286.714447 
L 263.885972 287.034283 
L 264.201938 286.843457 
L 264.35992 286.746699 
L 264.517903 286.850624 
L 264.675886 287.133728 
L 264.833869 287.046826 
L 264.991851 287.275281 
L 265.149834 287.151646 
L 265.307817 287.338889 
L 265.4658 287.328139 
L 265.623782 287.534196 
L 265.939748 287.453565 
L 266.097731 287.579887 
L 266.255713 287.461628 
L 266.413696 287.631849 
L 266.729662 287.425792 
L 266.887644 287.609451 
L 267.045627 287.430271 
L 267.361593 287.916745 
L 267.519575 287.5333 
L 267.677558 287.729502 
L 267.993524 287.780568 
L 268.151506 287.892556 
L 268.309489 287.787736 
L 268.625455 287.948102 
L 268.783437 287.978562 
L 269.099403 287.720543 
L 269.415368 287.910474 
L 269.889317 287.96602 
L 270.047299 287.874638 
L 271.153179 288.168493 
L 271.311161 287.893452 
L 271.469144 288.000064 
L 271.627127 287.949894 
L 271.943092 288.036796 
L 272.259058 287.96154 
L 272.41704 280.323989 
L 272.733006 283.46412 
L 273.206954 285.975329 
L 273.996868 287.154334 
L 274.154851 287.123873 
L 274.470816 287.380997 
L 274.786782 287.85224 
L 275.102747 287.989313 
L 275.26073 288.336027 
L 275.418713 288.376342 
L 275.576695 288.183724 
L 275.892661 288.411282 
L 276.050644 288.222247 
L 276.366609 288.644216 
L 276.99854 288.852961 
L 277.156523 288.779497 
L 277.314506 288.970324 
L 277.630471 288.947031 
L 278.104419 289.10023 
L 278.262402 288.835043 
L 278.420385 288.928217 
L 278.578368 288.871775 
L 278.73635 289.109189 
L 278.894333 289.036621 
L 279.052316 289.16563 
L 279.210299 288.979283 
L 279.368281 289.213113 
L 279.526264 289.005264 
L 279.684247 289.162943 
L 280.000212 289.153088 
L 280.158195 289.319725 
L 280.316178 289.088583 
L 280.632143 289.379751 
L 280.790126 289.174589 
L 281.106092 289.373479 
L 281.264074 289.468445 
L 281.738023 289.325997 
L 281.896005 289.449631 
L 282.053988 289.333164 
L 282.843902 289.361833 
L 283.001885 289.351082 
L 283.159867 289.483675 
L 283.31785 289.389606 
L 283.475833 289.557139 
L 283.633816 289.421858 
L 283.949781 289.570577 
L 284.107764 279.693275 
L 284.423729 284.210405 
L 284.897678 286.643671 
L 285.687591 288.270626 
L 286.003557 288.389781 
L 286.161539 288.640633 
L 286.477505 288.679157 
L 286.79347 289.055435 
L 286.951453 288.962261 
L 287.425401 289.105605 
L 287.741367 289.38871 
L 287.89935 289.312558 
L 288.057332 289.755133 
L 288.215315 289.505177 
L 288.373298 289.524887 
L 288.689263 289.848307 
L 289.005229 289.63777 
L 289.321194 290.016736 
L 289.479177 289.925354 
L 289.63716 290.005985 
L 289.795143 289.902957 
L 289.953125 290.10543 
L 290.111108 290.016736 
L 290.269091 290.161872 
L 290.427074 289.954919 
L 290.743039 290.2649 
L 290.901022 290.226377 
L 291.059005 290.003297 
L 291.848918 290.271172 
L 292.006901 283.120094 
L 292.322867 286.152717 
L 292.796815 288.064569 
L 293.270763 288.864608 
L 293.744711 289.550868 
L 293.902694 289.463965 
L 294.060677 289.763196 
L 294.21866 281.700988 
L 294.534625 285.077637 
L 295.008573 287.484025 
L 295.482522 288.726639 
L 295.640504 288.625403 
L 295.798487 289.096646 
L 295.95647 289.106501 
L 296.114453 289.452319 
L 296.430418 289.65748 
L 296.588401 289.824117 
L 296.746384 289.529366 
L 296.904366 289.911916 
L 297.220332 289.83666 
L 297.378315 290.05526 
L 297.852263 289.951335 
L 298.010246 290.274755 
L 298.168228 290.181582 
L 298.326211 290.380472 
L 298.484194 290.278339 
L 298.958142 290.656409 
L 299.274107 290.382263 
L 299.43209 290.77198 
L 299.590073 290.537254 
L 300.064021 290.700308 
L 300.695952 290.62774 
L 300.853935 290.817671 
L 301.327883 290.878592 
L 301.485866 290.57309 
L 301.801831 290.895614 
L 301.959814 290.79169 
L 302.117797 290.974454 
L 302.27578 290.874113 
L 302.433762 290.957431 
L 302.591745 290.847236 
L 302.749728 291.182302 
L 302.907711 290.935034 
L 303.065693 291.137507 
L 303.223676 290.918908 
L 303.381659 291.124069 
L 303.539642 291.042542 
L 303.855607 291.179615 
L 304.01359 284.234594 
L 304.487538 288.146992 
L 304.961486 289.379751 
L 305.119469 289.38871 
L 305.593417 290.117973 
L 305.7514 283.648675 
L 306.067366 286.577374 
L 306.541314 288.709617 
L 306.857279 288.939864 
L 307.015262 289.40394 
L 307.331228 289.696899 
L 308.279124 290.462894 
L 308.437107 290.410036 
L 308.59509 290.595488 
L 308.753072 290.568611 
L 308.911055 290.685974 
L 309.069038 290.626844 
L 309.227021 290.807816 
L 309.542986 290.575778 
L 309.700969 290.958327 
L 310.016934 290.885759 
L 310.3329 290.875009 
L 310.490883 290.859778 
L 310.648865 291.04075 
L 310.806848 290.988788 
L 310.964831 291.114214 
L 311.122814 291.034479 
L 311.280796 291.194845 
L 311.596762 291.121381 
L 312.386676 291.330126 
L 312.544658 291.553205 
L 312.860624 291.533495 
L 313.018607 291.213659 
L 313.176589 291.408965 
L 313.334572 291.391047 
L 313.650537 291.641003 
L 313.80852 291.680423 
L 313.966503 291.502139 
L 314.282468 291.72253 
L 314.440451 291.56754 
L 314.598434 291.623085 
L 314.756417 285.818546 
L 315.072382 288.579712 
L 315.54633 290.117077 
L 316.178261 290.720914 
L 316.336244 291.0954 
L 316.968175 291.314 
L 317.284141 291.27906 
L 317.916072 291.830038 
L 318.074054 291.662505 
L 318.232037 291.884688 
L 318.705985 291.907086 
L 319.179934 292.012802 
L 319.337916 292.263654 
L 319.653882 292.020865 
L 319.811865 292.022657 
L 319.969847 285.728956 
L 320.285813 288.6478 
L 320.601778 289.923562 
L 321.391692 291.448385 
L 321.549675 291.429571 
L 321.86564 291.741344 
L 322.023623 291.663401 
L 322.339589 291.938442 
L 322.813537 292.017282 
L 323.129502 292.317408 
L 323.287485 292.226922 
L 323.445468 292.51809 
L 323.603451 292.546759 
L 323.761433 292.327263 
L 324.393364 292.64262 
L 324.551347 292.381913 
L 324.70933 292.672185 
L 324.867313 292.553926 
L 325.025295 292.629182 
L 325.183278 292.84151 
L 325.499244 292.717876 
L 325.815209 292.909598 
L 326.44714 292.73669 
L 326.605123 292.815529 
L 327.395036 292.699062 
L 327.711002 292.883617 
L 328.026967 292.894368 
L 328.18495 292.851365 
L 328.342933 292.937371 
L 328.500916 292.706229 
L 328.816881 292.838822 
L 328.974864 292.614847 
L 329.132847 292.850469 
L 329.290829 292.708917 
L 329.448812 292.962457 
L 329.606795 292.993813 
L 329.764778 293.138949 
L 329.92276 292.957081 
L 330.080743 287.804758 
L 330.554691 290.75675 
L 331.344605 292.062077 
L 331.660571 292.239465 
L 331.818553 292.580803 
L 331.976536 292.441043 
L 332.292502 292.672185 
L 332.450484 292.598721 
L 332.608467 292.681144 
L 332.76645 291.245911 
L 332.924433 291.787035 
L 333.240398 292.217963 
L 333.398381 292.511819 
L 333.714346 292.507339 
L 333.872329 292.99023 
L 334.188295 292.899744 
L 334.346277 293.203454 
L 334.662243 292.881826 
L 334.820226 293.121031 
L 336.400053 293.350382 
L 336.558036 293.301107 
L 336.716019 293.461473 
L 337.031984 293.456098 
L 337.189967 293.190911 
L 337.505932 293.3683 
L 337.663915 293.422054 
L 337.821898 293.330672 
L 337.979881 293.583316 
L 338.453829 293.271542 
L 338.611812 293.605713 
L 338.769794 293.499997 
L 338.927777 293.775934 
L 339.401725 293.61736 
L 339.717691 293.621839 
L 339.875674 293.70695 
L 340.033656 293.553751 
L 340.349622 293.607505 
L 340.507605 293.416678 
L 340.82357 293.721284 
L 341.139536 293.743682 
L 341.297518 293.840439 
L 341.455501 293.592275 
L 341.771466 293.84671 
L 342.087432 293.594066 
L 342.403397 293.629007 
L 342.719363 293.709638 
L 342.877346 293.907632 
L 343.035328 293.553751 
L 343.193311 293.909423 
L 343.351294 293.737411 
L 343.509277 294.026786 
L 343.825242 293.72218 
L 344.29919 293.806395 
L 344.457173 293.495517 
L 344.931121 293.821625 
L 345.563052 293.774142 
L 345.879018 293.714117 
L 346.037001 293.947051 
L 346.194983 293.717701 
L 346.668932 293.952427 
L 346.826914 293.797436 
L 346.984897 294.10025 
L 347.300863 293.841335 
L 347.774811 293.956906 
L 347.932794 293.841335 
L 348.248759 293.825209 
L 348.406742 293.712325 
L 348.88069 293.935405 
L 349.038673 293.74189 
L 349.196656 293.90136 
L 349.354638 293.747265 
L 349.828587 294.072477 
L 350.144552 293.935405 
L 350.460518 293.952427 
L 350.934466 293.928237 
L 351.092449 293.819833 
L 351.408414 294.144149 
L 351.566397 293.875379 
L 351.72438 294.024995 
L 351.882362 293.822521 
L 352.198328 294.190736 
L 352.356311 294.15938 
L 352.514293 294.255241 
L 352.988242 293.941676 
L 353.146224 294.072477 
L 353.304207 293.898673 
L 353.46219 293.890609 
L 353.620173 294.090395 
L 353.778155 288.516103 
L 353.936138 289.979108 
L 354.094121 288.663926 
L 354.410086 290.723601 
L 354.726052 291.955465 
L 355.2 292.559301 
L 355.357983 292.503756 
L 355.515965 292.908703 
L 355.673948 292.897952 
L 355.831931 293.187328 
L 355.989914 293.188224 
L 356.147896 293.366508 
L 356.305879 293.336943 
L 356.621845 293.635278 
L 356.779827 293.618256 
L 356.93781 293.476703 
L 357.095793 293.787581 
L 357.253776 293.690824 
L 357.411758 293.795644 
L 357.885707 293.731139 
L 358.043689 294.040225 
L 358.201672 293.930925 
L 358.517638 294.173714 
L 358.67562 293.973032 
L 358.991586 294.197007 
L 359.149569 293.984679 
L 359.465534 294.186257 
L 359.7815 294.233739 
L 360.571413 294.276743 
L 360.729396 294.312579 
L 360.887379 294.050976 
L 361.203344 294.369916 
L 361.51931 294.036641 
L 361.835275 294.316162 
L 361.993258 294.131607 
L 362.151241 294.390522 
L 362.309224 294.210446 
L 362.783172 294.553576 
L 362.941155 294.564327 
L 363.099137 294.357374 
L 363.415103 294.387834 
L 363.731068 294.185361 
L 363.889051 294.075165 
L 364.047034 294.31885 
L 364.205017 294.183569 
L 364.362999 294.39321 
L 364.99493 294.424566 
L 365.310896 294.518636 
L 365.468879 290.923387 
L 365.942827 292.872867 
L 366.10081 293.047567 
L 366.258792 293.52777 
L 366.574758 293.525978 
L 366.890723 294.052767 
L 367.048706 293.969449 
L 367.206689 294.020515 
L 367.364672 293.897777 
L 367.680637 294.033954 
L 367.83862 294.018723 
L 368.154585 294.202383 
L 368.312568 294.114585 
L 368.786516 294.277638 
L 368.944499 294.144149 
L 369.102482 294.425462 
L 369.260464 294.440692 
L 369.418447 294.31437 
L 369.734413 294.627936 
L 369.892395 294.616289 
L 370.050378 294.378875 
L 370.208361 294.576869 
L 370.524326 294.58762 
L 370.682309 294.651229 
L 370.840292 294.86087 
L 370.998275 294.685273 
L 371.31424 294.83668 
L 371.472223 294.704983 
L 371.630206 294.784718 
L 371.946171 294.6575 
L 372.262137 294.704087 
L 372.420119 294.663772 
L 372.578102 294.865349 
L 372.736085 294.687961 
L 372.894068 294.885955 
L 373.210033 294.721109 
L 373.683981 294.816971 
L 373.841964 294.685273 
L 374.15793 294.910144 
L 374.315912 294.840264 
L 374.473895 294.952252 
L 374.789861 294.784718 
L 374.947843 294.842056 
L 375.105826 294.698712 
L 375.263809 294.923583 
L 375.421792 294.733652 
L 375.579774 294.875204 
L 375.737757 294.722005 
L 376.053723 294.899393 
L 376.211705 294.66198 
L 376.369688 294.812491 
L 376.527671 294.760529 
L 376.685654 294.87162 
L 377.001619 294.798157 
L 377.317585 294.760529 
L 377.475567 294.698712 
L 377.791533 294.850119 
L 377.949516 295.041842 
L 378.423464 294.782926 
L 378.581447 295.062447 
L 378.739429 295.11441 
L 378.897412 294.977337 
L 379.055395 295.007797 
L 379.213378 294.746194 
L 379.687326 294.988983 
L 379.845309 294.789198 
L 380.003291 295.101867 
L 380.161274 294.983608 
L 380.47724 295.104555 
L 381.109171 295.204 
L 381.267153 295.009589 
L 381.425136 295.002422 
L 381.583119 295.235356 
L 382.21505 294.585828 
L 382.373033 294.816971 
L 382.846981 294.859078 
L 383.162946 295.128744 
L 383.320929 294.962106 
L 383.478912 295.230877 
L 383.636894 295.083053 
L 383.794877 295.292694 
L 383.95286 295.093804 
L 384.268825 295.206687 
L 384.426808 295.223709 
L 384.584791 295.355407 
L 384.742774 294.978233 
L 385.216722 295.288214 
L 385.374705 295.208479 
L 385.532687 295.301653 
L 385.69067 295.229085 
L 385.848653 294.988983 
L 386.006636 295.347344 
L 386.164618 295.229981 
L 386.322601 295.39841 
L 386.638567 295.326738 
L 386.796549 295.156517 
L 386.954532 295.224605 
L 387.270498 295.14487 
L 387.744446 295.18429 
L 388.53436 295.136807 
L 388.692342 295.132328 
L 388.850325 294.945084 
L 389.008308 295.193249 
L 389.166291 295.147558 
L 389.324273 295.34376 
L 389.640239 295.135911 
L 390.114187 295.143974 
L 390.430153 295.10993 
L 390.746118 295.206687 
L 391.062084 295.128744 
L 391.220066 295.281047 
L 392.483928 295.222813 
L 392.641911 295.419912 
L 392.957877 295.01586 
L 393.115859 295.470978 
L 393.431825 295.221022 
L 393.589808 295.424391 
L 393.74779 295.444997 
L 393.905773 295.247003 
L 394.063756 295.270296 
L 394.221739 295.169955 
L 394.379721 295.488 
L 394.537704 295.146662 
L 394.695687 295.135015 
L 395.169635 295.351823 
L 395.959549 295.315987 
L 396.117532 295.1601 
L 396.275514 295.233564 
L 396.433497 295.068719 
L 396.59148 295.322258 
L 397.223411 295.116201 
L 397.381393 295.316883 
L 397.539376 295.223709 
L 398.32929 295.391243 
L 398.487273 295.32853 
L 398.487273 295.32853 
" style="fill:none;stroke:#1f77b4;stroke-linecap:square;stroke-width:1.5;"/>
   </g>
   <g id="line2d_13">
    <path clip-path="url(#pb78d732e4a)" d="M 73.832727 53.568 
L 74.148693 99.520526 
L 74.464658 117.408971 
L 74.938607 130.388776 
L 75.72852 143.253011 
L 77.150365 158.321161 
L 78.098261 165.225866 
L 79.046158 171.150455 
L 81.573882 183.255862 
L 82.205813 185.802907 
L 82.363796 186.062718 
L 82.995727 188.433271 
L 83.153709 188.806861 
L 83.469675 190.041412 
L 84.575554 193.554238 
L 85.049502 194.962593 
L 85.365468 196.000046 
L 85.839416 197.26237 
L 85.997399 197.672692 
L 86.313364 198.676101 
L 86.945295 200.503738 
L 87.103278 200.674855 
L 87.735209 202.713028 
L 88.051175 203.257736 
L 88.683106 204.816603 
L 88.841088 205.423127 
L 88.999071 205.538698 
L 89.157054 205.820011 
L 89.473019 206.53494 
L 89.946967 207.626146 
L 90.420916 208.921618 
L 90.578898 209.000458 
L 90.894864 209.723449 
L 91.210829 210.284283 
L 91.368812 210.874681 
L 91.526795 211.014442 
L 93.106622 214.541602 
L 93.264605 215.149023 
L 93.422588 215.180379 
L 94.212502 216.62905 
L 94.68645 217.517783 
L 95.002415 217.953191 
L 95.476364 218.833861 
L 95.634346 218.89747 
L 96.108295 219.729762 
L 96.266277 220.235945 
L 96.42426 220.093497 
L 96.740226 220.64358 
L 97.214174 221.178433 
L 97.688122 222.219469 
L 98.478036 223.333073 
L 98.636019 223.703976 
L 98.794001 223.783711 
L 99.26795 224.447573 
L 99.425932 224.53358 
L 99.583915 225.002136 
L 99.741898 224.979738 
L 99.899881 225.154439 
L 100.215846 225.938352 
L 100.373829 225.869367 
L 101.00576 226.955199 
L 101.163743 226.840523 
L 101.637691 227.730153 
L 102.74357 228.932451 
L 102.901553 228.934243 
L 103.533484 229.892856 
L 103.691466 229.907191 
L 105.271294 231.706159 
L 105.429277 231.984784 
L 105.745242 232.033163 
L 105.903225 232.485592 
L 106.061208 232.487384 
L 107.167087 233.5329 
L 107.641035 233.901115 
L 107.957001 234.37415 
L 108.114983 234.440447 
L 108.272966 234.668006 
L 108.430949 234.504056 
L 108.746914 234.964549 
L 108.904897 235.29424 
L 109.378845 235.44296 
L 110.010776 236.302128 
L 110.484725 236.536854 
L 110.642707 236.630028 
L 110.80069 236.897902 
L 110.958673 236.832501 
L 111.116656 237.347644 
L 111.432621 237.257158 
L 112.064552 238.136932 
L 112.5385 238.491709 
L 112.854466 238.762271 
L 113.012449 238.953994 
L 113.170431 238.898448 
L 113.328414 239.161842 
L 113.486397 239.13407 
L 113.802362 239.65638 
L 113.960345 239.502285 
L 114.118328 239.624127 
L 114.276311 240.000405 
L 114.592276 240.059535 
L 114.750259 240.503901 
L 114.908242 240.378475 
L 115.224207 240.704583 
L 115.38219 241.021732 
L 115.540173 240.961706 
L 116.330086 241.91584 
L 116.488069 241.74114 
L 116.646052 241.936446 
L 116.804035 241.941822 
L 116.962017 242.287639 
L 117.12 242.115626 
L 117.593948 242.557305 
L 117.751931 242.725734 
L 117.909914 242.729318 
L 118.067896 231.509061 
L 118.383862 237.67644 
L 118.699827 240.725189 
L 119.331758 244.376879 
L 119.963689 246.086257 
L 120.59562 247.590474 
L 120.753603 247.687231 
L 120.911586 247.928228 
L 121.069569 248.50698 
L 121.227551 248.361844 
L 121.543517 249.034665 
L 121.7015 245.667872 
L 121.859482 239.300707 
L 122.175448 243.946847 
L 122.649396 247.2133 
L 123.43931 249.878604 
L 123.597293 249.946692 
L 123.913258 250.805861 
L 124.861155 252.435504 
L 125.019137 252.561826 
L 125.493086 253.442496 
L 125.651068 253.433537 
L 126.91493 254.272995 
L 127.072913 254.620605 
L 127.546861 254.64569 
L 128.02081 255.35166 
L 129.600637 256.193806 
L 130.074585 256.449138 
L 130.548534 256.547687 
L 130.706516 256.801227 
L 130.864499 256.792268 
L 131.022482 256.905151 
L 131.180464 256.828999 
L 131.49643 257.404168 
L 131.654413 257.302035 
L 131.812395 256.607712 
L 132.444326 257.3316 
L 132.602309 248.506084 
L 132.918275 252.545699 
L 133.23424 254.98882 
L 133.708188 256.842438 
L 134.340119 258.084156 
L 134.656085 258.399513 
L 135.130033 259.229117 
L 135.288016 259.148486 
L 135.603981 259.568663 
L 135.761964 259.875061 
L 135.919947 259.767553 
L 136.551878 260.475314 
L 136.867843 260.487857 
L 137.341792 260.881157 
L 137.499774 260.951037 
L 137.657757 261.172325 
L 137.81574 261.118571 
L 137.973723 261.436615 
L 138.289688 261.373007 
L 138.447671 261.614004 
L 138.763636 261.640881 
L 139.079602 261.745701 
L 139.395567 261.7896 
L 139.711533 262.11302 
L 140.185481 262.307431 
L 140.343464 262.28145 
L 140.659429 262.643393 
L 140.817412 262.620996 
L 140.975395 262.827949 
L 141.29136 262.750901 
L 141.449343 262.806447 
L 141.765309 262.745526 
L 142.713205 263.219457 
L 142.871188 263.108366 
L 143.029171 263.397742 
L 143.977067 263.275899 
L 144.13505 263.576026 
L 144.451015 263.48554 
L 144.608998 263.502562 
L 144.924964 263.765061 
L 145.082946 263.722953 
L 145.556894 263.93349 
L 145.714877 263.903029 
L 146.030843 264.229137 
L 146.662774 264.26139 
L 146.820756 264.49522 
L 146.978739 264.383232 
L 147.136722 264.583914 
L 147.294705 264.418172 
L 147.926636 264.458488 
L 148.084618 264.652898 
L 148.242601 264.502387 
L 148.400584 255.529944 
L 148.874532 260.791567 
L 149.190498 262.190964 
L 149.34848 258.598403 
L 149.664446 261.082735 
L 150.138394 263.139722 
L 150.296377 259.204032 
L 150.45436 259.154757 
L 150.770325 261.663278 
L 151.402256 264.059812 
L 152.350153 265.493253 
L 152.508135 265.51565 
L 152.982084 266.165178 
L 153.140066 266.547728 
L 153.456032 266.612232 
L 153.614015 266.557582 
L 153.771997 266.886378 
L 154.087963 267.024347 
L 154.245946 267.294013 
L 154.561911 267.227716 
L 154.719894 267.482152 
L 155.035859 267.535906 
L 155.351825 267.700751 
L 155.825773 268.240084 
L 156.141739 268.179162 
L 156.457704 268.486456 
L 156.615687 268.248147 
L 156.931652 268.487352 
L 157.089635 268.314443 
L 157.247618 261.438407 
L 157.563583 264.653794 
L 158.037532 266.627463 
L 158.51148 267.769736 
L 158.669463 267.915768 
L 158.827445 268.301005 
L 158.985428 263.969326 
L 159.459376 266.969697 
L 159.775342 267.906809 
L 159.933324 267.942645 
L 160.407273 268.881548 
L 160.723238 269.175404 
L 160.881221 269.282912 
L 161.039204 269.60006 
L 161.513152 269.767594 
L 161.9871 270.071304 
L 162.145083 270.327532 
L 162.303066 270.309614 
L 162.461048 270.433248 
L 162.777014 270.327532 
L 162.934997 270.552403 
L 163.092979 270.471772 
L 163.250962 270.824756 
L 163.408945 270.702914 
L 164.040876 270.990498 
L 164.198859 270.762939 
L 164.356841 270.82834 
L 164.514824 271.122195 
L 164.83079 271.149072 
L 165.462721 271.60419 
L 165.620703 271.341691 
L 165.778686 265.261215 
L 166.094652 267.974897 
L 166.410617 269.122545 
L 166.5686 255.5613 
L 167.042548 264.194197 
L 167.358514 266.58446 
L 167.516496 256.708053 
L 167.990445 264.843725 
L 168.464393 267.969522 
L 169.412289 270.613324 
L 169.570272 270.601677 
L 169.728255 270.98781 
L 169.728255 270.98781 
" style="fill:none;stroke:#ff7f0e;stroke-linecap:square;stroke-width:1.5;"/>
   </g>
   <g id="patch_3">
    <path d="M 57.6 307.584 
L 57.6 41.472 
" style="fill:none;stroke:#000000;stroke-linecap:square;stroke-linejoin:miter;stroke-width:0.8;"/>
   </g>
   <g id="patch_4">
    <path d="M 414.72 307.584 
L 414.72 41.472 
" style="fill:none;stroke:#000000;stroke-linecap:square;stroke-linejoin:miter;stroke-width:0.8;"/>
   </g>
   <g id="patch_5">
    <path d="M 57.6 307.584 
L 414.72 307.584 
" style="fill:none;stroke:#000000;stroke-linecap:square;stroke-linejoin:miter;stroke-width:0.8;"/>
   </g>
   <g id="patch_6">
    <path d="M 57.6 41.472 
L 414.72 41.472 
" style="fill:none;stroke:#000000;stroke-linecap:square;stroke-linejoin:miter;stroke-width:0.8;"/>
   </g>
   <g id="text_14">
    <!-- Average fitness over 30 seconds for29cities -->
    <defs>
     <path d="M 48.78125 52.59375 
L 48.78125 44.1875 
Q 44.96875 46.296875 41.140625 47.34375 
Q 37.3125 48.390625 33.40625 48.390625 
Q 24.65625 48.390625 19.8125 42.84375 
Q 14.984375 37.3125 14.984375 27.296875 
Q 14.984375 17.28125 19.8125 11.734375 
Q 24.65625 6.203125 33.40625 6.203125 
Q 37.3125 6.203125 41.140625 7.25 
Q 44.96875 8.296875 48.78125 10.40625 
L 48.78125 2.09375 
Q 45.015625 0.34375 40.984375 -0.53125 
Q 36.96875 -1.421875 32.421875 -1.421875 
Q 20.0625 -1.421875 12.78125 6.34375 
Q 5.515625 14.109375 5.515625 27.296875 
Q 5.515625 40.671875 12.859375 48.328125 
Q 20.21875 56 33.015625 56 
Q 37.15625 56 41.109375 55.140625 
Q 45.0625 54.296875 48.78125 52.59375 
z
" id="DejaVuSans-63"/>
     <path d="M 45.40625 46.390625 
L 45.40625 75.984375 
L 54.390625 75.984375 
L 54.390625 0 
L 45.40625 0 
L 45.40625 8.203125 
Q 42.578125 3.328125 38.25 0.953125 
Q 33.9375 -1.421875 27.875 -1.421875 
Q 17.96875 -1.421875 11.734375 6.484375 
Q 5.515625 14.40625 5.515625 27.296875 
Q 5.515625 40.1875 11.734375 48.09375 
Q 17.96875 56 27.875 56 
Q 33.9375 56 38.25 53.625 
Q 42.578125 51.265625 45.40625 46.390625 
z
M 14.796875 27.296875 
Q 14.796875 17.390625 18.875 11.75 
Q 22.953125 6.109375 30.078125 6.109375 
Q 37.203125 6.109375 41.296875 11.75 
Q 45.40625 17.390625 45.40625 27.296875 
Q 45.40625 37.203125 41.296875 42.84375 
Q 37.203125 48.484375 30.078125 48.484375 
Q 22.953125 48.484375 18.875 42.84375 
Q 14.796875 37.203125 14.796875 27.296875 
z
" id="DejaVuSans-64"/>
     <path d="M 10.984375 1.515625 
L 10.984375 10.5 
Q 14.703125 8.734375 18.5 7.8125 
Q 22.3125 6.890625 25.984375 6.890625 
Q 35.75 6.890625 40.890625 13.453125 
Q 46.046875 20.015625 46.78125 33.40625 
Q 43.953125 29.203125 39.59375 26.953125 
Q 35.25 24.703125 29.984375 24.703125 
Q 19.046875 24.703125 12.671875 31.3125 
Q 6.296875 37.9375 6.296875 49.421875 
Q 6.296875 60.640625 12.9375 67.421875 
Q 19.578125 74.21875 30.609375 74.21875 
Q 43.265625 74.21875 49.921875 64.515625 
Q 56.59375 54.828125 56.59375 36.375 
Q 56.59375 19.140625 48.40625 8.859375 
Q 40.234375 -1.421875 26.421875 -1.421875 
Q 22.703125 -1.421875 18.890625 -0.6875 
Q 15.09375 0.046875 10.984375 1.515625 
z
M 30.609375 32.421875 
Q 37.25 32.421875 41.125 36.953125 
Q 45.015625 41.5 45.015625 49.421875 
Q 45.015625 57.28125 41.125 61.84375 
Q 37.25 66.40625 30.609375 66.40625 
Q 23.96875 66.40625 20.09375 61.84375 
Q 16.21875 57.28125 16.21875 49.421875 
Q 16.21875 41.5 20.09375 36.953125 
Q 23.96875 32.421875 30.609375 32.421875 
z
" id="DejaVuSans-39"/>
    </defs>
    <g transform="translate(104.533125 35.472)scale(0.12 -0.12)">
     <use xlink:href="#DejaVuSans-41"/>
     <use x="68.330078" xlink:href="#DejaVuSans-76"/>
     <use x="127.509766" xlink:href="#DejaVuSans-65"/>
     <use x="189.033203" xlink:href="#DejaVuSans-72"/>
     <use x="230.146484" xlink:href="#DejaVuSans-61"/>
     <use x="291.425781" xlink:href="#DejaVuSans-67"/>
     <use x="354.902344" xlink:href="#DejaVuSans-65"/>
     <use x="416.425781" xlink:href="#DejaVuSans-20"/>
     <use x="448.212891" xlink:href="#DejaVuSans-66"/>
     <use x="483.417969" xlink:href="#DejaVuSans-69"/>
     <use x="511.201172" xlink:href="#DejaVuSans-74"/>
     <use x="550.410156" xlink:href="#DejaVuSans-6e"/>
     <use x="613.789062" xlink:href="#DejaVuSans-65"/>
     <use x="675.3125" xlink:href="#DejaVuSans-73"/>
     <use x="727.412109" xlink:href="#DejaVuSans-73"/>
     <use x="779.511719" xlink:href="#DejaVuSans-20"/>
     <use x="811.298828" xlink:href="#DejaVuSans-6f"/>
     <use x="872.480469" xlink:href="#DejaVuSans-76"/>
     <use x="931.660156" xlink:href="#DejaVuSans-65"/>
     <use x="993.183594" xlink:href="#DejaVuSans-72"/>
     <use x="1034.296875" xlink:href="#DejaVuSans-20"/>
     <use x="1066.083984" xlink:href="#DejaVuSans-33"/>
     <use x="1129.707031" xlink:href="#DejaVuSans-30"/>
     <use x="1193.330078" xlink:href="#DejaVuSans-20"/>
     <use x="1225.117188" xlink:href="#DejaVuSans-73"/>
     <use x="1277.216797" xlink:href="#DejaVuSans-65"/>
     <use x="1338.740234" xlink:href="#DejaVuSans-63"/>
     <use x="1393.720703" xlink:href="#DejaVuSans-6f"/>
     <use x="1454.902344" xlink:href="#DejaVuSans-6e"/>
     <use x="1518.28125" xlink:href="#DejaVuSans-64"/>
     <use x="1581.757812" xlink:href="#DejaVuSans-73"/>
     <use x="1633.857422" xlink:href="#DejaVuSans-20"/>
     <use x="1665.644531" xlink:href="#DejaVuSans-66"/>
     <use x="1700.849609" xlink:href="#DejaVuSans-6f"/>
     <use x="1762.03125" xlink:href="#DejaVuSans-72"/>
     <use x="1803.144531" xlink:href="#DejaVuSans-32"/>
     <use x="1866.767578" xlink:href="#DejaVuSans-39"/>
     <use x="1930.390625" xlink:href="#DejaVuSans-63"/>
     <use x="1985.371094" xlink:href="#DejaVuSans-69"/>
     <use x="2013.154297" xlink:href="#DejaVuSans-74"/>
     <use x="2052.363281" xlink:href="#DejaVuSans-69"/>
     <use x="2080.146484" xlink:href="#DejaVuSans-65"/>
     <use x="2141.669922" xlink:href="#DejaVuSans-73"/>
    </g>
   </g>
   <g id="legend_1">
    <g id="patch_7">
     <path d="M 105.75125 78.82825 
L 407.72 78.82825 
Q 409.72 78.82825 409.72 76.82825 
L 409.72 48.472 
Q 409.72 46.472 407.72 46.472 
L 105.75125 46.472 
Q 103.75125 46.472 103.75125 48.472 
L 103.75125 76.82825 
Q 103.75125 78.82825 105.75125 78.82825 
z
" style="fill:#ffffff;opacity:0.8;stroke:#cccccc;stroke-linejoin:miter;"/>
    </g>
    <g id="patch_8">
     <path d="M 107.75125 58.070437 
L 127.75125 58.070437 
L 127.75125 51.070437 
L 107.75125 51.070437 
z
" style="fill:#87ceeb;stroke:#87ceeb;stroke-linejoin:miter;"/>
    </g>
    <g id="text_15">
     <!-- Parallel min, 2012.75 Last Generation number 2057.0 -->
     <defs>
      <path d="M 19.671875 64.796875 
L 19.671875 37.40625 
L 32.078125 37.40625 
Q 38.96875 37.40625 42.71875 40.96875 
Q 46.484375 44.53125 46.484375 51.125 
Q 46.484375 57.671875 42.71875 61.234375 
Q 38.96875 64.796875 32.078125 64.796875 
z
M 9.8125 72.90625 
L 32.078125 72.90625 
Q 44.34375 72.90625 50.609375 67.359375 
Q 56.890625 61.8125 56.890625 51.125 
Q 56.890625 40.328125 50.609375 34.8125 
Q 44.34375 29.296875 32.078125 29.296875 
L 19.671875 29.296875 
L 19.671875 0 
L 9.8125 0 
z
" id="DejaVuSans-50"/>
      <path d="M 9.421875 75.984375 
L 18.40625 75.984375 
L 18.40625 0 
L 9.421875 0 
z
" id="DejaVuSans-6c"/>
      <path d="M 11.71875 12.40625 
L 22.015625 12.40625 
L 22.015625 4 
L 14.015625 -11.625 
L 7.71875 -11.625 
L 11.71875 4 
z
" id="DejaVuSans-2c"/>
      <path d="M 10.6875 12.40625 
L 21 12.40625 
L 21 0 
L 10.6875 0 
z
" id="DejaVuSans-2e"/>
      <path d="M 8.203125 72.90625 
L 55.078125 72.90625 
L 55.078125 68.703125 
L 28.609375 0 
L 18.3125 0 
L 43.21875 64.59375 
L 8.203125 64.59375 
z
" id="DejaVuSans-37"/>
      <path d="M 9.8125 72.90625 
L 19.671875 72.90625 
L 19.671875 8.296875 
L 55.171875 8.296875 
L 55.171875 0 
L 9.8125 0 
z
" id="DejaVuSans-4c"/>
     </defs>
     <g transform="translate(135.75125 58.070437)scale(0.1 -0.1)">
      <use xlink:href="#DejaVuSans-50"/>
      <use x="60.240234" xlink:href="#DejaVuSans-61"/>
      <use x="121.519531" xlink:href="#DejaVuSans-72"/>
      <use x="162.632812" xlink:href="#DejaVuSans-61"/>
      <use x="223.912109" xlink:href="#DejaVuSans-6c"/>
      <use x="251.695312" xlink:href="#DejaVuSans-6c"/>
      <use x="279.478516" xlink:href="#DejaVuSans-65"/>
      <use x="341.001953" xlink:href="#DejaVuSans-6c"/>
      <use x="368.785156" xlink:href="#DejaVuSans-20"/>
      <use x="400.572266" xlink:href="#DejaVuSans-6d"/>
      <use x="497.984375" xlink:href="#DejaVuSans-69"/>
      <use x="525.767578" xlink:href="#DejaVuSans-6e"/>
      <use x="589.146484" xlink:href="#DejaVuSans-2c"/>
      <use x="620.933594" xlink:href="#DejaVuSans-20"/>
      <use x="652.720703" xlink:href="#DejaVuSans-32"/>
      <use x="716.34375" xlink:href="#DejaVuSans-30"/>
      <use x="779.966797" xlink:href="#DejaVuSans-31"/>
      <use x="843.589844" xlink:href="#DejaVuSans-32"/>
      <use x="907.212891" xlink:href="#DejaVuSans-2e"/>
      <use x="939" xlink:href="#DejaVuSans-37"/>
      <use x="1002.623047" xlink:href="#DejaVuSans-35"/>
      <use x="1066.246094" xlink:href="#DejaVuSans-20"/>
      <use x="1098.033203" xlink:href="#DejaVuSans-4c"/>
      <use x="1153.746094" xlink:href="#DejaVuSans-61"/>
      <use x="1215.025391" xlink:href="#DejaVuSans-73"/>
      <use x="1267.125" xlink:href="#DejaVuSans-74"/>
      <use x="1306.333984" xlink:href="#DejaVuSans-20"/>
      <use x="1338.121094" xlink:href="#DejaVuSans-47"/>
      <use x="1415.611328" xlink:href="#DejaVuSans-65"/>
      <use x="1477.134766" xlink:href="#DejaVuSans-6e"/>
      <use x="1540.513672" xlink:href="#DejaVuSans-65"/>
      <use x="1602.037109" xlink:href="#DejaVuSans-72"/>
      <use x="1643.150391" xlink:href="#DejaVuSans-61"/>
      <use x="1704.429688" xlink:href="#DejaVuSans-74"/>
      <use x="1743.638672" xlink:href="#DejaVuSans-69"/>
      <use x="1771.421875" xlink:href="#DejaVuSans-6f"/>
      <use x="1832.603516" xlink:href="#DejaVuSans-6e"/>
      <use x="1895.982422" xlink:href="#DejaVuSans-20"/>
      <use x="1927.769531" xlink:href="#DejaVuSans-6e"/>
      <use x="1991.148438" xlink:href="#DejaVuSans-75"/>
      <use x="2054.527344" xlink:href="#DejaVuSans-6d"/>
      <use x="2151.939453" xlink:href="#DejaVuSans-62"/>
      <use x="2215.416016" xlink:href="#DejaVuSans-65"/>
      <use x="2276.939453" xlink:href="#DejaVuSans-72"/>
      <use x="2318.052734" xlink:href="#DejaVuSans-20"/>
      <use x="2349.839844" xlink:href="#DejaVuSans-32"/>
      <use x="2413.462891" xlink:href="#DejaVuSans-30"/>
      <use x="2477.085938" xlink:href="#DejaVuSans-35"/>
      <use x="2540.708984" xlink:href="#DejaVuSans-37"/>
      <use x="2604.332031" xlink:href="#DejaVuSans-2e"/>
      <use x="2636.119141" xlink:href="#DejaVuSans-30"/>
     </g>
    </g>
    <g id="patch_9">
     <path d="M 107.75125 72.748562 
L 127.75125 72.748562 
L 127.75125 65.748562 
L 107.75125 65.748562 
z
" style="fill:#ffa500;stroke:#ffa500;stroke-linejoin:miter;"/>
    </g>
    <g id="text_16">
     <!-- Serial min, 2279.34 Last Generation number 609.0 -->
     <defs>
      <path d="M 53.515625 70.515625 
L 53.515625 60.890625 
Q 47.90625 63.578125 42.921875 64.890625 
Q 37.9375 66.21875 33.296875 66.21875 
Q 25.25 66.21875 20.875 63.09375 
Q 16.5 59.96875 16.5 54.203125 
Q 16.5 49.359375 19.40625 46.890625 
Q 22.3125 44.4375 30.421875 42.921875 
L 36.375 41.703125 
Q 47.40625 39.59375 52.65625 34.296875 
Q 57.90625 29 57.90625 20.125 
Q 57.90625 9.515625 50.796875 4.046875 
Q 43.703125 -1.421875 29.984375 -1.421875 
Q 24.8125 -1.421875 18.96875 -0.25 
Q 13.140625 0.921875 6.890625 3.21875 
L 6.890625 13.375 
Q 12.890625 10.015625 18.65625 8.296875 
Q 24.421875 6.59375 29.984375 6.59375 
Q 38.421875 6.59375 43.015625 9.90625 
Q 47.609375 13.234375 47.609375 19.390625 
Q 47.609375 24.75 44.3125 27.78125 
Q 41.015625 30.8125 33.5 32.328125 
L 27.484375 33.5 
Q 16.453125 35.6875 11.515625 40.375 
Q 6.59375 45.0625 6.59375 53.421875 
Q 6.59375 63.09375 13.40625 68.65625 
Q 20.21875 74.21875 32.171875 74.21875 
Q 37.3125 74.21875 42.625 73.28125 
Q 47.953125 72.359375 53.515625 70.515625 
z
" id="DejaVuSans-53"/>
      <path d="M 33.015625 40.375 
Q 26.375 40.375 22.484375 35.828125 
Q 18.609375 31.296875 18.609375 23.390625 
Q 18.609375 15.53125 22.484375 10.953125 
Q 26.375 6.390625 33.015625 6.390625 
Q 39.65625 6.390625 43.53125 10.953125 
Q 47.40625 15.53125 47.40625 23.390625 
Q 47.40625 31.296875 43.53125 35.828125 
Q 39.65625 40.375 33.015625 40.375 
z
M 52.59375 71.296875 
L 52.59375 62.3125 
Q 48.875 64.0625 45.09375 64.984375 
Q 41.3125 65.921875 37.59375 65.921875 
Q 27.828125 65.921875 22.671875 59.328125 
Q 17.53125 52.734375 16.796875 39.40625 
Q 19.671875 43.65625 24.015625 45.921875 
Q 28.375 48.1875 33.59375 48.1875 
Q 44.578125 48.1875 50.953125 41.515625 
Q 57.328125 34.859375 57.328125 23.390625 
Q 57.328125 12.15625 50.6875 5.359375 
Q 44.046875 -1.421875 33.015625 -1.421875 
Q 20.359375 -1.421875 13.671875 8.265625 
Q 6.984375 17.96875 6.984375 36.375 
Q 6.984375 53.65625 15.1875 63.9375 
Q 23.390625 74.21875 37.203125 74.21875 
Q 40.921875 74.21875 44.703125 73.484375 
Q 48.484375 72.75 52.59375 71.296875 
z
" id="DejaVuSans-36"/>
     </defs>
     <g transform="translate(135.75125 72.748562)scale(0.1 -0.1)">
      <use xlink:href="#DejaVuSans-53"/>
      <use x="63.476562" xlink:href="#DejaVuSans-65"/>
      <use x="125" xlink:href="#DejaVuSans-72"/>
      <use x="166.113281" xlink:href="#DejaVuSans-69"/>
      <use x="193.896484" xlink:href="#DejaVuSans-61"/>
      <use x="255.175781" xlink:href="#DejaVuSans-6c"/>
      <use x="282.958984" xlink:href="#DejaVuSans-20"/>
      <use x="314.746094" xlink:href="#DejaVuSans-6d"/>
      <use x="412.158203" xlink:href="#DejaVuSans-69"/>
      <use x="439.941406" xlink:href="#DejaVuSans-6e"/>
      <use x="503.320312" xlink:href="#DejaVuSans-2c"/>
      <use x="535.107422" xlink:href="#DejaVuSans-20"/>
      <use x="566.894531" xlink:href="#DejaVuSans-32"/>
      <use x="630.517578" xlink:href="#DejaVuSans-32"/>
      <use x="694.140625" xlink:href="#DejaVuSans-37"/>
      <use x="757.763672" xlink:href="#DejaVuSans-39"/>
      <use x="821.386719" xlink:href="#DejaVuSans-2e"/>
      <use x="853.173828" xlink:href="#DejaVuSans-33"/>
      <use x="916.796875" xlink:href="#DejaVuSans-34"/>
      <use x="980.419922" xlink:href="#DejaVuSans-20"/>
      <use x="1012.207031" xlink:href="#DejaVuSans-4c"/>
      <use x="1067.919922" xlink:href="#DejaVuSans-61"/>
      <use x="1129.199219" xlink:href="#DejaVuSans-73"/>
      <use x="1181.298828" xlink:href="#DejaVuSans-74"/>
      <use x="1220.507812" xlink:href="#DejaVuSans-20"/>
      <use x="1252.294922" xlink:href="#DejaVuSans-47"/>
      <use x="1329.785156" xlink:href="#DejaVuSans-65"/>
      <use x="1391.308594" xlink:href="#DejaVuSans-6e"/>
      <use x="1454.6875" xlink:href="#DejaVuSans-65"/>
      <use x="1516.210938" xlink:href="#DejaVuSans-72"/>
      <use x="1557.324219" xlink:href="#DejaVuSans-61"/>
      <use x="1618.603516" xlink:href="#DejaVuSans-74"/>
      <use x="1657.8125" xlink:href="#DejaVuSans-69"/>
      <use x="1685.595703" xlink:href="#DejaVuSans-6f"/>
      <use x="1746.777344" xlink:href="#DejaVuSans-6e"/>
      <use x="1810.15625" xlink:href="#DejaVuSans-20"/>
      <use x="1841.943359" xlink:href="#DejaVuSans-6e"/>
      <use x="1905.322266" xlink:href="#DejaVuSans-75"/>
      <use x="1968.701172" xlink:href="#DejaVuSans-6d"/>
      <use x="2066.113281" xlink:href="#DejaVuSans-62"/>
      <use x="2129.589844" xlink:href="#DejaVuSans-65"/>
      <use x="2191.113281" xlink:href="#DejaVuSans-72"/>
      <use x="2232.226562" xlink:href="#DejaVuSans-20"/>
      <use x="2264.013672" xlink:href="#DejaVuSans-36"/>
      <use x="2327.636719" xlink:href="#DejaVuSans-30"/>
      <use x="2391.259766" xlink:href="#DejaVuSans-39"/>
      <use x="2454.882812" xlink:href="#DejaVuSans-2e"/>
      <use x="2486.669922" xlink:href="#DejaVuSans-30"/>
     </g>
    </g>
   </g>
  </g>
 </g>
 <defs>
  <clipPath id="pb78d732e4a">
   <rect height="266.112" width="357.12" x="57.6" y="41.472"/>
  </clipPath>
 </defs>
</svg>
