<?xml version="1.0" encoding="utf-8" standalone="no"?>
<!DOCTYPE svg PUBLIC "-//W3C//DTD SVG 1.1//EN"
  "http://www.w3.org/Graphics/SVG/1.1/DTD/svg11.dtd">
<!-- Created with matplotlib (http://matplotlib.org/) -->
<svg height="345.6pt" version="1.1" viewBox="0 0 460.8 345.6" width="460.8pt" xmlns="http://www.w3.org/2000/svg" xmlns:xlink="http://www.w3.org/1999/xlink">
 <defs>
  <style type="text/css">
*{stroke-linecap:butt;stroke-linejoin:round;}
  </style>
 </defs>
 <g id="figure_1">
  <g id="patch_1">
   <path d="M 0 345.6 
L 460.8 345.6 
L 460.8 0 
L 0 0 
z
" style="fill:#ffffff;"/>
  </g>
  <g id="axes_1">
   <g id="patch_2">
    <path d="M 57.6 307.584 
L 414.72 307.584 
L 414.72 41.472 
L 57.6 41.472 
z
" style="fill:#ffffff;"/>
   </g>
   <g id="matplotlib.axis_1">
    <g id="xtick_1">
     <g id="line2d_1">
      <defs>
       <path d="M 0 0 
L 0 3.5 
" id="m16d6ef6563" style="stroke:#000000;stroke-width:0.8;"/>
      </defs>
      <g>
       <use style="stroke:#000000;stroke-width:0.8;" x="73.086395" xlink:href="#m16d6ef6563" y="307.584"/>
      </g>
     </g>
     <g id="text_1">
      <!-- 0 -->
      <defs>
       <path d="M 31.78125 66.40625 
Q 24.171875 66.40625 20.328125 58.90625 
Q 16.5 51.421875 16.5 36.375 
Q 16.5 21.390625 20.328125 13.890625 
Q 24.171875 6.390625 31.78125 6.390625 
Q 39.453125 6.390625 43.28125 13.890625 
Q 47.125 21.390625 47.125 36.375 
Q 47.125 51.421875 43.28125 58.90625 
Q 39.453125 66.40625 31.78125 66.40625 
z
M 31.78125 74.21875 
Q 44.046875 74.21875 50.515625 64.515625 
Q 56.984375 54.828125 56.984375 36.375 
Q 56.984375 17.96875 50.515625 8.265625 
Q 44.046875 -1.421875 31.78125 -1.421875 
Q 19.53125 -1.421875 13.0625 8.265625 
Q 6.59375 17.96875 6.59375 36.375 
Q 6.59375 54.828125 13.0625 64.515625 
Q 19.53125 74.21875 31.78125 74.21875 
z
" id="DejaVuSans-30"/>
      </defs>
      <g transform="translate(69.905145 322.182437)scale(0.1 -0.1)">
       <use xlink:href="#DejaVuSans-30"/>
      </g>
     </g>
    </g>
    <g id="xtick_2">
     <g id="line2d_2">
      <g>
       <use style="stroke:#000000;stroke-width:0.8;" x="147.719624" xlink:href="#m16d6ef6563" y="307.584"/>
      </g>
     </g>
     <g id="text_2">
      <!-- 100 -->
      <defs>
       <path d="M 12.40625 8.296875 
L 28.515625 8.296875 
L 28.515625 63.921875 
L 10.984375 60.40625 
L 10.984375 69.390625 
L 28.421875 72.90625 
L 38.28125 72.90625 
L 38.28125 8.296875 
L 54.390625 8.296875 
L 54.390625 0 
L 12.40625 0 
z
" id="DejaVuSans-31"/>
      </defs>
      <g transform="translate(138.175874 322.182437)scale(0.1 -0.1)">
       <use xlink:href="#DejaVuSans-31"/>
       <use x="63.623047" xlink:href="#DejaVuSans-30"/>
       <use x="127.246094" xlink:href="#DejaVuSans-30"/>
      </g>
     </g>
    </g>
    <g id="xtick_3">
     <g id="line2d_3">
      <g>
       <use style="stroke:#000000;stroke-width:0.8;" x="222.352853" xlink:href="#m16d6ef6563" y="307.584"/>
      </g>
     </g>
     <g id="text_3">
      <!-- 200 -->
      <defs>
       <path d="M 19.1875 8.296875 
L 53.609375 8.296875 
L 53.609375 0 
L 7.328125 0 
L 7.328125 8.296875 
Q 12.9375 14.109375 22.625 23.890625 
Q 32.328125 33.6875 34.8125 36.53125 
Q 39.546875 41.84375 41.421875 45.53125 
Q 43.3125 49.21875 43.3125 52.78125 
Q 43.3125 58.59375 39.234375 62.25 
Q 35.15625 65.921875 28.609375 65.921875 
Q 23.96875 65.921875 18.8125 64.3125 
Q 13.671875 62.703125 7.8125 59.421875 
L 7.8125 69.390625 
Q 13.765625 71.78125 18.9375 73 
Q 24.125 74.21875 28.421875 74.21875 
Q 39.75 74.21875 46.484375 68.546875 
Q 53.21875 62.890625 53.21875 53.421875 
Q 53.21875 48.921875 51.53125 44.890625 
Q 49.859375 40.875 45.40625 35.40625 
Q 44.1875 33.984375 37.640625 27.21875 
Q 31.109375 20.453125 19.1875 8.296875 
z
" id="DejaVuSans-32"/>
      </defs>
      <g transform="translate(212.809103 322.182437)scale(0.1 -0.1)">
       <use xlink:href="#DejaVuSans-32"/>
       <use x="63.623047" xlink:href="#DejaVuSans-30"/>
       <use x="127.246094" xlink:href="#DejaVuSans-30"/>
      </g>
     </g>
    </g>
    <g id="xtick_4">
     <g id="line2d_4">
      <g>
       <use style="stroke:#000000;stroke-width:0.8;" x="296.986082" xlink:href="#m16d6ef6563" y="307.584"/>
      </g>
     </g>
     <g id="text_4">
      <!-- 300 -->
      <defs>
       <path d="M 40.578125 39.3125 
Q 47.65625 37.796875 51.625 33 
Q 55.609375 28.21875 55.609375 21.1875 
Q 55.609375 10.40625 48.1875 4.484375 
Q 40.765625 -1.421875 27.09375 -1.421875 
Q 22.515625 -1.421875 17.65625 -0.515625 
Q 12.796875 0.390625 7.625 2.203125 
L 7.625 11.71875 
Q 11.71875 9.328125 16.59375 8.109375 
Q 21.484375 6.890625 26.8125 6.890625 
Q 36.078125 6.890625 40.9375 10.546875 
Q 45.796875 14.203125 45.796875 21.1875 
Q 45.796875 27.640625 41.28125 31.265625 
Q 36.765625 34.90625 28.71875 34.90625 
L 20.21875 34.90625 
L 20.21875 43.015625 
L 29.109375 43.015625 
Q 36.375 43.015625 40.234375 45.921875 
Q 44.09375 48.828125 44.09375 54.296875 
Q 44.09375 59.90625 40.109375 62.90625 
Q 36.140625 65.921875 28.71875 65.921875 
Q 24.65625 65.921875 20.015625 65.03125 
Q 15.375 64.15625 9.8125 62.3125 
L 9.8125 71.09375 
Q 15.4375 72.65625 20.34375 73.4375 
Q 25.25 74.21875 29.59375 74.21875 
Q 40.828125 74.21875 47.359375 69.109375 
Q 53.90625 64.015625 53.90625 55.328125 
Q 53.90625 49.265625 50.4375 45.09375 
Q 46.96875 40.921875 40.578125 39.3125 
z
" id="DejaVuSans-33"/>
      </defs>
      <g transform="translate(287.442332 322.182437)scale(0.1 -0.1)">
       <use xlink:href="#DejaVuSans-33"/>
       <use x="63.623047" xlink:href="#DejaVuSans-30"/>
       <use x="127.246094" xlink:href="#DejaVuSans-30"/>
      </g>
     </g>
    </g>
    <g id="xtick_5">
     <g id="line2d_5">
      <g>
       <use style="stroke:#000000;stroke-width:0.8;" x="371.61931" xlink:href="#m16d6ef6563" y="307.584"/>
      </g>
     </g>
     <g id="text_5">
      <!-- 400 -->
      <defs>
       <path d="M 37.796875 64.3125 
L 12.890625 25.390625 
L 37.796875 25.390625 
z
M 35.203125 72.90625 
L 47.609375 72.90625 
L 47.609375 25.390625 
L 58.015625 25.390625 
L 58.015625 17.1875 
L 47.609375 17.1875 
L 47.609375 0 
L 37.796875 0 
L 37.796875 17.1875 
L 4.890625 17.1875 
L 4.890625 26.703125 
z
" id="DejaVuSans-34"/>
      </defs>
      <g transform="translate(362.07556 322.182437)scale(0.1 -0.1)">
       <use xlink:href="#DejaVuSans-34"/>
       <use x="63.623047" xlink:href="#DejaVuSans-30"/>
       <use x="127.246094" xlink:href="#DejaVuSans-30"/>
      </g>
     </g>
    </g>
    <g id="text_6">
     <!-- Generation number -->
     <defs>
      <path d="M 59.515625 10.40625 
L 59.515625 29.984375 
L 43.40625 29.984375 
L 43.40625 38.09375 
L 69.28125 38.09375 
L 69.28125 6.78125 
Q 63.578125 2.734375 56.6875 0.65625 
Q 49.8125 -1.421875 42 -1.421875 
Q 24.90625 -1.421875 15.25 8.5625 
Q 5.609375 18.5625 5.609375 36.375 
Q 5.609375 54.25 15.25 64.234375 
Q 24.90625 74.21875 42 74.21875 
Q 49.125 74.21875 55.546875 72.453125 
Q 61.96875 70.703125 67.390625 67.28125 
L 67.390625 56.78125 
Q 61.921875 61.421875 55.765625 63.765625 
Q 49.609375 66.109375 42.828125 66.109375 
Q 29.4375 66.109375 22.71875 58.640625 
Q 16.015625 51.171875 16.015625 36.375 
Q 16.015625 21.625 22.71875 14.15625 
Q 29.4375 6.6875 42.828125 6.6875 
Q 48.046875 6.6875 52.140625 7.59375 
Q 56.25 8.5 59.515625 10.40625 
z
" id="DejaVuSans-47"/>
      <path d="M 56.203125 29.59375 
L 56.203125 25.203125 
L 14.890625 25.203125 
Q 15.484375 15.921875 20.484375 11.0625 
Q 25.484375 6.203125 34.421875 6.203125 
Q 39.59375 6.203125 44.453125 7.46875 
Q 49.3125 8.734375 54.109375 11.28125 
L 54.109375 2.78125 
Q 49.265625 0.734375 44.1875 -0.34375 
Q 39.109375 -1.421875 33.890625 -1.421875 
Q 20.796875 -1.421875 13.15625 6.1875 
Q 5.515625 13.8125 5.515625 26.8125 
Q 5.515625 40.234375 12.765625 48.109375 
Q 20.015625 56 32.328125 56 
Q 43.359375 56 49.78125 48.890625 
Q 56.203125 41.796875 56.203125 29.59375 
z
M 47.21875 32.234375 
Q 47.125 39.59375 43.09375 43.984375 
Q 39.0625 48.390625 32.421875 48.390625 
Q 24.90625 48.390625 20.390625 44.140625 
Q 15.875 39.890625 15.1875 32.171875 
z
" id="DejaVuSans-65"/>
      <path d="M 54.890625 33.015625 
L 54.890625 0 
L 45.90625 0 
L 45.90625 32.71875 
Q 45.90625 40.484375 42.875 44.328125 
Q 39.84375 48.1875 33.796875 48.1875 
Q 26.515625 48.1875 22.3125 43.546875 
Q 18.109375 38.921875 18.109375 30.90625 
L 18.109375 0 
L 9.078125 0 
L 9.078125 54.6875 
L 18.109375 54.6875 
L 18.109375 46.1875 
Q 21.34375 51.125 25.703125 53.5625 
Q 30.078125 56 35.796875 56 
Q 45.21875 56 50.046875 50.171875 
Q 54.890625 44.34375 54.890625 33.015625 
z
" id="DejaVuSans-6e"/>
      <path d="M 41.109375 46.296875 
Q 39.59375 47.171875 37.8125 47.578125 
Q 36.03125 48 33.890625 48 
Q 26.265625 48 22.1875 43.046875 
Q 18.109375 38.09375 18.109375 28.8125 
L 18.109375 0 
L 9.078125 0 
L 9.078125 54.6875 
L 18.109375 54.6875 
L 18.109375 46.1875 
Q 20.953125 51.171875 25.484375 53.578125 
Q 30.03125 56 36.53125 56 
Q 37.453125 56 38.578125 55.875 
Q 39.703125 55.765625 41.0625 55.515625 
z
" id="DejaVuSans-72"/>
      <path d="M 34.28125 27.484375 
Q 23.390625 27.484375 19.1875 25 
Q 14.984375 22.515625 14.984375 16.5 
Q 14.984375 11.71875 18.140625 8.90625 
Q 21.296875 6.109375 26.703125 6.109375 
Q 34.1875 6.109375 38.703125 11.40625 
Q 43.21875 16.703125 43.21875 25.484375 
L 43.21875 27.484375 
z
M 52.203125 31.203125 
L 52.203125 0 
L 43.21875 0 
L 43.21875 8.296875 
Q 40.140625 3.328125 35.546875 0.953125 
Q 30.953125 -1.421875 24.3125 -1.421875 
Q 15.921875 -1.421875 10.953125 3.296875 
Q 6 8.015625 6 15.921875 
Q 6 25.140625 12.171875 29.828125 
Q 18.359375 34.515625 30.609375 34.515625 
L 43.21875 34.515625 
L 43.21875 35.40625 
Q 43.21875 41.609375 39.140625 45 
Q 35.0625 48.390625 27.6875 48.390625 
Q 23 48.390625 18.546875 47.265625 
Q 14.109375 46.140625 10.015625 43.890625 
L 10.015625 52.203125 
Q 14.9375 54.109375 19.578125 55.046875 
Q 24.21875 56 28.609375 56 
Q 40.484375 56 46.34375 49.84375 
Q 52.203125 43.703125 52.203125 31.203125 
z
" id="DejaVuSans-61"/>
      <path d="M 18.3125 70.21875 
L 18.3125 54.6875 
L 36.8125 54.6875 
L 36.8125 47.703125 
L 18.3125 47.703125 
L 18.3125 18.015625 
Q 18.3125 11.328125 20.140625 9.421875 
Q 21.96875 7.515625 27.59375 7.515625 
L 36.8125 7.515625 
L 36.8125 0 
L 27.59375 0 
Q 17.1875 0 13.234375 3.875 
Q 9.28125 7.765625 9.28125 18.015625 
L 9.28125 47.703125 
L 2.6875 47.703125 
L 2.6875 54.6875 
L 9.28125 54.6875 
L 9.28125 70.21875 
z
" id="DejaVuSans-74"/>
      <path d="M 9.421875 54.6875 
L 18.40625 54.6875 
L 18.40625 0 
L 9.421875 0 
z
M 9.421875 75.984375 
L 18.40625 75.984375 
L 18.40625 64.59375 
L 9.421875 64.59375 
z
" id="DejaVuSans-69"/>
      <path d="M 30.609375 48.390625 
Q 23.390625 48.390625 19.1875 42.75 
Q 14.984375 37.109375 14.984375 27.296875 
Q 14.984375 17.484375 19.15625 11.84375 
Q 23.34375 6.203125 30.609375 6.203125 
Q 37.796875 6.203125 41.984375 11.859375 
Q 46.1875 17.53125 46.1875 27.296875 
Q 46.1875 37.015625 41.984375 42.703125 
Q 37.796875 48.390625 30.609375 48.390625 
z
M 30.609375 56 
Q 42.328125 56 49.015625 48.375 
Q 55.71875 40.765625 55.71875 27.296875 
Q 55.71875 13.875 49.015625 6.21875 
Q 42.328125 -1.421875 30.609375 -1.421875 
Q 18.84375 -1.421875 12.171875 6.21875 
Q 5.515625 13.875 5.515625 27.296875 
Q 5.515625 40.765625 12.171875 48.375 
Q 18.84375 56 30.609375 56 
z
" id="DejaVuSans-6f"/>
      <path id="DejaVuSans-20"/>
      <path d="M 8.5 21.578125 
L 8.5 54.6875 
L 17.484375 54.6875 
L 17.484375 21.921875 
Q 17.484375 14.15625 20.5 10.265625 
Q 23.53125 6.390625 29.59375 6.390625 
Q 36.859375 6.390625 41.078125 11.03125 
Q 45.3125 15.671875 45.3125 23.6875 
L 45.3125 54.6875 
L 54.296875 54.6875 
L 54.296875 0 
L 45.3125 0 
L 45.3125 8.40625 
Q 42.046875 3.421875 37.71875 1 
Q 33.40625 -1.421875 27.6875 -1.421875 
Q 18.265625 -1.421875 13.375 4.4375 
Q 8.5 10.296875 8.5 21.578125 
z
M 31.109375 56 
z
" id="DejaVuSans-75"/>
      <path d="M 52 44.1875 
Q 55.375 50.25 60.0625 53.125 
Q 64.75 56 71.09375 56 
Q 79.640625 56 84.28125 50.015625 
Q 88.921875 44.046875 88.921875 33.015625 
L 88.921875 0 
L 79.890625 0 
L 79.890625 32.71875 
Q 79.890625 40.578125 77.09375 44.375 
Q 74.3125 48.1875 68.609375 48.1875 
Q 61.625 48.1875 57.5625 43.546875 
Q 53.515625 38.921875 53.515625 30.90625 
L 53.515625 0 
L 44.484375 0 
L 44.484375 32.71875 
Q 44.484375 40.625 41.703125 44.40625 
Q 38.921875 48.1875 33.109375 48.1875 
Q 26.21875 48.1875 22.15625 43.53125 
Q 18.109375 38.875 18.109375 30.90625 
L 18.109375 0 
L 9.078125 0 
L 9.078125 54.6875 
L 18.109375 54.6875 
L 18.109375 46.1875 
Q 21.1875 51.21875 25.484375 53.609375 
Q 29.78125 56 35.6875 56 
Q 41.65625 56 45.828125 52.96875 
Q 50 49.953125 52 44.1875 
z
" id="DejaVuSans-6d"/>
      <path d="M 48.6875 27.296875 
Q 48.6875 37.203125 44.609375 42.84375 
Q 40.53125 48.484375 33.40625 48.484375 
Q 26.265625 48.484375 22.1875 42.84375 
Q 18.109375 37.203125 18.109375 27.296875 
Q 18.109375 17.390625 22.1875 11.75 
Q 26.265625 6.109375 33.40625 6.109375 
Q 40.53125 6.109375 44.609375 11.75 
Q 48.6875 17.390625 48.6875 27.296875 
z
M 18.109375 46.390625 
Q 20.953125 51.265625 25.265625 53.625 
Q 29.59375 56 35.59375 56 
Q 45.5625 56 51.78125 48.09375 
Q 58.015625 40.1875 58.015625 27.296875 
Q 58.015625 14.40625 51.78125 6.484375 
Q 45.5625 -1.421875 35.59375 -1.421875 
Q 29.59375 -1.421875 25.265625 0.953125 
Q 20.953125 3.328125 18.109375 8.203125 
L 18.109375 0 
L 9.078125 0 
L 9.078125 75.984375 
L 18.109375 75.984375 
z
" id="DejaVuSans-62"/>
     </defs>
     <g transform="translate(187.163906 335.860562)scale(0.1 -0.1)">
      <use xlink:href="#DejaVuSans-47"/>
      <use x="77.490234" xlink:href="#DejaVuSans-65"/>
      <use x="139.013672" xlink:href="#DejaVuSans-6e"/>
      <use x="202.392578" xlink:href="#DejaVuSans-65"/>
      <use x="263.916016" xlink:href="#DejaVuSans-72"/>
      <use x="305.029297" xlink:href="#DejaVuSans-61"/>
      <use x="366.308594" xlink:href="#DejaVuSans-74"/>
      <use x="405.517578" xlink:href="#DejaVuSans-69"/>
      <use x="433.300781" xlink:href="#DejaVuSans-6f"/>
      <use x="494.482422" xlink:href="#DejaVuSans-6e"/>
      <use x="557.861328" xlink:href="#DejaVuSans-20"/>
      <use x="589.648438" xlink:href="#DejaVuSans-6e"/>
      <use x="653.027344" xlink:href="#DejaVuSans-75"/>
      <use x="716.40625" xlink:href="#DejaVuSans-6d"/>
      <use x="813.818359" xlink:href="#DejaVuSans-62"/>
      <use x="877.294922" xlink:href="#DejaVuSans-65"/>
      <use x="938.818359" xlink:href="#DejaVuSans-72"/>
     </g>
    </g>
   </g>
   <g id="matplotlib.axis_2">
    <g id="ytick_1">
     <g id="line2d_6">
      <defs>
       <path d="M 0 0 
L -3.5 0 
" id="m5271ba59b5" style="stroke:#000000;stroke-width:0.8;"/>
      </defs>
      <g>
       <use style="stroke:#000000;stroke-width:0.8;" x="57.6" xlink:href="#m5271ba59b5" y="304.698895"/>
      </g>
     </g>
     <g id="text_7">
      <!-- 12000 -->
      <g transform="translate(18.7875 308.498114)scale(0.1 -0.1)">
       <use xlink:href="#DejaVuSans-31"/>
       <use x="63.623047" xlink:href="#DejaVuSans-32"/>
       <use x="127.246094" xlink:href="#DejaVuSans-30"/>
       <use x="190.869141" xlink:href="#DejaVuSans-30"/>
       <use x="254.492188" xlink:href="#DejaVuSans-30"/>
      </g>
     </g>
    </g>
    <g id="ytick_2">
     <g id="line2d_7">
      <g>
       <use style="stroke:#000000;stroke-width:0.8;" x="57.6" xlink:href="#m5271ba59b5" y="273.717074"/>
      </g>
     </g>
     <g id="text_8">
      <!-- 14000 -->
      <g transform="translate(18.7875 277.516293)scale(0.1 -0.1)">
       <use xlink:href="#DejaVuSans-31"/>
       <use x="63.623047" xlink:href="#DejaVuSans-34"/>
       <use x="127.246094" xlink:href="#DejaVuSans-30"/>
       <use x="190.869141" xlink:href="#DejaVuSans-30"/>
       <use x="254.492188" xlink:href="#DejaVuSans-30"/>
      </g>
     </g>
    </g>
    <g id="ytick_3">
     <g id="line2d_8">
      <g>
       <use style="stroke:#000000;stroke-width:0.8;" x="57.6" xlink:href="#m5271ba59b5" y="242.735253"/>
      </g>
     </g>
     <g id="text_9">
      <!-- 16000 -->
      <defs>
       <path d="M 33.015625 40.375 
Q 26.375 40.375 22.484375 35.828125 
Q 18.609375 31.296875 18.609375 23.390625 
Q 18.609375 15.53125 22.484375 10.953125 
Q 26.375 6.390625 33.015625 6.390625 
Q 39.65625 6.390625 43.53125 10.953125 
Q 47.40625 15.53125 47.40625 23.390625 
Q 47.40625 31.296875 43.53125 35.828125 
Q 39.65625 40.375 33.015625 40.375 
z
M 52.59375 71.296875 
L 52.59375 62.3125 
Q 48.875 64.0625 45.09375 64.984375 
Q 41.3125 65.921875 37.59375 65.921875 
Q 27.828125 65.921875 22.671875 59.328125 
Q 17.53125 52.734375 16.796875 39.40625 
Q 19.671875 43.65625 24.015625 45.921875 
Q 28.375 48.1875 33.59375 48.1875 
Q 44.578125 48.1875 50.953125 41.515625 
Q 57.328125 34.859375 57.328125 23.390625 
Q 57.328125 12.15625 50.6875 5.359375 
Q 44.046875 -1.421875 33.015625 -1.421875 
Q 20.359375 -1.421875 13.671875 8.265625 
Q 6.984375 17.96875 6.984375 36.375 
Q 6.984375 53.65625 15.1875 63.9375 
Q 23.390625 74.21875 37.203125 74.21875 
Q 40.921875 74.21875 44.703125 73.484375 
Q 48.484375 72.75 52.59375 71.296875 
z
" id="DejaVuSans-36"/>
      </defs>
      <g transform="translate(18.7875 246.534472)scale(0.1 -0.1)">
       <use xlink:href="#DejaVuSans-31"/>
       <use x="63.623047" xlink:href="#DejaVuSans-36"/>
       <use x="127.246094" xlink:href="#DejaVuSans-30"/>
       <use x="190.869141" xlink:href="#DejaVuSans-30"/>
       <use x="254.492188" xlink:href="#DejaVuSans-30"/>
      </g>
     </g>
    </g>
    <g id="ytick_4">
     <g id="line2d_9">
      <g>
       <use style="stroke:#000000;stroke-width:0.8;" x="57.6" xlink:href="#m5271ba59b5" y="211.753432"/>
      </g>
     </g>
     <g id="text_10">
      <!-- 18000 -->
      <defs>
       <path d="M 31.78125 34.625 
Q 24.75 34.625 20.71875 30.859375 
Q 16.703125 27.09375 16.703125 20.515625 
Q 16.703125 13.921875 20.71875 10.15625 
Q 24.75 6.390625 31.78125 6.390625 
Q 38.8125 6.390625 42.859375 10.171875 
Q 46.921875 13.96875 46.921875 20.515625 
Q 46.921875 27.09375 42.890625 30.859375 
Q 38.875 34.625 31.78125 34.625 
z
M 21.921875 38.8125 
Q 15.578125 40.375 12.03125 44.71875 
Q 8.5 49.078125 8.5 55.328125 
Q 8.5 64.0625 14.71875 69.140625 
Q 20.953125 74.21875 31.78125 74.21875 
Q 42.671875 74.21875 48.875 69.140625 
Q 55.078125 64.0625 55.078125 55.328125 
Q 55.078125 49.078125 51.53125 44.71875 
Q 48 40.375 41.703125 38.8125 
Q 48.828125 37.15625 52.796875 32.3125 
Q 56.78125 27.484375 56.78125 20.515625 
Q 56.78125 9.90625 50.3125 4.234375 
Q 43.84375 -1.421875 31.78125 -1.421875 
Q 19.734375 -1.421875 13.25 4.234375 
Q 6.78125 9.90625 6.78125 20.515625 
Q 6.78125 27.484375 10.78125 32.3125 
Q 14.796875 37.15625 21.921875 38.8125 
z
M 18.3125 54.390625 
Q 18.3125 48.734375 21.84375 45.5625 
Q 25.390625 42.390625 31.78125 42.390625 
Q 38.140625 42.390625 41.71875 45.5625 
Q 45.3125 48.734375 45.3125 54.390625 
Q 45.3125 60.0625 41.71875 63.234375 
Q 38.140625 66.40625 31.78125 66.40625 
Q 25.390625 66.40625 21.84375 63.234375 
Q 18.3125 60.0625 18.3125 54.390625 
z
" id="DejaVuSans-38"/>
      </defs>
      <g transform="translate(18.7875 215.552651)scale(0.1 -0.1)">
       <use xlink:href="#DejaVuSans-31"/>
       <use x="63.623047" xlink:href="#DejaVuSans-38"/>
       <use x="127.246094" xlink:href="#DejaVuSans-30"/>
       <use x="190.869141" xlink:href="#DejaVuSans-30"/>
       <use x="254.492188" xlink:href="#DejaVuSans-30"/>
      </g>
     </g>
    </g>
    <g id="ytick_5">
     <g id="line2d_10">
      <g>
       <use style="stroke:#000000;stroke-width:0.8;" x="57.6" xlink:href="#m5271ba59b5" y="180.771611"/>
      </g>
     </g>
     <g id="text_11">
      <!-- 20000 -->
      <g transform="translate(18.7875 184.57083)scale(0.1 -0.1)">
       <use xlink:href="#DejaVuSans-32"/>
       <use x="63.623047" xlink:href="#DejaVuSans-30"/>
       <use x="127.246094" xlink:href="#DejaVuSans-30"/>
       <use x="190.869141" xlink:href="#DejaVuSans-30"/>
       <use x="254.492188" xlink:href="#DejaVuSans-30"/>
      </g>
     </g>
    </g>
    <g id="ytick_6">
     <g id="line2d_11">
      <g>
       <use style="stroke:#000000;stroke-width:0.8;" x="57.6" xlink:href="#m5271ba59b5" y="149.78979"/>
      </g>
     </g>
     <g id="text_12">
      <!-- 22000 -->
      <g transform="translate(18.7875 153.589009)scale(0.1 -0.1)">
       <use xlink:href="#DejaVuSans-32"/>
       <use x="63.623047" xlink:href="#DejaVuSans-32"/>
       <use x="127.246094" xlink:href="#DejaVuSans-30"/>
       <use x="190.869141" xlink:href="#DejaVuSans-30"/>
       <use x="254.492188" xlink:href="#DejaVuSans-30"/>
      </g>
     </g>
    </g>
    <g id="ytick_7">
     <g id="line2d_12">
      <g>
       <use style="stroke:#000000;stroke-width:0.8;" x="57.6" xlink:href="#m5271ba59b5" y="118.80797"/>
      </g>
     </g>
     <g id="text_13">
      <!-- 24000 -->
      <g transform="translate(18.7875 122.607188)scale(0.1 -0.1)">
       <use xlink:href="#DejaVuSans-32"/>
       <use x="63.623047" xlink:href="#DejaVuSans-34"/>
       <use x="127.246094" xlink:href="#DejaVuSans-30"/>
       <use x="190.869141" xlink:href="#DejaVuSans-30"/>
       <use x="254.492188" xlink:href="#DejaVuSans-30"/>
      </g>
     </g>
    </g>
    <g id="ytick_8">
     <g id="line2d_13">
      <g>
       <use style="stroke:#000000;stroke-width:0.8;" x="57.6" xlink:href="#m5271ba59b5" y="87.826149"/>
      </g>
     </g>
     <g id="text_14">
      <!-- 26000 -->
      <g transform="translate(18.7875 91.625367)scale(0.1 -0.1)">
       <use xlink:href="#DejaVuSans-32"/>
       <use x="63.623047" xlink:href="#DejaVuSans-36"/>
       <use x="127.246094" xlink:href="#DejaVuSans-30"/>
       <use x="190.869141" xlink:href="#DejaVuSans-30"/>
       <use x="254.492188" xlink:href="#DejaVuSans-30"/>
      </g>
     </g>
    </g>
    <g id="ytick_9">
     <g id="line2d_14">
      <g>
       <use style="stroke:#000000;stroke-width:0.8;" x="57.6" xlink:href="#m5271ba59b5" y="56.844328"/>
      </g>
     </g>
     <g id="text_15">
      <!-- 28000 -->
      <g transform="translate(18.7875 60.643546)scale(0.1 -0.1)">
       <use xlink:href="#DejaVuSans-32"/>
       <use x="63.623047" xlink:href="#DejaVuSans-38"/>
       <use x="127.246094" xlink:href="#DejaVuSans-30"/>
       <use x="190.869141" xlink:href="#DejaVuSans-30"/>
       <use x="254.492188" xlink:href="#DejaVuSans-30"/>
      </g>
     </g>
    </g>
    <g id="text_16">
     <!-- Average fitness -->
     <defs>
      <path d="M 34.1875 63.1875 
L 20.796875 26.90625 
L 47.609375 26.90625 
z
M 28.609375 72.90625 
L 39.796875 72.90625 
L 67.578125 0 
L 57.328125 0 
L 50.6875 18.703125 
L 17.828125 18.703125 
L 11.1875 0 
L 0.78125 0 
z
" id="DejaVuSans-41"/>
      <path d="M 2.984375 54.6875 
L 12.5 54.6875 
L 29.59375 8.796875 
L 46.6875 54.6875 
L 56.203125 54.6875 
L 35.6875 0 
L 23.484375 0 
z
" id="DejaVuSans-76"/>
      <path d="M 45.40625 27.984375 
Q 45.40625 37.75 41.375 43.109375 
Q 37.359375 48.484375 30.078125 48.484375 
Q 22.859375 48.484375 18.828125 43.109375 
Q 14.796875 37.75 14.796875 27.984375 
Q 14.796875 18.265625 18.828125 12.890625 
Q 22.859375 7.515625 30.078125 7.515625 
Q 37.359375 7.515625 41.375 12.890625 
Q 45.40625 18.265625 45.40625 27.984375 
z
M 54.390625 6.78125 
Q 54.390625 -7.171875 48.1875 -13.984375 
Q 42 -20.796875 29.203125 -20.796875 
Q 24.46875 -20.796875 20.265625 -20.09375 
Q 16.0625 -19.390625 12.109375 -17.921875 
L 12.109375 -9.1875 
Q 16.0625 -11.328125 19.921875 -12.34375 
Q 23.78125 -13.375 27.78125 -13.375 
Q 36.625 -13.375 41.015625 -8.765625 
Q 45.40625 -4.15625 45.40625 5.171875 
L 45.40625 9.625 
Q 42.625 4.78125 38.28125 2.390625 
Q 33.9375 0 27.875 0 
Q 17.828125 0 11.671875 7.65625 
Q 5.515625 15.328125 5.515625 27.984375 
Q 5.515625 40.671875 11.671875 48.328125 
Q 17.828125 56 27.875 56 
Q 33.9375 56 38.28125 53.609375 
Q 42.625 51.21875 45.40625 46.390625 
L 45.40625 54.6875 
L 54.390625 54.6875 
z
" id="DejaVuSans-67"/>
      <path d="M 37.109375 75.984375 
L 37.109375 68.5 
L 28.515625 68.5 
Q 23.6875 68.5 21.796875 66.546875 
Q 19.921875 64.59375 19.921875 59.515625 
L 19.921875 54.6875 
L 34.71875 54.6875 
L 34.71875 47.703125 
L 19.921875 47.703125 
L 19.921875 0 
L 10.890625 0 
L 10.890625 47.703125 
L 2.296875 47.703125 
L 2.296875 54.6875 
L 10.890625 54.6875 
L 10.890625 58.5 
Q 10.890625 67.625 15.140625 71.796875 
Q 19.390625 75.984375 28.609375 75.984375 
z
" id="DejaVuSans-66"/>
      <path d="M 44.28125 53.078125 
L 44.28125 44.578125 
Q 40.484375 46.53125 36.375 47.5 
Q 32.28125 48.484375 27.875 48.484375 
Q 21.1875 48.484375 17.84375 46.4375 
Q 14.5 44.390625 14.5 40.28125 
Q 14.5 37.15625 16.890625 35.375 
Q 19.28125 33.59375 26.515625 31.984375 
L 29.59375 31.296875 
Q 39.15625 29.25 43.1875 25.515625 
Q 47.21875 21.78125 47.21875 15.09375 
Q 47.21875 7.46875 41.1875 3.015625 
Q 35.15625 -1.421875 24.609375 -1.421875 
Q 20.21875 -1.421875 15.453125 -0.5625 
Q 10.6875 0.296875 5.421875 2 
L 5.421875 11.28125 
Q 10.40625 8.6875 15.234375 7.390625 
Q 20.0625 6.109375 24.8125 6.109375 
Q 31.15625 6.109375 34.5625 8.28125 
Q 37.984375 10.453125 37.984375 14.40625 
Q 37.984375 18.0625 35.515625 20.015625 
Q 33.0625 21.96875 24.703125 23.78125 
L 21.578125 24.515625 
Q 13.234375 26.265625 9.515625 29.90625 
Q 5.8125 33.546875 5.8125 39.890625 
Q 5.8125 47.609375 11.28125 51.796875 
Q 16.75 56 26.8125 56 
Q 31.78125 56 36.171875 55.265625 
Q 40.578125 54.546875 44.28125 53.078125 
z
" id="DejaVuSans-73"/>
     </defs>
     <g transform="translate(12.707812 213.503781)rotate(-90)scale(0.1 -0.1)">
      <use xlink:href="#DejaVuSans-41"/>
      <use x="68.330078" xlink:href="#DejaVuSans-76"/>
      <use x="127.509766" xlink:href="#DejaVuSans-65"/>
      <use x="189.033203" xlink:href="#DejaVuSans-72"/>
      <use x="230.146484" xlink:href="#DejaVuSans-61"/>
      <use x="291.425781" xlink:href="#DejaVuSans-67"/>
      <use x="354.902344" xlink:href="#DejaVuSans-65"/>
      <use x="416.425781" xlink:href="#DejaVuSans-20"/>
      <use x="448.212891" xlink:href="#DejaVuSans-66"/>
      <use x="483.417969" xlink:href="#DejaVuSans-69"/>
      <use x="511.201172" xlink:href="#DejaVuSans-74"/>
      <use x="550.410156" xlink:href="#DejaVuSans-6e"/>
      <use x="613.789062" xlink:href="#DejaVuSans-65"/>
      <use x="675.3125" xlink:href="#DejaVuSans-73"/>
      <use x="727.412109" xlink:href="#DejaVuSans-73"/>
     </g>
    </g>
   </g>
   <g id="line2d_15">
    <path clip-path="url(#p7975f8dcbd)" d="M 73.832727 54.523789 
L 74.57906 85.07961 
L 75.325392 101.213393 
L 76.071724 111.383176 
L 76.818056 118.979919 
L 77.564389 124.73789 
L 78.310721 129.37277 
L 79.057053 133.144807 
L 80.549718 139.167673 
L 81.29605 141.703535 
L 83.535047 147.797659 
L 86.520376 154.145835 
L 88.013041 157.259508 
L 90.252038 160.986621 
L 91.744702 163.437283 
L 97.715361 171.996011 
L 99.208025 173.816193 
L 104.432351 179.967633 
L 105.925016 181.33703 
L 107.41768 182.958928 
L 108.164013 183.352397 
L 108.910345 186.009088 
L 109.656677 187.917568 
L 110.403009 190.679598 
L 111.149342 192.981547 
L 112.642006 196.834137 
L 113.388339 198.926959 
L 115.627335 203.400734 
L 116.373668 204.658595 
L 117.12 205.67325 
L 117.866332 205.329352 
L 118.612665 206.949701 
L 120.851661 210.785251 
L 122.344326 212.701476 
L 123.090658 212.902858 
L 123.836991 213.99032 
L 124.583323 213.239011 
L 125.329655 214.749375 
L 126.075987 215.897251 
L 127.568652 217.740669 
L 128.314984 212.893563 
L 129.061317 215.750087 
L 129.807649 215.02976 
L 130.553981 217.644626 
L 131.300313 219.588735 
L 132.046646 220.437637 
L 133.53931 223.893659 
L 135.031975 226.691317 
L 137.270972 229.53235 
L 138.017304 226.128997 
L 139.509969 229.818932 
L 140.256301 228.85075 
L 141.002633 227.199419 
L 141.748966 229.775558 
L 143.24163 232.889231 
L 143.987962 234.188918 
L 144.734295 235.113725 
L 145.480627 236.416511 
L 146.226959 237.483835 
L 146.973292 238.215006 
L 147.719624 239.170795 
L 148.465956 239.709879 
L 149.212288 235.686889 
L 149.958621 234.4755 
L 150.704953 236.225973 
L 152.197618 239.00814 
L 152.94395 238.232046 
L 153.690282 239.101086 
L 154.436614 239.135166 
L 155.929279 241.939021 
L 156.675611 239.745508 
L 158.168276 243.203079 
L 158.914608 241.841428 
L 159.66094 243.495857 
L 161.153605 246.019326 
L 164.138934 249.103567 
L 164.885266 249.42113 
L 165.631599 250.10273 
L 166.377931 250.623225 
L 167.124263 250.863334 
L 167.870596 251.462832 
L 168.616928 251.817574 
L 169.36326 252.35356 
L 170.109592 252.548745 
L 170.855925 252.999531 
L 171.602257 246.367872 
L 173.094922 250.301014 
L 173.841254 251.332709 
L 174.587586 252.093312 
L 175.333918 248.666723 
L 176.080251 248.720941 
L 176.826583 249.239887 
L 177.572915 247.816272 
L 179.06558 251.213429 
L 179.811912 252.458898 
L 180.558245 253.335683 
L 182.050909 255.306127 
L 182.797241 255.869996 
L 183.543574 256.134891 
L 184.289906 255.826622 
L 185.036238 254.788731 
L 186.528903 256.56244 
L 188.021567 258.170397 
L 188.7679 258.875233 
L 189.514232 259.312077 
L 190.260564 254.455676 
L 191.753229 254.128818 
L 193.245893 256.991538 
L 193.992226 257.580193 
L 194.738558 258.810171 
L 195.48489 258.119277 
L 196.231223 259.099851 
L 196.977555 256.232484 
L 197.723887 257.982957 
L 198.470219 254.884775 
L 199.216552 256.624404 
L 199.962884 258.046469 
L 202.201881 261.219008 
L 202.948213 261.672891 
L 204.440878 263.273103 
L 205.18721 263.861757 
L 205.933542 263.984135 
L 206.679875 264.706012 
L 207.426207 260.492484 
L 208.172539 261.708521 
L 208.918871 262.168601 
L 209.665204 263.486877 
L 210.411536 264.284659 
L 211.157868 261.002135 
L 211.904201 262.580659 
L 214.143197 265.393808 
L 214.88953 265.71447 
L 215.635862 264.823743 
L 216.382194 265.798121 
L 218.621191 267.670972 
L 219.367524 268.081481 
L 220.113856 266.911917 
L 220.860188 261.240695 
L 221.60652 263.118193 
L 222.352853 264.506179 
L 223.099185 260.978899 
L 223.845517 262.802179 
L 224.59185 264.168477 
L 226.084514 266.303125 
L 226.830846 266.826717 
L 228.323511 268.519874 
L 229.069843 263.051583 
L 229.816176 265.212565 
L 230.562508 265.846143 
L 231.30884 260.588528 
L 232.055172 262.941597 
L 232.801505 264.668834 
L 233.547837 265.125815 
L 235.040502 267.697307 
L 237.279498 270.169656 
L 238.025831 269.371874 
L 238.772163 270.467081 
L 240.264828 271.876754 
L 241.01116 272.377111 
L 241.757492 269.87378 
L 242.503824 270.993772 
L 243.250157 268.846732 
L 243.996489 267.218637 
L 244.742821 268.95207 
L 245.489154 270.211481 
L 246.235486 271.195154 
L 246.981818 264.515474 
L 247.72815 267.096259 
L 248.474483 268.938129 
L 249.220815 270.439198 
L 249.967147 271.525111 
L 252.206144 273.940144 
L 253.698809 274.860304 
L 254.445141 275.404035 
L 255.937806 276.204915 
L 256.684138 274.881991 
L 257.43047 275.602318 
L 258.176803 271.982092 
L 258.923135 273.495554 
L 259.669467 272.875918 
L 260.415799 274.053227 
L 261.162132 271.539052 
L 261.908464 272.967314 
L 263.401129 274.956347 
L 264.147461 274.521053 
L 264.893793 275.362209 
L 265.640125 271.920129 
L 266.386458 271.749729 
L 267.13279 269.215416 
L 267.879122 271.374849 
L 269.371787 274.318122 
L 270.118119 275.046195 
L 270.864451 276.183227 
L 271.610784 276.686682 
L 272.357116 277.45658 
L 273.103448 277.904268 
L 273.849781 276.725409 
L 274.596113 277.665707 
L 275.342445 276.634013 
L 276.83511 278.379838 
L 278.327774 279.588129 
L 279.074107 279.955264 
L 279.820439 280.670944 
L 280.566771 277.496857 
L 281.313103 278.657126 
L 282.059436 270.140223 
L 282.805768 270.866747 
L 283.5521 272.80466 
L 284.298433 274.380085 
L 285.791097 276.683584 
L 286.537429 275.236733 
L 287.283762 276.641758 
L 288.030094 277.569664 
L 288.776426 274.033089 
L 289.522759 275.90594 
L 290.269091 277.332653 
L 291.015423 278.443351 
L 293.25442 280.751497 
L 294.000752 280.260435 
L 294.747085 278.805838 
L 295.493417 279.848377 
L 296.986082 281.32621 
L 297.732414 276.287016 
L 298.478746 276.387707 
L 299.225078 278.288442 
L 299.971411 279.485889 
L 300.717743 274.586114 
L 301.464075 275.425722 
L 302.210408 272.646652 
L 302.95674 275.174769 
L 303.703072 274.460638 
L 304.449404 276.646406 
L 305.195737 278.234224 
L 305.942069 279.487439 
L 307.434734 281.261148 
L 308.181066 277.38842 
L 308.927398 279.07538 
L 309.67373 276.494595 
L 310.420063 275.298696 
L 311.166395 277.828362 
L 312.65906 280.567155 
L 314.898056 282.858261 
L 317.137053 284.777584 
L 317.883386 285.217526 
L 319.37605 286.277105 
L 320.868715 286.732537 
L 321.615047 287.108967 
L 322.361379 287.152341 
L 323.107712 287.429628 
L 323.854044 287.513279 
L 324.600376 287.909847 
L 325.346708 288.002792 
L 326.093041 288.335847 
L 326.839373 285.970385 
L 327.585705 286.678319 
L 328.332038 278.771758 
L 329.07837 281.131024 
L 329.824702 282.870653 
L 330.571034 283.942624 
L 331.317367 285.31357 
L 332.063699 279.848377 
L 332.810031 281.935002 
L 335.049028 285.589308 
L 335.795361 286.167119 
L 336.541693 286.991236 
L 337.288025 287.445119 
L 338.034357 284.047963 
L 338.78069 285.404966 
L 340.273354 287.186421 
L 341.019687 287.706916 
L 341.766019 285.265548 
L 342.512351 285.956443 
L 343.258683 287.037708 
L 344.005016 287.691425 
L 346.990345 289.474429 
L 347.736677 289.67581 
L 348.483009 290.168421 
L 349.229342 290.259818 
L 349.975674 290.574283 
L 350.722006 290.724545 
L 352.214671 291.29616 
L 354.453668 291.904952 
L 355.946332 292.2504 
L 356.692665 292.200829 
L 357.438997 292.354189 
L 358.931661 292.440938 
L 359.677994 292.640771 
L 360.424326 292.620632 
L 361.170658 292.832858 
L 361.916991 292.823563 
L 362.663323 292.989316 
L 363.409655 291.113367 
L 365.648652 292.600494 
L 366.394984 292.677949 
L 367.141317 291.478952 
L 367.887649 291.923541 
L 368.633981 292.499803 
L 371.61931 293.367294 
L 372.365643 293.447847 
L 373.111975 293.680211 
L 374.604639 293.819629 
L 375.350972 294.149585 
L 376.097304 294.075229 
L 376.843636 294.496582 
L 377.589969 294.502778 
L 378.336301 290.337272 
L 379.082633 283.632806 
L 379.828966 285.868145 
L 380.575298 283.539861 
L 381.32163 285.27949 
L 382.067962 286.476937 
L 383.560627 288.425694 
L 384.306959 280.416893 
L 385.053292 283.594079 
L 385.799624 285.747315 
L 387.292288 288.885774 
L 388.784953 290.837629 
L 389.531285 291.595134 
L 392.516614 293.525302 
L 393.262947 293.793294 
L 394.755611 294.625156 
L 396.994608 295.051156 
L 398.487273 295.488 
L 398.487273 295.488 
" style="fill:none;stroke:#1f77b4;stroke-linecap:square;stroke-width:1.5;"/>
   </g>
   <g id="line2d_16">
    <path clip-path="url(#p7975f8dcbd)" d="M 73.832727 53.568 
L 74.57906 84.334497 
L 75.325392 100.539539 
L 76.071724 111.085751 
L 76.818056 118.849795 
L 77.564389 124.77197 
L 78.310721 129.541621 
L 79.057053 133.479411 
L 80.549718 139.339622 
L 81.29605 142.025746 
L 83.535047 148.087339 
L 85.027712 151.551107 
L 87.266708 156.100787 
L 89.505705 160.213624 
L 90.252038 161.722439 
L 92.491034 165.271406 
L 93.983699 167.485058 
L 94.730031 168.682505 
L 96.222696 170.487196 
L 96.969028 171.69084 
L 97.715361 172.439051 
L 100.70069 176.361349 
L 102.193354 177.8082 
L 102.939687 178.839895 
L 103.686019 179.540084 
L 104.432351 180.429262 
L 105.925016 181.859073 
L 107.41768 183.528994 
L 108.164013 184.010761 
L 108.910345 184.669125 
L 110.403009 187.144572 
L 111.895674 189.27767 
L 113.388339 191.619896 
L 114.134671 192.337125 
L 114.881003 193.375016 
L 115.627335 194.081402 
L 117.12 196.019315 
L 117.866332 195.439955 
L 118.612665 197.675293 
L 119.358997 199.531104 
L 120.851661 202.16301 
L 121.597994 201.893468 
L 122.344326 203.558741 
L 123.090658 205.58805 
L 124.583323 208.326843 
L 126.075987 211.135345 
L 126.82232 209.146312 
L 128.314984 213.878785 
L 129.061317 215.457309 
L 129.807649 216.729113 
L 130.553981 218.529157 
L 131.300313 215.821346 
L 133.53931 221.19979 
L 134.285643 222.559892 
L 138.017304 227.295463 
L 138.763636 227.126612 
L 139.509969 228.235761 
L 141.002633 229.760067 
L 141.748966 230.224794 
L 142.495298 226.920583 
L 143.24163 226.393892 
L 143.987962 228.119579 
L 144.734295 229.555587 
L 145.480627 230.1303 
L 146.226959 228.043674 
L 146.973292 230.1303 
L 149.212288 234.311296 
L 150.704953 235.964176 
L 151.451285 236.260053 
L 152.197618 234.666038 
L 153.690282 237.547348 
L 154.436614 235.686889 
L 155.182947 237.502424 
L 155.929279 237.229784 
L 156.675611 236.682955 
L 158.168276 236.506358 
L 159.66094 239.714526 
L 160.407273 241.306991 
L 161.899937 243.077603 
L 163.392602 245.061988 
L 164.138934 244.039588 
L 164.885266 245.099166 
L 166.377931 246.594039 
L 167.124263 247.528141 
L 167.870596 248.081167 
L 168.616928 248.386338 
L 169.36326 246.696279 
L 170.109592 247.535887 
L 170.855925 248.75657 
L 171.602257 247.738818 
L 172.348589 248.428163 
L 173.841254 250.349036 
L 174.587586 250.813763 
L 176.080251 251.96164 
L 176.826583 250.129065 
L 177.572915 251.221174 
L 178.319248 252.008112 
L 179.06558 251.665763 
L 179.811912 245.875261 
L 180.558245 245.966657 
L 181.304577 244.860606 
L 182.050909 247.143967 
L 182.797241 245.666134 
L 183.543574 247.551377 
L 184.289906 245.508126 
L 185.036238 247.954141 
L 185.782571 249.734047 
L 187.275235 252.194003 
L 188.021567 252.663378 
L 188.7679 253.698171 
L 189.514232 253.907298 
L 191.006897 255.840564 
L 191.753229 256.268113 
L 192.499561 257.075189 
L 193.992226 258.151808 
L 194.738558 258.684695 
L 195.48489 256.604266 
L 196.231223 257.575546 
L 196.977555 252.914331 
L 197.723887 254.798025 
L 198.470219 254.446382 
L 199.216552 253.476651 
L 199.962884 255.468782 
L 200.709216 254.141211 
L 201.455549 255.84676 
L 202.948213 258.250949 
L 205.18721 260.689219 
L 208.172539 262.754157 
L 208.918871 262.501655 
L 210.411536 263.637139 
L 211.157868 264.224244 
L 213.396865 265.087088 
L 214.143197 257.591037 
L 214.88953 255.515255 
L 215.635862 256.573284 
L 216.382194 258.495706 
L 217.128527 260.041699 
L 217.874859 261.263931 
L 218.621191 262.157757 
L 219.367524 262.569815 
L 220.113856 263.418717 
L 223.099185 265.912754 
L 223.845517 266.303125 
L 225.338182 267.254267 
L 226.084514 267.420019 
L 226.830846 268.045852 
L 227.577179 268.303001 
L 228.323511 268.716608 
L 230.562508 269.282027 
L 231.30884 268.124856 
L 232.801505 269.215416 
L 233.547837 269.585649 
L 234.294169 264.693619 
L 235.040502 266.211728 
L 235.786834 267.292994 
L 236.533166 268.10007 
L 237.279498 268.57719 
L 238.025831 264.414783 
L 238.772163 262.882732 
L 239.518495 264.458157 
L 240.264828 265.657154 
L 241.01116 265.762492 
L 241.757492 267.096259 
L 242.503824 267.799547 
L 243.250157 268.663939 
L 244.742821 269.774638 
L 246.235486 270.634383 
L 246.981818 270.93026 
L 248.474483 271.74818 
L 250.71348 272.445271 
L 253.698809 273.445983 
L 254.445141 273.616383 
L 255.191473 273.986616 
L 255.191473 273.986616 
" style="fill:none;stroke:#ff7f0e;stroke-linecap:square;stroke-width:1.5;"/>
   </g>
   <g id="patch_3">
    <path d="M 57.6 307.584 
L 57.6 41.472 
" style="fill:none;stroke:#000000;stroke-linecap:square;stroke-linejoin:miter;stroke-width:0.8;"/>
   </g>
   <g id="patch_4">
    <path d="M 414.72 307.584 
L 414.72 41.472 
" style="fill:none;stroke:#000000;stroke-linecap:square;stroke-linejoin:miter;stroke-width:0.8;"/>
   </g>
   <g id="patch_5">
    <path d="M 57.6 307.584 
L 414.72 307.584 
" style="fill:none;stroke:#000000;stroke-linecap:square;stroke-linejoin:miter;stroke-width:0.8;"/>
   </g>
   <g id="patch_6">
    <path d="M 57.6 41.472 
L 414.72 41.472 
" style="fill:none;stroke:#000000;stroke-linecap:square;stroke-linejoin:miter;stroke-width:0.8;"/>
   </g>
   <g id="text_17">
    <!-- Average fitness over 30 seconds for52cities -->
    <defs>
     <path d="M 48.78125 52.59375 
L 48.78125 44.1875 
Q 44.96875 46.296875 41.140625 47.34375 
Q 37.3125 48.390625 33.40625 48.390625 
Q 24.65625 48.390625 19.8125 42.84375 
Q 14.984375 37.3125 14.984375 27.296875 
Q 14.984375 17.28125 19.8125 11.734375 
Q 24.65625 6.203125 33.40625 6.203125 
Q 37.3125 6.203125 41.140625 7.25 
Q 44.96875 8.296875 48.78125 10.40625 
L 48.78125 2.09375 
Q 45.015625 0.34375 40.984375 -0.53125 
Q 36.96875 -1.421875 32.421875 -1.421875 
Q 20.0625 -1.421875 12.78125 6.34375 
Q 5.515625 14.109375 5.515625 27.296875 
Q 5.515625 40.671875 12.859375 48.328125 
Q 20.21875 56 33.015625 56 
Q 37.15625 56 41.109375 55.140625 
Q 45.0625 54.296875 48.78125 52.59375 
z
" id="DejaVuSans-63"/>
     <path d="M 45.40625 46.390625 
L 45.40625 75.984375 
L 54.390625 75.984375 
L 54.390625 0 
L 45.40625 0 
L 45.40625 8.203125 
Q 42.578125 3.328125 38.25 0.953125 
Q 33.9375 -1.421875 27.875 -1.421875 
Q 17.96875 -1.421875 11.734375 6.484375 
Q 5.515625 14.40625 5.515625 27.296875 
Q 5.515625 40.1875 11.734375 48.09375 
Q 17.96875 56 27.875 56 
Q 33.9375 56 38.25 53.625 
Q 42.578125 51.265625 45.40625 46.390625 
z
M 14.796875 27.296875 
Q 14.796875 17.390625 18.875 11.75 
Q 22.953125 6.109375 30.078125 6.109375 
Q 37.203125 6.109375 41.296875 11.75 
Q 45.40625 17.390625 45.40625 27.296875 
Q 45.40625 37.203125 41.296875 42.84375 
Q 37.203125 48.484375 30.078125 48.484375 
Q 22.953125 48.484375 18.875 42.84375 
Q 14.796875 37.203125 14.796875 27.296875 
z
" id="DejaVuSans-64"/>
     <path d="M 10.796875 72.90625 
L 49.515625 72.90625 
L 49.515625 64.59375 
L 19.828125 64.59375 
L 19.828125 46.734375 
Q 21.96875 47.46875 24.109375 47.828125 
Q 26.265625 48.1875 28.421875 48.1875 
Q 40.625 48.1875 47.75 41.5 
Q 54.890625 34.8125 54.890625 23.390625 
Q 54.890625 11.625 47.5625 5.09375 
Q 40.234375 -1.421875 26.90625 -1.421875 
Q 22.3125 -1.421875 17.546875 -0.640625 
Q 12.796875 0.140625 7.71875 1.703125 
L 7.71875 11.625 
Q 12.109375 9.234375 16.796875 8.0625 
Q 21.484375 6.890625 26.703125 6.890625 
Q 35.15625 6.890625 40.078125 11.328125 
Q 45.015625 15.765625 45.015625 23.390625 
Q 45.015625 31 40.078125 35.4375 
Q 35.15625 39.890625 26.703125 39.890625 
Q 22.75 39.890625 18.8125 39.015625 
Q 14.890625 38.140625 10.796875 36.28125 
z
" id="DejaVuSans-35"/>
    </defs>
    <g transform="translate(104.533125 35.472)scale(0.12 -0.12)">
     <use xlink:href="#DejaVuSans-41"/>
     <use x="68.330078" xlink:href="#DejaVuSans-76"/>
     <use x="127.509766" xlink:href="#DejaVuSans-65"/>
     <use x="189.033203" xlink:href="#DejaVuSans-72"/>
     <use x="230.146484" xlink:href="#DejaVuSans-61"/>
     <use x="291.425781" xlink:href="#DejaVuSans-67"/>
     <use x="354.902344" xlink:href="#DejaVuSans-65"/>
     <use x="416.425781" xlink:href="#DejaVuSans-20"/>
     <use x="448.212891" xlink:href="#DejaVuSans-66"/>
     <use x="483.417969" xlink:href="#DejaVuSans-69"/>
     <use x="511.201172" xlink:href="#DejaVuSans-74"/>
     <use x="550.410156" xlink:href="#DejaVuSans-6e"/>
     <use x="613.789062" xlink:href="#DejaVuSans-65"/>
     <use x="675.3125" xlink:href="#DejaVuSans-73"/>
     <use x="727.412109" xlink:href="#DejaVuSans-73"/>
     <use x="779.511719" xlink:href="#DejaVuSans-20"/>
     <use x="811.298828" xlink:href="#DejaVuSans-6f"/>
     <use x="872.480469" xlink:href="#DejaVuSans-76"/>
     <use x="931.660156" xlink:href="#DejaVuSans-65"/>
     <use x="993.183594" xlink:href="#DejaVuSans-72"/>
     <use x="1034.296875" xlink:href="#DejaVuSans-20"/>
     <use x="1066.083984" xlink:href="#DejaVuSans-33"/>
     <use x="1129.707031" xlink:href="#DejaVuSans-30"/>
     <use x="1193.330078" xlink:href="#DejaVuSans-20"/>
     <use x="1225.117188" xlink:href="#DejaVuSans-73"/>
     <use x="1277.216797" xlink:href="#DejaVuSans-65"/>
     <use x="1338.740234" xlink:href="#DejaVuSans-63"/>
     <use x="1393.720703" xlink:href="#DejaVuSans-6f"/>
     <use x="1454.902344" xlink:href="#DejaVuSans-6e"/>
     <use x="1518.28125" xlink:href="#DejaVuSans-64"/>
     <use x="1581.757812" xlink:href="#DejaVuSans-73"/>
     <use x="1633.857422" xlink:href="#DejaVuSans-20"/>
     <use x="1665.644531" xlink:href="#DejaVuSans-66"/>
     <use x="1700.849609" xlink:href="#DejaVuSans-6f"/>
     <use x="1762.03125" xlink:href="#DejaVuSans-72"/>
     <use x="1803.144531" xlink:href="#DejaVuSans-35"/>
     <use x="1866.767578" xlink:href="#DejaVuSans-32"/>
     <use x="1930.390625" xlink:href="#DejaVuSans-63"/>
     <use x="1985.371094" xlink:href="#DejaVuSans-69"/>
     <use x="2013.154297" xlink:href="#DejaVuSans-74"/>
     <use x="2052.363281" xlink:href="#DejaVuSans-69"/>
     <use x="2080.146484" xlink:href="#DejaVuSans-65"/>
     <use x="2141.669922" xlink:href="#DejaVuSans-73"/>
    </g>
   </g>
   <g id="legend_1">
    <g id="patch_7">
     <path d="M 112.11375 78.82825 
L 407.72 78.82825 
Q 409.72 78.82825 409.72 76.82825 
L 409.72 48.472 
Q 409.72 46.472 407.72 46.472 
L 112.11375 46.472 
Q 110.11375 46.472 110.11375 48.472 
L 110.11375 76.82825 
Q 110.11375 78.82825 112.11375 78.82825 
z
" style="fill:#ffffff;opacity:0.8;stroke:#cccccc;stroke-linejoin:miter;"/>
    </g>
    <g id="patch_8">
     <path d="M 114.11375 58.070437 
L 134.11375 58.070437 
L 134.11375 51.070437 
L 114.11375 51.070437 
z
" style="fill:#87ceeb;stroke:#87ceeb;stroke-linejoin:miter;"/>
    </g>
    <g id="text_18">
     <!-- Parallel min, 12594.6 Last Generation number 437.0 -->
     <defs>
      <path d="M 19.671875 64.796875 
L 19.671875 37.40625 
L 32.078125 37.40625 
Q 38.96875 37.40625 42.71875 40.96875 
Q 46.484375 44.53125 46.484375 51.125 
Q 46.484375 57.671875 42.71875 61.234375 
Q 38.96875 64.796875 32.078125 64.796875 
z
M 9.8125 72.90625 
L 32.078125 72.90625 
Q 44.34375 72.90625 50.609375 67.359375 
Q 56.890625 61.8125 56.890625 51.125 
Q 56.890625 40.328125 50.609375 34.8125 
Q 44.34375 29.296875 32.078125 29.296875 
L 19.671875 29.296875 
L 19.671875 0 
L 9.8125 0 
z
" id="DejaVuSans-50"/>
      <path d="M 9.421875 75.984375 
L 18.40625 75.984375 
L 18.40625 0 
L 9.421875 0 
z
" id="DejaVuSans-6c"/>
      <path d="M 11.71875 12.40625 
L 22.015625 12.40625 
L 22.015625 4 
L 14.015625 -11.625 
L 7.71875 -11.625 
L 11.71875 4 
z
" id="DejaVuSans-2c"/>
      <path d="M 10.984375 1.515625 
L 10.984375 10.5 
Q 14.703125 8.734375 18.5 7.8125 
Q 22.3125 6.890625 25.984375 6.890625 
Q 35.75 6.890625 40.890625 13.453125 
Q 46.046875 20.015625 46.78125 33.40625 
Q 43.953125 29.203125 39.59375 26.953125 
Q 35.25 24.703125 29.984375 24.703125 
Q 19.046875 24.703125 12.671875 31.3125 
Q 6.296875 37.9375 6.296875 49.421875 
Q 6.296875 60.640625 12.9375 67.421875 
Q 19.578125 74.21875 30.609375 74.21875 
Q 43.265625 74.21875 49.921875 64.515625 
Q 56.59375 54.828125 56.59375 36.375 
Q 56.59375 19.140625 48.40625 8.859375 
Q 40.234375 -1.421875 26.421875 -1.421875 
Q 22.703125 -1.421875 18.890625 -0.6875 
Q 15.09375 0.046875 10.984375 1.515625 
z
M 30.609375 32.421875 
Q 37.25 32.421875 41.125 36.953125 
Q 45.015625 41.5 45.015625 49.421875 
Q 45.015625 57.28125 41.125 61.84375 
Q 37.25 66.40625 30.609375 66.40625 
Q 23.96875 66.40625 20.09375 61.84375 
Q 16.21875 57.28125 16.21875 49.421875 
Q 16.21875 41.5 20.09375 36.953125 
Q 23.96875 32.421875 30.609375 32.421875 
z
" id="DejaVuSans-39"/>
      <path d="M 10.6875 12.40625 
L 21 12.40625 
L 21 0 
L 10.6875 0 
z
" id="DejaVuSans-2e"/>
      <path d="M 9.8125 72.90625 
L 19.671875 72.90625 
L 19.671875 8.296875 
L 55.171875 8.296875 
L 55.171875 0 
L 9.8125 0 
z
" id="DejaVuSans-4c"/>
      <path d="M 8.203125 72.90625 
L 55.078125 72.90625 
L 55.078125 68.703125 
L 28.609375 0 
L 18.3125 0 
L 43.21875 64.59375 
L 8.203125 64.59375 
z
" id="DejaVuSans-37"/>
     </defs>
     <g transform="translate(142.11375 58.070437)scale(0.1 -0.1)">
      <use xlink:href="#DejaVuSans-50"/>
      <use x="60.240234" xlink:href="#DejaVuSans-61"/>
      <use x="121.519531" xlink:href="#DejaVuSans-72"/>
      <use x="162.632812" xlink:href="#DejaVuSans-61"/>
      <use x="223.912109" xlink:href="#DejaVuSans-6c"/>
      <use x="251.695312" xlink:href="#DejaVuSans-6c"/>
      <use x="279.478516" xlink:href="#DejaVuSans-65"/>
      <use x="341.001953" xlink:href="#DejaVuSans-6c"/>
      <use x="368.785156" xlink:href="#DejaVuSans-20"/>
      <use x="400.572266" xlink:href="#DejaVuSans-6d"/>
      <use x="497.984375" xlink:href="#DejaVuSans-69"/>
      <use x="525.767578" xlink:href="#DejaVuSans-6e"/>
      <use x="589.146484" xlink:href="#DejaVuSans-2c"/>
      <use x="620.933594" xlink:href="#DejaVuSans-20"/>
      <use x="652.720703" xlink:href="#DejaVuSans-31"/>
      <use x="716.34375" xlink:href="#DejaVuSans-32"/>
      <use x="779.966797" xlink:href="#DejaVuSans-35"/>
      <use x="843.589844" xlink:href="#DejaVuSans-39"/>
      <use x="907.212891" xlink:href="#DejaVuSans-34"/>
      <use x="970.835938" xlink:href="#DejaVuSans-2e"/>
      <use x="1002.623047" xlink:href="#DejaVuSans-36"/>
      <use x="1066.246094" xlink:href="#DejaVuSans-20"/>
      <use x="1098.033203" xlink:href="#DejaVuSans-4c"/>
      <use x="1153.746094" xlink:href="#DejaVuSans-61"/>
      <use x="1215.025391" xlink:href="#DejaVuSans-73"/>
      <use x="1267.125" xlink:href="#DejaVuSans-74"/>
      <use x="1306.333984" xlink:href="#DejaVuSans-20"/>
      <use x="1338.121094" xlink:href="#DejaVuSans-47"/>
      <use x="1415.611328" xlink:href="#DejaVuSans-65"/>
      <use x="1477.134766" xlink:href="#DejaVuSans-6e"/>
      <use x="1540.513672" xlink:href="#DejaVuSans-65"/>
      <use x="1602.037109" xlink:href="#DejaVuSans-72"/>
      <use x="1643.150391" xlink:href="#DejaVuSans-61"/>
      <use x="1704.429688" xlink:href="#DejaVuSans-74"/>
      <use x="1743.638672" xlink:href="#DejaVuSans-69"/>
      <use x="1771.421875" xlink:href="#DejaVuSans-6f"/>
      <use x="1832.603516" xlink:href="#DejaVuSans-6e"/>
      <use x="1895.982422" xlink:href="#DejaVuSans-20"/>
      <use x="1927.769531" xlink:href="#DejaVuSans-6e"/>
      <use x="1991.148438" xlink:href="#DejaVuSans-75"/>
      <use x="2054.527344" xlink:href="#DejaVuSans-6d"/>
      <use x="2151.939453" xlink:href="#DejaVuSans-62"/>
      <use x="2215.416016" xlink:href="#DejaVuSans-65"/>
      <use x="2276.939453" xlink:href="#DejaVuSans-72"/>
      <use x="2318.052734" xlink:href="#DejaVuSans-20"/>
      <use x="2349.839844" xlink:href="#DejaVuSans-34"/>
      <use x="2413.462891" xlink:href="#DejaVuSans-33"/>
      <use x="2477.085938" xlink:href="#DejaVuSans-37"/>
      <use x="2540.708984" xlink:href="#DejaVuSans-2e"/>
      <use x="2572.496094" xlink:href="#DejaVuSans-30"/>
     </g>
    </g>
    <g id="patch_9">
     <path d="M 114.11375 72.748562 
L 134.11375 72.748562 
L 134.11375 65.748562 
L 114.11375 65.748562 
z
" style="fill:#ffa500;stroke:#ffa500;stroke-linejoin:miter;"/>
    </g>
    <g id="text_19">
     <!-- Serial min, 13982.6 Last Generation number 245.0 -->
     <defs>
      <path d="M 53.515625 70.515625 
L 53.515625 60.890625 
Q 47.90625 63.578125 42.921875 64.890625 
Q 37.9375 66.21875 33.296875 66.21875 
Q 25.25 66.21875 20.875 63.09375 
Q 16.5 59.96875 16.5 54.203125 
Q 16.5 49.359375 19.40625 46.890625 
Q 22.3125 44.4375 30.421875 42.921875 
L 36.375 41.703125 
Q 47.40625 39.59375 52.65625 34.296875 
Q 57.90625 29 57.90625 20.125 
Q 57.90625 9.515625 50.796875 4.046875 
Q 43.703125 -1.421875 29.984375 -1.421875 
Q 24.8125 -1.421875 18.96875 -0.25 
Q 13.140625 0.921875 6.890625 3.21875 
L 6.890625 13.375 
Q 12.890625 10.015625 18.65625 8.296875 
Q 24.421875 6.59375 29.984375 6.59375 
Q 38.421875 6.59375 43.015625 9.90625 
Q 47.609375 13.234375 47.609375 19.390625 
Q 47.609375 24.75 44.3125 27.78125 
Q 41.015625 30.8125 33.5 32.328125 
L 27.484375 33.5 
Q 16.453125 35.6875 11.515625 40.375 
Q 6.59375 45.0625 6.59375 53.421875 
Q 6.59375 63.09375 13.40625 68.65625 
Q 20.21875 74.21875 32.171875 74.21875 
Q 37.3125 74.21875 42.625 73.28125 
Q 47.953125 72.359375 53.515625 70.515625 
z
" id="DejaVuSans-53"/>
     </defs>
     <g transform="translate(142.11375 72.748562)scale(0.1 -0.1)">
      <use xlink:href="#DejaVuSans-53"/>
      <use x="63.476562" xlink:href="#DejaVuSans-65"/>
      <use x="125" xlink:href="#DejaVuSans-72"/>
      <use x="166.113281" xlink:href="#DejaVuSans-69"/>
      <use x="193.896484" xlink:href="#DejaVuSans-61"/>
      <use x="255.175781" xlink:href="#DejaVuSans-6c"/>
      <use x="282.958984" xlink:href="#DejaVuSans-20"/>
      <use x="314.746094" xlink:href="#DejaVuSans-6d"/>
      <use x="412.158203" xlink:href="#DejaVuSans-69"/>
      <use x="439.941406" xlink:href="#DejaVuSans-6e"/>
      <use x="503.320312" xlink:href="#DejaVuSans-2c"/>
      <use x="535.107422" xlink:href="#DejaVuSans-20"/>
      <use x="566.894531" xlink:href="#DejaVuSans-31"/>
      <use x="630.517578" xlink:href="#DejaVuSans-33"/>
      <use x="694.140625" xlink:href="#DejaVuSans-39"/>
      <use x="757.763672" xlink:href="#DejaVuSans-38"/>
      <use x="821.386719" xlink:href="#DejaVuSans-32"/>
      <use x="885.009766" xlink:href="#DejaVuSans-2e"/>
      <use x="916.796875" xlink:href="#DejaVuSans-36"/>
      <use x="980.419922" xlink:href="#DejaVuSans-20"/>
      <use x="1012.207031" xlink:href="#DejaVuSans-4c"/>
      <use x="1067.919922" xlink:href="#DejaVuSans-61"/>
      <use x="1129.199219" xlink:href="#DejaVuSans-73"/>
      <use x="1181.298828" xlink:href="#DejaVuSans-74"/>
      <use x="1220.507812" xlink:href="#DejaVuSans-20"/>
      <use x="1252.294922" xlink:href="#DejaVuSans-47"/>
      <use x="1329.785156" xlink:href="#DejaVuSans-65"/>
      <use x="1391.308594" xlink:href="#DejaVuSans-6e"/>
      <use x="1454.6875" xlink:href="#DejaVuSans-65"/>
      <use x="1516.210938" xlink:href="#DejaVuSans-72"/>
      <use x="1557.324219" xlink:href="#DejaVuSans-61"/>
      <use x="1618.603516" xlink:href="#DejaVuSans-74"/>
      <use x="1657.8125" xlink:href="#DejaVuSans-69"/>
      <use x="1685.595703" xlink:href="#DejaVuSans-6f"/>
      <use x="1746.777344" xlink:href="#DejaVuSans-6e"/>
      <use x="1810.15625" xlink:href="#DejaVuSans-20"/>
      <use x="1841.943359" xlink:href="#DejaVuSans-6e"/>
      <use x="1905.322266" xlink:href="#DejaVuSans-75"/>
      <use x="1968.701172" xlink:href="#DejaVuSans-6d"/>
      <use x="2066.113281" xlink:href="#DejaVuSans-62"/>
      <use x="2129.589844" xlink:href="#DejaVuSans-65"/>
      <use x="2191.113281" xlink:href="#DejaVuSans-72"/>
      <use x="2232.226562" xlink:href="#DejaVuSans-20"/>
      <use x="2264.013672" xlink:href="#DejaVuSans-32"/>
      <use x="2327.636719" xlink:href="#DejaVuSans-34"/>
      <use x="2391.259766" xlink:href="#DejaVuSans-35"/>
      <use x="2454.882812" xlink:href="#DejaVuSans-2e"/>
      <use x="2486.669922" xlink:href="#DejaVuSans-30"/>
     </g>
    </g>
   </g>
  </g>
 </g>
 <defs>
  <clipPath id="p7975f8dcbd">
   <rect height="266.112" width="357.12" x="57.6" y="41.472"/>
  </clipPath>
 </defs>
</svg>
