<?xml version="1.0" encoding="utf-8" standalone="no"?>
<!DOCTYPE svg PUBLIC "-//W3C//DTD SVG 1.1//EN"
  "http://www.w3.org/Graphics/SVG/1.1/DTD/svg11.dtd">
<!-- Created with matplotlib (http://matplotlib.org/) -->
<svg height="345.6pt" version="1.1" viewBox="0 0 460.8 345.6" width="460.8pt" xmlns="http://www.w3.org/2000/svg" xmlns:xlink="http://www.w3.org/1999/xlink">
 <defs>
  <style type="text/css">
*{stroke-linecap:butt;stroke-linejoin:round;}
  </style>
 </defs>
 <g id="figure_1">
  <g id="patch_1">
   <path d="M 0 345.6 
L 460.8 345.6 
L 460.8 0 
L 0 0 
z
" style="fill:#ffffff;"/>
  </g>
  <g id="axes_1">
   <g id="patch_2">
    <path d="M 57.6 307.584 
L 414.72 307.584 
L 414.72 41.472 
L 57.6 41.472 
z
" style="fill:#ffffff;"/>
   </g>
   <g id="matplotlib.axis_1">
    <g id="xtick_1">
     <g id="line2d_1">
      <defs>
       <path d="M 0 0 
L 0 3.5 
" id="m241d2f953e" style="stroke:#000000;stroke-width:0.8;"/>
      </defs>
      <g>
       <use style="stroke:#000000;stroke-width:0.8;" x="73.554293" xlink:href="#m241d2f953e" y="307.584"/>
      </g>
     </g>
     <g id="text_1">
      <!-- 0 -->
      <defs>
       <path d="M 31.78125 66.40625 
Q 24.171875 66.40625 20.328125 58.90625 
Q 16.5 51.421875 16.5 36.375 
Q 16.5 21.390625 20.328125 13.890625 
Q 24.171875 6.390625 31.78125 6.390625 
Q 39.453125 6.390625 43.28125 13.890625 
Q 47.125 21.390625 47.125 36.375 
Q 47.125 51.421875 43.28125 58.90625 
Q 39.453125 66.40625 31.78125 66.40625 
z
M 31.78125 74.21875 
Q 44.046875 74.21875 50.515625 64.515625 
Q 56.984375 54.828125 56.984375 36.375 
Q 56.984375 17.96875 50.515625 8.265625 
Q 44.046875 -1.421875 31.78125 -1.421875 
Q 19.53125 -1.421875 13.0625 8.265625 
Q 6.59375 17.96875 6.59375 36.375 
Q 6.59375 54.828125 13.0625 64.515625 
Q 19.53125 74.21875 31.78125 74.21875 
z
" id="DejaVuSans-30"/>
      </defs>
      <g transform="translate(70.373043 322.182437)scale(0.1 -0.1)">
       <use xlink:href="#DejaVuSans-30"/>
      </g>
     </g>
    </g>
    <g id="xtick_2">
     <g id="line2d_2">
      <g>
       <use style="stroke:#000000;stroke-width:0.8;" x="129.241179" xlink:href="#m241d2f953e" y="307.584"/>
      </g>
     </g>
     <g id="text_2">
      <!-- 200 -->
      <defs>
       <path d="M 19.1875 8.296875 
L 53.609375 8.296875 
L 53.609375 0 
L 7.328125 0 
L 7.328125 8.296875 
Q 12.9375 14.109375 22.625 23.890625 
Q 32.328125 33.6875 34.8125 36.53125 
Q 39.546875 41.84375 41.421875 45.53125 
Q 43.3125 49.21875 43.3125 52.78125 
Q 43.3125 58.59375 39.234375 62.25 
Q 35.15625 65.921875 28.609375 65.921875 
Q 23.96875 65.921875 18.8125 64.3125 
Q 13.671875 62.703125 7.8125 59.421875 
L 7.8125 69.390625 
Q 13.765625 71.78125 18.9375 73 
Q 24.125 74.21875 28.421875 74.21875 
Q 39.75 74.21875 46.484375 68.546875 
Q 53.21875 62.890625 53.21875 53.421875 
Q 53.21875 48.921875 51.53125 44.890625 
Q 49.859375 40.875 45.40625 35.40625 
Q 44.1875 33.984375 37.640625 27.21875 
Q 31.109375 20.453125 19.1875 8.296875 
z
" id="DejaVuSans-32"/>
      </defs>
      <g transform="translate(119.697429 322.182437)scale(0.1 -0.1)">
       <use xlink:href="#DejaVuSans-32"/>
       <use x="63.623047" xlink:href="#DejaVuSans-30"/>
       <use x="127.246094" xlink:href="#DejaVuSans-30"/>
      </g>
     </g>
    </g>
    <g id="xtick_3">
     <g id="line2d_3">
      <g>
       <use style="stroke:#000000;stroke-width:0.8;" x="184.928065" xlink:href="#m241d2f953e" y="307.584"/>
      </g>
     </g>
     <g id="text_3">
      <!-- 400 -->
      <defs>
       <path d="M 37.796875 64.3125 
L 12.890625 25.390625 
L 37.796875 25.390625 
z
M 35.203125 72.90625 
L 47.609375 72.90625 
L 47.609375 25.390625 
L 58.015625 25.390625 
L 58.015625 17.1875 
L 47.609375 17.1875 
L 47.609375 0 
L 37.796875 0 
L 37.796875 17.1875 
L 4.890625 17.1875 
L 4.890625 26.703125 
z
" id="DejaVuSans-34"/>
      </defs>
      <g transform="translate(175.384315 322.182437)scale(0.1 -0.1)">
       <use xlink:href="#DejaVuSans-34"/>
       <use x="63.623047" xlink:href="#DejaVuSans-30"/>
       <use x="127.246094" xlink:href="#DejaVuSans-30"/>
      </g>
     </g>
    </g>
    <g id="xtick_4">
     <g id="line2d_4">
      <g>
       <use style="stroke:#000000;stroke-width:0.8;" x="240.614951" xlink:href="#m241d2f953e" y="307.584"/>
      </g>
     </g>
     <g id="text_4">
      <!-- 600 -->
      <defs>
       <path d="M 33.015625 40.375 
Q 26.375 40.375 22.484375 35.828125 
Q 18.609375 31.296875 18.609375 23.390625 
Q 18.609375 15.53125 22.484375 10.953125 
Q 26.375 6.390625 33.015625 6.390625 
Q 39.65625 6.390625 43.53125 10.953125 
Q 47.40625 15.53125 47.40625 23.390625 
Q 47.40625 31.296875 43.53125 35.828125 
Q 39.65625 40.375 33.015625 40.375 
z
M 52.59375 71.296875 
L 52.59375 62.3125 
Q 48.875 64.0625 45.09375 64.984375 
Q 41.3125 65.921875 37.59375 65.921875 
Q 27.828125 65.921875 22.671875 59.328125 
Q 17.53125 52.734375 16.796875 39.40625 
Q 19.671875 43.65625 24.015625 45.921875 
Q 28.375 48.1875 33.59375 48.1875 
Q 44.578125 48.1875 50.953125 41.515625 
Q 57.328125 34.859375 57.328125 23.390625 
Q 57.328125 12.15625 50.6875 5.359375 
Q 44.046875 -1.421875 33.015625 -1.421875 
Q 20.359375 -1.421875 13.671875 8.265625 
Q 6.984375 17.96875 6.984375 36.375 
Q 6.984375 53.65625 15.1875 63.9375 
Q 23.390625 74.21875 37.203125 74.21875 
Q 40.921875 74.21875 44.703125 73.484375 
Q 48.484375 72.75 52.59375 71.296875 
z
" id="DejaVuSans-36"/>
      </defs>
      <g transform="translate(231.071201 322.182437)scale(0.1 -0.1)">
       <use xlink:href="#DejaVuSans-36"/>
       <use x="63.623047" xlink:href="#DejaVuSans-30"/>
       <use x="127.246094" xlink:href="#DejaVuSans-30"/>
      </g>
     </g>
    </g>
    <g id="xtick_5">
     <g id="line2d_5">
      <g>
       <use style="stroke:#000000;stroke-width:0.8;" x="296.301837" xlink:href="#m241d2f953e" y="307.584"/>
      </g>
     </g>
     <g id="text_5">
      <!-- 800 -->
      <defs>
       <path d="M 31.78125 34.625 
Q 24.75 34.625 20.71875 30.859375 
Q 16.703125 27.09375 16.703125 20.515625 
Q 16.703125 13.921875 20.71875 10.15625 
Q 24.75 6.390625 31.78125 6.390625 
Q 38.8125 6.390625 42.859375 10.171875 
Q 46.921875 13.96875 46.921875 20.515625 
Q 46.921875 27.09375 42.890625 30.859375 
Q 38.875 34.625 31.78125 34.625 
z
M 21.921875 38.8125 
Q 15.578125 40.375 12.03125 44.71875 
Q 8.5 49.078125 8.5 55.328125 
Q 8.5 64.0625 14.71875 69.140625 
Q 20.953125 74.21875 31.78125 74.21875 
Q 42.671875 74.21875 48.875 69.140625 
Q 55.078125 64.0625 55.078125 55.328125 
Q 55.078125 49.078125 51.53125 44.71875 
Q 48 40.375 41.703125 38.8125 
Q 48.828125 37.15625 52.796875 32.3125 
Q 56.78125 27.484375 56.78125 20.515625 
Q 56.78125 9.90625 50.3125 4.234375 
Q 43.84375 -1.421875 31.78125 -1.421875 
Q 19.734375 -1.421875 13.25 4.234375 
Q 6.78125 9.90625 6.78125 20.515625 
Q 6.78125 27.484375 10.78125 32.3125 
Q 14.796875 37.15625 21.921875 38.8125 
z
M 18.3125 54.390625 
Q 18.3125 48.734375 21.84375 45.5625 
Q 25.390625 42.390625 31.78125 42.390625 
Q 38.140625 42.390625 41.71875 45.5625 
Q 45.3125 48.734375 45.3125 54.390625 
Q 45.3125 60.0625 41.71875 63.234375 
Q 38.140625 66.40625 31.78125 66.40625 
Q 25.390625 66.40625 21.84375 63.234375 
Q 18.3125 60.0625 18.3125 54.390625 
z
" id="DejaVuSans-38"/>
      </defs>
      <g transform="translate(286.758087 322.182437)scale(0.1 -0.1)">
       <use xlink:href="#DejaVuSans-38"/>
       <use x="63.623047" xlink:href="#DejaVuSans-30"/>
       <use x="127.246094" xlink:href="#DejaVuSans-30"/>
      </g>
     </g>
    </g>
    <g id="xtick_6">
     <g id="line2d_6">
      <g>
       <use style="stroke:#000000;stroke-width:0.8;" x="351.988723" xlink:href="#m241d2f953e" y="307.584"/>
      </g>
     </g>
     <g id="text_6">
      <!-- 1000 -->
      <defs>
       <path d="M 12.40625 8.296875 
L 28.515625 8.296875 
L 28.515625 63.921875 
L 10.984375 60.40625 
L 10.984375 69.390625 
L 28.421875 72.90625 
L 38.28125 72.90625 
L 38.28125 8.296875 
L 54.390625 8.296875 
L 54.390625 0 
L 12.40625 0 
z
" id="DejaVuSans-31"/>
      </defs>
      <g transform="translate(339.263723 322.182437)scale(0.1 -0.1)">
       <use xlink:href="#DejaVuSans-31"/>
       <use x="63.623047" xlink:href="#DejaVuSans-30"/>
       <use x="127.246094" xlink:href="#DejaVuSans-30"/>
       <use x="190.869141" xlink:href="#DejaVuSans-30"/>
      </g>
     </g>
    </g>
    <g id="xtick_7">
     <g id="line2d_7">
      <g>
       <use style="stroke:#000000;stroke-width:0.8;" x="407.675609" xlink:href="#m241d2f953e" y="307.584"/>
      </g>
     </g>
     <g id="text_7">
      <!-- 1200 -->
      <g transform="translate(394.950609 322.182437)scale(0.1 -0.1)">
       <use xlink:href="#DejaVuSans-31"/>
       <use x="63.623047" xlink:href="#DejaVuSans-32"/>
       <use x="127.246094" xlink:href="#DejaVuSans-30"/>
       <use x="190.869141" xlink:href="#DejaVuSans-30"/>
      </g>
     </g>
    </g>
    <g id="text_8">
     <!-- Generation number -->
     <defs>
      <path d="M 59.515625 10.40625 
L 59.515625 29.984375 
L 43.40625 29.984375 
L 43.40625 38.09375 
L 69.28125 38.09375 
L 69.28125 6.78125 
Q 63.578125 2.734375 56.6875 0.65625 
Q 49.8125 -1.421875 42 -1.421875 
Q 24.90625 -1.421875 15.25 8.5625 
Q 5.609375 18.5625 5.609375 36.375 
Q 5.609375 54.25 15.25 64.234375 
Q 24.90625 74.21875 42 74.21875 
Q 49.125 74.21875 55.546875 72.453125 
Q 61.96875 70.703125 67.390625 67.28125 
L 67.390625 56.78125 
Q 61.921875 61.421875 55.765625 63.765625 
Q 49.609375 66.109375 42.828125 66.109375 
Q 29.4375 66.109375 22.71875 58.640625 
Q 16.015625 51.171875 16.015625 36.375 
Q 16.015625 21.625 22.71875 14.15625 
Q 29.4375 6.6875 42.828125 6.6875 
Q 48.046875 6.6875 52.140625 7.59375 
Q 56.25 8.5 59.515625 10.40625 
z
" id="DejaVuSans-47"/>
      <path d="M 56.203125 29.59375 
L 56.203125 25.203125 
L 14.890625 25.203125 
Q 15.484375 15.921875 20.484375 11.0625 
Q 25.484375 6.203125 34.421875 6.203125 
Q 39.59375 6.203125 44.453125 7.46875 
Q 49.3125 8.734375 54.109375 11.28125 
L 54.109375 2.78125 
Q 49.265625 0.734375 44.1875 -0.34375 
Q 39.109375 -1.421875 33.890625 -1.421875 
Q 20.796875 -1.421875 13.15625 6.1875 
Q 5.515625 13.8125 5.515625 26.8125 
Q 5.515625 40.234375 12.765625 48.109375 
Q 20.015625 56 32.328125 56 
Q 43.359375 56 49.78125 48.890625 
Q 56.203125 41.796875 56.203125 29.59375 
z
M 47.21875 32.234375 
Q 47.125 39.59375 43.09375 43.984375 
Q 39.0625 48.390625 32.421875 48.390625 
Q 24.90625 48.390625 20.390625 44.140625 
Q 15.875 39.890625 15.1875 32.171875 
z
" id="DejaVuSans-65"/>
      <path d="M 54.890625 33.015625 
L 54.890625 0 
L 45.90625 0 
L 45.90625 32.71875 
Q 45.90625 40.484375 42.875 44.328125 
Q 39.84375 48.1875 33.796875 48.1875 
Q 26.515625 48.1875 22.3125 43.546875 
Q 18.109375 38.921875 18.109375 30.90625 
L 18.109375 0 
L 9.078125 0 
L 9.078125 54.6875 
L 18.109375 54.6875 
L 18.109375 46.1875 
Q 21.34375 51.125 25.703125 53.5625 
Q 30.078125 56 35.796875 56 
Q 45.21875 56 50.046875 50.171875 
Q 54.890625 44.34375 54.890625 33.015625 
z
" id="DejaVuSans-6e"/>
      <path d="M 41.109375 46.296875 
Q 39.59375 47.171875 37.8125 47.578125 
Q 36.03125 48 33.890625 48 
Q 26.265625 48 22.1875 43.046875 
Q 18.109375 38.09375 18.109375 28.8125 
L 18.109375 0 
L 9.078125 0 
L 9.078125 54.6875 
L 18.109375 54.6875 
L 18.109375 46.1875 
Q 20.953125 51.171875 25.484375 53.578125 
Q 30.03125 56 36.53125 56 
Q 37.453125 56 38.578125 55.875 
Q 39.703125 55.765625 41.0625 55.515625 
z
" id="DejaVuSans-72"/>
      <path d="M 34.28125 27.484375 
Q 23.390625 27.484375 19.1875 25 
Q 14.984375 22.515625 14.984375 16.5 
Q 14.984375 11.71875 18.140625 8.90625 
Q 21.296875 6.109375 26.703125 6.109375 
Q 34.1875 6.109375 38.703125 11.40625 
Q 43.21875 16.703125 43.21875 25.484375 
L 43.21875 27.484375 
z
M 52.203125 31.203125 
L 52.203125 0 
L 43.21875 0 
L 43.21875 8.296875 
Q 40.140625 3.328125 35.546875 0.953125 
Q 30.953125 -1.421875 24.3125 -1.421875 
Q 15.921875 -1.421875 10.953125 3.296875 
Q 6 8.015625 6 15.921875 
Q 6 25.140625 12.171875 29.828125 
Q 18.359375 34.515625 30.609375 34.515625 
L 43.21875 34.515625 
L 43.21875 35.40625 
Q 43.21875 41.609375 39.140625 45 
Q 35.0625 48.390625 27.6875 48.390625 
Q 23 48.390625 18.546875 47.265625 
Q 14.109375 46.140625 10.015625 43.890625 
L 10.015625 52.203125 
Q 14.9375 54.109375 19.578125 55.046875 
Q 24.21875 56 28.609375 56 
Q 40.484375 56 46.34375 49.84375 
Q 52.203125 43.703125 52.203125 31.203125 
z
" id="DejaVuSans-61"/>
      <path d="M 18.3125 70.21875 
L 18.3125 54.6875 
L 36.8125 54.6875 
L 36.8125 47.703125 
L 18.3125 47.703125 
L 18.3125 18.015625 
Q 18.3125 11.328125 20.140625 9.421875 
Q 21.96875 7.515625 27.59375 7.515625 
L 36.8125 7.515625 
L 36.8125 0 
L 27.59375 0 
Q 17.1875 0 13.234375 3.875 
Q 9.28125 7.765625 9.28125 18.015625 
L 9.28125 47.703125 
L 2.6875 47.703125 
L 2.6875 54.6875 
L 9.28125 54.6875 
L 9.28125 70.21875 
z
" id="DejaVuSans-74"/>
      <path d="M 9.421875 54.6875 
L 18.40625 54.6875 
L 18.40625 0 
L 9.421875 0 
z
M 9.421875 75.984375 
L 18.40625 75.984375 
L 18.40625 64.59375 
L 9.421875 64.59375 
z
" id="DejaVuSans-69"/>
      <path d="M 30.609375 48.390625 
Q 23.390625 48.390625 19.1875 42.75 
Q 14.984375 37.109375 14.984375 27.296875 
Q 14.984375 17.484375 19.15625 11.84375 
Q 23.34375 6.203125 30.609375 6.203125 
Q 37.796875 6.203125 41.984375 11.859375 
Q 46.1875 17.53125 46.1875 27.296875 
Q 46.1875 37.015625 41.984375 42.703125 
Q 37.796875 48.390625 30.609375 48.390625 
z
M 30.609375 56 
Q 42.328125 56 49.015625 48.375 
Q 55.71875 40.765625 55.71875 27.296875 
Q 55.71875 13.875 49.015625 6.21875 
Q 42.328125 -1.421875 30.609375 -1.421875 
Q 18.84375 -1.421875 12.171875 6.21875 
Q 5.515625 13.875 5.515625 27.296875 
Q 5.515625 40.765625 12.171875 48.375 
Q 18.84375 56 30.609375 56 
z
" id="DejaVuSans-6f"/>
      <path id="DejaVuSans-20"/>
      <path d="M 8.5 21.578125 
L 8.5 54.6875 
L 17.484375 54.6875 
L 17.484375 21.921875 
Q 17.484375 14.15625 20.5 10.265625 
Q 23.53125 6.390625 29.59375 6.390625 
Q 36.859375 6.390625 41.078125 11.03125 
Q 45.3125 15.671875 45.3125 23.6875 
L 45.3125 54.6875 
L 54.296875 54.6875 
L 54.296875 0 
L 45.3125 0 
L 45.3125 8.40625 
Q 42.046875 3.421875 37.71875 1 
Q 33.40625 -1.421875 27.6875 -1.421875 
Q 18.265625 -1.421875 13.375 4.4375 
Q 8.5 10.296875 8.5 21.578125 
z
M 31.109375 56 
z
" id="DejaVuSans-75"/>
      <path d="M 52 44.1875 
Q 55.375 50.25 60.0625 53.125 
Q 64.75 56 71.09375 56 
Q 79.640625 56 84.28125 50.015625 
Q 88.921875 44.046875 88.921875 33.015625 
L 88.921875 0 
L 79.890625 0 
L 79.890625 32.71875 
Q 79.890625 40.578125 77.09375 44.375 
Q 74.3125 48.1875 68.609375 48.1875 
Q 61.625 48.1875 57.5625 43.546875 
Q 53.515625 38.921875 53.515625 30.90625 
L 53.515625 0 
L 44.484375 0 
L 44.484375 32.71875 
Q 44.484375 40.625 41.703125 44.40625 
Q 38.921875 48.1875 33.109375 48.1875 
Q 26.21875 48.1875 22.15625 43.53125 
Q 18.109375 38.875 18.109375 30.90625 
L 18.109375 0 
L 9.078125 0 
L 9.078125 54.6875 
L 18.109375 54.6875 
L 18.109375 46.1875 
Q 21.1875 51.21875 25.484375 53.609375 
Q 29.78125 56 35.6875 56 
Q 41.65625 56 45.828125 52.96875 
Q 50 49.953125 52 44.1875 
z
" id="DejaVuSans-6d"/>
      <path d="M 48.6875 27.296875 
Q 48.6875 37.203125 44.609375 42.84375 
Q 40.53125 48.484375 33.40625 48.484375 
Q 26.265625 48.484375 22.1875 42.84375 
Q 18.109375 37.203125 18.109375 27.296875 
Q 18.109375 17.390625 22.1875 11.75 
Q 26.265625 6.109375 33.40625 6.109375 
Q 40.53125 6.109375 44.609375 11.75 
Q 48.6875 17.390625 48.6875 27.296875 
z
M 18.109375 46.390625 
Q 20.953125 51.265625 25.265625 53.625 
Q 29.59375 56 35.59375 56 
Q 45.5625 56 51.78125 48.09375 
Q 58.015625 40.1875 58.015625 27.296875 
Q 58.015625 14.40625 51.78125 6.484375 
Q 45.5625 -1.421875 35.59375 -1.421875 
Q 29.59375 -1.421875 25.265625 0.953125 
Q 20.953125 3.328125 18.109375 8.203125 
L 18.109375 0 
L 9.078125 0 
L 9.078125 75.984375 
L 18.109375 75.984375 
z
" id="DejaVuSans-62"/>
     </defs>
     <g transform="translate(187.163906 335.860562)scale(0.1 -0.1)">
      <use xlink:href="#DejaVuSans-47"/>
      <use x="77.490234" xlink:href="#DejaVuSans-65"/>
      <use x="139.013672" xlink:href="#DejaVuSans-6e"/>
      <use x="202.392578" xlink:href="#DejaVuSans-65"/>
      <use x="263.916016" xlink:href="#DejaVuSans-72"/>
      <use x="305.029297" xlink:href="#DejaVuSans-61"/>
      <use x="366.308594" xlink:href="#DejaVuSans-74"/>
      <use x="405.517578" xlink:href="#DejaVuSans-69"/>
      <use x="433.300781" xlink:href="#DejaVuSans-6f"/>
      <use x="494.482422" xlink:href="#DejaVuSans-6e"/>
      <use x="557.861328" xlink:href="#DejaVuSans-20"/>
      <use x="589.648438" xlink:href="#DejaVuSans-6e"/>
      <use x="653.027344" xlink:href="#DejaVuSans-75"/>
      <use x="716.40625" xlink:href="#DejaVuSans-6d"/>
      <use x="813.818359" xlink:href="#DejaVuSans-62"/>
      <use x="877.294922" xlink:href="#DejaVuSans-65"/>
      <use x="938.818359" xlink:href="#DejaVuSans-72"/>
     </g>
    </g>
   </g>
   <g id="matplotlib.axis_2">
    <g id="ytick_1">
     <g id="line2d_8">
      <defs>
       <path d="M 0 0 
L -3.5 0 
" id="ma371116008" style="stroke:#000000;stroke-width:0.8;"/>
      </defs>
      <g>
       <use style="stroke:#000000;stroke-width:0.8;" x="57.6" xlink:href="#ma371116008" y="299.747008"/>
      </g>
     </g>
     <g id="text_9">
      <!-- 2000 -->
      <g transform="translate(25.15 303.546227)scale(0.1 -0.1)">
       <use xlink:href="#DejaVuSans-32"/>
       <use x="63.623047" xlink:href="#DejaVuSans-30"/>
       <use x="127.246094" xlink:href="#DejaVuSans-30"/>
       <use x="190.869141" xlink:href="#DejaVuSans-30"/>
      </g>
     </g>
    </g>
    <g id="ytick_2">
     <g id="line2d_9">
      <g>
       <use style="stroke:#000000;stroke-width:0.8;" x="57.6" xlink:href="#ma371116008" y="254.351486"/>
      </g>
     </g>
     <g id="text_10">
      <!-- 2500 -->
      <defs>
       <path d="M 10.796875 72.90625 
L 49.515625 72.90625 
L 49.515625 64.59375 
L 19.828125 64.59375 
L 19.828125 46.734375 
Q 21.96875 47.46875 24.109375 47.828125 
Q 26.265625 48.1875 28.421875 48.1875 
Q 40.625 48.1875 47.75 41.5 
Q 54.890625 34.8125 54.890625 23.390625 
Q 54.890625 11.625 47.5625 5.09375 
Q 40.234375 -1.421875 26.90625 -1.421875 
Q 22.3125 -1.421875 17.546875 -0.640625 
Q 12.796875 0.140625 7.71875 1.703125 
L 7.71875 11.625 
Q 12.109375 9.234375 16.796875 8.0625 
Q 21.484375 6.890625 26.703125 6.890625 
Q 35.15625 6.890625 40.078125 11.328125 
Q 45.015625 15.765625 45.015625 23.390625 
Q 45.015625 31 40.078125 35.4375 
Q 35.15625 39.890625 26.703125 39.890625 
Q 22.75 39.890625 18.8125 39.015625 
Q 14.890625 38.140625 10.796875 36.28125 
z
" id="DejaVuSans-35"/>
      </defs>
      <g transform="translate(25.15 258.150705)scale(0.1 -0.1)">
       <use xlink:href="#DejaVuSans-32"/>
       <use x="63.623047" xlink:href="#DejaVuSans-35"/>
       <use x="127.246094" xlink:href="#DejaVuSans-30"/>
       <use x="190.869141" xlink:href="#DejaVuSans-30"/>
      </g>
     </g>
    </g>
    <g id="ytick_3">
     <g id="line2d_10">
      <g>
       <use style="stroke:#000000;stroke-width:0.8;" x="57.6" xlink:href="#ma371116008" y="208.955964"/>
      </g>
     </g>
     <g id="text_11">
      <!-- 3000 -->
      <defs>
       <path d="M 40.578125 39.3125 
Q 47.65625 37.796875 51.625 33 
Q 55.609375 28.21875 55.609375 21.1875 
Q 55.609375 10.40625 48.1875 4.484375 
Q 40.765625 -1.421875 27.09375 -1.421875 
Q 22.515625 -1.421875 17.65625 -0.515625 
Q 12.796875 0.390625 7.625 2.203125 
L 7.625 11.71875 
Q 11.71875 9.328125 16.59375 8.109375 
Q 21.484375 6.890625 26.8125 6.890625 
Q 36.078125 6.890625 40.9375 10.546875 
Q 45.796875 14.203125 45.796875 21.1875 
Q 45.796875 27.640625 41.28125 31.265625 
Q 36.765625 34.90625 28.71875 34.90625 
L 20.21875 34.90625 
L 20.21875 43.015625 
L 29.109375 43.015625 
Q 36.375 43.015625 40.234375 45.921875 
Q 44.09375 48.828125 44.09375 54.296875 
Q 44.09375 59.90625 40.109375 62.90625 
Q 36.140625 65.921875 28.71875 65.921875 
Q 24.65625 65.921875 20.015625 65.03125 
Q 15.375 64.15625 9.8125 62.3125 
L 9.8125 71.09375 
Q 15.4375 72.65625 20.34375 73.4375 
Q 25.25 74.21875 29.59375 74.21875 
Q 40.828125 74.21875 47.359375 69.109375 
Q 53.90625 64.015625 53.90625 55.328125 
Q 53.90625 49.265625 50.4375 45.09375 
Q 46.96875 40.921875 40.578125 39.3125 
z
" id="DejaVuSans-33"/>
      </defs>
      <g transform="translate(25.15 212.755183)scale(0.1 -0.1)">
       <use xlink:href="#DejaVuSans-33"/>
       <use x="63.623047" xlink:href="#DejaVuSans-30"/>
       <use x="127.246094" xlink:href="#DejaVuSans-30"/>
       <use x="190.869141" xlink:href="#DejaVuSans-30"/>
      </g>
     </g>
    </g>
    <g id="ytick_4">
     <g id="line2d_11">
      <g>
       <use style="stroke:#000000;stroke-width:0.8;" x="57.6" xlink:href="#ma371116008" y="163.560442"/>
      </g>
     </g>
     <g id="text_12">
      <!-- 3500 -->
      <g transform="translate(25.15 167.359661)scale(0.1 -0.1)">
       <use xlink:href="#DejaVuSans-33"/>
       <use x="63.623047" xlink:href="#DejaVuSans-35"/>
       <use x="127.246094" xlink:href="#DejaVuSans-30"/>
       <use x="190.869141" xlink:href="#DejaVuSans-30"/>
      </g>
     </g>
    </g>
    <g id="ytick_5">
     <g id="line2d_12">
      <g>
       <use style="stroke:#000000;stroke-width:0.8;" x="57.6" xlink:href="#ma371116008" y="118.16492"/>
      </g>
     </g>
     <g id="text_13">
      <!-- 4000 -->
      <g transform="translate(25.15 121.964139)scale(0.1 -0.1)">
       <use xlink:href="#DejaVuSans-34"/>
       <use x="63.623047" xlink:href="#DejaVuSans-30"/>
       <use x="127.246094" xlink:href="#DejaVuSans-30"/>
       <use x="190.869141" xlink:href="#DejaVuSans-30"/>
      </g>
     </g>
    </g>
    <g id="ytick_6">
     <g id="line2d_13">
      <g>
       <use style="stroke:#000000;stroke-width:0.8;" x="57.6" xlink:href="#ma371116008" y="72.769398"/>
      </g>
     </g>
     <g id="text_14">
      <!-- 4500 -->
      <g transform="translate(25.15 76.568617)scale(0.1 -0.1)">
       <use xlink:href="#DejaVuSans-34"/>
       <use x="63.623047" xlink:href="#DejaVuSans-35"/>
       <use x="127.246094" xlink:href="#DejaVuSans-30"/>
       <use x="190.869141" xlink:href="#DejaVuSans-30"/>
      </g>
     </g>
    </g>
    <g id="text_15">
     <!-- Average fitness -->
     <defs>
      <path d="M 34.1875 63.1875 
L 20.796875 26.90625 
L 47.609375 26.90625 
z
M 28.609375 72.90625 
L 39.796875 72.90625 
L 67.578125 0 
L 57.328125 0 
L 50.6875 18.703125 
L 17.828125 18.703125 
L 11.1875 0 
L 0.78125 0 
z
" id="DejaVuSans-41"/>
      <path d="M 2.984375 54.6875 
L 12.5 54.6875 
L 29.59375 8.796875 
L 46.6875 54.6875 
L 56.203125 54.6875 
L 35.6875 0 
L 23.484375 0 
z
" id="DejaVuSans-76"/>
      <path d="M 45.40625 27.984375 
Q 45.40625 37.75 41.375 43.109375 
Q 37.359375 48.484375 30.078125 48.484375 
Q 22.859375 48.484375 18.828125 43.109375 
Q 14.796875 37.75 14.796875 27.984375 
Q 14.796875 18.265625 18.828125 12.890625 
Q 22.859375 7.515625 30.078125 7.515625 
Q 37.359375 7.515625 41.375 12.890625 
Q 45.40625 18.265625 45.40625 27.984375 
z
M 54.390625 6.78125 
Q 54.390625 -7.171875 48.1875 -13.984375 
Q 42 -20.796875 29.203125 -20.796875 
Q 24.46875 -20.796875 20.265625 -20.09375 
Q 16.0625 -19.390625 12.109375 -17.921875 
L 12.109375 -9.1875 
Q 16.0625 -11.328125 19.921875 -12.34375 
Q 23.78125 -13.375 27.78125 -13.375 
Q 36.625 -13.375 41.015625 -8.765625 
Q 45.40625 -4.15625 45.40625 5.171875 
L 45.40625 9.625 
Q 42.625 4.78125 38.28125 2.390625 
Q 33.9375 0 27.875 0 
Q 17.828125 0 11.671875 7.65625 
Q 5.515625 15.328125 5.515625 27.984375 
Q 5.515625 40.671875 11.671875 48.328125 
Q 17.828125 56 27.875 56 
Q 33.9375 56 38.28125 53.609375 
Q 42.625 51.21875 45.40625 46.390625 
L 45.40625 54.6875 
L 54.390625 54.6875 
z
" id="DejaVuSans-67"/>
      <path d="M 37.109375 75.984375 
L 37.109375 68.5 
L 28.515625 68.5 
Q 23.6875 68.5 21.796875 66.546875 
Q 19.921875 64.59375 19.921875 59.515625 
L 19.921875 54.6875 
L 34.71875 54.6875 
L 34.71875 47.703125 
L 19.921875 47.703125 
L 19.921875 0 
L 10.890625 0 
L 10.890625 47.703125 
L 2.296875 47.703125 
L 2.296875 54.6875 
L 10.890625 54.6875 
L 10.890625 58.5 
Q 10.890625 67.625 15.140625 71.796875 
Q 19.390625 75.984375 28.609375 75.984375 
z
" id="DejaVuSans-66"/>
      <path d="M 44.28125 53.078125 
L 44.28125 44.578125 
Q 40.484375 46.53125 36.375 47.5 
Q 32.28125 48.484375 27.875 48.484375 
Q 21.1875 48.484375 17.84375 46.4375 
Q 14.5 44.390625 14.5 40.28125 
Q 14.5 37.15625 16.890625 35.375 
Q 19.28125 33.59375 26.515625 31.984375 
L 29.59375 31.296875 
Q 39.15625 29.25 43.1875 25.515625 
Q 47.21875 21.78125 47.21875 15.09375 
Q 47.21875 7.46875 41.1875 3.015625 
Q 35.15625 -1.421875 24.609375 -1.421875 
Q 20.21875 -1.421875 15.453125 -0.5625 
Q 10.6875 0.296875 5.421875 2 
L 5.421875 11.28125 
Q 10.40625 8.6875 15.234375 7.390625 
Q 20.0625 6.109375 24.8125 6.109375 
Q 31.15625 6.109375 34.5625 8.28125 
Q 37.984375 10.453125 37.984375 14.40625 
Q 37.984375 18.0625 35.515625 20.015625 
Q 33.0625 21.96875 24.703125 23.78125 
L 21.578125 24.515625 
Q 13.234375 26.265625 9.515625 29.90625 
Q 5.8125 33.546875 5.8125 39.890625 
Q 5.8125 47.609375 11.28125 51.796875 
Q 16.75 56 26.8125 56 
Q 31.78125 56 36.171875 55.265625 
Q 40.578125 54.546875 44.28125 53.078125 
z
" id="DejaVuSans-73"/>
     </defs>
     <g transform="translate(19.070312 213.503781)rotate(-90)scale(0.1 -0.1)">
      <use xlink:href="#DejaVuSans-41"/>
      <use x="68.330078" xlink:href="#DejaVuSans-76"/>
      <use x="127.509766" xlink:href="#DejaVuSans-65"/>
      <use x="189.033203" xlink:href="#DejaVuSans-72"/>
      <use x="230.146484" xlink:href="#DejaVuSans-61"/>
      <use x="291.425781" xlink:href="#DejaVuSans-67"/>
      <use x="354.902344" xlink:href="#DejaVuSans-65"/>
      <use x="416.425781" xlink:href="#DejaVuSans-20"/>
      <use x="448.212891" xlink:href="#DejaVuSans-66"/>
      <use x="483.417969" xlink:href="#DejaVuSans-69"/>
      <use x="511.201172" xlink:href="#DejaVuSans-74"/>
      <use x="550.410156" xlink:href="#DejaVuSans-6e"/>
      <use x="613.789062" xlink:href="#DejaVuSans-65"/>
      <use x="675.3125" xlink:href="#DejaVuSans-73"/>
      <use x="727.412109" xlink:href="#DejaVuSans-73"/>
     </g>
    </g>
   </g>
   <g id="line2d_14">
    <path clip-path="url(#p4eaf1dbec2)" d="M 73.832727 53.891216 
L 74.389596 100.221886 
L 74.946465 117.659214 
L 75.503334 127.292144 
L 76.338637 136.955034 
L 77.730809 147.707418 
L 79.122981 156.288987 
L 79.401416 157.619984 
L 79.958285 161.148124 
L 80.515154 164.172374 
L 82.18576 171.134231 
L 82.742629 172.940065 
L 84.69167 178.79064 
L 84.970104 179.496086 
L 85.526973 183.334731 
L 86.362277 194.657282 
L 86.919145 199.438339 
L 87.754449 204.131328 
L 88.032883 204.640666 
L 88.589752 207.792931 
L 89.425055 211.292017 
L 89.981924 213.110562 
L 90.260359 213.733389 
L 90.817228 215.307705 
L 91.374096 216.77852 
L 93.601572 220.805103 
L 94.71531 222.373972 
L 94.993744 221.846476 
L 95.550613 223.254645 
L 95.829047 223.994592 
L 96.107482 224.273321 
L 96.385916 225.011452 
L 97.221219 226.047378 
L 97.499654 226.354252 
L 98.056523 227.273965 
L 98.613392 228.050228 
L 98.891826 228.186415 
L 99.17026 228.697568 
L 99.448695 228.748411 
L 99.727129 229.332198 
L 102.233039 231.62104 
L 102.511474 231.806254 
L 102.789908 232.169418 
L 103.068342 223.075787 
L 103.346777 226.788233 
L 103.625211 225.866704 
L 104.18208 229.842444 
L 104.738949 232.615202 
L 105.574252 235.279011 
L 106.409556 237.28277 
L 106.68799 236.090683 
L 107.244859 237.785752 
L 107.523293 238.860718 
L 107.801728 239.215711 
L 108.080162 239.887565 
L 108.915465 241.134126 
L 109.472334 241.783282 
L 110.029203 242.265382 
L 110.586072 243.237754 
L 110.864506 243.216872 
L 111.421375 244.036715 
L 113.091982 245.554742 
L 113.370416 245.671862 
L 113.648851 245.95967 
L 113.927285 246.001434 
L 114.20572 246.347347 
L 115.041023 246.611549 
L 115.319457 247.041899 
L 115.597892 247.121795 
L 116.154761 247.665633 
L 116.433195 247.702858 
L 116.990064 248.026074 
L 118.660671 248.880418 
L 118.939105 249.226331 
L 119.217539 249.225424 
L 119.495974 249.485994 
L 121.16658 250.055254 
L 121.445015 250.340338 
L 121.723449 250.308561 
L 122.001884 250.557328 
L 122.280318 250.645395 
L 122.837187 250.939558 
L 123.115621 251.049416 
L 123.394056 250.978599 
L 123.950925 251.374448 
L 124.229359 251.341763 
L 124.507794 251.598701 
L 124.786228 246.459928 
L 125.343097 248.995722 
L 125.621531 249.963555 
L 125.899966 243.512851 
L 126.456835 247.435024 
L 127.013703 249.510507 
L 127.849007 251.363553 
L 128.127441 251.65136 
L 128.68431 252.645522 
L 128.962744 245.987815 
L 129.519613 250.053438 
L 130.076482 251.967313 
L 130.911785 254.019191 
L 131.19022 254.325156 
L 131.747089 255.145908 
L 133.139261 256.684816 
L 134.531433 257.79519 
L 135.645171 258.272751 
L 135.923605 258.609586 
L 136.20204 258.748496 
L 136.480474 259.01633 
L 136.758908 258.962763 
L 137.872646 259.533839 
L 138.151081 259.52476 
L 138.986384 260.061335 
L 139.821687 260.334616 
L 140.100122 260.537988 
L 140.935425 260.791295 
L 141.492294 261.051865 
L 141.770728 261.09726 
L 142.049163 261.392331 
L 142.884466 261.442266 
L 143.441335 261.593887 
L 143.998204 261.748232 
L 144.276638 261.886235 
L 144.833507 261.950696 
L 145.111941 262.01425 
L 145.390376 262.19674 
L 146.225679 262.223977 
L 147.339417 262.317492 
L 147.617851 262.651603 
L 147.896286 262.423718 
L 148.17472 262.732407 
L 149.010023 262.933963 
L 149.288458 263.127348 
L 149.566892 254.746427 
L 150.123761 258.409846 
L 150.68063 260.325537 
L 151.237499 261.435911 
L 151.794368 262.290255 
L 152.908105 263.614896 
L 153.743409 264.342132 
L 154.857146 264.706204 
L 155.135581 265.018526 
L 155.414015 264.959511 
L 155.69245 257.963154 
L 156.249319 261.333317 
L 156.806187 263.14823 
L 157.363056 264.313987 
L 157.641491 264.717099 
L 157.919925 264.909576 
L 158.19836 265.387137 
L 158.755228 265.743946 
L 159.033663 266.08986 
L 159.312097 266.175204 
L 159.590532 259.708157 
L 159.868966 261.658349 
L 160.425835 263.807373 
L 160.982704 265.24278 
L 161.261138 265.413467 
L 161.539573 266.022675 
L 161.818007 262.633445 
L 162.096442 264.067035 
L 163.210179 266.353154 
L 163.488614 266.607369 
L 164.045483 267.310999 
L 164.323917 264.787916 
L 164.880786 266.628251 
L 165.15922 261.789996 
L 165.716089 264.875984 
L 166.829827 267.281946 
L 167.108261 267.744981 
L 167.386696 267.882075 
L 167.943565 268.571179 
L 168.221999 268.88804 
L 168.500433 268.973384 
L 168.778868 269.355614 
L 169.335737 269.447313 
L 169.892606 269.785055 
L 170.17104 269.844978 
L 170.449475 270.18272 
L 171.563212 270.386092 
L 171.841647 270.787389 
L 172.398516 271.029801 
L 172.67695 265.759381 
L 173.233819 268.41865 
L 174.347557 270.40879 
L 176.575032 272.027594 
L 176.853466 272.154702 
L 177.131901 267.41087 
L 177.68877 269.664303 
L 178.245639 271.028893 
L 178.524073 271.188685 
L 179.080942 271.865986 
L 179.359376 272.031226 
L 179.637811 272.370784 
L 179.916245 272.482457 
L 180.473114 272.873767 
L 181.029983 272.950031 
L 181.586852 273.274155 
L 181.865286 265.952765 
L 182.422155 269.484537 
L 182.700589 270.733822 
L 183.257458 271.737971 
L 183.535893 272.151978 
L 183.814327 272.299059 
L 184.928065 273.505672 
L 185.763368 273.995944 
L 186.041803 274.328239 
L 187.712409 274.807616 
L 187.990844 270.328894 
L 188.547712 272.368969 
L 188.826147 273.217865 
L 189.383016 273.845231 
L 189.939885 274.44536 
L 190.775188 275.167149 
L 191.332057 275.277914 
L 191.610491 275.632907 
L 191.888926 275.656512 
L 192.445794 275.965202 
L 193.002663 275.91799 
L 193.281098 276.218509 
L 194.116401 276.507224 
L 194.394835 273.222404 
L 194.951704 274.900223 
L 195.230139 275.316046 
L 195.508573 275.485825 
L 196.065442 276.038743 
L 196.343877 273.634596 
L 196.900745 275.034594 
L 197.736049 276.089586 
L 198.292918 276.489974 
L 198.849786 276.627069 
L 199.128221 269.912163 
L 199.68509 272.894649 
L 200.520393 275.073634 
L 200.798827 275.375968 
L 201.355696 276.16585 
L 202.469434 277.035628 
L 203.026303 277.261698 
L 203.304737 277.574019 
L 203.583172 277.536795 
L 203.861606 268.947054 
L 204.418475 273.066244 
L 204.696909 268.482204 
L 205.253778 272.310862 
L 205.810647 274.170263 
L 206.367516 275.227071 
L 206.64595 272.15561 
L 206.924385 273.635504 
L 207.481254 275.084529 
L 208.594991 276.893994 
L 208.873426 275.712803 
L 209.15186 275.097239 
L 209.708729 276.414617 
L 210.265598 277.248987 
L 210.544032 277.357029 
L 210.822467 277.833681 
L 211.379336 278.317598 
L 211.65777 278.500088 
L 212.214639 278.608129 
L 212.771508 278.922266 
L 213.049942 278.895937 
L 213.328377 279.303588 
L 213.606811 279.235495 
L 214.16368 279.483355 
L 214.442114 279.478815 
L 214.720549 279.717596 
L 215.555852 279.804755 
L 216.391155 280.139774 
L 216.66959 280.023561 
L 216.948024 280.315909 
L 217.226459 280.104366 
L 217.783328 280.433029 
L 218.061762 280.335883 
L 218.340196 274.62331 
L 218.618631 276.3093 
L 219.453934 278.71617 
L 220.846106 280.157024 
L 221.124541 280.074404 
L 221.402975 280.301382 
L 221.68141 280.366752 
L 221.959844 280.580111 
L 222.238278 280.634585 
L 222.516713 280.867918 
L 222.795147 280.804364 
L 223.073582 280.907866 
L 223.352016 281.15845 
L 223.630451 277.312541 
L 223.908885 275.84445 
L 224.465754 278.123305 
L 225.022623 279.026676 
L 225.301057 279.206442 
L 225.579492 279.69399 
L 226.414795 280.36766 
L 226.693229 275.350546 
L 227.250098 278.069738 
L 227.528533 278.999439 
L 228.363836 280.313185 
L 228.64227 280.449371 
L 228.920705 280.919669 
L 229.199139 280.99321 
L 229.756008 281.322781 
L 230.034443 281.400862 
L 230.312877 281.681406 
L 231.14818 281.833027 
L 231.983484 282.30968 
L 232.540352 282.249758 
L 232.818787 282.526671 
L 233.097221 282.515776 
L 233.375656 280.294119 
L 234.210959 281.863896 
L 235.324697 282.733674 
L 235.603131 282.540289 
L 236.16 282.960652 
L 236.438434 282.906177 
L 236.716869 283.106825 
L 236.995303 282.969731 
L 237.273738 283.215775 
L 237.830607 283.288407 
L 238.109041 283.12226 
L 238.66591 283.484516 
L 238.944344 283.625242 
L 239.222779 283.379198 
L 239.779648 283.662467 
L 240.058082 283.524464 
L 240.336516 283.58257 
L 240.614951 283.845864 
L 241.17182 283.729652 
L 241.450254 283.839509 
L 241.728689 283.738731 
L 242.007123 284.097356 
L 242.285557 284.03017 
L 242.842426 284.13458 
L 243.120861 284.012012 
L 243.399295 284.039249 
L 243.67773 283.924853 
L 245.348336 284.230818 
L 245.626771 284.375176 
L 246.740508 284.450533 
L 247.018943 284.532245 
L 248.13268 284.410585 
L 248.411115 284.501376 
L 248.689549 284.789183 
L 248.967984 284.465059 
L 249.246418 284.592167 
L 249.524853 284.574917 
L 249.803287 275.902556 
L 250.360156 279.858322 
L 251.195459 282.436787 
L 251.752328 282.915256 
L 252.309197 283.785942 
L 252.587631 283.811364 
L 252.866066 277.289843 
L 253.1445 279.113835 
L 253.422935 279.14198 
L 253.701369 277.312541 
L 253.979804 279.022136 
L 254.815107 281.535232 
L 255.65041 282.804491 
L 256.485713 283.719665 
L 256.764148 283.812272 
L 257.042582 284.165449 
L 257.599451 284.316162 
L 258.15632 284.765578 
L 258.713189 284.862724 
L 259.270058 284.9862 
L 259.548492 285.188664 
L 260.105361 285.316679 
L 260.383795 285.499169 
L 260.66223 285.33393 
L 260.940664 285.556368 
L 261.497533 285.458313 
L 261.775968 285.450142 
L 262.054402 285.57271 
L 262.332836 285.528222 
L 262.611271 285.721607 
L 262.889705 285.652606 
L 263.725009 285.954032 
L 264.281877 285.948585 
L 264.560312 285.841452 
L 264.838746 275.421363 
L 265.117181 278.47739 
L 265.395615 280.286856 
L 265.67405 275.206189 
L 266.230918 279.147428 
L 266.509353 280.563768 
L 267.344656 282.501249 
L 267.623091 282.848979 
L 267.901525 273.057165 
L 268.179959 276.505409 
L 268.458394 273.973246 
L 269.015263 278.518246 
L 269.572132 280.644572 
L 270.129 281.865712 
L 271.242738 283.54807 
L 271.521173 283.686072 
L 271.799607 283.613439 
L 272.078041 284.03471 
L 273.191779 284.797355 
L 273.470214 285.255849 
L 273.748648 285.208638 
L 274.305517 285.53367 
L 274.862386 285.851439 
L 275.419255 285.934966 
L 275.976123 286.228221 
L 276.532992 286.142878 
L 276.811427 286.338079 
L 277.089861 286.269077 
L 277.64673 286.595017 
L 277.925165 286.445212 
L 278.482033 286.621347 
L 278.760468 286.812916 
L 279.038902 286.624978 
L 279.317337 286.881009 
L 280.431074 286.859219 
L 280.987943 287.194238 
L 281.266378 287.007209 
L 281.544812 287.175172 
L 281.823247 287.190606 
L 282.101681 275.915267 
L 282.65855 280.839773 
L 282.936984 282.381405 
L 283.493853 284.066487 
L 283.772288 284.474138 
L 284.329156 285.629001 
L 284.886025 286.28542 
L 285.16446 286.331723 
L 285.721329 286.930944 
L 286.278197 287.33678 
L 286.556632 287.348583 
L 287.391935 287.878803 
L 287.948804 287.922382 
L 288.227238 288.282823 
L 288.505673 288.131202 
L 288.784107 288.289178 
L 289.062542 281.741328 
L 289.619411 284.810065 
L 290.176279 286.304486 
L 290.733148 287.206949 
L 291.011583 287.199686 
L 291.290017 287.678154 
L 291.568452 287.716287 
L 291.846886 288.134833 
L 292.12532 288.08853 
L 292.403755 280.685428 
L 292.960624 284.404229 
L 293.239058 285.410194 
L 293.517493 282.345996 
L 293.795927 283.736007 
L 294.63123 286.016678 
L 294.909665 286.648584 
L 296.023402 287.727182 
L 296.858706 288.232888 
L 297.13714 279.123822 
L 297.694009 283.828614 
L 298.250878 285.982178 
L 298.807747 287.207857 
L 299.086181 287.443914 
L 299.64305 288.197479 
L 299.921484 288.311876 
L 300.478353 288.856622 
L 300.756788 288.852083 
L 301.313657 289.247024 
L 301.870525 289.524844 
L 302.14896 289.494883 
L 302.705829 289.812652 
L 302.984263 289.943391 
L 303.262698 285.715252 
L 303.541132 287.022643 
L 304.376435 288.658698 
L 304.65487 289.128087 
L 304.933304 289.174391 
L 305.211739 289.442224 
L 305.490173 289.524844 
L 305.768608 289.763625 
L 306.047042 289.732756 
L 307.16078 290.396438 
L 309.388255 290.837683 
L 309.66669 291.05195 
L 311.058862 291.253506 
L 311.337296 285.706173 
L 311.615731 287.285029 
L 311.894165 284.376992 
L 312.451034 287.234186 
L 313.007903 288.286454 
L 313.564772 289.033665 
L 313.843206 289.211615 
L 314.12164 289.630162 
L 314.400075 288.598776 
L 314.956944 289.400461 
L 315.235378 289.771796 
L 315.513813 289.818099 
L 316.349116 290.410057 
L 316.905985 290.58256 
L 317.184419 290.585284 
L 317.462854 290.851301 
L 318.855026 291.046502 
L 319.690329 291.154543 
L 320.804067 291.157267 
L 321.63937 291.682947 
L 321.917804 291.330678 
L 322.196239 291.557656 
L 323.309977 291.701106 
L 323.588411 291.976202 
L 323.866845 291.690211 
L 324.14528 291.846371 
L 324.423714 291.796436 
L 324.702149 291.95532 
L 325.537452 291.907201 
L 325.815886 292.204088 
L 326.094321 292.067901 
L 327.208059 292.144166 
L 327.764927 292.254931 
L 328.321796 292.171403 
L 328.600231 292.323024 
L 329.435534 292.389302 
L 329.713969 291.708369 
L 330.270837 291.900846 
L 330.549272 292.046112 
L 331.106141 291.974387 
L 331.66301 292.272181 
L 331.941444 292.295787 
L 332.219878 292.443776 
L 333.055182 292.470106 
L 333.333616 292.583595 
L 333.612051 292.530936 
L 333.890485 292.680741 
L 334.447354 292.531844 
L 334.725788 292.766992 
L 335.004223 292.726136 
L 335.282657 292.800585 
L 336.396395 292.669846 
L 337.231698 292.809664 
L 337.788567 292.644425 
L 338.067001 292.758821 
L 338.345436 292.579963 
L 338.62387 292.839625 
L 338.902305 285.484643 
L 339.459174 288.671408 
L 340.016042 290.210317 
L 340.572911 290.979317 
L 341.408215 291.795528 
L 341.686649 291.993453 
L 341.965083 291.966215 
L 342.521952 292.375683 
L 343.914124 292.967641 
L 344.470993 292.955838 
L 344.749428 293.235474 
L 345.306297 293.161933 
L 345.584731 293.41978 
L 345.863165 293.310831 
L 346.1416 293.509663 
L 346.420034 293.381648 
L 346.698469 293.406161 
L 346.976903 293.005773 
L 347.255338 292.994878 
L 347.533772 293.206421 
L 347.812206 293.113814 
L 349.482813 293.712127 
L 349.761247 293.604994 
L 350.039682 293.788392 
L 350.318116 293.685798 
L 350.874985 293.872827 
L 351.15342 293.683982 
L 351.431854 293.88463 
L 352.545592 293.881906 
L 352.824026 294.120687 
L 353.102461 293.961803 
L 354.494633 293.948184 
L 355.329936 294.256873 
L 355.60837 294.186056 
L 355.886805 294.281387 
L 356.443674 294.117055 
L 356.722108 294.142477 
L 357.000543 288.89657 
L 357.278977 290.171276 
L 358.11428 292.134179 
L 358.392715 292.422894 
L 358.671149 288.722251 
L 359.228018 290.851301 
L 359.506453 291.564919 
L 359.784887 291.766475 
L 360.063321 292.232233 
L 362.012362 293.227303 
L 362.290797 293.201882 
L 363.1261 293.501492 
L 363.961403 293.576849 
L 364.239838 293.749352 
L 364.518272 293.5369 
L 365.075141 293.968158 
L 365.63201 293.866472 
L 365.910444 293.999935 
L 366.188879 294.000843 
L 366.467313 293.829248 
L 366.745748 293.893709 
L 367.024182 294.176977 
L 367.302617 293.877367 
L 367.581051 294.12795 
L 367.859485 294.004474 
L 368.416354 294.167898 
L 368.973223 294.031712 
L 369.808526 294.081647 
L 370.086961 294.257781 
L 370.64383 294.257781 
L 371.479133 294.320427 
L 371.757567 294.163359 
L 372.036002 294.328598 
L 372.314436 288.273744 
L 372.592871 289.553897 
L 372.871305 290.087749 
L 373.14974 290.933013 
L 373.428174 290.394622 
L 373.706608 287.485677 
L 374.263477 290.252988 
L 374.820346 291.243519 
L 375.655649 292.625358 
L 375.934084 293.008497 
L 376.212518 293.049353 
L 376.490953 290.121341 
L 377.047822 292.008887 
L 377.326256 292.313945 
L 377.60469 289.260642 
L 378.161559 291.455062 
L 378.718428 292.52458 
L 380.1106 293.911867 
L 380.389035 293.777497 
L 382.61651 294.704473 
L 382.894945 294.482943 
L 383.730248 294.759856 
L 384.287117 294.763487 
L 385.679289 295.041308 
L 385.957723 294.867897 
L 386.793027 295.004992 
L 387.906764 295.298247 
L 388.185199 295.189297 
L 388.742068 295.236509 
L 389.298937 295.239233 
L 389.577371 295.072177 
L 390.13424 295.191113 
L 391.526412 295.309142 
L 391.804846 295.063098 
L 392.361715 295.40538 
L 392.64015 295.356353 
L 392.918584 295.488 
L 393.197019 286.44158 
L 393.475453 287.528349 
L 393.753887 289.453119 
L 394.310756 291.264401 
L 394.589191 291.668421 
L 394.867625 292.443776 
L 395.702928 293.190987 
L 396.259797 293.775681 
L 396.538232 294.026264 
L 396.816666 293.978145 
L 397.373535 294.307716 
L 398.487273 294.647275 
L 398.487273 294.647275 
" style="fill:none;stroke:#1f77b4;stroke-linecap:square;stroke-width:1.5;"/>
   </g>
   <g id="line2d_15">
    <path clip-path="url(#p4eaf1dbec2)" d="M 73.832727 53.568 
L 74.389596 99.942249 
L 74.946465 117.29605 
L 75.503334 126.976191 
L 76.338637 136.665411 
L 77.17394 144.023117 
L 78.287678 151.839318 
L 79.122981 156.568624 
L 81.350457 166.812577 
L 83.299498 173.889739 
L 84.69167 177.771964 
L 85.526973 180.226046 
L 87.19758 184.274419 
L 88.589752 187.593739 
L 89.981924 190.554435 
L 95.272178 199.960387 
L 96.385916 201.806169 
L 98.613392 205.340665 
L 98.891826 205.566734 
L 100.005564 207.275422 
L 101.119301 208.673604 
L 101.67617 209.241048 
L 102.233039 210.007324 
L 102.789908 210.55661 
L 103.068342 211.176713 
L 103.625211 211.77321 
L 103.903646 212.301614 
L 104.18208 212.328851 
L 104.460515 212.821847 
L 104.738949 212.981639 
L 105.295818 213.682546 
L 106.409556 215.050767 
L 106.68799 215.130663 
L 107.244859 215.862439 
L 107.523293 215.957769 
L 107.801728 216.417172 
L 108.080162 216.636886 
L 108.637031 217.256989 
L 108.915465 217.332346 
L 109.1939 217.776314 
L 110.307638 218.763212 
L 110.586072 219.134548 
L 110.864506 219.282537 
L 113.927285 222.338564 
L 114.20572 222.390315 
L 114.484154 222.570081 
L 115.041023 223.185644 
L 115.319457 223.195631 
L 115.597892 223.607823 
L 116.154761 223.97825 
L 116.71163 224.463074 
L 116.990064 224.722737 
L 117.268498 224.799909 
L 117.546933 225.156718 
L 117.825367 225.331944 
L 118.103802 225.674227 
L 118.382236 223.792128 
L 118.939105 226.001982 
L 119.774408 227.97124 
L 120.331277 228.699384 
L 120.888146 229.629085 
L 121.723449 230.583298 
L 122.558753 231.453985 
L 122.837187 231.963322 
L 123.115621 232.005994 
L 124.786228 233.317925 
L 125.064662 233.48952 
L 125.343097 233.836342 
L 125.621531 233.91079 
L 126.1784 234.539972 
L 127.292138 235.194576 
L 127.570572 235.401579 
L 127.849007 235.421553 
L 128.405876 236.008063 
L 128.68431 236.352161 
L 128.962744 236.413899 
L 130.354917 237.509747 
L 131.19022 237.872003 
L 131.747089 238.322327 
L 132.025523 238.634648 
L 132.303958 238.739966 
L 132.582392 236.709878 
L 132.860826 237.68225 
L 133.139261 238.146192 
L 133.417695 238.93789 
L 135.088302 240.707408 
L 135.366736 240.850858 
L 136.20204 241.793269 
L 136.758908 242.260843 
L 137.037343 242.314409 
L 137.315777 242.551374 
L 137.594212 242.962657 
L 138.151081 243.188727 
L 142.049163 245.315053 
L 142.327597 232.957484 
L 142.884466 239.488992 
L 143.441335 242.945407 
L 143.719769 244.32997 
L 144.833507 247.21531 
L 145.111941 244.475236 
L 145.66881 246.623352 
L 146.225679 248.434634 
L 146.504114 244.769399 
L 146.782548 246.292873 
L 147.060982 245.18159 
L 147.896286 248.627111 
L 148.453155 249.97445 
L 149.566892 251.870167 
L 150.123761 252.461216 
L 150.68063 252.877947 
L 150.959064 253.190268 
L 151.237499 253.286507 
L 151.515933 253.726843 
L 152.351237 254.226194 
L 153.464974 255.013353 
L 153.743409 255.031511 
L 154.857146 255.855893 
L 155.135581 255.779629 
L 155.69245 256.333454 
L 157.919925 257.202325 
L 158.19836 257.431118 
L 158.755228 257.491948 
L 159.590532 257.798822 
L 159.868966 257.871455 
L 160.425835 258.133841 
L 161.818007 258.513347 
L 162.096442 258.77301 
L 162.374876 258.671324 
L 162.65331 258.852906 
L 163.488614 258.91646 
L 163.767048 259.096226 
L 164.045483 259.070804 
L 164.323917 259.242399 
L 164.602351 259.248755 
L 164.880786 259.388573 
L 165.15922 259.392205 
L 165.437655 259.274176 
L 167.943565 260.165744 
L 168.221999 260.146678 
L 168.500433 247.290666 
L 169.057302 253.234756 
L 169.892606 257.086112 
L 170.449475 258.531506 
L 171.563212 260.48896 
L 172.955384 261.941617 
L 173.512253 262.251215 
L 173.790688 250.796109 
L 174.347557 256.249927 
L 174.625991 258.061208 
L 175.461294 260.717754 
L 176.575032 262.673393 
L 176.853466 263.04382 
L 177.131901 263.6612 
L 179.916245 265.47702 
L 183.535893 266.900624 
L 183.814327 266.903348 
L 184.092762 267.232011 
L 184.371196 267.070403 
L 184.64963 267.24109 
L 184.928065 267.269236 
L 184.928065 267.269236 
" style="fill:none;stroke:#ff7f0e;stroke-linecap:square;stroke-width:1.5;"/>
   </g>
   <g id="patch_3">
    <path d="M 57.6 307.584 
L 57.6 41.472 
" style="fill:none;stroke:#000000;stroke-linecap:square;stroke-linejoin:miter;stroke-width:0.8;"/>
   </g>
   <g id="patch_4">
    <path d="M 414.72 307.584 
L 414.72 41.472 
" style="fill:none;stroke:#000000;stroke-linecap:square;stroke-linejoin:miter;stroke-width:0.8;"/>
   </g>
   <g id="patch_5">
    <path d="M 57.6 307.584 
L 414.72 307.584 
" style="fill:none;stroke:#000000;stroke-linecap:square;stroke-linejoin:miter;stroke-width:0.8;"/>
   </g>
   <g id="patch_6">
    <path d="M 57.6 41.472 
L 414.72 41.472 
" style="fill:none;stroke:#000000;stroke-linecap:square;stroke-linejoin:miter;stroke-width:0.8;"/>
   </g>
   <g id="text_16">
    <!-- Average fitness over 30 seconds for29cities -->
    <defs>
     <path d="M 48.78125 52.59375 
L 48.78125 44.1875 
Q 44.96875 46.296875 41.140625 47.34375 
Q 37.3125 48.390625 33.40625 48.390625 
Q 24.65625 48.390625 19.8125 42.84375 
Q 14.984375 37.3125 14.984375 27.296875 
Q 14.984375 17.28125 19.8125 11.734375 
Q 24.65625 6.203125 33.40625 6.203125 
Q 37.3125 6.203125 41.140625 7.25 
Q 44.96875 8.296875 48.78125 10.40625 
L 48.78125 2.09375 
Q 45.015625 0.34375 40.984375 -0.53125 
Q 36.96875 -1.421875 32.421875 -1.421875 
Q 20.0625 -1.421875 12.78125 6.34375 
Q 5.515625 14.109375 5.515625 27.296875 
Q 5.515625 40.671875 12.859375 48.328125 
Q 20.21875 56 33.015625 56 
Q 37.15625 56 41.109375 55.140625 
Q 45.0625 54.296875 48.78125 52.59375 
z
" id="DejaVuSans-63"/>
     <path d="M 45.40625 46.390625 
L 45.40625 75.984375 
L 54.390625 75.984375 
L 54.390625 0 
L 45.40625 0 
L 45.40625 8.203125 
Q 42.578125 3.328125 38.25 0.953125 
Q 33.9375 -1.421875 27.875 -1.421875 
Q 17.96875 -1.421875 11.734375 6.484375 
Q 5.515625 14.40625 5.515625 27.296875 
Q 5.515625 40.1875 11.734375 48.09375 
Q 17.96875 56 27.875 56 
Q 33.9375 56 38.25 53.625 
Q 42.578125 51.265625 45.40625 46.390625 
z
M 14.796875 27.296875 
Q 14.796875 17.390625 18.875 11.75 
Q 22.953125 6.109375 30.078125 6.109375 
Q 37.203125 6.109375 41.296875 11.75 
Q 45.40625 17.390625 45.40625 27.296875 
Q 45.40625 37.203125 41.296875 42.84375 
Q 37.203125 48.484375 30.078125 48.484375 
Q 22.953125 48.484375 18.875 42.84375 
Q 14.796875 37.203125 14.796875 27.296875 
z
" id="DejaVuSans-64"/>
     <path d="M 10.984375 1.515625 
L 10.984375 10.5 
Q 14.703125 8.734375 18.5 7.8125 
Q 22.3125 6.890625 25.984375 6.890625 
Q 35.75 6.890625 40.890625 13.453125 
Q 46.046875 20.015625 46.78125 33.40625 
Q 43.953125 29.203125 39.59375 26.953125 
Q 35.25 24.703125 29.984375 24.703125 
Q 19.046875 24.703125 12.671875 31.3125 
Q 6.296875 37.9375 6.296875 49.421875 
Q 6.296875 60.640625 12.9375 67.421875 
Q 19.578125 74.21875 30.609375 74.21875 
Q 43.265625 74.21875 49.921875 64.515625 
Q 56.59375 54.828125 56.59375 36.375 
Q 56.59375 19.140625 48.40625 8.859375 
Q 40.234375 -1.421875 26.421875 -1.421875 
Q 22.703125 -1.421875 18.890625 -0.6875 
Q 15.09375 0.046875 10.984375 1.515625 
z
M 30.609375 32.421875 
Q 37.25 32.421875 41.125 36.953125 
Q 45.015625 41.5 45.015625 49.421875 
Q 45.015625 57.28125 41.125 61.84375 
Q 37.25 66.40625 30.609375 66.40625 
Q 23.96875 66.40625 20.09375 61.84375 
Q 16.21875 57.28125 16.21875 49.421875 
Q 16.21875 41.5 20.09375 36.953125 
Q 23.96875 32.421875 30.609375 32.421875 
z
" id="DejaVuSans-39"/>
    </defs>
    <g transform="translate(104.533125 35.472)scale(0.12 -0.12)">
     <use xlink:href="#DejaVuSans-41"/>
     <use x="68.330078" xlink:href="#DejaVuSans-76"/>
     <use x="127.509766" xlink:href="#DejaVuSans-65"/>
     <use x="189.033203" xlink:href="#DejaVuSans-72"/>
     <use x="230.146484" xlink:href="#DejaVuSans-61"/>
     <use x="291.425781" xlink:href="#DejaVuSans-67"/>
     <use x="354.902344" xlink:href="#DejaVuSans-65"/>
     <use x="416.425781" xlink:href="#DejaVuSans-20"/>
     <use x="448.212891" xlink:href="#DejaVuSans-66"/>
     <use x="483.417969" xlink:href="#DejaVuSans-69"/>
     <use x="511.201172" xlink:href="#DejaVuSans-74"/>
     <use x="550.410156" xlink:href="#DejaVuSans-6e"/>
     <use x="613.789062" xlink:href="#DejaVuSans-65"/>
     <use x="675.3125" xlink:href="#DejaVuSans-73"/>
     <use x="727.412109" xlink:href="#DejaVuSans-73"/>
     <use x="779.511719" xlink:href="#DejaVuSans-20"/>
     <use x="811.298828" xlink:href="#DejaVuSans-6f"/>
     <use x="872.480469" xlink:href="#DejaVuSans-76"/>
     <use x="931.660156" xlink:href="#DejaVuSans-65"/>
     <use x="993.183594" xlink:href="#DejaVuSans-72"/>
     <use x="1034.296875" xlink:href="#DejaVuSans-20"/>
     <use x="1066.083984" xlink:href="#DejaVuSans-33"/>
     <use x="1129.707031" xlink:href="#DejaVuSans-30"/>
     <use x="1193.330078" xlink:href="#DejaVuSans-20"/>
     <use x="1225.117188" xlink:href="#DejaVuSans-73"/>
     <use x="1277.216797" xlink:href="#DejaVuSans-65"/>
     <use x="1338.740234" xlink:href="#DejaVuSans-63"/>
     <use x="1393.720703" xlink:href="#DejaVuSans-6f"/>
     <use x="1454.902344" xlink:href="#DejaVuSans-6e"/>
     <use x="1518.28125" xlink:href="#DejaVuSans-64"/>
     <use x="1581.757812" xlink:href="#DejaVuSans-73"/>
     <use x="1633.857422" xlink:href="#DejaVuSans-20"/>
     <use x="1665.644531" xlink:href="#DejaVuSans-66"/>
     <use x="1700.849609" xlink:href="#DejaVuSans-6f"/>
     <use x="1762.03125" xlink:href="#DejaVuSans-72"/>
     <use x="1803.144531" xlink:href="#DejaVuSans-32"/>
     <use x="1866.767578" xlink:href="#DejaVuSans-39"/>
     <use x="1930.390625" xlink:href="#DejaVuSans-63"/>
     <use x="1985.371094" xlink:href="#DejaVuSans-69"/>
     <use x="2013.154297" xlink:href="#DejaVuSans-74"/>
     <use x="2052.363281" xlink:href="#DejaVuSans-69"/>
     <use x="2080.146484" xlink:href="#DejaVuSans-65"/>
     <use x="2141.669922" xlink:href="#DejaVuSans-73"/>
    </g>
   </g>
   <g id="legend_1">
    <g id="patch_7">
     <path d="M 105.75125 78.82825 
L 407.72 78.82825 
Q 409.72 78.82825 409.72 76.82825 
L 409.72 48.472 
Q 409.72 46.472 407.72 46.472 
L 105.75125 46.472 
Q 103.75125 46.472 103.75125 48.472 
L 103.75125 76.82825 
Q 103.75125 78.82825 105.75125 78.82825 
z
" style="fill:#ffffff;opacity:0.8;stroke:#cccccc;stroke-linejoin:miter;"/>
    </g>
    <g id="patch_8">
     <path d="M 107.75125 58.070437 
L 127.75125 58.070437 
L 127.75125 51.070437 
L 107.75125 51.070437 
z
" style="fill:#87ceeb;stroke:#87ceeb;stroke-linejoin:miter;"/>
    </g>
    <g id="text_17">
     <!-- Parallel min, 2046.91 Last Generation number 1168.0 -->
     <defs>
      <path d="M 19.671875 64.796875 
L 19.671875 37.40625 
L 32.078125 37.40625 
Q 38.96875 37.40625 42.71875 40.96875 
Q 46.484375 44.53125 46.484375 51.125 
Q 46.484375 57.671875 42.71875 61.234375 
Q 38.96875 64.796875 32.078125 64.796875 
z
M 9.8125 72.90625 
L 32.078125 72.90625 
Q 44.34375 72.90625 50.609375 67.359375 
Q 56.890625 61.8125 56.890625 51.125 
Q 56.890625 40.328125 50.609375 34.8125 
Q 44.34375 29.296875 32.078125 29.296875 
L 19.671875 29.296875 
L 19.671875 0 
L 9.8125 0 
z
" id="DejaVuSans-50"/>
      <path d="M 9.421875 75.984375 
L 18.40625 75.984375 
L 18.40625 0 
L 9.421875 0 
z
" id="DejaVuSans-6c"/>
      <path d="M 11.71875 12.40625 
L 22.015625 12.40625 
L 22.015625 4 
L 14.015625 -11.625 
L 7.71875 -11.625 
L 11.71875 4 
z
" id="DejaVuSans-2c"/>
      <path d="M 10.6875 12.40625 
L 21 12.40625 
L 21 0 
L 10.6875 0 
z
" id="DejaVuSans-2e"/>
      <path d="M 9.8125 72.90625 
L 19.671875 72.90625 
L 19.671875 8.296875 
L 55.171875 8.296875 
L 55.171875 0 
L 9.8125 0 
z
" id="DejaVuSans-4c"/>
     </defs>
     <g transform="translate(135.75125 58.070437)scale(0.1 -0.1)">
      <use xlink:href="#DejaVuSans-50"/>
      <use x="60.240234" xlink:href="#DejaVuSans-61"/>
      <use x="121.519531" xlink:href="#DejaVuSans-72"/>
      <use x="162.632812" xlink:href="#DejaVuSans-61"/>
      <use x="223.912109" xlink:href="#DejaVuSans-6c"/>
      <use x="251.695312" xlink:href="#DejaVuSans-6c"/>
      <use x="279.478516" xlink:href="#DejaVuSans-65"/>
      <use x="341.001953" xlink:href="#DejaVuSans-6c"/>
      <use x="368.785156" xlink:href="#DejaVuSans-20"/>
      <use x="400.572266" xlink:href="#DejaVuSans-6d"/>
      <use x="497.984375" xlink:href="#DejaVuSans-69"/>
      <use x="525.767578" xlink:href="#DejaVuSans-6e"/>
      <use x="589.146484" xlink:href="#DejaVuSans-2c"/>
      <use x="620.933594" xlink:href="#DejaVuSans-20"/>
      <use x="652.720703" xlink:href="#DejaVuSans-32"/>
      <use x="716.34375" xlink:href="#DejaVuSans-30"/>
      <use x="779.966797" xlink:href="#DejaVuSans-34"/>
      <use x="843.589844" xlink:href="#DejaVuSans-36"/>
      <use x="907.212891" xlink:href="#DejaVuSans-2e"/>
      <use x="939" xlink:href="#DejaVuSans-39"/>
      <use x="1002.623047" xlink:href="#DejaVuSans-31"/>
      <use x="1066.246094" xlink:href="#DejaVuSans-20"/>
      <use x="1098.033203" xlink:href="#DejaVuSans-4c"/>
      <use x="1153.746094" xlink:href="#DejaVuSans-61"/>
      <use x="1215.025391" xlink:href="#DejaVuSans-73"/>
      <use x="1267.125" xlink:href="#DejaVuSans-74"/>
      <use x="1306.333984" xlink:href="#DejaVuSans-20"/>
      <use x="1338.121094" xlink:href="#DejaVuSans-47"/>
      <use x="1415.611328" xlink:href="#DejaVuSans-65"/>
      <use x="1477.134766" xlink:href="#DejaVuSans-6e"/>
      <use x="1540.513672" xlink:href="#DejaVuSans-65"/>
      <use x="1602.037109" xlink:href="#DejaVuSans-72"/>
      <use x="1643.150391" xlink:href="#DejaVuSans-61"/>
      <use x="1704.429688" xlink:href="#DejaVuSans-74"/>
      <use x="1743.638672" xlink:href="#DejaVuSans-69"/>
      <use x="1771.421875" xlink:href="#DejaVuSans-6f"/>
      <use x="1832.603516" xlink:href="#DejaVuSans-6e"/>
      <use x="1895.982422" xlink:href="#DejaVuSans-20"/>
      <use x="1927.769531" xlink:href="#DejaVuSans-6e"/>
      <use x="1991.148438" xlink:href="#DejaVuSans-75"/>
      <use x="2054.527344" xlink:href="#DejaVuSans-6d"/>
      <use x="2151.939453" xlink:href="#DejaVuSans-62"/>
      <use x="2215.416016" xlink:href="#DejaVuSans-65"/>
      <use x="2276.939453" xlink:href="#DejaVuSans-72"/>
      <use x="2318.052734" xlink:href="#DejaVuSans-20"/>
      <use x="2349.839844" xlink:href="#DejaVuSans-31"/>
      <use x="2413.462891" xlink:href="#DejaVuSans-31"/>
      <use x="2477.085938" xlink:href="#DejaVuSans-36"/>
      <use x="2540.708984" xlink:href="#DejaVuSans-38"/>
      <use x="2604.332031" xlink:href="#DejaVuSans-2e"/>
      <use x="2636.119141" xlink:href="#DejaVuSans-30"/>
     </g>
    </g>
    <g id="patch_9">
     <path d="M 107.75125 72.748562 
L 127.75125 72.748562 
L 127.75125 65.748562 
L 107.75125 65.748562 
z
" style="fill:#ffa500;stroke:#ffa500;stroke-linejoin:miter;"/>
    </g>
    <g id="text_18">
     <!-- Serial min, 2357.72 Last Generation number 401.0 -->
     <defs>
      <path d="M 53.515625 70.515625 
L 53.515625 60.890625 
Q 47.90625 63.578125 42.921875 64.890625 
Q 37.9375 66.21875 33.296875 66.21875 
Q 25.25 66.21875 20.875 63.09375 
Q 16.5 59.96875 16.5 54.203125 
Q 16.5 49.359375 19.40625 46.890625 
Q 22.3125 44.4375 30.421875 42.921875 
L 36.375 41.703125 
Q 47.40625 39.59375 52.65625 34.296875 
Q 57.90625 29 57.90625 20.125 
Q 57.90625 9.515625 50.796875 4.046875 
Q 43.703125 -1.421875 29.984375 -1.421875 
Q 24.8125 -1.421875 18.96875 -0.25 
Q 13.140625 0.921875 6.890625 3.21875 
L 6.890625 13.375 
Q 12.890625 10.015625 18.65625 8.296875 
Q 24.421875 6.59375 29.984375 6.59375 
Q 38.421875 6.59375 43.015625 9.90625 
Q 47.609375 13.234375 47.609375 19.390625 
Q 47.609375 24.75 44.3125 27.78125 
Q 41.015625 30.8125 33.5 32.328125 
L 27.484375 33.5 
Q 16.453125 35.6875 11.515625 40.375 
Q 6.59375 45.0625 6.59375 53.421875 
Q 6.59375 63.09375 13.40625 68.65625 
Q 20.21875 74.21875 32.171875 74.21875 
Q 37.3125 74.21875 42.625 73.28125 
Q 47.953125 72.359375 53.515625 70.515625 
z
" id="DejaVuSans-53"/>
      <path d="M 8.203125 72.90625 
L 55.078125 72.90625 
L 55.078125 68.703125 
L 28.609375 0 
L 18.3125 0 
L 43.21875 64.59375 
L 8.203125 64.59375 
z
" id="DejaVuSans-37"/>
     </defs>
     <g transform="translate(135.75125 72.748562)scale(0.1 -0.1)">
      <use xlink:href="#DejaVuSans-53"/>
      <use x="63.476562" xlink:href="#DejaVuSans-65"/>
      <use x="125" xlink:href="#DejaVuSans-72"/>
      <use x="166.113281" xlink:href="#DejaVuSans-69"/>
      <use x="193.896484" xlink:href="#DejaVuSans-61"/>
      <use x="255.175781" xlink:href="#DejaVuSans-6c"/>
      <use x="282.958984" xlink:href="#DejaVuSans-20"/>
      <use x="314.746094" xlink:href="#DejaVuSans-6d"/>
      <use x="412.158203" xlink:href="#DejaVuSans-69"/>
      <use x="439.941406" xlink:href="#DejaVuSans-6e"/>
      <use x="503.320312" xlink:href="#DejaVuSans-2c"/>
      <use x="535.107422" xlink:href="#DejaVuSans-20"/>
      <use x="566.894531" xlink:href="#DejaVuSans-32"/>
      <use x="630.517578" xlink:href="#DejaVuSans-33"/>
      <use x="694.140625" xlink:href="#DejaVuSans-35"/>
      <use x="757.763672" xlink:href="#DejaVuSans-37"/>
      <use x="821.386719" xlink:href="#DejaVuSans-2e"/>
      <use x="853.173828" xlink:href="#DejaVuSans-37"/>
      <use x="916.796875" xlink:href="#DejaVuSans-32"/>
      <use x="980.419922" xlink:href="#DejaVuSans-20"/>
      <use x="1012.207031" xlink:href="#DejaVuSans-4c"/>
      <use x="1067.919922" xlink:href="#DejaVuSans-61"/>
      <use x="1129.199219" xlink:href="#DejaVuSans-73"/>
      <use x="1181.298828" xlink:href="#DejaVuSans-74"/>
      <use x="1220.507812" xlink:href="#DejaVuSans-20"/>
      <use x="1252.294922" xlink:href="#DejaVuSans-47"/>
      <use x="1329.785156" xlink:href="#DejaVuSans-65"/>
      <use x="1391.308594" xlink:href="#DejaVuSans-6e"/>
      <use x="1454.6875" xlink:href="#DejaVuSans-65"/>
      <use x="1516.210938" xlink:href="#DejaVuSans-72"/>
      <use x="1557.324219" xlink:href="#DejaVuSans-61"/>
      <use x="1618.603516" xlink:href="#DejaVuSans-74"/>
      <use x="1657.8125" xlink:href="#DejaVuSans-69"/>
      <use x="1685.595703" xlink:href="#DejaVuSans-6f"/>
      <use x="1746.777344" xlink:href="#DejaVuSans-6e"/>
      <use x="1810.15625" xlink:href="#DejaVuSans-20"/>
      <use x="1841.943359" xlink:href="#DejaVuSans-6e"/>
      <use x="1905.322266" xlink:href="#DejaVuSans-75"/>
      <use x="1968.701172" xlink:href="#DejaVuSans-6d"/>
      <use x="2066.113281" xlink:href="#DejaVuSans-62"/>
      <use x="2129.589844" xlink:href="#DejaVuSans-65"/>
      <use x="2191.113281" xlink:href="#DejaVuSans-72"/>
      <use x="2232.226562" xlink:href="#DejaVuSans-20"/>
      <use x="2264.013672" xlink:href="#DejaVuSans-34"/>
      <use x="2327.636719" xlink:href="#DejaVuSans-30"/>
      <use x="2391.259766" xlink:href="#DejaVuSans-31"/>
      <use x="2454.882812" xlink:href="#DejaVuSans-2e"/>
      <use x="2486.669922" xlink:href="#DejaVuSans-30"/>
     </g>
    </g>
   </g>
  </g>
 </g>
 <defs>
  <clipPath id="p4eaf1dbec2">
   <rect height="266.112" width="357.12" x="57.6" y="41.472"/>
  </clipPath>
 </defs>
</svg>
