<?xml version="1.0" encoding="utf-8" standalone="no"?>
<!DOCTYPE svg PUBLIC "-//W3C//DTD SVG 1.1//EN"
  "http://www.w3.org/Graphics/SVG/1.1/DTD/svg11.dtd">
<!-- Created with matplotlib (http://matplotlib.org/) -->
<svg height="345.6pt" version="1.1" viewBox="0 0 460.8 345.6" width="460.8pt" xmlns="http://www.w3.org/2000/svg" xmlns:xlink="http://www.w3.org/1999/xlink">
 <defs>
  <style type="text/css">
*{stroke-linecap:butt;stroke-linejoin:round;}
  </style>
 </defs>
 <g id="figure_1">
  <g id="patch_1">
   <path d="M 0 345.6 
L 460.8 345.6 
L 460.8 0 
L 0 0 
z
" style="fill:#ffffff;"/>
  </g>
  <g id="axes_1">
   <g id="patch_2">
    <path d="M 57.6 307.584 
L 414.72 307.584 
L 414.72 41.472 
L 57.6 41.472 
z
" style="fill:#ffffff;"/>
   </g>
   <g id="matplotlib.axis_1">
    <g id="xtick_1">
     <g id="line2d_1">
      <defs>
       <path d="M 0 0 
L 0 3.5 
" id="m93149a9dda" style="stroke:#000000;stroke-width:0.8;"/>
      </defs>
      <g>
       <use style="stroke:#000000;stroke-width:0.8;" x="73.483261" xlink:href="#m93149a9dda" y="307.584"/>
      </g>
     </g>
     <g id="text_1">
      <!-- 0 -->
      <defs>
       <path d="M 31.78125 66.40625 
Q 24.171875 66.40625 20.328125 58.90625 
Q 16.5 51.421875 16.5 36.375 
Q 16.5 21.390625 20.328125 13.890625 
Q 24.171875 6.390625 31.78125 6.390625 
Q 39.453125 6.390625 43.28125 13.890625 
Q 47.125 21.390625 47.125 36.375 
Q 47.125 51.421875 43.28125 58.90625 
Q 39.453125 66.40625 31.78125 66.40625 
z
M 31.78125 74.21875 
Q 44.046875 74.21875 50.515625 64.515625 
Q 56.984375 54.828125 56.984375 36.375 
Q 56.984375 17.96875 50.515625 8.265625 
Q 44.046875 -1.421875 31.78125 -1.421875 
Q 19.53125 -1.421875 13.0625 8.265625 
Q 6.59375 17.96875 6.59375 36.375 
Q 6.59375 54.828125 13.0625 64.515625 
Q 19.53125 74.21875 31.78125 74.21875 
z
" id="DejaVuSans-30"/>
      </defs>
      <g transform="translate(70.302011 322.182437)scale(0.1 -0.1)">
       <use xlink:href="#DejaVuSans-30"/>
      </g>
     </g>
    </g>
    <g id="xtick_2">
     <g id="line2d_2">
      <g>
       <use style="stroke:#000000;stroke-width:0.8;" x="143.376597" xlink:href="#m93149a9dda" y="307.584"/>
      </g>
     </g>
     <g id="text_2">
      <!-- 200 -->
      <defs>
       <path d="M 19.1875 8.296875 
L 53.609375 8.296875 
L 53.609375 0 
L 7.328125 0 
L 7.328125 8.296875 
Q 12.9375 14.109375 22.625 23.890625 
Q 32.328125 33.6875 34.8125 36.53125 
Q 39.546875 41.84375 41.421875 45.53125 
Q 43.3125 49.21875 43.3125 52.78125 
Q 43.3125 58.59375 39.234375 62.25 
Q 35.15625 65.921875 28.609375 65.921875 
Q 23.96875 65.921875 18.8125 64.3125 
Q 13.671875 62.703125 7.8125 59.421875 
L 7.8125 69.390625 
Q 13.765625 71.78125 18.9375 73 
Q 24.125 74.21875 28.421875 74.21875 
Q 39.75 74.21875 46.484375 68.546875 
Q 53.21875 62.890625 53.21875 53.421875 
Q 53.21875 48.921875 51.53125 44.890625 
Q 49.859375 40.875 45.40625 35.40625 
Q 44.1875 33.984375 37.640625 27.21875 
Q 31.109375 20.453125 19.1875 8.296875 
z
" id="DejaVuSans-32"/>
      </defs>
      <g transform="translate(133.832847 322.182437)scale(0.1 -0.1)">
       <use xlink:href="#DejaVuSans-32"/>
       <use x="63.623047" xlink:href="#DejaVuSans-30"/>
       <use x="127.246094" xlink:href="#DejaVuSans-30"/>
      </g>
     </g>
    </g>
    <g id="xtick_3">
     <g id="line2d_3">
      <g>
       <use style="stroke:#000000;stroke-width:0.8;" x="213.269932" xlink:href="#m93149a9dda" y="307.584"/>
      </g>
     </g>
     <g id="text_3">
      <!-- 400 -->
      <defs>
       <path d="M 37.796875 64.3125 
L 12.890625 25.390625 
L 37.796875 25.390625 
z
M 35.203125 72.90625 
L 47.609375 72.90625 
L 47.609375 25.390625 
L 58.015625 25.390625 
L 58.015625 17.1875 
L 47.609375 17.1875 
L 47.609375 0 
L 37.796875 0 
L 37.796875 17.1875 
L 4.890625 17.1875 
L 4.890625 26.703125 
z
" id="DejaVuSans-34"/>
      </defs>
      <g transform="translate(203.726182 322.182437)scale(0.1 -0.1)">
       <use xlink:href="#DejaVuSans-34"/>
       <use x="63.623047" xlink:href="#DejaVuSans-30"/>
       <use x="127.246094" xlink:href="#DejaVuSans-30"/>
      </g>
     </g>
    </g>
    <g id="xtick_4">
     <g id="line2d_4">
      <g>
       <use style="stroke:#000000;stroke-width:0.8;" x="283.163268" xlink:href="#m93149a9dda" y="307.584"/>
      </g>
     </g>
     <g id="text_4">
      <!-- 600 -->
      <defs>
       <path d="M 33.015625 40.375 
Q 26.375 40.375 22.484375 35.828125 
Q 18.609375 31.296875 18.609375 23.390625 
Q 18.609375 15.53125 22.484375 10.953125 
Q 26.375 6.390625 33.015625 6.390625 
Q 39.65625 6.390625 43.53125 10.953125 
Q 47.40625 15.53125 47.40625 23.390625 
Q 47.40625 31.296875 43.53125 35.828125 
Q 39.65625 40.375 33.015625 40.375 
z
M 52.59375 71.296875 
L 52.59375 62.3125 
Q 48.875 64.0625 45.09375 64.984375 
Q 41.3125 65.921875 37.59375 65.921875 
Q 27.828125 65.921875 22.671875 59.328125 
Q 17.53125 52.734375 16.796875 39.40625 
Q 19.671875 43.65625 24.015625 45.921875 
Q 28.375 48.1875 33.59375 48.1875 
Q 44.578125 48.1875 50.953125 41.515625 
Q 57.328125 34.859375 57.328125 23.390625 
Q 57.328125 12.15625 50.6875 5.359375 
Q 44.046875 -1.421875 33.015625 -1.421875 
Q 20.359375 -1.421875 13.671875 8.265625 
Q 6.984375 17.96875 6.984375 36.375 
Q 6.984375 53.65625 15.1875 63.9375 
Q 23.390625 74.21875 37.203125 74.21875 
Q 40.921875 74.21875 44.703125 73.484375 
Q 48.484375 72.75 52.59375 71.296875 
z
" id="DejaVuSans-36"/>
      </defs>
      <g transform="translate(273.619518 322.182437)scale(0.1 -0.1)">
       <use xlink:href="#DejaVuSans-36"/>
       <use x="63.623047" xlink:href="#DejaVuSans-30"/>
       <use x="127.246094" xlink:href="#DejaVuSans-30"/>
      </g>
     </g>
    </g>
    <g id="xtick_5">
     <g id="line2d_5">
      <g>
       <use style="stroke:#000000;stroke-width:0.8;" x="353.056604" xlink:href="#m93149a9dda" y="307.584"/>
      </g>
     </g>
     <g id="text_5">
      <!-- 800 -->
      <defs>
       <path d="M 31.78125 34.625 
Q 24.75 34.625 20.71875 30.859375 
Q 16.703125 27.09375 16.703125 20.515625 
Q 16.703125 13.921875 20.71875 10.15625 
Q 24.75 6.390625 31.78125 6.390625 
Q 38.8125 6.390625 42.859375 10.171875 
Q 46.921875 13.96875 46.921875 20.515625 
Q 46.921875 27.09375 42.890625 30.859375 
Q 38.875 34.625 31.78125 34.625 
z
M 21.921875 38.8125 
Q 15.578125 40.375 12.03125 44.71875 
Q 8.5 49.078125 8.5 55.328125 
Q 8.5 64.0625 14.71875 69.140625 
Q 20.953125 74.21875 31.78125 74.21875 
Q 42.671875 74.21875 48.875 69.140625 
Q 55.078125 64.0625 55.078125 55.328125 
Q 55.078125 49.078125 51.53125 44.71875 
Q 48 40.375 41.703125 38.8125 
Q 48.828125 37.15625 52.796875 32.3125 
Q 56.78125 27.484375 56.78125 20.515625 
Q 56.78125 9.90625 50.3125 4.234375 
Q 43.84375 -1.421875 31.78125 -1.421875 
Q 19.734375 -1.421875 13.25 4.234375 
Q 6.78125 9.90625 6.78125 20.515625 
Q 6.78125 27.484375 10.78125 32.3125 
Q 14.796875 37.15625 21.921875 38.8125 
z
M 18.3125 54.390625 
Q 18.3125 48.734375 21.84375 45.5625 
Q 25.390625 42.390625 31.78125 42.390625 
Q 38.140625 42.390625 41.71875 45.5625 
Q 45.3125 48.734375 45.3125 54.390625 
Q 45.3125 60.0625 41.71875 63.234375 
Q 38.140625 66.40625 31.78125 66.40625 
Q 25.390625 66.40625 21.84375 63.234375 
Q 18.3125 60.0625 18.3125 54.390625 
z
" id="DejaVuSans-38"/>
      </defs>
      <g transform="translate(343.512854 322.182437)scale(0.1 -0.1)">
       <use xlink:href="#DejaVuSans-38"/>
       <use x="63.623047" xlink:href="#DejaVuSans-30"/>
       <use x="127.246094" xlink:href="#DejaVuSans-30"/>
      </g>
     </g>
    </g>
    <g id="text_6">
     <!-- Generation number -->
     <defs>
      <path d="M 59.515625 10.40625 
L 59.515625 29.984375 
L 43.40625 29.984375 
L 43.40625 38.09375 
L 69.28125 38.09375 
L 69.28125 6.78125 
Q 63.578125 2.734375 56.6875 0.65625 
Q 49.8125 -1.421875 42 -1.421875 
Q 24.90625 -1.421875 15.25 8.5625 
Q 5.609375 18.5625 5.609375 36.375 
Q 5.609375 54.25 15.25 64.234375 
Q 24.90625 74.21875 42 74.21875 
Q 49.125 74.21875 55.546875 72.453125 
Q 61.96875 70.703125 67.390625 67.28125 
L 67.390625 56.78125 
Q 61.921875 61.421875 55.765625 63.765625 
Q 49.609375 66.109375 42.828125 66.109375 
Q 29.4375 66.109375 22.71875 58.640625 
Q 16.015625 51.171875 16.015625 36.375 
Q 16.015625 21.625 22.71875 14.15625 
Q 29.4375 6.6875 42.828125 6.6875 
Q 48.046875 6.6875 52.140625 7.59375 
Q 56.25 8.5 59.515625 10.40625 
z
" id="DejaVuSans-47"/>
      <path d="M 56.203125 29.59375 
L 56.203125 25.203125 
L 14.890625 25.203125 
Q 15.484375 15.921875 20.484375 11.0625 
Q 25.484375 6.203125 34.421875 6.203125 
Q 39.59375 6.203125 44.453125 7.46875 
Q 49.3125 8.734375 54.109375 11.28125 
L 54.109375 2.78125 
Q 49.265625 0.734375 44.1875 -0.34375 
Q 39.109375 -1.421875 33.890625 -1.421875 
Q 20.796875 -1.421875 13.15625 6.1875 
Q 5.515625 13.8125 5.515625 26.8125 
Q 5.515625 40.234375 12.765625 48.109375 
Q 20.015625 56 32.328125 56 
Q 43.359375 56 49.78125 48.890625 
Q 56.203125 41.796875 56.203125 29.59375 
z
M 47.21875 32.234375 
Q 47.125 39.59375 43.09375 43.984375 
Q 39.0625 48.390625 32.421875 48.390625 
Q 24.90625 48.390625 20.390625 44.140625 
Q 15.875 39.890625 15.1875 32.171875 
z
" id="DejaVuSans-65"/>
      <path d="M 54.890625 33.015625 
L 54.890625 0 
L 45.90625 0 
L 45.90625 32.71875 
Q 45.90625 40.484375 42.875 44.328125 
Q 39.84375 48.1875 33.796875 48.1875 
Q 26.515625 48.1875 22.3125 43.546875 
Q 18.109375 38.921875 18.109375 30.90625 
L 18.109375 0 
L 9.078125 0 
L 9.078125 54.6875 
L 18.109375 54.6875 
L 18.109375 46.1875 
Q 21.34375 51.125 25.703125 53.5625 
Q 30.078125 56 35.796875 56 
Q 45.21875 56 50.046875 50.171875 
Q 54.890625 44.34375 54.890625 33.015625 
z
" id="DejaVuSans-6e"/>
      <path d="M 41.109375 46.296875 
Q 39.59375 47.171875 37.8125 47.578125 
Q 36.03125 48 33.890625 48 
Q 26.265625 48 22.1875 43.046875 
Q 18.109375 38.09375 18.109375 28.8125 
L 18.109375 0 
L 9.078125 0 
L 9.078125 54.6875 
L 18.109375 54.6875 
L 18.109375 46.1875 
Q 20.953125 51.171875 25.484375 53.578125 
Q 30.03125 56 36.53125 56 
Q 37.453125 56 38.578125 55.875 
Q 39.703125 55.765625 41.0625 55.515625 
z
" id="DejaVuSans-72"/>
      <path d="M 34.28125 27.484375 
Q 23.390625 27.484375 19.1875 25 
Q 14.984375 22.515625 14.984375 16.5 
Q 14.984375 11.71875 18.140625 8.90625 
Q 21.296875 6.109375 26.703125 6.109375 
Q 34.1875 6.109375 38.703125 11.40625 
Q 43.21875 16.703125 43.21875 25.484375 
L 43.21875 27.484375 
z
M 52.203125 31.203125 
L 52.203125 0 
L 43.21875 0 
L 43.21875 8.296875 
Q 40.140625 3.328125 35.546875 0.953125 
Q 30.953125 -1.421875 24.3125 -1.421875 
Q 15.921875 -1.421875 10.953125 3.296875 
Q 6 8.015625 6 15.921875 
Q 6 25.140625 12.171875 29.828125 
Q 18.359375 34.515625 30.609375 34.515625 
L 43.21875 34.515625 
L 43.21875 35.40625 
Q 43.21875 41.609375 39.140625 45 
Q 35.0625 48.390625 27.6875 48.390625 
Q 23 48.390625 18.546875 47.265625 
Q 14.109375 46.140625 10.015625 43.890625 
L 10.015625 52.203125 
Q 14.9375 54.109375 19.578125 55.046875 
Q 24.21875 56 28.609375 56 
Q 40.484375 56 46.34375 49.84375 
Q 52.203125 43.703125 52.203125 31.203125 
z
" id="DejaVuSans-61"/>
      <path d="M 18.3125 70.21875 
L 18.3125 54.6875 
L 36.8125 54.6875 
L 36.8125 47.703125 
L 18.3125 47.703125 
L 18.3125 18.015625 
Q 18.3125 11.328125 20.140625 9.421875 
Q 21.96875 7.515625 27.59375 7.515625 
L 36.8125 7.515625 
L 36.8125 0 
L 27.59375 0 
Q 17.1875 0 13.234375 3.875 
Q 9.28125 7.765625 9.28125 18.015625 
L 9.28125 47.703125 
L 2.6875 47.703125 
L 2.6875 54.6875 
L 9.28125 54.6875 
L 9.28125 70.21875 
z
" id="DejaVuSans-74"/>
      <path d="M 9.421875 54.6875 
L 18.40625 54.6875 
L 18.40625 0 
L 9.421875 0 
z
M 9.421875 75.984375 
L 18.40625 75.984375 
L 18.40625 64.59375 
L 9.421875 64.59375 
z
" id="DejaVuSans-69"/>
      <path d="M 30.609375 48.390625 
Q 23.390625 48.390625 19.1875 42.75 
Q 14.984375 37.109375 14.984375 27.296875 
Q 14.984375 17.484375 19.15625 11.84375 
Q 23.34375 6.203125 30.609375 6.203125 
Q 37.796875 6.203125 41.984375 11.859375 
Q 46.1875 17.53125 46.1875 27.296875 
Q 46.1875 37.015625 41.984375 42.703125 
Q 37.796875 48.390625 30.609375 48.390625 
z
M 30.609375 56 
Q 42.328125 56 49.015625 48.375 
Q 55.71875 40.765625 55.71875 27.296875 
Q 55.71875 13.875 49.015625 6.21875 
Q 42.328125 -1.421875 30.609375 -1.421875 
Q 18.84375 -1.421875 12.171875 6.21875 
Q 5.515625 13.875 5.515625 27.296875 
Q 5.515625 40.765625 12.171875 48.375 
Q 18.84375 56 30.609375 56 
z
" id="DejaVuSans-6f"/>
      <path id="DejaVuSans-20"/>
      <path d="M 8.5 21.578125 
L 8.5 54.6875 
L 17.484375 54.6875 
L 17.484375 21.921875 
Q 17.484375 14.15625 20.5 10.265625 
Q 23.53125 6.390625 29.59375 6.390625 
Q 36.859375 6.390625 41.078125 11.03125 
Q 45.3125 15.671875 45.3125 23.6875 
L 45.3125 54.6875 
L 54.296875 54.6875 
L 54.296875 0 
L 45.3125 0 
L 45.3125 8.40625 
Q 42.046875 3.421875 37.71875 1 
Q 33.40625 -1.421875 27.6875 -1.421875 
Q 18.265625 -1.421875 13.375 4.4375 
Q 8.5 10.296875 8.5 21.578125 
z
M 31.109375 56 
z
" id="DejaVuSans-75"/>
      <path d="M 52 44.1875 
Q 55.375 50.25 60.0625 53.125 
Q 64.75 56 71.09375 56 
Q 79.640625 56 84.28125 50.015625 
Q 88.921875 44.046875 88.921875 33.015625 
L 88.921875 0 
L 79.890625 0 
L 79.890625 32.71875 
Q 79.890625 40.578125 77.09375 44.375 
Q 74.3125 48.1875 68.609375 48.1875 
Q 61.625 48.1875 57.5625 43.546875 
Q 53.515625 38.921875 53.515625 30.90625 
L 53.515625 0 
L 44.484375 0 
L 44.484375 32.71875 
Q 44.484375 40.625 41.703125 44.40625 
Q 38.921875 48.1875 33.109375 48.1875 
Q 26.21875 48.1875 22.15625 43.53125 
Q 18.109375 38.875 18.109375 30.90625 
L 18.109375 0 
L 9.078125 0 
L 9.078125 54.6875 
L 18.109375 54.6875 
L 18.109375 46.1875 
Q 21.1875 51.21875 25.484375 53.609375 
Q 29.78125 56 35.6875 56 
Q 41.65625 56 45.828125 52.96875 
Q 50 49.953125 52 44.1875 
z
" id="DejaVuSans-6d"/>
      <path d="M 48.6875 27.296875 
Q 48.6875 37.203125 44.609375 42.84375 
Q 40.53125 48.484375 33.40625 48.484375 
Q 26.265625 48.484375 22.1875 42.84375 
Q 18.109375 37.203125 18.109375 27.296875 
Q 18.109375 17.390625 22.1875 11.75 
Q 26.265625 6.109375 33.40625 6.109375 
Q 40.53125 6.109375 44.609375 11.75 
Q 48.6875 17.390625 48.6875 27.296875 
z
M 18.109375 46.390625 
Q 20.953125 51.265625 25.265625 53.625 
Q 29.59375 56 35.59375 56 
Q 45.5625 56 51.78125 48.09375 
Q 58.015625 40.1875 58.015625 27.296875 
Q 58.015625 14.40625 51.78125 6.484375 
Q 45.5625 -1.421875 35.59375 -1.421875 
Q 29.59375 -1.421875 25.265625 0.953125 
Q 20.953125 3.328125 18.109375 8.203125 
L 18.109375 0 
L 9.078125 0 
L 9.078125 75.984375 
L 18.109375 75.984375 
z
" id="DejaVuSans-62"/>
     </defs>
     <g transform="translate(187.163906 335.860562)scale(0.1 -0.1)">
      <use xlink:href="#DejaVuSans-47"/>
      <use x="77.490234" xlink:href="#DejaVuSans-65"/>
      <use x="139.013672" xlink:href="#DejaVuSans-6e"/>
      <use x="202.392578" xlink:href="#DejaVuSans-65"/>
      <use x="263.916016" xlink:href="#DejaVuSans-72"/>
      <use x="305.029297" xlink:href="#DejaVuSans-61"/>
      <use x="366.308594" xlink:href="#DejaVuSans-74"/>
      <use x="405.517578" xlink:href="#DejaVuSans-69"/>
      <use x="433.300781" xlink:href="#DejaVuSans-6f"/>
      <use x="494.482422" xlink:href="#DejaVuSans-6e"/>
      <use x="557.861328" xlink:href="#DejaVuSans-20"/>
      <use x="589.648438" xlink:href="#DejaVuSans-6e"/>
      <use x="653.027344" xlink:href="#DejaVuSans-75"/>
      <use x="716.40625" xlink:href="#DejaVuSans-6d"/>
      <use x="813.818359" xlink:href="#DejaVuSans-62"/>
      <use x="877.294922" xlink:href="#DejaVuSans-65"/>
      <use x="938.818359" xlink:href="#DejaVuSans-72"/>
     </g>
    </g>
   </g>
   <g id="matplotlib.axis_2">
    <g id="ytick_1">
     <g id="line2d_6">
      <defs>
       <path d="M 0 0 
L -3.5 0 
" id="m4a56831e39" style="stroke:#000000;stroke-width:0.8;"/>
      </defs>
      <g>
       <use style="stroke:#000000;stroke-width:0.8;" x="57.6" xlink:href="#m4a56831e39" y="282.393333"/>
      </g>
     </g>
     <g id="text_7">
      <!-- 12500 -->
      <defs>
       <path d="M 12.40625 8.296875 
L 28.515625 8.296875 
L 28.515625 63.921875 
L 10.984375 60.40625 
L 10.984375 69.390625 
L 28.421875 72.90625 
L 38.28125 72.90625 
L 38.28125 8.296875 
L 54.390625 8.296875 
L 54.390625 0 
L 12.40625 0 
z
" id="DejaVuSans-31"/>
       <path d="M 10.796875 72.90625 
L 49.515625 72.90625 
L 49.515625 64.59375 
L 19.828125 64.59375 
L 19.828125 46.734375 
Q 21.96875 47.46875 24.109375 47.828125 
Q 26.265625 48.1875 28.421875 48.1875 
Q 40.625 48.1875 47.75 41.5 
Q 54.890625 34.8125 54.890625 23.390625 
Q 54.890625 11.625 47.5625 5.09375 
Q 40.234375 -1.421875 26.90625 -1.421875 
Q 22.3125 -1.421875 17.546875 -0.640625 
Q 12.796875 0.140625 7.71875 1.703125 
L 7.71875 11.625 
Q 12.109375 9.234375 16.796875 8.0625 
Q 21.484375 6.890625 26.703125 6.890625 
Q 35.15625 6.890625 40.078125 11.328125 
Q 45.015625 15.765625 45.015625 23.390625 
Q 45.015625 31 40.078125 35.4375 
Q 35.15625 39.890625 26.703125 39.890625 
Q 22.75 39.890625 18.8125 39.015625 
Q 14.890625 38.140625 10.796875 36.28125 
z
" id="DejaVuSans-35"/>
      </defs>
      <g transform="translate(18.7875 286.192552)scale(0.1 -0.1)">
       <use xlink:href="#DejaVuSans-31"/>
       <use x="63.623047" xlink:href="#DejaVuSans-32"/>
       <use x="127.246094" xlink:href="#DejaVuSans-35"/>
       <use x="190.869141" xlink:href="#DejaVuSans-30"/>
       <use x="254.492188" xlink:href="#DejaVuSans-30"/>
      </g>
     </g>
    </g>
    <g id="ytick_2">
     <g id="line2d_7">
      <g>
       <use style="stroke:#000000;stroke-width:0.8;" x="57.6" xlink:href="#m4a56831e39" y="245.982848"/>
      </g>
     </g>
     <g id="text_8">
      <!-- 15000 -->
      <g transform="translate(18.7875 249.782067)scale(0.1 -0.1)">
       <use xlink:href="#DejaVuSans-31"/>
       <use x="63.623047" xlink:href="#DejaVuSans-35"/>
       <use x="127.246094" xlink:href="#DejaVuSans-30"/>
       <use x="190.869141" xlink:href="#DejaVuSans-30"/>
       <use x="254.492188" xlink:href="#DejaVuSans-30"/>
      </g>
     </g>
    </g>
    <g id="ytick_3">
     <g id="line2d_8">
      <g>
       <use style="stroke:#000000;stroke-width:0.8;" x="57.6" xlink:href="#m4a56831e39" y="209.572363"/>
      </g>
     </g>
     <g id="text_9">
      <!-- 17500 -->
      <defs>
       <path d="M 8.203125 72.90625 
L 55.078125 72.90625 
L 55.078125 68.703125 
L 28.609375 0 
L 18.3125 0 
L 43.21875 64.59375 
L 8.203125 64.59375 
z
" id="DejaVuSans-37"/>
      </defs>
      <g transform="translate(18.7875 213.371582)scale(0.1 -0.1)">
       <use xlink:href="#DejaVuSans-31"/>
       <use x="63.623047" xlink:href="#DejaVuSans-37"/>
       <use x="127.246094" xlink:href="#DejaVuSans-35"/>
       <use x="190.869141" xlink:href="#DejaVuSans-30"/>
       <use x="254.492188" xlink:href="#DejaVuSans-30"/>
      </g>
     </g>
    </g>
    <g id="ytick_4">
     <g id="line2d_9">
      <g>
       <use style="stroke:#000000;stroke-width:0.8;" x="57.6" xlink:href="#m4a56831e39" y="173.161879"/>
      </g>
     </g>
     <g id="text_10">
      <!-- 20000 -->
      <g transform="translate(18.7875 176.961097)scale(0.1 -0.1)">
       <use xlink:href="#DejaVuSans-32"/>
       <use x="63.623047" xlink:href="#DejaVuSans-30"/>
       <use x="127.246094" xlink:href="#DejaVuSans-30"/>
       <use x="190.869141" xlink:href="#DejaVuSans-30"/>
       <use x="254.492188" xlink:href="#DejaVuSans-30"/>
      </g>
     </g>
    </g>
    <g id="ytick_5">
     <g id="line2d_10">
      <g>
       <use style="stroke:#000000;stroke-width:0.8;" x="57.6" xlink:href="#m4a56831e39" y="136.751394"/>
      </g>
     </g>
     <g id="text_11">
      <!-- 22500 -->
      <g transform="translate(18.7875 140.550612)scale(0.1 -0.1)">
       <use xlink:href="#DejaVuSans-32"/>
       <use x="63.623047" xlink:href="#DejaVuSans-32"/>
       <use x="127.246094" xlink:href="#DejaVuSans-35"/>
       <use x="190.869141" xlink:href="#DejaVuSans-30"/>
       <use x="254.492188" xlink:href="#DejaVuSans-30"/>
      </g>
     </g>
    </g>
    <g id="ytick_6">
     <g id="line2d_11">
      <g>
       <use style="stroke:#000000;stroke-width:0.8;" x="57.6" xlink:href="#m4a56831e39" y="100.340909"/>
      </g>
     </g>
     <g id="text_12">
      <!-- 25000 -->
      <g transform="translate(18.7875 104.140128)scale(0.1 -0.1)">
       <use xlink:href="#DejaVuSans-32"/>
       <use x="63.623047" xlink:href="#DejaVuSans-35"/>
       <use x="127.246094" xlink:href="#DejaVuSans-30"/>
       <use x="190.869141" xlink:href="#DejaVuSans-30"/>
       <use x="254.492188" xlink:href="#DejaVuSans-30"/>
      </g>
     </g>
    </g>
    <g id="ytick_7">
     <g id="line2d_12">
      <g>
       <use style="stroke:#000000;stroke-width:0.8;" x="57.6" xlink:href="#m4a56831e39" y="63.930424"/>
      </g>
     </g>
     <g id="text_13">
      <!-- 27500 -->
      <g transform="translate(18.7875 67.729643)scale(0.1 -0.1)">
       <use xlink:href="#DejaVuSans-32"/>
       <use x="63.623047" xlink:href="#DejaVuSans-37"/>
       <use x="127.246094" xlink:href="#DejaVuSans-35"/>
       <use x="190.869141" xlink:href="#DejaVuSans-30"/>
       <use x="254.492188" xlink:href="#DejaVuSans-30"/>
      </g>
     </g>
    </g>
    <g id="text_14">
     <!-- Average fitness -->
     <defs>
      <path d="M 34.1875 63.1875 
L 20.796875 26.90625 
L 47.609375 26.90625 
z
M 28.609375 72.90625 
L 39.796875 72.90625 
L 67.578125 0 
L 57.328125 0 
L 50.6875 18.703125 
L 17.828125 18.703125 
L 11.1875 0 
L 0.78125 0 
z
" id="DejaVuSans-41"/>
      <path d="M 2.984375 54.6875 
L 12.5 54.6875 
L 29.59375 8.796875 
L 46.6875 54.6875 
L 56.203125 54.6875 
L 35.6875 0 
L 23.484375 0 
z
" id="DejaVuSans-76"/>
      <path d="M 45.40625 27.984375 
Q 45.40625 37.75 41.375 43.109375 
Q 37.359375 48.484375 30.078125 48.484375 
Q 22.859375 48.484375 18.828125 43.109375 
Q 14.796875 37.75 14.796875 27.984375 
Q 14.796875 18.265625 18.828125 12.890625 
Q 22.859375 7.515625 30.078125 7.515625 
Q 37.359375 7.515625 41.375 12.890625 
Q 45.40625 18.265625 45.40625 27.984375 
z
M 54.390625 6.78125 
Q 54.390625 -7.171875 48.1875 -13.984375 
Q 42 -20.796875 29.203125 -20.796875 
Q 24.46875 -20.796875 20.265625 -20.09375 
Q 16.0625 -19.390625 12.109375 -17.921875 
L 12.109375 -9.1875 
Q 16.0625 -11.328125 19.921875 -12.34375 
Q 23.78125 -13.375 27.78125 -13.375 
Q 36.625 -13.375 41.015625 -8.765625 
Q 45.40625 -4.15625 45.40625 5.171875 
L 45.40625 9.625 
Q 42.625 4.78125 38.28125 2.390625 
Q 33.9375 0 27.875 0 
Q 17.828125 0 11.671875 7.65625 
Q 5.515625 15.328125 5.515625 27.984375 
Q 5.515625 40.671875 11.671875 48.328125 
Q 17.828125 56 27.875 56 
Q 33.9375 56 38.28125 53.609375 
Q 42.625 51.21875 45.40625 46.390625 
L 45.40625 54.6875 
L 54.390625 54.6875 
z
" id="DejaVuSans-67"/>
      <path d="M 37.109375 75.984375 
L 37.109375 68.5 
L 28.515625 68.5 
Q 23.6875 68.5 21.796875 66.546875 
Q 19.921875 64.59375 19.921875 59.515625 
L 19.921875 54.6875 
L 34.71875 54.6875 
L 34.71875 47.703125 
L 19.921875 47.703125 
L 19.921875 0 
L 10.890625 0 
L 10.890625 47.703125 
L 2.296875 47.703125 
L 2.296875 54.6875 
L 10.890625 54.6875 
L 10.890625 58.5 
Q 10.890625 67.625 15.140625 71.796875 
Q 19.390625 75.984375 28.609375 75.984375 
z
" id="DejaVuSans-66"/>
      <path d="M 44.28125 53.078125 
L 44.28125 44.578125 
Q 40.484375 46.53125 36.375 47.5 
Q 32.28125 48.484375 27.875 48.484375 
Q 21.1875 48.484375 17.84375 46.4375 
Q 14.5 44.390625 14.5 40.28125 
Q 14.5 37.15625 16.890625 35.375 
Q 19.28125 33.59375 26.515625 31.984375 
L 29.59375 31.296875 
Q 39.15625 29.25 43.1875 25.515625 
Q 47.21875 21.78125 47.21875 15.09375 
Q 47.21875 7.46875 41.1875 3.015625 
Q 35.15625 -1.421875 24.609375 -1.421875 
Q 20.21875 -1.421875 15.453125 -0.5625 
Q 10.6875 0.296875 5.421875 2 
L 5.421875 11.28125 
Q 10.40625 8.6875 15.234375 7.390625 
Q 20.0625 6.109375 24.8125 6.109375 
Q 31.15625 6.109375 34.5625 8.28125 
Q 37.984375 10.453125 37.984375 14.40625 
Q 37.984375 18.0625 35.515625 20.015625 
Q 33.0625 21.96875 24.703125 23.78125 
L 21.578125 24.515625 
Q 13.234375 26.265625 9.515625 29.90625 
Q 5.8125 33.546875 5.8125 39.890625 
Q 5.8125 47.609375 11.28125 51.796875 
Q 16.75 56 26.8125 56 
Q 31.78125 56 36.171875 55.265625 
Q 40.578125 54.546875 44.28125 53.078125 
z
" id="DejaVuSans-73"/>
     </defs>
     <g transform="translate(12.707812 213.503781)rotate(-90)scale(0.1 -0.1)">
      <use xlink:href="#DejaVuSans-41"/>
      <use x="68.330078" xlink:href="#DejaVuSans-76"/>
      <use x="127.509766" xlink:href="#DejaVuSans-65"/>
      <use x="189.033203" xlink:href="#DejaVuSans-72"/>
      <use x="230.146484" xlink:href="#DejaVuSans-61"/>
      <use x="291.425781" xlink:href="#DejaVuSans-67"/>
      <use x="354.902344" xlink:href="#DejaVuSans-65"/>
      <use x="416.425781" xlink:href="#DejaVuSans-20"/>
      <use x="448.212891" xlink:href="#DejaVuSans-66"/>
      <use x="483.417969" xlink:href="#DejaVuSans-69"/>
      <use x="511.201172" xlink:href="#DejaVuSans-74"/>
      <use x="550.410156" xlink:href="#DejaVuSans-6e"/>
      <use x="613.789062" xlink:href="#DejaVuSans-65"/>
      <use x="675.3125" xlink:href="#DejaVuSans-73"/>
      <use x="727.412109" xlink:href="#DejaVuSans-73"/>
     </g>
    </g>
   </g>
   <g id="line2d_13">
    <path clip-path="url(#p2a529b304d)" d="M 73.832727 55.972548 
L 74.182194 84.170284 
L 74.531661 99.050521 
L 75.230594 115.577969 
L 75.929527 125.398605 
L 76.628461 132.112698 
L 76.977927 134.706581 
L 77.676861 145.023856 
L 78.375794 151.248592 
L 79.074727 156.190223 
L 79.424194 157.862193 
L 81.171528 170.059705 
L 82.219928 177.003913 
L 82.569394 178.620538 
L 82.918861 179.55556 
L 83.617794 184.976353 
L 83.967261 186.186637 
L 84.666194 190.601044 
L 85.015661 191.616169 
L 85.714594 195.797549 
L 86.064061 196.514107 
L 86.413528 198.789034 
L 86.762994 199.846395 
L 87.461928 202.853901 
L 88.160861 205.060376 
L 88.510328 204.95697 
L 89.558728 206.471647 
L 89.908195 207.368801 
L 90.257661 206.832839 
L 90.956595 210.71274 
L 91.306061 212.075948 
L 91.655528 212.410925 
L 92.004995 212.458987 
L 92.703928 215.479601 
L 93.053395 215.871377 
L 94.101795 219.218229 
L 94.800728 220.735818 
L 95.150195 221.567434 
L 95.499661 217.723943 
L 96.198595 221.424705 
L 96.897528 224.04189 
L 97.246995 224.864767 
L 97.596461 221.794635 
L 98.644862 226.29934 
L 98.994328 227.151346 
L 99.343795 226.819282 
L 100.392195 229.954953 
L 100.741662 230.617624 
L 101.091128 229.906891 
L 102.139528 232.066761 
L 102.488995 230.97299 
L 103.187928 232.697391 
L 103.537395 233.521724 
L 104.236328 234.391206 
L 104.585795 235.246125 
L 104.935262 235.413613 
L 105.634195 236.498645 
L 106.333128 237.009848 
L 107.381529 238.141486 
L 108.429929 239.152241 
L 108.779395 239.712963 
L 109.128862 239.755199 
L 109.478329 239.937251 
L 109.827795 240.352331 
L 110.526729 240.811103 
L 110.876195 240.80819 
L 111.225662 241.153362 
L 111.575129 241.245116 
L 111.924595 241.610677 
L 112.623529 241.938372 
L 112.972995 242.228199 
L 114.021395 242.73649 
L 116.118196 243.904538 
L 116.817129 244.031246 
L 117.166596 244.357484 
L 117.516062 244.418654 
L 117.865529 244.807518 
L 118.564462 245.034719 
L 119.612862 245.573594 
L 119.962329 245.505143 
L 120.311796 242.218004 
L 120.661262 242.625802 
L 121.010729 243.531695 
L 121.360196 242.936019 
L 121.709662 242.848634 
L 122.059129 241.275701 
L 122.408596 242.254415 
L 122.758062 241.517466 
L 123.107529 242.587935 
L 123.456996 243.182154 
L 123.806462 244.073483 
L 124.155929 244.073483 
L 125.204329 245.882355 
L 125.553796 246.236265 
L 125.903263 246.976126 
L 126.252729 247.300908 
L 126.602196 247.303821 
L 126.951663 247.943189 
L 127.650596 248.334966 
L 128.000063 248.694701 
L 128.698996 249.020939 
L 129.048463 249.428737 
L 129.397929 249.443301 
L 130.096863 249.861293 
L 131.844196 250.912828 
L 132.193663 250.429297 
L 132.543129 250.78612 
L 132.892596 250.965259 
L 133.242063 244.61964 
L 133.940996 247.510632 
L 134.290463 248.423807 
L 134.63993 247.064968 
L 134.989396 242.582109 
L 135.68833 243.476351 
L 136.037796 245.012873 
L 136.387263 243.155938 
L 137.086196 246.390646 
L 137.78513 248.122328 
L 138.83353 250.401625 
L 139.182996 250.615718 
L 139.532463 251.410923 
L 140.580863 252.661988 
L 141.279796 253.461562 
L 141.629263 253.781974 
L 141.97873 253.930529 
L 142.677663 254.549507 
L 143.376597 254.890309 
L 144.07553 255.426272 
L 144.424997 255.557349 
L 144.774463 254.456296 
L 145.12393 254.877202 
L 145.473397 255.047603 
L 146.17233 256.058358 
L 146.871263 256.295754 
L 147.570197 256.96862 
L 148.618597 257.551188 
L 148.968063 257.708481 
L 149.31753 257.992483 
L 149.666997 258.021611 
L 150.016463 258.186186 
L 150.36593 258.082781 
L 151.064863 252.806173 
L 151.763797 254.864094 
L 152.113264 255.682602 
L 152.46273 256.186523 
L 152.812197 256.457417 
L 153.51113 257.449238 
L 153.860597 257.849754 
L 154.210064 257.966267 
L 154.55953 258.545922 
L 154.908997 258.425039 
L 155.60793 259.122664 
L 155.957397 259.440164 
L 156.65633 259.437251 
L 158.054197 260.279061 
L 158.403664 251.140029 
L 159.102597 254.861181 
L 159.452064 256.2608 
L 159.80153 256.375857 
L 160.500464 258.235705 
L 160.849931 258.886724 
L 161.199397 249.517578 
L 161.548864 252.193021 
L 162.247797 255.456857 
L 162.597264 256.584125 
L 162.946731 252.858604 
L 163.296197 250.710386 
L 163.995131 254.242203 
L 164.344597 254.896135 
L 165.043531 257.108436 
L 165.392997 258.011416 
L 165.742464 252.653249 
L 166.091931 254.858268 
L 166.441397 254.671846 
L 167.140331 257.555557 
L 167.489797 258.326003 
L 167.839264 259.601826 
L 168.538197 260.790264 
L 169.237131 262.028221 
L 169.586598 262.3297 
L 169.936064 262.912267 
L 171.333931 264.024972 
L 172.032864 264.145855 
L 172.382331 264.523067 
L 172.731798 264.571129 
L 173.081264 265.17263 
L 173.430731 265.197389 
L 173.780198 265.361965 
L 174.129664 261.327683 
L 174.828598 263.424927 
L 175.876998 265.044465 
L 176.575931 265.634315 
L 176.925398 254.616503 
L 177.274864 257.31816 
L 177.624331 256.958425 
L 177.973798 258.790601 
L 179.022198 262.208817 
L 180.070598 264.090511 
L 180.420065 264.297322 
L 180.769531 264.8595 
L 181.118998 265.175543 
L 181.468465 265.734808 
L 181.817931 265.752285 
L 182.167398 265.979487 
L 182.516865 266.398935 
L 183.215798 266.725173 
L 183.565265 266.945093 
L 183.914731 265.207584 
L 184.613665 266.50671 
L 184.963131 266.639245 
L 185.662065 267.280069 
L 186.011531 267.398039 
L 186.360998 267.916524 
L 186.710465 267.204335 
L 188.457798 268.614149 
L 189.156732 268.836981 
L 189.506198 269.252061 
L 189.855665 269.167589 
L 190.205132 269.27682 
L 190.554598 269.681705 
L 190.904065 267.84516 
L 191.253532 268.145182 
L 191.602998 268.713186 
L 191.952465 268.919997 
L 192.301932 269.450134 
L 192.651398 269.773459 
L 193.000865 269.818608 
L 193.699798 270.204559 
L 194.049265 270.316704 
L 194.398732 270.255534 
L 195.097665 270.896359 
L 195.796598 270.865774 
L 196.495532 271.08278 
L 196.844999 271.186186 
L 197.194465 271.043457 
L 197.543932 271.506598 
L 197.893399 271.620199 
L 198.242865 271.521162 
L 199.640732 272.099361 
L 199.990199 272.010519 
L 200.339665 272.051299 
L 200.689132 267.169381 
L 201.038599 268.439379 
L 201.737532 269.935122 
L 202.086999 261.256319 
L 202.785932 264.926495 
L 203.484865 266.732455 
L 203.834332 266.751389 
L 204.183799 267.60922 
L 204.533265 268.762704 
L 204.882732 269.144286 
L 205.232199 269.871039 
L 206.280599 271.060934 
L 206.630066 271.489121 
L 207.678466 272.233352 
L 208.027932 268.617062 
L 208.377399 267.387844 
L 208.726866 268.526764 
L 209.076332 269.266625 
L 209.425799 266.19795 
L 209.775266 267.712626 
L 210.474199 269.511304 
L 210.823666 269.924927 
L 211.173132 270.644398 
L 211.522599 270.945877 
L 212.570999 272.271218 
L 214.318333 273.65773 
L 214.667799 273.723269 
L 215.017266 268.528221 
L 215.366733 267.431537 
L 216.065666 269.955512 
L 216.764599 271.59544 
L 217.114066 272.237721 
L 217.463533 264.805613 
L 217.812999 264.842023 
L 218.511933 268.222373 
L 219.210866 270.364765 
L 219.560333 271.072585 
L 219.909799 267.313567 
L 220.608733 269.956968 
L 221.657133 272.102274 
L 222.006599 272.759119 
L 223.404466 274.237385 
L 224.1034 274.783542 
L 225.501266 275.740409 
L 225.850733 275.852554 
L 226.2002 276.194812 
L 226.899133 276.286567 
L 227.2486 276.494835 
L 227.598066 271.90857 
L 228.297 274.053876 
L 228.646466 274.905881 
L 228.995933 271.136668 
L 229.694866 273.59656 
L 230.044333 271.326002 
L 230.743266 273.433441 
L 232.141133 276.009847 
L 232.840067 276.623 
L 233.539 276.955063 
L 233.888467 267.363085 
L 234.237933 269.65112 
L 234.5874 269.591407 
L 235.286333 272.462009 
L 235.6358 273.565975 
L 235.985267 272.821745 
L 236.334733 272.729991 
L 237.033667 274.410699 
L 238.082067 276.34628 
L 238.431533 276.656497 
L 238.781 277.118182 
L 239.130467 277.386163 
L 239.8294 278.18865 
L 240.178867 278.169717 
L 240.528333 277.687642 
L 240.8778 278.227974 
L 241.576734 275.95159 
L 241.9262 276.816703 
L 242.275667 277.333732 
L 242.625134 277.440051 
L 242.9746 278.120199 
L 243.324067 278.127481 
L 243.673534 278.407113 
L 244.023 272.089166 
L 244.372467 271.98576 
L 244.721934 272.00615 
L 245.420867 274.528668 
L 246.818734 277.160418 
L 247.1682 275.887508 
L 247.867134 277.211393 
L 248.2166 273.30382 
L 248.915534 276.298218 
L 249.265 277.109444 
L 249.614467 276.283654 
L 249.963934 277.1677 
L 250.313401 270.861404 
L 250.662867 271.245899 
L 251.012334 270.259903 
L 251.711267 273.97086 
L 252.410201 276.065191 
L 252.759667 276.946325 
L 253.109134 277.479374 
L 253.458601 277.716771 
L 253.808067 278.56295 
L 254.507001 279.273683 
L 254.856467 278.254189 
L 255.904867 279.891205 
L 256.254334 280.118406 
L 256.953267 280.782533 
L 257.302734 280.931088 
L 257.652201 280.518921 
L 258.001667 280.858267 
L 258.351134 275.272899 
L 258.700601 276.898263 
L 259.050068 272.240634 
L 259.399534 272.747468 
L 260.447934 276.851657 
L 261.146868 278.60373 
L 261.496334 279.304268 
L 261.845801 279.580987 
L 262.195268 280.269874 
L 262.894201 280.928175 
L 263.942601 281.736488 
L 266.039401 282.830259 
L 266.388868 282.780741 
L 267.437268 283.258446 
L 267.786735 283.251164 
L 268.136201 283.453607 
L 269.184601 283.624008 
L 269.534068 283.720131 
L 269.883535 283.961897 
L 270.931935 284.116277 
L 271.281401 282.579755 
L 271.630868 282.812782 
L 272.329801 283.768193 
L 273.378201 284.307068 
L 273.727668 283.482735 
L 274.077135 282.045249 
L 274.426601 282.766177 
L 275.125535 283.591966 
L 276.523402 284.614373 
L 277.222335 284.934785 
L 277.571802 284.787687 
L 277.921268 284.9042 
L 278.270735 285.148879 
L 278.620202 285.175094 
L 279.319135 285.346952 
L 279.668602 285.393557 
L 280.018068 285.639692 
L 280.367535 273.482959 
L 280.717002 273.440723 
L 281.066468 275.647199 
L 281.415935 274.122327 
L 282.114868 277.874064 
L 282.464335 278.982399 
L 282.813802 279.653808 
L 283.512735 281.343255 
L 283.862202 279.777604 
L 284.561135 281.611236 
L 285.260068 282.822977 
L 285.609535 279.470299 
L 286.657935 282.370031 
L 288.405269 284.748363 
L 289.104202 285.019257 
L 289.453669 285.368798 
L 290.502069 285.903304 
L 290.851535 285.946997 
L 292.249402 286.496067 
L 292.598869 285.687754 
L 292.948335 286.153808 
L 293.297802 286.197501 
L 293.647269 286.609667 
L 293.996735 286.0839 
L 294.346202 286.402856 
L 294.695669 286.484415 
L 295.045136 286.842694 
L 295.744069 287.097568 
L 296.093536 286.902408 
L 296.792469 287.419437 
L 297.141936 287.36118 
L 298.539802 287.683048 
L 299.238736 288.020938 
L 299.588202 286.206239 
L 299.937669 286.739289 
L 300.287136 286.959208 
L 300.636602 287.032029 
L 300.986069 287.385939 
L 301.335536 287.567991 
L 301.685002 287.940835 
L 302.034469 288.039871 
L 302.383936 288.406889 
L 302.733402 288.248139 
L 303.082869 288.53651 
L 303.781803 288.647198 
L 304.830203 288.607875 
L 305.179669 288.814686 
L 305.529136 288.677783 
L 306.228069 288.993826 
L 307.276469 289.088493 
L 308.324869 289.304043 
L 308.674336 285.718339 
L 310.072203 288.16658 
L 310.421669 288.272898 
L 311.120603 288.804491 
L 311.470069 288.820512 
L 311.819536 289.136555 
L 313.56687 289.512311 
L 313.916336 289.550178 
L 314.265803 289.755533 
L 314.61527 289.823985 
L 314.964736 289.700189 
L 315.314203 289.775923 
L 316.013136 290.207023 
L 316.362603 290.062838 
L 318.80887 290.262367 
L 319.158336 290.38325 
L 319.507803 290.345383 
L 319.85727 290.495394 
L 320.206736 290.391989 
L 320.90567 290.528892 
L 321.255137 290.572585 
L 321.95407 290.862412 
L 322.303537 290.715314 
L 322.653003 290.792504 
L 323.351937 290.73716 
L 324.05087 290.926494 
L 324.400337 285.478029 
L 324.749803 282.560821 
L 325.09927 284.189098 
L 325.798203 286.091182 
L 326.846603 287.683048 
L 327.895003 288.826338 
L 328.24447 289.054996 
L 328.943403 289.219571 
L 329.29287 280.731559 
L 329.642337 282.63073 
L 330.34127 277.904649 
L 330.690737 278.645966 
L 331.38967 282.112244 
L 331.739137 283.444868 
L 332.787537 285.543568 
L 333.48647 286.558693 
L 333.835937 286.806284 
L 334.185404 287.339333 
L 334.53487 287.413611 
L 334.884337 287.830147 
L 336.63167 288.791384 
L 336.981137 288.75643 
L 337.330604 289.237048 
L 337.68007 289.098688 
L 338.029537 289.107427 
L 338.379004 289.474444 
L 338.72847 289.347736 
L 339.077937 289.539983 
L 339.427404 287.760239 
L 340.126337 288.578746 
L 340.475804 283.074937 
L 340.825271 282.228758 
L 341.174737 283.926943 
L 341.873671 285.968843 
L 342.223137 285.974669 
L 343.271537 287.84908 
L 343.621004 288.281637 
L 343.970471 284.304155 
L 344.319937 285.620759 
L 344.669404 286.455287 
L 345.018871 285.361516 
L 345.368337 285.218787 
L 345.717804 278.133306 
L 346.067271 279.713522 
L 346.766204 283.571577 
L 347.115671 278.657617 
L 347.814604 282.910362 
L 348.164071 284.253181 
L 348.513538 285.151792 
L 348.863004 279.23436 
L 349.212471 282.008839 
L 349.911404 285.150335 
L 350.610338 286.858715 
L 350.959804 287.396134 
L 351.309271 283.275923 
L 352.008204 286.191675 
L 353.056604 288.607875 
L 353.406071 289.030236 
L 353.755538 289.242874 
L 354.454471 287.346616 
L 355.153404 288.912266 
L 355.502871 285.697949 
L 355.852338 285.821744 
L 356.201804 286.459656 
L 356.551271 287.618966 
L 356.900738 288.076282 
L 357.250205 285.521722 
L 357.599671 286.947557 
L 358.648071 289.461337 
L 358.997538 289.885155 
L 359.347005 290.091966 
L 360.045938 291.093983 
L 360.395405 291.174086 
L 361.443805 291.755197 
L 361.793271 280.415516 
L 362.492205 285.357147 
L 363.191138 288.026763 
L 363.540605 288.899159 
L 363.890071 289.330259 
L 364.239538 290.297321 
L 364.589005 290.77794 
L 364.938471 291.005141 
L 365.287938 291.594991 
L 366.336338 292.484863 
L 367.035272 292.684393 
L 368.782605 293.485423 
L 369.481538 293.527659 
L 370.529938 294.054883 
L 371.228872 294.203438 
L 371.578338 294.318495 
L 371.927805 294.266064 
L 372.277272 294.455399 
L 372.626738 282.776372 
L 373.325672 287.066983 
L 373.675138 288.677783 
L 374.374072 290.620646 
L 375.422472 292.24601 
L 376.121405 292.847512 
L 376.470872 288.878769 
L 376.820339 290.212849 
L 377.868739 292.136779 
L 378.567672 293.020826 
L 379.616072 293.606306 
L 379.965539 292.888291 
L 380.315005 283.6677 
L 381.013939 287.801018 
L 381.363405 289.18316 
L 382.761272 292.380001 
L 383.460205 293.081995 
L 383.809672 292.375632 
L 384.159139 292.956743 
L 384.508606 293.0718 
L 384.858072 287.84908 
L 385.557006 290.706575 
L 386.255939 292.435345 
L 386.605406 292.987328 
L 386.954872 293.109667 
L 387.304339 293.431536 
L 387.653806 283.685177 
L 388.352739 288.135995 
L 389.051672 290.65997 
L 389.401139 291.666356 
L 389.750606 282.694812 
L 390.449539 287.584012 
L 390.799006 285.625128 
L 391.148472 287.566535 
L 391.497939 284.979934 
L 392.196872 288.319504 
L 392.546339 286.979598 
L 393.245273 289.711841 
L 393.944206 291.516344 
L 394.293673 292.211056 
L 394.643139 292.572248 
L 395.342073 293.609219 
L 396.041006 293.968955 
L 396.390473 294.41025 
L 396.739939 294.483071 
L 397.788339 295.295753 
L 398.137806 295.196716 
L 398.487273 295.488 
L 398.487273 295.488 
" style="fill:none;stroke:#1f77b4;stroke-linecap:square;stroke-width:1.5;"/>
   </g>
   <g id="line2d_14">
    <path clip-path="url(#p2a529b304d)" d="M 73.832727 53.568 
L 74.182194 82.493946 
L 74.531661 97.729549 
L 75.230594 114.944426 
L 75.929527 124.996633 
L 76.628461 131.553433 
L 77.327394 136.733917 
L 78.725261 144.151461 
L 80.123128 149.966943 
L 83.268328 160.670169 
L 83.967261 162.6509 
L 84.316728 163.49271 
L 84.666194 164.624348 
L 85.015661 165.327799 
L 86.413528 169.015453 
L 87.112461 170.375748 
L 87.811394 172.004025 
L 88.510328 173.488117 
L 90.257661 176.82623 
L 90.956595 179.153588 
L 92.004995 182.290715 
L 92.354461 183.361184 
L 92.703928 184.035506 
L 93.752328 186.675994 
L 94.101795 187.497415 
L 94.451261 186.952714 
L 95.150195 190.799117 
L 95.849128 193.273574 
L 96.198595 193.020157 
L 97.945928 200.351772 
L 98.295395 201.709155 
L 98.644862 199.839113 
L 99.343795 204.288474 
L 100.392195 208.660645 
L 100.741662 206.114824 
L 101.790062 211.171512 
L 102.488995 213.370705 
L 102.838462 214.458651 
L 103.187928 215.173752 
L 103.886862 216.902522 
L 104.236328 216.743773 
L 104.585795 217.786569 
L 105.634195 219.656611 
L 105.983662 216.550069 
L 106.333128 216.054886 
L 107.032062 219.027438 
L 107.381529 219.56777 
L 107.730995 217.605973 
L 108.429929 220.946999 
L 109.128862 223.498646 
L 109.827795 225.052645 
L 110.177262 225.330821 
L 110.526729 223.832166 
L 111.225662 226.541106 
L 111.575129 224.791946 
L 111.924595 226.49887 
L 112.274062 226.24254 
L 112.623529 225.728424 
L 113.322462 225.562392 
L 114.720329 230.889974 
L 115.768729 233.606196 
L 116.118196 232.64496 
L 116.817129 234.324211 
L 117.865529 236.444758 
L 118.214996 236.731672 
L 118.564462 235.142719 
L 118.913929 235.932098 
L 119.263396 237.079757 
L 119.612862 236.122889 
L 119.962329 236.770996 
L 120.661262 238.576956 
L 121.360196 239.59208 
L 121.709662 240.093088 
L 122.059129 238.370144 
L 122.758062 240.136781 
L 123.107529 239.814912 
L 123.456996 234.370817 
L 123.806462 234.456745 
L 124.155929 233.416862 
L 124.505396 235.563624 
L 124.854863 234.1742 
L 125.204329 235.946662 
L 125.553796 234.025645 
L 126.252729 237.998757 
L 126.951663 240.311551 
L 127.301129 240.752846 
L 127.650596 241.725734 
L 128.000063 241.922351 
L 128.698996 243.739962 
L 129.048463 244.141934 
L 129.747396 245.473102 
L 130.446329 246.413948 
L 130.795796 244.457977 
L 131.145263 245.371152 
L 131.494729 240.988786 
L 131.844196 242.759792 
L 132.193663 242.429185 
L 132.543129 241.517466 
L 132.892596 243.390422 
L 133.242063 242.14227 
L 133.940996 244.926944 
L 134.63993 246.807182 
L 135.338863 248.298555 
L 136.73673 250.239962 
L 137.086196 250.002566 
L 138.134596 251.622104 
L 139.182996 252.43333 
L 139.532463 245.385716 
L 139.88193 243.434114 
L 140.231396 244.428849 
L 140.93033 247.689772 
L 141.629263 249.679241 
L 141.97873 250.066648 
L 142.677663 251.475006 
L 143.376597 252.675095 
L 144.07553 253.576619 
L 144.774463 254.470861 
L 145.12393 254.626697 
L 145.473397 255.215091 
L 145.822863 255.456857 
L 146.17233 255.84572 
L 147.22073 256.377314 
L 147.570197 255.289368 
L 148.26913 256.314688 
L 148.618597 256.662772 
L 148.968063 252.063399 
L 149.666997 254.507271 
L 150.016463 255.266066 
L 150.36593 255.714643 
L 150.715397 251.801244 
L 151.064863 250.360845 
L 151.763797 252.969292 
L 152.113264 253.068329 
L 152.46273 254.322306 
L 153.860597 256.840455 
L 155.258464 258.366782 
L 155.957397 258.894006 
L 157.355264 259.855243 
L 157.70473 259.999429 
L 158.75313 260.800459 
L 158.75313 260.800459 
" style="fill:none;stroke:#ff7f0e;stroke-linecap:square;stroke-width:1.5;"/>
   </g>
   <g id="patch_3">
    <path d="M 57.6 307.584 
L 57.6 41.472 
" style="fill:none;stroke:#000000;stroke-linecap:square;stroke-linejoin:miter;stroke-width:0.8;"/>
   </g>
   <g id="patch_4">
    <path d="M 414.72 307.584 
L 414.72 41.472 
" style="fill:none;stroke:#000000;stroke-linecap:square;stroke-linejoin:miter;stroke-width:0.8;"/>
   </g>
   <g id="patch_5">
    <path d="M 57.6 307.584 
L 414.72 307.584 
" style="fill:none;stroke:#000000;stroke-linecap:square;stroke-linejoin:miter;stroke-width:0.8;"/>
   </g>
   <g id="patch_6">
    <path d="M 57.6 41.472 
L 414.72 41.472 
" style="fill:none;stroke:#000000;stroke-linecap:square;stroke-linejoin:miter;stroke-width:0.8;"/>
   </g>
   <g id="text_15">
    <!-- Average fitness over 30 seconds for52cities -->
    <defs>
     <path d="M 40.578125 39.3125 
Q 47.65625 37.796875 51.625 33 
Q 55.609375 28.21875 55.609375 21.1875 
Q 55.609375 10.40625 48.1875 4.484375 
Q 40.765625 -1.421875 27.09375 -1.421875 
Q 22.515625 -1.421875 17.65625 -0.515625 
Q 12.796875 0.390625 7.625 2.203125 
L 7.625 11.71875 
Q 11.71875 9.328125 16.59375 8.109375 
Q 21.484375 6.890625 26.8125 6.890625 
Q 36.078125 6.890625 40.9375 10.546875 
Q 45.796875 14.203125 45.796875 21.1875 
Q 45.796875 27.640625 41.28125 31.265625 
Q 36.765625 34.90625 28.71875 34.90625 
L 20.21875 34.90625 
L 20.21875 43.015625 
L 29.109375 43.015625 
Q 36.375 43.015625 40.234375 45.921875 
Q 44.09375 48.828125 44.09375 54.296875 
Q 44.09375 59.90625 40.109375 62.90625 
Q 36.140625 65.921875 28.71875 65.921875 
Q 24.65625 65.921875 20.015625 65.03125 
Q 15.375 64.15625 9.8125 62.3125 
L 9.8125 71.09375 
Q 15.4375 72.65625 20.34375 73.4375 
Q 25.25 74.21875 29.59375 74.21875 
Q 40.828125 74.21875 47.359375 69.109375 
Q 53.90625 64.015625 53.90625 55.328125 
Q 53.90625 49.265625 50.4375 45.09375 
Q 46.96875 40.921875 40.578125 39.3125 
z
" id="DejaVuSans-33"/>
     <path d="M 48.78125 52.59375 
L 48.78125 44.1875 
Q 44.96875 46.296875 41.140625 47.34375 
Q 37.3125 48.390625 33.40625 48.390625 
Q 24.65625 48.390625 19.8125 42.84375 
Q 14.984375 37.3125 14.984375 27.296875 
Q 14.984375 17.28125 19.8125 11.734375 
Q 24.65625 6.203125 33.40625 6.203125 
Q 37.3125 6.203125 41.140625 7.25 
Q 44.96875 8.296875 48.78125 10.40625 
L 48.78125 2.09375 
Q 45.015625 0.34375 40.984375 -0.53125 
Q 36.96875 -1.421875 32.421875 -1.421875 
Q 20.0625 -1.421875 12.78125 6.34375 
Q 5.515625 14.109375 5.515625 27.296875 
Q 5.515625 40.671875 12.859375 48.328125 
Q 20.21875 56 33.015625 56 
Q 37.15625 56 41.109375 55.140625 
Q 45.0625 54.296875 48.78125 52.59375 
z
" id="DejaVuSans-63"/>
     <path d="M 45.40625 46.390625 
L 45.40625 75.984375 
L 54.390625 75.984375 
L 54.390625 0 
L 45.40625 0 
L 45.40625 8.203125 
Q 42.578125 3.328125 38.25 0.953125 
Q 33.9375 -1.421875 27.875 -1.421875 
Q 17.96875 -1.421875 11.734375 6.484375 
Q 5.515625 14.40625 5.515625 27.296875 
Q 5.515625 40.1875 11.734375 48.09375 
Q 17.96875 56 27.875 56 
Q 33.9375 56 38.25 53.625 
Q 42.578125 51.265625 45.40625 46.390625 
z
M 14.796875 27.296875 
Q 14.796875 17.390625 18.875 11.75 
Q 22.953125 6.109375 30.078125 6.109375 
Q 37.203125 6.109375 41.296875 11.75 
Q 45.40625 17.390625 45.40625 27.296875 
Q 45.40625 37.203125 41.296875 42.84375 
Q 37.203125 48.484375 30.078125 48.484375 
Q 22.953125 48.484375 18.875 42.84375 
Q 14.796875 37.203125 14.796875 27.296875 
z
" id="DejaVuSans-64"/>
    </defs>
    <g transform="translate(104.533125 35.472)scale(0.12 -0.12)">
     <use xlink:href="#DejaVuSans-41"/>
     <use x="68.330078" xlink:href="#DejaVuSans-76"/>
     <use x="127.509766" xlink:href="#DejaVuSans-65"/>
     <use x="189.033203" xlink:href="#DejaVuSans-72"/>
     <use x="230.146484" xlink:href="#DejaVuSans-61"/>
     <use x="291.425781" xlink:href="#DejaVuSans-67"/>
     <use x="354.902344" xlink:href="#DejaVuSans-65"/>
     <use x="416.425781" xlink:href="#DejaVuSans-20"/>
     <use x="448.212891" xlink:href="#DejaVuSans-66"/>
     <use x="483.417969" xlink:href="#DejaVuSans-69"/>
     <use x="511.201172" xlink:href="#DejaVuSans-74"/>
     <use x="550.410156" xlink:href="#DejaVuSans-6e"/>
     <use x="613.789062" xlink:href="#DejaVuSans-65"/>
     <use x="675.3125" xlink:href="#DejaVuSans-73"/>
     <use x="727.412109" xlink:href="#DejaVuSans-73"/>
     <use x="779.511719" xlink:href="#DejaVuSans-20"/>
     <use x="811.298828" xlink:href="#DejaVuSans-6f"/>
     <use x="872.480469" xlink:href="#DejaVuSans-76"/>
     <use x="931.660156" xlink:href="#DejaVuSans-65"/>
     <use x="993.183594" xlink:href="#DejaVuSans-72"/>
     <use x="1034.296875" xlink:href="#DejaVuSans-20"/>
     <use x="1066.083984" xlink:href="#DejaVuSans-33"/>
     <use x="1129.707031" xlink:href="#DejaVuSans-30"/>
     <use x="1193.330078" xlink:href="#DejaVuSans-20"/>
     <use x="1225.117188" xlink:href="#DejaVuSans-73"/>
     <use x="1277.216797" xlink:href="#DejaVuSans-65"/>
     <use x="1338.740234" xlink:href="#DejaVuSans-63"/>
     <use x="1393.720703" xlink:href="#DejaVuSans-6f"/>
     <use x="1454.902344" xlink:href="#DejaVuSans-6e"/>
     <use x="1518.28125" xlink:href="#DejaVuSans-64"/>
     <use x="1581.757812" xlink:href="#DejaVuSans-73"/>
     <use x="1633.857422" xlink:href="#DejaVuSans-20"/>
     <use x="1665.644531" xlink:href="#DejaVuSans-66"/>
     <use x="1700.849609" xlink:href="#DejaVuSans-6f"/>
     <use x="1762.03125" xlink:href="#DejaVuSans-72"/>
     <use x="1803.144531" xlink:href="#DejaVuSans-35"/>
     <use x="1866.767578" xlink:href="#DejaVuSans-32"/>
     <use x="1930.390625" xlink:href="#DejaVuSans-63"/>
     <use x="1985.371094" xlink:href="#DejaVuSans-69"/>
     <use x="2013.154297" xlink:href="#DejaVuSans-74"/>
     <use x="2052.363281" xlink:href="#DejaVuSans-69"/>
     <use x="2080.146484" xlink:href="#DejaVuSans-65"/>
     <use x="2141.669922" xlink:href="#DejaVuSans-73"/>
    </g>
   </g>
   <g id="legend_1">
    <g id="patch_7">
     <path d="M 112.11375 78.82825 
L 407.72 78.82825 
Q 409.72 78.82825 409.72 76.82825 
L 409.72 48.472 
Q 409.72 46.472 407.72 46.472 
L 112.11375 46.472 
Q 110.11375 46.472 110.11375 48.472 
L 110.11375 76.82825 
Q 110.11375 78.82825 112.11375 78.82825 
z
" style="fill:#ffffff;opacity:0.8;stroke:#cccccc;stroke-linejoin:miter;"/>
    </g>
    <g id="patch_8">
     <path d="M 114.11375 58.070437 
L 134.11375 58.070437 
L 134.11375 51.070437 
L 114.11375 51.070437 
z
" style="fill:#87ceeb;stroke:#87ceeb;stroke-linejoin:miter;"/>
    </g>
    <g id="text_16">
     <!-- Parallel min, 11600.9 Last Generation number 931.0 -->
     <defs>
      <path d="M 19.671875 64.796875 
L 19.671875 37.40625 
L 32.078125 37.40625 
Q 38.96875 37.40625 42.71875 40.96875 
Q 46.484375 44.53125 46.484375 51.125 
Q 46.484375 57.671875 42.71875 61.234375 
Q 38.96875 64.796875 32.078125 64.796875 
z
M 9.8125 72.90625 
L 32.078125 72.90625 
Q 44.34375 72.90625 50.609375 67.359375 
Q 56.890625 61.8125 56.890625 51.125 
Q 56.890625 40.328125 50.609375 34.8125 
Q 44.34375 29.296875 32.078125 29.296875 
L 19.671875 29.296875 
L 19.671875 0 
L 9.8125 0 
z
" id="DejaVuSans-50"/>
      <path d="M 9.421875 75.984375 
L 18.40625 75.984375 
L 18.40625 0 
L 9.421875 0 
z
" id="DejaVuSans-6c"/>
      <path d="M 11.71875 12.40625 
L 22.015625 12.40625 
L 22.015625 4 
L 14.015625 -11.625 
L 7.71875 -11.625 
L 11.71875 4 
z
" id="DejaVuSans-2c"/>
      <path d="M 10.6875 12.40625 
L 21 12.40625 
L 21 0 
L 10.6875 0 
z
" id="DejaVuSans-2e"/>
      <path d="M 10.984375 1.515625 
L 10.984375 10.5 
Q 14.703125 8.734375 18.5 7.8125 
Q 22.3125 6.890625 25.984375 6.890625 
Q 35.75 6.890625 40.890625 13.453125 
Q 46.046875 20.015625 46.78125 33.40625 
Q 43.953125 29.203125 39.59375 26.953125 
Q 35.25 24.703125 29.984375 24.703125 
Q 19.046875 24.703125 12.671875 31.3125 
Q 6.296875 37.9375 6.296875 49.421875 
Q 6.296875 60.640625 12.9375 67.421875 
Q 19.578125 74.21875 30.609375 74.21875 
Q 43.265625 74.21875 49.921875 64.515625 
Q 56.59375 54.828125 56.59375 36.375 
Q 56.59375 19.140625 48.40625 8.859375 
Q 40.234375 -1.421875 26.421875 -1.421875 
Q 22.703125 -1.421875 18.890625 -0.6875 
Q 15.09375 0.046875 10.984375 1.515625 
z
M 30.609375 32.421875 
Q 37.25 32.421875 41.125 36.953125 
Q 45.015625 41.5 45.015625 49.421875 
Q 45.015625 57.28125 41.125 61.84375 
Q 37.25 66.40625 30.609375 66.40625 
Q 23.96875 66.40625 20.09375 61.84375 
Q 16.21875 57.28125 16.21875 49.421875 
Q 16.21875 41.5 20.09375 36.953125 
Q 23.96875 32.421875 30.609375 32.421875 
z
" id="DejaVuSans-39"/>
      <path d="M 9.8125 72.90625 
L 19.671875 72.90625 
L 19.671875 8.296875 
L 55.171875 8.296875 
L 55.171875 0 
L 9.8125 0 
z
" id="DejaVuSans-4c"/>
     </defs>
     <g transform="translate(142.11375 58.070437)scale(0.1 -0.1)">
      <use xlink:href="#DejaVuSans-50"/>
      <use x="60.240234" xlink:href="#DejaVuSans-61"/>
      <use x="121.519531" xlink:href="#DejaVuSans-72"/>
      <use x="162.632812" xlink:href="#DejaVuSans-61"/>
      <use x="223.912109" xlink:href="#DejaVuSans-6c"/>
      <use x="251.695312" xlink:href="#DejaVuSans-6c"/>
      <use x="279.478516" xlink:href="#DejaVuSans-65"/>
      <use x="341.001953" xlink:href="#DejaVuSans-6c"/>
      <use x="368.785156" xlink:href="#DejaVuSans-20"/>
      <use x="400.572266" xlink:href="#DejaVuSans-6d"/>
      <use x="497.984375" xlink:href="#DejaVuSans-69"/>
      <use x="525.767578" xlink:href="#DejaVuSans-6e"/>
      <use x="589.146484" xlink:href="#DejaVuSans-2c"/>
      <use x="620.933594" xlink:href="#DejaVuSans-20"/>
      <use x="652.720703" xlink:href="#DejaVuSans-31"/>
      <use x="716.34375" xlink:href="#DejaVuSans-31"/>
      <use x="779.966797" xlink:href="#DejaVuSans-36"/>
      <use x="843.589844" xlink:href="#DejaVuSans-30"/>
      <use x="907.212891" xlink:href="#DejaVuSans-30"/>
      <use x="970.835938" xlink:href="#DejaVuSans-2e"/>
      <use x="1002.623047" xlink:href="#DejaVuSans-39"/>
      <use x="1066.246094" xlink:href="#DejaVuSans-20"/>
      <use x="1098.033203" xlink:href="#DejaVuSans-4c"/>
      <use x="1153.746094" xlink:href="#DejaVuSans-61"/>
      <use x="1215.025391" xlink:href="#DejaVuSans-73"/>
      <use x="1267.125" xlink:href="#DejaVuSans-74"/>
      <use x="1306.333984" xlink:href="#DejaVuSans-20"/>
      <use x="1338.121094" xlink:href="#DejaVuSans-47"/>
      <use x="1415.611328" xlink:href="#DejaVuSans-65"/>
      <use x="1477.134766" xlink:href="#DejaVuSans-6e"/>
      <use x="1540.513672" xlink:href="#DejaVuSans-65"/>
      <use x="1602.037109" xlink:href="#DejaVuSans-72"/>
      <use x="1643.150391" xlink:href="#DejaVuSans-61"/>
      <use x="1704.429688" xlink:href="#DejaVuSans-74"/>
      <use x="1743.638672" xlink:href="#DejaVuSans-69"/>
      <use x="1771.421875" xlink:href="#DejaVuSans-6f"/>
      <use x="1832.603516" xlink:href="#DejaVuSans-6e"/>
      <use x="1895.982422" xlink:href="#DejaVuSans-20"/>
      <use x="1927.769531" xlink:href="#DejaVuSans-6e"/>
      <use x="1991.148438" xlink:href="#DejaVuSans-75"/>
      <use x="2054.527344" xlink:href="#DejaVuSans-6d"/>
      <use x="2151.939453" xlink:href="#DejaVuSans-62"/>
      <use x="2215.416016" xlink:href="#DejaVuSans-65"/>
      <use x="2276.939453" xlink:href="#DejaVuSans-72"/>
      <use x="2318.052734" xlink:href="#DejaVuSans-20"/>
      <use x="2349.839844" xlink:href="#DejaVuSans-39"/>
      <use x="2413.462891" xlink:href="#DejaVuSans-33"/>
      <use x="2477.085938" xlink:href="#DejaVuSans-31"/>
      <use x="2540.708984" xlink:href="#DejaVuSans-2e"/>
      <use x="2572.496094" xlink:href="#DejaVuSans-30"/>
     </g>
    </g>
    <g id="patch_9">
     <path d="M 114.11375 72.748562 
L 134.11375 72.748562 
L 134.11375 65.748562 
L 114.11375 65.748562 
z
" style="fill:#ffa500;stroke:#ffa500;stroke-linejoin:miter;"/>
    </g>
    <g id="text_17">
     <!-- Serial min, 13982.6 Last Generation number 245.0 -->
     <defs>
      <path d="M 53.515625 70.515625 
L 53.515625 60.890625 
Q 47.90625 63.578125 42.921875 64.890625 
Q 37.9375 66.21875 33.296875 66.21875 
Q 25.25 66.21875 20.875 63.09375 
Q 16.5 59.96875 16.5 54.203125 
Q 16.5 49.359375 19.40625 46.890625 
Q 22.3125 44.4375 30.421875 42.921875 
L 36.375 41.703125 
Q 47.40625 39.59375 52.65625 34.296875 
Q 57.90625 29 57.90625 20.125 
Q 57.90625 9.515625 50.796875 4.046875 
Q 43.703125 -1.421875 29.984375 -1.421875 
Q 24.8125 -1.421875 18.96875 -0.25 
Q 13.140625 0.921875 6.890625 3.21875 
L 6.890625 13.375 
Q 12.890625 10.015625 18.65625 8.296875 
Q 24.421875 6.59375 29.984375 6.59375 
Q 38.421875 6.59375 43.015625 9.90625 
Q 47.609375 13.234375 47.609375 19.390625 
Q 47.609375 24.75 44.3125 27.78125 
Q 41.015625 30.8125 33.5 32.328125 
L 27.484375 33.5 
Q 16.453125 35.6875 11.515625 40.375 
Q 6.59375 45.0625 6.59375 53.421875 
Q 6.59375 63.09375 13.40625 68.65625 
Q 20.21875 74.21875 32.171875 74.21875 
Q 37.3125 74.21875 42.625 73.28125 
Q 47.953125 72.359375 53.515625 70.515625 
z
" id="DejaVuSans-53"/>
     </defs>
     <g transform="translate(142.11375 72.748562)scale(0.1 -0.1)">
      <use xlink:href="#DejaVuSans-53"/>
      <use x="63.476562" xlink:href="#DejaVuSans-65"/>
      <use x="125" xlink:href="#DejaVuSans-72"/>
      <use x="166.113281" xlink:href="#DejaVuSans-69"/>
      <use x="193.896484" xlink:href="#DejaVuSans-61"/>
      <use x="255.175781" xlink:href="#DejaVuSans-6c"/>
      <use x="282.958984" xlink:href="#DejaVuSans-20"/>
      <use x="314.746094" xlink:href="#DejaVuSans-6d"/>
      <use x="412.158203" xlink:href="#DejaVuSans-69"/>
      <use x="439.941406" xlink:href="#DejaVuSans-6e"/>
      <use x="503.320312" xlink:href="#DejaVuSans-2c"/>
      <use x="535.107422" xlink:href="#DejaVuSans-20"/>
      <use x="566.894531" xlink:href="#DejaVuSans-31"/>
      <use x="630.517578" xlink:href="#DejaVuSans-33"/>
      <use x="694.140625" xlink:href="#DejaVuSans-39"/>
      <use x="757.763672" xlink:href="#DejaVuSans-38"/>
      <use x="821.386719" xlink:href="#DejaVuSans-32"/>
      <use x="885.009766" xlink:href="#DejaVuSans-2e"/>
      <use x="916.796875" xlink:href="#DejaVuSans-36"/>
      <use x="980.419922" xlink:href="#DejaVuSans-20"/>
      <use x="1012.207031" xlink:href="#DejaVuSans-4c"/>
      <use x="1067.919922" xlink:href="#DejaVuSans-61"/>
      <use x="1129.199219" xlink:href="#DejaVuSans-73"/>
      <use x="1181.298828" xlink:href="#DejaVuSans-74"/>
      <use x="1220.507812" xlink:href="#DejaVuSans-20"/>
      <use x="1252.294922" xlink:href="#DejaVuSans-47"/>
      <use x="1329.785156" xlink:href="#DejaVuSans-65"/>
      <use x="1391.308594" xlink:href="#DejaVuSans-6e"/>
      <use x="1454.6875" xlink:href="#DejaVuSans-65"/>
      <use x="1516.210938" xlink:href="#DejaVuSans-72"/>
      <use x="1557.324219" xlink:href="#DejaVuSans-61"/>
      <use x="1618.603516" xlink:href="#DejaVuSans-74"/>
      <use x="1657.8125" xlink:href="#DejaVuSans-69"/>
      <use x="1685.595703" xlink:href="#DejaVuSans-6f"/>
      <use x="1746.777344" xlink:href="#DejaVuSans-6e"/>
      <use x="1810.15625" xlink:href="#DejaVuSans-20"/>
      <use x="1841.943359" xlink:href="#DejaVuSans-6e"/>
      <use x="1905.322266" xlink:href="#DejaVuSans-75"/>
      <use x="1968.701172" xlink:href="#DejaVuSans-6d"/>
      <use x="2066.113281" xlink:href="#DejaVuSans-62"/>
      <use x="2129.589844" xlink:href="#DejaVuSans-65"/>
      <use x="2191.113281" xlink:href="#DejaVuSans-72"/>
      <use x="2232.226562" xlink:href="#DejaVuSans-20"/>
      <use x="2264.013672" xlink:href="#DejaVuSans-32"/>
      <use x="2327.636719" xlink:href="#DejaVuSans-34"/>
      <use x="2391.259766" xlink:href="#DejaVuSans-35"/>
      <use x="2454.882812" xlink:href="#DejaVuSans-2e"/>
      <use x="2486.669922" xlink:href="#DejaVuSans-30"/>
     </g>
    </g>
   </g>
  </g>
 </g>
 <defs>
  <clipPath id="p2a529b304d">
   <rect height="266.112" width="357.12" x="57.6" y="41.472"/>
  </clipPath>
 </defs>
</svg>
