<?xml version="1.0" encoding="utf-8" standalone="no"?>
<!DOCTYPE svg PUBLIC "-//W3C//DTD SVG 1.1//EN"
  "http://www.w3.org/Graphics/SVG/1.1/DTD/svg11.dtd">
<!-- Created with matplotlib (http://matplotlib.org/) -->
<svg height="345.6pt" version="1.1" viewBox="0 0 460.8 345.6" width="460.8pt" xmlns="http://www.w3.org/2000/svg" xmlns:xlink="http://www.w3.org/1999/xlink">
 <defs>
  <style type="text/css">
*{stroke-linecap:butt;stroke-linejoin:round;}
  </style>
 </defs>
 <g id="figure_1">
  <g id="patch_1">
   <path d="M 0 345.6 
L 460.8 345.6 
L 460.8 0 
L 0 0 
z
" style="fill:#ffffff;"/>
  </g>
  <g id="axes_1">
   <g id="patch_2">
    <path d="M 57.6 307.584 
L 414.72 307.584 
L 414.72 41.472 
L 57.6 41.472 
z
" style="fill:#ffffff;"/>
   </g>
   <g id="matplotlib.axis_1">
    <g id="xtick_1">
     <g id="line2d_1">
      <defs>
       <path d="M 0 0 
L 0 3.5 
" id="md3c4b714b2" style="stroke:#000000;stroke-width:0.8;"/>
      </defs>
      <g>
       <use style="stroke:#000000;stroke-width:0.8;" x="73.528459" xlink:href="#md3c4b714b2" y="307.584"/>
      </g>
     </g>
     <g id="text_1">
      <!-- 0 -->
      <defs>
       <path d="M 31.78125 66.40625 
Q 24.171875 66.40625 20.328125 58.90625 
Q 16.5 51.421875 16.5 36.375 
Q 16.5 21.390625 20.328125 13.890625 
Q 24.171875 6.390625 31.78125 6.390625 
Q 39.453125 6.390625 43.28125 13.890625 
Q 47.125 21.390625 47.125 36.375 
Q 47.125 51.421875 43.28125 58.90625 
Q 39.453125 66.40625 31.78125 66.40625 
z
M 31.78125 74.21875 
Q 44.046875 74.21875 50.515625 64.515625 
Q 56.984375 54.828125 56.984375 36.375 
Q 56.984375 17.96875 50.515625 8.265625 
Q 44.046875 -1.421875 31.78125 -1.421875 
Q 19.53125 -1.421875 13.0625 8.265625 
Q 6.59375 17.96875 6.59375 36.375 
Q 6.59375 54.828125 13.0625 64.515625 
Q 19.53125 74.21875 31.78125 74.21875 
z
" id="DejaVuSans-30"/>
      </defs>
      <g transform="translate(70.347209 322.182437)scale(0.1 -0.1)">
       <use xlink:href="#DejaVuSans-30"/>
      </g>
     </g>
    </g>
    <g id="xtick_2">
     <g id="line2d_2">
      <g>
       <use style="stroke:#000000;stroke-width:0.8;" x="134.382169" xlink:href="#md3c4b714b2" y="307.584"/>
      </g>
     </g>
     <g id="text_2">
      <!-- 200 -->
      <defs>
       <path d="M 19.1875 8.296875 
L 53.609375 8.296875 
L 53.609375 0 
L 7.328125 0 
L 7.328125 8.296875 
Q 12.9375 14.109375 22.625 23.890625 
Q 32.328125 33.6875 34.8125 36.53125 
Q 39.546875 41.84375 41.421875 45.53125 
Q 43.3125 49.21875 43.3125 52.78125 
Q 43.3125 58.59375 39.234375 62.25 
Q 35.15625 65.921875 28.609375 65.921875 
Q 23.96875 65.921875 18.8125 64.3125 
Q 13.671875 62.703125 7.8125 59.421875 
L 7.8125 69.390625 
Q 13.765625 71.78125 18.9375 73 
Q 24.125 74.21875 28.421875 74.21875 
Q 39.75 74.21875 46.484375 68.546875 
Q 53.21875 62.890625 53.21875 53.421875 
Q 53.21875 48.921875 51.53125 44.890625 
Q 49.859375 40.875 45.40625 35.40625 
Q 44.1875 33.984375 37.640625 27.21875 
Q 31.109375 20.453125 19.1875 8.296875 
z
" id="DejaVuSans-32"/>
      </defs>
      <g transform="translate(124.838419 322.182437)scale(0.1 -0.1)">
       <use xlink:href="#DejaVuSans-32"/>
       <use x="63.623047" xlink:href="#DejaVuSans-30"/>
       <use x="127.246094" xlink:href="#DejaVuSans-30"/>
      </g>
     </g>
    </g>
    <g id="xtick_3">
     <g id="line2d_3">
      <g>
       <use style="stroke:#000000;stroke-width:0.8;" x="195.23588" xlink:href="#md3c4b714b2" y="307.584"/>
      </g>
     </g>
     <g id="text_3">
      <!-- 400 -->
      <defs>
       <path d="M 37.796875 64.3125 
L 12.890625 25.390625 
L 37.796875 25.390625 
z
M 35.203125 72.90625 
L 47.609375 72.90625 
L 47.609375 25.390625 
L 58.015625 25.390625 
L 58.015625 17.1875 
L 47.609375 17.1875 
L 47.609375 0 
L 37.796875 0 
L 37.796875 17.1875 
L 4.890625 17.1875 
L 4.890625 26.703125 
z
" id="DejaVuSans-34"/>
      </defs>
      <g transform="translate(185.69213 322.182437)scale(0.1 -0.1)">
       <use xlink:href="#DejaVuSans-34"/>
       <use x="63.623047" xlink:href="#DejaVuSans-30"/>
       <use x="127.246094" xlink:href="#DejaVuSans-30"/>
      </g>
     </g>
    </g>
    <g id="xtick_4">
     <g id="line2d_4">
      <g>
       <use style="stroke:#000000;stroke-width:0.8;" x="256.08959" xlink:href="#md3c4b714b2" y="307.584"/>
      </g>
     </g>
     <g id="text_4">
      <!-- 600 -->
      <defs>
       <path d="M 33.015625 40.375 
Q 26.375 40.375 22.484375 35.828125 
Q 18.609375 31.296875 18.609375 23.390625 
Q 18.609375 15.53125 22.484375 10.953125 
Q 26.375 6.390625 33.015625 6.390625 
Q 39.65625 6.390625 43.53125 10.953125 
Q 47.40625 15.53125 47.40625 23.390625 
Q 47.40625 31.296875 43.53125 35.828125 
Q 39.65625 40.375 33.015625 40.375 
z
M 52.59375 71.296875 
L 52.59375 62.3125 
Q 48.875 64.0625 45.09375 64.984375 
Q 41.3125 65.921875 37.59375 65.921875 
Q 27.828125 65.921875 22.671875 59.328125 
Q 17.53125 52.734375 16.796875 39.40625 
Q 19.671875 43.65625 24.015625 45.921875 
Q 28.375 48.1875 33.59375 48.1875 
Q 44.578125 48.1875 50.953125 41.515625 
Q 57.328125 34.859375 57.328125 23.390625 
Q 57.328125 12.15625 50.6875 5.359375 
Q 44.046875 -1.421875 33.015625 -1.421875 
Q 20.359375 -1.421875 13.671875 8.265625 
Q 6.984375 17.96875 6.984375 36.375 
Q 6.984375 53.65625 15.1875 63.9375 
Q 23.390625 74.21875 37.203125 74.21875 
Q 40.921875 74.21875 44.703125 73.484375 
Q 48.484375 72.75 52.59375 71.296875 
z
" id="DejaVuSans-36"/>
      </defs>
      <g transform="translate(246.54584 322.182437)scale(0.1 -0.1)">
       <use xlink:href="#DejaVuSans-36"/>
       <use x="63.623047" xlink:href="#DejaVuSans-30"/>
       <use x="127.246094" xlink:href="#DejaVuSans-30"/>
      </g>
     </g>
    </g>
    <g id="xtick_5">
     <g id="line2d_5">
      <g>
       <use style="stroke:#000000;stroke-width:0.8;" x="316.943301" xlink:href="#md3c4b714b2" y="307.584"/>
      </g>
     </g>
     <g id="text_5">
      <!-- 800 -->
      <defs>
       <path d="M 31.78125 34.625 
Q 24.75 34.625 20.71875 30.859375 
Q 16.703125 27.09375 16.703125 20.515625 
Q 16.703125 13.921875 20.71875 10.15625 
Q 24.75 6.390625 31.78125 6.390625 
Q 38.8125 6.390625 42.859375 10.171875 
Q 46.921875 13.96875 46.921875 20.515625 
Q 46.921875 27.09375 42.890625 30.859375 
Q 38.875 34.625 31.78125 34.625 
z
M 21.921875 38.8125 
Q 15.578125 40.375 12.03125 44.71875 
Q 8.5 49.078125 8.5 55.328125 
Q 8.5 64.0625 14.71875 69.140625 
Q 20.953125 74.21875 31.78125 74.21875 
Q 42.671875 74.21875 48.875 69.140625 
Q 55.078125 64.0625 55.078125 55.328125 
Q 55.078125 49.078125 51.53125 44.71875 
Q 48 40.375 41.703125 38.8125 
Q 48.828125 37.15625 52.796875 32.3125 
Q 56.78125 27.484375 56.78125 20.515625 
Q 56.78125 9.90625 50.3125 4.234375 
Q 43.84375 -1.421875 31.78125 -1.421875 
Q 19.734375 -1.421875 13.25 4.234375 
Q 6.78125 9.90625 6.78125 20.515625 
Q 6.78125 27.484375 10.78125 32.3125 
Q 14.796875 37.15625 21.921875 38.8125 
z
M 18.3125 54.390625 
Q 18.3125 48.734375 21.84375 45.5625 
Q 25.390625 42.390625 31.78125 42.390625 
Q 38.140625 42.390625 41.71875 45.5625 
Q 45.3125 48.734375 45.3125 54.390625 
Q 45.3125 60.0625 41.71875 63.234375 
Q 38.140625 66.40625 31.78125 66.40625 
Q 25.390625 66.40625 21.84375 63.234375 
Q 18.3125 60.0625 18.3125 54.390625 
z
" id="DejaVuSans-38"/>
      </defs>
      <g transform="translate(307.399551 322.182437)scale(0.1 -0.1)">
       <use xlink:href="#DejaVuSans-38"/>
       <use x="63.623047" xlink:href="#DejaVuSans-30"/>
       <use x="127.246094" xlink:href="#DejaVuSans-30"/>
      </g>
     </g>
    </g>
    <g id="xtick_6">
     <g id="line2d_6">
      <g>
       <use style="stroke:#000000;stroke-width:0.8;" x="377.797011" xlink:href="#md3c4b714b2" y="307.584"/>
      </g>
     </g>
     <g id="text_6">
      <!-- 1000 -->
      <defs>
       <path d="M 12.40625 8.296875 
L 28.515625 8.296875 
L 28.515625 63.921875 
L 10.984375 60.40625 
L 10.984375 69.390625 
L 28.421875 72.90625 
L 38.28125 72.90625 
L 38.28125 8.296875 
L 54.390625 8.296875 
L 54.390625 0 
L 12.40625 0 
z
" id="DejaVuSans-31"/>
      </defs>
      <g transform="translate(365.072011 322.182437)scale(0.1 -0.1)">
       <use xlink:href="#DejaVuSans-31"/>
       <use x="63.623047" xlink:href="#DejaVuSans-30"/>
       <use x="127.246094" xlink:href="#DejaVuSans-30"/>
       <use x="190.869141" xlink:href="#DejaVuSans-30"/>
      </g>
     </g>
    </g>
    <g id="text_7">
     <!-- Generation number -->
     <defs>
      <path d="M 59.515625 10.40625 
L 59.515625 29.984375 
L 43.40625 29.984375 
L 43.40625 38.09375 
L 69.28125 38.09375 
L 69.28125 6.78125 
Q 63.578125 2.734375 56.6875 0.65625 
Q 49.8125 -1.421875 42 -1.421875 
Q 24.90625 -1.421875 15.25 8.5625 
Q 5.609375 18.5625 5.609375 36.375 
Q 5.609375 54.25 15.25 64.234375 
Q 24.90625 74.21875 42 74.21875 
Q 49.125 74.21875 55.546875 72.453125 
Q 61.96875 70.703125 67.390625 67.28125 
L 67.390625 56.78125 
Q 61.921875 61.421875 55.765625 63.765625 
Q 49.609375 66.109375 42.828125 66.109375 
Q 29.4375 66.109375 22.71875 58.640625 
Q 16.015625 51.171875 16.015625 36.375 
Q 16.015625 21.625 22.71875 14.15625 
Q 29.4375 6.6875 42.828125 6.6875 
Q 48.046875 6.6875 52.140625 7.59375 
Q 56.25 8.5 59.515625 10.40625 
z
" id="DejaVuSans-47"/>
      <path d="M 56.203125 29.59375 
L 56.203125 25.203125 
L 14.890625 25.203125 
Q 15.484375 15.921875 20.484375 11.0625 
Q 25.484375 6.203125 34.421875 6.203125 
Q 39.59375 6.203125 44.453125 7.46875 
Q 49.3125 8.734375 54.109375 11.28125 
L 54.109375 2.78125 
Q 49.265625 0.734375 44.1875 -0.34375 
Q 39.109375 -1.421875 33.890625 -1.421875 
Q 20.796875 -1.421875 13.15625 6.1875 
Q 5.515625 13.8125 5.515625 26.8125 
Q 5.515625 40.234375 12.765625 48.109375 
Q 20.015625 56 32.328125 56 
Q 43.359375 56 49.78125 48.890625 
Q 56.203125 41.796875 56.203125 29.59375 
z
M 47.21875 32.234375 
Q 47.125 39.59375 43.09375 43.984375 
Q 39.0625 48.390625 32.421875 48.390625 
Q 24.90625 48.390625 20.390625 44.140625 
Q 15.875 39.890625 15.1875 32.171875 
z
" id="DejaVuSans-65"/>
      <path d="M 54.890625 33.015625 
L 54.890625 0 
L 45.90625 0 
L 45.90625 32.71875 
Q 45.90625 40.484375 42.875 44.328125 
Q 39.84375 48.1875 33.796875 48.1875 
Q 26.515625 48.1875 22.3125 43.546875 
Q 18.109375 38.921875 18.109375 30.90625 
L 18.109375 0 
L 9.078125 0 
L 9.078125 54.6875 
L 18.109375 54.6875 
L 18.109375 46.1875 
Q 21.34375 51.125 25.703125 53.5625 
Q 30.078125 56 35.796875 56 
Q 45.21875 56 50.046875 50.171875 
Q 54.890625 44.34375 54.890625 33.015625 
z
" id="DejaVuSans-6e"/>
      <path d="M 41.109375 46.296875 
Q 39.59375 47.171875 37.8125 47.578125 
Q 36.03125 48 33.890625 48 
Q 26.265625 48 22.1875 43.046875 
Q 18.109375 38.09375 18.109375 28.8125 
L 18.109375 0 
L 9.078125 0 
L 9.078125 54.6875 
L 18.109375 54.6875 
L 18.109375 46.1875 
Q 20.953125 51.171875 25.484375 53.578125 
Q 30.03125 56 36.53125 56 
Q 37.453125 56 38.578125 55.875 
Q 39.703125 55.765625 41.0625 55.515625 
z
" id="DejaVuSans-72"/>
      <path d="M 34.28125 27.484375 
Q 23.390625 27.484375 19.1875 25 
Q 14.984375 22.515625 14.984375 16.5 
Q 14.984375 11.71875 18.140625 8.90625 
Q 21.296875 6.109375 26.703125 6.109375 
Q 34.1875 6.109375 38.703125 11.40625 
Q 43.21875 16.703125 43.21875 25.484375 
L 43.21875 27.484375 
z
M 52.203125 31.203125 
L 52.203125 0 
L 43.21875 0 
L 43.21875 8.296875 
Q 40.140625 3.328125 35.546875 0.953125 
Q 30.953125 -1.421875 24.3125 -1.421875 
Q 15.921875 -1.421875 10.953125 3.296875 
Q 6 8.015625 6 15.921875 
Q 6 25.140625 12.171875 29.828125 
Q 18.359375 34.515625 30.609375 34.515625 
L 43.21875 34.515625 
L 43.21875 35.40625 
Q 43.21875 41.609375 39.140625 45 
Q 35.0625 48.390625 27.6875 48.390625 
Q 23 48.390625 18.546875 47.265625 
Q 14.109375 46.140625 10.015625 43.890625 
L 10.015625 52.203125 
Q 14.9375 54.109375 19.578125 55.046875 
Q 24.21875 56 28.609375 56 
Q 40.484375 56 46.34375 49.84375 
Q 52.203125 43.703125 52.203125 31.203125 
z
" id="DejaVuSans-61"/>
      <path d="M 18.3125 70.21875 
L 18.3125 54.6875 
L 36.8125 54.6875 
L 36.8125 47.703125 
L 18.3125 47.703125 
L 18.3125 18.015625 
Q 18.3125 11.328125 20.140625 9.421875 
Q 21.96875 7.515625 27.59375 7.515625 
L 36.8125 7.515625 
L 36.8125 0 
L 27.59375 0 
Q 17.1875 0 13.234375 3.875 
Q 9.28125 7.765625 9.28125 18.015625 
L 9.28125 47.703125 
L 2.6875 47.703125 
L 2.6875 54.6875 
L 9.28125 54.6875 
L 9.28125 70.21875 
z
" id="DejaVuSans-74"/>
      <path d="M 9.421875 54.6875 
L 18.40625 54.6875 
L 18.40625 0 
L 9.421875 0 
z
M 9.421875 75.984375 
L 18.40625 75.984375 
L 18.40625 64.59375 
L 9.421875 64.59375 
z
" id="DejaVuSans-69"/>
      <path d="M 30.609375 48.390625 
Q 23.390625 48.390625 19.1875 42.75 
Q 14.984375 37.109375 14.984375 27.296875 
Q 14.984375 17.484375 19.15625 11.84375 
Q 23.34375 6.203125 30.609375 6.203125 
Q 37.796875 6.203125 41.984375 11.859375 
Q 46.1875 17.53125 46.1875 27.296875 
Q 46.1875 37.015625 41.984375 42.703125 
Q 37.796875 48.390625 30.609375 48.390625 
z
M 30.609375 56 
Q 42.328125 56 49.015625 48.375 
Q 55.71875 40.765625 55.71875 27.296875 
Q 55.71875 13.875 49.015625 6.21875 
Q 42.328125 -1.421875 30.609375 -1.421875 
Q 18.84375 -1.421875 12.171875 6.21875 
Q 5.515625 13.875 5.515625 27.296875 
Q 5.515625 40.765625 12.171875 48.375 
Q 18.84375 56 30.609375 56 
z
" id="DejaVuSans-6f"/>
      <path id="DejaVuSans-20"/>
      <path d="M 8.5 21.578125 
L 8.5 54.6875 
L 17.484375 54.6875 
L 17.484375 21.921875 
Q 17.484375 14.15625 20.5 10.265625 
Q 23.53125 6.390625 29.59375 6.390625 
Q 36.859375 6.390625 41.078125 11.03125 
Q 45.3125 15.671875 45.3125 23.6875 
L 45.3125 54.6875 
L 54.296875 54.6875 
L 54.296875 0 
L 45.3125 0 
L 45.3125 8.40625 
Q 42.046875 3.421875 37.71875 1 
Q 33.40625 -1.421875 27.6875 -1.421875 
Q 18.265625 -1.421875 13.375 4.4375 
Q 8.5 10.296875 8.5 21.578125 
z
M 31.109375 56 
z
" id="DejaVuSans-75"/>
      <path d="M 52 44.1875 
Q 55.375 50.25 60.0625 53.125 
Q 64.75 56 71.09375 56 
Q 79.640625 56 84.28125 50.015625 
Q 88.921875 44.046875 88.921875 33.015625 
L 88.921875 0 
L 79.890625 0 
L 79.890625 32.71875 
Q 79.890625 40.578125 77.09375 44.375 
Q 74.3125 48.1875 68.609375 48.1875 
Q 61.625 48.1875 57.5625 43.546875 
Q 53.515625 38.921875 53.515625 30.90625 
L 53.515625 0 
L 44.484375 0 
L 44.484375 32.71875 
Q 44.484375 40.625 41.703125 44.40625 
Q 38.921875 48.1875 33.109375 48.1875 
Q 26.21875 48.1875 22.15625 43.53125 
Q 18.109375 38.875 18.109375 30.90625 
L 18.109375 0 
L 9.078125 0 
L 9.078125 54.6875 
L 18.109375 54.6875 
L 18.109375 46.1875 
Q 21.1875 51.21875 25.484375 53.609375 
Q 29.78125 56 35.6875 56 
Q 41.65625 56 45.828125 52.96875 
Q 50 49.953125 52 44.1875 
z
" id="DejaVuSans-6d"/>
      <path d="M 48.6875 27.296875 
Q 48.6875 37.203125 44.609375 42.84375 
Q 40.53125 48.484375 33.40625 48.484375 
Q 26.265625 48.484375 22.1875 42.84375 
Q 18.109375 37.203125 18.109375 27.296875 
Q 18.109375 17.390625 22.1875 11.75 
Q 26.265625 6.109375 33.40625 6.109375 
Q 40.53125 6.109375 44.609375 11.75 
Q 48.6875 17.390625 48.6875 27.296875 
z
M 18.109375 46.390625 
Q 20.953125 51.265625 25.265625 53.625 
Q 29.59375 56 35.59375 56 
Q 45.5625 56 51.78125 48.09375 
Q 58.015625 40.1875 58.015625 27.296875 
Q 58.015625 14.40625 51.78125 6.484375 
Q 45.5625 -1.421875 35.59375 -1.421875 
Q 29.59375 -1.421875 25.265625 0.953125 
Q 20.953125 3.328125 18.109375 8.203125 
L 18.109375 0 
L 9.078125 0 
L 9.078125 75.984375 
L 18.109375 75.984375 
z
" id="DejaVuSans-62"/>
     </defs>
     <g transform="translate(187.163906 335.860562)scale(0.1 -0.1)">
      <use xlink:href="#DejaVuSans-47"/>
      <use x="77.490234" xlink:href="#DejaVuSans-65"/>
      <use x="139.013672" xlink:href="#DejaVuSans-6e"/>
      <use x="202.392578" xlink:href="#DejaVuSans-65"/>
      <use x="263.916016" xlink:href="#DejaVuSans-72"/>
      <use x="305.029297" xlink:href="#DejaVuSans-61"/>
      <use x="366.308594" xlink:href="#DejaVuSans-74"/>
      <use x="405.517578" xlink:href="#DejaVuSans-69"/>
      <use x="433.300781" xlink:href="#DejaVuSans-6f"/>
      <use x="494.482422" xlink:href="#DejaVuSans-6e"/>
      <use x="557.861328" xlink:href="#DejaVuSans-20"/>
      <use x="589.648438" xlink:href="#DejaVuSans-6e"/>
      <use x="653.027344" xlink:href="#DejaVuSans-75"/>
      <use x="716.40625" xlink:href="#DejaVuSans-6d"/>
      <use x="813.818359" xlink:href="#DejaVuSans-62"/>
      <use x="877.294922" xlink:href="#DejaVuSans-65"/>
      <use x="938.818359" xlink:href="#DejaVuSans-72"/>
     </g>
    </g>
   </g>
   <g id="matplotlib.axis_2">
    <g id="ytick_1">
     <g id="line2d_7">
      <defs>
       <path d="M 0 0 
L -3.5 0 
" id="m1b192d0ffb" style="stroke:#000000;stroke-width:0.8;"/>
      </defs>
      <g>
       <use style="stroke:#000000;stroke-width:0.8;" x="57.6" xlink:href="#m1b192d0ffb" y="304.863473"/>
      </g>
     </g>
     <g id="text_8">
      <!-- 2000 -->
      <g transform="translate(25.15 308.662692)scale(0.1 -0.1)">
       <use xlink:href="#DejaVuSans-32"/>
       <use x="63.623047" xlink:href="#DejaVuSans-30"/>
       <use x="127.246094" xlink:href="#DejaVuSans-30"/>
       <use x="190.869141" xlink:href="#DejaVuSans-30"/>
      </g>
     </g>
    </g>
    <g id="ytick_2">
     <g id="line2d_8">
      <g>
       <use style="stroke:#000000;stroke-width:0.8;" x="57.6" xlink:href="#m1b192d0ffb" y="258.551118"/>
      </g>
     </g>
     <g id="text_9">
      <!-- 2500 -->
      <defs>
       <path d="M 10.796875 72.90625 
L 49.515625 72.90625 
L 49.515625 64.59375 
L 19.828125 64.59375 
L 19.828125 46.734375 
Q 21.96875 47.46875 24.109375 47.828125 
Q 26.265625 48.1875 28.421875 48.1875 
Q 40.625 48.1875 47.75 41.5 
Q 54.890625 34.8125 54.890625 23.390625 
Q 54.890625 11.625 47.5625 5.09375 
Q 40.234375 -1.421875 26.90625 -1.421875 
Q 22.3125 -1.421875 17.546875 -0.640625 
Q 12.796875 0.140625 7.71875 1.703125 
L 7.71875 11.625 
Q 12.109375 9.234375 16.796875 8.0625 
Q 21.484375 6.890625 26.703125 6.890625 
Q 35.15625 6.890625 40.078125 11.328125 
Q 45.015625 15.765625 45.015625 23.390625 
Q 45.015625 31 40.078125 35.4375 
Q 35.15625 39.890625 26.703125 39.890625 
Q 22.75 39.890625 18.8125 39.015625 
Q 14.890625 38.140625 10.796875 36.28125 
z
" id="DejaVuSans-35"/>
      </defs>
      <g transform="translate(25.15 262.350336)scale(0.1 -0.1)">
       <use xlink:href="#DejaVuSans-32"/>
       <use x="63.623047" xlink:href="#DejaVuSans-35"/>
       <use x="127.246094" xlink:href="#DejaVuSans-30"/>
       <use x="190.869141" xlink:href="#DejaVuSans-30"/>
      </g>
     </g>
    </g>
    <g id="ytick_3">
     <g id="line2d_9">
      <g>
       <use style="stroke:#000000;stroke-width:0.8;" x="57.6" xlink:href="#m1b192d0ffb" y="212.238762"/>
      </g>
     </g>
     <g id="text_10">
      <!-- 3000 -->
      <defs>
       <path d="M 40.578125 39.3125 
Q 47.65625 37.796875 51.625 33 
Q 55.609375 28.21875 55.609375 21.1875 
Q 55.609375 10.40625 48.1875 4.484375 
Q 40.765625 -1.421875 27.09375 -1.421875 
Q 22.515625 -1.421875 17.65625 -0.515625 
Q 12.796875 0.390625 7.625 2.203125 
L 7.625 11.71875 
Q 11.71875 9.328125 16.59375 8.109375 
Q 21.484375 6.890625 26.8125 6.890625 
Q 36.078125 6.890625 40.9375 10.546875 
Q 45.796875 14.203125 45.796875 21.1875 
Q 45.796875 27.640625 41.28125 31.265625 
Q 36.765625 34.90625 28.71875 34.90625 
L 20.21875 34.90625 
L 20.21875 43.015625 
L 29.109375 43.015625 
Q 36.375 43.015625 40.234375 45.921875 
Q 44.09375 48.828125 44.09375 54.296875 
Q 44.09375 59.90625 40.109375 62.90625 
Q 36.140625 65.921875 28.71875 65.921875 
Q 24.65625 65.921875 20.015625 65.03125 
Q 15.375 64.15625 9.8125 62.3125 
L 9.8125 71.09375 
Q 15.4375 72.65625 20.34375 73.4375 
Q 25.25 74.21875 29.59375 74.21875 
Q 40.828125 74.21875 47.359375 69.109375 
Q 53.90625 64.015625 53.90625 55.328125 
Q 53.90625 49.265625 50.4375 45.09375 
Q 46.96875 40.921875 40.578125 39.3125 
z
" id="DejaVuSans-33"/>
      </defs>
      <g transform="translate(25.15 216.037981)scale(0.1 -0.1)">
       <use xlink:href="#DejaVuSans-33"/>
       <use x="63.623047" xlink:href="#DejaVuSans-30"/>
       <use x="127.246094" xlink:href="#DejaVuSans-30"/>
       <use x="190.869141" xlink:href="#DejaVuSans-30"/>
      </g>
     </g>
    </g>
    <g id="ytick_4">
     <g id="line2d_10">
      <g>
       <use style="stroke:#000000;stroke-width:0.8;" x="57.6" xlink:href="#m1b192d0ffb" y="165.926406"/>
      </g>
     </g>
     <g id="text_11">
      <!-- 3500 -->
      <g transform="translate(25.15 169.725625)scale(0.1 -0.1)">
       <use xlink:href="#DejaVuSans-33"/>
       <use x="63.623047" xlink:href="#DejaVuSans-35"/>
       <use x="127.246094" xlink:href="#DejaVuSans-30"/>
       <use x="190.869141" xlink:href="#DejaVuSans-30"/>
      </g>
     </g>
    </g>
    <g id="ytick_5">
     <g id="line2d_11">
      <g>
       <use style="stroke:#000000;stroke-width:0.8;" x="57.6" xlink:href="#m1b192d0ffb" y="119.61405"/>
      </g>
     </g>
     <g id="text_12">
      <!-- 4000 -->
      <g transform="translate(25.15 123.413269)scale(0.1 -0.1)">
       <use xlink:href="#DejaVuSans-34"/>
       <use x="63.623047" xlink:href="#DejaVuSans-30"/>
       <use x="127.246094" xlink:href="#DejaVuSans-30"/>
       <use x="190.869141" xlink:href="#DejaVuSans-30"/>
      </g>
     </g>
    </g>
    <g id="ytick_6">
     <g id="line2d_12">
      <g>
       <use style="stroke:#000000;stroke-width:0.8;" x="57.6" xlink:href="#m1b192d0ffb" y="73.301695"/>
      </g>
     </g>
     <g id="text_13">
      <!-- 4500 -->
      <g transform="translate(25.15 77.100914)scale(0.1 -0.1)">
       <use xlink:href="#DejaVuSans-34"/>
       <use x="63.623047" xlink:href="#DejaVuSans-35"/>
       <use x="127.246094" xlink:href="#DejaVuSans-30"/>
       <use x="190.869141" xlink:href="#DejaVuSans-30"/>
      </g>
     </g>
    </g>
    <g id="text_14">
     <!-- Average fitness -->
     <defs>
      <path d="M 34.1875 63.1875 
L 20.796875 26.90625 
L 47.609375 26.90625 
z
M 28.609375 72.90625 
L 39.796875 72.90625 
L 67.578125 0 
L 57.328125 0 
L 50.6875 18.703125 
L 17.828125 18.703125 
L 11.1875 0 
L 0.78125 0 
z
" id="DejaVuSans-41"/>
      <path d="M 2.984375 54.6875 
L 12.5 54.6875 
L 29.59375 8.796875 
L 46.6875 54.6875 
L 56.203125 54.6875 
L 35.6875 0 
L 23.484375 0 
z
" id="DejaVuSans-76"/>
      <path d="M 45.40625 27.984375 
Q 45.40625 37.75 41.375 43.109375 
Q 37.359375 48.484375 30.078125 48.484375 
Q 22.859375 48.484375 18.828125 43.109375 
Q 14.796875 37.75 14.796875 27.984375 
Q 14.796875 18.265625 18.828125 12.890625 
Q 22.859375 7.515625 30.078125 7.515625 
Q 37.359375 7.515625 41.375 12.890625 
Q 45.40625 18.265625 45.40625 27.984375 
z
M 54.390625 6.78125 
Q 54.390625 -7.171875 48.1875 -13.984375 
Q 42 -20.796875 29.203125 -20.796875 
Q 24.46875 -20.796875 20.265625 -20.09375 
Q 16.0625 -19.390625 12.109375 -17.921875 
L 12.109375 -9.1875 
Q 16.0625 -11.328125 19.921875 -12.34375 
Q 23.78125 -13.375 27.78125 -13.375 
Q 36.625 -13.375 41.015625 -8.765625 
Q 45.40625 -4.15625 45.40625 5.171875 
L 45.40625 9.625 
Q 42.625 4.78125 38.28125 2.390625 
Q 33.9375 0 27.875 0 
Q 17.828125 0 11.671875 7.65625 
Q 5.515625 15.328125 5.515625 27.984375 
Q 5.515625 40.671875 11.671875 48.328125 
Q 17.828125 56 27.875 56 
Q 33.9375 56 38.28125 53.609375 
Q 42.625 51.21875 45.40625 46.390625 
L 45.40625 54.6875 
L 54.390625 54.6875 
z
" id="DejaVuSans-67"/>
      <path d="M 37.109375 75.984375 
L 37.109375 68.5 
L 28.515625 68.5 
Q 23.6875 68.5 21.796875 66.546875 
Q 19.921875 64.59375 19.921875 59.515625 
L 19.921875 54.6875 
L 34.71875 54.6875 
L 34.71875 47.703125 
L 19.921875 47.703125 
L 19.921875 0 
L 10.890625 0 
L 10.890625 47.703125 
L 2.296875 47.703125 
L 2.296875 54.6875 
L 10.890625 54.6875 
L 10.890625 58.5 
Q 10.890625 67.625 15.140625 71.796875 
Q 19.390625 75.984375 28.609375 75.984375 
z
" id="DejaVuSans-66"/>
      <path d="M 44.28125 53.078125 
L 44.28125 44.578125 
Q 40.484375 46.53125 36.375 47.5 
Q 32.28125 48.484375 27.875 48.484375 
Q 21.1875 48.484375 17.84375 46.4375 
Q 14.5 44.390625 14.5 40.28125 
Q 14.5 37.15625 16.890625 35.375 
Q 19.28125 33.59375 26.515625 31.984375 
L 29.59375 31.296875 
Q 39.15625 29.25 43.1875 25.515625 
Q 47.21875 21.78125 47.21875 15.09375 
Q 47.21875 7.46875 41.1875 3.015625 
Q 35.15625 -1.421875 24.609375 -1.421875 
Q 20.21875 -1.421875 15.453125 -0.5625 
Q 10.6875 0.296875 5.421875 2 
L 5.421875 11.28125 
Q 10.40625 8.6875 15.234375 7.390625 
Q 20.0625 6.109375 24.8125 6.109375 
Q 31.15625 6.109375 34.5625 8.28125 
Q 37.984375 10.453125 37.984375 14.40625 
Q 37.984375 18.0625 35.515625 20.015625 
Q 33.0625 21.96875 24.703125 23.78125 
L 21.578125 24.515625 
Q 13.234375 26.265625 9.515625 29.90625 
Q 5.8125 33.546875 5.8125 39.890625 
Q 5.8125 47.609375 11.28125 51.796875 
Q 16.75 56 26.8125 56 
Q 31.78125 56 36.171875 55.265625 
Q 40.578125 54.546875 44.28125 53.078125 
z
" id="DejaVuSans-73"/>
     </defs>
     <g transform="translate(19.070312 213.503781)rotate(-90)scale(0.1 -0.1)">
      <use xlink:href="#DejaVuSans-41"/>
      <use x="68.330078" xlink:href="#DejaVuSans-76"/>
      <use x="127.509766" xlink:href="#DejaVuSans-65"/>
      <use x="189.033203" xlink:href="#DejaVuSans-72"/>
      <use x="230.146484" xlink:href="#DejaVuSans-61"/>
      <use x="291.425781" xlink:href="#DejaVuSans-67"/>
      <use x="354.902344" xlink:href="#DejaVuSans-65"/>
      <use x="416.425781" xlink:href="#DejaVuSans-20"/>
      <use x="448.212891" xlink:href="#DejaVuSans-66"/>
      <use x="483.417969" xlink:href="#DejaVuSans-69"/>
      <use x="511.201172" xlink:href="#DejaVuSans-74"/>
      <use x="550.410156" xlink:href="#DejaVuSans-6e"/>
      <use x="613.789062" xlink:href="#DejaVuSans-65"/>
      <use x="675.3125" xlink:href="#DejaVuSans-73"/>
      <use x="727.412109" xlink:href="#DejaVuSans-73"/>
     </g>
    </g>
   </g>
   <g id="line2d_13">
    <path clip-path="url(#p1ee7cc7899)" d="M 73.832727 53.704158 
L 74.441264 100.973327 
L 75.049801 119.110172 
L 75.658339 129.427639 
L 76.571144 139.372754 
L 77.788218 149.014986 
L 78.396756 152.978398 
L 79.61383 159.558457 
L 82.047978 169.912048 
L 82.960784 173.115936 
L 83.265052 173.807843 
L 83.87359 175.91135 
L 85.394932 180.586119 
L 86.307738 182.81467 
L 86.916275 184.464316 
L 87.829081 186.44278 
L 88.133349 186.904051 
L 88.741886 188.732463 
L 91.480303 194.907752 
L 91.784572 195.150429 
L 92.08884 196.463847 
L 92.393109 199.48156 
L 93.305915 204.829711 
L 94.21872 208.559708 
L 94.827257 210.199166 
L 95.131526 210.705823 
L 95.740063 212.49348 
L 96.652869 214.356163 
L 96.957137 214.76649 
L 98.47848 217.726776 
L 99.087017 218.603932 
L 99.391286 218.951275 
L 99.695554 219.577418 
L 99.999823 216.870924 
L 100.60836 220.395294 
L 101.521166 223.405597 
L 103.346777 227.311581 
L 103.955314 228.256353 
L 104.259583 228.89639 
L 104.563851 229.074229 
L 104.86812 229.571624 
L 105.172388 230.369123 
L 105.476657 230.380238 
L 106.085194 231.387995 
L 106.389462 229.934713 
L 106.693731 230.605316 
L 107.302268 232.254962 
L 107.910805 233.484092 
L 108.215074 233.799942 
L 108.823611 234.845675 
L 109.432148 235.510721 
L 109.736416 235.757102 
L 110.649222 237.019577 
L 110.953491 237.30764 
L 111.257759 237.760575 
L 113.387639 239.545453 
L 113.691908 239.548232 
L 114.300445 240.239212 
L 114.604713 240.438355 
L 115.21325 240.578219 
L 115.517519 235.978475 
L 116.126056 239.380581 
L 116.734593 241.234002 
L 117.038862 241.97963 
L 117.951667 243.242105 
L 118.560204 244.09981 
L 119.47301 244.99086 
L 119.777279 245.23261 
L 120.081547 245.642012 
L 120.385816 245.775391 
L 120.994353 246.285753 
L 121.298621 242.329752 
L 121.907159 244.83525 
L 122.211427 245.989354 
L 122.515696 246.346886 
L 123.124233 247.775159 
L 123.428501 247.770527 
L 124.645576 249.393312 
L 124.949844 249.558184 
L 125.86265 250.406627 
L 126.166918 250.417742 
L 126.775455 251.067967 
L 127.079724 251.447728 
L 127.688261 251.666323 
L 127.99253 251.840457 
L 128.296798 251.82749 
L 128.601067 245.309489 
L 128.905335 247.625107 
L 129.209604 248.881098 
L 129.513872 246.180161 
L 130.122409 249.717499 
L 131.339484 252.971405 
L 131.643752 253.572539 
L 132.252289 254.238511 
L 132.556558 254.035663 
L 134.077901 256.587474 
L 134.382169 256.722706 
L 134.990706 257.209912 
L 135.903512 257.982402 
L 136.207781 258.178766 
L 136.512049 258.697465 
L 136.816318 258.378836 
L 137.120586 258.618734 
L 137.424855 259.028135 
L 137.729123 259.228204 
L 138.033392 259.277295 
L 138.946197 259.883987 
L 139.250466 259.982169 
L 139.554735 260.468449 
L 139.859003 260.207247 
L 140.163272 260.970475 
L 141.076077 260.92231 
L 141.988883 261.303924 
L 142.293152 261.269653 
L 143.205957 261.875418 
L 143.510226 261.838369 
L 144.118763 262.204236 
L 144.423031 262.470995 
L 145.031569 262.389486 
L 145.944374 262.838715 
L 146.552911 262.88688 
L 146.85718 262.948939 
L 147.161448 263.255527 
L 147.465717 263.363898 
L 147.769986 263.325921 
L 148.378523 263.547295 
L 149.595597 263.843694 
L 150.204134 263.92613 
L 150.508402 264.359613 
L 150.812671 264.333678 
L 151.11694 264.452238 
L 151.421208 264.361466 
L 151.725477 264.693062 
L 152.029745 264.584691 
L 152.638282 264.825516 
L 152.942551 264.739375 
L 153.246819 264.892205 
L 154.159625 264.954264 
L 154.463894 265.111726 
L 154.768162 264.872754 
L 155.376699 265.142292 
L 155.680968 265.124693 
L 155.985236 265.305312 
L 156.289505 265.29327 
L 156.593774 265.482225 
L 156.898042 254.602526 
L 157.506579 259.314345 
L 157.810848 260.918605 
L 158.723653 263.492646 
L 159.332191 264.19011 
L 159.636459 256.448537 
L 159.940728 259.077226 
L 160.549265 262.023618 
L 161.46207 264.667127 
L 161.766339 261.981011 
L 162.070607 263.585271 
L 163.896219 267.155953 
L 164.200487 267.542198 
L 164.504756 267.470877 
L 164.809024 267.770055 
L 165.113293 267.864532 
L 165.72183 268.524947 
L 166.026099 268.745393 
L 166.330367 268.800042 
L 167.243173 269.446562 
L 167.547441 269.264092 
L 167.85171 269.700354 
L 168.460247 270.141248 
L 168.764516 269.96804 
L 169.068784 270.20238 
L 169.373053 270.131059 
L 169.677321 270.536755 
L 169.98159 270.315382 
L 170.285858 270.506189 
L 170.590127 270.35799 
L 171.502933 270.69607 
L 171.807201 270.618265 
L 172.11147 271.00451 
L 172.415738 271.176792 
L 173.024275 271.299057 
L 173.328544 271.377788 
L 173.632812 271.32036 
L 174.24135 271.592677 
L 174.545618 271.639916 
L 174.849887 271.857584 
L 175.458424 271.804788 
L 175.762692 272.050243 
L 176.066961 272.066915 
L 176.371229 271.967807 
L 176.675498 272.219746 
L 176.979767 272.184549 
L 177.284035 272.317928 
L 177.588304 272.202148 
L 178.196841 272.29292 
L 178.501109 272.561531 
L 178.805378 272.621737 
L 179.109646 272.474464 
L 179.413915 272.800503 
L 180.630989 272.631926 
L 180.935258 272.831069 
L 181.239526 272.820881 
L 182.152332 273.044106 
L 182.4566 273.12469 
L 182.760869 272.986679 
L 183.065138 273.257143 
L 183.369406 273.221946 
L 183.673675 273.07282 
L 183.977943 273.337727 
L 184.282212 273.330317 
L 184.58648 273.458139 
L 184.890749 273.459991 
L 185.195017 273.642462 
L 185.499286 273.563731 
L 185.803555 273.708225 
L 186.107823 273.397933 
L 186.412092 273.713783 
L 186.71636 273.782325 
L 187.020629 270.363547 
L 187.629166 272.033571 
L 188.237703 272.627295 
L 189.150509 273.390523 
L 189.759046 273.648946 
L 190.063314 273.969427 
L 190.671851 274.037969 
L 190.97612 274.318622 
L 191.280389 274.299171 
L 191.888926 274.479789 
L 192.193194 265.86106 
L 192.801731 269.699428 
L 193.410268 271.442625 
L 193.714537 272.180844 
L 194.018805 271.367599 
L 194.931611 273.333095 
L 195.23588 273.600781 
L 195.540148 274.085208 
L 196.148685 274.479789 
L 196.452954 274.577971 
L 197.061491 275.222639 
L 197.36576 275.377323 
L 197.670028 275.670943 
L 197.974297 275.522743 
L 198.278565 275.601474 
L 198.582834 276.032179 
L 199.191371 276.409162 
L 199.495639 276.294307 
L 199.799908 276.468442 
L 200.104177 276.394342 
L 200.408445 276.772251 
L 201.016982 276.677774 
L 201.321251 276.687962 
L 201.625519 276.923229 
L 201.929788 276.769472 
L 202.234056 276.946385 
L 202.538325 268.59812 
L 202.842594 266.396431 
L 203.451131 270.326497 
L 204.059668 272.406848 
L 204.668205 273.788809 
L 204.972473 274.17598 
L 205.276742 273.231208 
L 205.58101 273.787883 
L 206.189548 275.119826 
L 206.798085 275.894169 
L 207.102353 276.305422 
L 207.406622 276.335988 
L 207.71089 276.769472 
L 208.015159 276.895442 
L 208.319427 277.207587 
L 208.623696 277.267793 
L 208.927965 277.182578 
L 209.536502 277.660522 
L 210.449307 277.984708 
L 210.753576 272.487432 
L 211.057844 274.317696 
L 212.274919 277.148307 
L 212.579187 277.470641 
L 212.883456 277.968036 
L 213.187724 278.174589 
L 213.796261 278.849823 
L 214.10053 278.91466 
L 214.404799 279.110099 
L 214.709067 278.984129 
L 215.013336 279.071196 
L 215.317604 279.398161 
L 216.838947 279.831645 
L 217.143215 279.977992 
L 217.447484 279.893704 
L 218.36029 280.339228 
L 218.968827 280.418886 
L 219.273095 280.608766 
L 219.577364 280.530035 
L 220.185901 280.703244 
L 220.49017 280.712506 
L 220.794438 280.882009 
L 221.098707 280.751408 
L 221.402975 280.860706 
L 221.707244 281.110792 
L 222.011512 281.148768 
L 222.315781 272.090998 
L 222.620049 274.513134 
L 223.228587 277.112184 
L 224.141392 278.821109 
L 224.749929 279.488007 
L 225.358466 280.290137 
L 225.662735 280.377205 
L 226.271272 281.003348 
L 226.575541 280.93851 
L 227.184078 281.389593 
L 227.488346 281.541497 
L 228.096883 282.011104 
L 229.313958 282.005547 
L 229.618226 282.297315 
L 230.531032 282.552033 
L 230.8353 282.284347 
L 231.139569 282.732651 
L 231.443837 282.356595 
L 231.748106 282.60205 
L 232.052375 282.696527 
L 232.356643 282.595566 
L 232.96518 282.946614 
L 233.573717 282.926237 
L 233.877986 283.068879 
L 234.182254 283.04387 
L 234.486523 283.249497 
L 234.790792 283.131863 
L 235.09506 283.364352 
L 235.399329 283.171692 
L 235.703597 283.148536 
L 236.007866 283.415295 
L 236.616403 283.521814 
L 236.920671 283.368057 
L 237.22494 283.639447 
L 237.833477 283.675571 
L 238.137746 283.865451 
L 238.442014 283.856189 
L 238.746283 284.005315 
L 239.050551 283.962707 
L 239.35482 283.783015 
L 239.659088 283.754302 
L 240.571894 284.098865 
L 240.876163 284.105349 
L 241.180431 283.966412 
L 241.788968 284.145178 
L 243.310311 284.172039 
L 243.61458 275.30137 
L 243.918848 277.71517 
L 244.527385 280.192881 
L 245.135922 281.55817 
L 245.440191 282.002768 
L 245.744459 282.693749 
L 246.657265 283.409738 
L 246.961534 283.41159 
L 247.265802 283.871009 
L 247.570071 284.078488 
L 247.874339 284.086824 
L 248.482876 284.427683 
L 248.787145 284.448061 
L 249.395682 284.776878 
L 249.699951 284.799108 
L 250.004219 285.013071 
L 250.308488 284.931562 
L 250.612756 279.659363 
L 251.221293 281.774911 
L 251.525562 282.455703 
L 251.82983 282.781742 
L 252.134099 283.394918 
L 252.438368 283.620922 
L 253.351173 284.622195 
L 253.95971 284.841716 
L 254.263979 281.033914 
L 254.872516 283.264317 
L 255.176785 283.968265 
L 256.698127 285.041785 
L 257.306664 285.416915 
L 258.21947 285.527139 
L 258.523739 285.71424 
L 259.132276 285.679043 
L 259.436544 286.027312 
L 259.740813 286.049542 
L 260.34935 285.972663 
L 260.957887 285.891154 
L 261.566424 286.30426 
L 261.870693 286.357056 
L 262.174961 286.562683 
L 262.47923 286.514518 
L 262.783498 286.707177 
L 263.087767 286.521928 
L 263.392035 286.78313 
L 263.696304 286.512665 
L 264.304841 286.75349 
L 264.60911 286.875754 
L 264.913378 286.572872 
L 265.217647 286.831294 
L 265.826184 286.847967 
L 266.130452 286.52378 
L 266.434721 286.874828 
L 267.043258 286.973937 
L 267.347527 286.856303 
L 268.260332 286.934108 
L 268.868869 287.336099 
L 269.173138 287.413904 
L 269.477406 287.279598 
L 269.781675 287.337952 
L 270.085944 287.269409 
L 270.390212 287.324058 
L 270.998749 287.232359 
L 271.303018 287.439839 
L 271.911555 287.486151 
L 272.215823 287.357403 
L 272.824361 287.389821 
L 273.128629 287.280524 
L 273.737166 287.472257 
L 274.041435 287.464847 
L 274.345703 287.661212 
L 274.649972 287.685294 
L 274.95424 287.494487 
L 275.258509 287.720492 
L 275.562778 287.77514 
L 275.867046 287.590817 
L 276.475583 287.936307 
L 276.779852 287.680663 
L 277.08412 287.956685 
L 277.388389 287.852019 
L 277.692657 288.016891 
L 278.301195 287.947422 
L 278.605463 287.705672 
L 278.909732 288.075244 
L 279.214 288.184542 
L 280.126806 288.065056 
L 281.34388 287.891847 
L 281.648149 288.085433 
L 282.865223 287.978915 
L 283.169491 288.225296 
L 283.47376 288.111368 
L 284.082297 288.227149 
L 284.386566 288.244748 
L 284.995103 288.049309 
L 285.299371 288.054867 
L 285.60364 288.336446 
L 286.212177 288.380906 
L 286.516445 288.139155 
L 287.124983 288.323479 
L 287.73352 288.359602 
L 288.037788 288.358676 
L 288.342057 288.219739 
L 288.950594 288.512433 
L 289.254862 288.360528 
L 290.167668 288.391095 
L 290.471937 288.694904 
L 290.776205 288.643034 
L 291.080474 288.438333 
L 291.384742 288.731954 
L 294.123159 288.561524 
L 294.427428 288.630993 
L 294.731696 288.459637 
L 295.644502 288.671747 
L 296.253039 288.430923 
L 296.557308 288.647665 
L 297.470113 288.530958 
L 297.774382 288.686567 
L 298.687188 288.727322 
L 298.991456 288.893121 
L 299.295725 275.50885 
L 299.904262 281.253434 
L 300.512799 283.992347 
L 301.729873 286.457091 
L 302.33841 287.172153 
L 302.642679 280.322556 
L 303.251216 284.119243 
L 303.555484 284.360993 
L 303.859753 280.205849 
L 304.164021 282.361226 
L 304.772559 284.697221 
L 305.381096 285.807791 
L 305.685364 286.068067 
L 306.293901 286.856303 
L 307.815244 288.254936 
L 308.423781 288.503171 
L 308.72805 288.384611 
L 309.336587 289.074665 
L 309.640855 288.926465 
L 309.945124 289.148765 
L 310.249393 289.168216 
L 311.162198 289.461836 
L 311.466467 289.514632 
L 311.770735 289.376622 
L 312.075004 289.422934 
L 312.379272 289.682283 
L 312.683541 289.620225 
L 312.987809 289.790654 
L 313.900615 289.854565 
L 314.204884 290.071307 
L 314.813421 289.885131 
L 315.421958 290.154669 
L 315.726226 284.837084 
L 316.334764 286.864639 
L 316.639032 287.763099 
L 316.943301 288.293839 
L 317.856106 289.13024 
L 318.160375 289.090411 
L 318.464643 289.163585 
L 318.768912 289.539641 
L 319.073181 289.630413 
L 319.377449 289.964788 
L 319.681718 289.775834 
L 319.985986 289.871238 
L 320.290255 290.152817 
L 320.898792 290.162079 
L 321.20306 290.310279 
L 321.811598 290.363075 
L 322.115866 290.489971 
L 322.420135 290.74191 
L 323.028672 290.865101 
L 323.33294 290.679851 
L 323.637209 290.832682 
L 323.941477 290.753025 
L 324.245746 290.79378 
L 324.854283 291.076285 
L 325.46282 291.249493 
L 325.767089 291.042014 
L 326.071357 291.277281 
L 326.375626 291.140196 
L 326.679894 291.299511 
L 326.984163 291.142975 
L 327.288431 291.41066 
L 327.896969 291.463456 
L 328.201237 291.304142 
L 328.505506 291.550524 
L 329.114043 291.35879 
L 329.72258 291.431964 
L 331.243923 291.54404 
L 331.548191 291.731142 
L 331.85246 291.590352 
L 332.460997 291.764487 
L 333.678071 291.781159 
L 333.98234 279.772365 
L 334.286608 282.904007 
L 334.590877 279.770513 
L 335.199414 283.748744 
L 335.807951 286.054173 
L 337.025025 288.26883 
L 337.329294 288.445743 
L 337.633562 287.658433 
L 337.937831 288.392947 
L 338.242099 288.68842 
L 338.850636 289.49055 
L 340.067711 290.163005 
L 340.676248 290.670589 
L 340.980516 290.663179 
L 341.284785 290.487192 
L 341.589053 290.903077 
L 341.893322 291.06517 
L 342.197591 290.933643 
L 342.501859 291.025341 
L 342.806128 291.235599 
L 344.631739 291.300437 
L 344.936007 291.555155 
L 345.240276 291.651484 
L 345.544545 291.380094 
L 345.848813 291.369905 
L 346.153082 291.631107 
L 346.45735 291.710764 
L 346.761619 292.001606 
L 347.065887 291.886751 
L 348.282962 292.106272 
L 348.58723 292.198896 
L 349.195767 292.20538 
L 349.804304 292.365621 
L 350.108573 292.499001 
L 350.412841 292.201675 
L 350.71711 292.601814 
L 351.021379 292.349875 
L 351.629916 292.726857 
L 351.934184 292.695365 
L 352.238453 292.480476 
L 352.84699 292.819482 
L 353.455527 292.675914 
L 354.064064 292.630528 
L 354.368333 292.850974 
L 355.889675 292.748161 
L 356.193944 292.900992 
L 356.498212 292.925074 
L 356.802481 293.084389 
L 357.10675 292.790768 
L 357.411018 293.100135 
L 357.715287 292.982502 
L 358.019555 280.722695 
L 358.323824 284.165555 
L 358.628092 286.307965 
L 359.540898 289.562797 
L 360.149435 290.710417 
L 360.757972 291.160573 
L 361.062241 291.62555 
L 361.670778 291.915465 
L 361.975046 292.20538 
L 362.279315 292.169257 
L 362.887852 292.705554 
L 363.192121 292.791695 
L 363.496389 292.711111 
L 363.800658 293.02233 
L 364.409195 293.122365 
L 364.713463 293.44192 
L 365.322001 293.587341 
L 367.45188 293.828165 
L 367.756149 294.069916 
L 370.190297 294.156057 
L 370.494566 294.055096 
L 370.798834 294.231083 
L 371.103103 294.197738 
L 372.320177 294.504326 
L 373.84152 294.286657 
L 374.145789 294.366315 
L 374.450057 294.632148 
L 374.754326 294.67846 
L 375.058594 294.514514 
L 375.362863 294.706247 
L 375.667131 294.652525 
L 375.9714 294.474686 
L 376.275668 294.759044 
L 376.579937 294.634926 
L 378.10128 294.928547 
L 378.709817 295.203642 
L 379.014085 294.866488 
L 379.318354 295.052664 
L 379.622622 294.807208 
L 380.839697 295.010983 
L 381.143965 294.856299 
L 381.448234 295.229577 
L 381.752502 295.073968 
L 382.056771 295.184191 
L 382.665308 295.101755 
L 382.969577 295.286078 
L 383.578114 295.043401 
L 383.882382 295.213831 
L 385.403725 295.236987 
L 385.707994 295.370367 
L 386.012262 295.260143 
L 386.620799 295.423163 
L 387.229336 295.338874 
L 387.533605 295.455581 
L 387.837873 295.230503 
L 388.44641 295.397228 
L 389.054948 295.488 
L 389.359216 295.315718 
L 389.663485 295.272184 
L 389.967753 284.333206 
L 390.57629 288.972778 
L 391.184827 291.202255 
L 392.097633 292.869499 
L 392.401902 290.345476 
L 393.010439 292.248914 
L 393.314707 292.541608 
L 393.618976 293.080684 
L 394.531782 293.606792 
L 395.444587 294.446898 
L 395.748856 283.380098 
L 396.357393 288.28365 
L 396.96593 290.845649 
L 397.270199 291.619066 
L 397.574467 292.024762 
L 397.878736 292.796326 
L 398.183004 293.038076 
L 398.487273 293.566037 
L 398.487273 293.566037 
" style="fill:none;stroke:#1f77b4;stroke-linecap:square;stroke-width:1.5;"/>
   </g>
   <g id="line2d_14">
    <path clip-path="url(#p1ee7cc7899)" d="M 73.832727 53.568 
L 74.441264 101.077067 
L 75.049801 119.571443 
L 75.658339 129.102526 
L 76.266876 136.070683 
L 76.875413 141.673552 
L 78.092487 150.29506 
L 79.309561 157.278963 
L 80.526635 163.194903 
L 83.87359 175.133302 
L 87.829081 185.448917 
L 88.437618 186.79568 
L 89.046155 188.339734 
L 89.654692 189.516068 
L 89.958961 190.282074 
L 90.263229 190.550686 
L 91.176035 192.46246 
L 95.131526 199.296311 
L 95.435794 199.752025 
L 95.740063 200.554155 
L 96.3486 201.181224 
L 97.565674 203.336601 
L 97.869943 203.591319 
L 99.087017 205.480863 
L 99.391286 205.657776 
L 100.304091 207.249995 
L 100.60836 207.764988 
L 101.216897 208.328147 
L 102.433971 209.939817 
L 102.73824 210.566886 
L 103.042508 210.686372 
L 103.346777 210.977213 
L 103.651045 211.509805 
L 103.955314 211.716359 
L 104.86812 212.844527 
L 105.172388 213.421579 
L 105.476657 213.694822 
L 105.780925 214.183881 
L 106.085194 214.265391 
L 106.389462 214.802614 
L 106.997999 215.264811 
L 107.302268 215.592703 
L 107.606537 216.2031 
L 107.910805 216.347594 
L 109.432148 218.231581 
L 109.736416 218.741943 
L 110.040685 218.809559 
L 110.344954 219.143008 
L 110.649222 219.725617 
L 110.953491 219.994229 
L 111.257759 220.622225 
L 111.562028 220.654643 
L 111.866296 220.92696 
L 112.170565 221.41324 
L 112.474833 221.58089 
L 113.996176 223.071222 
L 114.604713 223.521378 
L 115.517519 224.431879 
L 115.821788 224.497642 
L 116.734593 225.358126 
L 117.038862 225.881456 
L 117.34313 225.734182 
L 117.951667 226.302898 
L 118.864473 226.855868 
L 119.777279 227.932167 
L 120.081547 228.155392 
L 120.385816 228.518481 
L 120.994353 228.851004 
L 121.298621 229.083492 
L 121.60289 229.466958 
L 121.907159 229.549394 
L 122.819964 230.235743 
L 123.124233 230.324663 
L 123.428501 230.80909 
L 123.73277 230.785934 
L 124.037038 230.966552 
L 124.341307 231.527858 
L 124.645576 231.777019 
L 124.949844 231.705697 
L 125.254113 231.959489 
L 125.558381 232.36889 
L 125.86265 232.476335 
L 126.166918 232.828309 
L 126.471187 232.709749 
L 126.775455 233.075617 
L 127.079724 233.231226 
L 127.383993 233.629513 
L 127.688261 233.811057 
L 127.99253 233.850886 
L 128.601067 234.328829 
L 128.905335 234.653942 
L 129.209604 234.57058 
L 129.513872 234.872536 
L 129.818141 234.874389 
L 131.035215 235.865473 
L 131.339484 235.880293 
L 132.252289 236.472165 
L 132.556558 236.699096 
L 132.860826 236.712989 
L 134.077901 237.41138 
L 134.686438 238.02826 
L 135.294975 238.078278 
L 135.599243 238.546032 
L 135.903512 238.547885 
L 137.729123 239.483394 
L 138.946197 240.009503 
L 139.250466 240.358698 
L 140.163272 240.80237 
L 140.46754 240.632867 
L 140.771809 240.798665 
L 141.380346 241.449817 
L 142.293152 241.603574 
L 142.901689 242.054656 
L 143.205957 242.210266 
L 143.510226 242.491845 
L 144.118763 242.694693 
L 144.7273 242.830852 
L 145.031569 243.107799 
L 145.335837 243.040183 
L 145.640106 243.572776 
L 146.248643 243.479225 
L 147.161448 244.27765 
L 148.378523 244.755593 
L 148.682791 244.981597 
L 148.98706 245.03532 
L 149.291328 245.233537 
L 149.595597 245.176109 
L 149.899865 245.448426 
L 150.204134 245.419712 
L 150.812671 245.959714 
L 151.11694 245.8004 
L 151.421208 245.926369 
L 151.725477 246.315393 
L 152.334014 246.376526 
L 152.638282 246.835944 
L 152.942551 246.706269 
L 153.551088 247.043423 
L 153.855357 247.371315 
L 154.159625 247.309256 
L 155.680968 248.29571 
L 155.985236 248.115091 
L 156.289505 248.317013 
L 156.593774 248.322571 
L 156.898042 248.680102 
L 157.202311 248.502263 
L 158.115116 248.958902 
L 158.419385 249.133037 
L 158.723653 249.136742 
L 159.027922 237.536423 
L 159.332191 241.445186 
L 159.940728 245.777244 
L 160.549265 248.156772 
L 161.46207 250.84011 
L 161.766339 251.21524 
L 162.374876 252.23967 
L 163.896219 254.162559 
L 164.200487 254.262593 
L 164.504756 254.511754 
L 164.809024 255.11011 
L 165.113293 254.960058 
L 165.72183 255.655669 
L 166.026099 252.174832 
L 166.330367 245.591994 
L 166.938904 250.395512 
L 167.547441 252.655555 
L 167.85171 253.772609 
L 168.155979 254.344103 
L 168.460247 255.187914 
L 169.373053 256.528194 
L 169.677321 256.598589 
L 169.98159 257.186756 
L 170.590127 257.799005 
L 170.894396 258.334376 
L 171.807201 259.154104 
L 172.11147 259.171703 
L 172.415738 259.302304 
L 173.024275 259.927521 
L 173.328544 260.212805 
L 173.632812 260.203542 
L 176.066961 261.071436 
L 176.371229 261.43082 
L 177.284035 261.456755 
L 177.892572 261.959707 
L 178.196841 262.186638 
L 180.630989 262.784067 
L 180.935258 263.010071 
L 181.848063 263.229592 
L 182.4566 263.317585 
L 183.065138 263.423177 
L 183.369406 263.685305 
L 183.673675 263.676043 
L 183.977943 263.79275 
L 184.282212 263.714019 
L 184.890749 264.30867 
L 185.195017 264.203077 
L 185.499286 263.485236 
L 186.107823 263.884448 
L 186.412092 264.339236 
L 186.71636 264.233644 
L 187.020629 255.109183 
L 187.324897 257.972213 
L 188.237703 261.811507 
L 188.84624 263.234223 
L 189.454777 264.08637 
L 189.759046 264.291997 
L 190.063314 264.766236 
L 190.671851 265.159891 
L 190.97612 265.33773 
L 191.888926 266.195435 
L 192.193194 266.112073 
L 192.801731 266.546483 
L 193.106 266.863259 
L 193.410268 266.75211 
L 194.018805 267.182814 
L 194.323074 267.581101 
L 194.931611 267.492181 
L 195.23588 267.496812 
L 196.148685 267.903435 
L 196.452954 267.975682 
L 196.757222 268.204465 
L 197.061491 268.14889 
L 197.36576 268.477708 
L 197.974297 268.411944 
L 198.278565 268.661105 
L 198.887102 268.688892 
L 199.191371 268.808378 
L 200.104177 268.842649 
L 200.712714 269.177024 
L 201.625519 269.37802 
L 201.929788 269.351159 
L 202.538325 269.725363 
L 202.842594 269.702207 
L 203.146862 269.91617 
L 203.755399 269.836512 
L 204.059668 269.89394 
L 204.668205 269.830955 
L 204.972473 269.915243 
L 205.276742 270.119018 
L 205.58101 270.06159 
L 205.885279 270.1431 
L 206.189548 270.361695 
L 206.798085 270.206085 
L 207.102353 270.505263 
L 208.927965 270.379293 
L 209.232233 270.689586 
L 209.84077 270.596035 
L 210.145039 270.613634 
L 210.753576 270.885024 
L 211.057844 270.841491 
L 211.97065 271.059159 
L 212.274919 271.027666 
L 212.883456 271.36482 
L 214.10053 271.398165 
L 214.404799 271.639916 
L 214.709067 271.524135 
L 215.013336 271.731614 
L 215.317604 271.560258 
L 216.534678 271.601939 
L 216.838947 271.802935 
L 217.143215 271.647326 
L 217.447484 262.370961 
L 218.056021 266.340856 
L 218.36029 267.81081 
L 218.968827 269.257608 
L 219.273095 265.543357 
L 219.881632 268.11184 
L 220.49017 269.641074 
L 220.794438 270.238504 
L 221.098707 266.1695 
L 221.402975 266.118557 
L 222.011512 268.712048 
L 223.228587 271.189759 
L 223.532855 271.458371 
L 223.837124 271.517651 
L 224.141392 272.045612 
L 225.054198 272.671755 
L 225.358466 272.694911 
L 226.271272 273.36644 
L 226.575541 273.761948 
L 227.184078 273.828637 
L 227.488346 273.772136 
L 227.792615 274.112069 
L 228.401152 274.254711 
L 228.70542 274.533512 
L 229.313958 274.464969 
L 229.618226 274.728023 
L 230.226763 274.783598 
L 230.8353 274.954028 
L 231.748106 275.511628 
L 232.356643 275.448644 
L 232.660912 275.544973 
L 232.96518 275.766346 
L 233.269449 275.519965 
L 233.877986 275.767273 
L 234.182254 275.588507 
L 234.486523 268.47956 
L 234.790792 270.622896 
L 235.399329 272.685649 
L 236.007866 273.844384 
L 236.312134 274.271384 
L 236.616403 274.967921 
L 237.22494 275.176327 
L 237.529208 275.574613 
L 237.833477 271.096208 
L 238.442014 273.522976 
L 239.050551 274.676154 
L 239.35482 275.167065 
L 239.659088 275.204114 
L 240.267625 276.039589 
L 241.4847 276.58978 
L 241.788968 276.917672 
L 242.397505 277.050125 
L 243.006042 277.185357 
L 244.527385 277.779081 
L 245.135922 277.669784 
L 245.440191 277.902272 
L 245.744459 277.81891 
L 246.048728 278.183851 
L 246.352997 278.057882 
L 247.570071 278.355207 
L 247.874339 278.11994 
L 248.178608 278.187556 
L 248.482876 278.491365 
L 248.787145 278.447832 
L 249.699951 278.690509 
L 250.308488 278.989686 
L 250.612756 278.718296 
L 250.917025 272.431857 
L 251.221293 274.186169 
L 251.82983 276.080344 
L 252.134099 276.423982 
L 252.438368 262.403379 
L 253.046905 268.96584 
L 253.351173 271.328697 
L 253.95971 273.799924 
L 254.263979 263.588976 
L 254.872516 269.968966 
L 255.176785 272.000226 
L 255.785322 274.115774 
L 256.08959 275.231902 
L 256.698127 276.285045 
L 257.306664 277.056609 
L 257.610933 277.408583 
L 257.915201 277.965257 
L 258.21947 277.953216 
L 258.523739 278.352428 
L 258.523739 278.352428 
" style="fill:none;stroke:#ff7f0e;stroke-linecap:square;stroke-width:1.5;"/>
   </g>
   <g id="patch_3">
    <path d="M 57.6 307.584 
L 57.6 41.472 
" style="fill:none;stroke:#000000;stroke-linecap:square;stroke-linejoin:miter;stroke-width:0.8;"/>
   </g>
   <g id="patch_4">
    <path d="M 414.72 307.584 
L 414.72 41.472 
" style="fill:none;stroke:#000000;stroke-linecap:square;stroke-linejoin:miter;stroke-width:0.8;"/>
   </g>
   <g id="patch_5">
    <path d="M 57.6 307.584 
L 414.72 307.584 
" style="fill:none;stroke:#000000;stroke-linecap:square;stroke-linejoin:miter;stroke-width:0.8;"/>
   </g>
   <g id="patch_6">
    <path d="M 57.6 41.472 
L 414.72 41.472 
" style="fill:none;stroke:#000000;stroke-linecap:square;stroke-linejoin:miter;stroke-width:0.8;"/>
   </g>
   <g id="text_15">
    <!-- Average fitness over 30 seconds for29cities -->
    <defs>
     <path d="M 48.78125 52.59375 
L 48.78125 44.1875 
Q 44.96875 46.296875 41.140625 47.34375 
Q 37.3125 48.390625 33.40625 48.390625 
Q 24.65625 48.390625 19.8125 42.84375 
Q 14.984375 37.3125 14.984375 27.296875 
Q 14.984375 17.28125 19.8125 11.734375 
Q 24.65625 6.203125 33.40625 6.203125 
Q 37.3125 6.203125 41.140625 7.25 
Q 44.96875 8.296875 48.78125 10.40625 
L 48.78125 2.09375 
Q 45.015625 0.34375 40.984375 -0.53125 
Q 36.96875 -1.421875 32.421875 -1.421875 
Q 20.0625 -1.421875 12.78125 6.34375 
Q 5.515625 14.109375 5.515625 27.296875 
Q 5.515625 40.671875 12.859375 48.328125 
Q 20.21875 56 33.015625 56 
Q 37.15625 56 41.109375 55.140625 
Q 45.0625 54.296875 48.78125 52.59375 
z
" id="DejaVuSans-63"/>
     <path d="M 45.40625 46.390625 
L 45.40625 75.984375 
L 54.390625 75.984375 
L 54.390625 0 
L 45.40625 0 
L 45.40625 8.203125 
Q 42.578125 3.328125 38.25 0.953125 
Q 33.9375 -1.421875 27.875 -1.421875 
Q 17.96875 -1.421875 11.734375 6.484375 
Q 5.515625 14.40625 5.515625 27.296875 
Q 5.515625 40.1875 11.734375 48.09375 
Q 17.96875 56 27.875 56 
Q 33.9375 56 38.25 53.625 
Q 42.578125 51.265625 45.40625 46.390625 
z
M 14.796875 27.296875 
Q 14.796875 17.390625 18.875 11.75 
Q 22.953125 6.109375 30.078125 6.109375 
Q 37.203125 6.109375 41.296875 11.75 
Q 45.40625 17.390625 45.40625 27.296875 
Q 45.40625 37.203125 41.296875 42.84375 
Q 37.203125 48.484375 30.078125 48.484375 
Q 22.953125 48.484375 18.875 42.84375 
Q 14.796875 37.203125 14.796875 27.296875 
z
" id="DejaVuSans-64"/>
     <path d="M 10.984375 1.515625 
L 10.984375 10.5 
Q 14.703125 8.734375 18.5 7.8125 
Q 22.3125 6.890625 25.984375 6.890625 
Q 35.75 6.890625 40.890625 13.453125 
Q 46.046875 20.015625 46.78125 33.40625 
Q 43.953125 29.203125 39.59375 26.953125 
Q 35.25 24.703125 29.984375 24.703125 
Q 19.046875 24.703125 12.671875 31.3125 
Q 6.296875 37.9375 6.296875 49.421875 
Q 6.296875 60.640625 12.9375 67.421875 
Q 19.578125 74.21875 30.609375 74.21875 
Q 43.265625 74.21875 49.921875 64.515625 
Q 56.59375 54.828125 56.59375 36.375 
Q 56.59375 19.140625 48.40625 8.859375 
Q 40.234375 -1.421875 26.421875 -1.421875 
Q 22.703125 -1.421875 18.890625 -0.6875 
Q 15.09375 0.046875 10.984375 1.515625 
z
M 30.609375 32.421875 
Q 37.25 32.421875 41.125 36.953125 
Q 45.015625 41.5 45.015625 49.421875 
Q 45.015625 57.28125 41.125 61.84375 
Q 37.25 66.40625 30.609375 66.40625 
Q 23.96875 66.40625 20.09375 61.84375 
Q 16.21875 57.28125 16.21875 49.421875 
Q 16.21875 41.5 20.09375 36.953125 
Q 23.96875 32.421875 30.609375 32.421875 
z
" id="DejaVuSans-39"/>
    </defs>
    <g transform="translate(104.533125 35.472)scale(0.12 -0.12)">
     <use xlink:href="#DejaVuSans-41"/>
     <use x="68.330078" xlink:href="#DejaVuSans-76"/>
     <use x="127.509766" xlink:href="#DejaVuSans-65"/>
     <use x="189.033203" xlink:href="#DejaVuSans-72"/>
     <use x="230.146484" xlink:href="#DejaVuSans-61"/>
     <use x="291.425781" xlink:href="#DejaVuSans-67"/>
     <use x="354.902344" xlink:href="#DejaVuSans-65"/>
     <use x="416.425781" xlink:href="#DejaVuSans-20"/>
     <use x="448.212891" xlink:href="#DejaVuSans-66"/>
     <use x="483.417969" xlink:href="#DejaVuSans-69"/>
     <use x="511.201172" xlink:href="#DejaVuSans-74"/>
     <use x="550.410156" xlink:href="#DejaVuSans-6e"/>
     <use x="613.789062" xlink:href="#DejaVuSans-65"/>
     <use x="675.3125" xlink:href="#DejaVuSans-73"/>
     <use x="727.412109" xlink:href="#DejaVuSans-73"/>
     <use x="779.511719" xlink:href="#DejaVuSans-20"/>
     <use x="811.298828" xlink:href="#DejaVuSans-6f"/>
     <use x="872.480469" xlink:href="#DejaVuSans-76"/>
     <use x="931.660156" xlink:href="#DejaVuSans-65"/>
     <use x="993.183594" xlink:href="#DejaVuSans-72"/>
     <use x="1034.296875" xlink:href="#DejaVuSans-20"/>
     <use x="1066.083984" xlink:href="#DejaVuSans-33"/>
     <use x="1129.707031" xlink:href="#DejaVuSans-30"/>
     <use x="1193.330078" xlink:href="#DejaVuSans-20"/>
     <use x="1225.117188" xlink:href="#DejaVuSans-73"/>
     <use x="1277.216797" xlink:href="#DejaVuSans-65"/>
     <use x="1338.740234" xlink:href="#DejaVuSans-63"/>
     <use x="1393.720703" xlink:href="#DejaVuSans-6f"/>
     <use x="1454.902344" xlink:href="#DejaVuSans-6e"/>
     <use x="1518.28125" xlink:href="#DejaVuSans-64"/>
     <use x="1581.757812" xlink:href="#DejaVuSans-73"/>
     <use x="1633.857422" xlink:href="#DejaVuSans-20"/>
     <use x="1665.644531" xlink:href="#DejaVuSans-66"/>
     <use x="1700.849609" xlink:href="#DejaVuSans-6f"/>
     <use x="1762.03125" xlink:href="#DejaVuSans-72"/>
     <use x="1803.144531" xlink:href="#DejaVuSans-32"/>
     <use x="1866.767578" xlink:href="#DejaVuSans-39"/>
     <use x="1930.390625" xlink:href="#DejaVuSans-63"/>
     <use x="1985.371094" xlink:href="#DejaVuSans-69"/>
     <use x="2013.154297" xlink:href="#DejaVuSans-74"/>
     <use x="2052.363281" xlink:href="#DejaVuSans-69"/>
     <use x="2080.146484" xlink:href="#DejaVuSans-65"/>
     <use x="2141.669922" xlink:href="#DejaVuSans-73"/>
    </g>
   </g>
   <g id="legend_1">
    <g id="patch_7">
     <path d="M 105.75125 78.82825 
L 407.72 78.82825 
Q 409.72 78.82825 409.72 76.82825 
L 409.72 48.472 
Q 409.72 46.472 407.72 46.472 
L 105.75125 46.472 
Q 103.75125 46.472 103.75125 48.472 
L 103.75125 76.82825 
Q 103.75125 78.82825 105.75125 78.82825 
z
" style="fill:#ffffff;opacity:0.8;stroke:#cccccc;stroke-linejoin:miter;"/>
    </g>
    <g id="patch_8">
     <path d="M 107.75125 58.070437 
L 127.75125 58.070437 
L 127.75125 51.070437 
L 107.75125 51.070437 
z
" style="fill:#87ceeb;stroke:#87ceeb;stroke-linejoin:miter;"/>
    </g>
    <g id="text_16">
     <!-- Parallel min, 2101.22 Last Generation number 1069.0 -->
     <defs>
      <path d="M 19.671875 64.796875 
L 19.671875 37.40625 
L 32.078125 37.40625 
Q 38.96875 37.40625 42.71875 40.96875 
Q 46.484375 44.53125 46.484375 51.125 
Q 46.484375 57.671875 42.71875 61.234375 
Q 38.96875 64.796875 32.078125 64.796875 
z
M 9.8125 72.90625 
L 32.078125 72.90625 
Q 44.34375 72.90625 50.609375 67.359375 
Q 56.890625 61.8125 56.890625 51.125 
Q 56.890625 40.328125 50.609375 34.8125 
Q 44.34375 29.296875 32.078125 29.296875 
L 19.671875 29.296875 
L 19.671875 0 
L 9.8125 0 
z
" id="DejaVuSans-50"/>
      <path d="M 9.421875 75.984375 
L 18.40625 75.984375 
L 18.40625 0 
L 9.421875 0 
z
" id="DejaVuSans-6c"/>
      <path d="M 11.71875 12.40625 
L 22.015625 12.40625 
L 22.015625 4 
L 14.015625 -11.625 
L 7.71875 -11.625 
L 11.71875 4 
z
" id="DejaVuSans-2c"/>
      <path d="M 10.6875 12.40625 
L 21 12.40625 
L 21 0 
L 10.6875 0 
z
" id="DejaVuSans-2e"/>
      <path d="M 9.8125 72.90625 
L 19.671875 72.90625 
L 19.671875 8.296875 
L 55.171875 8.296875 
L 55.171875 0 
L 9.8125 0 
z
" id="DejaVuSans-4c"/>
     </defs>
     <g transform="translate(135.75125 58.070437)scale(0.1 -0.1)">
      <use xlink:href="#DejaVuSans-50"/>
      <use x="60.240234" xlink:href="#DejaVuSans-61"/>
      <use x="121.519531" xlink:href="#DejaVuSans-72"/>
      <use x="162.632812" xlink:href="#DejaVuSans-61"/>
      <use x="223.912109" xlink:href="#DejaVuSans-6c"/>
      <use x="251.695312" xlink:href="#DejaVuSans-6c"/>
      <use x="279.478516" xlink:href="#DejaVuSans-65"/>
      <use x="341.001953" xlink:href="#DejaVuSans-6c"/>
      <use x="368.785156" xlink:href="#DejaVuSans-20"/>
      <use x="400.572266" xlink:href="#DejaVuSans-6d"/>
      <use x="497.984375" xlink:href="#DejaVuSans-69"/>
      <use x="525.767578" xlink:href="#DejaVuSans-6e"/>
      <use x="589.146484" xlink:href="#DejaVuSans-2c"/>
      <use x="620.933594" xlink:href="#DejaVuSans-20"/>
      <use x="652.720703" xlink:href="#DejaVuSans-32"/>
      <use x="716.34375" xlink:href="#DejaVuSans-31"/>
      <use x="779.966797" xlink:href="#DejaVuSans-30"/>
      <use x="843.589844" xlink:href="#DejaVuSans-31"/>
      <use x="907.212891" xlink:href="#DejaVuSans-2e"/>
      <use x="939" xlink:href="#DejaVuSans-32"/>
      <use x="1002.623047" xlink:href="#DejaVuSans-32"/>
      <use x="1066.246094" xlink:href="#DejaVuSans-20"/>
      <use x="1098.033203" xlink:href="#DejaVuSans-4c"/>
      <use x="1153.746094" xlink:href="#DejaVuSans-61"/>
      <use x="1215.025391" xlink:href="#DejaVuSans-73"/>
      <use x="1267.125" xlink:href="#DejaVuSans-74"/>
      <use x="1306.333984" xlink:href="#DejaVuSans-20"/>
      <use x="1338.121094" xlink:href="#DejaVuSans-47"/>
      <use x="1415.611328" xlink:href="#DejaVuSans-65"/>
      <use x="1477.134766" xlink:href="#DejaVuSans-6e"/>
      <use x="1540.513672" xlink:href="#DejaVuSans-65"/>
      <use x="1602.037109" xlink:href="#DejaVuSans-72"/>
      <use x="1643.150391" xlink:href="#DejaVuSans-61"/>
      <use x="1704.429688" xlink:href="#DejaVuSans-74"/>
      <use x="1743.638672" xlink:href="#DejaVuSans-69"/>
      <use x="1771.421875" xlink:href="#DejaVuSans-6f"/>
      <use x="1832.603516" xlink:href="#DejaVuSans-6e"/>
      <use x="1895.982422" xlink:href="#DejaVuSans-20"/>
      <use x="1927.769531" xlink:href="#DejaVuSans-6e"/>
      <use x="1991.148438" xlink:href="#DejaVuSans-75"/>
      <use x="2054.527344" xlink:href="#DejaVuSans-6d"/>
      <use x="2151.939453" xlink:href="#DejaVuSans-62"/>
      <use x="2215.416016" xlink:href="#DejaVuSans-65"/>
      <use x="2276.939453" xlink:href="#DejaVuSans-72"/>
      <use x="2318.052734" xlink:href="#DejaVuSans-20"/>
      <use x="2349.839844" xlink:href="#DejaVuSans-31"/>
      <use x="2413.462891" xlink:href="#DejaVuSans-30"/>
      <use x="2477.085938" xlink:href="#DejaVuSans-36"/>
      <use x="2540.708984" xlink:href="#DejaVuSans-39"/>
      <use x="2604.332031" xlink:href="#DejaVuSans-2e"/>
      <use x="2636.119141" xlink:href="#DejaVuSans-30"/>
     </g>
    </g>
    <g id="patch_9">
     <path d="M 107.75125 72.748562 
L 127.75125 72.748562 
L 127.75125 65.748562 
L 107.75125 65.748562 
z
" style="fill:#ffa500;stroke:#ffa500;stroke-linejoin:miter;"/>
    </g>
    <g id="text_17">
     <!-- Serial min, 2279.34 Last Generation number 609.0 -->
     <defs>
      <path d="M 53.515625 70.515625 
L 53.515625 60.890625 
Q 47.90625 63.578125 42.921875 64.890625 
Q 37.9375 66.21875 33.296875 66.21875 
Q 25.25 66.21875 20.875 63.09375 
Q 16.5 59.96875 16.5 54.203125 
Q 16.5 49.359375 19.40625 46.890625 
Q 22.3125 44.4375 30.421875 42.921875 
L 36.375 41.703125 
Q 47.40625 39.59375 52.65625 34.296875 
Q 57.90625 29 57.90625 20.125 
Q 57.90625 9.515625 50.796875 4.046875 
Q 43.703125 -1.421875 29.984375 -1.421875 
Q 24.8125 -1.421875 18.96875 -0.25 
Q 13.140625 0.921875 6.890625 3.21875 
L 6.890625 13.375 
Q 12.890625 10.015625 18.65625 8.296875 
Q 24.421875 6.59375 29.984375 6.59375 
Q 38.421875 6.59375 43.015625 9.90625 
Q 47.609375 13.234375 47.609375 19.390625 
Q 47.609375 24.75 44.3125 27.78125 
Q 41.015625 30.8125 33.5 32.328125 
L 27.484375 33.5 
Q 16.453125 35.6875 11.515625 40.375 
Q 6.59375 45.0625 6.59375 53.421875 
Q 6.59375 63.09375 13.40625 68.65625 
Q 20.21875 74.21875 32.171875 74.21875 
Q 37.3125 74.21875 42.625 73.28125 
Q 47.953125 72.359375 53.515625 70.515625 
z
" id="DejaVuSans-53"/>
      <path d="M 8.203125 72.90625 
L 55.078125 72.90625 
L 55.078125 68.703125 
L 28.609375 0 
L 18.3125 0 
L 43.21875 64.59375 
L 8.203125 64.59375 
z
" id="DejaVuSans-37"/>
     </defs>
     <g transform="translate(135.75125 72.748562)scale(0.1 -0.1)">
      <use xlink:href="#DejaVuSans-53"/>
      <use x="63.476562" xlink:href="#DejaVuSans-65"/>
      <use x="125" xlink:href="#DejaVuSans-72"/>
      <use x="166.113281" xlink:href="#DejaVuSans-69"/>
      <use x="193.896484" xlink:href="#DejaVuSans-61"/>
      <use x="255.175781" xlink:href="#DejaVuSans-6c"/>
      <use x="282.958984" xlink:href="#DejaVuSans-20"/>
      <use x="314.746094" xlink:href="#DejaVuSans-6d"/>
      <use x="412.158203" xlink:href="#DejaVuSans-69"/>
      <use x="439.941406" xlink:href="#DejaVuSans-6e"/>
      <use x="503.320312" xlink:href="#DejaVuSans-2c"/>
      <use x="535.107422" xlink:href="#DejaVuSans-20"/>
      <use x="566.894531" xlink:href="#DejaVuSans-32"/>
      <use x="630.517578" xlink:href="#DejaVuSans-32"/>
      <use x="694.140625" xlink:href="#DejaVuSans-37"/>
      <use x="757.763672" xlink:href="#DejaVuSans-39"/>
      <use x="821.386719" xlink:href="#DejaVuSans-2e"/>
      <use x="853.173828" xlink:href="#DejaVuSans-33"/>
      <use x="916.796875" xlink:href="#DejaVuSans-34"/>
      <use x="980.419922" xlink:href="#DejaVuSans-20"/>
      <use x="1012.207031" xlink:href="#DejaVuSans-4c"/>
      <use x="1067.919922" xlink:href="#DejaVuSans-61"/>
      <use x="1129.199219" xlink:href="#DejaVuSans-73"/>
      <use x="1181.298828" xlink:href="#DejaVuSans-74"/>
      <use x="1220.507812" xlink:href="#DejaVuSans-20"/>
      <use x="1252.294922" xlink:href="#DejaVuSans-47"/>
      <use x="1329.785156" xlink:href="#DejaVuSans-65"/>
      <use x="1391.308594" xlink:href="#DejaVuSans-6e"/>
      <use x="1454.6875" xlink:href="#DejaVuSans-65"/>
      <use x="1516.210938" xlink:href="#DejaVuSans-72"/>
      <use x="1557.324219" xlink:href="#DejaVuSans-61"/>
      <use x="1618.603516" xlink:href="#DejaVuSans-74"/>
      <use x="1657.8125" xlink:href="#DejaVuSans-69"/>
      <use x="1685.595703" xlink:href="#DejaVuSans-6f"/>
      <use x="1746.777344" xlink:href="#DejaVuSans-6e"/>
      <use x="1810.15625" xlink:href="#DejaVuSans-20"/>
      <use x="1841.943359" xlink:href="#DejaVuSans-6e"/>
      <use x="1905.322266" xlink:href="#DejaVuSans-75"/>
      <use x="1968.701172" xlink:href="#DejaVuSans-6d"/>
      <use x="2066.113281" xlink:href="#DejaVuSans-62"/>
      <use x="2129.589844" xlink:href="#DejaVuSans-65"/>
      <use x="2191.113281" xlink:href="#DejaVuSans-72"/>
      <use x="2232.226562" xlink:href="#DejaVuSans-20"/>
      <use x="2264.013672" xlink:href="#DejaVuSans-36"/>
      <use x="2327.636719" xlink:href="#DejaVuSans-30"/>
      <use x="2391.259766" xlink:href="#DejaVuSans-39"/>
      <use x="2454.882812" xlink:href="#DejaVuSans-2e"/>
      <use x="2486.669922" xlink:href="#DejaVuSans-30"/>
     </g>
    </g>
   </g>
  </g>
 </g>
 <defs>
  <clipPath id="p1ee7cc7899">
   <rect height="266.112" width="357.12" x="57.6" y="41.472"/>
  </clipPath>
 </defs>
</svg>
