<?xml version="1.0" encoding="utf-8" standalone="no"?>
<!DOCTYPE svg PUBLIC "-//W3C//DTD SVG 1.1//EN"
  "http://www.w3.org/Graphics/SVG/1.1/DTD/svg11.dtd">
<!-- Created with matplotlib (http://matplotlib.org/) -->
<svg height="345.6pt" version="1.1" viewBox="0 0 460.8 345.6" width="460.8pt" xmlns="http://www.w3.org/2000/svg" xmlns:xlink="http://www.w3.org/1999/xlink">
 <defs>
  <style type="text/css">
*{stroke-linecap:butt;stroke-linejoin:round;}
  </style>
 </defs>
 <g id="figure_1">
  <g id="patch_1">
   <path d="M 0 345.6 
L 460.8 345.6 
L 460.8 0 
L 0 0 
z
" style="fill:#ffffff;"/>
  </g>
  <g id="axes_1">
   <g id="patch_2">
    <path d="M 57.6 307.584 
L 414.72 307.584 
L 414.72 41.472 
L 57.6 41.472 
z
" style="fill:#ffffff;"/>
   </g>
   <g id="matplotlib.axis_1">
    <g id="xtick_1">
     <g id="line2d_1">
      <defs>
       <path d="M 0 0 
L 0 3.5 
" id="m3dd8f686de" style="stroke:#000000;stroke-width:0.8;"/>
      </defs>
      <g>
       <use style="stroke:#000000;stroke-width:0.8;" x="73.656763" xlink:href="#m3dd8f686de" y="307.584"/>
      </g>
     </g>
     <g id="text_1">
      <!-- 0 -->
      <defs>
       <path d="M 31.78125 66.40625 
Q 24.171875 66.40625 20.328125 58.90625 
Q 16.5 51.421875 16.5 36.375 
Q 16.5 21.390625 20.328125 13.890625 
Q 24.171875 6.390625 31.78125 6.390625 
Q 39.453125 6.390625 43.28125 13.890625 
Q 47.125 21.390625 47.125 36.375 
Q 47.125 51.421875 43.28125 58.90625 
Q 39.453125 66.40625 31.78125 66.40625 
z
M 31.78125 74.21875 
Q 44.046875 74.21875 50.515625 64.515625 
Q 56.984375 54.828125 56.984375 36.375 
Q 56.984375 17.96875 50.515625 8.265625 
Q 44.046875 -1.421875 31.78125 -1.421875 
Q 19.53125 -1.421875 13.0625 8.265625 
Q 6.59375 17.96875 6.59375 36.375 
Q 6.59375 54.828125 13.0625 64.515625 
Q 19.53125 74.21875 31.78125 74.21875 
z
" id="DejaVuSans-30"/>
      </defs>
      <g transform="translate(70.475513 322.182437)scale(0.1 -0.1)">
       <use xlink:href="#DejaVuSans-30"/>
      </g>
     </g>
    </g>
    <g id="xtick_2">
     <g id="line2d_2">
      <g>
       <use style="stroke:#000000;stroke-width:0.8;" x="117.647894" xlink:href="#m3dd8f686de" y="307.584"/>
      </g>
     </g>
     <g id="text_2">
      <!-- 250 -->
      <defs>
       <path d="M 19.1875 8.296875 
L 53.609375 8.296875 
L 53.609375 0 
L 7.328125 0 
L 7.328125 8.296875 
Q 12.9375 14.109375 22.625 23.890625 
Q 32.328125 33.6875 34.8125 36.53125 
Q 39.546875 41.84375 41.421875 45.53125 
Q 43.3125 49.21875 43.3125 52.78125 
Q 43.3125 58.59375 39.234375 62.25 
Q 35.15625 65.921875 28.609375 65.921875 
Q 23.96875 65.921875 18.8125 64.3125 
Q 13.671875 62.703125 7.8125 59.421875 
L 7.8125 69.390625 
Q 13.765625 71.78125 18.9375 73 
Q 24.125 74.21875 28.421875 74.21875 
Q 39.75 74.21875 46.484375 68.546875 
Q 53.21875 62.890625 53.21875 53.421875 
Q 53.21875 48.921875 51.53125 44.890625 
Q 49.859375 40.875 45.40625 35.40625 
Q 44.1875 33.984375 37.640625 27.21875 
Q 31.109375 20.453125 19.1875 8.296875 
z
" id="DejaVuSans-32"/>
       <path d="M 10.796875 72.90625 
L 49.515625 72.90625 
L 49.515625 64.59375 
L 19.828125 64.59375 
L 19.828125 46.734375 
Q 21.96875 47.46875 24.109375 47.828125 
Q 26.265625 48.1875 28.421875 48.1875 
Q 40.625 48.1875 47.75 41.5 
Q 54.890625 34.8125 54.890625 23.390625 
Q 54.890625 11.625 47.5625 5.09375 
Q 40.234375 -1.421875 26.90625 -1.421875 
Q 22.3125 -1.421875 17.546875 -0.640625 
Q 12.796875 0.140625 7.71875 1.703125 
L 7.71875 11.625 
Q 12.109375 9.234375 16.796875 8.0625 
Q 21.484375 6.890625 26.703125 6.890625 
Q 35.15625 6.890625 40.078125 11.328125 
Q 45.015625 15.765625 45.015625 23.390625 
Q 45.015625 31 40.078125 35.4375 
Q 35.15625 39.890625 26.703125 39.890625 
Q 22.75 39.890625 18.8125 39.015625 
Q 14.890625 38.140625 10.796875 36.28125 
z
" id="DejaVuSans-35"/>
      </defs>
      <g transform="translate(108.104144 322.182437)scale(0.1 -0.1)">
       <use xlink:href="#DejaVuSans-32"/>
       <use x="63.623047" xlink:href="#DejaVuSans-35"/>
       <use x="127.246094" xlink:href="#DejaVuSans-30"/>
      </g>
     </g>
    </g>
    <g id="xtick_3">
     <g id="line2d_3">
      <g>
       <use style="stroke:#000000;stroke-width:0.8;" x="161.639024" xlink:href="#m3dd8f686de" y="307.584"/>
      </g>
     </g>
     <g id="text_3">
      <!-- 500 -->
      <g transform="translate(152.095274 322.182437)scale(0.1 -0.1)">
       <use xlink:href="#DejaVuSans-35"/>
       <use x="63.623047" xlink:href="#DejaVuSans-30"/>
       <use x="127.246094" xlink:href="#DejaVuSans-30"/>
      </g>
     </g>
    </g>
    <g id="xtick_4">
     <g id="line2d_4">
      <g>
       <use style="stroke:#000000;stroke-width:0.8;" x="205.630155" xlink:href="#m3dd8f686de" y="307.584"/>
      </g>
     </g>
     <g id="text_4">
      <!-- 750 -->
      <defs>
       <path d="M 8.203125 72.90625 
L 55.078125 72.90625 
L 55.078125 68.703125 
L 28.609375 0 
L 18.3125 0 
L 43.21875 64.59375 
L 8.203125 64.59375 
z
" id="DejaVuSans-37"/>
      </defs>
      <g transform="translate(196.086405 322.182437)scale(0.1 -0.1)">
       <use xlink:href="#DejaVuSans-37"/>
       <use x="63.623047" xlink:href="#DejaVuSans-35"/>
       <use x="127.246094" xlink:href="#DejaVuSans-30"/>
      </g>
     </g>
    </g>
    <g id="xtick_5">
     <g id="line2d_5">
      <g>
       <use style="stroke:#000000;stroke-width:0.8;" x="249.621286" xlink:href="#m3dd8f686de" y="307.584"/>
      </g>
     </g>
     <g id="text_5">
      <!-- 1000 -->
      <defs>
       <path d="M 12.40625 8.296875 
L 28.515625 8.296875 
L 28.515625 63.921875 
L 10.984375 60.40625 
L 10.984375 69.390625 
L 28.421875 72.90625 
L 38.28125 72.90625 
L 38.28125 8.296875 
L 54.390625 8.296875 
L 54.390625 0 
L 12.40625 0 
z
" id="DejaVuSans-31"/>
      </defs>
      <g transform="translate(236.896286 322.182437)scale(0.1 -0.1)">
       <use xlink:href="#DejaVuSans-31"/>
       <use x="63.623047" xlink:href="#DejaVuSans-30"/>
       <use x="127.246094" xlink:href="#DejaVuSans-30"/>
       <use x="190.869141" xlink:href="#DejaVuSans-30"/>
      </g>
     </g>
    </g>
    <g id="xtick_6">
     <g id="line2d_6">
      <g>
       <use style="stroke:#000000;stroke-width:0.8;" x="293.612417" xlink:href="#m3dd8f686de" y="307.584"/>
      </g>
     </g>
     <g id="text_6">
      <!-- 1250 -->
      <g transform="translate(280.887417 322.182437)scale(0.1 -0.1)">
       <use xlink:href="#DejaVuSans-31"/>
       <use x="63.623047" xlink:href="#DejaVuSans-32"/>
       <use x="127.246094" xlink:href="#DejaVuSans-35"/>
       <use x="190.869141" xlink:href="#DejaVuSans-30"/>
      </g>
     </g>
    </g>
    <g id="xtick_7">
     <g id="line2d_7">
      <g>
       <use style="stroke:#000000;stroke-width:0.8;" x="337.603548" xlink:href="#m3dd8f686de" y="307.584"/>
      </g>
     </g>
     <g id="text_7">
      <!-- 1500 -->
      <g transform="translate(324.878548 322.182437)scale(0.1 -0.1)">
       <use xlink:href="#DejaVuSans-31"/>
       <use x="63.623047" xlink:href="#DejaVuSans-35"/>
       <use x="127.246094" xlink:href="#DejaVuSans-30"/>
       <use x="190.869141" xlink:href="#DejaVuSans-30"/>
      </g>
     </g>
    </g>
    <g id="xtick_8">
     <g id="line2d_8">
      <g>
       <use style="stroke:#000000;stroke-width:0.8;" x="381.594678" xlink:href="#m3dd8f686de" y="307.584"/>
      </g>
     </g>
     <g id="text_8">
      <!-- 1750 -->
      <g transform="translate(368.869678 322.182437)scale(0.1 -0.1)">
       <use xlink:href="#DejaVuSans-31"/>
       <use x="63.623047" xlink:href="#DejaVuSans-37"/>
       <use x="127.246094" xlink:href="#DejaVuSans-35"/>
       <use x="190.869141" xlink:href="#DejaVuSans-30"/>
      </g>
     </g>
    </g>
    <g id="text_9">
     <!-- Generation number -->
     <defs>
      <path d="M 59.515625 10.40625 
L 59.515625 29.984375 
L 43.40625 29.984375 
L 43.40625 38.09375 
L 69.28125 38.09375 
L 69.28125 6.78125 
Q 63.578125 2.734375 56.6875 0.65625 
Q 49.8125 -1.421875 42 -1.421875 
Q 24.90625 -1.421875 15.25 8.5625 
Q 5.609375 18.5625 5.609375 36.375 
Q 5.609375 54.25 15.25 64.234375 
Q 24.90625 74.21875 42 74.21875 
Q 49.125 74.21875 55.546875 72.453125 
Q 61.96875 70.703125 67.390625 67.28125 
L 67.390625 56.78125 
Q 61.921875 61.421875 55.765625 63.765625 
Q 49.609375 66.109375 42.828125 66.109375 
Q 29.4375 66.109375 22.71875 58.640625 
Q 16.015625 51.171875 16.015625 36.375 
Q 16.015625 21.625 22.71875 14.15625 
Q 29.4375 6.6875 42.828125 6.6875 
Q 48.046875 6.6875 52.140625 7.59375 
Q 56.25 8.5 59.515625 10.40625 
z
" id="DejaVuSans-47"/>
      <path d="M 56.203125 29.59375 
L 56.203125 25.203125 
L 14.890625 25.203125 
Q 15.484375 15.921875 20.484375 11.0625 
Q 25.484375 6.203125 34.421875 6.203125 
Q 39.59375 6.203125 44.453125 7.46875 
Q 49.3125 8.734375 54.109375 11.28125 
L 54.109375 2.78125 
Q 49.265625 0.734375 44.1875 -0.34375 
Q 39.109375 -1.421875 33.890625 -1.421875 
Q 20.796875 -1.421875 13.15625 6.1875 
Q 5.515625 13.8125 5.515625 26.8125 
Q 5.515625 40.234375 12.765625 48.109375 
Q 20.015625 56 32.328125 56 
Q 43.359375 56 49.78125 48.890625 
Q 56.203125 41.796875 56.203125 29.59375 
z
M 47.21875 32.234375 
Q 47.125 39.59375 43.09375 43.984375 
Q 39.0625 48.390625 32.421875 48.390625 
Q 24.90625 48.390625 20.390625 44.140625 
Q 15.875 39.890625 15.1875 32.171875 
z
" id="DejaVuSans-65"/>
      <path d="M 54.890625 33.015625 
L 54.890625 0 
L 45.90625 0 
L 45.90625 32.71875 
Q 45.90625 40.484375 42.875 44.328125 
Q 39.84375 48.1875 33.796875 48.1875 
Q 26.515625 48.1875 22.3125 43.546875 
Q 18.109375 38.921875 18.109375 30.90625 
L 18.109375 0 
L 9.078125 0 
L 9.078125 54.6875 
L 18.109375 54.6875 
L 18.109375 46.1875 
Q 21.34375 51.125 25.703125 53.5625 
Q 30.078125 56 35.796875 56 
Q 45.21875 56 50.046875 50.171875 
Q 54.890625 44.34375 54.890625 33.015625 
z
" id="DejaVuSans-6e"/>
      <path d="M 41.109375 46.296875 
Q 39.59375 47.171875 37.8125 47.578125 
Q 36.03125 48 33.890625 48 
Q 26.265625 48 22.1875 43.046875 
Q 18.109375 38.09375 18.109375 28.8125 
L 18.109375 0 
L 9.078125 0 
L 9.078125 54.6875 
L 18.109375 54.6875 
L 18.109375 46.1875 
Q 20.953125 51.171875 25.484375 53.578125 
Q 30.03125 56 36.53125 56 
Q 37.453125 56 38.578125 55.875 
Q 39.703125 55.765625 41.0625 55.515625 
z
" id="DejaVuSans-72"/>
      <path d="M 34.28125 27.484375 
Q 23.390625 27.484375 19.1875 25 
Q 14.984375 22.515625 14.984375 16.5 
Q 14.984375 11.71875 18.140625 8.90625 
Q 21.296875 6.109375 26.703125 6.109375 
Q 34.1875 6.109375 38.703125 11.40625 
Q 43.21875 16.703125 43.21875 25.484375 
L 43.21875 27.484375 
z
M 52.203125 31.203125 
L 52.203125 0 
L 43.21875 0 
L 43.21875 8.296875 
Q 40.140625 3.328125 35.546875 0.953125 
Q 30.953125 -1.421875 24.3125 -1.421875 
Q 15.921875 -1.421875 10.953125 3.296875 
Q 6 8.015625 6 15.921875 
Q 6 25.140625 12.171875 29.828125 
Q 18.359375 34.515625 30.609375 34.515625 
L 43.21875 34.515625 
L 43.21875 35.40625 
Q 43.21875 41.609375 39.140625 45 
Q 35.0625 48.390625 27.6875 48.390625 
Q 23 48.390625 18.546875 47.265625 
Q 14.109375 46.140625 10.015625 43.890625 
L 10.015625 52.203125 
Q 14.9375 54.109375 19.578125 55.046875 
Q 24.21875 56 28.609375 56 
Q 40.484375 56 46.34375 49.84375 
Q 52.203125 43.703125 52.203125 31.203125 
z
" id="DejaVuSans-61"/>
      <path d="M 18.3125 70.21875 
L 18.3125 54.6875 
L 36.8125 54.6875 
L 36.8125 47.703125 
L 18.3125 47.703125 
L 18.3125 18.015625 
Q 18.3125 11.328125 20.140625 9.421875 
Q 21.96875 7.515625 27.59375 7.515625 
L 36.8125 7.515625 
L 36.8125 0 
L 27.59375 0 
Q 17.1875 0 13.234375 3.875 
Q 9.28125 7.765625 9.28125 18.015625 
L 9.28125 47.703125 
L 2.6875 47.703125 
L 2.6875 54.6875 
L 9.28125 54.6875 
L 9.28125 70.21875 
z
" id="DejaVuSans-74"/>
      <path d="M 9.421875 54.6875 
L 18.40625 54.6875 
L 18.40625 0 
L 9.421875 0 
z
M 9.421875 75.984375 
L 18.40625 75.984375 
L 18.40625 64.59375 
L 9.421875 64.59375 
z
" id="DejaVuSans-69"/>
      <path d="M 30.609375 48.390625 
Q 23.390625 48.390625 19.1875 42.75 
Q 14.984375 37.109375 14.984375 27.296875 
Q 14.984375 17.484375 19.15625 11.84375 
Q 23.34375 6.203125 30.609375 6.203125 
Q 37.796875 6.203125 41.984375 11.859375 
Q 46.1875 17.53125 46.1875 27.296875 
Q 46.1875 37.015625 41.984375 42.703125 
Q 37.796875 48.390625 30.609375 48.390625 
z
M 30.609375 56 
Q 42.328125 56 49.015625 48.375 
Q 55.71875 40.765625 55.71875 27.296875 
Q 55.71875 13.875 49.015625 6.21875 
Q 42.328125 -1.421875 30.609375 -1.421875 
Q 18.84375 -1.421875 12.171875 6.21875 
Q 5.515625 13.875 5.515625 27.296875 
Q 5.515625 40.765625 12.171875 48.375 
Q 18.84375 56 30.609375 56 
z
" id="DejaVuSans-6f"/>
      <path id="DejaVuSans-20"/>
      <path d="M 8.5 21.578125 
L 8.5 54.6875 
L 17.484375 54.6875 
L 17.484375 21.921875 
Q 17.484375 14.15625 20.5 10.265625 
Q 23.53125 6.390625 29.59375 6.390625 
Q 36.859375 6.390625 41.078125 11.03125 
Q 45.3125 15.671875 45.3125 23.6875 
L 45.3125 54.6875 
L 54.296875 54.6875 
L 54.296875 0 
L 45.3125 0 
L 45.3125 8.40625 
Q 42.046875 3.421875 37.71875 1 
Q 33.40625 -1.421875 27.6875 -1.421875 
Q 18.265625 -1.421875 13.375 4.4375 
Q 8.5 10.296875 8.5 21.578125 
z
M 31.109375 56 
z
" id="DejaVuSans-75"/>
      <path d="M 52 44.1875 
Q 55.375 50.25 60.0625 53.125 
Q 64.75 56 71.09375 56 
Q 79.640625 56 84.28125 50.015625 
Q 88.921875 44.046875 88.921875 33.015625 
L 88.921875 0 
L 79.890625 0 
L 79.890625 32.71875 
Q 79.890625 40.578125 77.09375 44.375 
Q 74.3125 48.1875 68.609375 48.1875 
Q 61.625 48.1875 57.5625 43.546875 
Q 53.515625 38.921875 53.515625 30.90625 
L 53.515625 0 
L 44.484375 0 
L 44.484375 32.71875 
Q 44.484375 40.625 41.703125 44.40625 
Q 38.921875 48.1875 33.109375 48.1875 
Q 26.21875 48.1875 22.15625 43.53125 
Q 18.109375 38.875 18.109375 30.90625 
L 18.109375 0 
L 9.078125 0 
L 9.078125 54.6875 
L 18.109375 54.6875 
L 18.109375 46.1875 
Q 21.1875 51.21875 25.484375 53.609375 
Q 29.78125 56 35.6875 56 
Q 41.65625 56 45.828125 52.96875 
Q 50 49.953125 52 44.1875 
z
" id="DejaVuSans-6d"/>
      <path d="M 48.6875 27.296875 
Q 48.6875 37.203125 44.609375 42.84375 
Q 40.53125 48.484375 33.40625 48.484375 
Q 26.265625 48.484375 22.1875 42.84375 
Q 18.109375 37.203125 18.109375 27.296875 
Q 18.109375 17.390625 22.1875 11.75 
Q 26.265625 6.109375 33.40625 6.109375 
Q 40.53125 6.109375 44.609375 11.75 
Q 48.6875 17.390625 48.6875 27.296875 
z
M 18.109375 46.390625 
Q 20.953125 51.265625 25.265625 53.625 
Q 29.59375 56 35.59375 56 
Q 45.5625 56 51.78125 48.09375 
Q 58.015625 40.1875 58.015625 27.296875 
Q 58.015625 14.40625 51.78125 6.484375 
Q 45.5625 -1.421875 35.59375 -1.421875 
Q 29.59375 -1.421875 25.265625 0.953125 
Q 20.953125 3.328125 18.109375 8.203125 
L 18.109375 0 
L 9.078125 0 
L 9.078125 75.984375 
L 18.109375 75.984375 
z
" id="DejaVuSans-62"/>
     </defs>
     <g transform="translate(187.163906 335.860562)scale(0.1 -0.1)">
      <use xlink:href="#DejaVuSans-47"/>
      <use x="77.490234" xlink:href="#DejaVuSans-65"/>
      <use x="139.013672" xlink:href="#DejaVuSans-6e"/>
      <use x="202.392578" xlink:href="#DejaVuSans-65"/>
      <use x="263.916016" xlink:href="#DejaVuSans-72"/>
      <use x="305.029297" xlink:href="#DejaVuSans-61"/>
      <use x="366.308594" xlink:href="#DejaVuSans-74"/>
      <use x="405.517578" xlink:href="#DejaVuSans-69"/>
      <use x="433.300781" xlink:href="#DejaVuSans-6f"/>
      <use x="494.482422" xlink:href="#DejaVuSans-6e"/>
      <use x="557.861328" xlink:href="#DejaVuSans-20"/>
      <use x="589.648438" xlink:href="#DejaVuSans-6e"/>
      <use x="653.027344" xlink:href="#DejaVuSans-75"/>
      <use x="716.40625" xlink:href="#DejaVuSans-6d"/>
      <use x="813.818359" xlink:href="#DejaVuSans-62"/>
      <use x="877.294922" xlink:href="#DejaVuSans-65"/>
      <use x="938.818359" xlink:href="#DejaVuSans-72"/>
     </g>
    </g>
   </g>
   <g id="matplotlib.axis_2">
    <g id="ytick_1">
     <g id="line2d_9">
      <defs>
       <path d="M 0 0 
L -3.5 0 
" id="mefe599a0a2" style="stroke:#000000;stroke-width:0.8;"/>
      </defs>
      <g>
       <use style="stroke:#000000;stroke-width:0.8;" x="57.6" xlink:href="#mefe599a0a2" y="300.21169"/>
      </g>
     </g>
     <g id="text_10">
      <!-- 2000 -->
      <g transform="translate(25.15 304.010908)scale(0.1 -0.1)">
       <use xlink:href="#DejaVuSans-32"/>
       <use x="63.623047" xlink:href="#DejaVuSans-30"/>
       <use x="127.246094" xlink:href="#DejaVuSans-30"/>
       <use x="190.869141" xlink:href="#DejaVuSans-30"/>
      </g>
     </g>
    </g>
    <g id="ytick_2">
     <g id="line2d_10">
      <g>
       <use style="stroke:#000000;stroke-width:0.8;" x="57.6" xlink:href="#mefe599a0a2" y="254.756632"/>
      </g>
     </g>
     <g id="text_11">
      <!-- 2500 -->
      <g transform="translate(25.15 258.55585)scale(0.1 -0.1)">
       <use xlink:href="#DejaVuSans-32"/>
       <use x="63.623047" xlink:href="#DejaVuSans-35"/>
       <use x="127.246094" xlink:href="#DejaVuSans-30"/>
       <use x="190.869141" xlink:href="#DejaVuSans-30"/>
      </g>
     </g>
    </g>
    <g id="ytick_3">
     <g id="line2d_11">
      <g>
       <use style="stroke:#000000;stroke-width:0.8;" x="57.6" xlink:href="#mefe599a0a2" y="209.301574"/>
      </g>
     </g>
     <g id="text_12">
      <!-- 3000 -->
      <defs>
       <path d="M 40.578125 39.3125 
Q 47.65625 37.796875 51.625 33 
Q 55.609375 28.21875 55.609375 21.1875 
Q 55.609375 10.40625 48.1875 4.484375 
Q 40.765625 -1.421875 27.09375 -1.421875 
Q 22.515625 -1.421875 17.65625 -0.515625 
Q 12.796875 0.390625 7.625 2.203125 
L 7.625 11.71875 
Q 11.71875 9.328125 16.59375 8.109375 
Q 21.484375 6.890625 26.8125 6.890625 
Q 36.078125 6.890625 40.9375 10.546875 
Q 45.796875 14.203125 45.796875 21.1875 
Q 45.796875 27.640625 41.28125 31.265625 
Q 36.765625 34.90625 28.71875 34.90625 
L 20.21875 34.90625 
L 20.21875 43.015625 
L 29.109375 43.015625 
Q 36.375 43.015625 40.234375 45.921875 
Q 44.09375 48.828125 44.09375 54.296875 
Q 44.09375 59.90625 40.109375 62.90625 
Q 36.140625 65.921875 28.71875 65.921875 
Q 24.65625 65.921875 20.015625 65.03125 
Q 15.375 64.15625 9.8125 62.3125 
L 9.8125 71.09375 
Q 15.4375 72.65625 20.34375 73.4375 
Q 25.25 74.21875 29.59375 74.21875 
Q 40.828125 74.21875 47.359375 69.109375 
Q 53.90625 64.015625 53.90625 55.328125 
Q 53.90625 49.265625 50.4375 45.09375 
Q 46.96875 40.921875 40.578125 39.3125 
z
" id="DejaVuSans-33"/>
      </defs>
      <g transform="translate(25.15 213.100793)scale(0.1 -0.1)">
       <use xlink:href="#DejaVuSans-33"/>
       <use x="63.623047" xlink:href="#DejaVuSans-30"/>
       <use x="127.246094" xlink:href="#DejaVuSans-30"/>
       <use x="190.869141" xlink:href="#DejaVuSans-30"/>
      </g>
     </g>
    </g>
    <g id="ytick_4">
     <g id="line2d_12">
      <g>
       <use style="stroke:#000000;stroke-width:0.8;" x="57.6" xlink:href="#mefe599a0a2" y="163.846516"/>
      </g>
     </g>
     <g id="text_13">
      <!-- 3500 -->
      <g transform="translate(25.15 167.645735)scale(0.1 -0.1)">
       <use xlink:href="#DejaVuSans-33"/>
       <use x="63.623047" xlink:href="#DejaVuSans-35"/>
       <use x="127.246094" xlink:href="#DejaVuSans-30"/>
       <use x="190.869141" xlink:href="#DejaVuSans-30"/>
      </g>
     </g>
    </g>
    <g id="ytick_5">
     <g id="line2d_13">
      <g>
       <use style="stroke:#000000;stroke-width:0.8;" x="57.6" xlink:href="#mefe599a0a2" y="118.391458"/>
      </g>
     </g>
     <g id="text_14">
      <!-- 4000 -->
      <defs>
       <path d="M 37.796875 64.3125 
L 12.890625 25.390625 
L 37.796875 25.390625 
z
M 35.203125 72.90625 
L 47.609375 72.90625 
L 47.609375 25.390625 
L 58.015625 25.390625 
L 58.015625 17.1875 
L 47.609375 17.1875 
L 47.609375 0 
L 37.796875 0 
L 37.796875 17.1875 
L 4.890625 17.1875 
L 4.890625 26.703125 
z
" id="DejaVuSans-34"/>
      </defs>
      <g transform="translate(25.15 122.190677)scale(0.1 -0.1)">
       <use xlink:href="#DejaVuSans-34"/>
       <use x="63.623047" xlink:href="#DejaVuSans-30"/>
       <use x="127.246094" xlink:href="#DejaVuSans-30"/>
       <use x="190.869141" xlink:href="#DejaVuSans-30"/>
      </g>
     </g>
    </g>
    <g id="ytick_6">
     <g id="line2d_14">
      <g>
       <use style="stroke:#000000;stroke-width:0.8;" x="57.6" xlink:href="#mefe599a0a2" y="72.9364"/>
      </g>
     </g>
     <g id="text_15">
      <!-- 4500 -->
      <g transform="translate(25.15 76.735619)scale(0.1 -0.1)">
       <use xlink:href="#DejaVuSans-34"/>
       <use x="63.623047" xlink:href="#DejaVuSans-35"/>
       <use x="127.246094" xlink:href="#DejaVuSans-30"/>
       <use x="190.869141" xlink:href="#DejaVuSans-30"/>
      </g>
     </g>
    </g>
    <g id="text_16">
     <!-- Average fitness -->
     <defs>
      <path d="M 34.1875 63.1875 
L 20.796875 26.90625 
L 47.609375 26.90625 
z
M 28.609375 72.90625 
L 39.796875 72.90625 
L 67.578125 0 
L 57.328125 0 
L 50.6875 18.703125 
L 17.828125 18.703125 
L 11.1875 0 
L 0.78125 0 
z
" id="DejaVuSans-41"/>
      <path d="M 2.984375 54.6875 
L 12.5 54.6875 
L 29.59375 8.796875 
L 46.6875 54.6875 
L 56.203125 54.6875 
L 35.6875 0 
L 23.484375 0 
z
" id="DejaVuSans-76"/>
      <path d="M 45.40625 27.984375 
Q 45.40625 37.75 41.375 43.109375 
Q 37.359375 48.484375 30.078125 48.484375 
Q 22.859375 48.484375 18.828125 43.109375 
Q 14.796875 37.75 14.796875 27.984375 
Q 14.796875 18.265625 18.828125 12.890625 
Q 22.859375 7.515625 30.078125 7.515625 
Q 37.359375 7.515625 41.375 12.890625 
Q 45.40625 18.265625 45.40625 27.984375 
z
M 54.390625 6.78125 
Q 54.390625 -7.171875 48.1875 -13.984375 
Q 42 -20.796875 29.203125 -20.796875 
Q 24.46875 -20.796875 20.265625 -20.09375 
Q 16.0625 -19.390625 12.109375 -17.921875 
L 12.109375 -9.1875 
Q 16.0625 -11.328125 19.921875 -12.34375 
Q 23.78125 -13.375 27.78125 -13.375 
Q 36.625 -13.375 41.015625 -8.765625 
Q 45.40625 -4.15625 45.40625 5.171875 
L 45.40625 9.625 
Q 42.625 4.78125 38.28125 2.390625 
Q 33.9375 0 27.875 0 
Q 17.828125 0 11.671875 7.65625 
Q 5.515625 15.328125 5.515625 27.984375 
Q 5.515625 40.671875 11.671875 48.328125 
Q 17.828125 56 27.875 56 
Q 33.9375 56 38.28125 53.609375 
Q 42.625 51.21875 45.40625 46.390625 
L 45.40625 54.6875 
L 54.390625 54.6875 
z
" id="DejaVuSans-67"/>
      <path d="M 37.109375 75.984375 
L 37.109375 68.5 
L 28.515625 68.5 
Q 23.6875 68.5 21.796875 66.546875 
Q 19.921875 64.59375 19.921875 59.515625 
L 19.921875 54.6875 
L 34.71875 54.6875 
L 34.71875 47.703125 
L 19.921875 47.703125 
L 19.921875 0 
L 10.890625 0 
L 10.890625 47.703125 
L 2.296875 47.703125 
L 2.296875 54.6875 
L 10.890625 54.6875 
L 10.890625 58.5 
Q 10.890625 67.625 15.140625 71.796875 
Q 19.390625 75.984375 28.609375 75.984375 
z
" id="DejaVuSans-66"/>
      <path d="M 44.28125 53.078125 
L 44.28125 44.578125 
Q 40.484375 46.53125 36.375 47.5 
Q 32.28125 48.484375 27.875 48.484375 
Q 21.1875 48.484375 17.84375 46.4375 
Q 14.5 44.390625 14.5 40.28125 
Q 14.5 37.15625 16.890625 35.375 
Q 19.28125 33.59375 26.515625 31.984375 
L 29.59375 31.296875 
Q 39.15625 29.25 43.1875 25.515625 
Q 47.21875 21.78125 47.21875 15.09375 
Q 47.21875 7.46875 41.1875 3.015625 
Q 35.15625 -1.421875 24.609375 -1.421875 
Q 20.21875 -1.421875 15.453125 -0.5625 
Q 10.6875 0.296875 5.421875 2 
L 5.421875 11.28125 
Q 10.40625 8.6875 15.234375 7.390625 
Q 20.0625 6.109375 24.8125 6.109375 
Q 31.15625 6.109375 34.5625 8.28125 
Q 37.984375 10.453125 37.984375 14.40625 
Q 37.984375 18.0625 35.515625 20.015625 
Q 33.0625 21.96875 24.703125 23.78125 
L 21.578125 24.515625 
Q 13.234375 26.265625 9.515625 29.90625 
Q 5.8125 33.546875 5.8125 39.890625 
Q 5.8125 47.609375 11.28125 51.796875 
Q 16.75 56 26.8125 56 
Q 31.78125 56 36.171875 55.265625 
Q 40.578125 54.546875 44.28125 53.078125 
z
" id="DejaVuSans-73"/>
     </defs>
     <g transform="translate(19.070312 213.503781)rotate(-90)scale(0.1 -0.1)">
      <use xlink:href="#DejaVuSans-41"/>
      <use x="68.330078" xlink:href="#DejaVuSans-76"/>
      <use x="127.509766" xlink:href="#DejaVuSans-65"/>
      <use x="189.033203" xlink:href="#DejaVuSans-72"/>
      <use x="230.146484" xlink:href="#DejaVuSans-61"/>
      <use x="291.425781" xlink:href="#DejaVuSans-67"/>
      <use x="354.902344" xlink:href="#DejaVuSans-65"/>
      <use x="416.425781" xlink:href="#DejaVuSans-20"/>
      <use x="448.212891" xlink:href="#DejaVuSans-66"/>
      <use x="483.417969" xlink:href="#DejaVuSans-69"/>
      <use x="511.201172" xlink:href="#DejaVuSans-74"/>
      <use x="550.410156" xlink:href="#DejaVuSans-6e"/>
      <use x="613.789062" xlink:href="#DejaVuSans-65"/>
      <use x="675.3125" xlink:href="#DejaVuSans-73"/>
      <use x="727.412109" xlink:href="#DejaVuSans-73"/>
     </g>
    </g>
   </g>
   <g id="line2d_15">
    <path clip-path="url(#pd78630fa4b)" d="M 73.832727 53.758002 
L 74.184656 100.029433 
L 74.536585 117.781451 
L 75.064479 131.08251 
L 75.768337 142.299909 
L 76.472195 150.720004 
L 77.527982 160.356477 
L 78.407805 166.417454 
L 78.935698 169.595672 
L 79.639557 173.755719 
L 82.10306 184.509476 
L 82.982882 187.612238 
L 83.510776 189.691353 
L 84.03867 191.016822 
L 84.742528 193.211392 
L 87.381996 200.881479 
L 87.55796 201.050572 
L 88.437783 203.369689 
L 88.613747 203.497872 
L 89.141641 205.017889 
L 89.669534 206.239721 
L 90.021463 206.808818 
L 90.373392 207.70701 
L 90.549357 208.014287 
L 90.725322 208.553384 
L 90.901286 208.727022 
L 91.253215 209.40612 
L 91.781109 210.671589 
L 91.957073 211.279778 
L 92.133038 211.342506 
L 92.836896 212.814341 
L 95.652328 218.00349 
L 95.828293 218.137128 
L 97.060044 220.129878 
L 97.236009 220.656247 
L 97.411973 220.773521 
L 97.587938 221.135344 
L 97.763902 221.212617 
L 97.939867 221.653531 
L 98.115831 221.760805 
L 98.995654 223.549916 
L 99.347583 223.891738 
L 100.051441 224.783567 
L 100.227406 224.046286 
L 100.755299 226.058126 
L 101.811086 228.076331 
L 102.690909 229.291799 
L 103.042838 230.096354 
L 103.218803 230.102717 
L 103.746696 231.134547 
L 103.922661 231.209094 
L 107.090022 235.373686 
L 107.265987 235.271867 
L 107.441951 235.618234 
L 107.617916 235.712781 
L 108.145809 236.238241 
L 108.849667 236.859157 
L 109.201596 237.292798 
L 109.905455 237.728258 
L 110.081419 238.134626 
L 110.257384 237.980988 
L 110.433348 238.126444 
L 110.609313 238.603722 
L 110.785277 238.526449 
L 111.137206 238.69736 
L 111.313171 239.057364 
L 111.6651 239.251002 
L 112.544922 239.955556 
L 112.896851 240.231013 
L 113.072816 240.267377 
L 113.424745 240.955567 
L 113.60071 240.891021 
L 113.952639 241.250116 
L 114.128603 237.78735 
L 114.480532 240.109194 
L 115.008426 241.781031 
L 115.536319 242.811043 
L 115.888248 243.24832 
L 116.064213 234.370947 
L 116.416142 239.479187 
L 116.768071 242.466493 
L 117.295965 244.958339 
L 117.999823 246.86927 
L 118.175787 243.939237 
L 118.879645 247.618369 
L 119.05561 247.925646 
L 119.231574 248.926566 
L 119.407539 249.027476 
L 120.111397 250.49022 
L 120.63929 251.229319 
L 120.815255 251.385685 
L 121.519113 252.533879 
L 121.695078 250.360219 
L 122.5749 253.132068 
L 123.102794 253.859349 
L 123.278758 254.309354 
L 123.454723 254.19208 
L 123.630687 254.4039 
L 123.806652 254.416628 
L 124.334545 255.248455 
L 125.214368 255.979373 
L 125.390333 256.0121 
L 125.918226 256.59938 
L 126.094191 256.557561 
L 126.44612 257.062112 
L 126.974013 257.193932 
L 127.149978 255.703915 
L 127.853836 257.123931 
L 128.0298 257.191205 
L 128.205765 257.5503 
L 128.381729 257.618482 
L 128.557694 258.059396 
L 128.733659 257.956668 
L 128.909623 257.988486 
L 129.085588 258.346672 
L 129.261552 258.311217 
L 129.613481 258.829405 
L 129.96541 258.75395 
L 130.141375 259.088499 
L 130.317339 258.804859 
L 130.669268 259.372138 
L 131.021197 259.185773 
L 131.549091 259.79487 
L 131.725055 259.652141 
L 132.252949 260.033055 
L 132.780843 260.067601 
L 132.956807 260.421241 
L 133.132772 256.235739 
L 133.83663 259.116681 
L 134.364523 260.206693 
L 134.716452 260.55397 
L 135.068381 260.902156 
L 135.244346 260.873064 
L 135.596275 261.244887 
L 136.476098 261.974895 
L 136.652062 261.957622 
L 137.003991 262.4449 
L 137.179956 262.177624 
L 137.35592 262.4449 
L 137.707849 262.503992 
L 138.059778 262.90036 
L 138.235743 262.846723 
L 138.411707 262.938542 
L 138.763636 263.336728 
L 139.115565 263.328547 
L 139.29153 259.550322 
L 139.467494 260.569425 
L 139.643459 251.412049 
L 139.995388 256.445742 
L 140.171353 257.703029 
L 140.347317 255.107545 
L 140.699246 258.336672 
L 141.22714 260.428514 
L 141.755033 262.125806 
L 141.930998 262.123078 
L 142.282927 262.939451 
L 142.634856 263.500367 
L 142.81082 263.546731 
L 143.690643 264.63947 
L 144.042572 264.966747 
L 144.218537 265.010384 
L 144.394501 265.345842 
L 144.570466 265.24675 
L 144.74643 265.314023 
L 145.098359 265.824029 
L 145.450288 265.666755 
L 145.626253 265.784029 
L 145.978182 266.329489 
L 146.154146 266.354944 
L 146.330111 266.564947 
L 146.68204 266.484946 
L 147.033969 266.657675 
L 147.209933 266.429491 
L 147.385898 266.918587 
L 147.561863 266.776767 
L 147.737827 267.092225 
L 147.913792 266.989497 
L 148.089756 267.141317 
L 148.441685 267.220409 
L 148.793614 267.580413 
L 148.969579 267.426775 
L 149.145543 257.350297 
L 149.497472 261.965804 
L 149.849401 264.110374 
L 150.377295 266.178579 
L 150.729224 266.735858 
L 151.081153 267.533139 
L 151.433082 268.12951 
L 151.609047 268.45315 
L 151.785011 259.235773 
L 151.960976 261.563981 
L 152.13694 254.835724 
L 152.488869 260.190329 
L 153.016763 264.297648 
L 153.544656 266.486764 
L 153.720621 259.665778 
L 154.07255 263.877644 
L 154.424479 266.567674 
L 154.600443 267.618595 
L 154.952373 268.285875 
L 155.304302 269.359524 
L 155.480266 269.979531 
L 155.832195 270.294989 
L 156.536053 271.379546 
L 156.887982 271.554094 
L 157.415876 272.089554 
L 158.295698 272.836836 
L 158.471663 272.778653 
L 159.175521 273.140475 
L 159.52745 273.176839 
L 159.879379 273.7023 
L 160.055344 273.707754 
L 160.231308 273.498661 
L 160.759202 273.944121 
L 161.111131 273.936848 
L 161.287095 274.175032 
L 161.46306 274.15685 
L 161.639024 274.346853 
L 161.814989 274.275943 
L 162.166918 274.625947 
L 162.342882 274.5614 
L 162.694812 274.844131 
L 163.046741 274.66322 
L 163.926563 275.130498 
L 164.102528 274.860495 
L 164.278492 275.253226 
L 164.630421 275.091406 
L 165.334279 275.185953 
L 165.510244 275.484138 
L 165.862173 275.205044 
L 166.038137 275.395046 
L 166.214102 275.390501 
L 166.390067 275.50232 
L 166.741996 275.372319 
L 166.91796 275.665958 
L 167.093925 275.448683 
L 167.269889 275.662322 
L 167.621818 275.606867 
L 167.797783 275.890506 
L 167.973747 275.652322 
L 168.149712 275.940507 
L 168.325676 275.795051 
L 168.501641 275.885961 
L 168.677605 276.141418 
L 169.029534 275.98778 
L 169.381463 276.079599 
L 169.557428 275.965962 
L 170.261286 276.316875 
L 170.613215 276.323238 
L 170.78918 276.327784 
L 171.141109 276.609605 
L 171.317073 276.396876 
L 172.548825 276.587787 
L 172.724789 276.74688 
L 172.900754 276.522332 
L 173.076718 276.735061 
L 173.252683 276.770516 
L 173.428647 276.965973 
L 173.604612 276.706879 
L 173.780576 276.895972 
L 174.132506 276.896881 
L 174.30847 276.961428 
L 174.484435 276.750516 
L 174.660399 276.745061 
L 174.836364 276.906881 
L 175.364257 276.879608 
L 175.540222 276.720516 
L 175.716186 277.025065 
L 175.892151 276.939609 
L 176.947938 277.205976 
L 177.123902 277.439615 
L 177.299867 277.32325 
L 177.475831 275.088679 
L 178.003725 276.304147 
L 178.355654 276.961428 
L 178.531619 276.754152 
L 178.707583 277.011428 
L 178.883548 267.939508 
L 179.411441 272.82229 
L 179.76337 274.648674 
L 180.467228 276.080508 
L 180.643193 276.270511 
L 180.819157 276.681424 
L 180.995122 276.645969 
L 181.171086 277.045974 
L 181.523016 277.092338 
L 181.874945 277.501434 
L 182.226874 277.805982 
L 183.810554 278.79963 
L 183.986519 278.700538 
L 184.514412 279.059633 
L 184.690377 278.977814 
L 185.042306 279.390546 
L 185.218271 279.158725 
L 185.394235 279.458728 
L 185.746164 279.376 
L 185.922129 279.182362 
L 186.098093 279.590548 
L 186.274058 279.562366 
L 186.450022 279.746913 
L 186.801951 269.179522 
L 187.15388 273.153203 
L 187.681774 275.826869 
L 187.857738 275.885961 
L 188.209667 277.02961 
L 188.561596 277.400523 
L 188.737561 277.357796 
L 189.08949 278.165987 
L 189.265455 278.160532 
L 189.441419 273.578662 
L 189.793348 276.032326 
L 190.321242 277.97053 
L 191.377029 279.359636 
L 192.080887 279.901461 
L 192.256851 279.890551 
L 192.96071 280.393284 
L 193.136674 280.284192 
L 193.488603 280.647833 
L 193.840532 280.625105 
L 194.192461 280.780561 
L 194.368426 281.019655 
L 194.54439 280.728743 
L 194.896319 280.919654 
L 195.072284 280.759652 
L 195.424213 281.021473 
L 195.600177 280.886926 
L 195.776142 280.912381 
L 195.952106 281.050565 
L 196.128071 280.890563 
L 196.304035 281.061474 
L 196.48 280.962382 
L 196.655965 281.166929 
L 196.831929 281.139656 
L 197.359823 281.464206 
L 197.535787 278.924177 
L 198.063681 280.53965 
L 198.41561 281.205112 
L 198.591574 281.101474 
L 198.943503 281.714208 
L 199.119468 281.665117 
L 199.471397 281.926029 
L 199.647361 281.822391 
L 199.823326 281.976029 
L 200.527184 281.994212 
L 200.703149 282.046939 
L 200.879113 282.242396 
L 201.055078 282.221487 
L 201.407007 282.416944 
L 202.286829 282.402398 
L 202.462794 282.71422 
L 202.814723 282.486944 
L 203.342616 282.632401 
L 203.518581 282.507854 
L 203.694545 282.636946 
L 204.046475 282.614219 
L 204.222439 282.664219 
L 204.398404 274.29867 
L 204.926297 279.033269 
L 205.278226 280.418739 
L 206.334013 281.890574 
L 206.509978 282.353306 
L 206.685942 282.264215 
L 207.213836 282.583309 
L 207.565765 282.570582 
L 207.741729 282.78422 
L 207.917694 282.798766 
L 208.093659 283.213316 
L 208.269623 283.274226 
L 208.445588 283.119679 
L 208.621552 283.379682 
L 209.677339 283.574229 
L 210.029268 283.696958 
L 210.381197 283.869687 
L 210.557162 284.031507 
L 210.733126 283.72514 
L 210.909091 284.12969 
L 211.085055 284.02878 
L 211.26102 284.2106 
L 211.612949 283.936052 
L 212.140843 284.260601 
L 213.020665 284.2006 
L 213.372594 284.390602 
L 214.428381 284.296965 
L 214.604346 284.336056 
L 214.78031 284.608786 
L 215.132239 284.400602 
L 215.484169 284.744243 
L 215.660133 284.718788 
L 215.836098 284.543331 
L 216.188027 284.673333 
L 216.539956 284.690606 
L 217.243814 284.940608 
L 217.419778 281.365114 
L 217.947672 283.273317 
L 218.123636 283.348772 
L 218.475565 283.954234 
L 218.827494 284.223328 
L 219.003459 284.265146 
L 219.179424 284.162418 
L 219.355388 284.417875 
L 219.531353 284.287874 
L 220.059246 284.64515 
L 220.235211 284.718788 
L 220.411175 284.55424 
L 220.58714 284.845153 
L 220.763104 284.61515 
L 222.874678 285.288794 
L 223.050643 277.938711 
L 223.402572 280.940563 
L 223.930466 282.978768 
L 224.10643 283.396046 
L 224.282395 283.516047 
L 224.458359 284.024234 
L 224.634324 283.946961 
L 224.810288 284.460603 
L 224.986253 284.428784 
L 225.162217 284.650605 
L 225.338182 284.520604 
L 225.514146 285.034246 
L 225.690111 285.033337 
L 226.04204 285.279703 
L 226.218004 285.069701 
L 226.569933 285.297885 
L 226.921863 285.136065 
L 227.097827 285.46516 
L 227.273792 285.407886 
L 227.449756 285.552433 
L 227.625721 285.310613 
L 227.801685 285.298794 
L 227.97765 285.610616 
L 228.329579 285.439705 
L 228.505543 285.611525 
L 228.681508 283.867869 
L 229.209401 285.046973 
L 229.385366 285.068792 
L 229.737295 285.700617 
L 230.089224 285.856982 
L 230.265188 285.800618 
L 231.320976 286.313351 
L 231.49694 286.192441 
L 231.848869 286.283351 
L 232.024834 286.492444 
L 232.200798 286.409716 
L 232.552727 286.544263 
L 232.904656 286.52699 
L 233.080621 286.886085 
L 233.256585 286.481535 
L 233.608514 286.797902 
L 234.136408 286.687901 
L 234.312373 286.924267 
L 234.488337 286.883358 
L 234.664302 286.629718 
L 235.36816 287.000632 
L 235.544124 286.681537 
L 235.896053 287.011541 
L 236.072018 287.010632 
L 236.247982 286.831539 
L 236.599911 286.99245 
L 237.479734 286.836084 
L 237.831663 287.126997 
L 238.007627 287.200634 
L 238.183592 286.960631 
L 238.535521 287.387909 
L 238.711486 287.22427 
L 238.88745 287.336999 
L 239.063415 284.256964 
L 239.415344 285.736981 
L 239.767273 286.216986 
L 239.943237 286.521535 
L 240.119202 286.503353 
L 240.999024 287.131542 
L 241.350953 286.964268 
L 241.526918 287.208816 
L 241.702882 286.98245 
L 242.054812 287.309726 
L 242.230776 287.146997 
L 242.406741 287.241543 
L 242.75867 287.537001 
L 242.934634 287.517001 
L 243.110599 287.283362 
L 243.990421 287.61882 
L 244.166386 287.473364 
L 244.34235 286.160622 
L 244.518315 286.387897 
L 244.870244 287.081542 
L 245.046208 284.026053 
L 245.222173 285.069701 
L 245.398137 285.379704 
L 245.750067 286.270623 
L 246.101996 286.629718 
L 246.27796 286.674264 
L 246.453925 287.086087 
L 246.805854 287.175179 
L 246.981818 287.19427 
L 247.333747 287.559729 
L 247.509712 287.388818 
L 247.685676 287.604275 
L 247.861641 287.553365 
L 248.037605 287.771549 
L 248.21357 287.59882 
L 248.741463 287.756095 
L 248.917428 287.621548 
L 249.093392 288.137917 
L 249.269357 287.896096 
L 249.445322 288.142463 
L 249.973215 288.061553 
L 250.14918 288.197918 
L 250.325144 288.098826 
L 250.501109 288.317919 
L 250.677073 288.268828 
L 250.853038 282.811493 
L 251.380931 285.931529 
L 252.084789 286.926994 
L 252.260754 287.008814 
L 252.612683 287.547001 
L 253.140576 287.954279 
L 253.492506 287.86155 
L 253.66847 288.208827 
L 253.844435 288.200645 
L 254.020399 288.398829 
L 254.196364 288.229736 
L 254.548293 288.522467 
L 254.724257 288.517921 
L 254.900222 288.2661 
L 255.428115 288.850652 
L 255.780044 288.677923 
L 255.956009 288.647923 
L 256.307938 288.824289 
L 256.483902 288.613377 
L 256.659867 288.743379 
L 256.835831 288.657923 
L 257.011796 288.945199 
L 257.187761 288.754288 
L 257.363725 289.012472 
L 257.53969 288.760651 
L 257.715654 288.857925 
L 257.891619 288.723378 
L 258.243548 288.816107 
L 258.419512 289.192474 
L 258.771441 289.003381 
L 259.299335 289.174292 
L 259.475299 289.046109 
L 259.651264 289.265203 
L 259.827228 289.000654 
L 260.179157 289.058837 
L 261.234945 289.0552 
L 261.410909 289.230657 
L 261.586874 288.820652 
L 261.762838 289.150656 
L 261.938803 289.217929 
L 262.114767 289.139747 
L 262.466696 289.407022 
L 262.818625 289.197929 
L 262.99459 289.247021 
L 263.170554 289.434295 
L 263.346519 289.440659 
L 263.522483 289.332476 
L 263.698448 289.588843 
L 263.874412 289.412477 
L 264.226341 289.593388 
L 264.402306 289.313385 
L 264.754235 289.769754 
L 265.282129 289.430659 
L 265.458093 289.685207 
L 265.985987 289.377931 
L 266.161951 289.556115 
L 266.337916 289.310658 
L 266.689845 289.562479 
L 267.921596 289.413386 
L 268.097561 289.524296 
L 268.273525 289.809754 
L 268.44949 289.570661 
L 268.625455 286.340624 
L 268.977384 287.622457 
L 269.329313 288.385193 
L 269.505277 285.875164 
L 269.857206 287.399727 
L 270.209135 288.150645 
L 270.3851 288.2261 
L 270.561064 288.643377 
L 271.088958 288.78247 
L 271.264922 289.046109 
L 271.616851 289.202475 
L 271.96878 289.362476 
L 272.496674 289.342476 
L 272.672639 289.529751 
L 273.200532 289.564297 
L 273.552461 289.726117 
L 273.728426 289.595206 
L 274.432284 289.8643 
L 274.960177 289.670662 
L 275.136142 289.832482 
L 275.488071 289.697935 
L 276.015965 290.009756 
L 276.191929 289.896119 
L 276.895787 290.022484 
L 277.247716 290.025211 
L 277.599645 290.059757 
L 278.127539 289.813391 
L 278.303503 290.057939 
L 278.479468 289.934301 
L 278.655432 290.099757 
L 278.831397 290.102485 
L 279.183326 290.277941 
L 279.35929 290.185213 
L 279.535255 290.419761 
L 279.71122 290.024302 
L 279.887184 281.922393 
L 280.239113 285.484251 
L 280.767007 287.823368 
L 281.118936 288.543376 
L 281.822794 289.325203 
L 282.526652 289.809754 
L 282.878581 289.668843 
L 283.054545 290.107939 
L 283.23051 290.037939 
L 283.406475 290.162485 
L 283.582439 290.041575 
L 283.758404 290.253396 
L 283.934368 290.25885 
L 284.110333 290.389761 
L 284.462262 290.328851 
L 284.638226 290.32976 
L 284.990155 290.690673 
L 285.16612 290.384306 
L 285.342084 290.666127 
L 285.518049 290.393397 
L 285.694013 290.700673 
L 285.869978 290.513398 
L 286.045942 290.778856 
L 286.221907 290.668855 
L 286.397871 290.842493 
L 286.7498 290.624309 
L 287.101729 291.044314 
L 287.453659 290.942494 
L 287.629623 290.901585 
L 287.805588 290.977949 
L 287.981552 290.881584 
L 288.157517 290.980676 
L 288.68541 290.956131 
L 288.861375 291.072496 
L 289.037339 290.967949 
L 289.389268 291.165224 
L 289.565233 291.025222 
L 290.62102 291.137042 
L 290.796984 291.058859 
L 291.324878 291.303407 
L 292.204701 291.335226 
L 292.380665 291.694321 
L 292.55663 291.334317 
L 292.732594 291.619775 
L 292.908559 291.32068 
L 293.084523 291.477046 
L 293.436452 291.261589 
L 293.788381 291.383408 
L 293.964346 291.334317 
L 294.492239 291.465227 
L 295.548027 291.546137 
L 295.723991 291.613411 
L 295.899956 291.359772 
L 296.251885 291.408863 
L 296.603814 291.186133 
L 296.779778 291.384317 
L 296.955743 291.25068 
L 297.483636 291.450682 
L 297.659601 291.32068 
L 297.835565 291.377954 
L 298.01153 291.192497 
L 298.187494 291.433409 
L 298.363459 291.377954 
L 298.539424 291.657957 
L 298.891353 291.418863 
L 299.067317 291.484319 
L 299.243282 291.366135 
L 299.595211 291.65523 
L 299.771175 291.507046 
L 299.94714 291.709776 
L 300.123104 291.481591 
L 300.650998 291.511592 
L 301.002927 291.608865 
L 302.234678 291.734321 
L 302.410643 291.490682 
L 302.762572 291.567956 
L 303.114501 291.799777 
L 303.290466 291.794322 
L 303.46643 291.611593 
L 303.642395 291.838868 
L 303.994324 291.481591 
L 304.170288 291.886141 
L 304.522217 291.79614 
L 305.050111 291.89705 
L 305.226075 291.699775 
L 305.40204 291.82705 
L 305.753969 291.639775 
L 306.105898 291.828868 
L 306.457827 291.71523 
L 306.809756 291.940687 
L 307.865543 291.73614 
L 308.041508 291.89705 
L 308.569401 291.490682 
L 308.745366 291.564319 
L 308.92133 291.81614 
L 309.097295 291.781595 
L 309.449224 291.883414 
L 309.625188 291.73523 
L 309.801153 292.113417 
L 309.977118 292.115235 
L 310.329047 291.979779 
L 311.384834 291.868868 
L 311.560798 292.025234 
L 311.736763 291.957051 
L 311.912727 292.044325 
L 312.264656 291.847959 
L 312.440621 291.976142 
L 312.616585 292.280691 
L 312.79255 292.072507 
L 312.968514 292.230691 
L 313.320443 292.202508 
L 313.672373 292.41342 
L 313.848337 292.269782 
L 314.024302 292.274327 
L 314.376231 291.903414 
L 314.72816 292.047961 
L 314.904124 285.510615 
L 315.256053 288.425193 
L 315.432018 284.903335 
L 315.607982 286.500626 
L 315.783947 284.981518 
L 316.31184 288.440648 
L 317.015698 289.857027 
L 317.543592 290.383397 
L 317.895521 290.550672 
L 318.071486 290.875221 
L 318.24745 290.868857 
L 318.599379 291.137951 
L 319.127273 291.471591 
L 319.303237 291.228861 
L 319.479202 291.418863 
L 319.655166 291.440682 
L 319.831131 291.62432 
L 320.007095 291.541592 
L 320.886918 291.886141 
L 321.062882 291.617047 
L 321.414812 292.09978 
L 321.590776 291.834322 
L 321.766741 292.257964 
L 321.942705 292.177054 
L 322.470599 292.217963 
L 322.822528 292.03887 
L 323.878315 292.374329 
L 324.758137 292.529785 
L 324.934102 292.426147 
L 325.110067 292.529785 
L 325.286031 292.346146 
L 325.63796 292.498875 
L 325.813925 292.417056 
L 326.165854 292.697969 
L 326.517783 292.374329 
L 326.693747 292.547967 
L 327.221641 292.408874 
L 327.397605 292.422511 
L 327.57357 292.743424 
L 327.925499 292.418874 
L 328.453392 292.963426 
L 328.805322 292.583422 
L 328.981286 292.786151 
L 329.333215 292.510694 
L 329.685144 292.820697 
L 329.861109 287.708821 
L 330.213038 289.566115 
L 330.389002 290.397034 
L 330.564967 290.636127 
L 330.916896 291.393408 
L 331.796718 292.040688 
L 331.972683 291.910687 
L 332.148647 292.303419 
L 333.02847 292.468875 
L 333.204435 292.71706 
L 333.380399 292.659786 
L 334.084257 292.849788 
L 334.436186 292.703423 
L 334.612151 292.66615 
L 335.316009 293.046154 
L 335.491973 292.899789 
L 335.843902 293.122519 
L 336.019867 292.893425 
L 336.195831 292.945244 
L 336.371796 293.126155 
L 336.547761 292.984335 
L 336.723725 293.145246 
L 337.075654 293.037972 
L 337.251619 292.990699 
L 337.427583 293.215247 
L 337.603548 293.101609 
L 337.779512 293.25252 
L 338.131441 293.228884 
L 339.011264 293.146155 
L 339.187228 293.37434 
L 339.363193 293.347976 
L 339.539157 293.207974 
L 340.067051 293.507069 
L 340.594945 293.292521 
L 341.122838 293.429795 
L 341.298803 292.290691 
L 341.650732 292.677059 
L 341.826696 292.692514 
L 342.002661 293.062518 
L 342.530554 293.0407 
L 342.882483 293.385249 
L 343.058448 293.156156 
L 343.234412 293.363431 
L 343.410377 293.220702 
L 343.586341 293.449795 
L 343.762306 293.144337 
L 343.938271 293.427977 
L 344.2902 293.357067 
L 344.642129 293.363431 
L 344.818093 293.48525 
L 344.994058 293.357976 
L 345.345987 293.563433 
L 345.697916 293.601615 
L 346.049845 293.655252 
L 346.929667 293.71798 
L 347.105632 293.590706 
L 347.281596 293.734344 
L 347.80949 293.613433 
L 347.985455 293.810708 
L 348.161419 293.685252 
L 348.337384 293.766162 
L 348.513348 293.416158 
L 348.689313 293.533433 
L 348.865277 293.492523 
L 349.041242 293.640706 
L 350.272993 293.57616 
L 350.448958 293.827072 
L 350.976851 293.558887 
L 351.152816 293.684343 
L 351.504745 293.707071 
L 351.856674 293.852527 
L 352.208603 293.749799 
L 352.384568 293.913437 
L 352.560532 293.885255 
L 352.736497 293.710707 
L 353.088426 293.620706 
L 353.26439 293.781617 
L 353.616319 293.720707 
L 353.968248 293.865254 
L 354.144213 293.591615 
L 354.496142 293.927982 
L 354.672106 293.745253 
L 355.024035 293.809799 
L 355.2 293.904346 
L 355.375965 294.217986 
L 355.551929 293.863436 
L 355.727894 294.135257 
L 355.903858 293.793435 
L 356.255787 294.014347 
L 356.431752 293.929801 
L 356.607716 294.038893 
L 356.783681 293.81889 
L 356.959645 293.922528 
L 357.13561 293.713435 
L 357.311574 293.699798 
L 357.487539 287.534274 
L 357.839468 290.36976 
L 358.367361 291.843413 
L 358.71929 292.537967 
L 358.895255 292.637059 
L 359.247184 293.153428 
L 359.423149 293.240702 
L 359.775078 293.152519 
L 360.127007 293.497068 
L 360.478936 293.348885 
L 360.6549 293.735253 
L 360.830865 293.626161 
L 361.006829 293.827072 
L 361.182794 293.726162 
L 362.942439 294.060711 
L 363.118404 294.072529 
L 363.294368 294.23435 
L 363.646297 294.087075 
L 363.822262 294.272532 
L 364.174191 294.111621 
L 364.350155 294.309805 
L 364.52612 294.32526 
L 364.702084 294.188894 
L 364.878049 294.330714 
L 365.229978 294.168894 
L 365.405942 294.389806 
L 365.581907 294.214349 
L 365.757871 294.394351 
L 366.1098 294.381624 
L 366.285765 294.472534 
L 366.637694 294.245259 
L 366.989623 294.310714 
L 367.869446 294.490716 
L 368.04541 294.413442 
L 368.221375 294.537989 
L 368.397339 294.20344 
L 368.749268 294.357078 
L 369.277162 294.451625 
L 369.453126 294.689809 
L 369.629091 294.411624 
L 369.98102 294.549808 
L 370.156984 294.700718 
L 370.508914 294.435261 
L 371.388736 294.56799 
L 371.740665 294.379806 
L 372.444523 294.787992 
L 372.796452 294.699809 
L 373.324346 294.652536 
L 373.676275 294.672536 
L 373.852239 294.581626 
L 374.556098 294.716173 
L 374.732062 294.6989 
L 374.908027 294.877084 
L 375.43592 294.661627 
L 375.787849 294.908903 
L 375.963814 295.076177 
L 376.139778 294.925266 
L 376.491707 294.90163 
L 376.667672 294.811629 
L 377.019601 294.933448 
L 377.37153 294.728901 
L 377.547494 295.019813 
L 378.075388 294.611626 
L 378.427317 294.805265 
L 378.603282 294.608899 
L 378.955211 294.835265 
L 379.131175 294.584353 
L 379.30714 294.818902 
L 379.483104 294.809811 
L 379.659069 294.661627 
L 380.186962 294.865266 
L 380.362927 294.622536 
L 380.538891 294.740719 
L 380.89082 294.62799 
L 381.066785 294.573444 
L 381.242749 294.699809 
L 381.418714 294.674354 
L 381.594678 294.774356 
L 381.770643 294.646172 
L 381.946608 294.699809 
L 382.122572 294.930721 
L 382.298537 294.707991 
L 382.474501 293.44525 
L 383.354324 294.60799 
L 383.706253 294.621627 
L 383.882217 294.750719 
L 384.410111 294.417988 
L 384.586075 294.616172 
L 384.76204 294.61799 
L 384.938004 294.43617 
L 385.289933 294.629809 
L 386.169756 294.7189 
L 386.345721 294.530716 
L 386.69765 294.687082 
L 386.873614 294.647081 
L 387.049579 294.777992 
L 387.225543 294.75981 
L 387.401508 294.563444 
L 387.577472 294.767083 
L 387.753437 294.669809 
L 388.28133 294.923448 
L 388.633259 294.803447 
L 388.809224 294.940721 
L 388.985188 294.814356 
L 389.161153 294.953449 
L 389.865011 294.741628 
L 390.568869 294.955267 
L 390.744834 294.778901 
L 390.920798 294.957085 
L 391.096763 294.889811 
L 391.272727 294.966176 
L 391.624656 294.877084 
L 391.976585 295.049813 
L 392.15255 294.913448 
L 392.328514 294.971631 
L 392.680443 294.784356 
L 393.032373 294.975267 
L 393.560266 295.068904 
L 393.736231 295.186178 
L 394.264124 294.846175 
L 394.440089 295.003449 
L 394.967982 294.927085 
L 395.143947 294.828902 
L 395.495876 295.007085 
L 395.67184 294.977994 
L 396.023769 295.318907 
L 396.199734 295.177087 
L 396.375698 295.488 
L 397.079557 294.942539 
L 397.783415 295.102541 
L 397.959379 295.455272 
L 398.487273 295.15436 
L 398.487273 295.15436 
" style="fill:none;stroke:#1f77b4;stroke-linecap:square;stroke-width:1.5;"/>
   </g>
   <g id="line2d_16">
    <path clip-path="url(#pd78630fa4b)" d="M 73.832727 53.568 
L 74.184656 100.197617 
L 74.536585 118.349639 
L 75.064479 131.520697 
L 75.768337 142.308091 
L 76.472195 150.362728 
L 77.703947 161.165577 
L 79.991486 174.693911 
L 80.343415 176.299384 
L 81.751131 182.246723 
L 82.806918 186.395861 
L 84.03867 190.420452 
L 84.214634 190.799547 
L 84.566563 192.052288 
L 85.798315 195.616874 
L 86.326208 197.045981 
L 86.502173 197.833263 
L 86.854102 198.448724 
L 88.085854 201.762398 
L 88.261818 202.070583 
L 88.437783 202.668772 
L 88.613747 202.84241 
L 89.317605 204.910615 
L 89.669534 205.463349 
L 90.373392 207.045185 
L 90.549357 207.660646 
L 90.725322 207.77792 
L 90.901286 208.063378 
L 91.253215 208.788841 
L 91.781109 209.896126 
L 92.133038 210.730681 
L 92.309002 211.210686 
L 92.484967 211.290687 
L 92.836896 212.024332 
L 93.188825 212.593429 
L 93.364789 213.192527 
L 93.540754 213.334347 
L 94.420576 215.183458 
L 94.596541 215.684373 
L 94.772506 215.750737 
L 94.94847 216.078014 
L 95.476364 217.529848 
L 95.652328 217.561667 
L 95.828293 217.828943 
L 96.180222 218.470768 
L 97.060044 219.933512 
L 97.411973 220.375335 
L 97.939867 221.268981 
L 98.115831 221.333528 
L 98.643725 222.178083 
L 98.81969 222.691725 
L 98.995654 222.547178 
L 99.347583 223.105366 
L 99.875477 223.648099 
L 100.40337 224.704475 
L 101.283193 225.834487 
L 101.459157 226.210855 
L 101.635122 226.291765 
L 102.163016 226.965409 
L 102.33898 227.052683 
L 102.514945 227.528143 
L 102.690909 227.505415 
L 102.866874 227.68269 
L 103.218803 228.478154 
L 103.394767 228.408153 
L 104.098625 229.509983 
L 104.27459 229.393619 
L 104.802483 230.296356 
L 106.034235 231.51637 
L 106.2102 231.518188 
L 106.914058 232.490926 
L 107.090022 232.505472 
L 108.849667 234.330947 
L 109.025632 234.613677 
L 109.377561 234.662769 
L 109.553525 235.121865 
L 109.72949 235.123683 
L 110.961242 236.184604 
L 111.489135 236.558245 
L 111.841064 237.03825 
L 112.017029 237.105524 
L 112.192993 237.336435 
L 112.368958 237.17007 
L 112.720887 237.637348 
L 112.896851 237.971897 
L 113.424745 238.122808 
L 113.776674 238.56554 
L 114.656497 239.23282 
L 114.832461 239.327367 
L 115.008426 239.599188 
L 115.18439 239.532824 
L 115.360355 240.055557 
L 115.712284 239.963738 
L 116.240177 240.747383 
L 116.944035 241.216479 
L 117.295965 241.491028 
L 117.471929 241.685575 
L 117.647894 241.629211 
L 117.823858 241.896487 
L 117.999823 241.868305 
L 118.351752 242.398311 
L 118.527716 242.241945 
L 118.703681 242.365583 
L 118.879645 242.747405 
L 119.231574 242.807406 
L 119.407539 243.25832 
L 119.583503 243.131046 
L 119.935432 243.461959 
L 120.111397 243.783781 
L 120.287361 243.722871 
L 121.167184 244.691064 
L 121.343149 244.513789 
L 121.519113 244.711973 
L 121.695078 244.717428 
L 121.871042 245.068341 
L 122.047007 244.893793 
L 122.5749 245.34198 
L 122.750865 245.512891 
L 122.926829 245.516528 
L 123.102794 234.130945 
L 123.454723 240.389197 
L 123.806652 243.482868 
L 124.51051 247.188365 
L 124.862439 248.150194 
L 125.918226 250.44931 
L 126.094191 250.547493 
L 126.270155 250.792042 
L 126.44612 251.379321 
L 126.622084 251.232047 
L 126.974013 251.914782 
L 127.149978 248.498379 
L 127.325942 242.037397 
L 127.677871 246.751996 
L 128.205765 250.066579 
L 129.085588 252.771155 
L 129.261552 252.840246 
L 129.613481 253.712074 
L 130.669268 255.36573 
L 130.845233 255.493913 
L 131.373126 256.387559 
L 131.549091 256.378468 
L 132.956807 257.230296 
L 133.132772 257.583027 
L 133.660665 257.608482 
L 134.188559 258.324854 
L 135.948204 259.179409 
L 136.476098 259.438503 
L 137.003991 259.538504 
L 137.179956 259.795779 
L 137.35592 259.786688 
L 137.531885 259.901235 
L 137.707849 259.823962 
L 138.059778 260.407605 
L 138.235743 260.303967 
L 138.411707 259.599414 
L 139.115565 260.333967 
L 139.29153 251.378412 
L 139.643459 255.477549 
L 139.995388 257.956668 
L 140.523282 259.837598 
L 141.22714 261.097612 
L 141.579069 261.417616 
L 142.106962 262.259444 
L 142.282927 262.177624 
L 142.634856 262.603993 
L 142.81082 262.914906 
L 142.986785 262.805813 
L 143.690643 263.524003 
L 144.042572 263.536731 
L 144.570466 263.935826 
L 144.74643 264.006736 
L 144.922395 264.231284 
L 145.098359 264.176738 
L 145.274324 264.499469 
L 145.626253 264.434923 
L 145.802217 264.679471 
L 146.154146 264.706744 
L 146.506075 264.813109 
L 146.858004 264.857655 
L 147.209933 265.18584 
L 147.737827 265.383115 
L 147.913792 265.356751 
L 148.265721 265.724028 
L 148.441685 265.701301 
L 148.61765 265.911303 
L 148.969579 265.83312 
L 149.145543 265.889485 
L 149.497472 265.827666 
L 150.553259 266.30858 
L 150.729224 266.195852 
L 150.905188 266.489491 
L 151.960976 266.365854 
L 152.13694 266.670402 
L 152.488869 266.578583 
L 152.664834 266.595856 
L 153.016763 266.862223 
L 153.192727 266.819495 
L 153.720621 267.033134 
L 153.896585 267.002224 
L 154.248514 267.333137 
L 154.952373 267.365865 
L 155.128337 267.60314 
L 155.304302 267.489503 
L 155.480266 267.693141 
L 155.656231 267.524957 
L 156.360089 267.565867 
L 156.536053 267.763142 
L 156.712018 267.610413 
L 156.887982 258.505765 
L 157.415876 263.844916 
L 157.767805 265.264932 
L 157.943769 261.619436 
L 158.295698 264.140374 
L 158.823592 266.22767 
L 158.999557 262.233989 
L 159.175521 262.183988 
L 159.52745 264.729471 
L 160.231308 267.161317 
L 160.407273 267.424956 
L 160.583237 267.483139 
L 160.935166 268.218602 
L 161.111131 268.540423 
L 161.639024 268.834972 
L 162.342882 269.754074 
L 162.694812 269.695891 
L 162.870776 270.029531 
L 163.222705 270.169533 
L 163.39867 270.443172 
L 163.750599 270.375899 
L 163.926563 270.634083 
L 164.278492 270.68863 
L 164.630421 270.855904 
L 165.158315 271.403183 
L 165.510244 271.341364 
L 165.862173 271.653186 
L 166.038137 271.411365 
L 166.390067 271.654095 
L 166.566031 271.478638 
L 166.741996 264.501287 
L 167.093925 267.764051 
L 167.445854 269.293159 
L 168.149712 270.925905 
L 168.325676 271.074088 
L 168.501641 271.465002 
L 168.677605 267.069498 
L 169.205499 270.114078 
L 169.557428 271.064997 
L 169.733392 271.101361 
L 170.261286 272.054099 
L 170.613215 272.352285 
L 170.78918 272.461377 
L 170.965144 272.783199 
L 171.317073 272.9132 
L 171.669002 273.045929 
L 172.548825 273.628663 
L 172.900754 273.521389 
L 173.076718 273.749573 
L 173.252683 273.667754 
L 173.428647 274.02594 
L 173.604612 273.902302 
L 174.30847 274.194124 
L 174.484435 273.963212 
L 174.660399 274.029576 
L 174.836364 274.327761 
L 175.188293 274.355034 
L 175.892151 274.816858 
L 176.068115 274.550491 
L 176.24408 268.380422 
L 176.596009 271.134089 
L 176.947938 272.298648 
L 177.123902 258.537583 
L 177.651796 267.297682 
L 178.003725 269.723164 
L 178.17969 259.701233 
L 178.707583 267.956781 
L 179.235477 271.128634 
L 180.291264 273.811392 
L 180.467228 273.799574 
L 180.643193 274.191396 
L 180.643193 274.191396 
" style="fill:none;stroke:#ff7f0e;stroke-linecap:square;stroke-width:1.5;"/>
   </g>
   <g id="patch_3">
    <path d="M 57.6 307.584 
L 57.6 41.472 
" style="fill:none;stroke:#000000;stroke-linecap:square;stroke-linejoin:miter;stroke-width:0.8;"/>
   </g>
   <g id="patch_4">
    <path d="M 414.72 307.584 
L 414.72 41.472 
" style="fill:none;stroke:#000000;stroke-linecap:square;stroke-linejoin:miter;stroke-width:0.8;"/>
   </g>
   <g id="patch_5">
    <path d="M 57.6 307.584 
L 414.72 307.584 
" style="fill:none;stroke:#000000;stroke-linecap:square;stroke-linejoin:miter;stroke-width:0.8;"/>
   </g>
   <g id="patch_6">
    <path d="M 57.6 41.472 
L 414.72 41.472 
" style="fill:none;stroke:#000000;stroke-linecap:square;stroke-linejoin:miter;stroke-width:0.8;"/>
   </g>
   <g id="text_17">
    <!-- Average fitness over 30 seconds for29cities -->
    <defs>
     <path d="M 48.78125 52.59375 
L 48.78125 44.1875 
Q 44.96875 46.296875 41.140625 47.34375 
Q 37.3125 48.390625 33.40625 48.390625 
Q 24.65625 48.390625 19.8125 42.84375 
Q 14.984375 37.3125 14.984375 27.296875 
Q 14.984375 17.28125 19.8125 11.734375 
Q 24.65625 6.203125 33.40625 6.203125 
Q 37.3125 6.203125 41.140625 7.25 
Q 44.96875 8.296875 48.78125 10.40625 
L 48.78125 2.09375 
Q 45.015625 0.34375 40.984375 -0.53125 
Q 36.96875 -1.421875 32.421875 -1.421875 
Q 20.0625 -1.421875 12.78125 6.34375 
Q 5.515625 14.109375 5.515625 27.296875 
Q 5.515625 40.671875 12.859375 48.328125 
Q 20.21875 56 33.015625 56 
Q 37.15625 56 41.109375 55.140625 
Q 45.0625 54.296875 48.78125 52.59375 
z
" id="DejaVuSans-63"/>
     <path d="M 45.40625 46.390625 
L 45.40625 75.984375 
L 54.390625 75.984375 
L 54.390625 0 
L 45.40625 0 
L 45.40625 8.203125 
Q 42.578125 3.328125 38.25 0.953125 
Q 33.9375 -1.421875 27.875 -1.421875 
Q 17.96875 -1.421875 11.734375 6.484375 
Q 5.515625 14.40625 5.515625 27.296875 
Q 5.515625 40.1875 11.734375 48.09375 
Q 17.96875 56 27.875 56 
Q 33.9375 56 38.25 53.625 
Q 42.578125 51.265625 45.40625 46.390625 
z
M 14.796875 27.296875 
Q 14.796875 17.390625 18.875 11.75 
Q 22.953125 6.109375 30.078125 6.109375 
Q 37.203125 6.109375 41.296875 11.75 
Q 45.40625 17.390625 45.40625 27.296875 
Q 45.40625 37.203125 41.296875 42.84375 
Q 37.203125 48.484375 30.078125 48.484375 
Q 22.953125 48.484375 18.875 42.84375 
Q 14.796875 37.203125 14.796875 27.296875 
z
" id="DejaVuSans-64"/>
     <path d="M 10.984375 1.515625 
L 10.984375 10.5 
Q 14.703125 8.734375 18.5 7.8125 
Q 22.3125 6.890625 25.984375 6.890625 
Q 35.75 6.890625 40.890625 13.453125 
Q 46.046875 20.015625 46.78125 33.40625 
Q 43.953125 29.203125 39.59375 26.953125 
Q 35.25 24.703125 29.984375 24.703125 
Q 19.046875 24.703125 12.671875 31.3125 
Q 6.296875 37.9375 6.296875 49.421875 
Q 6.296875 60.640625 12.9375 67.421875 
Q 19.578125 74.21875 30.609375 74.21875 
Q 43.265625 74.21875 49.921875 64.515625 
Q 56.59375 54.828125 56.59375 36.375 
Q 56.59375 19.140625 48.40625 8.859375 
Q 40.234375 -1.421875 26.421875 -1.421875 
Q 22.703125 -1.421875 18.890625 -0.6875 
Q 15.09375 0.046875 10.984375 1.515625 
z
M 30.609375 32.421875 
Q 37.25 32.421875 41.125 36.953125 
Q 45.015625 41.5 45.015625 49.421875 
Q 45.015625 57.28125 41.125 61.84375 
Q 37.25 66.40625 30.609375 66.40625 
Q 23.96875 66.40625 20.09375 61.84375 
Q 16.21875 57.28125 16.21875 49.421875 
Q 16.21875 41.5 20.09375 36.953125 
Q 23.96875 32.421875 30.609375 32.421875 
z
" id="DejaVuSans-39"/>
    </defs>
    <g transform="translate(104.533125 35.472)scale(0.12 -0.12)">
     <use xlink:href="#DejaVuSans-41"/>
     <use x="68.330078" xlink:href="#DejaVuSans-76"/>
     <use x="127.509766" xlink:href="#DejaVuSans-65"/>
     <use x="189.033203" xlink:href="#DejaVuSans-72"/>
     <use x="230.146484" xlink:href="#DejaVuSans-61"/>
     <use x="291.425781" xlink:href="#DejaVuSans-67"/>
     <use x="354.902344" xlink:href="#DejaVuSans-65"/>
     <use x="416.425781" xlink:href="#DejaVuSans-20"/>
     <use x="448.212891" xlink:href="#DejaVuSans-66"/>
     <use x="483.417969" xlink:href="#DejaVuSans-69"/>
     <use x="511.201172" xlink:href="#DejaVuSans-74"/>
     <use x="550.410156" xlink:href="#DejaVuSans-6e"/>
     <use x="613.789062" xlink:href="#DejaVuSans-65"/>
     <use x="675.3125" xlink:href="#DejaVuSans-73"/>
     <use x="727.412109" xlink:href="#DejaVuSans-73"/>
     <use x="779.511719" xlink:href="#DejaVuSans-20"/>
     <use x="811.298828" xlink:href="#DejaVuSans-6f"/>
     <use x="872.480469" xlink:href="#DejaVuSans-76"/>
     <use x="931.660156" xlink:href="#DejaVuSans-65"/>
     <use x="993.183594" xlink:href="#DejaVuSans-72"/>
     <use x="1034.296875" xlink:href="#DejaVuSans-20"/>
     <use x="1066.083984" xlink:href="#DejaVuSans-33"/>
     <use x="1129.707031" xlink:href="#DejaVuSans-30"/>
     <use x="1193.330078" xlink:href="#DejaVuSans-20"/>
     <use x="1225.117188" xlink:href="#DejaVuSans-73"/>
     <use x="1277.216797" xlink:href="#DejaVuSans-65"/>
     <use x="1338.740234" xlink:href="#DejaVuSans-63"/>
     <use x="1393.720703" xlink:href="#DejaVuSans-6f"/>
     <use x="1454.902344" xlink:href="#DejaVuSans-6e"/>
     <use x="1518.28125" xlink:href="#DejaVuSans-64"/>
     <use x="1581.757812" xlink:href="#DejaVuSans-73"/>
     <use x="1633.857422" xlink:href="#DejaVuSans-20"/>
     <use x="1665.644531" xlink:href="#DejaVuSans-66"/>
     <use x="1700.849609" xlink:href="#DejaVuSans-6f"/>
     <use x="1762.03125" xlink:href="#DejaVuSans-72"/>
     <use x="1803.144531" xlink:href="#DejaVuSans-32"/>
     <use x="1866.767578" xlink:href="#DejaVuSans-39"/>
     <use x="1930.390625" xlink:href="#DejaVuSans-63"/>
     <use x="1985.371094" xlink:href="#DejaVuSans-69"/>
     <use x="2013.154297" xlink:href="#DejaVuSans-74"/>
     <use x="2052.363281" xlink:href="#DejaVuSans-69"/>
     <use x="2080.146484" xlink:href="#DejaVuSans-65"/>
     <use x="2141.669922" xlink:href="#DejaVuSans-73"/>
    </g>
   </g>
   <g id="legend_1">
    <g id="patch_7">
     <path d="M 105.75125 78.82825 
L 407.72 78.82825 
Q 409.72 78.82825 409.72 76.82825 
L 409.72 48.472 
Q 409.72 46.472 407.72 46.472 
L 105.75125 46.472 
Q 103.75125 46.472 103.75125 48.472 
L 103.75125 76.82825 
Q 103.75125 78.82825 105.75125 78.82825 
z
" style="fill:#ffffff;opacity:0.8;stroke:#cccccc;stroke-linejoin:miter;"/>
    </g>
    <g id="patch_8">
     <path d="M 107.75125 58.070437 
L 127.75125 58.070437 
L 127.75125 51.070437 
L 107.75125 51.070437 
z
" style="fill:#87ceeb;stroke:#87ceeb;stroke-linejoin:miter;"/>
    </g>
    <g id="text_18">
     <!-- Parallel min, 2051.96 Last Generation number 1847.0 -->
     <defs>
      <path d="M 19.671875 64.796875 
L 19.671875 37.40625 
L 32.078125 37.40625 
Q 38.96875 37.40625 42.71875 40.96875 
Q 46.484375 44.53125 46.484375 51.125 
Q 46.484375 57.671875 42.71875 61.234375 
Q 38.96875 64.796875 32.078125 64.796875 
z
M 9.8125 72.90625 
L 32.078125 72.90625 
Q 44.34375 72.90625 50.609375 67.359375 
Q 56.890625 61.8125 56.890625 51.125 
Q 56.890625 40.328125 50.609375 34.8125 
Q 44.34375 29.296875 32.078125 29.296875 
L 19.671875 29.296875 
L 19.671875 0 
L 9.8125 0 
z
" id="DejaVuSans-50"/>
      <path d="M 9.421875 75.984375 
L 18.40625 75.984375 
L 18.40625 0 
L 9.421875 0 
z
" id="DejaVuSans-6c"/>
      <path d="M 11.71875 12.40625 
L 22.015625 12.40625 
L 22.015625 4 
L 14.015625 -11.625 
L 7.71875 -11.625 
L 11.71875 4 
z
" id="DejaVuSans-2c"/>
      <path d="M 10.6875 12.40625 
L 21 12.40625 
L 21 0 
L 10.6875 0 
z
" id="DejaVuSans-2e"/>
      <path d="M 33.015625 40.375 
Q 26.375 40.375 22.484375 35.828125 
Q 18.609375 31.296875 18.609375 23.390625 
Q 18.609375 15.53125 22.484375 10.953125 
Q 26.375 6.390625 33.015625 6.390625 
Q 39.65625 6.390625 43.53125 10.953125 
Q 47.40625 15.53125 47.40625 23.390625 
Q 47.40625 31.296875 43.53125 35.828125 
Q 39.65625 40.375 33.015625 40.375 
z
M 52.59375 71.296875 
L 52.59375 62.3125 
Q 48.875 64.0625 45.09375 64.984375 
Q 41.3125 65.921875 37.59375 65.921875 
Q 27.828125 65.921875 22.671875 59.328125 
Q 17.53125 52.734375 16.796875 39.40625 
Q 19.671875 43.65625 24.015625 45.921875 
Q 28.375 48.1875 33.59375 48.1875 
Q 44.578125 48.1875 50.953125 41.515625 
Q 57.328125 34.859375 57.328125 23.390625 
Q 57.328125 12.15625 50.6875 5.359375 
Q 44.046875 -1.421875 33.015625 -1.421875 
Q 20.359375 -1.421875 13.671875 8.265625 
Q 6.984375 17.96875 6.984375 36.375 
Q 6.984375 53.65625 15.1875 63.9375 
Q 23.390625 74.21875 37.203125 74.21875 
Q 40.921875 74.21875 44.703125 73.484375 
Q 48.484375 72.75 52.59375 71.296875 
z
" id="DejaVuSans-36"/>
      <path d="M 9.8125 72.90625 
L 19.671875 72.90625 
L 19.671875 8.296875 
L 55.171875 8.296875 
L 55.171875 0 
L 9.8125 0 
z
" id="DejaVuSans-4c"/>
      <path d="M 31.78125 34.625 
Q 24.75 34.625 20.71875 30.859375 
Q 16.703125 27.09375 16.703125 20.515625 
Q 16.703125 13.921875 20.71875 10.15625 
Q 24.75 6.390625 31.78125 6.390625 
Q 38.8125 6.390625 42.859375 10.171875 
Q 46.921875 13.96875 46.921875 20.515625 
Q 46.921875 27.09375 42.890625 30.859375 
Q 38.875 34.625 31.78125 34.625 
z
M 21.921875 38.8125 
Q 15.578125 40.375 12.03125 44.71875 
Q 8.5 49.078125 8.5 55.328125 
Q 8.5 64.0625 14.71875 69.140625 
Q 20.953125 74.21875 31.78125 74.21875 
Q 42.671875 74.21875 48.875 69.140625 
Q 55.078125 64.0625 55.078125 55.328125 
Q 55.078125 49.078125 51.53125 44.71875 
Q 48 40.375 41.703125 38.8125 
Q 48.828125 37.15625 52.796875 32.3125 
Q 56.78125 27.484375 56.78125 20.515625 
Q 56.78125 9.90625 50.3125 4.234375 
Q 43.84375 -1.421875 31.78125 -1.421875 
Q 19.734375 -1.421875 13.25 4.234375 
Q 6.78125 9.90625 6.78125 20.515625 
Q 6.78125 27.484375 10.78125 32.3125 
Q 14.796875 37.15625 21.921875 38.8125 
z
M 18.3125 54.390625 
Q 18.3125 48.734375 21.84375 45.5625 
Q 25.390625 42.390625 31.78125 42.390625 
Q 38.140625 42.390625 41.71875 45.5625 
Q 45.3125 48.734375 45.3125 54.390625 
Q 45.3125 60.0625 41.71875 63.234375 
Q 38.140625 66.40625 31.78125 66.40625 
Q 25.390625 66.40625 21.84375 63.234375 
Q 18.3125 60.0625 18.3125 54.390625 
z
" id="DejaVuSans-38"/>
     </defs>
     <g transform="translate(135.75125 58.070437)scale(0.1 -0.1)">
      <use xlink:href="#DejaVuSans-50"/>
      <use x="60.240234" xlink:href="#DejaVuSans-61"/>
      <use x="121.519531" xlink:href="#DejaVuSans-72"/>
      <use x="162.632812" xlink:href="#DejaVuSans-61"/>
      <use x="223.912109" xlink:href="#DejaVuSans-6c"/>
      <use x="251.695312" xlink:href="#DejaVuSans-6c"/>
      <use x="279.478516" xlink:href="#DejaVuSans-65"/>
      <use x="341.001953" xlink:href="#DejaVuSans-6c"/>
      <use x="368.785156" xlink:href="#DejaVuSans-20"/>
      <use x="400.572266" xlink:href="#DejaVuSans-6d"/>
      <use x="497.984375" xlink:href="#DejaVuSans-69"/>
      <use x="525.767578" xlink:href="#DejaVuSans-6e"/>
      <use x="589.146484" xlink:href="#DejaVuSans-2c"/>
      <use x="620.933594" xlink:href="#DejaVuSans-20"/>
      <use x="652.720703" xlink:href="#DejaVuSans-32"/>
      <use x="716.34375" xlink:href="#DejaVuSans-30"/>
      <use x="779.966797" xlink:href="#DejaVuSans-35"/>
      <use x="843.589844" xlink:href="#DejaVuSans-31"/>
      <use x="907.212891" xlink:href="#DejaVuSans-2e"/>
      <use x="939" xlink:href="#DejaVuSans-39"/>
      <use x="1002.623047" xlink:href="#DejaVuSans-36"/>
      <use x="1066.246094" xlink:href="#DejaVuSans-20"/>
      <use x="1098.033203" xlink:href="#DejaVuSans-4c"/>
      <use x="1153.746094" xlink:href="#DejaVuSans-61"/>
      <use x="1215.025391" xlink:href="#DejaVuSans-73"/>
      <use x="1267.125" xlink:href="#DejaVuSans-74"/>
      <use x="1306.333984" xlink:href="#DejaVuSans-20"/>
      <use x="1338.121094" xlink:href="#DejaVuSans-47"/>
      <use x="1415.611328" xlink:href="#DejaVuSans-65"/>
      <use x="1477.134766" xlink:href="#DejaVuSans-6e"/>
      <use x="1540.513672" xlink:href="#DejaVuSans-65"/>
      <use x="1602.037109" xlink:href="#DejaVuSans-72"/>
      <use x="1643.150391" xlink:href="#DejaVuSans-61"/>
      <use x="1704.429688" xlink:href="#DejaVuSans-74"/>
      <use x="1743.638672" xlink:href="#DejaVuSans-69"/>
      <use x="1771.421875" xlink:href="#DejaVuSans-6f"/>
      <use x="1832.603516" xlink:href="#DejaVuSans-6e"/>
      <use x="1895.982422" xlink:href="#DejaVuSans-20"/>
      <use x="1927.769531" xlink:href="#DejaVuSans-6e"/>
      <use x="1991.148438" xlink:href="#DejaVuSans-75"/>
      <use x="2054.527344" xlink:href="#DejaVuSans-6d"/>
      <use x="2151.939453" xlink:href="#DejaVuSans-62"/>
      <use x="2215.416016" xlink:href="#DejaVuSans-65"/>
      <use x="2276.939453" xlink:href="#DejaVuSans-72"/>
      <use x="2318.052734" xlink:href="#DejaVuSans-20"/>
      <use x="2349.839844" xlink:href="#DejaVuSans-31"/>
      <use x="2413.462891" xlink:href="#DejaVuSans-38"/>
      <use x="2477.085938" xlink:href="#DejaVuSans-34"/>
      <use x="2540.708984" xlink:href="#DejaVuSans-37"/>
      <use x="2604.332031" xlink:href="#DejaVuSans-2e"/>
      <use x="2636.119141" xlink:href="#DejaVuSans-30"/>
     </g>
    </g>
    <g id="patch_9">
     <path d="M 107.75125 72.748562 
L 127.75125 72.748562 
L 127.75125 65.748562 
L 107.75125 65.748562 
z
" style="fill:#ffa500;stroke:#ffa500;stroke-linejoin:miter;"/>
    </g>
    <g id="text_19">
     <!-- Serial min, 2279.34 Last Generation number 609.0 -->
     <defs>
      <path d="M 53.515625 70.515625 
L 53.515625 60.890625 
Q 47.90625 63.578125 42.921875 64.890625 
Q 37.9375 66.21875 33.296875 66.21875 
Q 25.25 66.21875 20.875 63.09375 
Q 16.5 59.96875 16.5 54.203125 
Q 16.5 49.359375 19.40625 46.890625 
Q 22.3125 44.4375 30.421875 42.921875 
L 36.375 41.703125 
Q 47.40625 39.59375 52.65625 34.296875 
Q 57.90625 29 57.90625 20.125 
Q 57.90625 9.515625 50.796875 4.046875 
Q 43.703125 -1.421875 29.984375 -1.421875 
Q 24.8125 -1.421875 18.96875 -0.25 
Q 13.140625 0.921875 6.890625 3.21875 
L 6.890625 13.375 
Q 12.890625 10.015625 18.65625 8.296875 
Q 24.421875 6.59375 29.984375 6.59375 
Q 38.421875 6.59375 43.015625 9.90625 
Q 47.609375 13.234375 47.609375 19.390625 
Q 47.609375 24.75 44.3125 27.78125 
Q 41.015625 30.8125 33.5 32.328125 
L 27.484375 33.5 
Q 16.453125 35.6875 11.515625 40.375 
Q 6.59375 45.0625 6.59375 53.421875 
Q 6.59375 63.09375 13.40625 68.65625 
Q 20.21875 74.21875 32.171875 74.21875 
Q 37.3125 74.21875 42.625 73.28125 
Q 47.953125 72.359375 53.515625 70.515625 
z
" id="DejaVuSans-53"/>
     </defs>
     <g transform="translate(135.75125 72.748562)scale(0.1 -0.1)">
      <use xlink:href="#DejaVuSans-53"/>
      <use x="63.476562" xlink:href="#DejaVuSans-65"/>
      <use x="125" xlink:href="#DejaVuSans-72"/>
      <use x="166.113281" xlink:href="#DejaVuSans-69"/>
      <use x="193.896484" xlink:href="#DejaVuSans-61"/>
      <use x="255.175781" xlink:href="#DejaVuSans-6c"/>
      <use x="282.958984" xlink:href="#DejaVuSans-20"/>
      <use x="314.746094" xlink:href="#DejaVuSans-6d"/>
      <use x="412.158203" xlink:href="#DejaVuSans-69"/>
      <use x="439.941406" xlink:href="#DejaVuSans-6e"/>
      <use x="503.320312" xlink:href="#DejaVuSans-2c"/>
      <use x="535.107422" xlink:href="#DejaVuSans-20"/>
      <use x="566.894531" xlink:href="#DejaVuSans-32"/>
      <use x="630.517578" xlink:href="#DejaVuSans-32"/>
      <use x="694.140625" xlink:href="#DejaVuSans-37"/>
      <use x="757.763672" xlink:href="#DejaVuSans-39"/>
      <use x="821.386719" xlink:href="#DejaVuSans-2e"/>
      <use x="853.173828" xlink:href="#DejaVuSans-33"/>
      <use x="916.796875" xlink:href="#DejaVuSans-34"/>
      <use x="980.419922" xlink:href="#DejaVuSans-20"/>
      <use x="1012.207031" xlink:href="#DejaVuSans-4c"/>
      <use x="1067.919922" xlink:href="#DejaVuSans-61"/>
      <use x="1129.199219" xlink:href="#DejaVuSans-73"/>
      <use x="1181.298828" xlink:href="#DejaVuSans-74"/>
      <use x="1220.507812" xlink:href="#DejaVuSans-20"/>
      <use x="1252.294922" xlink:href="#DejaVuSans-47"/>
      <use x="1329.785156" xlink:href="#DejaVuSans-65"/>
      <use x="1391.308594" xlink:href="#DejaVuSans-6e"/>
      <use x="1454.6875" xlink:href="#DejaVuSans-65"/>
      <use x="1516.210938" xlink:href="#DejaVuSans-72"/>
      <use x="1557.324219" xlink:href="#DejaVuSans-61"/>
      <use x="1618.603516" xlink:href="#DejaVuSans-74"/>
      <use x="1657.8125" xlink:href="#DejaVuSans-69"/>
      <use x="1685.595703" xlink:href="#DejaVuSans-6f"/>
      <use x="1746.777344" xlink:href="#DejaVuSans-6e"/>
      <use x="1810.15625" xlink:href="#DejaVuSans-20"/>
      <use x="1841.943359" xlink:href="#DejaVuSans-6e"/>
      <use x="1905.322266" xlink:href="#DejaVuSans-75"/>
      <use x="1968.701172" xlink:href="#DejaVuSans-6d"/>
      <use x="2066.113281" xlink:href="#DejaVuSans-62"/>
      <use x="2129.589844" xlink:href="#DejaVuSans-65"/>
      <use x="2191.113281" xlink:href="#DejaVuSans-72"/>
      <use x="2232.226562" xlink:href="#DejaVuSans-20"/>
      <use x="2264.013672" xlink:href="#DejaVuSans-36"/>
      <use x="2327.636719" xlink:href="#DejaVuSans-30"/>
      <use x="2391.259766" xlink:href="#DejaVuSans-39"/>
      <use x="2454.882812" xlink:href="#DejaVuSans-2e"/>
      <use x="2486.669922" xlink:href="#DejaVuSans-30"/>
     </g>
    </g>
   </g>
  </g>
 </g>
 <defs>
  <clipPath id="pd78630fa4b">
   <rect height="266.112" width="357.12" x="57.6" y="41.472"/>
  </clipPath>
 </defs>
</svg>
