<?xml version="1.0" encoding="utf-8" standalone="no"?>
<!DOCTYPE svg PUBLIC "-//W3C//DTD SVG 1.1//EN"
  "http://www.w3.org/Graphics/SVG/1.1/DTD/svg11.dtd">
<!-- Created with matplotlib (http://matplotlib.org/) -->
<svg height="345.6pt" version="1.1" viewBox="0 0 460.8 345.6" width="460.8pt" xmlns="http://www.w3.org/2000/svg" xmlns:xlink="http://www.w3.org/1999/xlink">
 <defs>
  <style type="text/css">
*{stroke-linecap:butt;stroke-linejoin:round;}
  </style>
 </defs>
 <g id="figure_1">
  <g id="patch_1">
   <path d="M 0 345.6 
L 460.8 345.6 
L 460.8 0 
L 0 0 
z
" style="fill:#ffffff;"/>
  </g>
  <g id="axes_1">
   <g id="patch_2">
    <path d="M 57.6 307.584 
L 414.72 307.584 
L 414.72 41.472 
L 57.6 41.472 
z
" style="fill:#ffffff;"/>
   </g>
   <g id="matplotlib.axis_1">
    <g id="xtick_1">
     <g id="line2d_1">
      <defs>
       <path d="M 0 0 
L 0 3.5 
" id="mf4d7fb1fc9" style="stroke:#000000;stroke-width:0.8;"/>
      </defs>
      <g>
       <use style="stroke:#000000;stroke-width:0.8;" x="73.590628" xlink:href="#mf4d7fb1fc9" y="307.584"/>
      </g>
     </g>
     <g id="text_1">
      <!-- 0 -->
      <defs>
       <path d="M 31.78125 66.40625 
Q 24.171875 66.40625 20.328125 58.90625 
Q 16.5 51.421875 16.5 36.375 
Q 16.5 21.390625 20.328125 13.890625 
Q 24.171875 6.390625 31.78125 6.390625 
Q 39.453125 6.390625 43.28125 13.890625 
Q 47.125 21.390625 47.125 36.375 
Q 47.125 51.421875 43.28125 58.90625 
Q 39.453125 66.40625 31.78125 66.40625 
z
M 31.78125 74.21875 
Q 44.046875 74.21875 50.515625 64.515625 
Q 56.984375 54.828125 56.984375 36.375 
Q 56.984375 17.96875 50.515625 8.265625 
Q 44.046875 -1.421875 31.78125 -1.421875 
Q 19.53125 -1.421875 13.0625 8.265625 
Q 6.59375 17.96875 6.59375 36.375 
Q 6.59375 54.828125 13.0625 64.515625 
Q 19.53125 74.21875 31.78125 74.21875 
z
" id="DejaVuSans-30"/>
      </defs>
      <g transform="translate(70.409378 322.182437)scale(0.1 -0.1)">
       <use xlink:href="#DejaVuSans-30"/>
      </g>
     </g>
    </g>
    <g id="xtick_2">
     <g id="line2d_2">
      <g>
       <use style="stroke:#000000;stroke-width:0.8;" x="122.010397" xlink:href="#mf4d7fb1fc9" y="307.584"/>
      </g>
     </g>
     <g id="text_2">
      <!-- 200 -->
      <defs>
       <path d="M 19.1875 8.296875 
L 53.609375 8.296875 
L 53.609375 0 
L 7.328125 0 
L 7.328125 8.296875 
Q 12.9375 14.109375 22.625 23.890625 
Q 32.328125 33.6875 34.8125 36.53125 
Q 39.546875 41.84375 41.421875 45.53125 
Q 43.3125 49.21875 43.3125 52.78125 
Q 43.3125 58.59375 39.234375 62.25 
Q 35.15625 65.921875 28.609375 65.921875 
Q 23.96875 65.921875 18.8125 64.3125 
Q 13.671875 62.703125 7.8125 59.421875 
L 7.8125 69.390625 
Q 13.765625 71.78125 18.9375 73 
Q 24.125 74.21875 28.421875 74.21875 
Q 39.75 74.21875 46.484375 68.546875 
Q 53.21875 62.890625 53.21875 53.421875 
Q 53.21875 48.921875 51.53125 44.890625 
Q 49.859375 40.875 45.40625 35.40625 
Q 44.1875 33.984375 37.640625 27.21875 
Q 31.109375 20.453125 19.1875 8.296875 
z
" id="DejaVuSans-32"/>
      </defs>
      <g transform="translate(112.466647 322.182437)scale(0.1 -0.1)">
       <use xlink:href="#DejaVuSans-32"/>
       <use x="63.623047" xlink:href="#DejaVuSans-30"/>
       <use x="127.246094" xlink:href="#DejaVuSans-30"/>
      </g>
     </g>
    </g>
    <g id="xtick_3">
     <g id="line2d_3">
      <g>
       <use style="stroke:#000000;stroke-width:0.8;" x="170.430165" xlink:href="#mf4d7fb1fc9" y="307.584"/>
      </g>
     </g>
     <g id="text_3">
      <!-- 400 -->
      <defs>
       <path d="M 37.796875 64.3125 
L 12.890625 25.390625 
L 37.796875 25.390625 
z
M 35.203125 72.90625 
L 47.609375 72.90625 
L 47.609375 25.390625 
L 58.015625 25.390625 
L 58.015625 17.1875 
L 47.609375 17.1875 
L 47.609375 0 
L 37.796875 0 
L 37.796875 17.1875 
L 4.890625 17.1875 
L 4.890625 26.703125 
z
" id="DejaVuSans-34"/>
      </defs>
      <g transform="translate(160.886415 322.182437)scale(0.1 -0.1)">
       <use xlink:href="#DejaVuSans-34"/>
       <use x="63.623047" xlink:href="#DejaVuSans-30"/>
       <use x="127.246094" xlink:href="#DejaVuSans-30"/>
      </g>
     </g>
    </g>
    <g id="xtick_4">
     <g id="line2d_4">
      <g>
       <use style="stroke:#000000;stroke-width:0.8;" x="218.849933" xlink:href="#mf4d7fb1fc9" y="307.584"/>
      </g>
     </g>
     <g id="text_4">
      <!-- 600 -->
      <defs>
       <path d="M 33.015625 40.375 
Q 26.375 40.375 22.484375 35.828125 
Q 18.609375 31.296875 18.609375 23.390625 
Q 18.609375 15.53125 22.484375 10.953125 
Q 26.375 6.390625 33.015625 6.390625 
Q 39.65625 6.390625 43.53125 10.953125 
Q 47.40625 15.53125 47.40625 23.390625 
Q 47.40625 31.296875 43.53125 35.828125 
Q 39.65625 40.375 33.015625 40.375 
z
M 52.59375 71.296875 
L 52.59375 62.3125 
Q 48.875 64.0625 45.09375 64.984375 
Q 41.3125 65.921875 37.59375 65.921875 
Q 27.828125 65.921875 22.671875 59.328125 
Q 17.53125 52.734375 16.796875 39.40625 
Q 19.671875 43.65625 24.015625 45.921875 
Q 28.375 48.1875 33.59375 48.1875 
Q 44.578125 48.1875 50.953125 41.515625 
Q 57.328125 34.859375 57.328125 23.390625 
Q 57.328125 12.15625 50.6875 5.359375 
Q 44.046875 -1.421875 33.015625 -1.421875 
Q 20.359375 -1.421875 13.671875 8.265625 
Q 6.984375 17.96875 6.984375 36.375 
Q 6.984375 53.65625 15.1875 63.9375 
Q 23.390625 74.21875 37.203125 74.21875 
Q 40.921875 74.21875 44.703125 73.484375 
Q 48.484375 72.75 52.59375 71.296875 
z
" id="DejaVuSans-36"/>
      </defs>
      <g transform="translate(209.306183 322.182437)scale(0.1 -0.1)">
       <use xlink:href="#DejaVuSans-36"/>
       <use x="63.623047" xlink:href="#DejaVuSans-30"/>
       <use x="127.246094" xlink:href="#DejaVuSans-30"/>
      </g>
     </g>
    </g>
    <g id="xtick_5">
     <g id="line2d_5">
      <g>
       <use style="stroke:#000000;stroke-width:0.8;" x="267.269701" xlink:href="#mf4d7fb1fc9" y="307.584"/>
      </g>
     </g>
     <g id="text_5">
      <!-- 800 -->
      <defs>
       <path d="M 31.78125 34.625 
Q 24.75 34.625 20.71875 30.859375 
Q 16.703125 27.09375 16.703125 20.515625 
Q 16.703125 13.921875 20.71875 10.15625 
Q 24.75 6.390625 31.78125 6.390625 
Q 38.8125 6.390625 42.859375 10.171875 
Q 46.921875 13.96875 46.921875 20.515625 
Q 46.921875 27.09375 42.890625 30.859375 
Q 38.875 34.625 31.78125 34.625 
z
M 21.921875 38.8125 
Q 15.578125 40.375 12.03125 44.71875 
Q 8.5 49.078125 8.5 55.328125 
Q 8.5 64.0625 14.71875 69.140625 
Q 20.953125 74.21875 31.78125 74.21875 
Q 42.671875 74.21875 48.875 69.140625 
Q 55.078125 64.0625 55.078125 55.328125 
Q 55.078125 49.078125 51.53125 44.71875 
Q 48 40.375 41.703125 38.8125 
Q 48.828125 37.15625 52.796875 32.3125 
Q 56.78125 27.484375 56.78125 20.515625 
Q 56.78125 9.90625 50.3125 4.234375 
Q 43.84375 -1.421875 31.78125 -1.421875 
Q 19.734375 -1.421875 13.25 4.234375 
Q 6.78125 9.90625 6.78125 20.515625 
Q 6.78125 27.484375 10.78125 32.3125 
Q 14.796875 37.15625 21.921875 38.8125 
z
M 18.3125 54.390625 
Q 18.3125 48.734375 21.84375 45.5625 
Q 25.390625 42.390625 31.78125 42.390625 
Q 38.140625 42.390625 41.71875 45.5625 
Q 45.3125 48.734375 45.3125 54.390625 
Q 45.3125 60.0625 41.71875 63.234375 
Q 38.140625 66.40625 31.78125 66.40625 
Q 25.390625 66.40625 21.84375 63.234375 
Q 18.3125 60.0625 18.3125 54.390625 
z
" id="DejaVuSans-38"/>
      </defs>
      <g transform="translate(257.725951 322.182437)scale(0.1 -0.1)">
       <use xlink:href="#DejaVuSans-38"/>
       <use x="63.623047" xlink:href="#DejaVuSans-30"/>
       <use x="127.246094" xlink:href="#DejaVuSans-30"/>
      </g>
     </g>
    </g>
    <g id="xtick_6">
     <g id="line2d_6">
      <g>
       <use style="stroke:#000000;stroke-width:0.8;" x="315.689469" xlink:href="#mf4d7fb1fc9" y="307.584"/>
      </g>
     </g>
     <g id="text_6">
      <!-- 1000 -->
      <defs>
       <path d="M 12.40625 8.296875 
L 28.515625 8.296875 
L 28.515625 63.921875 
L 10.984375 60.40625 
L 10.984375 69.390625 
L 28.421875 72.90625 
L 38.28125 72.90625 
L 38.28125 8.296875 
L 54.390625 8.296875 
L 54.390625 0 
L 12.40625 0 
z
" id="DejaVuSans-31"/>
      </defs>
      <g transform="translate(302.964469 322.182437)scale(0.1 -0.1)">
       <use xlink:href="#DejaVuSans-31"/>
       <use x="63.623047" xlink:href="#DejaVuSans-30"/>
       <use x="127.246094" xlink:href="#DejaVuSans-30"/>
       <use x="190.869141" xlink:href="#DejaVuSans-30"/>
      </g>
     </g>
    </g>
    <g id="xtick_7">
     <g id="line2d_7">
      <g>
       <use style="stroke:#000000;stroke-width:0.8;" x="364.109237" xlink:href="#mf4d7fb1fc9" y="307.584"/>
      </g>
     </g>
     <g id="text_7">
      <!-- 1200 -->
      <g transform="translate(351.384237 322.182437)scale(0.1 -0.1)">
       <use xlink:href="#DejaVuSans-31"/>
       <use x="63.623047" xlink:href="#DejaVuSans-32"/>
       <use x="127.246094" xlink:href="#DejaVuSans-30"/>
       <use x="190.869141" xlink:href="#DejaVuSans-30"/>
      </g>
     </g>
    </g>
    <g id="xtick_8">
     <g id="line2d_8">
      <g>
       <use style="stroke:#000000;stroke-width:0.8;" x="412.529005" xlink:href="#mf4d7fb1fc9" y="307.584"/>
      </g>
     </g>
     <g id="text_8">
      <!-- 1400 -->
      <g transform="translate(399.804005 322.182437)scale(0.1 -0.1)">
       <use xlink:href="#DejaVuSans-31"/>
       <use x="63.623047" xlink:href="#DejaVuSans-34"/>
       <use x="127.246094" xlink:href="#DejaVuSans-30"/>
       <use x="190.869141" xlink:href="#DejaVuSans-30"/>
      </g>
     </g>
    </g>
    <g id="text_9">
     <!-- Generation number -->
     <defs>
      <path d="M 59.515625 10.40625 
L 59.515625 29.984375 
L 43.40625 29.984375 
L 43.40625 38.09375 
L 69.28125 38.09375 
L 69.28125 6.78125 
Q 63.578125 2.734375 56.6875 0.65625 
Q 49.8125 -1.421875 42 -1.421875 
Q 24.90625 -1.421875 15.25 8.5625 
Q 5.609375 18.5625 5.609375 36.375 
Q 5.609375 54.25 15.25 64.234375 
Q 24.90625 74.21875 42 74.21875 
Q 49.125 74.21875 55.546875 72.453125 
Q 61.96875 70.703125 67.390625 67.28125 
L 67.390625 56.78125 
Q 61.921875 61.421875 55.765625 63.765625 
Q 49.609375 66.109375 42.828125 66.109375 
Q 29.4375 66.109375 22.71875 58.640625 
Q 16.015625 51.171875 16.015625 36.375 
Q 16.015625 21.625 22.71875 14.15625 
Q 29.4375 6.6875 42.828125 6.6875 
Q 48.046875 6.6875 52.140625 7.59375 
Q 56.25 8.5 59.515625 10.40625 
z
" id="DejaVuSans-47"/>
      <path d="M 56.203125 29.59375 
L 56.203125 25.203125 
L 14.890625 25.203125 
Q 15.484375 15.921875 20.484375 11.0625 
Q 25.484375 6.203125 34.421875 6.203125 
Q 39.59375 6.203125 44.453125 7.46875 
Q 49.3125 8.734375 54.109375 11.28125 
L 54.109375 2.78125 
Q 49.265625 0.734375 44.1875 -0.34375 
Q 39.109375 -1.421875 33.890625 -1.421875 
Q 20.796875 -1.421875 13.15625 6.1875 
Q 5.515625 13.8125 5.515625 26.8125 
Q 5.515625 40.234375 12.765625 48.109375 
Q 20.015625 56 32.328125 56 
Q 43.359375 56 49.78125 48.890625 
Q 56.203125 41.796875 56.203125 29.59375 
z
M 47.21875 32.234375 
Q 47.125 39.59375 43.09375 43.984375 
Q 39.0625 48.390625 32.421875 48.390625 
Q 24.90625 48.390625 20.390625 44.140625 
Q 15.875 39.890625 15.1875 32.171875 
z
" id="DejaVuSans-65"/>
      <path d="M 54.890625 33.015625 
L 54.890625 0 
L 45.90625 0 
L 45.90625 32.71875 
Q 45.90625 40.484375 42.875 44.328125 
Q 39.84375 48.1875 33.796875 48.1875 
Q 26.515625 48.1875 22.3125 43.546875 
Q 18.109375 38.921875 18.109375 30.90625 
L 18.109375 0 
L 9.078125 0 
L 9.078125 54.6875 
L 18.109375 54.6875 
L 18.109375 46.1875 
Q 21.34375 51.125 25.703125 53.5625 
Q 30.078125 56 35.796875 56 
Q 45.21875 56 50.046875 50.171875 
Q 54.890625 44.34375 54.890625 33.015625 
z
" id="DejaVuSans-6e"/>
      <path d="M 41.109375 46.296875 
Q 39.59375 47.171875 37.8125 47.578125 
Q 36.03125 48 33.890625 48 
Q 26.265625 48 22.1875 43.046875 
Q 18.109375 38.09375 18.109375 28.8125 
L 18.109375 0 
L 9.078125 0 
L 9.078125 54.6875 
L 18.109375 54.6875 
L 18.109375 46.1875 
Q 20.953125 51.171875 25.484375 53.578125 
Q 30.03125 56 36.53125 56 
Q 37.453125 56 38.578125 55.875 
Q 39.703125 55.765625 41.0625 55.515625 
z
" id="DejaVuSans-72"/>
      <path d="M 34.28125 27.484375 
Q 23.390625 27.484375 19.1875 25 
Q 14.984375 22.515625 14.984375 16.5 
Q 14.984375 11.71875 18.140625 8.90625 
Q 21.296875 6.109375 26.703125 6.109375 
Q 34.1875 6.109375 38.703125 11.40625 
Q 43.21875 16.703125 43.21875 25.484375 
L 43.21875 27.484375 
z
M 52.203125 31.203125 
L 52.203125 0 
L 43.21875 0 
L 43.21875 8.296875 
Q 40.140625 3.328125 35.546875 0.953125 
Q 30.953125 -1.421875 24.3125 -1.421875 
Q 15.921875 -1.421875 10.953125 3.296875 
Q 6 8.015625 6 15.921875 
Q 6 25.140625 12.171875 29.828125 
Q 18.359375 34.515625 30.609375 34.515625 
L 43.21875 34.515625 
L 43.21875 35.40625 
Q 43.21875 41.609375 39.140625 45 
Q 35.0625 48.390625 27.6875 48.390625 
Q 23 48.390625 18.546875 47.265625 
Q 14.109375 46.140625 10.015625 43.890625 
L 10.015625 52.203125 
Q 14.9375 54.109375 19.578125 55.046875 
Q 24.21875 56 28.609375 56 
Q 40.484375 56 46.34375 49.84375 
Q 52.203125 43.703125 52.203125 31.203125 
z
" id="DejaVuSans-61"/>
      <path d="M 18.3125 70.21875 
L 18.3125 54.6875 
L 36.8125 54.6875 
L 36.8125 47.703125 
L 18.3125 47.703125 
L 18.3125 18.015625 
Q 18.3125 11.328125 20.140625 9.421875 
Q 21.96875 7.515625 27.59375 7.515625 
L 36.8125 7.515625 
L 36.8125 0 
L 27.59375 0 
Q 17.1875 0 13.234375 3.875 
Q 9.28125 7.765625 9.28125 18.015625 
L 9.28125 47.703125 
L 2.6875 47.703125 
L 2.6875 54.6875 
L 9.28125 54.6875 
L 9.28125 70.21875 
z
" id="DejaVuSans-74"/>
      <path d="M 9.421875 54.6875 
L 18.40625 54.6875 
L 18.40625 0 
L 9.421875 0 
z
M 9.421875 75.984375 
L 18.40625 75.984375 
L 18.40625 64.59375 
L 9.421875 64.59375 
z
" id="DejaVuSans-69"/>
      <path d="M 30.609375 48.390625 
Q 23.390625 48.390625 19.1875 42.75 
Q 14.984375 37.109375 14.984375 27.296875 
Q 14.984375 17.484375 19.15625 11.84375 
Q 23.34375 6.203125 30.609375 6.203125 
Q 37.796875 6.203125 41.984375 11.859375 
Q 46.1875 17.53125 46.1875 27.296875 
Q 46.1875 37.015625 41.984375 42.703125 
Q 37.796875 48.390625 30.609375 48.390625 
z
M 30.609375 56 
Q 42.328125 56 49.015625 48.375 
Q 55.71875 40.765625 55.71875 27.296875 
Q 55.71875 13.875 49.015625 6.21875 
Q 42.328125 -1.421875 30.609375 -1.421875 
Q 18.84375 -1.421875 12.171875 6.21875 
Q 5.515625 13.875 5.515625 27.296875 
Q 5.515625 40.765625 12.171875 48.375 
Q 18.84375 56 30.609375 56 
z
" id="DejaVuSans-6f"/>
      <path id="DejaVuSans-20"/>
      <path d="M 8.5 21.578125 
L 8.5 54.6875 
L 17.484375 54.6875 
L 17.484375 21.921875 
Q 17.484375 14.15625 20.5 10.265625 
Q 23.53125 6.390625 29.59375 6.390625 
Q 36.859375 6.390625 41.078125 11.03125 
Q 45.3125 15.671875 45.3125 23.6875 
L 45.3125 54.6875 
L 54.296875 54.6875 
L 54.296875 0 
L 45.3125 0 
L 45.3125 8.40625 
Q 42.046875 3.421875 37.71875 1 
Q 33.40625 -1.421875 27.6875 -1.421875 
Q 18.265625 -1.421875 13.375 4.4375 
Q 8.5 10.296875 8.5 21.578125 
z
M 31.109375 56 
z
" id="DejaVuSans-75"/>
      <path d="M 52 44.1875 
Q 55.375 50.25 60.0625 53.125 
Q 64.75 56 71.09375 56 
Q 79.640625 56 84.28125 50.015625 
Q 88.921875 44.046875 88.921875 33.015625 
L 88.921875 0 
L 79.890625 0 
L 79.890625 32.71875 
Q 79.890625 40.578125 77.09375 44.375 
Q 74.3125 48.1875 68.609375 48.1875 
Q 61.625 48.1875 57.5625 43.546875 
Q 53.515625 38.921875 53.515625 30.90625 
L 53.515625 0 
L 44.484375 0 
L 44.484375 32.71875 
Q 44.484375 40.625 41.703125 44.40625 
Q 38.921875 48.1875 33.109375 48.1875 
Q 26.21875 48.1875 22.15625 43.53125 
Q 18.109375 38.875 18.109375 30.90625 
L 18.109375 0 
L 9.078125 0 
L 9.078125 54.6875 
L 18.109375 54.6875 
L 18.109375 46.1875 
Q 21.1875 51.21875 25.484375 53.609375 
Q 29.78125 56 35.6875 56 
Q 41.65625 56 45.828125 52.96875 
Q 50 49.953125 52 44.1875 
z
" id="DejaVuSans-6d"/>
      <path d="M 48.6875 27.296875 
Q 48.6875 37.203125 44.609375 42.84375 
Q 40.53125 48.484375 33.40625 48.484375 
Q 26.265625 48.484375 22.1875 42.84375 
Q 18.109375 37.203125 18.109375 27.296875 
Q 18.109375 17.390625 22.1875 11.75 
Q 26.265625 6.109375 33.40625 6.109375 
Q 40.53125 6.109375 44.609375 11.75 
Q 48.6875 17.390625 48.6875 27.296875 
z
M 18.109375 46.390625 
Q 20.953125 51.265625 25.265625 53.625 
Q 29.59375 56 35.59375 56 
Q 45.5625 56 51.78125 48.09375 
Q 58.015625 40.1875 58.015625 27.296875 
Q 58.015625 14.40625 51.78125 6.484375 
Q 45.5625 -1.421875 35.59375 -1.421875 
Q 29.59375 -1.421875 25.265625 0.953125 
Q 20.953125 3.328125 18.109375 8.203125 
L 18.109375 0 
L 9.078125 0 
L 9.078125 75.984375 
L 18.109375 75.984375 
z
" id="DejaVuSans-62"/>
     </defs>
     <g transform="translate(187.163906 335.860562)scale(0.1 -0.1)">
      <use xlink:href="#DejaVuSans-47"/>
      <use x="77.490234" xlink:href="#DejaVuSans-65"/>
      <use x="139.013672" xlink:href="#DejaVuSans-6e"/>
      <use x="202.392578" xlink:href="#DejaVuSans-65"/>
      <use x="263.916016" xlink:href="#DejaVuSans-72"/>
      <use x="305.029297" xlink:href="#DejaVuSans-61"/>
      <use x="366.308594" xlink:href="#DejaVuSans-74"/>
      <use x="405.517578" xlink:href="#DejaVuSans-69"/>
      <use x="433.300781" xlink:href="#DejaVuSans-6f"/>
      <use x="494.482422" xlink:href="#DejaVuSans-6e"/>
      <use x="557.861328" xlink:href="#DejaVuSans-20"/>
      <use x="589.648438" xlink:href="#DejaVuSans-6e"/>
      <use x="653.027344" xlink:href="#DejaVuSans-75"/>
      <use x="716.40625" xlink:href="#DejaVuSans-6d"/>
      <use x="813.818359" xlink:href="#DejaVuSans-62"/>
      <use x="877.294922" xlink:href="#DejaVuSans-65"/>
      <use x="938.818359" xlink:href="#DejaVuSans-72"/>
     </g>
    </g>
   </g>
   <g id="matplotlib.axis_2">
    <g id="ytick_1">
     <g id="line2d_9">
      <defs>
       <path d="M 0 0 
L -3.5 0 
" id="mbcdb191345" style="stroke:#000000;stroke-width:0.8;"/>
      </defs>
      <g>
       <use style="stroke:#000000;stroke-width:0.8;" x="57.6" xlink:href="#mbcdb191345" y="299.049601"/>
      </g>
     </g>
     <g id="text_10">
      <!-- 2000 -->
      <g transform="translate(25.15 302.84882)scale(0.1 -0.1)">
       <use xlink:href="#DejaVuSans-32"/>
       <use x="63.623047" xlink:href="#DejaVuSans-30"/>
       <use x="127.246094" xlink:href="#DejaVuSans-30"/>
       <use x="190.869141" xlink:href="#DejaVuSans-30"/>
      </g>
     </g>
    </g>
    <g id="ytick_2">
     <g id="line2d_10">
      <g>
       <use style="stroke:#000000;stroke-width:0.8;" x="57.6" xlink:href="#mbcdb191345" y="253.782681"/>
      </g>
     </g>
     <g id="text_11">
      <!-- 2500 -->
      <defs>
       <path d="M 10.796875 72.90625 
L 49.515625 72.90625 
L 49.515625 64.59375 
L 19.828125 64.59375 
L 19.828125 46.734375 
Q 21.96875 47.46875 24.109375 47.828125 
Q 26.265625 48.1875 28.421875 48.1875 
Q 40.625 48.1875 47.75 41.5 
Q 54.890625 34.8125 54.890625 23.390625 
Q 54.890625 11.625 47.5625 5.09375 
Q 40.234375 -1.421875 26.90625 -1.421875 
Q 22.3125 -1.421875 17.546875 -0.640625 
Q 12.796875 0.140625 7.71875 1.703125 
L 7.71875 11.625 
Q 12.109375 9.234375 16.796875 8.0625 
Q 21.484375 6.890625 26.703125 6.890625 
Q 35.15625 6.890625 40.078125 11.328125 
Q 45.015625 15.765625 45.015625 23.390625 
Q 45.015625 31 40.078125 35.4375 
Q 35.15625 39.890625 26.703125 39.890625 
Q 22.75 39.890625 18.8125 39.015625 
Q 14.890625 38.140625 10.796875 36.28125 
z
" id="DejaVuSans-35"/>
      </defs>
      <g transform="translate(25.15 257.5819)scale(0.1 -0.1)">
       <use xlink:href="#DejaVuSans-32"/>
       <use x="63.623047" xlink:href="#DejaVuSans-35"/>
       <use x="127.246094" xlink:href="#DejaVuSans-30"/>
       <use x="190.869141" xlink:href="#DejaVuSans-30"/>
      </g>
     </g>
    </g>
    <g id="ytick_3">
     <g id="line2d_11">
      <g>
       <use style="stroke:#000000;stroke-width:0.8;" x="57.6" xlink:href="#mbcdb191345" y="208.515761"/>
      </g>
     </g>
     <g id="text_12">
      <!-- 3000 -->
      <defs>
       <path d="M 40.578125 39.3125 
Q 47.65625 37.796875 51.625 33 
Q 55.609375 28.21875 55.609375 21.1875 
Q 55.609375 10.40625 48.1875 4.484375 
Q 40.765625 -1.421875 27.09375 -1.421875 
Q 22.515625 -1.421875 17.65625 -0.515625 
Q 12.796875 0.390625 7.625 2.203125 
L 7.625 11.71875 
Q 11.71875 9.328125 16.59375 8.109375 
Q 21.484375 6.890625 26.8125 6.890625 
Q 36.078125 6.890625 40.9375 10.546875 
Q 45.796875 14.203125 45.796875 21.1875 
Q 45.796875 27.640625 41.28125 31.265625 
Q 36.765625 34.90625 28.71875 34.90625 
L 20.21875 34.90625 
L 20.21875 43.015625 
L 29.109375 43.015625 
Q 36.375 43.015625 40.234375 45.921875 
Q 44.09375 48.828125 44.09375 54.296875 
Q 44.09375 59.90625 40.109375 62.90625 
Q 36.140625 65.921875 28.71875 65.921875 
Q 24.65625 65.921875 20.015625 65.03125 
Q 15.375 64.15625 9.8125 62.3125 
L 9.8125 71.09375 
Q 15.4375 72.65625 20.34375 73.4375 
Q 25.25 74.21875 29.59375 74.21875 
Q 40.828125 74.21875 47.359375 69.109375 
Q 53.90625 64.015625 53.90625 55.328125 
Q 53.90625 49.265625 50.4375 45.09375 
Q 46.96875 40.921875 40.578125 39.3125 
z
" id="DejaVuSans-33"/>
      </defs>
      <g transform="translate(25.15 212.31498)scale(0.1 -0.1)">
       <use xlink:href="#DejaVuSans-33"/>
       <use x="63.623047" xlink:href="#DejaVuSans-30"/>
       <use x="127.246094" xlink:href="#DejaVuSans-30"/>
       <use x="190.869141" xlink:href="#DejaVuSans-30"/>
      </g>
     </g>
    </g>
    <g id="ytick_4">
     <g id="line2d_12">
      <g>
       <use style="stroke:#000000;stroke-width:0.8;" x="57.6" xlink:href="#mbcdb191345" y="163.248842"/>
      </g>
     </g>
     <g id="text_13">
      <!-- 3500 -->
      <g transform="translate(25.15 167.04806)scale(0.1 -0.1)">
       <use xlink:href="#DejaVuSans-33"/>
       <use x="63.623047" xlink:href="#DejaVuSans-35"/>
       <use x="127.246094" xlink:href="#DejaVuSans-30"/>
       <use x="190.869141" xlink:href="#DejaVuSans-30"/>
      </g>
     </g>
    </g>
    <g id="ytick_5">
     <g id="line2d_13">
      <g>
       <use style="stroke:#000000;stroke-width:0.8;" x="57.6" xlink:href="#mbcdb191345" y="117.981922"/>
      </g>
     </g>
     <g id="text_14">
      <!-- 4000 -->
      <g transform="translate(25.15 121.78114)scale(0.1 -0.1)">
       <use xlink:href="#DejaVuSans-34"/>
       <use x="63.623047" xlink:href="#DejaVuSans-30"/>
       <use x="127.246094" xlink:href="#DejaVuSans-30"/>
       <use x="190.869141" xlink:href="#DejaVuSans-30"/>
      </g>
     </g>
    </g>
    <g id="ytick_6">
     <g id="line2d_14">
      <g>
       <use style="stroke:#000000;stroke-width:0.8;" x="57.6" xlink:href="#mbcdb191345" y="72.715002"/>
      </g>
     </g>
     <g id="text_15">
      <!-- 4500 -->
      <g transform="translate(25.15 76.514221)scale(0.1 -0.1)">
       <use xlink:href="#DejaVuSans-34"/>
       <use x="63.623047" xlink:href="#DejaVuSans-35"/>
       <use x="127.246094" xlink:href="#DejaVuSans-30"/>
       <use x="190.869141" xlink:href="#DejaVuSans-30"/>
      </g>
     </g>
    </g>
    <g id="text_16">
     <!-- Average fitness -->
     <defs>
      <path d="M 34.1875 63.1875 
L 20.796875 26.90625 
L 47.609375 26.90625 
z
M 28.609375 72.90625 
L 39.796875 72.90625 
L 67.578125 0 
L 57.328125 0 
L 50.6875 18.703125 
L 17.828125 18.703125 
L 11.1875 0 
L 0.78125 0 
z
" id="DejaVuSans-41"/>
      <path d="M 2.984375 54.6875 
L 12.5 54.6875 
L 29.59375 8.796875 
L 46.6875 54.6875 
L 56.203125 54.6875 
L 35.6875 0 
L 23.484375 0 
z
" id="DejaVuSans-76"/>
      <path d="M 45.40625 27.984375 
Q 45.40625 37.75 41.375 43.109375 
Q 37.359375 48.484375 30.078125 48.484375 
Q 22.859375 48.484375 18.828125 43.109375 
Q 14.796875 37.75 14.796875 27.984375 
Q 14.796875 18.265625 18.828125 12.890625 
Q 22.859375 7.515625 30.078125 7.515625 
Q 37.359375 7.515625 41.375 12.890625 
Q 45.40625 18.265625 45.40625 27.984375 
z
M 54.390625 6.78125 
Q 54.390625 -7.171875 48.1875 -13.984375 
Q 42 -20.796875 29.203125 -20.796875 
Q 24.46875 -20.796875 20.265625 -20.09375 
Q 16.0625 -19.390625 12.109375 -17.921875 
L 12.109375 -9.1875 
Q 16.0625 -11.328125 19.921875 -12.34375 
Q 23.78125 -13.375 27.78125 -13.375 
Q 36.625 -13.375 41.015625 -8.765625 
Q 45.40625 -4.15625 45.40625 5.171875 
L 45.40625 9.625 
Q 42.625 4.78125 38.28125 2.390625 
Q 33.9375 0 27.875 0 
Q 17.828125 0 11.671875 7.65625 
Q 5.515625 15.328125 5.515625 27.984375 
Q 5.515625 40.671875 11.671875 48.328125 
Q 17.828125 56 27.875 56 
Q 33.9375 56 38.28125 53.609375 
Q 42.625 51.21875 45.40625 46.390625 
L 45.40625 54.6875 
L 54.390625 54.6875 
z
" id="DejaVuSans-67"/>
      <path d="M 37.109375 75.984375 
L 37.109375 68.5 
L 28.515625 68.5 
Q 23.6875 68.5 21.796875 66.546875 
Q 19.921875 64.59375 19.921875 59.515625 
L 19.921875 54.6875 
L 34.71875 54.6875 
L 34.71875 47.703125 
L 19.921875 47.703125 
L 19.921875 0 
L 10.890625 0 
L 10.890625 47.703125 
L 2.296875 47.703125 
L 2.296875 54.6875 
L 10.890625 54.6875 
L 10.890625 58.5 
Q 10.890625 67.625 15.140625 71.796875 
Q 19.390625 75.984375 28.609375 75.984375 
z
" id="DejaVuSans-66"/>
      <path d="M 44.28125 53.078125 
L 44.28125 44.578125 
Q 40.484375 46.53125 36.375 47.5 
Q 32.28125 48.484375 27.875 48.484375 
Q 21.1875 48.484375 17.84375 46.4375 
Q 14.5 44.390625 14.5 40.28125 
Q 14.5 37.15625 16.890625 35.375 
Q 19.28125 33.59375 26.515625 31.984375 
L 29.59375 31.296875 
Q 39.15625 29.25 43.1875 25.515625 
Q 47.21875 21.78125 47.21875 15.09375 
Q 47.21875 7.46875 41.1875 3.015625 
Q 35.15625 -1.421875 24.609375 -1.421875 
Q 20.21875 -1.421875 15.453125 -0.5625 
Q 10.6875 0.296875 5.421875 2 
L 5.421875 11.28125 
Q 10.40625 8.6875 15.234375 7.390625 
Q 20.0625 6.109375 24.8125 6.109375 
Q 31.15625 6.109375 34.5625 8.28125 
Q 37.984375 10.453125 37.984375 14.40625 
Q 37.984375 18.0625 35.515625 20.015625 
Q 33.0625 21.96875 24.703125 23.78125 
L 21.578125 24.515625 
Q 13.234375 26.265625 9.515625 29.90625 
Q 5.8125 33.546875 5.8125 39.890625 
Q 5.8125 47.609375 11.28125 51.796875 
Q 16.75 56 26.8125 56 
Q 31.78125 56 36.171875 55.265625 
Q 40.578125 54.546875 44.28125 53.078125 
z
" id="DejaVuSans-73"/>
     </defs>
     <g transform="translate(19.070312 213.503781)rotate(-90)scale(0.1 -0.1)">
      <use xlink:href="#DejaVuSans-41"/>
      <use x="68.330078" xlink:href="#DejaVuSans-76"/>
      <use x="127.509766" xlink:href="#DejaVuSans-65"/>
      <use x="189.033203" xlink:href="#DejaVuSans-72"/>
      <use x="230.146484" xlink:href="#DejaVuSans-61"/>
      <use x="291.425781" xlink:href="#DejaVuSans-67"/>
      <use x="354.902344" xlink:href="#DejaVuSans-65"/>
      <use x="416.425781" xlink:href="#DejaVuSans-20"/>
      <use x="448.212891" xlink:href="#DejaVuSans-66"/>
      <use x="483.417969" xlink:href="#DejaVuSans-69"/>
      <use x="511.201172" xlink:href="#DejaVuSans-74"/>
      <use x="550.410156" xlink:href="#DejaVuSans-6e"/>
      <use x="613.789062" xlink:href="#DejaVuSans-65"/>
      <use x="675.3125" xlink:href="#DejaVuSans-73"/>
      <use x="727.412109" xlink:href="#DejaVuSans-73"/>
     </g>
    </g>
   </g>
   <g id="line2d_15">
    <path clip-path="url(#p4d17562f61)" d="M 73.832727 54.559346 
L 74.316925 99.908651 
L 74.801123 117.579951 
L 75.28532 127.657273 
L 76.011617 137.759944 
L 76.980012 146.852258 
L 78.190506 155.444825 
L 79.158902 161.105 
L 80.127297 165.924117 
L 83.032483 177.937957 
L 85.453472 185.349057 
L 88.358658 192.618925 
L 89.569152 195.02803 
L 90.05335 196.122584 
L 90.295448 196.466613 
L 91.263844 198.486423 
L 91.99014 199.788299 
L 92.716437 201.187952 
L 92.958536 201.425151 
L 93.442733 202.497072 
L 93.684832 202.637399 
L 93.926931 203.338131 
L 94.411129 203.93656 
L 94.895326 205.027493 
L 95.379524 205.628637 
L 96.347919 207.210263 
L 101.431995 214.468361 
L 102.40039 215.744889 
L 103.126687 216.533438 
L 103.610885 217.254993 
L 103.852984 217.579104 
L 104.095082 217.709473 
L 104.337181 218.178438 
L 105.305577 219.027646 
L 105.789774 219.680395 
L 106.031873 219.706649 
L 106.516071 220.544993 
L 108.69496 222.672538 
L 109.179158 223.289979 
L 109.905455 224.045031 
L 110.631751 224.707739 
L 111.358048 225.335138 
L 111.600146 225.887395 
L 111.842245 225.84937 
L 114.021135 227.994117 
L 114.263234 227.924406 
L 114.747431 228.705713 
L 114.98953 228.842419 
L 115.231629 229.247105 
L 115.473728 229.220851 
L 115.715827 228.588924 
L 116.442123 230.205859 
L 118.378914 232.193982 
L 118.621013 232.323445 
L 119.347309 233.174463 
L 119.589408 233.187138 
L 120.073606 233.578244 
L 120.315705 233.861615 
L 120.557804 233.841698 
L 120.799902 234.221035 
L 121.042001 234.310663 
L 121.768298 234.98333 
L 122.010397 234.982424 
L 123.220891 235.964716 
L 123.46299 234.10153 
L 123.947187 235.845212 
L 124.189286 236.312366 
L 124.431385 236.391131 
L 125.641879 238.062385 
L 126.368176 238.659003 
L 126.852373 239.165088 
L 127.094472 239.339818 
L 127.336571 239.677509 
L 127.57867 239.79973 
L 127.820769 240.118409 
L 128.062868 240.06771 
L 128.547065 240.594617 
L 128.789164 240.608197 
L 129.515461 241.1514 
L 129.757559 240.419887 
L 130.725955 241.760693 
L 130.968054 242.050401 
L 131.210153 242.130071 
L 131.69435 242.654262 
L 131.936449 242.618954 
L 132.178548 243.018208 
L 132.904844 243.383965 
L 133.389042 243.663714 
L 134.115339 244.229551 
L 134.357437 244.394322 
L 134.599536 244.308315 
L 134.841635 244.395228 
L 135.083734 244.741972 
L 135.325833 244.78905 
L 135.810031 245.145753 
L 136.294228 245.187399 
L 136.536327 245.524184 
L 137.262624 246.003109 
L 137.504722 244.654154 
L 138.473118 246.219484 
L 138.715217 246.367055 
L 138.957315 246.807954 
L 139.441513 246.885813 
L 139.683612 247.287784 
L 139.925711 247.339388 
L 140.409908 247.776666 
L 140.652007 247.683417 
L 141.378304 247.914278 
L 141.620403 248.217566 
L 142.346699 248.366042 
L 142.588798 248.614104 
L 142.830897 248.659371 
L 143.072996 248.979861 
L 143.315095 248.832291 
L 143.557193 248.878463 
L 144.041391 249.366441 
L 144.28349 249.514011 
L 144.525589 249.480513 
L 145.493984 249.969396 
L 145.736083 249.866187 
L 146.462379 250.126925 
L 146.704478 250.452847 
L 148.157071 250.883788 
L 148.641269 251.097448 
L 148.883368 247.968598 
L 149.125467 249.09846 
L 149.367566 243.66643 
L 149.851763 247.043342 
L 150.57806 249.714091 
L 151.062257 250.59589 
L 151.546455 251.489459 
L 152.514851 252.760554 
L 152.756949 252.76327 
L 153.241147 253.352646 
L 154.935839 254.350329 
L 155.177938 254.667197 
L 155.420037 254.668102 
L 155.662135 245.10954 
L 155.904234 242.578213 
L 156.388432 247.306796 
L 156.87263 249.65796 
L 157.356827 251.446003 
L 157.598926 252.032662 
L 157.841025 246.255698 
L 158.325223 250.580499 
L 158.80942 253.394291 
L 159.293618 254.672629 
L 160.019915 256.472442 
L 160.262013 256.722315 
L 160.504112 255.184145 
L 160.746211 256.137467 
L 162.198804 258.704101 
L 163.1672 259.779643 
L 163.409298 259.829437 
L 163.651397 260.112807 
L 164.377694 260.410664 
L 165.346089 260.953867 
L 165.588188 260.904979 
L 165.830287 261.267114 
L 166.556583 261.559538 
L 167.040781 261.947928 
L 167.28288 261.893608 
L 168.009176 262.198707 
L 169.219671 262.808 
L 169.461769 262.817959 
L 169.703868 263.047915 
L 169.945967 263.032524 
L 170.672264 263.424535 
L 171.640659 263.764037 
L 172.851153 264.14609 
L 173.093252 264.06642 
L 173.335351 264.395058 
L 173.57745 264.351602 
L 173.819549 264.424934 
L 174.061647 264.376951 
L 174.787944 264.595138 
L 175.030043 264.412259 
L 175.272142 264.724601 
L 175.51424 264.519995 
L 175.998438 264.819662 
L 176.482636 264.792502 
L 176.724735 264.942788 
L 176.966833 264.870361 
L 177.208932 265.100317 
L 177.451031 265.10937 
L 177.69313 265.244265 
L 177.935229 264.900237 
L 178.177328 265.238833 
L 178.419426 265.1483 
L 178.903624 265.399078 
L 179.145723 265.390025 
L 179.387822 265.494139 
L 179.629921 265.312166 
L 179.87202 250.000178 
L 180.114118 253.952885 
L 180.356217 250.531611 
L 180.840415 255.49015 
L 181.324613 258.231514 
L 181.80881 259.818572 
L 182.293008 261.489827 
L 183.019304 262.333603 
L 183.261403 262.884954 
L 183.503502 253.746468 
L 183.9877 259.207469 
L 184.471897 262.077392 
L 184.956095 263.781239 
L 185.198194 264.209464 
L 185.682392 265.355622 
L 186.408688 266.607705 
L 186.650787 266.511739 
L 187.134985 267.180784 
L 187.619182 267.630737 
L 187.861281 267.73123 
L 189.071775 268.718049 
L 189.313874 268.737061 
L 189.555973 268.925371 
L 189.798072 263.773996 
L 190.524369 267.024161 
L 191.008566 267.86522 
L 191.250665 268.378547 
L 191.492764 268.618462 
L 191.976962 269.268495 
L 192.21906 269.369893 
L 192.703258 269.977375 
L 193.671653 270.333173 
L 193.913752 270.655473 
L 194.155851 270.597531 
L 194.882148 271.111764 
L 195.124246 271.08913 
L 195.608444 271.45036 
L 195.850543 271.379744 
L 197.303136 271.837845 
L 197.545235 271.8641 
L 197.787334 272.092245 
L 198.029433 272.004427 
L 198.271531 272.200886 
L 198.51363 272.134796 
L 198.755729 272.229857 
L 198.997828 272.512322 
L 199.239927 263.501489 
L 199.482026 260.375356 
L 199.966223 264.28008 
L 200.450421 266.575113 
L 200.934619 267.932215 
L 201.418816 268.959774 
L 201.903014 269.69672 
L 202.145113 269.790875 
L 202.629311 270.482553 
L 203.113508 270.934317 
L 203.597706 271.353489 
L 203.839805 271.567149 
L 204.081904 271.507397 
L 204.324002 271.601552 
L 204.566101 271.85052 
L 204.8082 271.926568 
L 205.050299 272.157429 
L 205.292398 272.075949 
L 205.534497 272.498742 
L 206.260793 272.636353 
L 206.744991 272.782113 
L 206.98709 273.04104 
L 207.471287 273.118899 
L 208.197584 273.465643 
L 208.439683 273.435767 
L 208.681782 273.578811 
L 209.165979 273.645806 
L 209.650177 273.82959 
L 209.892276 273.676587 
L 210.134375 273.904733 
L 210.376473 273.849507 
L 210.618572 273.936419 
L 210.860671 273.87214 
L 211.344869 274.241518 
L 211.586968 274.158227 
L 211.829067 274.342916 
L 212.071165 274.339295 
L 212.313264 274.531227 
L 212.555363 274.484149 
L 212.797462 274.604559 
L 213.039561 274.538469 
L 213.28166 274.615423 
L 213.523758 274.571062 
L 214.007956 274.746697 
L 214.250055 274.670649 
L 214.734253 274.991139 
L 214.976351 275.145046 
L 215.21845 274.954925 
L 215.460549 275.044554 
L 215.702648 262.082824 
L 216.186846 267.90415 
L 216.671043 271.015798 
L 217.39734 272.921535 
L 218.365735 274.396331 
L 218.607834 269.673181 
L 219.092032 272.048789 
L 219.334131 273.022028 
L 219.576229 270.018115 
L 220.060427 272.642691 
L 220.544625 274.034196 
L 221.270921 275.122413 
L 221.51302 275.092537 
L 221.755119 275.639361 
L 221.997218 275.616728 
L 222.965613 276.526593 
L 223.449811 276.838029 
L 223.69191 266.595936 
L 224.176107 271.264766 
L 224.660305 273.702842 
L 224.902404 274.313946 
L 225.144503 267.585471 
L 225.6287 271.93019 
L 225.870799 265.004351 
L 226.354997 270.212763 
L 226.839195 273.053714 
L 227.80759 275.54249 
L 228.291788 276.364537 
L 229.744381 277.97785 
L 230.712776 278.333648 
L 230.954875 278.627883 
L 231.196974 278.497514 
L 231.92327 278.962858 
L 232.407468 279.229028 
L 232.649567 279.344006 
L 232.891666 279.26162 
L 233.133764 279.662685 
L 233.617962 279.746881 
L 234.10216 280.029347 
L 234.344259 279.872723 
L 235.070555 279.759556 
L 235.312654 280.100869 
L 235.554753 280.042022 
L 235.796852 280.276504 
L 236.038951 280.332635 
L 236.281049 280.26564 
L 236.523148 280.517324 
L 236.765247 280.368849 
L 237.491544 280.539052 
L 237.733642 280.64045 
L 237.975741 276.442396 
L 238.459939 278.238588 
L 238.702038 278.005916 
L 238.944137 278.361714 
L 239.428334 279.370261 
L 239.670433 279.644578 
L 239.912532 279.748692 
L 240.39673 280.099963 
L 240.880927 280.434033 
L 241.123026 273.703747 
L 241.607224 276.824449 
L 242.091422 278.336364 
L 242.575619 279.336763 
L 243.059817 280.14523 
L 243.301916 280.046548 
L 243.544015 271.422295 
L 244.028212 275.806849 
L 244.270311 277.181152 
L 244.996608 279.057013 
L 245.238707 279.589352 
L 246.207102 280.564402 
L 246.449201 281.064149 
L 246.6913 281.041515 
L 247.175497 281.524966 
L 247.417596 275.165869 
L 247.901794 278.33908 
L 248.385991 280.029347 
L 248.870189 280.815181 
L 249.354387 281.387354 
L 249.596486 281.419947 
L 249.838585 281.792946 
L 250.080683 281.779366 
L 250.322782 282.152365 
L 250.564881 282.237467 
L 250.80698 282.55343 
L 251.049079 282.465612 
L 251.291178 282.649396 
L 251.533276 274.191725 
L 251.775375 276.219683 
L 252.017474 269.983712 
L 252.501672 275.065376 
L 252.985869 277.584933 
L 253.712166 279.404663 
L 253.954265 279.874534 
L 254.438462 280.321771 
L 254.92266 280.917484 
L 256.133154 281.992121 
L 256.375253 282.029239 
L 256.617352 273.87214 
L 257.10155 278.101881 
L 257.585747 280.097247 
L 257.827846 281.265134 
L 258.069945 281.435337 
L 258.554143 282.344297 
L 259.280439 283.124699 
L 259.522538 274.877971 
L 260.006736 279.185571 
L 260.248835 280.242101 
L 261.459329 282.764374 
L 261.701428 283.205274 
L 262.185625 283.546587 
L 262.427724 283.571936 
L 262.911922 284.19843 
L 263.154021 284.42567 
L 263.39612 284.484517 
L 263.880317 284.409374 
L 264.122416 284.914553 
L 265.090811 285.137266 
L 265.33291 285.364506 
L 265.575009 285.240475 
L 265.817108 285.53471 
L 266.059207 285.408868 
L 266.543405 285.58903 
L 266.785503 282.634911 
L 267.269701 283.848064 
L 267.753899 284.579578 
L 267.995998 284.84122 
L 268.480195 284.939902 
L 268.722294 285.379897 
L 268.964393 285.485821 
L 269.206492 279.936097 
L 269.690689 282.668408 
L 270.659085 284.560566 
L 271.143282 285.163521 
L 271.385381 285.223273 
L 272.111678 285.793636 
L 272.595876 285.996432 
L 272.837974 286.127706 
L 273.080073 286.108694 
L 273.322172 286.241779 
L 273.564271 286.133138 
L 274.048469 286.480788 
L 274.290567 286.318733 
L 274.532666 278.258505 
L 275.016864 282.041009 
L 275.501062 283.737613 
L 275.74316 284.333326 
L 275.985259 277.594892 
L 276.469457 281.298631 
L 276.953655 283.214327 
L 277.679951 284.69184 
L 277.92205 285.126402 
L 278.406248 285.630676 
L 278.648347 283.560167 
L 279.132544 284.811344 
L 280.10094 285.869685 
L 280.343038 286.048942 
L 280.585137 286.428279 
L 281.069335 286.566795 
L 281.311434 286.862841 
L 281.553533 286.834776 
L 281.795631 283.312104 
L 282.279829 285.128213 
L 282.764027 285.987379 
L 283.006126 283.119267 
L 283.248225 284.233738 
L 284.21662 286.217335 
L 284.942916 286.636506 
L 285.185015 286.878232 
L 285.669213 287.092797 
L 285.911312 287.427772 
L 286.153411 287.398801 
L 286.879707 287.722913 
L 287.121806 287.686699 
L 287.363905 287.861429 
L 287.606004 287.865956 
L 287.848103 288.119451 
L 288.090201 287.972786 
L 288.3323 288.028012 
L 288.574399 288.220849 
L 288.816498 288.166528 
L 289.058597 288.250725 
L 289.300696 288.18554 
L 289.784893 288.486113 
L 290.026992 288.272453 
L 290.269091 284.653815 
L 290.753289 286.440048 
L 291.237486 287.178804 
L 291.963783 287.830648 
L 293.174277 288.571215 
L 293.416376 288.401916 
L 293.658475 283.847159 
L 294.142672 286.056185 
L 294.62687 287.07469 
L 294.868969 287.349008 
L 295.111068 285.875117 
L 295.595265 287.028518 
L 296.80576 288.5178 
L 297.047858 288.420928 
L 297.289957 288.461669 
L 297.532056 288.753188 
L 297.774155 288.598375 
L 298.258353 289.057381 
L 298.500451 288.976806 
L 298.984649 289.100838 
L 299.710946 289.191371 
L 300.437242 289.474742 
L 300.92144 289.475648 
L 301.405638 289.695645 
L 302.131934 289.92379 
L 302.374033 283.904195 
L 302.616132 285.598083 
L 303.342428 287.893116 
L 303.584527 288.382904 
L 304.068725 288.698867 
L 304.552923 289.306349 
L 304.795021 289.17417 
L 305.03712 289.454825 
L 306.247614 289.797948 
L 308.426504 290.442549 
L 308.910702 290.460656 
L 309.1528 290.699665 
L 309.394899 290.552095 
L 309.636998 290.745837 
L 310.363295 290.608226 
L 310.605394 290.660736 
L 310.847492 290.829129 
L 311.089591 290.738595 
L 311.815888 290.990279 
L 312.057987 290.952255 
L 312.300085 291.028303 
L 312.542184 290.813738 
L 313.268481 290.984847 
L 314.721074 291.081718 
L 314.963173 291.129701 
L 315.205272 290.98032 
L 315.689469 291.305337 
L 316.173667 291.184927 
L 316.415766 291.357846 
L 316.657865 291.252827 
L 316.899963 291.376858 
L 317.384161 291.280892 
L 317.62626 291.402208 
L 317.868359 291.298999 
L 318.110458 291.337929 
L 318.352556 291.225667 
L 318.836754 291.365994 
L 319.320952 282.36512 
L 319.563051 284.367728 
L 319.805149 278.693973 
L 320.289347 283.706831 
L 320.773545 285.896845 
L 321.257743 287.310078 
L 321.499841 287.558141 
L 321.74194 288.134842 
L 322.226138 288.779442 
L 322.468237 288.753188 
L 322.952434 289.367007 
L 325.857621 290.734973 
L 326.099719 290.706003 
L 326.583917 290.875301 
L 328.762807 291.163198 
L 329.247004 291.339739 
L 329.489103 291.225667 
L 330.699597 291.348793 
L 330.941696 291.168631 
L 331.425894 291.543441 
L 331.910092 291.396776 
L 332.15219 291.643028 
L 332.394289 291.459244 
L 332.636388 290.383702 
L 332.878487 290.820981 
L 333.120586 290.738595 
L 333.846882 291.283608 
L 334.088981 291.402208 
L 334.33108 291.35513 
L 334.815278 291.605909 
L 335.057376 291.686484 
L 335.299475 291.625826 
L 336.267871 291.991583 
L 336.509969 291.868457 
L 336.994167 292.169935 
L 337.236266 292.20977 
L 337.478365 281.668009 
L 337.962563 286.434616 
L 338.44676 288.617387 
L 339.173057 289.870375 
L 339.415156 290.266008 
L 339.657254 280.778062 
L 340.141452 285.339157 
L 340.62565 287.621515 
L 341.109847 288.866355 
L 342.562441 290.747648 
L 342.804539 290.878922 
L 343.046638 290.847235 
L 343.288737 291.146902 
L 343.530836 290.936864 
L 343.772935 291.257354 
L 344.74133 291.563358 
L 344.983429 291.927304 
L 345.467627 291.920967 
L 345.951824 292.301209 
L 346.193923 292.150923 
L 346.436022 292.296682 
L 346.678121 292.237835 
L 346.92022 292.522111 
L 347.162318 292.426146 
L 347.404417 292.521206 
L 347.646516 292.422524 
L 347.888615 292.58639 
L 348.130714 292.531165 
L 348.372813 292.633468 
L 348.614912 292.506721 
L 348.85701 292.550177 
L 349.099109 290.021567 
L 349.825406 291.602288 
L 350.067505 291.932736 
L 350.309603 291.98434 
L 350.793801 292.398985 
L 351.0359 292.245078 
L 351.277999 292.610835 
L 351.520098 292.636184 
L 351.762196 292.791902 
L 352.004295 292.726718 
L 352.730592 293.010089 
L 352.972691 292.876099 
L 353.21479 292.884247 
L 353.698987 293.058977 
L 354.183185 292.974781 
L 354.667383 293.168523 
L 355.15158 293.256341 
L 355.393679 289.367912 
L 355.635778 290.339341 
L 356.362074 291.704591 
L 357.088371 292.393553 
L 357.572569 292.485898 
L 358.056766 292.830832 
L 358.540964 293.049924 
L 358.783063 292.881531 
L 359.025162 293.016426 
L 359.267261 292.976591 
L 359.751458 293.202021 
L 359.993557 293.29346 
L 360.235656 293.249098 
L 361.44615 293.672797 
L 361.930348 293.485391 
L 362.172447 293.6565 
L 362.414545 293.498066 
L 362.656644 293.659216 
L 362.898743 293.5207 
L 363.62504 293.771478 
L 364.351336 293.614855 
L 364.593435 293.825799 
L 365.319732 293.644731 
L 365.56183 293.765141 
L 366.288127 293.751561 
L 367.014423 293.814029 
L 367.256522 289.633177 
L 367.74072 291.50089 
L 367.982819 292.278575 
L 368.467016 292.824494 
L 368.709115 289.412274 
L 369.193313 291.373237 
L 369.91961 292.636184 
L 370.645906 292.983834 
L 370.888005 293.180292 
L 371.372203 293.299797 
L 371.614301 293.479054 
L 371.8564 293.455515 
L 372.098499 293.707199 
L 373.066894 293.809503 
L 373.551092 294.078388 
L 373.793191 293.880119 
L 375.972081 294.268509 
L 376.214179 288.145706 
L 376.698377 290.750364 
L 377.182575 292.158165 
L 377.666772 292.781038 
L 377.908871 292.842601 
L 378.393069 293.515268 
L 378.635168 293.5207 
L 379.119365 293.762425 
L 379.603563 293.862918 
L 380.087761 294.281184 
L 380.32986 294.171638 
L 380.571959 288.480681 
L 381.056156 291.095298 
L 381.540354 292.360056 
L 381.782453 292.581864 
L 382.26665 289.172359 
L 382.508749 290.37827 
L 382.750848 288.660843 
L 383.235046 290.737689 
L 383.477145 291.522618 
L 383.719243 291.887469 
L 383.961342 287.81073 
L 384.44554 290.141977 
L 385.171836 291.956275 
L 385.656034 292.637089 
L 386.140232 292.924082 
L 386.382331 292.982929 
L 386.866528 293.490823 
L 387.108627 293.546954 
L 387.834924 294.077483 
L 388.077023 293.93625 
L 388.319121 294.027689 
L 388.56122 294.249497 
L 389.045418 294.248592 
L 389.287517 294.448672 
L 389.529616 294.355422 
L 389.771714 294.560028 
L 390.013813 294.43147 
L 390.255912 294.572703 
L 390.498011 294.532868 
L 390.74011 294.673195 
L 391.224308 294.641509 
L 391.708505 294.733853 
L 392.192703 294.598052 
L 393.645296 295.19467 
L 393.887395 294.951134 
L 394.129494 295.070639 
L 394.613691 295.004549 
L 394.85579 295.168416 
L 395.097889 294.9792 
L 396.066284 295.259855 
L 396.308383 295.135823 
L 396.792581 295.325944 
L 397.03468 295.488 
L 397.518877 295.373022 
L 398.487273 295.344957 
L 398.487273 295.344957 
" style="fill:none;stroke:#1f77b4;stroke-linecap:square;stroke-width:1.5;"/>
   </g>
   <g id="line2d_16">
    <path clip-path="url(#p4d17562f61)" d="M 73.832727 53.568 
L 74.316925 99.810875 
L 74.801123 117.115513 
L 75.28532 126.768231 
L 76.011617 136.430002 
L 76.737913 143.766865 
L 77.706309 151.560923 
L 78.674704 157.610394 
L 79.401001 161.941533 
L 82.306187 174.26681 
L 84.485076 181.28952 
L 88.600757 191.801404 
L 90.05335 194.804411 
L 91.99014 198.722716 
L 92.958536 200.379485 
L 94.895326 203.943803 
L 97.074216 207.636678 
L 97.316315 207.84219 
L 97.800513 208.506708 
L 98.042611 208.800038 
L 98.526809 209.564143 
L 99.011007 210.111873 
L 99.253106 210.730219 
L 99.737303 211.325027 
L 99.979402 211.851933 
L 100.221501 211.879094 
L 100.4636 212.370692 
L 100.705699 212.530032 
L 101.189896 213.228953 
L 102.158292 214.593298 
L 102.40039 214.672968 
L 102.884588 215.402671 
L 103.126687 215.497731 
L 103.368786 215.955832 
L 103.610885 216.174924 
L 104.095082 216.79327 
L 104.337181 216.868414 
L 104.821379 217.534743 
L 105.063478 217.721242 
L 105.547675 218.295227 
L 105.789774 218.66551 
L 106.031873 218.81308 
L 108.69496 221.860449 
L 108.937059 221.912054 
L 109.179158 222.091311 
L 109.663356 222.70513 
L 109.905455 222.715089 
L 110.147553 223.126113 
L 110.631751 223.495491 
L 111.115949 223.978941 
L 111.358048 224.237868 
L 111.600146 224.314822 
L 112.326443 225.186663 
L 112.568542 223.309896 
L 113.052739 225.51349 
L 113.779036 227.477169 
L 114.263234 228.20325 
L 114.747431 229.130317 
L 115.957926 230.742724 
L 116.200024 230.950047 
L 116.442123 231.457942 
L 116.684222 231.500493 
L 118.136815 232.808707 
L 118.378914 232.979816 
L 118.621013 233.325655 
L 118.863112 233.399893 
L 119.347309 234.027292 
L 120.315705 234.680041 
L 120.557804 234.886458 
L 120.799902 234.906376 
L 121.2841 235.491224 
L 121.526199 235.834348 
L 121.768298 235.895911 
L 122.978792 236.988654 
L 123.705088 237.349884 
L 124.189286 237.798932 
L 124.431385 238.110368 
L 124.673484 238.215388 
L 124.915583 236.191051 
L 125.157682 237.160668 
L 125.39978 237.623296 
L 125.641879 238.412751 
L 128.304966 241.501766 
L 128.547065 241.72629 
L 128.789164 241.779705 
L 129.031263 242.015998 
L 129.273362 242.426116 
L 129.757559 242.651546 
L 133.146943 244.771848 
L 133.389042 232.449287 
L 133.87324 238.962292 
L 134.357437 242.408915 
L 134.841635 244.570863 
L 135.567932 246.666722 
L 135.810031 243.93441 
L 136.294228 246.076441 
L 136.778426 247.882591 
L 137.020525 244.22774 
L 137.262624 245.746898 
L 137.504722 244.638764 
L 138.231019 248.074523 
L 138.957315 249.933182 
L 139.683612 251.308392 
L 140.16781 251.897767 
L 140.652007 252.313317 
L 140.894106 252.624754 
L 141.136205 252.720719 
L 141.378304 253.159809 
L 142.1046 253.657745 
L 143.072996 254.442673 
L 143.315095 254.46078 
L 144.28349 255.282827 
L 144.525589 255.206779 
L 145.251885 255.858622 
L 146.462379 256.327588 
L 147.188676 256.853589 
L 147.672874 256.914247 
L 148.39917 257.220251 
L 148.641269 257.292678 
L 149.125467 257.554321 
L 150.335961 257.932753 
L 150.57806 258.191679 
L 150.820159 258.090281 
L 151.062257 258.271349 
L 151.788554 258.334723 
L 152.030653 258.51398 
L 152.272752 258.48863 
L 152.514851 258.659739 
L 152.756949 258.666077 
L 152.999048 258.805499 
L 153.241147 258.80912 
L 153.483246 258.691426 
L 155.662135 259.580468 
L 155.904234 259.561456 
L 156.146333 246.741865 
L 156.630531 252.669115 
L 157.356827 256.509561 
L 157.841025 257.950859 
L 158.80942 259.902769 
L 160.019915 261.35131 
L 160.504112 261.660031 
L 160.746211 250.237376 
L 161.230409 255.675744 
L 161.714606 258.485009 
L 162.683002 261.173864 
L 163.893496 263.254332 
L 164.377694 263.706096 
L 165.346089 264.396869 
L 165.830287 264.80246 
L 166.314484 264.992581 
L 167.040781 265.323935 
L 167.767077 265.648046 
L 168.009176 265.849937 
L 168.251275 265.891582 
L 168.493374 266.066313 
L 168.735473 266.095284 
L 169.219671 266.296269 
L 169.461769 266.298985 
L 169.703868 266.626717 
L 169.945967 266.465567 
L 170.188066 266.635771 
L 170.430165 266.663836 
L 170.430165 266.663836 
" style="fill:none;stroke:#ff7f0e;stroke-linecap:square;stroke-width:1.5;"/>
   </g>
   <g id="patch_3">
    <path d="M 57.6 307.584 
L 57.6 41.472 
" style="fill:none;stroke:#000000;stroke-linecap:square;stroke-linejoin:miter;stroke-width:0.8;"/>
   </g>
   <g id="patch_4">
    <path d="M 414.72 307.584 
L 414.72 41.472 
" style="fill:none;stroke:#000000;stroke-linecap:square;stroke-linejoin:miter;stroke-width:0.8;"/>
   </g>
   <g id="patch_5">
    <path d="M 57.6 307.584 
L 414.72 307.584 
" style="fill:none;stroke:#000000;stroke-linecap:square;stroke-linejoin:miter;stroke-width:0.8;"/>
   </g>
   <g id="patch_6">
    <path d="M 57.6 41.472 
L 414.72 41.472 
" style="fill:none;stroke:#000000;stroke-linecap:square;stroke-linejoin:miter;stroke-width:0.8;"/>
   </g>
   <g id="text_17">
    <!-- Average fitness over 30 seconds for29cities -->
    <defs>
     <path d="M 48.78125 52.59375 
L 48.78125 44.1875 
Q 44.96875 46.296875 41.140625 47.34375 
Q 37.3125 48.390625 33.40625 48.390625 
Q 24.65625 48.390625 19.8125 42.84375 
Q 14.984375 37.3125 14.984375 27.296875 
Q 14.984375 17.28125 19.8125 11.734375 
Q 24.65625 6.203125 33.40625 6.203125 
Q 37.3125 6.203125 41.140625 7.25 
Q 44.96875 8.296875 48.78125 10.40625 
L 48.78125 2.09375 
Q 45.015625 0.34375 40.984375 -0.53125 
Q 36.96875 -1.421875 32.421875 -1.421875 
Q 20.0625 -1.421875 12.78125 6.34375 
Q 5.515625 14.109375 5.515625 27.296875 
Q 5.515625 40.671875 12.859375 48.328125 
Q 20.21875 56 33.015625 56 
Q 37.15625 56 41.109375 55.140625 
Q 45.0625 54.296875 48.78125 52.59375 
z
" id="DejaVuSans-63"/>
     <path d="M 45.40625 46.390625 
L 45.40625 75.984375 
L 54.390625 75.984375 
L 54.390625 0 
L 45.40625 0 
L 45.40625 8.203125 
Q 42.578125 3.328125 38.25 0.953125 
Q 33.9375 -1.421875 27.875 -1.421875 
Q 17.96875 -1.421875 11.734375 6.484375 
Q 5.515625 14.40625 5.515625 27.296875 
Q 5.515625 40.1875 11.734375 48.09375 
Q 17.96875 56 27.875 56 
Q 33.9375 56 38.25 53.625 
Q 42.578125 51.265625 45.40625 46.390625 
z
M 14.796875 27.296875 
Q 14.796875 17.390625 18.875 11.75 
Q 22.953125 6.109375 30.078125 6.109375 
Q 37.203125 6.109375 41.296875 11.75 
Q 45.40625 17.390625 45.40625 27.296875 
Q 45.40625 37.203125 41.296875 42.84375 
Q 37.203125 48.484375 30.078125 48.484375 
Q 22.953125 48.484375 18.875 42.84375 
Q 14.796875 37.203125 14.796875 27.296875 
z
" id="DejaVuSans-64"/>
     <path d="M 10.984375 1.515625 
L 10.984375 10.5 
Q 14.703125 8.734375 18.5 7.8125 
Q 22.3125 6.890625 25.984375 6.890625 
Q 35.75 6.890625 40.890625 13.453125 
Q 46.046875 20.015625 46.78125 33.40625 
Q 43.953125 29.203125 39.59375 26.953125 
Q 35.25 24.703125 29.984375 24.703125 
Q 19.046875 24.703125 12.671875 31.3125 
Q 6.296875 37.9375 6.296875 49.421875 
Q 6.296875 60.640625 12.9375 67.421875 
Q 19.578125 74.21875 30.609375 74.21875 
Q 43.265625 74.21875 49.921875 64.515625 
Q 56.59375 54.828125 56.59375 36.375 
Q 56.59375 19.140625 48.40625 8.859375 
Q 40.234375 -1.421875 26.421875 -1.421875 
Q 22.703125 -1.421875 18.890625 -0.6875 
Q 15.09375 0.046875 10.984375 1.515625 
z
M 30.609375 32.421875 
Q 37.25 32.421875 41.125 36.953125 
Q 45.015625 41.5 45.015625 49.421875 
Q 45.015625 57.28125 41.125 61.84375 
Q 37.25 66.40625 30.609375 66.40625 
Q 23.96875 66.40625 20.09375 61.84375 
Q 16.21875 57.28125 16.21875 49.421875 
Q 16.21875 41.5 20.09375 36.953125 
Q 23.96875 32.421875 30.609375 32.421875 
z
" id="DejaVuSans-39"/>
    </defs>
    <g transform="translate(104.533125 35.472)scale(0.12 -0.12)">
     <use xlink:href="#DejaVuSans-41"/>
     <use x="68.330078" xlink:href="#DejaVuSans-76"/>
     <use x="127.509766" xlink:href="#DejaVuSans-65"/>
     <use x="189.033203" xlink:href="#DejaVuSans-72"/>
     <use x="230.146484" xlink:href="#DejaVuSans-61"/>
     <use x="291.425781" xlink:href="#DejaVuSans-67"/>
     <use x="354.902344" xlink:href="#DejaVuSans-65"/>
     <use x="416.425781" xlink:href="#DejaVuSans-20"/>
     <use x="448.212891" xlink:href="#DejaVuSans-66"/>
     <use x="483.417969" xlink:href="#DejaVuSans-69"/>
     <use x="511.201172" xlink:href="#DejaVuSans-74"/>
     <use x="550.410156" xlink:href="#DejaVuSans-6e"/>
     <use x="613.789062" xlink:href="#DejaVuSans-65"/>
     <use x="675.3125" xlink:href="#DejaVuSans-73"/>
     <use x="727.412109" xlink:href="#DejaVuSans-73"/>
     <use x="779.511719" xlink:href="#DejaVuSans-20"/>
     <use x="811.298828" xlink:href="#DejaVuSans-6f"/>
     <use x="872.480469" xlink:href="#DejaVuSans-76"/>
     <use x="931.660156" xlink:href="#DejaVuSans-65"/>
     <use x="993.183594" xlink:href="#DejaVuSans-72"/>
     <use x="1034.296875" xlink:href="#DejaVuSans-20"/>
     <use x="1066.083984" xlink:href="#DejaVuSans-33"/>
     <use x="1129.707031" xlink:href="#DejaVuSans-30"/>
     <use x="1193.330078" xlink:href="#DejaVuSans-20"/>
     <use x="1225.117188" xlink:href="#DejaVuSans-73"/>
     <use x="1277.216797" xlink:href="#DejaVuSans-65"/>
     <use x="1338.740234" xlink:href="#DejaVuSans-63"/>
     <use x="1393.720703" xlink:href="#DejaVuSans-6f"/>
     <use x="1454.902344" xlink:href="#DejaVuSans-6e"/>
     <use x="1518.28125" xlink:href="#DejaVuSans-64"/>
     <use x="1581.757812" xlink:href="#DejaVuSans-73"/>
     <use x="1633.857422" xlink:href="#DejaVuSans-20"/>
     <use x="1665.644531" xlink:href="#DejaVuSans-66"/>
     <use x="1700.849609" xlink:href="#DejaVuSans-6f"/>
     <use x="1762.03125" xlink:href="#DejaVuSans-72"/>
     <use x="1803.144531" xlink:href="#DejaVuSans-32"/>
     <use x="1866.767578" xlink:href="#DejaVuSans-39"/>
     <use x="1930.390625" xlink:href="#DejaVuSans-63"/>
     <use x="1985.371094" xlink:href="#DejaVuSans-69"/>
     <use x="2013.154297" xlink:href="#DejaVuSans-74"/>
     <use x="2052.363281" xlink:href="#DejaVuSans-69"/>
     <use x="2080.146484" xlink:href="#DejaVuSans-65"/>
     <use x="2141.669922" xlink:href="#DejaVuSans-73"/>
    </g>
   </g>
   <g id="legend_1">
    <g id="patch_7">
     <path d="M 105.75125 78.82825 
L 407.72 78.82825 
Q 409.72 78.82825 409.72 76.82825 
L 409.72 48.472 
Q 409.72 46.472 407.72 46.472 
L 105.75125 46.472 
Q 103.75125 46.472 103.75125 48.472 
L 103.75125 76.82825 
Q 103.75125 78.82825 105.75125 78.82825 
z
" style="fill:#ffffff;opacity:0.8;stroke:#cccccc;stroke-linejoin:miter;"/>
    </g>
    <g id="patch_8">
     <path d="M 107.75125 58.070437 
L 127.75125 58.070437 
L 127.75125 51.070437 
L 107.75125 51.070437 
z
" style="fill:#87ceeb;stroke:#87ceeb;stroke-linejoin:miter;"/>
    </g>
    <g id="text_18">
     <!-- Parallel min, 2039.34 Last Generation number 1343.0 -->
     <defs>
      <path d="M 19.671875 64.796875 
L 19.671875 37.40625 
L 32.078125 37.40625 
Q 38.96875 37.40625 42.71875 40.96875 
Q 46.484375 44.53125 46.484375 51.125 
Q 46.484375 57.671875 42.71875 61.234375 
Q 38.96875 64.796875 32.078125 64.796875 
z
M 9.8125 72.90625 
L 32.078125 72.90625 
Q 44.34375 72.90625 50.609375 67.359375 
Q 56.890625 61.8125 56.890625 51.125 
Q 56.890625 40.328125 50.609375 34.8125 
Q 44.34375 29.296875 32.078125 29.296875 
L 19.671875 29.296875 
L 19.671875 0 
L 9.8125 0 
z
" id="DejaVuSans-50"/>
      <path d="M 9.421875 75.984375 
L 18.40625 75.984375 
L 18.40625 0 
L 9.421875 0 
z
" id="DejaVuSans-6c"/>
      <path d="M 11.71875 12.40625 
L 22.015625 12.40625 
L 22.015625 4 
L 14.015625 -11.625 
L 7.71875 -11.625 
L 11.71875 4 
z
" id="DejaVuSans-2c"/>
      <path d="M 10.6875 12.40625 
L 21 12.40625 
L 21 0 
L 10.6875 0 
z
" id="DejaVuSans-2e"/>
      <path d="M 9.8125 72.90625 
L 19.671875 72.90625 
L 19.671875 8.296875 
L 55.171875 8.296875 
L 55.171875 0 
L 9.8125 0 
z
" id="DejaVuSans-4c"/>
     </defs>
     <g transform="translate(135.75125 58.070437)scale(0.1 -0.1)">
      <use xlink:href="#DejaVuSans-50"/>
      <use x="60.240234" xlink:href="#DejaVuSans-61"/>
      <use x="121.519531" xlink:href="#DejaVuSans-72"/>
      <use x="162.632812" xlink:href="#DejaVuSans-61"/>
      <use x="223.912109" xlink:href="#DejaVuSans-6c"/>
      <use x="251.695312" xlink:href="#DejaVuSans-6c"/>
      <use x="279.478516" xlink:href="#DejaVuSans-65"/>
      <use x="341.001953" xlink:href="#DejaVuSans-6c"/>
      <use x="368.785156" xlink:href="#DejaVuSans-20"/>
      <use x="400.572266" xlink:href="#DejaVuSans-6d"/>
      <use x="497.984375" xlink:href="#DejaVuSans-69"/>
      <use x="525.767578" xlink:href="#DejaVuSans-6e"/>
      <use x="589.146484" xlink:href="#DejaVuSans-2c"/>
      <use x="620.933594" xlink:href="#DejaVuSans-20"/>
      <use x="652.720703" xlink:href="#DejaVuSans-32"/>
      <use x="716.34375" xlink:href="#DejaVuSans-30"/>
      <use x="779.966797" xlink:href="#DejaVuSans-33"/>
      <use x="843.589844" xlink:href="#DejaVuSans-39"/>
      <use x="907.212891" xlink:href="#DejaVuSans-2e"/>
      <use x="939" xlink:href="#DejaVuSans-33"/>
      <use x="1002.623047" xlink:href="#DejaVuSans-34"/>
      <use x="1066.246094" xlink:href="#DejaVuSans-20"/>
      <use x="1098.033203" xlink:href="#DejaVuSans-4c"/>
      <use x="1153.746094" xlink:href="#DejaVuSans-61"/>
      <use x="1215.025391" xlink:href="#DejaVuSans-73"/>
      <use x="1267.125" xlink:href="#DejaVuSans-74"/>
      <use x="1306.333984" xlink:href="#DejaVuSans-20"/>
      <use x="1338.121094" xlink:href="#DejaVuSans-47"/>
      <use x="1415.611328" xlink:href="#DejaVuSans-65"/>
      <use x="1477.134766" xlink:href="#DejaVuSans-6e"/>
      <use x="1540.513672" xlink:href="#DejaVuSans-65"/>
      <use x="1602.037109" xlink:href="#DejaVuSans-72"/>
      <use x="1643.150391" xlink:href="#DejaVuSans-61"/>
      <use x="1704.429688" xlink:href="#DejaVuSans-74"/>
      <use x="1743.638672" xlink:href="#DejaVuSans-69"/>
      <use x="1771.421875" xlink:href="#DejaVuSans-6f"/>
      <use x="1832.603516" xlink:href="#DejaVuSans-6e"/>
      <use x="1895.982422" xlink:href="#DejaVuSans-20"/>
      <use x="1927.769531" xlink:href="#DejaVuSans-6e"/>
      <use x="1991.148438" xlink:href="#DejaVuSans-75"/>
      <use x="2054.527344" xlink:href="#DejaVuSans-6d"/>
      <use x="2151.939453" xlink:href="#DejaVuSans-62"/>
      <use x="2215.416016" xlink:href="#DejaVuSans-65"/>
      <use x="2276.939453" xlink:href="#DejaVuSans-72"/>
      <use x="2318.052734" xlink:href="#DejaVuSans-20"/>
      <use x="2349.839844" xlink:href="#DejaVuSans-31"/>
      <use x="2413.462891" xlink:href="#DejaVuSans-33"/>
      <use x="2477.085938" xlink:href="#DejaVuSans-34"/>
      <use x="2540.708984" xlink:href="#DejaVuSans-33"/>
      <use x="2604.332031" xlink:href="#DejaVuSans-2e"/>
      <use x="2636.119141" xlink:href="#DejaVuSans-30"/>
     </g>
    </g>
    <g id="patch_9">
     <path d="M 107.75125 72.748562 
L 127.75125 72.748562 
L 127.75125 65.748562 
L 107.75125 65.748562 
z
" style="fill:#ffa500;stroke:#ffa500;stroke-linejoin:miter;"/>
    </g>
    <g id="text_19">
     <!-- Serial min, 2357.72 Last Generation number 401.0 -->
     <defs>
      <path d="M 53.515625 70.515625 
L 53.515625 60.890625 
Q 47.90625 63.578125 42.921875 64.890625 
Q 37.9375 66.21875 33.296875 66.21875 
Q 25.25 66.21875 20.875 63.09375 
Q 16.5 59.96875 16.5 54.203125 
Q 16.5 49.359375 19.40625 46.890625 
Q 22.3125 44.4375 30.421875 42.921875 
L 36.375 41.703125 
Q 47.40625 39.59375 52.65625 34.296875 
Q 57.90625 29 57.90625 20.125 
Q 57.90625 9.515625 50.796875 4.046875 
Q 43.703125 -1.421875 29.984375 -1.421875 
Q 24.8125 -1.421875 18.96875 -0.25 
Q 13.140625 0.921875 6.890625 3.21875 
L 6.890625 13.375 
Q 12.890625 10.015625 18.65625 8.296875 
Q 24.421875 6.59375 29.984375 6.59375 
Q 38.421875 6.59375 43.015625 9.90625 
Q 47.609375 13.234375 47.609375 19.390625 
Q 47.609375 24.75 44.3125 27.78125 
Q 41.015625 30.8125 33.5 32.328125 
L 27.484375 33.5 
Q 16.453125 35.6875 11.515625 40.375 
Q 6.59375 45.0625 6.59375 53.421875 
Q 6.59375 63.09375 13.40625 68.65625 
Q 20.21875 74.21875 32.171875 74.21875 
Q 37.3125 74.21875 42.625 73.28125 
Q 47.953125 72.359375 53.515625 70.515625 
z
" id="DejaVuSans-53"/>
      <path d="M 8.203125 72.90625 
L 55.078125 72.90625 
L 55.078125 68.703125 
L 28.609375 0 
L 18.3125 0 
L 43.21875 64.59375 
L 8.203125 64.59375 
z
" id="DejaVuSans-37"/>
     </defs>
     <g transform="translate(135.75125 72.748562)scale(0.1 -0.1)">
      <use xlink:href="#DejaVuSans-53"/>
      <use x="63.476562" xlink:href="#DejaVuSans-65"/>
      <use x="125" xlink:href="#DejaVuSans-72"/>
      <use x="166.113281" xlink:href="#DejaVuSans-69"/>
      <use x="193.896484" xlink:href="#DejaVuSans-61"/>
      <use x="255.175781" xlink:href="#DejaVuSans-6c"/>
      <use x="282.958984" xlink:href="#DejaVuSans-20"/>
      <use x="314.746094" xlink:href="#DejaVuSans-6d"/>
      <use x="412.158203" xlink:href="#DejaVuSans-69"/>
      <use x="439.941406" xlink:href="#DejaVuSans-6e"/>
      <use x="503.320312" xlink:href="#DejaVuSans-2c"/>
      <use x="535.107422" xlink:href="#DejaVuSans-20"/>
      <use x="566.894531" xlink:href="#DejaVuSans-32"/>
      <use x="630.517578" xlink:href="#DejaVuSans-33"/>
      <use x="694.140625" xlink:href="#DejaVuSans-35"/>
      <use x="757.763672" xlink:href="#DejaVuSans-37"/>
      <use x="821.386719" xlink:href="#DejaVuSans-2e"/>
      <use x="853.173828" xlink:href="#DejaVuSans-37"/>
      <use x="916.796875" xlink:href="#DejaVuSans-32"/>
      <use x="980.419922" xlink:href="#DejaVuSans-20"/>
      <use x="1012.207031" xlink:href="#DejaVuSans-4c"/>
      <use x="1067.919922" xlink:href="#DejaVuSans-61"/>
      <use x="1129.199219" xlink:href="#DejaVuSans-73"/>
      <use x="1181.298828" xlink:href="#DejaVuSans-74"/>
      <use x="1220.507812" xlink:href="#DejaVuSans-20"/>
      <use x="1252.294922" xlink:href="#DejaVuSans-47"/>
      <use x="1329.785156" xlink:href="#DejaVuSans-65"/>
      <use x="1391.308594" xlink:href="#DejaVuSans-6e"/>
      <use x="1454.6875" xlink:href="#DejaVuSans-65"/>
      <use x="1516.210938" xlink:href="#DejaVuSans-72"/>
      <use x="1557.324219" xlink:href="#DejaVuSans-61"/>
      <use x="1618.603516" xlink:href="#DejaVuSans-74"/>
      <use x="1657.8125" xlink:href="#DejaVuSans-69"/>
      <use x="1685.595703" xlink:href="#DejaVuSans-6f"/>
      <use x="1746.777344" xlink:href="#DejaVuSans-6e"/>
      <use x="1810.15625" xlink:href="#DejaVuSans-20"/>
      <use x="1841.943359" xlink:href="#DejaVuSans-6e"/>
      <use x="1905.322266" xlink:href="#DejaVuSans-75"/>
      <use x="1968.701172" xlink:href="#DejaVuSans-6d"/>
      <use x="2066.113281" xlink:href="#DejaVuSans-62"/>
      <use x="2129.589844" xlink:href="#DejaVuSans-65"/>
      <use x="2191.113281" xlink:href="#DejaVuSans-72"/>
      <use x="2232.226562" xlink:href="#DejaVuSans-20"/>
      <use x="2264.013672" xlink:href="#DejaVuSans-34"/>
      <use x="2327.636719" xlink:href="#DejaVuSans-30"/>
      <use x="2391.259766" xlink:href="#DejaVuSans-31"/>
      <use x="2454.882812" xlink:href="#DejaVuSans-2e"/>
      <use x="2486.669922" xlink:href="#DejaVuSans-30"/>
     </g>
    </g>
   </g>
  </g>
 </g>
 <defs>
  <clipPath id="p4d17562f61">
   <rect height="266.112" width="357.12" x="57.6" y="41.472"/>
  </clipPath>
 </defs>
</svg>
