<?xml version="1.0" encoding="utf-8" standalone="no"?>
<!DOCTYPE svg PUBLIC "-//W3C//DTD SVG 1.1//EN"
  "http://www.w3.org/Graphics/SVG/1.1/DTD/svg11.dtd">
<!-- Created with matplotlib (http://matplotlib.org/) -->
<svg height="345.6pt" version="1.1" viewBox="0 0 460.8 345.6" width="460.8pt" xmlns="http://www.w3.org/2000/svg" xmlns:xlink="http://www.w3.org/1999/xlink">
 <defs>
  <style type="text/css">
*{stroke-linecap:butt;stroke-linejoin:round;}
  </style>
 </defs>
 <g id="figure_1">
  <g id="patch_1">
   <path d="M 0 345.6 
L 460.8 345.6 
L 460.8 0 
L 0 0 
z
" style="fill:#ffffff;"/>
  </g>
  <g id="axes_1">
   <g id="patch_2">
    <path d="M 57.6 307.584 
L 414.72 307.584 
L 414.72 41.472 
L 57.6 41.472 
z
" style="fill:#ffffff;"/>
   </g>
   <g id="matplotlib.axis_1">
    <g id="xtick_1">
     <g id="line2d_1">
      <defs>
       <path d="M 0 0 
L 0 3.5 
" id="m33a539de74" style="stroke:#000000;stroke-width:0.8;"/>
      </defs>
      <g>
       <use style="stroke:#000000;stroke-width:0.8;" x="73.459561" xlink:href="#m33a539de74" y="307.584"/>
      </g>
     </g>
     <g id="text_1">
      <!-- 0 -->
      <defs>
       <path d="M 31.78125 66.40625 
Q 24.171875 66.40625 20.328125 58.90625 
Q 16.5 51.421875 16.5 36.375 
Q 16.5 21.390625 20.328125 13.890625 
Q 24.171875 6.390625 31.78125 6.390625 
Q 39.453125 6.390625 43.28125 13.890625 
Q 47.125 21.390625 47.125 36.375 
Q 47.125 51.421875 43.28125 58.90625 
Q 39.453125 66.40625 31.78125 66.40625 
z
M 31.78125 74.21875 
Q 44.046875 74.21875 50.515625 64.515625 
Q 56.984375 54.828125 56.984375 36.375 
Q 56.984375 17.96875 50.515625 8.265625 
Q 44.046875 -1.421875 31.78125 -1.421875 
Q 19.53125 -1.421875 13.0625 8.265625 
Q 6.59375 17.96875 6.59375 36.375 
Q 6.59375 54.828125 13.0625 64.515625 
Q 19.53125 74.21875 31.78125 74.21875 
z
" id="DejaVuSans-30"/>
      </defs>
      <g transform="translate(70.278311 322.182437)scale(0.1 -0.1)">
       <use xlink:href="#DejaVuSans-30"/>
      </g>
     </g>
    </g>
    <g id="xtick_2">
     <g id="line2d_2">
      <g>
       <use style="stroke:#000000;stroke-width:0.8;" x="148.09279" xlink:href="#m33a539de74" y="307.584"/>
      </g>
     </g>
     <g id="text_2">
      <!-- 200 -->
      <defs>
       <path d="M 19.1875 8.296875 
L 53.609375 8.296875 
L 53.609375 0 
L 7.328125 0 
L 7.328125 8.296875 
Q 12.9375 14.109375 22.625 23.890625 
Q 32.328125 33.6875 34.8125 36.53125 
Q 39.546875 41.84375 41.421875 45.53125 
Q 43.3125 49.21875 43.3125 52.78125 
Q 43.3125 58.59375 39.234375 62.25 
Q 35.15625 65.921875 28.609375 65.921875 
Q 23.96875 65.921875 18.8125 64.3125 
Q 13.671875 62.703125 7.8125 59.421875 
L 7.8125 69.390625 
Q 13.765625 71.78125 18.9375 73 
Q 24.125 74.21875 28.421875 74.21875 
Q 39.75 74.21875 46.484375 68.546875 
Q 53.21875 62.890625 53.21875 53.421875 
Q 53.21875 48.921875 51.53125 44.890625 
Q 49.859375 40.875 45.40625 35.40625 
Q 44.1875 33.984375 37.640625 27.21875 
Q 31.109375 20.453125 19.1875 8.296875 
z
" id="DejaVuSans-32"/>
      </defs>
      <g transform="translate(138.54904 322.182437)scale(0.1 -0.1)">
       <use xlink:href="#DejaVuSans-32"/>
       <use x="63.623047" xlink:href="#DejaVuSans-30"/>
       <use x="127.246094" xlink:href="#DejaVuSans-30"/>
      </g>
     </g>
    </g>
    <g id="xtick_3">
     <g id="line2d_3">
      <g>
       <use style="stroke:#000000;stroke-width:0.8;" x="222.726019" xlink:href="#m33a539de74" y="307.584"/>
      </g>
     </g>
     <g id="text_3">
      <!-- 400 -->
      <defs>
       <path d="M 37.796875 64.3125 
L 12.890625 25.390625 
L 37.796875 25.390625 
z
M 35.203125 72.90625 
L 47.609375 72.90625 
L 47.609375 25.390625 
L 58.015625 25.390625 
L 58.015625 17.1875 
L 47.609375 17.1875 
L 47.609375 0 
L 37.796875 0 
L 37.796875 17.1875 
L 4.890625 17.1875 
L 4.890625 26.703125 
z
" id="DejaVuSans-34"/>
      </defs>
      <g transform="translate(213.182269 322.182437)scale(0.1 -0.1)">
       <use xlink:href="#DejaVuSans-34"/>
       <use x="63.623047" xlink:href="#DejaVuSans-30"/>
       <use x="127.246094" xlink:href="#DejaVuSans-30"/>
      </g>
     </g>
    </g>
    <g id="xtick_4">
     <g id="line2d_4">
      <g>
       <use style="stroke:#000000;stroke-width:0.8;" x="297.359248" xlink:href="#m33a539de74" y="307.584"/>
      </g>
     </g>
     <g id="text_4">
      <!-- 600 -->
      <defs>
       <path d="M 33.015625 40.375 
Q 26.375 40.375 22.484375 35.828125 
Q 18.609375 31.296875 18.609375 23.390625 
Q 18.609375 15.53125 22.484375 10.953125 
Q 26.375 6.390625 33.015625 6.390625 
Q 39.65625 6.390625 43.53125 10.953125 
Q 47.40625 15.53125 47.40625 23.390625 
Q 47.40625 31.296875 43.53125 35.828125 
Q 39.65625 40.375 33.015625 40.375 
z
M 52.59375 71.296875 
L 52.59375 62.3125 
Q 48.875 64.0625 45.09375 64.984375 
Q 41.3125 65.921875 37.59375 65.921875 
Q 27.828125 65.921875 22.671875 59.328125 
Q 17.53125 52.734375 16.796875 39.40625 
Q 19.671875 43.65625 24.015625 45.921875 
Q 28.375 48.1875 33.59375 48.1875 
Q 44.578125 48.1875 50.953125 41.515625 
Q 57.328125 34.859375 57.328125 23.390625 
Q 57.328125 12.15625 50.6875 5.359375 
Q 44.046875 -1.421875 33.015625 -1.421875 
Q 20.359375 -1.421875 13.671875 8.265625 
Q 6.984375 17.96875 6.984375 36.375 
Q 6.984375 53.65625 15.1875 63.9375 
Q 23.390625 74.21875 37.203125 74.21875 
Q 40.921875 74.21875 44.703125 73.484375 
Q 48.484375 72.75 52.59375 71.296875 
z
" id="DejaVuSans-36"/>
      </defs>
      <g transform="translate(287.815498 322.182437)scale(0.1 -0.1)">
       <use xlink:href="#DejaVuSans-36"/>
       <use x="63.623047" xlink:href="#DejaVuSans-30"/>
       <use x="127.246094" xlink:href="#DejaVuSans-30"/>
      </g>
     </g>
    </g>
    <g id="xtick_5">
     <g id="line2d_5">
      <g>
       <use style="stroke:#000000;stroke-width:0.8;" x="371.992476" xlink:href="#m33a539de74" y="307.584"/>
      </g>
     </g>
     <g id="text_5">
      <!-- 800 -->
      <defs>
       <path d="M 31.78125 34.625 
Q 24.75 34.625 20.71875 30.859375 
Q 16.703125 27.09375 16.703125 20.515625 
Q 16.703125 13.921875 20.71875 10.15625 
Q 24.75 6.390625 31.78125 6.390625 
Q 38.8125 6.390625 42.859375 10.171875 
Q 46.921875 13.96875 46.921875 20.515625 
Q 46.921875 27.09375 42.890625 30.859375 
Q 38.875 34.625 31.78125 34.625 
z
M 21.921875 38.8125 
Q 15.578125 40.375 12.03125 44.71875 
Q 8.5 49.078125 8.5 55.328125 
Q 8.5 64.0625 14.71875 69.140625 
Q 20.953125 74.21875 31.78125 74.21875 
Q 42.671875 74.21875 48.875 69.140625 
Q 55.078125 64.0625 55.078125 55.328125 
Q 55.078125 49.078125 51.53125 44.71875 
Q 48 40.375 41.703125 38.8125 
Q 48.828125 37.15625 52.796875 32.3125 
Q 56.78125 27.484375 56.78125 20.515625 
Q 56.78125 9.90625 50.3125 4.234375 
Q 43.84375 -1.421875 31.78125 -1.421875 
Q 19.734375 -1.421875 13.25 4.234375 
Q 6.78125 9.90625 6.78125 20.515625 
Q 6.78125 27.484375 10.78125 32.3125 
Q 14.796875 37.15625 21.921875 38.8125 
z
M 18.3125 54.390625 
Q 18.3125 48.734375 21.84375 45.5625 
Q 25.390625 42.390625 31.78125 42.390625 
Q 38.140625 42.390625 41.71875 45.5625 
Q 45.3125 48.734375 45.3125 54.390625 
Q 45.3125 60.0625 41.71875 63.234375 
Q 38.140625 66.40625 31.78125 66.40625 
Q 25.390625 66.40625 21.84375 63.234375 
Q 18.3125 60.0625 18.3125 54.390625 
z
" id="DejaVuSans-38"/>
      </defs>
      <g transform="translate(362.448726 322.182437)scale(0.1 -0.1)">
       <use xlink:href="#DejaVuSans-38"/>
       <use x="63.623047" xlink:href="#DejaVuSans-30"/>
       <use x="127.246094" xlink:href="#DejaVuSans-30"/>
      </g>
     </g>
    </g>
    <g id="text_6">
     <!-- Generation number -->
     <defs>
      <path d="M 59.515625 10.40625 
L 59.515625 29.984375 
L 43.40625 29.984375 
L 43.40625 38.09375 
L 69.28125 38.09375 
L 69.28125 6.78125 
Q 63.578125 2.734375 56.6875 0.65625 
Q 49.8125 -1.421875 42 -1.421875 
Q 24.90625 -1.421875 15.25 8.5625 
Q 5.609375 18.5625 5.609375 36.375 
Q 5.609375 54.25 15.25 64.234375 
Q 24.90625 74.21875 42 74.21875 
Q 49.125 74.21875 55.546875 72.453125 
Q 61.96875 70.703125 67.390625 67.28125 
L 67.390625 56.78125 
Q 61.921875 61.421875 55.765625 63.765625 
Q 49.609375 66.109375 42.828125 66.109375 
Q 29.4375 66.109375 22.71875 58.640625 
Q 16.015625 51.171875 16.015625 36.375 
Q 16.015625 21.625 22.71875 14.15625 
Q 29.4375 6.6875 42.828125 6.6875 
Q 48.046875 6.6875 52.140625 7.59375 
Q 56.25 8.5 59.515625 10.40625 
z
" id="DejaVuSans-47"/>
      <path d="M 56.203125 29.59375 
L 56.203125 25.203125 
L 14.890625 25.203125 
Q 15.484375 15.921875 20.484375 11.0625 
Q 25.484375 6.203125 34.421875 6.203125 
Q 39.59375 6.203125 44.453125 7.46875 
Q 49.3125 8.734375 54.109375 11.28125 
L 54.109375 2.78125 
Q 49.265625 0.734375 44.1875 -0.34375 
Q 39.109375 -1.421875 33.890625 -1.421875 
Q 20.796875 -1.421875 13.15625 6.1875 
Q 5.515625 13.8125 5.515625 26.8125 
Q 5.515625 40.234375 12.765625 48.109375 
Q 20.015625 56 32.328125 56 
Q 43.359375 56 49.78125 48.890625 
Q 56.203125 41.796875 56.203125 29.59375 
z
M 47.21875 32.234375 
Q 47.125 39.59375 43.09375 43.984375 
Q 39.0625 48.390625 32.421875 48.390625 
Q 24.90625 48.390625 20.390625 44.140625 
Q 15.875 39.890625 15.1875 32.171875 
z
" id="DejaVuSans-65"/>
      <path d="M 54.890625 33.015625 
L 54.890625 0 
L 45.90625 0 
L 45.90625 32.71875 
Q 45.90625 40.484375 42.875 44.328125 
Q 39.84375 48.1875 33.796875 48.1875 
Q 26.515625 48.1875 22.3125 43.546875 
Q 18.109375 38.921875 18.109375 30.90625 
L 18.109375 0 
L 9.078125 0 
L 9.078125 54.6875 
L 18.109375 54.6875 
L 18.109375 46.1875 
Q 21.34375 51.125 25.703125 53.5625 
Q 30.078125 56 35.796875 56 
Q 45.21875 56 50.046875 50.171875 
Q 54.890625 44.34375 54.890625 33.015625 
z
" id="DejaVuSans-6e"/>
      <path d="M 41.109375 46.296875 
Q 39.59375 47.171875 37.8125 47.578125 
Q 36.03125 48 33.890625 48 
Q 26.265625 48 22.1875 43.046875 
Q 18.109375 38.09375 18.109375 28.8125 
L 18.109375 0 
L 9.078125 0 
L 9.078125 54.6875 
L 18.109375 54.6875 
L 18.109375 46.1875 
Q 20.953125 51.171875 25.484375 53.578125 
Q 30.03125 56 36.53125 56 
Q 37.453125 56 38.578125 55.875 
Q 39.703125 55.765625 41.0625 55.515625 
z
" id="DejaVuSans-72"/>
      <path d="M 34.28125 27.484375 
Q 23.390625 27.484375 19.1875 25 
Q 14.984375 22.515625 14.984375 16.5 
Q 14.984375 11.71875 18.140625 8.90625 
Q 21.296875 6.109375 26.703125 6.109375 
Q 34.1875 6.109375 38.703125 11.40625 
Q 43.21875 16.703125 43.21875 25.484375 
L 43.21875 27.484375 
z
M 52.203125 31.203125 
L 52.203125 0 
L 43.21875 0 
L 43.21875 8.296875 
Q 40.140625 3.328125 35.546875 0.953125 
Q 30.953125 -1.421875 24.3125 -1.421875 
Q 15.921875 -1.421875 10.953125 3.296875 
Q 6 8.015625 6 15.921875 
Q 6 25.140625 12.171875 29.828125 
Q 18.359375 34.515625 30.609375 34.515625 
L 43.21875 34.515625 
L 43.21875 35.40625 
Q 43.21875 41.609375 39.140625 45 
Q 35.0625 48.390625 27.6875 48.390625 
Q 23 48.390625 18.546875 47.265625 
Q 14.109375 46.140625 10.015625 43.890625 
L 10.015625 52.203125 
Q 14.9375 54.109375 19.578125 55.046875 
Q 24.21875 56 28.609375 56 
Q 40.484375 56 46.34375 49.84375 
Q 52.203125 43.703125 52.203125 31.203125 
z
" id="DejaVuSans-61"/>
      <path d="M 18.3125 70.21875 
L 18.3125 54.6875 
L 36.8125 54.6875 
L 36.8125 47.703125 
L 18.3125 47.703125 
L 18.3125 18.015625 
Q 18.3125 11.328125 20.140625 9.421875 
Q 21.96875 7.515625 27.59375 7.515625 
L 36.8125 7.515625 
L 36.8125 0 
L 27.59375 0 
Q 17.1875 0 13.234375 3.875 
Q 9.28125 7.765625 9.28125 18.015625 
L 9.28125 47.703125 
L 2.6875 47.703125 
L 2.6875 54.6875 
L 9.28125 54.6875 
L 9.28125 70.21875 
z
" id="DejaVuSans-74"/>
      <path d="M 9.421875 54.6875 
L 18.40625 54.6875 
L 18.40625 0 
L 9.421875 0 
z
M 9.421875 75.984375 
L 18.40625 75.984375 
L 18.40625 64.59375 
L 9.421875 64.59375 
z
" id="DejaVuSans-69"/>
      <path d="M 30.609375 48.390625 
Q 23.390625 48.390625 19.1875 42.75 
Q 14.984375 37.109375 14.984375 27.296875 
Q 14.984375 17.484375 19.15625 11.84375 
Q 23.34375 6.203125 30.609375 6.203125 
Q 37.796875 6.203125 41.984375 11.859375 
Q 46.1875 17.53125 46.1875 27.296875 
Q 46.1875 37.015625 41.984375 42.703125 
Q 37.796875 48.390625 30.609375 48.390625 
z
M 30.609375 56 
Q 42.328125 56 49.015625 48.375 
Q 55.71875 40.765625 55.71875 27.296875 
Q 55.71875 13.875 49.015625 6.21875 
Q 42.328125 -1.421875 30.609375 -1.421875 
Q 18.84375 -1.421875 12.171875 6.21875 
Q 5.515625 13.875 5.515625 27.296875 
Q 5.515625 40.765625 12.171875 48.375 
Q 18.84375 56 30.609375 56 
z
" id="DejaVuSans-6f"/>
      <path id="DejaVuSans-20"/>
      <path d="M 8.5 21.578125 
L 8.5 54.6875 
L 17.484375 54.6875 
L 17.484375 21.921875 
Q 17.484375 14.15625 20.5 10.265625 
Q 23.53125 6.390625 29.59375 6.390625 
Q 36.859375 6.390625 41.078125 11.03125 
Q 45.3125 15.671875 45.3125 23.6875 
L 45.3125 54.6875 
L 54.296875 54.6875 
L 54.296875 0 
L 45.3125 0 
L 45.3125 8.40625 
Q 42.046875 3.421875 37.71875 1 
Q 33.40625 -1.421875 27.6875 -1.421875 
Q 18.265625 -1.421875 13.375 4.4375 
Q 8.5 10.296875 8.5 21.578125 
z
M 31.109375 56 
z
" id="DejaVuSans-75"/>
      <path d="M 52 44.1875 
Q 55.375 50.25 60.0625 53.125 
Q 64.75 56 71.09375 56 
Q 79.640625 56 84.28125 50.015625 
Q 88.921875 44.046875 88.921875 33.015625 
L 88.921875 0 
L 79.890625 0 
L 79.890625 32.71875 
Q 79.890625 40.578125 77.09375 44.375 
Q 74.3125 48.1875 68.609375 48.1875 
Q 61.625 48.1875 57.5625 43.546875 
Q 53.515625 38.921875 53.515625 30.90625 
L 53.515625 0 
L 44.484375 0 
L 44.484375 32.71875 
Q 44.484375 40.625 41.703125 44.40625 
Q 38.921875 48.1875 33.109375 48.1875 
Q 26.21875 48.1875 22.15625 43.53125 
Q 18.109375 38.875 18.109375 30.90625 
L 18.109375 0 
L 9.078125 0 
L 9.078125 54.6875 
L 18.109375 54.6875 
L 18.109375 46.1875 
Q 21.1875 51.21875 25.484375 53.609375 
Q 29.78125 56 35.6875 56 
Q 41.65625 56 45.828125 52.96875 
Q 50 49.953125 52 44.1875 
z
" id="DejaVuSans-6d"/>
      <path d="M 48.6875 27.296875 
Q 48.6875 37.203125 44.609375 42.84375 
Q 40.53125 48.484375 33.40625 48.484375 
Q 26.265625 48.484375 22.1875 42.84375 
Q 18.109375 37.203125 18.109375 27.296875 
Q 18.109375 17.390625 22.1875 11.75 
Q 26.265625 6.109375 33.40625 6.109375 
Q 40.53125 6.109375 44.609375 11.75 
Q 48.6875 17.390625 48.6875 27.296875 
z
M 18.109375 46.390625 
Q 20.953125 51.265625 25.265625 53.625 
Q 29.59375 56 35.59375 56 
Q 45.5625 56 51.78125 48.09375 
Q 58.015625 40.1875 58.015625 27.296875 
Q 58.015625 14.40625 51.78125 6.484375 
Q 45.5625 -1.421875 35.59375 -1.421875 
Q 29.59375 -1.421875 25.265625 0.953125 
Q 20.953125 3.328125 18.109375 8.203125 
L 18.109375 0 
L 9.078125 0 
L 9.078125 75.984375 
L 18.109375 75.984375 
z
" id="DejaVuSans-62"/>
     </defs>
     <g transform="translate(187.163906 335.860562)scale(0.1 -0.1)">
      <use xlink:href="#DejaVuSans-47"/>
      <use x="77.490234" xlink:href="#DejaVuSans-65"/>
      <use x="139.013672" xlink:href="#DejaVuSans-6e"/>
      <use x="202.392578" xlink:href="#DejaVuSans-65"/>
      <use x="263.916016" xlink:href="#DejaVuSans-72"/>
      <use x="305.029297" xlink:href="#DejaVuSans-61"/>
      <use x="366.308594" xlink:href="#DejaVuSans-74"/>
      <use x="405.517578" xlink:href="#DejaVuSans-69"/>
      <use x="433.300781" xlink:href="#DejaVuSans-6f"/>
      <use x="494.482422" xlink:href="#DejaVuSans-6e"/>
      <use x="557.861328" xlink:href="#DejaVuSans-20"/>
      <use x="589.648438" xlink:href="#DejaVuSans-6e"/>
      <use x="653.027344" xlink:href="#DejaVuSans-75"/>
      <use x="716.40625" xlink:href="#DejaVuSans-6d"/>
      <use x="813.818359" xlink:href="#DejaVuSans-62"/>
      <use x="877.294922" xlink:href="#DejaVuSans-65"/>
      <use x="938.818359" xlink:href="#DejaVuSans-72"/>
     </g>
    </g>
   </g>
   <g id="matplotlib.axis_2">
    <g id="ytick_1">
     <g id="line2d_6">
      <defs>
       <path d="M 0 0 
L -3.5 0 
" id="ma1fd5e4d5e" style="stroke:#000000;stroke-width:0.8;"/>
      </defs>
      <g>
       <use style="stroke:#000000;stroke-width:0.8;" x="57.6" xlink:href="#ma1fd5e4d5e" y="307.030914"/>
      </g>
     </g>
     <g id="text_7">
      <!-- 2000 -->
      <g transform="translate(25.15 310.830133)scale(0.1 -0.1)">
       <use xlink:href="#DejaVuSans-32"/>
       <use x="63.623047" xlink:href="#DejaVuSans-30"/>
       <use x="127.246094" xlink:href="#DejaVuSans-30"/>
       <use x="190.869141" xlink:href="#DejaVuSans-30"/>
      </g>
     </g>
    </g>
    <g id="ytick_2">
     <g id="line2d_7">
      <g>
       <use style="stroke:#000000;stroke-width:0.8;" x="57.6" xlink:href="#ma1fd5e4d5e" y="260.222667"/>
      </g>
     </g>
     <g id="text_8">
      <!-- 2500 -->
      <defs>
       <path d="M 10.796875 72.90625 
L 49.515625 72.90625 
L 49.515625 64.59375 
L 19.828125 64.59375 
L 19.828125 46.734375 
Q 21.96875 47.46875 24.109375 47.828125 
Q 26.265625 48.1875 28.421875 48.1875 
Q 40.625 48.1875 47.75 41.5 
Q 54.890625 34.8125 54.890625 23.390625 
Q 54.890625 11.625 47.5625 5.09375 
Q 40.234375 -1.421875 26.90625 -1.421875 
Q 22.3125 -1.421875 17.546875 -0.640625 
Q 12.796875 0.140625 7.71875 1.703125 
L 7.71875 11.625 
Q 12.109375 9.234375 16.796875 8.0625 
Q 21.484375 6.890625 26.703125 6.890625 
Q 35.15625 6.890625 40.078125 11.328125 
Q 45.015625 15.765625 45.015625 23.390625 
Q 45.015625 31 40.078125 35.4375 
Q 35.15625 39.890625 26.703125 39.890625 
Q 22.75 39.890625 18.8125 39.015625 
Q 14.890625 38.140625 10.796875 36.28125 
z
" id="DejaVuSans-35"/>
      </defs>
      <g transform="translate(25.15 264.021885)scale(0.1 -0.1)">
       <use xlink:href="#DejaVuSans-32"/>
       <use x="63.623047" xlink:href="#DejaVuSans-35"/>
       <use x="127.246094" xlink:href="#DejaVuSans-30"/>
       <use x="190.869141" xlink:href="#DejaVuSans-30"/>
      </g>
     </g>
    </g>
    <g id="ytick_3">
     <g id="line2d_8">
      <g>
       <use style="stroke:#000000;stroke-width:0.8;" x="57.6" xlink:href="#ma1fd5e4d5e" y="213.414419"/>
      </g>
     </g>
     <g id="text_9">
      <!-- 3000 -->
      <defs>
       <path d="M 40.578125 39.3125 
Q 47.65625 37.796875 51.625 33 
Q 55.609375 28.21875 55.609375 21.1875 
Q 55.609375 10.40625 48.1875 4.484375 
Q 40.765625 -1.421875 27.09375 -1.421875 
Q 22.515625 -1.421875 17.65625 -0.515625 
Q 12.796875 0.390625 7.625 2.203125 
L 7.625 11.71875 
Q 11.71875 9.328125 16.59375 8.109375 
Q 21.484375 6.890625 26.8125 6.890625 
Q 36.078125 6.890625 40.9375 10.546875 
Q 45.796875 14.203125 45.796875 21.1875 
Q 45.796875 27.640625 41.28125 31.265625 
Q 36.765625 34.90625 28.71875 34.90625 
L 20.21875 34.90625 
L 20.21875 43.015625 
L 29.109375 43.015625 
Q 36.375 43.015625 40.234375 45.921875 
Q 44.09375 48.828125 44.09375 54.296875 
Q 44.09375 59.90625 40.109375 62.90625 
Q 36.140625 65.921875 28.71875 65.921875 
Q 24.65625 65.921875 20.015625 65.03125 
Q 15.375 64.15625 9.8125 62.3125 
L 9.8125 71.09375 
Q 15.4375 72.65625 20.34375 73.4375 
Q 25.25 74.21875 29.59375 74.21875 
Q 40.828125 74.21875 47.359375 69.109375 
Q 53.90625 64.015625 53.90625 55.328125 
Q 53.90625 49.265625 50.4375 45.09375 
Q 46.96875 40.921875 40.578125 39.3125 
z
" id="DejaVuSans-33"/>
      </defs>
      <g transform="translate(25.15 217.213638)scale(0.1 -0.1)">
       <use xlink:href="#DejaVuSans-33"/>
       <use x="63.623047" xlink:href="#DejaVuSans-30"/>
       <use x="127.246094" xlink:href="#DejaVuSans-30"/>
       <use x="190.869141" xlink:href="#DejaVuSans-30"/>
      </g>
     </g>
    </g>
    <g id="ytick_4">
     <g id="line2d_9">
      <g>
       <use style="stroke:#000000;stroke-width:0.8;" x="57.6" xlink:href="#ma1fd5e4d5e" y="166.606172"/>
      </g>
     </g>
     <g id="text_10">
      <!-- 3500 -->
      <g transform="translate(25.15 170.405391)scale(0.1 -0.1)">
       <use xlink:href="#DejaVuSans-33"/>
       <use x="63.623047" xlink:href="#DejaVuSans-35"/>
       <use x="127.246094" xlink:href="#DejaVuSans-30"/>
       <use x="190.869141" xlink:href="#DejaVuSans-30"/>
      </g>
     </g>
    </g>
    <g id="ytick_5">
     <g id="line2d_10">
      <g>
       <use style="stroke:#000000;stroke-width:0.8;" x="57.6" xlink:href="#ma1fd5e4d5e" y="119.797925"/>
      </g>
     </g>
     <g id="text_11">
      <!-- 4000 -->
      <g transform="translate(25.15 123.597144)scale(0.1 -0.1)">
       <use xlink:href="#DejaVuSans-34"/>
       <use x="63.623047" xlink:href="#DejaVuSans-30"/>
       <use x="127.246094" xlink:href="#DejaVuSans-30"/>
       <use x="190.869141" xlink:href="#DejaVuSans-30"/>
      </g>
     </g>
    </g>
    <g id="ytick_6">
     <g id="line2d_11">
      <g>
       <use style="stroke:#000000;stroke-width:0.8;" x="57.6" xlink:href="#ma1fd5e4d5e" y="72.989678"/>
      </g>
     </g>
     <g id="text_12">
      <!-- 4500 -->
      <g transform="translate(25.15 76.788897)scale(0.1 -0.1)">
       <use xlink:href="#DejaVuSans-34"/>
       <use x="63.623047" xlink:href="#DejaVuSans-35"/>
       <use x="127.246094" xlink:href="#DejaVuSans-30"/>
       <use x="190.869141" xlink:href="#DejaVuSans-30"/>
      </g>
     </g>
    </g>
    <g id="text_13">
     <!-- Average fitness -->
     <defs>
      <path d="M 34.1875 63.1875 
L 20.796875 26.90625 
L 47.609375 26.90625 
z
M 28.609375 72.90625 
L 39.796875 72.90625 
L 67.578125 0 
L 57.328125 0 
L 50.6875 18.703125 
L 17.828125 18.703125 
L 11.1875 0 
L 0.78125 0 
z
" id="DejaVuSans-41"/>
      <path d="M 2.984375 54.6875 
L 12.5 54.6875 
L 29.59375 8.796875 
L 46.6875 54.6875 
L 56.203125 54.6875 
L 35.6875 0 
L 23.484375 0 
z
" id="DejaVuSans-76"/>
      <path d="M 45.40625 27.984375 
Q 45.40625 37.75 41.375 43.109375 
Q 37.359375 48.484375 30.078125 48.484375 
Q 22.859375 48.484375 18.828125 43.109375 
Q 14.796875 37.75 14.796875 27.984375 
Q 14.796875 18.265625 18.828125 12.890625 
Q 22.859375 7.515625 30.078125 7.515625 
Q 37.359375 7.515625 41.375 12.890625 
Q 45.40625 18.265625 45.40625 27.984375 
z
M 54.390625 6.78125 
Q 54.390625 -7.171875 48.1875 -13.984375 
Q 42 -20.796875 29.203125 -20.796875 
Q 24.46875 -20.796875 20.265625 -20.09375 
Q 16.0625 -19.390625 12.109375 -17.921875 
L 12.109375 -9.1875 
Q 16.0625 -11.328125 19.921875 -12.34375 
Q 23.78125 -13.375 27.78125 -13.375 
Q 36.625 -13.375 41.015625 -8.765625 
Q 45.40625 -4.15625 45.40625 5.171875 
L 45.40625 9.625 
Q 42.625 4.78125 38.28125 2.390625 
Q 33.9375 0 27.875 0 
Q 17.828125 0 11.671875 7.65625 
Q 5.515625 15.328125 5.515625 27.984375 
Q 5.515625 40.671875 11.671875 48.328125 
Q 17.828125 56 27.875 56 
Q 33.9375 56 38.28125 53.609375 
Q 42.625 51.21875 45.40625 46.390625 
L 45.40625 54.6875 
L 54.390625 54.6875 
z
" id="DejaVuSans-67"/>
      <path d="M 37.109375 75.984375 
L 37.109375 68.5 
L 28.515625 68.5 
Q 23.6875 68.5 21.796875 66.546875 
Q 19.921875 64.59375 19.921875 59.515625 
L 19.921875 54.6875 
L 34.71875 54.6875 
L 34.71875 47.703125 
L 19.921875 47.703125 
L 19.921875 0 
L 10.890625 0 
L 10.890625 47.703125 
L 2.296875 47.703125 
L 2.296875 54.6875 
L 10.890625 54.6875 
L 10.890625 58.5 
Q 10.890625 67.625 15.140625 71.796875 
Q 19.390625 75.984375 28.609375 75.984375 
z
" id="DejaVuSans-66"/>
      <path d="M 44.28125 53.078125 
L 44.28125 44.578125 
Q 40.484375 46.53125 36.375 47.5 
Q 32.28125 48.484375 27.875 48.484375 
Q 21.1875 48.484375 17.84375 46.4375 
Q 14.5 44.390625 14.5 40.28125 
Q 14.5 37.15625 16.890625 35.375 
Q 19.28125 33.59375 26.515625 31.984375 
L 29.59375 31.296875 
Q 39.15625 29.25 43.1875 25.515625 
Q 47.21875 21.78125 47.21875 15.09375 
Q 47.21875 7.46875 41.1875 3.015625 
Q 35.15625 -1.421875 24.609375 -1.421875 
Q 20.21875 -1.421875 15.453125 -0.5625 
Q 10.6875 0.296875 5.421875 2 
L 5.421875 11.28125 
Q 10.40625 8.6875 15.234375 7.390625 
Q 20.0625 6.109375 24.8125 6.109375 
Q 31.15625 6.109375 34.5625 8.28125 
Q 37.984375 10.453125 37.984375 14.40625 
Q 37.984375 18.0625 35.515625 20.015625 
Q 33.0625 21.96875 24.703125 23.78125 
L 21.578125 24.515625 
Q 13.234375 26.265625 9.515625 29.90625 
Q 5.8125 33.546875 5.8125 39.890625 
Q 5.8125 47.609375 11.28125 51.796875 
Q 16.75 56 26.8125 56 
Q 31.78125 56 36.171875 55.265625 
Q 40.578125 54.546875 44.28125 53.078125 
z
" id="DejaVuSans-73"/>
     </defs>
     <g transform="translate(19.070312 213.503781)rotate(-90)scale(0.1 -0.1)">
      <use xlink:href="#DejaVuSans-41"/>
      <use x="68.330078" xlink:href="#DejaVuSans-76"/>
      <use x="127.509766" xlink:href="#DejaVuSans-65"/>
      <use x="189.033203" xlink:href="#DejaVuSans-72"/>
      <use x="230.146484" xlink:href="#DejaVuSans-61"/>
      <use x="291.425781" xlink:href="#DejaVuSans-67"/>
      <use x="354.902344" xlink:href="#DejaVuSans-65"/>
      <use x="416.425781" xlink:href="#DejaVuSans-20"/>
      <use x="448.212891" xlink:href="#DejaVuSans-66"/>
      <use x="483.417969" xlink:href="#DejaVuSans-69"/>
      <use x="511.201172" xlink:href="#DejaVuSans-74"/>
      <use x="550.410156" xlink:href="#DejaVuSans-6e"/>
      <use x="613.789062" xlink:href="#DejaVuSans-65"/>
      <use x="675.3125" xlink:href="#DejaVuSans-73"/>
      <use x="727.412109" xlink:href="#DejaVuSans-73"/>
     </g>
    </g>
   </g>
   <g id="line2d_12">
    <path clip-path="url(#p7db566a58f)" d="M 73.832727 53.568 
L 74.205893 82.205286 
L 74.57906 100.944499 
L 74.952226 111.420185 
L 75.698558 124.553643 
L 76.44489 133.016574 
L 77.191223 139.287007 
L 78.310721 146.888666 
L 79.430219 153.049568 
L 81.669216 162.408409 
L 82.788715 166.514428 
L 84.654545 172.135162 
L 87.639875 179.831374 
L 88.386207 181.292728 
L 88.759373 182.241063 
L 89.132539 182.84957 
L 89.878871 184.525305 
L 91.744702 188.040605 
L 92.117868 188.550815 
L 92.864201 190.048679 
L 95.84953 194.768822 
L 96.222696 195.309926 
L 96.595862 196.071028 
L 96.969028 196.460472 
L 98.461693 198.82897 
L 100.327524 201.16002 
L 100.70069 201.753549 
L 101.073856 202.103675 
L 101.447022 202.72716 
L 102.939687 204.463746 
L 103.312853 205.071317 
L 104.059185 205.930717 
L 105.178683 207.25539 
L 106.298182 208.351639 
L 107.044514 209.33274 
L 108.164013 210.496393 
L 109.283511 211.741493 
L 111.149342 213.397568 
L 111.522508 214.022927 
L 111.895674 214.235436 
L 114.881003 217.396865 
L 115.254169 217.532609 
L 116.373668 218.815155 
L 117.12 219.269195 
L 117.866332 220.098637 
L 118.239498 220.342976 
L 118.612665 220.818548 
L 118.985831 220.786718 
L 120.105329 221.924159 
L 120.478495 222.331391 
L 120.851661 222.470879 
L 121.97116 223.466022 
L 124.210157 225.162353 
L 126.075987 226.54975 
L 126.449154 226.661153 
L 127.195486 227.421319 
L 127.941818 227.751786 
L 128.314984 228.09723 
L 128.68815 224.31606 
L 129.434483 228.468888 
L 130.180815 230.580876 
L 131.67348 233.386562 
L 132.419812 234.368599 
L 132.792978 235.022979 
L 135.405141 237.70041 
L 135.778307 237.766878 
L 136.151473 238.134791 
L 136.897806 238.577597 
L 137.270972 235.008936 
L 137.644138 236.956159 
L 138.763636 239.768399 
L 139.136803 240.493927 
L 139.883135 241.577069 
L 140.629467 236.142632 
L 141.375799 240.125078 
L 142.122132 242.246427 
L 142.495298 243.337996 
L 144.361129 246.054746 
L 145.107461 246.970316 
L 146.226959 247.914906 
L 146.600125 246.021044 
L 146.973292 247.134145 
L 147.346458 247.884013 
L 148.09279 249.019581 
L 148.465956 244.614925 
L 148.839122 246.546233 
L 149.585455 248.804263 
L 150.331787 250.584848 
L 151.451285 252.015309 
L 151.824451 252.698709 
L 154.436614 254.879037 
L 154.809781 254.919292 
L 155.182947 255.320907 
L 155.556113 255.363971 
L 155.929279 255.774011 
L 157.79511 256.740133 
L 158.168276 256.742941 
L 158.541442 257.157663 
L 158.914608 257.31213 
L 159.287774 255.348992 
L 160.034107 256.617495 
L 161.153605 257.691277 
L 162.273103 258.478591 
L 162.64627 258.50574 
L 163.392602 259.073056 
L 163.765768 259.193821 
L 164.885266 259.859435 
L 165.258433 259.83603 
L 166.751097 260.457644 
L 167.870596 260.925726 
L 168.243762 254.789165 
L 168.990094 257.888807 
L 170.109592 260.144029 
L 170.482759 260.841472 
L 172.348589 262.31874 
L 172.721755 262.74844 
L 173.094922 263.004013 
L 173.468088 258.296039 
L 174.960752 261.713977 
L 176.080251 263.112608 
L 176.453417 263.235245 
L 176.826583 263.615328 
L 177.199749 263.763242 
L 177.572915 264.049709 
L 177.946082 264.182644 
L 178.319248 264.563663 
L 179.438746 265.077618 
L 179.811912 265.145958 
L 180.185078 265.479233 
L 180.558245 265.551317 
L 181.304577 265.998804 
L 181.677743 266.062464 
L 182.050909 266.00723 
L 182.424075 266.303994 
L 182.797241 266.313356 
L 183.170408 266.575482 
L 183.543574 266.661609 
L 183.91674 266.947139 
L 184.289906 266.812332 
L 185.782571 267.490115 
L 186.902069 267.724156 
L 187.275235 267.753177 
L 187.648401 267.900155 
L 188.021567 267.865517 
L 188.394734 268.017176 
L 188.7679 268.011559 
L 189.141066 268.236238 
L 189.887398 268.258706 
L 190.260564 268.567641 
L 190.63373 268.402876 
L 191.006897 268.397259 
L 191.753229 268.614449 
L 192.126395 268.830703 
L 192.499561 268.831639 
L 192.872727 268.979553 
L 193.245893 268.988915 
L 193.61906 269.169595 
L 195.858056 269.36619 
L 196.231223 269.50755 
L 196.604389 269.466359 
L 196.977555 269.652656 
L 197.350721 267.115649 
L 197.723887 267.831815 
L 198.097053 261.760786 
L 198.470219 263.913965 
L 199.216552 266.07557 
L 199.589718 267.179308 
L 199.962884 267.733518 
L 200.33605 267.722284 
L 201.455549 269.256658 
L 201.828715 269.388658 
L 202.575047 270.156313 
L 203.694545 270.762012 
L 204.067712 270.732054 
L 204.440878 270.924904 
L 204.814044 270.822862 
L 205.18721 271.270349 
L 205.560376 271.338689 
L 205.933542 271.61673 
L 206.306708 271.728134 
L 206.679875 262.395505 
L 207.426207 266.76646 
L 207.799373 260.949131 
L 208.172539 261.318916 
L 208.545705 263.806306 
L 209.665204 267.697007 
L 211.157868 270.344482 
L 211.531034 270.576651 
L 212.277367 271.271285 
L 213.396865 272.042685 
L 213.770031 263.10231 
L 214.516364 267.323478 
L 214.88953 268.783895 
L 216.009028 271.283455 
L 216.755361 272.080132 
L 217.128527 272.548214 
L 217.501693 272.772894 
L 217.874859 273.483443 
L 218.621191 273.756803 
L 219.74069 274.654585 
L 220.113856 274.737904 
L 221.233354 275.286497 
L 221.60652 275.436283 
L 221.979687 275.817302 
L 223.845517 275.957727 
L 224.218683 276.151513 
L 224.59185 276.202066 
L 225.338182 276.56249 
L 226.45768 276.698233 
L 227.950345 277.349804 
L 228.323511 277.312358 
L 229.069843 277.639079 
L 229.443009 277.654058 
L 229.816176 277.915248 
L 230.562508 277.711164 
L 230.935674 277.874057 
L 231.30884 277.858142 
L 232.055172 278.086566 
L 232.428339 278.168012 
L 232.801505 278.108098 
L 233.547837 278.518138 
L 233.921003 278.545287 
L 234.294169 278.433883 
L 235.413668 278.764349 
L 235.786834 278.62018 
L 236.16 278.873881 
L 236.533166 278.978731 
L 236.906332 278.817711 
L 238.772163 279.148177 
L 239.145329 279.179071 
L 239.518495 279.096688 
L 239.891661 279.227751 
L 240.264828 272.561321 
L 240.637994 271.181413 
L 241.01116 273.038765 
L 241.757492 275.282752 
L 242.130658 276.02045 
L 243.250157 277.496782 
L 243.996489 278.012609 
L 244.742821 278.513457 
L 245.489154 278.804605 
L 245.86232 279.039582 
L 246.235486 279.048007 
L 246.608652 279.276432 
L 246.981818 279.310134 
L 247.72815 279.662132 
L 248.474483 279.790386 
L 248.847649 279.894301 
L 249.220815 273.781143 
L 249.593981 275.699345 
L 250.340313 277.830057 
L 251.086646 279.048007 
L 252.206144 279.937364 
L 252.57931 280.327745 
L 252.952476 280.427915 
L 254.071975 281.082294 
L 255.564639 281.564419 
L 255.937806 281.546632 
L 256.310972 281.783481 
L 256.684138 281.835907 
L 257.057304 282.011906 
L 257.803636 281.953863 
L 258.176803 282.166373 
L 258.549969 282.105522 
L 260.415799 282.534286 
L 260.788966 282.517435 
L 261.162132 282.688753 
L 263.401129 282.990198 
L 263.774295 283.153091 
L 264.147461 283.066027 
L 264.520627 283.111899 
L 264.893793 283.283218 
L 265.266959 283.042623 
L 266.013292 283.403047 
L 266.386458 283.311303 
L 266.759624 283.451727 
L 267.505956 283.360919 
L 267.879122 283.513514 
L 268.252288 283.521004 
L 268.625455 283.65862 
L 268.998621 283.623046 
L 269.371787 283.778449 
L 269.744953 283.698875 
L 270.491285 284.03683 
L 271.237618 283.899214 
L 271.98395 283.837427 
L 274.222947 284.424403 
L 274.596113 284.278361 
L 275.342445 284.41036 
L 275.715611 284.575125 
L 276.088777 284.41036 
L 276.83511 284.457168 
L 277.208276 284.322361 
L 277.581442 284.506785 
L 278.327774 284.51053 
L 278.70094 284.601338 
L 279.074107 284.521764 
L 279.820439 284.673423 
L 280.566771 284.784826 
L 280.939937 284.754869 
L 281.313103 274.773478 
L 282.059436 279.123837 
L 282.805768 281.130038 
L 283.178934 281.833098 
L 284.298433 283.151218 
L 285.417931 283.899214 
L 286.537429 284.529253 
L 286.910596 284.71555 
L 287.656928 284.832571 
L 288.40326 285.240739 
L 288.776426 285.253845 
L 289.522759 285.617077 
L 289.895925 285.488822 
L 290.269091 285.781842 
L 290.642257 285.650779 
L 291.388589 285.986862 
L 291.761755 285.833331 
L 292.134922 285.851118 
L 292.881254 286.21435 
L 293.627586 286.178776 
L 294.000752 286.360392 
L 294.373918 286.356647 
L 294.747085 286.520476 
L 295.120251 286.525157 
L 295.493417 280.461616 
L 295.866583 282.020331 
L 296.986082 284.475892 
L 297.732414 285.208909 
L 298.10558 285.456993 
L 298.478746 285.49912 
L 298.851912 285.898862 
L 299.225078 283.487302 
L 300.344577 285.176143 
L 300.717743 285.617077 
L 301.090909 285.759374 
L 302.210408 286.433413 
L 304.076238 287.205749 
L 304.449404 287.043792 
L 305.568903 287.468811 
L 305.942069 287.515619 
L 306.315235 287.39579 
L 306.688401 287.586768 
L 307.8079 287.662597 
L 308.181066 287.885404 
L 308.554232 287.79366 
L 308.927398 287.964979 
L 309.67373 287.971532 
L 310.046897 285.457929 
L 310.420063 286.452136 
L 310.793229 283.232665 
L 311.166395 284.658444 
L 311.539561 285.358695 
L 313.032226 286.820049 
L 313.778558 287.124302 
L 315.271223 287.831107 
L 316.017555 288.069829 
L 316.390721 287.954681 
L 316.763887 288.155956 
L 317.137053 288.145658 
L 317.883386 288.423699 
L 318.256552 288.605315 
L 318.629718 288.433061 
L 319.002884 288.714847 
L 319.37605 287.148643 
L 319.749216 287.720639 
L 320.495549 288.224296 
L 321.988213 288.839357 
L 322.361379 288.791612 
L 323.854044 289.272801 
L 324.22721 289.122078 
L 325.346708 289.3608 
L 325.719875 278.030396 
L 326.466207 282.771135 
L 326.839373 284.248404 
L 327.585705 286.000904 
L 327.958871 286.605667 
L 328.332038 286.967963 
L 328.705204 282.406967 
L 329.451536 284.855039 
L 329.824702 285.81648 
L 330.571034 286.956729 
L 331.690533 287.827362 
L 332.063699 288.209318 
L 332.436865 288.330083 
L 332.810031 288.600635 
L 333.183197 288.682081 
L 334.302696 289.230674 
L 335.049028 289.215695 
L 335.422194 289.468459 
L 335.795361 289.527438 
L 336.168527 288.469571 
L 337.661191 289.425396 
L 338.034357 289.400119 
L 338.78069 289.711862 
L 339.527022 289.964627 
L 340.273354 289.953393 
L 340.64652 283.946022 
L 341.392853 286.7489 
L 341.766019 287.66447 
L 343.258683 289.281226 
L 343.63185 289.427268 
L 344.378182 289.923436 
L 345.124514 290.19586 
L 345.49768 290.524453 
L 345.870846 290.488879 
L 346.244013 290.611517 
L 346.617179 290.927941 
L 347.363511 290.858664 
L 348.109843 291.076791 
L 348.483009 285.568396 
L 349.229342 288.155956 
L 349.602508 288.889909 
L 349.975674 282.315223 
L 350.34884 284.609763 
L 351.095172 287.218855 
L 351.841505 288.309487 
L 352.214671 288.646507 
L 352.587837 289.161397 
L 352.961003 289.331779 
L 353.334169 286.204988 
L 353.707335 284.718358 
L 354.080502 286.203116 
L 354.826834 288.008042 
L 355.946332 289.342077 
L 356.319498 287.772129 
L 356.692665 288.70174 
L 357.438997 289.644458 
L 358.931661 290.407433 
L 359.677994 290.720112 
L 360.05116 291.021557 
L 360.797492 291.222833 
L 361.170658 291.304279 
L 361.543824 291.513044 
L 363.409655 291.883765 
L 363.782821 291.780787 
L 364.529154 292.213295 
L 364.90232 292.189891 
L 365.275486 292.384613 
L 365.648652 283.44611 
L 366.394984 287.070005 
L 366.76815 288.376891 
L 367.514483 289.674416 
L 368.260815 290.604964 
L 369.007147 291.17228 
L 369.380313 291.394151 
L 369.75348 291.769553 
L 370.126646 291.860361 
L 370.499812 292.098147 
L 370.872978 292.171168 
L 371.246144 281.105698 
L 371.992476 286.195627 
L 372.738809 288.763527 
L 373.111975 289.599523 
L 374.231473 291.076791 
L 375.350972 291.889382 
L 375.724138 292.075679 
L 376.47047 292.678569 
L 376.843636 292.608357 
L 377.216803 292.860185 
L 377.589969 292.854568 
L 378.709467 293.29831 
L 379.082633 293.288012 
L 380.202132 293.812265 
L 380.575298 293.750478 
L 380.948464 293.963923 
L 382.067962 294.032264 
L 382.441129 287.803022 
L 382.814295 289.535863 
L 383.560627 291.477469 
L 383.933793 287.859192 
L 384.306959 289.562076 
L 384.680125 290.565645 
L 385.426458 291.835084 
L 386.17279 292.747845 
L 386.545956 292.801207 
L 386.919122 293.24963 
L 387.292288 293.241204 
L 388.038621 293.807584 
L 388.411787 293.810392 
L 389.531285 294.256943 
L 391.02395 294.635154 
L 391.397116 294.542473 
L 392.143448 294.77277 
L 392.516614 294.693196 
L 392.889781 294.867323 
L 395.87511 295.198725 
L 396.621442 295.382213 
L 396.994608 295.265193 
L 397.367774 295.488 
L 397.74094 295.344767 
L 398.487273 295.471149 
L 398.487273 295.471149 
" style="fill:none;stroke:#1f77b4;stroke-linecap:square;stroke-width:1.5;"/>
   </g>
   <g id="line2d_13">
    <path clip-path="url(#p7db566a58f)" d="M 73.832727 53.776765 
L 74.205893 82.660262 
L 74.57906 101.470624 
L 75.325392 119.774521 
L 76.071724 129.762465 
L 76.818056 137.015871 
L 77.937555 145.15208 
L 79.430219 153.499863 
L 80.549718 158.704004 
L 84.281379 171.227082 
L 85.027712 173.033881 
L 86.893542 177.945938 
L 89.132539 183.079867 
L 89.505705 183.599438 
L 90.99837 186.754314 
L 92.491034 189.265109 
L 93.237367 190.571995 
L 94.356865 192.342283 
L 94.730031 193.094959 
L 95.476364 194.139719 
L 96.222696 195.440989 
L 96.595862 195.789242 
L 97.342194 197.128894 
L 98.088527 198.7728 
L 99.581191 201.118829 
L 100.327524 204.861616 
L 101.447022 207.930365 
L 102.193354 209.962779 
L 102.56652 208.877764 
L 103.312853 214.683859 
L 103.686019 216.690997 
L 104.805517 220.987058 
L 105.178683 221.147142 
L 105.925016 223.517511 
L 106.671348 225.60984 
L 108.164013 228.252634 
L 108.537179 228.703865 
L 108.910345 229.463095 
L 110.403009 231.337297 
L 110.776176 231.974826 
L 111.149342 232.281888 
L 112.642006 233.932346 
L 113.015172 234.258132 
L 113.388339 226.049838 
L 113.761505 229.692455 
L 114.507837 234.085878 
L 115.627335 238.143216 
L 116.373668 239.82176 
L 116.746834 235.784081 
L 117.493166 239.60457 
L 117.866332 241.065923 
L 118.985831 243.689058 
L 119.358997 244.377139 
L 119.732163 237.787474 
L 120.478495 242.616212 
L 121.224828 245.616621 
L 121.97116 247.599418 
L 122.717492 248.975581 
L 124.210157 251.266377 
L 124.583323 251.718544 
L 124.956489 251.978798 
L 125.702821 252.684666 
L 128.68815 254.995122 
L 129.061317 255.082185 
L 129.434483 255.429502 
L 129.807649 254.508316 
L 130.180815 255.075632 
L 130.553981 255.285333 
L 130.927147 255.903202 
L 131.300313 256.044562 
L 133.166144 257.514341 
L 133.912476 257.69034 
L 134.285643 258.131274 
L 134.658809 258.085402 
L 135.778307 258.631186 
L 136.524639 259.012205 
L 136.897806 259.271523 
L 138.017304 259.578585 
L 138.39047 259.753648 
L 138.763636 259.783605 
L 139.136803 252.761432 
L 139.883135 256.359114 
L 140.256301 256.708303 
L 141.002633 258.325996 
L 141.748966 259.84352 
L 142.495298 260.590579 
L 143.24163 261.440617 
L 143.614796 261.569808 
L 145.480627 262.779333 
L 145.853793 262.895417 
L 146.600125 263.488946 
L 147.346458 263.744519 
L 147.719624 264.135836 
L 148.09279 264.192006 
L 148.839122 264.622642 
L 149.585455 264.786471 
L 149.958621 264.804258 
L 151.078119 265.299489 
L 151.451285 265.461446 
L 151.824451 265.462382 
L 152.197618 265.708593 
L 153.317116 266.066208 
L 153.690282 266.251569 
L 154.436614 266.249696 
L 155.182947 266.516503 
L 156.302445 266.852587 
L 156.675611 266.887225 
L 157.048777 267.187734 
L 161.153605 267.944155 
L 161.526771 265.781614 
L 162.64627 267.404924 
L 163.019436 267.677348 
L 163.392602 267.69888 
L 164.885266 268.286791 
L 167.870596 269.126531 
L 168.243762 269.492572 
L 168.990094 269.350275 
L 169.36326 269.488827 
L 169.736426 269.431721 
L 170.109592 269.716315 
L 170.482759 269.638614 
L 170.855925 269.873591 
L 172.348589 270.071122 
L 172.721755 270.160057 
L 173.094922 260.770323 
L 173.841254 264.889449 
L 174.587586 267.031394 
L 174.960752 267.790624 
L 175.333918 268.2896 
L 175.707085 268.989851 
L 176.826583 270.185334 
L 177.199749 270.416567 
L 177.572915 270.868734 
L 177.946082 270.926777 
L 178.692414 271.509071 
L 179.06558 271.44822 
L 179.438746 271.764644 
L 182.050909 272.918936 
L 182.050909 272.918936 
" style="fill:none;stroke:#ff7f0e;stroke-linecap:square;stroke-width:1.5;"/>
   </g>
   <g id="patch_3">
    <path d="M 57.6 307.584 
L 57.6 41.472 
" style="fill:none;stroke:#000000;stroke-linecap:square;stroke-linejoin:miter;stroke-width:0.8;"/>
   </g>
   <g id="patch_4">
    <path d="M 414.72 307.584 
L 414.72 41.472 
" style="fill:none;stroke:#000000;stroke-linecap:square;stroke-linejoin:miter;stroke-width:0.8;"/>
   </g>
   <g id="patch_5">
    <path d="M 57.6 307.584 
L 414.72 307.584 
" style="fill:none;stroke:#000000;stroke-linecap:square;stroke-linejoin:miter;stroke-width:0.8;"/>
   </g>
   <g id="patch_6">
    <path d="M 57.6 41.472 
L 414.72 41.472 
" style="fill:none;stroke:#000000;stroke-linecap:square;stroke-linejoin:miter;stroke-width:0.8;"/>
   </g>
   <g id="text_14">
    <!-- Average fitness over 30 seconds for29cities -->
    <defs>
     <path d="M 48.78125 52.59375 
L 48.78125 44.1875 
Q 44.96875 46.296875 41.140625 47.34375 
Q 37.3125 48.390625 33.40625 48.390625 
Q 24.65625 48.390625 19.8125 42.84375 
Q 14.984375 37.3125 14.984375 27.296875 
Q 14.984375 17.28125 19.8125 11.734375 
Q 24.65625 6.203125 33.40625 6.203125 
Q 37.3125 6.203125 41.140625 7.25 
Q 44.96875 8.296875 48.78125 10.40625 
L 48.78125 2.09375 
Q 45.015625 0.34375 40.984375 -0.53125 
Q 36.96875 -1.421875 32.421875 -1.421875 
Q 20.0625 -1.421875 12.78125 6.34375 
Q 5.515625 14.109375 5.515625 27.296875 
Q 5.515625 40.671875 12.859375 48.328125 
Q 20.21875 56 33.015625 56 
Q 37.15625 56 41.109375 55.140625 
Q 45.0625 54.296875 48.78125 52.59375 
z
" id="DejaVuSans-63"/>
     <path d="M 45.40625 46.390625 
L 45.40625 75.984375 
L 54.390625 75.984375 
L 54.390625 0 
L 45.40625 0 
L 45.40625 8.203125 
Q 42.578125 3.328125 38.25 0.953125 
Q 33.9375 -1.421875 27.875 -1.421875 
Q 17.96875 -1.421875 11.734375 6.484375 
Q 5.515625 14.40625 5.515625 27.296875 
Q 5.515625 40.1875 11.734375 48.09375 
Q 17.96875 56 27.875 56 
Q 33.9375 56 38.25 53.625 
Q 42.578125 51.265625 45.40625 46.390625 
z
M 14.796875 27.296875 
Q 14.796875 17.390625 18.875 11.75 
Q 22.953125 6.109375 30.078125 6.109375 
Q 37.203125 6.109375 41.296875 11.75 
Q 45.40625 17.390625 45.40625 27.296875 
Q 45.40625 37.203125 41.296875 42.84375 
Q 37.203125 48.484375 30.078125 48.484375 
Q 22.953125 48.484375 18.875 42.84375 
Q 14.796875 37.203125 14.796875 27.296875 
z
" id="DejaVuSans-64"/>
     <path d="M 10.984375 1.515625 
L 10.984375 10.5 
Q 14.703125 8.734375 18.5 7.8125 
Q 22.3125 6.890625 25.984375 6.890625 
Q 35.75 6.890625 40.890625 13.453125 
Q 46.046875 20.015625 46.78125 33.40625 
Q 43.953125 29.203125 39.59375 26.953125 
Q 35.25 24.703125 29.984375 24.703125 
Q 19.046875 24.703125 12.671875 31.3125 
Q 6.296875 37.9375 6.296875 49.421875 
Q 6.296875 60.640625 12.9375 67.421875 
Q 19.578125 74.21875 30.609375 74.21875 
Q 43.265625 74.21875 49.921875 64.515625 
Q 56.59375 54.828125 56.59375 36.375 
Q 56.59375 19.140625 48.40625 8.859375 
Q 40.234375 -1.421875 26.421875 -1.421875 
Q 22.703125 -1.421875 18.890625 -0.6875 
Q 15.09375 0.046875 10.984375 1.515625 
z
M 30.609375 32.421875 
Q 37.25 32.421875 41.125 36.953125 
Q 45.015625 41.5 45.015625 49.421875 
Q 45.015625 57.28125 41.125 61.84375 
Q 37.25 66.40625 30.609375 66.40625 
Q 23.96875 66.40625 20.09375 61.84375 
Q 16.21875 57.28125 16.21875 49.421875 
Q 16.21875 41.5 20.09375 36.953125 
Q 23.96875 32.421875 30.609375 32.421875 
z
" id="DejaVuSans-39"/>
    </defs>
    <g transform="translate(104.533125 35.472)scale(0.12 -0.12)">
     <use xlink:href="#DejaVuSans-41"/>
     <use x="68.330078" xlink:href="#DejaVuSans-76"/>
     <use x="127.509766" xlink:href="#DejaVuSans-65"/>
     <use x="189.033203" xlink:href="#DejaVuSans-72"/>
     <use x="230.146484" xlink:href="#DejaVuSans-61"/>
     <use x="291.425781" xlink:href="#DejaVuSans-67"/>
     <use x="354.902344" xlink:href="#DejaVuSans-65"/>
     <use x="416.425781" xlink:href="#DejaVuSans-20"/>
     <use x="448.212891" xlink:href="#DejaVuSans-66"/>
     <use x="483.417969" xlink:href="#DejaVuSans-69"/>
     <use x="511.201172" xlink:href="#DejaVuSans-74"/>
     <use x="550.410156" xlink:href="#DejaVuSans-6e"/>
     <use x="613.789062" xlink:href="#DejaVuSans-65"/>
     <use x="675.3125" xlink:href="#DejaVuSans-73"/>
     <use x="727.412109" xlink:href="#DejaVuSans-73"/>
     <use x="779.511719" xlink:href="#DejaVuSans-20"/>
     <use x="811.298828" xlink:href="#DejaVuSans-6f"/>
     <use x="872.480469" xlink:href="#DejaVuSans-76"/>
     <use x="931.660156" xlink:href="#DejaVuSans-65"/>
     <use x="993.183594" xlink:href="#DejaVuSans-72"/>
     <use x="1034.296875" xlink:href="#DejaVuSans-20"/>
     <use x="1066.083984" xlink:href="#DejaVuSans-33"/>
     <use x="1129.707031" xlink:href="#DejaVuSans-30"/>
     <use x="1193.330078" xlink:href="#DejaVuSans-20"/>
     <use x="1225.117188" xlink:href="#DejaVuSans-73"/>
     <use x="1277.216797" xlink:href="#DejaVuSans-65"/>
     <use x="1338.740234" xlink:href="#DejaVuSans-63"/>
     <use x="1393.720703" xlink:href="#DejaVuSans-6f"/>
     <use x="1454.902344" xlink:href="#DejaVuSans-6e"/>
     <use x="1518.28125" xlink:href="#DejaVuSans-64"/>
     <use x="1581.757812" xlink:href="#DejaVuSans-73"/>
     <use x="1633.857422" xlink:href="#DejaVuSans-20"/>
     <use x="1665.644531" xlink:href="#DejaVuSans-66"/>
     <use x="1700.849609" xlink:href="#DejaVuSans-6f"/>
     <use x="1762.03125" xlink:href="#DejaVuSans-72"/>
     <use x="1803.144531" xlink:href="#DejaVuSans-32"/>
     <use x="1866.767578" xlink:href="#DejaVuSans-39"/>
     <use x="1930.390625" xlink:href="#DejaVuSans-63"/>
     <use x="1985.371094" xlink:href="#DejaVuSans-69"/>
     <use x="2013.154297" xlink:href="#DejaVuSans-74"/>
     <use x="2052.363281" xlink:href="#DejaVuSans-69"/>
     <use x="2080.146484" xlink:href="#DejaVuSans-65"/>
     <use x="2141.669922" xlink:href="#DejaVuSans-73"/>
    </g>
   </g>
   <g id="legend_1">
    <g id="patch_7">
     <path d="M 118.47625 78.82825 
L 407.72 78.82825 
Q 409.72 78.82825 409.72 76.82825 
L 409.72 48.472 
Q 409.72 46.472 407.72 46.472 
L 118.47625 46.472 
Q 116.47625 46.472 116.47625 48.472 
L 116.47625 76.82825 
Q 116.47625 78.82825 118.47625 78.82825 
z
" style="fill:#ffffff;opacity:0.8;stroke:#cccccc;stroke-linejoin:miter;"/>
    </g>
    <g id="patch_8">
     <path d="M 120.47625 58.070437 
L 140.47625 58.070437 
L 140.47625 51.070437 
L 120.47625 51.070437 
z
" style="fill:#87ceeb;stroke:#87ceeb;stroke-linejoin:miter;"/>
    </g>
    <g id="text_15">
     <!-- Parallel min, 2123.3 Last Generation number 872.0 -->
     <defs>
      <path d="M 19.671875 64.796875 
L 19.671875 37.40625 
L 32.078125 37.40625 
Q 38.96875 37.40625 42.71875 40.96875 
Q 46.484375 44.53125 46.484375 51.125 
Q 46.484375 57.671875 42.71875 61.234375 
Q 38.96875 64.796875 32.078125 64.796875 
z
M 9.8125 72.90625 
L 32.078125 72.90625 
Q 44.34375 72.90625 50.609375 67.359375 
Q 56.890625 61.8125 56.890625 51.125 
Q 56.890625 40.328125 50.609375 34.8125 
Q 44.34375 29.296875 32.078125 29.296875 
L 19.671875 29.296875 
L 19.671875 0 
L 9.8125 0 
z
" id="DejaVuSans-50"/>
      <path d="M 9.421875 75.984375 
L 18.40625 75.984375 
L 18.40625 0 
L 9.421875 0 
z
" id="DejaVuSans-6c"/>
      <path d="M 11.71875 12.40625 
L 22.015625 12.40625 
L 22.015625 4 
L 14.015625 -11.625 
L 7.71875 -11.625 
L 11.71875 4 
z
" id="DejaVuSans-2c"/>
      <path d="M 12.40625 8.296875 
L 28.515625 8.296875 
L 28.515625 63.921875 
L 10.984375 60.40625 
L 10.984375 69.390625 
L 28.421875 72.90625 
L 38.28125 72.90625 
L 38.28125 8.296875 
L 54.390625 8.296875 
L 54.390625 0 
L 12.40625 0 
z
" id="DejaVuSans-31"/>
      <path d="M 10.6875 12.40625 
L 21 12.40625 
L 21 0 
L 10.6875 0 
z
" id="DejaVuSans-2e"/>
      <path d="M 9.8125 72.90625 
L 19.671875 72.90625 
L 19.671875 8.296875 
L 55.171875 8.296875 
L 55.171875 0 
L 9.8125 0 
z
" id="DejaVuSans-4c"/>
      <path d="M 8.203125 72.90625 
L 55.078125 72.90625 
L 55.078125 68.703125 
L 28.609375 0 
L 18.3125 0 
L 43.21875 64.59375 
L 8.203125 64.59375 
z
" id="DejaVuSans-37"/>
     </defs>
     <g transform="translate(148.47625 58.070437)scale(0.1 -0.1)">
      <use xlink:href="#DejaVuSans-50"/>
      <use x="60.240234" xlink:href="#DejaVuSans-61"/>
      <use x="121.519531" xlink:href="#DejaVuSans-72"/>
      <use x="162.632812" xlink:href="#DejaVuSans-61"/>
      <use x="223.912109" xlink:href="#DejaVuSans-6c"/>
      <use x="251.695312" xlink:href="#DejaVuSans-6c"/>
      <use x="279.478516" xlink:href="#DejaVuSans-65"/>
      <use x="341.001953" xlink:href="#DejaVuSans-6c"/>
      <use x="368.785156" xlink:href="#DejaVuSans-20"/>
      <use x="400.572266" xlink:href="#DejaVuSans-6d"/>
      <use x="497.984375" xlink:href="#DejaVuSans-69"/>
      <use x="525.767578" xlink:href="#DejaVuSans-6e"/>
      <use x="589.146484" xlink:href="#DejaVuSans-2c"/>
      <use x="620.933594" xlink:href="#DejaVuSans-20"/>
      <use x="652.720703" xlink:href="#DejaVuSans-32"/>
      <use x="716.34375" xlink:href="#DejaVuSans-31"/>
      <use x="779.966797" xlink:href="#DejaVuSans-32"/>
      <use x="843.589844" xlink:href="#DejaVuSans-33"/>
      <use x="907.212891" xlink:href="#DejaVuSans-2e"/>
      <use x="939" xlink:href="#DejaVuSans-33"/>
      <use x="1002.623047" xlink:href="#DejaVuSans-20"/>
      <use x="1034.410156" xlink:href="#DejaVuSans-4c"/>
      <use x="1090.123047" xlink:href="#DejaVuSans-61"/>
      <use x="1151.402344" xlink:href="#DejaVuSans-73"/>
      <use x="1203.501953" xlink:href="#DejaVuSans-74"/>
      <use x="1242.710938" xlink:href="#DejaVuSans-20"/>
      <use x="1274.498047" xlink:href="#DejaVuSans-47"/>
      <use x="1351.988281" xlink:href="#DejaVuSans-65"/>
      <use x="1413.511719" xlink:href="#DejaVuSans-6e"/>
      <use x="1476.890625" xlink:href="#DejaVuSans-65"/>
      <use x="1538.414062" xlink:href="#DejaVuSans-72"/>
      <use x="1579.527344" xlink:href="#DejaVuSans-61"/>
      <use x="1640.806641" xlink:href="#DejaVuSans-74"/>
      <use x="1680.015625" xlink:href="#DejaVuSans-69"/>
      <use x="1707.798828" xlink:href="#DejaVuSans-6f"/>
      <use x="1768.980469" xlink:href="#DejaVuSans-6e"/>
      <use x="1832.359375" xlink:href="#DejaVuSans-20"/>
      <use x="1864.146484" xlink:href="#DejaVuSans-6e"/>
      <use x="1927.525391" xlink:href="#DejaVuSans-75"/>
      <use x="1990.904297" xlink:href="#DejaVuSans-6d"/>
      <use x="2088.316406" xlink:href="#DejaVuSans-62"/>
      <use x="2151.792969" xlink:href="#DejaVuSans-65"/>
      <use x="2213.316406" xlink:href="#DejaVuSans-72"/>
      <use x="2254.429688" xlink:href="#DejaVuSans-20"/>
      <use x="2286.216797" xlink:href="#DejaVuSans-38"/>
      <use x="2349.839844" xlink:href="#DejaVuSans-37"/>
      <use x="2413.462891" xlink:href="#DejaVuSans-32"/>
      <use x="2477.085938" xlink:href="#DejaVuSans-2e"/>
      <use x="2508.873047" xlink:href="#DejaVuSans-30"/>
     </g>
    </g>
    <g id="patch_9">
     <path d="M 120.47625 72.748562 
L 140.47625 72.748562 
L 140.47625 65.748562 
L 120.47625 65.748562 
z
" style="fill:#ffa500;stroke:#ffa500;stroke-linejoin:miter;"/>
    </g>
    <g id="text_16">
     <!-- Serial min, 2364.38 Last Generation number 292.0 -->
     <defs>
      <path d="M 53.515625 70.515625 
L 53.515625 60.890625 
Q 47.90625 63.578125 42.921875 64.890625 
Q 37.9375 66.21875 33.296875 66.21875 
Q 25.25 66.21875 20.875 63.09375 
Q 16.5 59.96875 16.5 54.203125 
Q 16.5 49.359375 19.40625 46.890625 
Q 22.3125 44.4375 30.421875 42.921875 
L 36.375 41.703125 
Q 47.40625 39.59375 52.65625 34.296875 
Q 57.90625 29 57.90625 20.125 
Q 57.90625 9.515625 50.796875 4.046875 
Q 43.703125 -1.421875 29.984375 -1.421875 
Q 24.8125 -1.421875 18.96875 -0.25 
Q 13.140625 0.921875 6.890625 3.21875 
L 6.890625 13.375 
Q 12.890625 10.015625 18.65625 8.296875 
Q 24.421875 6.59375 29.984375 6.59375 
Q 38.421875 6.59375 43.015625 9.90625 
Q 47.609375 13.234375 47.609375 19.390625 
Q 47.609375 24.75 44.3125 27.78125 
Q 41.015625 30.8125 33.5 32.328125 
L 27.484375 33.5 
Q 16.453125 35.6875 11.515625 40.375 
Q 6.59375 45.0625 6.59375 53.421875 
Q 6.59375 63.09375 13.40625 68.65625 
Q 20.21875 74.21875 32.171875 74.21875 
Q 37.3125 74.21875 42.625 73.28125 
Q 47.953125 72.359375 53.515625 70.515625 
z
" id="DejaVuSans-53"/>
     </defs>
     <g transform="translate(148.47625 72.748562)scale(0.1 -0.1)">
      <use xlink:href="#DejaVuSans-53"/>
      <use x="63.476562" xlink:href="#DejaVuSans-65"/>
      <use x="125" xlink:href="#DejaVuSans-72"/>
      <use x="166.113281" xlink:href="#DejaVuSans-69"/>
      <use x="193.896484" xlink:href="#DejaVuSans-61"/>
      <use x="255.175781" xlink:href="#DejaVuSans-6c"/>
      <use x="282.958984" xlink:href="#DejaVuSans-20"/>
      <use x="314.746094" xlink:href="#DejaVuSans-6d"/>
      <use x="412.158203" xlink:href="#DejaVuSans-69"/>
      <use x="439.941406" xlink:href="#DejaVuSans-6e"/>
      <use x="503.320312" xlink:href="#DejaVuSans-2c"/>
      <use x="535.107422" xlink:href="#DejaVuSans-20"/>
      <use x="566.894531" xlink:href="#DejaVuSans-32"/>
      <use x="630.517578" xlink:href="#DejaVuSans-33"/>
      <use x="694.140625" xlink:href="#DejaVuSans-36"/>
      <use x="757.763672" xlink:href="#DejaVuSans-34"/>
      <use x="821.386719" xlink:href="#DejaVuSans-2e"/>
      <use x="853.173828" xlink:href="#DejaVuSans-33"/>
      <use x="916.796875" xlink:href="#DejaVuSans-38"/>
      <use x="980.419922" xlink:href="#DejaVuSans-20"/>
      <use x="1012.207031" xlink:href="#DejaVuSans-4c"/>
      <use x="1067.919922" xlink:href="#DejaVuSans-61"/>
      <use x="1129.199219" xlink:href="#DejaVuSans-73"/>
      <use x="1181.298828" xlink:href="#DejaVuSans-74"/>
      <use x="1220.507812" xlink:href="#DejaVuSans-20"/>
      <use x="1252.294922" xlink:href="#DejaVuSans-47"/>
      <use x="1329.785156" xlink:href="#DejaVuSans-65"/>
      <use x="1391.308594" xlink:href="#DejaVuSans-6e"/>
      <use x="1454.6875" xlink:href="#DejaVuSans-65"/>
      <use x="1516.210938" xlink:href="#DejaVuSans-72"/>
      <use x="1557.324219" xlink:href="#DejaVuSans-61"/>
      <use x="1618.603516" xlink:href="#DejaVuSans-74"/>
      <use x="1657.8125" xlink:href="#DejaVuSans-69"/>
      <use x="1685.595703" xlink:href="#DejaVuSans-6f"/>
      <use x="1746.777344" xlink:href="#DejaVuSans-6e"/>
      <use x="1810.15625" xlink:href="#DejaVuSans-20"/>
      <use x="1841.943359" xlink:href="#DejaVuSans-6e"/>
      <use x="1905.322266" xlink:href="#DejaVuSans-75"/>
      <use x="1968.701172" xlink:href="#DejaVuSans-6d"/>
      <use x="2066.113281" xlink:href="#DejaVuSans-62"/>
      <use x="2129.589844" xlink:href="#DejaVuSans-65"/>
      <use x="2191.113281" xlink:href="#DejaVuSans-72"/>
      <use x="2232.226562" xlink:href="#DejaVuSans-20"/>
      <use x="2264.013672" xlink:href="#DejaVuSans-32"/>
      <use x="2327.636719" xlink:href="#DejaVuSans-39"/>
      <use x="2391.259766" xlink:href="#DejaVuSans-32"/>
      <use x="2454.882812" xlink:href="#DejaVuSans-2e"/>
      <use x="2486.669922" xlink:href="#DejaVuSans-30"/>
     </g>
    </g>
   </g>
  </g>
 </g>
 <defs>
  <clipPath id="p7db566a58f">
   <rect height="266.112" width="357.12" x="57.6" y="41.472"/>
  </clipPath>
 </defs>
</svg>
