<?xml version="1.0" encoding="utf-8" standalone="no"?>
<!DOCTYPE svg PUBLIC "-//W3C//DTD SVG 1.1//EN"
  "http://www.w3.org/Graphics/SVG/1.1/DTD/svg11.dtd">
<!-- Created with matplotlib (http://matplotlib.org/) -->
<svg height="345.6pt" version="1.1" viewBox="0 0 460.8 345.6" width="460.8pt" xmlns="http://www.w3.org/2000/svg" xmlns:xlink="http://www.w3.org/1999/xlink">
 <defs>
  <style type="text/css">
*{stroke-linecap:butt;stroke-linejoin:round;}
  </style>
 </defs>
 <g id="figure_1">
  <g id="patch_1">
   <path d="M 0 345.6 
L 460.8 345.6 
L 460.8 0 
L 0 0 
z
" style="fill:#ffffff;"/>
  </g>
  <g id="axes_1">
   <g id="patch_2">
    <path d="M 57.6 307.584 
L 414.72 307.584 
L 414.72 41.472 
L 57.6 41.472 
z
" style="fill:#ffffff;"/>
   </g>
   <g id="matplotlib.axis_1">
    <g id="xtick_1">
     <g id="line2d_1">
      <defs>
       <path d="M 0 0 
L 0 3.5 
" id="mb5d9cef4b2" style="stroke:#000000;stroke-width:0.8;"/>
      </defs>
      <g>
       <use style="stroke:#000000;stroke-width:0.8;" x="73.612324" xlink:href="#mb5d9cef4b2" y="307.584"/>
      </g>
     </g>
     <g id="text_1">
      <!-- 0 -->
      <defs>
       <path d="M 31.78125 66.40625 
Q 24.171875 66.40625 20.328125 58.90625 
Q 16.5 51.421875 16.5 36.375 
Q 16.5 21.390625 20.328125 13.890625 
Q 24.171875 6.390625 31.78125 6.390625 
Q 39.453125 6.390625 43.28125 13.890625 
Q 47.125 21.390625 47.125 36.375 
Q 47.125 51.421875 43.28125 58.90625 
Q 39.453125 66.40625 31.78125 66.40625 
z
M 31.78125 74.21875 
Q 44.046875 74.21875 50.515625 64.515625 
Q 56.984375 54.828125 56.984375 36.375 
Q 56.984375 17.96875 50.515625 8.265625 
Q 44.046875 -1.421875 31.78125 -1.421875 
Q 19.53125 -1.421875 13.0625 8.265625 
Q 6.59375 17.96875 6.59375 36.375 
Q 6.59375 54.828125 13.0625 64.515625 
Q 19.53125 74.21875 31.78125 74.21875 
z
" id="DejaVuSans-30"/>
      </defs>
      <g transform="translate(70.431074 322.182437)scale(0.1 -0.1)">
       <use xlink:href="#DejaVuSans-30"/>
      </g>
     </g>
    </g>
    <g id="xtick_2">
     <g id="line2d_2">
      <g>
       <use style="stroke:#000000;stroke-width:0.8;" x="117.693049" xlink:href="#mb5d9cef4b2" y="307.584"/>
      </g>
     </g>
     <g id="text_2">
      <!-- 200 -->
      <defs>
       <path d="M 19.1875 8.296875 
L 53.609375 8.296875 
L 53.609375 0 
L 7.328125 0 
L 7.328125 8.296875 
Q 12.9375 14.109375 22.625 23.890625 
Q 32.328125 33.6875 34.8125 36.53125 
Q 39.546875 41.84375 41.421875 45.53125 
Q 43.3125 49.21875 43.3125 52.78125 
Q 43.3125 58.59375 39.234375 62.25 
Q 35.15625 65.921875 28.609375 65.921875 
Q 23.96875 65.921875 18.8125 64.3125 
Q 13.671875 62.703125 7.8125 59.421875 
L 7.8125 69.390625 
Q 13.765625 71.78125 18.9375 73 
Q 24.125 74.21875 28.421875 74.21875 
Q 39.75 74.21875 46.484375 68.546875 
Q 53.21875 62.890625 53.21875 53.421875 
Q 53.21875 48.921875 51.53125 44.890625 
Q 49.859375 40.875 45.40625 35.40625 
Q 44.1875 33.984375 37.640625 27.21875 
Q 31.109375 20.453125 19.1875 8.296875 
z
" id="DejaVuSans-32"/>
      </defs>
      <g transform="translate(108.149299 322.182437)scale(0.1 -0.1)">
       <use xlink:href="#DejaVuSans-32"/>
       <use x="63.623047" xlink:href="#DejaVuSans-30"/>
       <use x="127.246094" xlink:href="#DejaVuSans-30"/>
      </g>
     </g>
    </g>
    <g id="xtick_3">
     <g id="line2d_3">
      <g>
       <use style="stroke:#000000;stroke-width:0.8;" x="161.773775" xlink:href="#mb5d9cef4b2" y="307.584"/>
      </g>
     </g>
     <g id="text_3">
      <!-- 400 -->
      <defs>
       <path d="M 37.796875 64.3125 
L 12.890625 25.390625 
L 37.796875 25.390625 
z
M 35.203125 72.90625 
L 47.609375 72.90625 
L 47.609375 25.390625 
L 58.015625 25.390625 
L 58.015625 17.1875 
L 47.609375 17.1875 
L 47.609375 0 
L 37.796875 0 
L 37.796875 17.1875 
L 4.890625 17.1875 
L 4.890625 26.703125 
z
" id="DejaVuSans-34"/>
      </defs>
      <g transform="translate(152.230025 322.182437)scale(0.1 -0.1)">
       <use xlink:href="#DejaVuSans-34"/>
       <use x="63.623047" xlink:href="#DejaVuSans-30"/>
       <use x="127.246094" xlink:href="#DejaVuSans-30"/>
      </g>
     </g>
    </g>
    <g id="xtick_4">
     <g id="line2d_4">
      <g>
       <use style="stroke:#000000;stroke-width:0.8;" x="205.854501" xlink:href="#mb5d9cef4b2" y="307.584"/>
      </g>
     </g>
     <g id="text_4">
      <!-- 600 -->
      <defs>
       <path d="M 33.015625 40.375 
Q 26.375 40.375 22.484375 35.828125 
Q 18.609375 31.296875 18.609375 23.390625 
Q 18.609375 15.53125 22.484375 10.953125 
Q 26.375 6.390625 33.015625 6.390625 
Q 39.65625 6.390625 43.53125 10.953125 
Q 47.40625 15.53125 47.40625 23.390625 
Q 47.40625 31.296875 43.53125 35.828125 
Q 39.65625 40.375 33.015625 40.375 
z
M 52.59375 71.296875 
L 52.59375 62.3125 
Q 48.875 64.0625 45.09375 64.984375 
Q 41.3125 65.921875 37.59375 65.921875 
Q 27.828125 65.921875 22.671875 59.328125 
Q 17.53125 52.734375 16.796875 39.40625 
Q 19.671875 43.65625 24.015625 45.921875 
Q 28.375 48.1875 33.59375 48.1875 
Q 44.578125 48.1875 50.953125 41.515625 
Q 57.328125 34.859375 57.328125 23.390625 
Q 57.328125 12.15625 50.6875 5.359375 
Q 44.046875 -1.421875 33.015625 -1.421875 
Q 20.359375 -1.421875 13.671875 8.265625 
Q 6.984375 17.96875 6.984375 36.375 
Q 6.984375 53.65625 15.1875 63.9375 
Q 23.390625 74.21875 37.203125 74.21875 
Q 40.921875 74.21875 44.703125 73.484375 
Q 48.484375 72.75 52.59375 71.296875 
z
" id="DejaVuSans-36"/>
      </defs>
      <g transform="translate(196.310751 322.182437)scale(0.1 -0.1)">
       <use xlink:href="#DejaVuSans-36"/>
       <use x="63.623047" xlink:href="#DejaVuSans-30"/>
       <use x="127.246094" xlink:href="#DejaVuSans-30"/>
      </g>
     </g>
    </g>
    <g id="xtick_5">
     <g id="line2d_5">
      <g>
       <use style="stroke:#000000;stroke-width:0.8;" x="249.935227" xlink:href="#mb5d9cef4b2" y="307.584"/>
      </g>
     </g>
     <g id="text_5">
      <!-- 800 -->
      <defs>
       <path d="M 31.78125 34.625 
Q 24.75 34.625 20.71875 30.859375 
Q 16.703125 27.09375 16.703125 20.515625 
Q 16.703125 13.921875 20.71875 10.15625 
Q 24.75 6.390625 31.78125 6.390625 
Q 38.8125 6.390625 42.859375 10.171875 
Q 46.921875 13.96875 46.921875 20.515625 
Q 46.921875 27.09375 42.890625 30.859375 
Q 38.875 34.625 31.78125 34.625 
z
M 21.921875 38.8125 
Q 15.578125 40.375 12.03125 44.71875 
Q 8.5 49.078125 8.5 55.328125 
Q 8.5 64.0625 14.71875 69.140625 
Q 20.953125 74.21875 31.78125 74.21875 
Q 42.671875 74.21875 48.875 69.140625 
Q 55.078125 64.0625 55.078125 55.328125 
Q 55.078125 49.078125 51.53125 44.71875 
Q 48 40.375 41.703125 38.8125 
Q 48.828125 37.15625 52.796875 32.3125 
Q 56.78125 27.484375 56.78125 20.515625 
Q 56.78125 9.90625 50.3125 4.234375 
Q 43.84375 -1.421875 31.78125 -1.421875 
Q 19.734375 -1.421875 13.25 4.234375 
Q 6.78125 9.90625 6.78125 20.515625 
Q 6.78125 27.484375 10.78125 32.3125 
Q 14.796875 37.15625 21.921875 38.8125 
z
M 18.3125 54.390625 
Q 18.3125 48.734375 21.84375 45.5625 
Q 25.390625 42.390625 31.78125 42.390625 
Q 38.140625 42.390625 41.71875 45.5625 
Q 45.3125 48.734375 45.3125 54.390625 
Q 45.3125 60.0625 41.71875 63.234375 
Q 38.140625 66.40625 31.78125 66.40625 
Q 25.390625 66.40625 21.84375 63.234375 
Q 18.3125 60.0625 18.3125 54.390625 
z
" id="DejaVuSans-38"/>
      </defs>
      <g transform="translate(240.391477 322.182437)scale(0.1 -0.1)">
       <use xlink:href="#DejaVuSans-38"/>
       <use x="63.623047" xlink:href="#DejaVuSans-30"/>
       <use x="127.246094" xlink:href="#DejaVuSans-30"/>
      </g>
     </g>
    </g>
    <g id="xtick_6">
     <g id="line2d_6">
      <g>
       <use style="stroke:#000000;stroke-width:0.8;" x="294.015953" xlink:href="#mb5d9cef4b2" y="307.584"/>
      </g>
     </g>
     <g id="text_6">
      <!-- 1000 -->
      <defs>
       <path d="M 12.40625 8.296875 
L 28.515625 8.296875 
L 28.515625 63.921875 
L 10.984375 60.40625 
L 10.984375 69.390625 
L 28.421875 72.90625 
L 38.28125 72.90625 
L 38.28125 8.296875 
L 54.390625 8.296875 
L 54.390625 0 
L 12.40625 0 
z
" id="DejaVuSans-31"/>
      </defs>
      <g transform="translate(281.290953 322.182437)scale(0.1 -0.1)">
       <use xlink:href="#DejaVuSans-31"/>
       <use x="63.623047" xlink:href="#DejaVuSans-30"/>
       <use x="127.246094" xlink:href="#DejaVuSans-30"/>
       <use x="190.869141" xlink:href="#DejaVuSans-30"/>
      </g>
     </g>
    </g>
    <g id="xtick_7">
     <g id="line2d_7">
      <g>
       <use style="stroke:#000000;stroke-width:0.8;" x="338.096678" xlink:href="#mb5d9cef4b2" y="307.584"/>
      </g>
     </g>
     <g id="text_7">
      <!-- 1200 -->
      <g transform="translate(325.371678 322.182437)scale(0.1 -0.1)">
       <use xlink:href="#DejaVuSans-31"/>
       <use x="63.623047" xlink:href="#DejaVuSans-32"/>
       <use x="127.246094" xlink:href="#DejaVuSans-30"/>
       <use x="190.869141" xlink:href="#DejaVuSans-30"/>
      </g>
     </g>
    </g>
    <g id="xtick_8">
     <g id="line2d_8">
      <g>
       <use style="stroke:#000000;stroke-width:0.8;" x="382.177404" xlink:href="#mb5d9cef4b2" y="307.584"/>
      </g>
     </g>
     <g id="text_8">
      <!-- 1400 -->
      <g transform="translate(369.452404 322.182437)scale(0.1 -0.1)">
       <use xlink:href="#DejaVuSans-31"/>
       <use x="63.623047" xlink:href="#DejaVuSans-34"/>
       <use x="127.246094" xlink:href="#DejaVuSans-30"/>
       <use x="190.869141" xlink:href="#DejaVuSans-30"/>
      </g>
     </g>
    </g>
    <g id="text_9">
     <!-- Generation number -->
     <defs>
      <path d="M 59.515625 10.40625 
L 59.515625 29.984375 
L 43.40625 29.984375 
L 43.40625 38.09375 
L 69.28125 38.09375 
L 69.28125 6.78125 
Q 63.578125 2.734375 56.6875 0.65625 
Q 49.8125 -1.421875 42 -1.421875 
Q 24.90625 -1.421875 15.25 8.5625 
Q 5.609375 18.5625 5.609375 36.375 
Q 5.609375 54.25 15.25 64.234375 
Q 24.90625 74.21875 42 74.21875 
Q 49.125 74.21875 55.546875 72.453125 
Q 61.96875 70.703125 67.390625 67.28125 
L 67.390625 56.78125 
Q 61.921875 61.421875 55.765625 63.765625 
Q 49.609375 66.109375 42.828125 66.109375 
Q 29.4375 66.109375 22.71875 58.640625 
Q 16.015625 51.171875 16.015625 36.375 
Q 16.015625 21.625 22.71875 14.15625 
Q 29.4375 6.6875 42.828125 6.6875 
Q 48.046875 6.6875 52.140625 7.59375 
Q 56.25 8.5 59.515625 10.40625 
z
" id="DejaVuSans-47"/>
      <path d="M 56.203125 29.59375 
L 56.203125 25.203125 
L 14.890625 25.203125 
Q 15.484375 15.921875 20.484375 11.0625 
Q 25.484375 6.203125 34.421875 6.203125 
Q 39.59375 6.203125 44.453125 7.46875 
Q 49.3125 8.734375 54.109375 11.28125 
L 54.109375 2.78125 
Q 49.265625 0.734375 44.1875 -0.34375 
Q 39.109375 -1.421875 33.890625 -1.421875 
Q 20.796875 -1.421875 13.15625 6.1875 
Q 5.515625 13.8125 5.515625 26.8125 
Q 5.515625 40.234375 12.765625 48.109375 
Q 20.015625 56 32.328125 56 
Q 43.359375 56 49.78125 48.890625 
Q 56.203125 41.796875 56.203125 29.59375 
z
M 47.21875 32.234375 
Q 47.125 39.59375 43.09375 43.984375 
Q 39.0625 48.390625 32.421875 48.390625 
Q 24.90625 48.390625 20.390625 44.140625 
Q 15.875 39.890625 15.1875 32.171875 
z
" id="DejaVuSans-65"/>
      <path d="M 54.890625 33.015625 
L 54.890625 0 
L 45.90625 0 
L 45.90625 32.71875 
Q 45.90625 40.484375 42.875 44.328125 
Q 39.84375 48.1875 33.796875 48.1875 
Q 26.515625 48.1875 22.3125 43.546875 
Q 18.109375 38.921875 18.109375 30.90625 
L 18.109375 0 
L 9.078125 0 
L 9.078125 54.6875 
L 18.109375 54.6875 
L 18.109375 46.1875 
Q 21.34375 51.125 25.703125 53.5625 
Q 30.078125 56 35.796875 56 
Q 45.21875 56 50.046875 50.171875 
Q 54.890625 44.34375 54.890625 33.015625 
z
" id="DejaVuSans-6e"/>
      <path d="M 41.109375 46.296875 
Q 39.59375 47.171875 37.8125 47.578125 
Q 36.03125 48 33.890625 48 
Q 26.265625 48 22.1875 43.046875 
Q 18.109375 38.09375 18.109375 28.8125 
L 18.109375 0 
L 9.078125 0 
L 9.078125 54.6875 
L 18.109375 54.6875 
L 18.109375 46.1875 
Q 20.953125 51.171875 25.484375 53.578125 
Q 30.03125 56 36.53125 56 
Q 37.453125 56 38.578125 55.875 
Q 39.703125 55.765625 41.0625 55.515625 
z
" id="DejaVuSans-72"/>
      <path d="M 34.28125 27.484375 
Q 23.390625 27.484375 19.1875 25 
Q 14.984375 22.515625 14.984375 16.5 
Q 14.984375 11.71875 18.140625 8.90625 
Q 21.296875 6.109375 26.703125 6.109375 
Q 34.1875 6.109375 38.703125 11.40625 
Q 43.21875 16.703125 43.21875 25.484375 
L 43.21875 27.484375 
z
M 52.203125 31.203125 
L 52.203125 0 
L 43.21875 0 
L 43.21875 8.296875 
Q 40.140625 3.328125 35.546875 0.953125 
Q 30.953125 -1.421875 24.3125 -1.421875 
Q 15.921875 -1.421875 10.953125 3.296875 
Q 6 8.015625 6 15.921875 
Q 6 25.140625 12.171875 29.828125 
Q 18.359375 34.515625 30.609375 34.515625 
L 43.21875 34.515625 
L 43.21875 35.40625 
Q 43.21875 41.609375 39.140625 45 
Q 35.0625 48.390625 27.6875 48.390625 
Q 23 48.390625 18.546875 47.265625 
Q 14.109375 46.140625 10.015625 43.890625 
L 10.015625 52.203125 
Q 14.9375 54.109375 19.578125 55.046875 
Q 24.21875 56 28.609375 56 
Q 40.484375 56 46.34375 49.84375 
Q 52.203125 43.703125 52.203125 31.203125 
z
" id="DejaVuSans-61"/>
      <path d="M 18.3125 70.21875 
L 18.3125 54.6875 
L 36.8125 54.6875 
L 36.8125 47.703125 
L 18.3125 47.703125 
L 18.3125 18.015625 
Q 18.3125 11.328125 20.140625 9.421875 
Q 21.96875 7.515625 27.59375 7.515625 
L 36.8125 7.515625 
L 36.8125 0 
L 27.59375 0 
Q 17.1875 0 13.234375 3.875 
Q 9.28125 7.765625 9.28125 18.015625 
L 9.28125 47.703125 
L 2.6875 47.703125 
L 2.6875 54.6875 
L 9.28125 54.6875 
L 9.28125 70.21875 
z
" id="DejaVuSans-74"/>
      <path d="M 9.421875 54.6875 
L 18.40625 54.6875 
L 18.40625 0 
L 9.421875 0 
z
M 9.421875 75.984375 
L 18.40625 75.984375 
L 18.40625 64.59375 
L 9.421875 64.59375 
z
" id="DejaVuSans-69"/>
      <path d="M 30.609375 48.390625 
Q 23.390625 48.390625 19.1875 42.75 
Q 14.984375 37.109375 14.984375 27.296875 
Q 14.984375 17.484375 19.15625 11.84375 
Q 23.34375 6.203125 30.609375 6.203125 
Q 37.796875 6.203125 41.984375 11.859375 
Q 46.1875 17.53125 46.1875 27.296875 
Q 46.1875 37.015625 41.984375 42.703125 
Q 37.796875 48.390625 30.609375 48.390625 
z
M 30.609375 56 
Q 42.328125 56 49.015625 48.375 
Q 55.71875 40.765625 55.71875 27.296875 
Q 55.71875 13.875 49.015625 6.21875 
Q 42.328125 -1.421875 30.609375 -1.421875 
Q 18.84375 -1.421875 12.171875 6.21875 
Q 5.515625 13.875 5.515625 27.296875 
Q 5.515625 40.765625 12.171875 48.375 
Q 18.84375 56 30.609375 56 
z
" id="DejaVuSans-6f"/>
      <path id="DejaVuSans-20"/>
      <path d="M 8.5 21.578125 
L 8.5 54.6875 
L 17.484375 54.6875 
L 17.484375 21.921875 
Q 17.484375 14.15625 20.5 10.265625 
Q 23.53125 6.390625 29.59375 6.390625 
Q 36.859375 6.390625 41.078125 11.03125 
Q 45.3125 15.671875 45.3125 23.6875 
L 45.3125 54.6875 
L 54.296875 54.6875 
L 54.296875 0 
L 45.3125 0 
L 45.3125 8.40625 
Q 42.046875 3.421875 37.71875 1 
Q 33.40625 -1.421875 27.6875 -1.421875 
Q 18.265625 -1.421875 13.375 4.4375 
Q 8.5 10.296875 8.5 21.578125 
z
M 31.109375 56 
z
" id="DejaVuSans-75"/>
      <path d="M 52 44.1875 
Q 55.375 50.25 60.0625 53.125 
Q 64.75 56 71.09375 56 
Q 79.640625 56 84.28125 50.015625 
Q 88.921875 44.046875 88.921875 33.015625 
L 88.921875 0 
L 79.890625 0 
L 79.890625 32.71875 
Q 79.890625 40.578125 77.09375 44.375 
Q 74.3125 48.1875 68.609375 48.1875 
Q 61.625 48.1875 57.5625 43.546875 
Q 53.515625 38.921875 53.515625 30.90625 
L 53.515625 0 
L 44.484375 0 
L 44.484375 32.71875 
Q 44.484375 40.625 41.703125 44.40625 
Q 38.921875 48.1875 33.109375 48.1875 
Q 26.21875 48.1875 22.15625 43.53125 
Q 18.109375 38.875 18.109375 30.90625 
L 18.109375 0 
L 9.078125 0 
L 9.078125 54.6875 
L 18.109375 54.6875 
L 18.109375 46.1875 
Q 21.1875 51.21875 25.484375 53.609375 
Q 29.78125 56 35.6875 56 
Q 41.65625 56 45.828125 52.96875 
Q 50 49.953125 52 44.1875 
z
" id="DejaVuSans-6d"/>
      <path d="M 48.6875 27.296875 
Q 48.6875 37.203125 44.609375 42.84375 
Q 40.53125 48.484375 33.40625 48.484375 
Q 26.265625 48.484375 22.1875 42.84375 
Q 18.109375 37.203125 18.109375 27.296875 
Q 18.109375 17.390625 22.1875 11.75 
Q 26.265625 6.109375 33.40625 6.109375 
Q 40.53125 6.109375 44.609375 11.75 
Q 48.6875 17.390625 48.6875 27.296875 
z
M 18.109375 46.390625 
Q 20.953125 51.265625 25.265625 53.625 
Q 29.59375 56 35.59375 56 
Q 45.5625 56 51.78125 48.09375 
Q 58.015625 40.1875 58.015625 27.296875 
Q 58.015625 14.40625 51.78125 6.484375 
Q 45.5625 -1.421875 35.59375 -1.421875 
Q 29.59375 -1.421875 25.265625 0.953125 
Q 20.953125 3.328125 18.109375 8.203125 
L 18.109375 0 
L 9.078125 0 
L 9.078125 75.984375 
L 18.109375 75.984375 
z
" id="DejaVuSans-62"/>
     </defs>
     <g transform="translate(187.163906 335.860562)scale(0.1 -0.1)">
      <use xlink:href="#DejaVuSans-47"/>
      <use x="77.490234" xlink:href="#DejaVuSans-65"/>
      <use x="139.013672" xlink:href="#DejaVuSans-6e"/>
      <use x="202.392578" xlink:href="#DejaVuSans-65"/>
      <use x="263.916016" xlink:href="#DejaVuSans-72"/>
      <use x="305.029297" xlink:href="#DejaVuSans-61"/>
      <use x="366.308594" xlink:href="#DejaVuSans-74"/>
      <use x="405.517578" xlink:href="#DejaVuSans-69"/>
      <use x="433.300781" xlink:href="#DejaVuSans-6f"/>
      <use x="494.482422" xlink:href="#DejaVuSans-6e"/>
      <use x="557.861328" xlink:href="#DejaVuSans-20"/>
      <use x="589.648438" xlink:href="#DejaVuSans-6e"/>
      <use x="653.027344" xlink:href="#DejaVuSans-75"/>
      <use x="716.40625" xlink:href="#DejaVuSans-6d"/>
      <use x="813.818359" xlink:href="#DejaVuSans-62"/>
      <use x="877.294922" xlink:href="#DejaVuSans-65"/>
      <use x="938.818359" xlink:href="#DejaVuSans-72"/>
     </g>
    </g>
   </g>
   <g id="matplotlib.axis_2">
    <g id="ytick_1">
     <g id="line2d_9">
      <defs>
       <path d="M 0 0 
L -3.5 0 
" id="m08793ea831" style="stroke:#000000;stroke-width:0.8;"/>
      </defs>
      <g>
       <use style="stroke:#000000;stroke-width:0.8;" x="57.6" xlink:href="#m08793ea831" y="274.326127"/>
      </g>
     </g>
     <g id="text_10">
      <!-- 2000 -->
      <g transform="translate(25.15 278.125346)scale(0.1 -0.1)">
       <use xlink:href="#DejaVuSans-32"/>
       <use x="63.623047" xlink:href="#DejaVuSans-30"/>
       <use x="127.246094" xlink:href="#DejaVuSans-30"/>
       <use x="190.869141" xlink:href="#DejaVuSans-30"/>
      </g>
     </g>
    </g>
    <g id="ytick_2">
     <g id="line2d_10">
      <g>
       <use style="stroke:#000000;stroke-width:0.8;" x="57.6" xlink:href="#m08793ea831" y="232.286569"/>
      </g>
     </g>
     <g id="text_11">
      <!-- 2500 -->
      <defs>
       <path d="M 10.796875 72.90625 
L 49.515625 72.90625 
L 49.515625 64.59375 
L 19.828125 64.59375 
L 19.828125 46.734375 
Q 21.96875 47.46875 24.109375 47.828125 
Q 26.265625 48.1875 28.421875 48.1875 
Q 40.625 48.1875 47.75 41.5 
Q 54.890625 34.8125 54.890625 23.390625 
Q 54.890625 11.625 47.5625 5.09375 
Q 40.234375 -1.421875 26.90625 -1.421875 
Q 22.3125 -1.421875 17.546875 -0.640625 
Q 12.796875 0.140625 7.71875 1.703125 
L 7.71875 11.625 
Q 12.109375 9.234375 16.796875 8.0625 
Q 21.484375 6.890625 26.703125 6.890625 
Q 35.15625 6.890625 40.078125 11.328125 
Q 45.015625 15.765625 45.015625 23.390625 
Q 45.015625 31 40.078125 35.4375 
Q 35.15625 39.890625 26.703125 39.890625 
Q 22.75 39.890625 18.8125 39.015625 
Q 14.890625 38.140625 10.796875 36.28125 
z
" id="DejaVuSans-35"/>
      </defs>
      <g transform="translate(25.15 236.085788)scale(0.1 -0.1)">
       <use xlink:href="#DejaVuSans-32"/>
       <use x="63.623047" xlink:href="#DejaVuSans-35"/>
       <use x="127.246094" xlink:href="#DejaVuSans-30"/>
       <use x="190.869141" xlink:href="#DejaVuSans-30"/>
      </g>
     </g>
    </g>
    <g id="ytick_3">
     <g id="line2d_11">
      <g>
       <use style="stroke:#000000;stroke-width:0.8;" x="57.6" xlink:href="#m08793ea831" y="190.247011"/>
      </g>
     </g>
     <g id="text_12">
      <!-- 3000 -->
      <defs>
       <path d="M 40.578125 39.3125 
Q 47.65625 37.796875 51.625 33 
Q 55.609375 28.21875 55.609375 21.1875 
Q 55.609375 10.40625 48.1875 4.484375 
Q 40.765625 -1.421875 27.09375 -1.421875 
Q 22.515625 -1.421875 17.65625 -0.515625 
Q 12.796875 0.390625 7.625 2.203125 
L 7.625 11.71875 
Q 11.71875 9.328125 16.59375 8.109375 
Q 21.484375 6.890625 26.8125 6.890625 
Q 36.078125 6.890625 40.9375 10.546875 
Q 45.796875 14.203125 45.796875 21.1875 
Q 45.796875 27.640625 41.28125 31.265625 
Q 36.765625 34.90625 28.71875 34.90625 
L 20.21875 34.90625 
L 20.21875 43.015625 
L 29.109375 43.015625 
Q 36.375 43.015625 40.234375 45.921875 
Q 44.09375 48.828125 44.09375 54.296875 
Q 44.09375 59.90625 40.109375 62.90625 
Q 36.140625 65.921875 28.71875 65.921875 
Q 24.65625 65.921875 20.015625 65.03125 
Q 15.375 64.15625 9.8125 62.3125 
L 9.8125 71.09375 
Q 15.4375 72.65625 20.34375 73.4375 
Q 25.25 74.21875 29.59375 74.21875 
Q 40.828125 74.21875 47.359375 69.109375 
Q 53.90625 64.015625 53.90625 55.328125 
Q 53.90625 49.265625 50.4375 45.09375 
Q 46.96875 40.921875 40.578125 39.3125 
z
" id="DejaVuSans-33"/>
      </defs>
      <g transform="translate(25.15 194.04623)scale(0.1 -0.1)">
       <use xlink:href="#DejaVuSans-33"/>
       <use x="63.623047" xlink:href="#DejaVuSans-30"/>
       <use x="127.246094" xlink:href="#DejaVuSans-30"/>
       <use x="190.869141" xlink:href="#DejaVuSans-30"/>
      </g>
     </g>
    </g>
    <g id="ytick_4">
     <g id="line2d_12">
      <g>
       <use style="stroke:#000000;stroke-width:0.8;" x="57.6" xlink:href="#m08793ea831" y="148.207453"/>
      </g>
     </g>
     <g id="text_13">
      <!-- 3500 -->
      <g transform="translate(25.15 152.006672)scale(0.1 -0.1)">
       <use xlink:href="#DejaVuSans-33"/>
       <use x="63.623047" xlink:href="#DejaVuSans-35"/>
       <use x="127.246094" xlink:href="#DejaVuSans-30"/>
       <use x="190.869141" xlink:href="#DejaVuSans-30"/>
      </g>
     </g>
    </g>
    <g id="ytick_5">
     <g id="line2d_13">
      <g>
       <use style="stroke:#000000;stroke-width:0.8;" x="57.6" xlink:href="#m08793ea831" y="106.167895"/>
      </g>
     </g>
     <g id="text_14">
      <!-- 4000 -->
      <g transform="translate(25.15 109.967114)scale(0.1 -0.1)">
       <use xlink:href="#DejaVuSans-34"/>
       <use x="63.623047" xlink:href="#DejaVuSans-30"/>
       <use x="127.246094" xlink:href="#DejaVuSans-30"/>
       <use x="190.869141" xlink:href="#DejaVuSans-30"/>
      </g>
     </g>
    </g>
    <g id="ytick_6">
     <g id="line2d_14">
      <g>
       <use style="stroke:#000000;stroke-width:0.8;" x="57.6" xlink:href="#m08793ea831" y="64.128337"/>
      </g>
     </g>
     <g id="text_15">
      <!-- 4500 -->
      <g transform="translate(25.15 67.927556)scale(0.1 -0.1)">
       <use xlink:href="#DejaVuSans-34"/>
       <use x="63.623047" xlink:href="#DejaVuSans-35"/>
       <use x="127.246094" xlink:href="#DejaVuSans-30"/>
       <use x="190.869141" xlink:href="#DejaVuSans-30"/>
      </g>
     </g>
    </g>
    <g id="text_16">
     <!-- Average fitness -->
     <defs>
      <path d="M 34.1875 63.1875 
L 20.796875 26.90625 
L 47.609375 26.90625 
z
M 28.609375 72.90625 
L 39.796875 72.90625 
L 67.578125 0 
L 57.328125 0 
L 50.6875 18.703125 
L 17.828125 18.703125 
L 11.1875 0 
L 0.78125 0 
z
" id="DejaVuSans-41"/>
      <path d="M 2.984375 54.6875 
L 12.5 54.6875 
L 29.59375 8.796875 
L 46.6875 54.6875 
L 56.203125 54.6875 
L 35.6875 0 
L 23.484375 0 
z
" id="DejaVuSans-76"/>
      <path d="M 45.40625 27.984375 
Q 45.40625 37.75 41.375 43.109375 
Q 37.359375 48.484375 30.078125 48.484375 
Q 22.859375 48.484375 18.828125 43.109375 
Q 14.796875 37.75 14.796875 27.984375 
Q 14.796875 18.265625 18.828125 12.890625 
Q 22.859375 7.515625 30.078125 7.515625 
Q 37.359375 7.515625 41.375 12.890625 
Q 45.40625 18.265625 45.40625 27.984375 
z
M 54.390625 6.78125 
Q 54.390625 -7.171875 48.1875 -13.984375 
Q 42 -20.796875 29.203125 -20.796875 
Q 24.46875 -20.796875 20.265625 -20.09375 
Q 16.0625 -19.390625 12.109375 -17.921875 
L 12.109375 -9.1875 
Q 16.0625 -11.328125 19.921875 -12.34375 
Q 23.78125 -13.375 27.78125 -13.375 
Q 36.625 -13.375 41.015625 -8.765625 
Q 45.40625 -4.15625 45.40625 5.171875 
L 45.40625 9.625 
Q 42.625 4.78125 38.28125 2.390625 
Q 33.9375 0 27.875 0 
Q 17.828125 0 11.671875 7.65625 
Q 5.515625 15.328125 5.515625 27.984375 
Q 5.515625 40.671875 11.671875 48.328125 
Q 17.828125 56 27.875 56 
Q 33.9375 56 38.28125 53.609375 
Q 42.625 51.21875 45.40625 46.390625 
L 45.40625 54.6875 
L 54.390625 54.6875 
z
" id="DejaVuSans-67"/>
      <path d="M 37.109375 75.984375 
L 37.109375 68.5 
L 28.515625 68.5 
Q 23.6875 68.5 21.796875 66.546875 
Q 19.921875 64.59375 19.921875 59.515625 
L 19.921875 54.6875 
L 34.71875 54.6875 
L 34.71875 47.703125 
L 19.921875 47.703125 
L 19.921875 0 
L 10.890625 0 
L 10.890625 47.703125 
L 2.296875 47.703125 
L 2.296875 54.6875 
L 10.890625 54.6875 
L 10.890625 58.5 
Q 10.890625 67.625 15.140625 71.796875 
Q 19.390625 75.984375 28.609375 75.984375 
z
" id="DejaVuSans-66"/>
      <path d="M 44.28125 53.078125 
L 44.28125 44.578125 
Q 40.484375 46.53125 36.375 47.5 
Q 32.28125 48.484375 27.875 48.484375 
Q 21.1875 48.484375 17.84375 46.4375 
Q 14.5 44.390625 14.5 40.28125 
Q 14.5 37.15625 16.890625 35.375 
Q 19.28125 33.59375 26.515625 31.984375 
L 29.59375 31.296875 
Q 39.15625 29.25 43.1875 25.515625 
Q 47.21875 21.78125 47.21875 15.09375 
Q 47.21875 7.46875 41.1875 3.015625 
Q 35.15625 -1.421875 24.609375 -1.421875 
Q 20.21875 -1.421875 15.453125 -0.5625 
Q 10.6875 0.296875 5.421875 2 
L 5.421875 11.28125 
Q 10.40625 8.6875 15.234375 7.390625 
Q 20.0625 6.109375 24.8125 6.109375 
Q 31.15625 6.109375 34.5625 8.28125 
Q 37.984375 10.453125 37.984375 14.40625 
Q 37.984375 18.0625 35.515625 20.015625 
Q 33.0625 21.96875 24.703125 23.78125 
L 21.578125 24.515625 
Q 13.234375 26.265625 9.515625 29.90625 
Q 5.8125 33.546875 5.8125 39.890625 
Q 5.8125 47.609375 11.28125 51.796875 
Q 16.75 56 26.8125 56 
Q 31.78125 56 36.171875 55.265625 
Q 40.578125 54.546875 44.28125 53.078125 
z
" id="DejaVuSans-73"/>
     </defs>
     <g transform="translate(19.070312 213.503781)rotate(-90)scale(0.1 -0.1)">
      <use xlink:href="#DejaVuSans-41"/>
      <use x="68.330078" xlink:href="#DejaVuSans-76"/>
      <use x="127.509766" xlink:href="#DejaVuSans-65"/>
      <use x="189.033203" xlink:href="#DejaVuSans-72"/>
      <use x="230.146484" xlink:href="#DejaVuSans-61"/>
      <use x="291.425781" xlink:href="#DejaVuSans-67"/>
      <use x="354.902344" xlink:href="#DejaVuSans-65"/>
      <use x="416.425781" xlink:href="#DejaVuSans-20"/>
      <use x="448.212891" xlink:href="#DejaVuSans-66"/>
      <use x="483.417969" xlink:href="#DejaVuSans-69"/>
      <use x="511.201172" xlink:href="#DejaVuSans-74"/>
      <use x="550.410156" xlink:href="#DejaVuSans-6e"/>
      <use x="613.789062" xlink:href="#DejaVuSans-65"/>
      <use x="675.3125" xlink:href="#DejaVuSans-73"/>
      <use x="727.412109" xlink:href="#DejaVuSans-73"/>
     </g>
    </g>
   </g>
   <g id="line2d_15">
    <path clip-path="url(#p5a6a25a95b)" d="M 73.832727 53.618447 
L 74.053131 53.607517 
L 74.493938 61.924623 
L 74.934745 73.700744 
L 77.579589 161.48859 
L 78.461203 177.699044 
L 79.342818 189.025342 
L 80.224433 197.746868 
L 81.987662 210.48065 
L 83.08968 216.125722 
L 83.750891 219.105486 
L 83.971294 220.197674 
L 84.191698 220.702149 
L 85.734523 227.188852 
L 85.954927 227.320857 
L 86.836541 230.590693 
L 87.277349 231.79891 
L 87.497752 232.678378 
L 87.718156 233.06346 
L 89.040578 236.902513 
L 89.260981 237.264053 
L 89.922192 239.374439 
L 90.142596 239.872187 
L 90.803807 241.857295 
L 91.685421 244.045874 
L 91.905825 244.620976 
L 92.126228 244.850512 
L 92.567036 246.130196 
L 92.787439 246.244543 
L 93.228247 247.368681 
L 93.44865 247.797485 
L 93.669054 247.963961 
L 94.109861 249.34454 
L 94.771072 250.437569 
L 95.211879 251.667646 
L 95.432283 251.549936 
L 95.87309 252.963305 
L 96.093494 253.100354 
L 96.313897 253.672092 
L 96.534301 253.879768 
L 96.975108 254.756713 
L 97.856723 256.309654 
L 98.077126 256.493788 
L 99.179145 258.656302 
L 99.399548 258.997664 
L 99.840355 259.278488 
L 100.281163 260.163841 
L 100.942374 260.75744 
L 101.383181 261.23669 
L 102.044392 262.318789 
L 102.264795 262.695463 
L 102.485199 262.660991 
L 103.807621 264.630124 
L 104.028024 264.498119 
L 104.248428 265.161504 
L 104.468832 265.192613 
L 105.350446 266.189791 
L 105.791253 266.864947 
L 106.011657 266.906145 
L 106.232061 267.252551 
L 106.452464 267.225646 
L 107.774886 268.63313 
L 107.99529 268.713846 
L 108.215693 269.28054 
L 108.656501 269.443653 
L 109.317712 270.273514 
L 109.538115 270.317235 
L 110.640133 271.294234 
L 110.860537 271.843271 
L 111.080941 271.541427 
L 111.301344 272.010588 
L 111.521748 271.945007 
L 111.742151 272.291413 
L 111.962555 272.196403 
L 112.182959 272.283005 
L 113.284977 273.424799 
L 114.166591 273.857807 
L 114.386995 273.930115 
L 115.489013 275.260246 
L 115.709417 275.114789 
L 116.150224 275.288833 
L 116.370628 275.305649 
L 118.35426 276.877088 
L 118.574664 276.598786 
L 118.795068 277.207519 
L 119.456278 277.192384 
L 119.897086 277.63464 
L 120.117489 277.647252 
L 120.337893 277.975161 
L 120.7787 278.07017 
L 121.439911 278.689833 
L 121.880718 278.506541 
L 122.321526 278.821838 
L 122.541929 279.108547 
L 122.762333 279.105184 
L 123.20314 279.314541 
L 123.423544 279.237188 
L 123.643947 279.312019 
L 124.305158 279.969518 
L 124.525562 279.771932 
L 125.407176 280.39748 
L 125.62758 280.409251 
L 125.847984 280.158696 
L 126.068387 280.436157 
L 126.288791 280.225959 
L 126.509195 280.536211 
L 126.729598 280.634583 
L 126.950002 280.600111 
L 127.170405 280.829647 
L 127.390809 280.75818 
L 127.611213 281.074317 
L 128.713231 281.423245 
L 128.933635 281.655304 
L 129.154038 281.518255 
L 129.374442 281.576269 
L 130.035653 282.212748 
L 130.256056 282.046272 
L 130.917267 282.2674 
L 131.137671 282.119421 
L 131.798882 282.600353 
L 132.019285 282.514592 
L 132.239689 282.705452 
L 133.121303 282.744969 
L 133.341707 283.229265 
L 133.562111 283.299891 
L 133.782514 283.113236 
L 134.664129 283.396582 
L 135.104936 283.397423 
L 135.986551 283.792595 
L 136.206954 283.663954 
L 137.088569 284.183563 
L 137.308972 284.00027 
L 137.74978 284.150772 
L 138.631394 284.540899 
L 138.851798 284.472795 
L 139.072201 284.64768 
L 139.292605 284.577894 
L 139.953816 284.883101 
L 140.17422 284.831813 
L 140.394623 285.032762 
L 141.276238 284.99913 
L 141.496641 285.284158 
L 141.937449 285.110955 
L 142.157852 285.276591 
L 142.378256 285.161403 
L 142.59866 285.38169 
L 142.819063 285.180741 
L 143.039467 285.189149 
L 143.700678 285.688579 
L 144.361889 285.617953 
L 144.582292 285.823106 
L 145.023099 285.903822 
L 145.243503 286.140084 
L 145.68431 285.812175 
L 146.125118 285.960155 
L 146.345521 285.819742 
L 146.565925 285.934931 
L 146.786328 286.223322 
L 147.227136 286.261158 
L 147.667943 286.352804 
L 148.10875 286.322536 
L 148.329154 286.409137 
L 148.990365 286.320854 
L 149.210768 286.331784 
L 149.431172 286.457062 
L 149.871979 286.479763 
L 150.092383 286.557957 
L 150.312787 286.487331 
L 150.53319 286.824488 
L 151.414805 286.753021 
L 151.635208 286.954811 
L 152.076016 286.785811 
L 152.95763 287.159123 
L 153.398437 287.28356 
L 153.618841 287.47526 
L 154.280052 287.238157 
L 154.500455 287.297853 
L 154.720859 287.490394 
L 154.941263 287.363435 
L 155.602474 287.487031 
L 156.263685 287.640055 
L 156.924895 287.653508 
L 157.145299 287.774582 
L 157.365703 287.683776 
L 158.247317 288.057088 
L 159.128932 287.880522 
L 159.349335 288.097446 
L 159.569739 288.068018 
L 160.010546 288.164709 
L 160.451353 287.95367 
L 160.892161 288.394245 
L 161.112564 288.278216 
L 161.332968 288.350524 
L 161.553372 288.221042 
L 161.994179 288.444692 
L 162.214582 288.61201 
L 162.434986 288.557358 
L 162.65539 288.300076 
L 162.875793 288.555677 
L 163.096197 288.475802 
L 163.537004 288.653209 
L 163.757408 288.526249 
L 163.977812 288.860884 
L 164.418619 288.556518 
L 164.639022 288.712905 
L 165.07983 288.530453 
L 165.520637 288.743173 
L 165.741041 288.67591 
L 166.181848 288.918899 
L 166.402251 289.152639 
L 166.622655 288.844909 
L 166.843059 288.872655 
L 167.063462 289.147594 
L 167.945077 288.860043 
L 168.16548 289.080331 
L 169.047095 289.259419 
L 169.267499 289.089579 
L 169.487902 289.221583 
L 169.708306 289.108917 
L 170.369517 289.499045 
L 170.58992 289.353588 
L 170.810324 289.573034 
L 171.030728 289.464572 
L 171.251131 289.586487 
L 171.471535 289.355269 
L 172.132746 289.437667 
L 172.353149 289.415806 
L 172.573553 289.558741 
L 172.793957 289.542766 
L 173.01436 289.347702 
L 173.234764 289.725217 
L 173.895975 289.672248 
L 174.116378 289.457846 
L 174.336782 289.484751 
L 174.997993 289.845451 
L 175.659204 289.809296 
L 175.879607 290.001838 
L 176.100011 289.928689 
L 176.320415 289.99343 
L 176.540818 289.836202 
L 176.761222 290.02538 
L 176.981626 289.91944 
L 177.86324 290.172518 
L 178.083644 289.914395 
L 178.744855 290.133001 
L 178.965258 290.022857 
L 179.185662 290.302841 
L 179.406066 290.208672 
L 179.626469 290.373467 
L 179.846873 290.19606 
L 180.728487 290.314612 
L 181.169295 290.325542 
L 181.389698 290.408781 
L 181.610102 290.180926 
L 182.491716 290.356652 
L 182.71212 290.249871 
L 183.152927 290.46175 
L 183.593734 290.490337 
L 183.814138 290.387761 
L 184.475349 290.518924 
L 184.695753 290.39785 
L 185.13656 290.651769 
L 185.356964 290.697172 
L 185.577367 290.608048 
L 185.797771 290.968748 
L 186.458982 290.8544 
L 186.679385 290.95025 
L 187.120193 290.861967 
L 187.781403 290.819927 
L 188.222211 291.01415 
L 188.442614 290.894758 
L 191.087458 291.204169 
L 191.307862 291.195761 
L 191.528265 291.306746 
L 191.969072 291.12009 
L 193.291494 291.221826 
L 193.511898 291.39671 
L 193.732301 291.278999 
L 194.393512 291.271432 
L 194.613916 291.234438 
L 194.83432 291.52367 
L 195.054723 291.603545 
L 195.275127 291.434546 
L 195.49553 291.559824 
L 195.936338 291.434546 
L 196.817952 291.664923 
L 197.258759 291.578321 
L 197.479163 291.568232 
L 197.699567 291.740594 
L 197.91997 291.526192 
L 198.140374 291.837285 
L 198.360778 291.661559 
L 198.581181 291.80029 
L 199.021989 291.643062 
L 199.462796 291.696873 
L 199.683199 291.845693 
L 199.903603 291.717892 
L 200.124007 291.933135 
L 200.34441 291.769181 
L 201.005621 292.089522 
L 201.446428 291.744798 
L 201.887236 292.015533 
L 202.548447 291.80029 
L 202.989254 291.751524 
L 203.650465 292.032348 
L 204.532079 291.98106 
L 205.634097 291.929772 
L 206.074905 291.992831 
L 206.295308 291.96004 
L 206.515712 292.155945 
L 206.956519 292.134084 
L 207.397326 292.125676 
L 207.838134 292.41659 
L 208.058537 292.167716 
L 208.278941 292.111383 
L 208.499345 292.264407 
L 208.719748 292.182009 
L 208.940152 292.239183 
L 209.160555 292.165193 
L 209.380959 292.250113 
L 209.601363 292.128199 
L 210.04217 292.11895 
L 210.262574 292.455266 
L 210.482977 292.209755 
L 210.703381 292.348486 
L 210.923784 292.222367 
L 211.584995 292.219004 
L 212.025803 292.467037 
L 212.46661 292.487216 
L 212.687014 292.250113 
L 213.127821 292.56541 
L 213.348224 292.397252 
L 214.229839 292.446018 
L 214.450243 292.651171 
L 214.670646 292.568773 
L 214.89105 292.664623 
L 215.111453 292.43761 
L 216.213472 292.688165 
L 219.519526 292.658738 
L 219.73993 292.494783 
L 220.401141 292.856324 
L 220.621544 292.770563 
L 221.062351 292.963104 
L 221.282755 292.828578 
L 221.503159 293.027845 
L 221.723562 292.975716 
L 221.943966 293.053069 
L 222.16437 292.912657 
L 222.605177 293.116128 
L 223.045984 293.039616 
L 223.266388 293.220386 
L 223.486791 293.222909 
L 223.927599 292.990009 
L 224.148002 293.06484 
L 224.368406 292.9589 
L 224.588809 293.048024 
L 224.809213 292.855483 
L 225.029617 293.044661 
L 225.25002 293.035412 
L 225.470424 293.172461 
L 226.131635 292.996736 
L 227.013249 293.231317 
L 227.233653 293.189277 
L 227.454057 293.336415 
L 229.658093 293.227953 
L 229.878497 293.155645 
L 230.0989 293.50121 
L 230.319304 293.492803 
L 230.539707 293.237202 
L 231.200918 293.243088 
L 231.641726 293.343142 
L 232.082533 293.425539 
L 232.302936 293.50037 
L 232.743744 293.283446 
L 233.184551 293.239724 
L 233.404955 293.406201 
L 234.066166 293.34146 
L 234.506973 293.432266 
L 235.388587 293.410405 
L 235.829395 293.422176 
L 237.151816 293.372569 
L 237.592624 293.445718 
L 238.253834 293.412087 
L 238.694642 293.318759 
L 238.915045 293.623966 
L 239.135449 293.485235 
L 239.355853 293.548295 
L 239.576256 293.427221 
L 239.79666 293.682821 
L 240.017064 293.455808 
L 240.678274 293.597901 
L 240.898678 293.609673 
L 241.119082 293.414609 
L 241.339485 293.598742 
L 242.000696 293.470942 
L 242.2211 293.642463 
L 242.882311 293.685344 
L 243.102714 293.878726 
L 243.763925 293.710567 
L 243.984329 293.891338 
L 244.204732 293.909835 
L 244.865943 293.654234 
L 245.086347 293.791283 
L 245.306751 293.792965 
L 245.527154 293.653394 
L 245.747558 293.905631 
L 245.967961 293.701319 
L 246.188365 293.801373 
L 246.408769 293.692911 
L 246.849576 293.782035 
L 247.06998 293.577722 
L 247.290383 293.813144 
L 248.392401 293.645827 
L 248.612805 293.85098 
L 248.833209 293.728224 
L 249.274016 293.803055 
L 249.714823 293.782035 
L 250.15563 293.89386 
L 251.037245 293.917402 
L 251.257649 294.019138 
L 251.918859 293.764378 
L 252.800474 294.034272 
L 253.020878 293.940944 
L 253.241281 294.030068 
L 253.682089 293.938422 
L 254.563703 293.97878 
L 254.784107 293.82996 
L 255.00451 293.962805 
L 255.224914 293.948511 
L 255.445318 293.812303 
L 255.665721 293.86191 
L 255.886125 293.695433 
L 256.547336 294.025864 
L 256.767739 294.067904 
L 257.208547 293.956919 
L 257.42895 294.092287 
L 257.649354 293.996436 
L 257.869757 294.035113 
L 258.090161 293.954397 
L 258.530968 294.023342 
L 259.192179 294.033431 
L 259.85339 293.964486 
L 260.073794 294.125918 
L 260.294197 294.060337 
L 260.514601 294.208316 
L 260.735005 294.109943 
L 261.396216 294.27642 
L 261.616619 294.169639 
L 261.837023 294.373952 
L 262.27783 294.115829 
L 262.498234 294.335275 
L 262.718637 294.140212 
L 263.159445 294.26633 
L 263.820655 294.094809 
L 264.261463 294.157028 
L 264.70227 293.960282 
L 264.922674 294.215042 
L 265.363481 294.29744 
L 265.583884 294.147779 
L 266.245095 294.220087 
L 266.465499 294.43617 
L 267.12671 294.077993 
L 267.787921 294.203271 
L 268.449132 294.130122 
L 268.669535 294.32939 
L 268.889939 294.197386 
L 269.110343 294.26633 
L 269.771553 294.142734 
L 269.991957 294.18057 
L 270.432764 294.389927 
L 270.653168 294.275579 
L 270.873572 294.399175 
L 272.416397 294.341161 
L 272.636801 294.189818 
L 272.857204 294.360499 
L 273.077608 294.208316 
L 273.298011 294.389927 
L 273.518415 294.270534 
L 274.40003 294.394131 
L 274.840837 294.262967 
L 275.722451 294.493344 
L 275.942855 294.34032 
L 276.163259 294.442897 
L 276.383662 294.285669 
L 276.604066 294.412628 
L 276.82447 294.29744 
L 277.044873 294.469802 
L 278.146891 294.358817 
L 278.367295 294.114147 
L 279.028506 294.539588 
L 279.469313 294.547155 
L 279.689717 294.397494 
L 279.91012 294.427762 
L 280.130524 294.626189 
L 280.350928 294.487459 
L 280.571331 294.511001 
L 280.791735 294.35041 
L 281.012138 294.536224 
L 281.232542 294.403379 
L 282.114157 294.48914 
L 282.775368 294.417673 
L 282.995771 294.585831 
L 283.216175 294.452145 
L 284.538597 294.59508 
L 284.759 294.512682 
L 284.979404 294.77585 
L 285.420211 294.521931 
L 287.18344 294.401698 
L 287.624247 294.569015 
L 288.726266 294.606851 
L 288.946669 294.52109 
L 289.387476 294.589194 
L 289.828284 294.386564 
L 290.269091 294.645527 
L 290.489495 294.559767 
L 290.930302 294.629552 
L 291.371109 294.61694 
L 291.591513 294.714472 
L 291.811916 294.518568 
L 292.252724 294.789303 
L 292.693531 294.574901 
L 293.134338 294.787621 
L 293.354742 294.626189 
L 293.795549 294.566493 
L 294.015953 294.810322 
L 294.236356 294.602647 
L 294.45676 294.90365 
L 294.677163 294.653094 
L 294.897567 294.664865 
L 295.338374 294.855725 
L 295.558778 294.620304 
L 295.999585 294.646368 
L 296.219989 294.666547 
L 296.440393 294.565652 
L 297.762814 294.726243 
L 297.983218 294.577423 
L 298.424025 294.655617 
L 298.644429 294.826297 
L 299.30564 294.79687 
L 299.526043 294.647209 
L 299.966851 294.759034 
L 300.407658 294.746422 
L 300.628061 294.606851 
L 301.068869 294.669069 
L 301.509676 294.575742 
L 301.73008 294.745581 
L 302.170887 294.711109 
L 302.391291 294.702701 
L 302.611694 294.873382 
L 303.493309 294.778372 
L 303.713712 294.827979 
L 304.15452 294.697656 
L 304.374923 294.835546 
L 304.595327 294.626189 
L 304.81573 294.695975 
L 305.036134 294.545473 
L 305.476941 294.937282 
L 306.138152 294.662343 
L 307.019767 294.813685 
L 307.24017 294.732129 
L 307.901381 294.785939 
L 309.223803 294.976799 
L 309.444207 294.755671 
L 309.885014 294.681681 
L 310.987032 294.886834 
L 311.427839 294.820412 
L 311.648243 294.813685 
L 311.868647 294.922988 
L 312.529857 294.695134 
L 313.191068 294.880949 
L 313.631876 294.70186 
L 313.852279 294.859929 
L 314.072683 294.704383 
L 314.293086 294.77585 
L 314.733894 294.740537 
L 314.954297 294.919625 
L 316.056315 294.894401 
L 316.497123 294.931396 
L 316.717526 294.708587 
L 316.93793 294.852362 
L 317.158334 295.14748 
L 317.378737 294.962506 
L 317.599141 295.107122 
L 317.819545 294.748104 
L 318.039948 294.950734 
L 318.260352 294.874222 
L 318.701159 294.937282 
L 319.36237 295.057515 
L 319.803177 294.779213 
L 320.243984 294.975117 
L 320.464388 294.806118 
L 320.905195 294.984366 
L 321.125599 295.078535 
L 321.566406 294.766601 
L 321.78681 294.936441 
L 322.007213 294.833024 
L 322.227617 295.015475 
L 323.329635 295.007067 
L 323.770443 294.912899 
L 325.313268 294.928033 
L 325.533672 295.176066 
L 325.754075 294.97764 
L 325.974479 294.934759 
L 326.415286 295.102077 
L 326.856093 294.841432 
L 327.076497 295.012112 
L 327.296901 294.854043 
L 327.517304 294.889357 
L 327.737708 295.118052 
L 327.958111 295.107962 
L 328.178515 294.883471 
L 328.398919 294.931396 
L 328.839726 294.760716 
L 329.06013 294.97764 
L 329.500937 294.848999 
L 330.382551 294.965869 
L 330.602955 294.827979 
L 331.043762 295.003704 
L 331.264166 295.056674 
L 331.704973 294.95662 
L 331.925377 295.11553 
L 332.806991 295.000341 
L 333.027395 295.134027 
L 333.247799 295.055833 
L 333.468202 295.22231 
L 333.909009 294.981003 
L 334.790624 295.014635 
L 335.451835 294.847317 
L 335.892642 294.926352 
L 336.333449 294.8717 
L 336.553853 294.981844 
L 336.99466 294.957461 
L 337.215064 295.096191 
L 337.435468 294.912058 
L 337.655871 295.11637 
L 337.876275 294.920466 
L 338.537486 295.11637 
L 338.978293 294.867496 
L 339.4191 295.071808 
L 339.639504 295.038177 
L 339.859907 294.878426 
L 340.300715 294.968391 
L 340.521118 295.028928 
L 341.182329 294.791825 
L 341.402733 294.987729 
L 341.623136 294.9995 
L 341.84354 294.837228 
L 342.284347 294.861611 
L 342.725155 294.974277 
L 342.945558 295.166818 
L 343.165962 294.944008 
L 343.386365 295.086102 
L 343.606769 294.912058 
L 343.827173 295.178589 
L 344.047576 295.255942 
L 344.488384 294.885153 
L 344.708787 294.949894 
L 344.929191 294.89272 
L 345.149595 295.152524 
L 345.810805 294.837228 
L 346.251613 295.288732 
L 346.69242 294.8078 
L 347.133227 294.814526 
L 347.353631 295.045744 
L 347.574034 295.045744 
L 347.794438 295.221469 
L 348.014842 294.996978 
L 348.235245 295.035654 
L 348.455649 295.199609 
L 349.337263 295.065923 
L 349.557667 294.859929 
L 349.778071 295.207176 
L 350.880089 294.921307 
L 351.320896 295.129823 
L 351.5413 295.044062 
L 351.761703 295.247534 
L 352.202511 294.941486 
L 352.422914 295.14832 
L 352.643318 294.947371 
L 352.863722 295.163455 
L 353.304529 294.975958 
L 353.524932 295.213902 
L 353.745336 295.065082 
L 354.186143 295.013794 
L 354.406547 295.263509 
L 355.067758 294.997819 
L 355.288161 295.155887 
L 356.39018 295.010431 
L 356.610583 295.127301 
L 357.271794 294.986048 
L 357.492198 294.845636 
L 358.153409 295.026406 
L 359.696234 295.11553 
L 359.916638 294.852362 
L 360.137041 295.046585 
L 360.357445 294.979321 
L 361.018656 295.081898 
L 361.459463 295.076012 
L 361.679867 295.088624 
L 361.90027 294.867496 
L 362.120674 295.175226 
L 362.341078 295.117211 
L 362.561481 294.918784 
L 362.781885 295.015475 
L 363.002288 294.724562 
L 363.222692 294.873382 
L 363.443096 294.8717 
L 363.663499 295.095351 
L 363.883903 294.987729 
L 364.104307 295.011271 
L 364.32471 295.153365 
L 364.545114 294.971754 
L 365.426728 295.044062 
L 365.647132 294.926352 
L 366.087939 295.127301 
L 366.528747 295.049948 
L 366.74915 295.193723 
L 366.969554 295.184474 
L 367.410361 294.947371 
L 367.851168 295.012112 
L 368.071572 295.309752 
L 368.291976 295.055833 
L 368.953186 295.217265 
L 369.17359 294.965869 
L 370.275608 295.05247 
L 370.496012 294.968391 
L 370.716415 295.266872 
L 370.936819 295.076012 
L 371.59803 295.123097 
L 372.038837 295.024724 
L 372.479645 294.949053 
L 372.700048 295.119733 
L 372.920452 295.02052 
L 373.361259 295.317319 
L 373.581663 295.165136 
L 374.02247 295.187838 
L 375.344892 295.171022 
L 375.565295 295.213061 
L 376.006103 294.772487 
L 376.44691 295.033973 
L 377.108121 295.097032 
L 377.989735 295.133186 
L 378.210139 294.926352 
L 379.091753 295.170181 
L 379.312157 294.933919 
L 379.752964 295.02052 
L 379.973368 295.051629 
L 380.193772 295.341702 
L 380.414175 295.058356 
L 380.634579 295.162614 
L 380.854982 295.134868 
L 381.075386 295.300504 
L 381.736597 295.039858 
L 381.957001 295.246693 
L 382.397808 295.255942 
L 382.618211 295.128141 
L 382.838615 295.315638 
L 383.940633 295.065923 
L 384.161037 295.197927 
L 384.38144 295.074331 
L 384.601844 295.313115 
L 385.483459 295.121415 
L 386.80588 295.22231 
L 387.026284 295.113848 
L 387.246688 295.319842 
L 387.467091 295.30723 
L 387.687495 295.152524 
L 387.907899 295.17943 
L 388.128302 295.324046 
L 388.348706 295.175226 
L 388.789513 295.250056 
L 389.009917 295.428304 
L 389.23032 295.32909 
L 389.450724 295.091147 
L 390.332338 295.334135 
L 390.773146 295.282847 
L 390.993549 295.16934 
L 391.213953 295.350951 
L 391.875164 295.02052 
L 392.315971 295.320683 
L 392.756778 295.160091 
L 392.977182 295.268554 
L 393.197586 295.064241 
L 393.638393 295.256782 
L 393.858797 295.095351 
L 394.740411 295.488 
L 395.181218 295.053311 
L 395.842429 295.269394 
L 396.724044 295.108803 
L 396.944447 295.23324 
L 397.164851 295.207176 
L 397.385255 295.471184 
L 398.487273 295.134868 
L 398.487273 295.134868 
" style="fill:none;stroke:#1f77b4;stroke-linecap:square;stroke-width:1.5;"/>
   </g>
   <g id="line2d_16">
    <path clip-path="url(#p5a6a25a95b)" d="M 73.832727 53.618447 
L 74.053131 53.568 
L 74.493938 62.002817 
L 74.934745 74.388512 
L 77.359185 156.369013 
L 78.020396 170.007486 
L 78.902011 184.002455 
L 79.783625 193.832145 
L 80.66524 201.401787 
L 81.767258 208.983201 
L 82.869276 215.448045 
L 83.310083 217.33478 
L 83.750891 219.785686 
L 84.412101 222.447631 
L 85.51412 226.992107 
L 85.734523 228.161648 
L 85.954927 228.451721 
L 86.395734 229.672549 
L 88.158963 235.684206 
L 88.379367 235.732131 
L 88.59977 236.831045 
L 88.820174 236.944552 
L 90.142596 240.924858 
L 90.362999 241.343572 
L 90.803807 242.481162 
L 91.685421 244.371261 
L 92.567036 246.312647 
L 93.007843 247.461168 
L 93.228247 247.575516 
L 94.109861 249.859104 
L 94.550668 250.367783 
L 95.432283 251.940903 
L 95.652687 252.431925 
L 95.87309 252.421836 
L 96.754705 254.675156 
L 96.975108 255.020721 
L 97.195512 255.068647 
L 97.415916 255.477271 
L 97.636319 256.15663 
L 97.856723 256.409708 
L 98.077126 256.433251 
L 98.738337 257.744885 
L 99.399548 258.435174 
L 100.281163 260.222696 
L 100.501566 260.583396 
L 100.72197 260.696903 
L 100.942374 261.116457 
L 101.162777 261.187925 
L 101.603585 261.900915 
L 101.823988 262.355784 
L 102.044392 262.283475 
L 102.264795 262.477698 
L 102.485199 263.111655 
L 102.705603 263.126789 
L 102.926006 263.518598 
L 103.14641 263.573249 
L 103.807621 264.476259 
L 104.028024 264.751198 
L 104.248428 264.72177 
L 104.689235 265.537337 
L 105.57085 266.290686 
L 105.791253 266.724534 
L 106.011657 266.811136 
L 106.452464 267.122229 
L 106.672868 267.640997 
L 106.893272 267.661176 
L 107.113675 268.091661 
L 107.554483 268.332968 
L 107.774886 268.819786 
L 107.99529 269.001397 
L 108.215693 268.944223 
L 108.436097 269.213276 
L 108.656501 269.29147 
L 108.876904 269.798467 
L 109.097308 269.882546 
L 110.199326 270.957918 
L 110.640133 271.303483 
L 110.860537 271.218563 
L 111.080941 271.617098 
L 111.521748 271.774326 
L 111.742151 272.085419 
L 111.962555 272.060195 
L 112.403362 272.753007 
L 112.623766 272.918643 
L 112.84417 272.654634 
L 113.284977 273.132204 
L 113.725784 273.296158 
L 113.946188 273.341561 
L 114.386995 273.653494 
L 114.607399 273.704783 
L 115.048206 274.273998 
L 115.26861 274.251297 
L 116.370628 274.805378 
L 116.591031 275.03071 
L 116.811435 275.081158 
L 117.252242 275.410748 
L 117.472646 275.418315 
L 117.693049 275.546115 
L 117.913453 276.014436 
L 118.574664 276.415493 
L 119.015471 275.955581 
L 119.235875 276.283489 
L 119.456278 276.227997 
L 119.897086 276.502095 
L 120.337893 276.511343 
L 120.7787 277.003206 
L 121.439911 277.03852 
L 121.880718 277.458074 
L 122.101122 277.459756 
L 122.321526 277.83643 
L 122.982737 277.960027 
L 123.20314 277.882674 
L 123.643947 278.225717 
L 124.084755 278.185359 
L 124.305158 278.504019 
L 124.525562 278.530083 
L 125.186773 278.999245 
L 125.407176 278.789047 
L 126.068387 279.212805 
L 126.288791 279.490267 
L 126.950002 279.085005 
L 127.170405 279.373397 
L 128.713231 280.036781 
L 128.933635 280.34451 
L 129.154038 280.300789 
L 129.594845 280.6102 
L 130.47646 280.613564 
L 130.696864 280.674941 
L 130.917267 280.489126 
L 131.358074 280.823761 
L 131.798882 280.787607 
L 132.680496 281.326554 
L 134.002918 281.378684 
L 134.443725 281.836074 
L 134.884532 281.739383 
L 135.104936 281.655304 
L 135.766147 282.216952 
L 135.986551 281.967237 
L 136.206954 282.211067 
L 136.427358 282.269081 
L 136.647762 282.143803 
L 137.088569 282.269922 
L 137.308972 282.498617 
L 138.410991 282.591104 
L 138.631394 282.741606 
L 139.072201 282.676024 
L 139.292605 282.839138 
L 139.513009 282.718064 
L 140.615027 283.088853 
L 140.83543 283.006455 
L 141.055834 283.24524 
L 141.496641 283.230946 
L 141.717045 283.377244 
L 141.937449 283.273827 
L 142.59866 283.358747 
L 143.039467 283.35202 
L 143.480274 283.545402 
L 143.700678 283.420965 
L 143.921081 283.558014 
L 144.361889 283.493273 
L 144.802696 283.628641 
L 146.125118 283.890127 
L 146.345521 283.750555 
L 146.786328 284.156658 
L 147.006732 283.938052 
L 147.447539 284.320612 
L 147.667943 284.302114 
L 147.888347 284.510631 
L 148.329154 284.463546 
L 148.549557 284.614048 
L 148.769961 284.381149 
L 148.990365 284.614048 
L 150.312787 284.941956 
L 150.53319 284.72251 
L 150.753594 284.910006 
L 150.973997 284.947842 
L 151.194401 285.135338 
L 151.635208 285.034443 
L 151.855612 284.987359 
L 152.296419 285.049578 
L 152.737226 284.980633 
L 152.95763 285.180741 
L 153.178034 285.065553 
L 153.398437 285.146269 
L 153.618841 284.980633 
L 153.839245 285.176537 
L 154.720859 285.266502 
L 155.161666 285.451476 
L 155.38207 285.191671 
L 155.822877 285.422889 
L 156.043281 285.501083 
L 156.263685 285.429615 
L 156.484088 285.606181 
L 156.704492 285.538918 
L 156.924895 285.707917 
L 157.365703 285.62636 
L 158.026914 285.640654 
L 158.247317 285.515376 
L 158.688124 285.798723 
L 158.908528 285.557416 
L 159.349335 285.779384 
L 159.790143 285.815538 
L 160.23095 285.854215 
L 160.451353 286.103089 
L 160.671757 285.917274 
L 160.892161 285.98706 
L 160.892161 285.98706 
" style="fill:none;stroke:#ff7f0e;stroke-linecap:square;stroke-width:1.5;"/>
   </g>
   <g id="patch_3">
    <path d="M 57.6 307.584 
L 57.6 41.472 
" style="fill:none;stroke:#000000;stroke-linecap:square;stroke-linejoin:miter;stroke-width:0.8;"/>
   </g>
   <g id="patch_4">
    <path d="M 414.72 307.584 
L 414.72 41.472 
" style="fill:none;stroke:#000000;stroke-linecap:square;stroke-linejoin:miter;stroke-width:0.8;"/>
   </g>
   <g id="patch_5">
    <path d="M 57.6 307.584 
L 414.72 307.584 
" style="fill:none;stroke:#000000;stroke-linecap:square;stroke-linejoin:miter;stroke-width:0.8;"/>
   </g>
   <g id="patch_6">
    <path d="M 57.6 41.472 
L 414.72 41.472 
" style="fill:none;stroke:#000000;stroke-linecap:square;stroke-linejoin:miter;stroke-width:0.8;"/>
   </g>
   <g id="text_17">
    <!-- Average fitness over 30 seconds -->
    <defs>
     <path d="M 48.78125 52.59375 
L 48.78125 44.1875 
Q 44.96875 46.296875 41.140625 47.34375 
Q 37.3125 48.390625 33.40625 48.390625 
Q 24.65625 48.390625 19.8125 42.84375 
Q 14.984375 37.3125 14.984375 27.296875 
Q 14.984375 17.28125 19.8125 11.734375 
Q 24.65625 6.203125 33.40625 6.203125 
Q 37.3125 6.203125 41.140625 7.25 
Q 44.96875 8.296875 48.78125 10.40625 
L 48.78125 2.09375 
Q 45.015625 0.34375 40.984375 -0.53125 
Q 36.96875 -1.421875 32.421875 -1.421875 
Q 20.0625 -1.421875 12.78125 6.34375 
Q 5.515625 14.109375 5.515625 27.296875 
Q 5.515625 40.671875 12.859375 48.328125 
Q 20.21875 56 33.015625 56 
Q 37.15625 56 41.109375 55.140625 
Q 45.0625 54.296875 48.78125 52.59375 
z
" id="DejaVuSans-63"/>
     <path d="M 45.40625 46.390625 
L 45.40625 75.984375 
L 54.390625 75.984375 
L 54.390625 0 
L 45.40625 0 
L 45.40625 8.203125 
Q 42.578125 3.328125 38.25 0.953125 
Q 33.9375 -1.421875 27.875 -1.421875 
Q 17.96875 -1.421875 11.734375 6.484375 
Q 5.515625 14.40625 5.515625 27.296875 
Q 5.515625 40.1875 11.734375 48.09375 
Q 17.96875 56 27.875 56 
Q 33.9375 56 38.25 53.625 
Q 42.578125 51.265625 45.40625 46.390625 
z
M 14.796875 27.296875 
Q 14.796875 17.390625 18.875 11.75 
Q 22.953125 6.109375 30.078125 6.109375 
Q 37.203125 6.109375 41.296875 11.75 
Q 45.40625 17.390625 45.40625 27.296875 
Q 45.40625 37.203125 41.296875 42.84375 
Q 37.203125 48.484375 30.078125 48.484375 
Q 22.953125 48.484375 18.875 42.84375 
Q 14.796875 37.203125 14.796875 27.296875 
z
" id="DejaVuSans-64"/>
    </defs>
    <g transform="translate(138.1275 35.472)scale(0.12 -0.12)">
     <use xlink:href="#DejaVuSans-41"/>
     <use x="68.330078" xlink:href="#DejaVuSans-76"/>
     <use x="127.509766" xlink:href="#DejaVuSans-65"/>
     <use x="189.033203" xlink:href="#DejaVuSans-72"/>
     <use x="230.146484" xlink:href="#DejaVuSans-61"/>
     <use x="291.425781" xlink:href="#DejaVuSans-67"/>
     <use x="354.902344" xlink:href="#DejaVuSans-65"/>
     <use x="416.425781" xlink:href="#DejaVuSans-20"/>
     <use x="448.212891" xlink:href="#DejaVuSans-66"/>
     <use x="483.417969" xlink:href="#DejaVuSans-69"/>
     <use x="511.201172" xlink:href="#DejaVuSans-74"/>
     <use x="550.410156" xlink:href="#DejaVuSans-6e"/>
     <use x="613.789062" xlink:href="#DejaVuSans-65"/>
     <use x="675.3125" xlink:href="#DejaVuSans-73"/>
     <use x="727.412109" xlink:href="#DejaVuSans-73"/>
     <use x="779.511719" xlink:href="#DejaVuSans-20"/>
     <use x="811.298828" xlink:href="#DejaVuSans-6f"/>
     <use x="872.480469" xlink:href="#DejaVuSans-76"/>
     <use x="931.660156" xlink:href="#DejaVuSans-65"/>
     <use x="993.183594" xlink:href="#DejaVuSans-72"/>
     <use x="1034.296875" xlink:href="#DejaVuSans-20"/>
     <use x="1066.083984" xlink:href="#DejaVuSans-33"/>
     <use x="1129.707031" xlink:href="#DejaVuSans-30"/>
     <use x="1193.330078" xlink:href="#DejaVuSans-20"/>
     <use x="1225.117188" xlink:href="#DejaVuSans-73"/>
     <use x="1277.216797" xlink:href="#DejaVuSans-65"/>
     <use x="1338.740234" xlink:href="#DejaVuSans-63"/>
     <use x="1393.720703" xlink:href="#DejaVuSans-6f"/>
     <use x="1454.902344" xlink:href="#DejaVuSans-6e"/>
     <use x="1518.28125" xlink:href="#DejaVuSans-64"/>
     <use x="1581.757812" xlink:href="#DejaVuSans-73"/>
    </g>
   </g>
   <g id="legend_1">
    <g id="patch_7">
     <path d="M 132.937188 78.82825 
L 407.72 78.82825 
Q 409.72 78.82825 409.72 76.82825 
L 409.72 48.472 
Q 409.72 46.472 407.72 46.472 
L 132.937188 46.472 
Q 130.937188 46.472 130.937188 48.472 
L 130.937188 76.82825 
Q 130.937188 78.82825 132.937188 78.82825 
z
" style="fill:#ffffff;opacity:0.8;stroke:#cccccc;stroke-linejoin:miter;"/>
    </g>
    <g id="patch_8">
     <path d="M 134.937188 58.070437 
L 154.937188 58.070437 
L 154.937188 51.070437 
L 134.937188 51.070437 
z
" style="fill:#87ceeb;stroke:#87ceeb;stroke-linejoin:miter;"/>
    </g>
    <g id="text_18">
     <!-- Parallel min 1748.31 Generation number 1475.0 -->
     <defs>
      <path d="M 19.671875 64.796875 
L 19.671875 37.40625 
L 32.078125 37.40625 
Q 38.96875 37.40625 42.71875 40.96875 
Q 46.484375 44.53125 46.484375 51.125 
Q 46.484375 57.671875 42.71875 61.234375 
Q 38.96875 64.796875 32.078125 64.796875 
z
M 9.8125 72.90625 
L 32.078125 72.90625 
Q 44.34375 72.90625 50.609375 67.359375 
Q 56.890625 61.8125 56.890625 51.125 
Q 56.890625 40.328125 50.609375 34.8125 
Q 44.34375 29.296875 32.078125 29.296875 
L 19.671875 29.296875 
L 19.671875 0 
L 9.8125 0 
z
" id="DejaVuSans-50"/>
      <path d="M 9.421875 75.984375 
L 18.40625 75.984375 
L 18.40625 0 
L 9.421875 0 
z
" id="DejaVuSans-6c"/>
      <path d="M 8.203125 72.90625 
L 55.078125 72.90625 
L 55.078125 68.703125 
L 28.609375 0 
L 18.3125 0 
L 43.21875 64.59375 
L 8.203125 64.59375 
z
" id="DejaVuSans-37"/>
      <path d="M 10.6875 12.40625 
L 21 12.40625 
L 21 0 
L 10.6875 0 
z
" id="DejaVuSans-2e"/>
     </defs>
     <g transform="translate(162.937188 58.070437)scale(0.1 -0.1)">
      <use xlink:href="#DejaVuSans-50"/>
      <use x="60.240234" xlink:href="#DejaVuSans-61"/>
      <use x="121.519531" xlink:href="#DejaVuSans-72"/>
      <use x="162.632812" xlink:href="#DejaVuSans-61"/>
      <use x="223.912109" xlink:href="#DejaVuSans-6c"/>
      <use x="251.695312" xlink:href="#DejaVuSans-6c"/>
      <use x="279.478516" xlink:href="#DejaVuSans-65"/>
      <use x="341.001953" xlink:href="#DejaVuSans-6c"/>
      <use x="368.785156" xlink:href="#DejaVuSans-20"/>
      <use x="400.572266" xlink:href="#DejaVuSans-6d"/>
      <use x="497.984375" xlink:href="#DejaVuSans-69"/>
      <use x="525.767578" xlink:href="#DejaVuSans-6e"/>
      <use x="589.146484" xlink:href="#DejaVuSans-20"/>
      <use x="620.933594" xlink:href="#DejaVuSans-31"/>
      <use x="684.556641" xlink:href="#DejaVuSans-37"/>
      <use x="748.179688" xlink:href="#DejaVuSans-34"/>
      <use x="811.802734" xlink:href="#DejaVuSans-38"/>
      <use x="875.425781" xlink:href="#DejaVuSans-2e"/>
      <use x="907.212891" xlink:href="#DejaVuSans-33"/>
      <use x="970.835938" xlink:href="#DejaVuSans-31"/>
      <use x="1034.458984" xlink:href="#DejaVuSans-20"/>
      <use x="1066.246094" xlink:href="#DejaVuSans-47"/>
      <use x="1143.736328" xlink:href="#DejaVuSans-65"/>
      <use x="1205.259766" xlink:href="#DejaVuSans-6e"/>
      <use x="1268.638672" xlink:href="#DejaVuSans-65"/>
      <use x="1330.162109" xlink:href="#DejaVuSans-72"/>
      <use x="1371.275391" xlink:href="#DejaVuSans-61"/>
      <use x="1432.554688" xlink:href="#DejaVuSans-74"/>
      <use x="1471.763672" xlink:href="#DejaVuSans-69"/>
      <use x="1499.546875" xlink:href="#DejaVuSans-6f"/>
      <use x="1560.728516" xlink:href="#DejaVuSans-6e"/>
      <use x="1624.107422" xlink:href="#DejaVuSans-20"/>
      <use x="1655.894531" xlink:href="#DejaVuSans-6e"/>
      <use x="1719.273438" xlink:href="#DejaVuSans-75"/>
      <use x="1782.652344" xlink:href="#DejaVuSans-6d"/>
      <use x="1880.064453" xlink:href="#DejaVuSans-62"/>
      <use x="1943.541016" xlink:href="#DejaVuSans-65"/>
      <use x="2005.064453" xlink:href="#DejaVuSans-72"/>
      <use x="2046.177734" xlink:href="#DejaVuSans-20"/>
      <use x="2077.964844" xlink:href="#DejaVuSans-31"/>
      <use x="2141.587891" xlink:href="#DejaVuSans-34"/>
      <use x="2205.210938" xlink:href="#DejaVuSans-37"/>
      <use x="2268.833984" xlink:href="#DejaVuSans-35"/>
      <use x="2332.457031" xlink:href="#DejaVuSans-2e"/>
      <use x="2364.244141" xlink:href="#DejaVuSans-30"/>
     </g>
    </g>
    <g id="patch_9">
     <path d="M 134.937188 72.748562 
L 154.937188 72.748562 
L 154.937188 65.748562 
L 134.937188 65.748562 
z
" style="fill:#ffa500;stroke:#ffa500;stroke-linejoin:miter;"/>
    </g>
    <g id="text_19">
     <!-- Serial min 1859.93 Generation number 397.0 -->
     <defs>
      <path d="M 53.515625 70.515625 
L 53.515625 60.890625 
Q 47.90625 63.578125 42.921875 64.890625 
Q 37.9375 66.21875 33.296875 66.21875 
Q 25.25 66.21875 20.875 63.09375 
Q 16.5 59.96875 16.5 54.203125 
Q 16.5 49.359375 19.40625 46.890625 
Q 22.3125 44.4375 30.421875 42.921875 
L 36.375 41.703125 
Q 47.40625 39.59375 52.65625 34.296875 
Q 57.90625 29 57.90625 20.125 
Q 57.90625 9.515625 50.796875 4.046875 
Q 43.703125 -1.421875 29.984375 -1.421875 
Q 24.8125 -1.421875 18.96875 -0.25 
Q 13.140625 0.921875 6.890625 3.21875 
L 6.890625 13.375 
Q 12.890625 10.015625 18.65625 8.296875 
Q 24.421875 6.59375 29.984375 6.59375 
Q 38.421875 6.59375 43.015625 9.90625 
Q 47.609375 13.234375 47.609375 19.390625 
Q 47.609375 24.75 44.3125 27.78125 
Q 41.015625 30.8125 33.5 32.328125 
L 27.484375 33.5 
Q 16.453125 35.6875 11.515625 40.375 
Q 6.59375 45.0625 6.59375 53.421875 
Q 6.59375 63.09375 13.40625 68.65625 
Q 20.21875 74.21875 32.171875 74.21875 
Q 37.3125 74.21875 42.625 73.28125 
Q 47.953125 72.359375 53.515625 70.515625 
z
" id="DejaVuSans-53"/>
      <path d="M 10.984375 1.515625 
L 10.984375 10.5 
Q 14.703125 8.734375 18.5 7.8125 
Q 22.3125 6.890625 25.984375 6.890625 
Q 35.75 6.890625 40.890625 13.453125 
Q 46.046875 20.015625 46.78125 33.40625 
Q 43.953125 29.203125 39.59375 26.953125 
Q 35.25 24.703125 29.984375 24.703125 
Q 19.046875 24.703125 12.671875 31.3125 
Q 6.296875 37.9375 6.296875 49.421875 
Q 6.296875 60.640625 12.9375 67.421875 
Q 19.578125 74.21875 30.609375 74.21875 
Q 43.265625 74.21875 49.921875 64.515625 
Q 56.59375 54.828125 56.59375 36.375 
Q 56.59375 19.140625 48.40625 8.859375 
Q 40.234375 -1.421875 26.421875 -1.421875 
Q 22.703125 -1.421875 18.890625 -0.6875 
Q 15.09375 0.046875 10.984375 1.515625 
z
M 30.609375 32.421875 
Q 37.25 32.421875 41.125 36.953125 
Q 45.015625 41.5 45.015625 49.421875 
Q 45.015625 57.28125 41.125 61.84375 
Q 37.25 66.40625 30.609375 66.40625 
Q 23.96875 66.40625 20.09375 61.84375 
Q 16.21875 57.28125 16.21875 49.421875 
Q 16.21875 41.5 20.09375 36.953125 
Q 23.96875 32.421875 30.609375 32.421875 
z
" id="DejaVuSans-39"/>
     </defs>
     <g transform="translate(162.937188 72.748562)scale(0.1 -0.1)">
      <use xlink:href="#DejaVuSans-53"/>
      <use x="63.476562" xlink:href="#DejaVuSans-65"/>
      <use x="125" xlink:href="#DejaVuSans-72"/>
      <use x="166.113281" xlink:href="#DejaVuSans-69"/>
      <use x="193.896484" xlink:href="#DejaVuSans-61"/>
      <use x="255.175781" xlink:href="#DejaVuSans-6c"/>
      <use x="282.958984" xlink:href="#DejaVuSans-20"/>
      <use x="314.746094" xlink:href="#DejaVuSans-6d"/>
      <use x="412.158203" xlink:href="#DejaVuSans-69"/>
      <use x="439.941406" xlink:href="#DejaVuSans-6e"/>
      <use x="503.320312" xlink:href="#DejaVuSans-20"/>
      <use x="535.107422" xlink:href="#DejaVuSans-31"/>
      <use x="598.730469" xlink:href="#DejaVuSans-38"/>
      <use x="662.353516" xlink:href="#DejaVuSans-35"/>
      <use x="725.976562" xlink:href="#DejaVuSans-39"/>
      <use x="789.599609" xlink:href="#DejaVuSans-2e"/>
      <use x="821.386719" xlink:href="#DejaVuSans-39"/>
      <use x="885.009766" xlink:href="#DejaVuSans-33"/>
      <use x="948.632812" xlink:href="#DejaVuSans-20"/>
      <use x="980.419922" xlink:href="#DejaVuSans-47"/>
      <use x="1057.910156" xlink:href="#DejaVuSans-65"/>
      <use x="1119.433594" xlink:href="#DejaVuSans-6e"/>
      <use x="1182.8125" xlink:href="#DejaVuSans-65"/>
      <use x="1244.335938" xlink:href="#DejaVuSans-72"/>
      <use x="1285.449219" xlink:href="#DejaVuSans-61"/>
      <use x="1346.728516" xlink:href="#DejaVuSans-74"/>
      <use x="1385.9375" xlink:href="#DejaVuSans-69"/>
      <use x="1413.720703" xlink:href="#DejaVuSans-6f"/>
      <use x="1474.902344" xlink:href="#DejaVuSans-6e"/>
      <use x="1538.28125" xlink:href="#DejaVuSans-20"/>
      <use x="1570.068359" xlink:href="#DejaVuSans-6e"/>
      <use x="1633.447266" xlink:href="#DejaVuSans-75"/>
      <use x="1696.826172" xlink:href="#DejaVuSans-6d"/>
      <use x="1794.238281" xlink:href="#DejaVuSans-62"/>
      <use x="1857.714844" xlink:href="#DejaVuSans-65"/>
      <use x="1919.238281" xlink:href="#DejaVuSans-72"/>
      <use x="1960.351562" xlink:href="#DejaVuSans-20"/>
      <use x="1992.138672" xlink:href="#DejaVuSans-33"/>
      <use x="2055.761719" xlink:href="#DejaVuSans-39"/>
      <use x="2119.384766" xlink:href="#DejaVuSans-37"/>
      <use x="2183.007812" xlink:href="#DejaVuSans-2e"/>
      <use x="2214.794922" xlink:href="#DejaVuSans-30"/>
     </g>
    </g>
   </g>
  </g>
 </g>
 <defs>
  <clipPath id="p5a6a25a95b">
   <rect height="266.112" width="357.12" x="57.6" y="41.472"/>
  </clipPath>
 </defs>
</svg>
