<?xml version="1.0" encoding="utf-8" standalone="no"?>
<!DOCTYPE svg PUBLIC "-//W3C//DTD SVG 1.1//EN"
  "http://www.w3.org/Graphics/SVG/1.1/DTD/svg11.dtd">
<!-- Created with matplotlib (http://matplotlib.org/) -->
<svg height="345.6pt" version="1.1" viewBox="0 0 460.8 345.6" width="460.8pt" xmlns="http://www.w3.org/2000/svg" xmlns:xlink="http://www.w3.org/1999/xlink">
 <defs>
  <style type="text/css">
*{stroke-linecap:butt;stroke-linejoin:round;}
  </style>
 </defs>
 <g id="figure_1">
  <g id="patch_1">
   <path d="M 0 345.6 
L 460.8 345.6 
L 460.8 0 
L 0 0 
z
" style="fill:#ffffff;"/>
  </g>
  <g id="axes_1">
   <g id="patch_2">
    <path d="M 57.6 307.584 
L 414.72 307.584 
L 414.72 41.472 
L 57.6 41.472 
z
" style="fill:#ffffff;"/>
   </g>
   <g id="matplotlib.axis_1">
    <g id="xtick_1">
     <g id="line2d_1">
      <defs>
       <path d="M 0 0 
L 0 3.5 
" id="m3fed2f218a" style="stroke:#000000;stroke-width:0.8;"/>
      </defs>
      <g>
       <use style="stroke:#000000;stroke-width:0.8;" x="73.180811" xlink:href="#m3fed2f218a" y="307.584"/>
      </g>
     </g>
     <g id="text_1">
      <!-- 0 -->
      <defs>
       <path d="M 31.78125 66.40625 
Q 24.171875 66.40625 20.328125 58.90625 
Q 16.5 51.421875 16.5 36.375 
Q 16.5 21.390625 20.328125 13.890625 
Q 24.171875 6.390625 31.78125 6.390625 
Q 39.453125 6.390625 43.28125 13.890625 
Q 47.125 21.390625 47.125 36.375 
Q 47.125 51.421875 43.28125 58.90625 
Q 39.453125 66.40625 31.78125 66.40625 
z
M 31.78125 74.21875 
Q 44.046875 74.21875 50.515625 64.515625 
Q 56.984375 54.828125 56.984375 36.375 
Q 56.984375 17.96875 50.515625 8.265625 
Q 44.046875 -1.421875 31.78125 -1.421875 
Q 19.53125 -1.421875 13.0625 8.265625 
Q 6.59375 17.96875 6.59375 36.375 
Q 6.59375 54.828125 13.0625 64.515625 
Q 19.53125 74.21875 31.78125 74.21875 
z
" id="DejaVuSans-30"/>
      </defs>
      <g transform="translate(69.999561 322.182437)scale(0.1 -0.1)">
       <use xlink:href="#DejaVuSans-30"/>
      </g>
     </g>
    </g>
    <g id="xtick_2">
     <g id="line2d_2">
      <g>
       <use style="stroke:#000000;stroke-width:0.8;" x="138.372486" xlink:href="#m3fed2f218a" y="307.584"/>
      </g>
     </g>
     <g id="text_2">
      <!-- 100 -->
      <defs>
       <path d="M 12.40625 8.296875 
L 28.515625 8.296875 
L 28.515625 63.921875 
L 10.984375 60.40625 
L 10.984375 69.390625 
L 28.421875 72.90625 
L 38.28125 72.90625 
L 38.28125 8.296875 
L 54.390625 8.296875 
L 54.390625 0 
L 12.40625 0 
z
" id="DejaVuSans-31"/>
      </defs>
      <g transform="translate(128.828736 322.182437)scale(0.1 -0.1)">
       <use xlink:href="#DejaVuSans-31"/>
       <use x="63.623047" xlink:href="#DejaVuSans-30"/>
       <use x="127.246094" xlink:href="#DejaVuSans-30"/>
      </g>
     </g>
    </g>
    <g id="xtick_3">
     <g id="line2d_3">
      <g>
       <use style="stroke:#000000;stroke-width:0.8;" x="203.564162" xlink:href="#m3fed2f218a" y="307.584"/>
      </g>
     </g>
     <g id="text_3">
      <!-- 200 -->
      <defs>
       <path d="M 19.1875 8.296875 
L 53.609375 8.296875 
L 53.609375 0 
L 7.328125 0 
L 7.328125 8.296875 
Q 12.9375 14.109375 22.625 23.890625 
Q 32.328125 33.6875 34.8125 36.53125 
Q 39.546875 41.84375 41.421875 45.53125 
Q 43.3125 49.21875 43.3125 52.78125 
Q 43.3125 58.59375 39.234375 62.25 
Q 35.15625 65.921875 28.609375 65.921875 
Q 23.96875 65.921875 18.8125 64.3125 
Q 13.671875 62.703125 7.8125 59.421875 
L 7.8125 69.390625 
Q 13.765625 71.78125 18.9375 73 
Q 24.125 74.21875 28.421875 74.21875 
Q 39.75 74.21875 46.484375 68.546875 
Q 53.21875 62.890625 53.21875 53.421875 
Q 53.21875 48.921875 51.53125 44.890625 
Q 49.859375 40.875 45.40625 35.40625 
Q 44.1875 33.984375 37.640625 27.21875 
Q 31.109375 20.453125 19.1875 8.296875 
z
" id="DejaVuSans-32"/>
      </defs>
      <g transform="translate(194.020412 322.182437)scale(0.1 -0.1)">
       <use xlink:href="#DejaVuSans-32"/>
       <use x="63.623047" xlink:href="#DejaVuSans-30"/>
       <use x="127.246094" xlink:href="#DejaVuSans-30"/>
      </g>
     </g>
    </g>
    <g id="xtick_4">
     <g id="line2d_4">
      <g>
       <use style="stroke:#000000;stroke-width:0.8;" x="268.755838" xlink:href="#m3fed2f218a" y="307.584"/>
      </g>
     </g>
     <g id="text_4">
      <!-- 300 -->
      <defs>
       <path d="M 40.578125 39.3125 
Q 47.65625 37.796875 51.625 33 
Q 55.609375 28.21875 55.609375 21.1875 
Q 55.609375 10.40625 48.1875 4.484375 
Q 40.765625 -1.421875 27.09375 -1.421875 
Q 22.515625 -1.421875 17.65625 -0.515625 
Q 12.796875 0.390625 7.625 2.203125 
L 7.625 11.71875 
Q 11.71875 9.328125 16.59375 8.109375 
Q 21.484375 6.890625 26.8125 6.890625 
Q 36.078125 6.890625 40.9375 10.546875 
Q 45.796875 14.203125 45.796875 21.1875 
Q 45.796875 27.640625 41.28125 31.265625 
Q 36.765625 34.90625 28.71875 34.90625 
L 20.21875 34.90625 
L 20.21875 43.015625 
L 29.109375 43.015625 
Q 36.375 43.015625 40.234375 45.921875 
Q 44.09375 48.828125 44.09375 54.296875 
Q 44.09375 59.90625 40.109375 62.90625 
Q 36.140625 65.921875 28.71875 65.921875 
Q 24.65625 65.921875 20.015625 65.03125 
Q 15.375 64.15625 9.8125 62.3125 
L 9.8125 71.09375 
Q 15.4375 72.65625 20.34375 73.4375 
Q 25.25 74.21875 29.59375 74.21875 
Q 40.828125 74.21875 47.359375 69.109375 
Q 53.90625 64.015625 53.90625 55.328125 
Q 53.90625 49.265625 50.4375 45.09375 
Q 46.96875 40.921875 40.578125 39.3125 
z
" id="DejaVuSans-33"/>
      </defs>
      <g transform="translate(259.212088 322.182437)scale(0.1 -0.1)">
       <use xlink:href="#DejaVuSans-33"/>
       <use x="63.623047" xlink:href="#DejaVuSans-30"/>
       <use x="127.246094" xlink:href="#DejaVuSans-30"/>
      </g>
     </g>
    </g>
    <g id="xtick_5">
     <g id="line2d_5">
      <g>
       <use style="stroke:#000000;stroke-width:0.8;" x="333.947514" xlink:href="#m3fed2f218a" y="307.584"/>
      </g>
     </g>
     <g id="text_5">
      <!-- 400 -->
      <defs>
       <path d="M 37.796875 64.3125 
L 12.890625 25.390625 
L 37.796875 25.390625 
z
M 35.203125 72.90625 
L 47.609375 72.90625 
L 47.609375 25.390625 
L 58.015625 25.390625 
L 58.015625 17.1875 
L 47.609375 17.1875 
L 47.609375 0 
L 37.796875 0 
L 37.796875 17.1875 
L 4.890625 17.1875 
L 4.890625 26.703125 
z
" id="DejaVuSans-34"/>
      </defs>
      <g transform="translate(324.403764 322.182437)scale(0.1 -0.1)">
       <use xlink:href="#DejaVuSans-34"/>
       <use x="63.623047" xlink:href="#DejaVuSans-30"/>
       <use x="127.246094" xlink:href="#DejaVuSans-30"/>
      </g>
     </g>
    </g>
    <g id="xtick_6">
     <g id="line2d_6">
      <g>
       <use style="stroke:#000000;stroke-width:0.8;" x="399.139189" xlink:href="#m3fed2f218a" y="307.584"/>
      </g>
     </g>
     <g id="text_6">
      <!-- 500 -->
      <defs>
       <path d="M 10.796875 72.90625 
L 49.515625 72.90625 
L 49.515625 64.59375 
L 19.828125 64.59375 
L 19.828125 46.734375 
Q 21.96875 47.46875 24.109375 47.828125 
Q 26.265625 48.1875 28.421875 48.1875 
Q 40.625 48.1875 47.75 41.5 
Q 54.890625 34.8125 54.890625 23.390625 
Q 54.890625 11.625 47.5625 5.09375 
Q 40.234375 -1.421875 26.90625 -1.421875 
Q 22.3125 -1.421875 17.546875 -0.640625 
Q 12.796875 0.140625 7.71875 1.703125 
L 7.71875 11.625 
Q 12.109375 9.234375 16.796875 8.0625 
Q 21.484375 6.890625 26.703125 6.890625 
Q 35.15625 6.890625 40.078125 11.328125 
Q 45.015625 15.765625 45.015625 23.390625 
Q 45.015625 31 40.078125 35.4375 
Q 35.15625 39.890625 26.703125 39.890625 
Q 22.75 39.890625 18.8125 39.015625 
Q 14.890625 38.140625 10.796875 36.28125 
z
" id="DejaVuSans-35"/>
      </defs>
      <g transform="translate(389.595439 322.182437)scale(0.1 -0.1)">
       <use xlink:href="#DejaVuSans-35"/>
       <use x="63.623047" xlink:href="#DejaVuSans-30"/>
       <use x="127.246094" xlink:href="#DejaVuSans-30"/>
      </g>
     </g>
    </g>
    <g id="text_7">
     <!-- Generation number -->
     <defs>
      <path d="M 59.515625 10.40625 
L 59.515625 29.984375 
L 43.40625 29.984375 
L 43.40625 38.09375 
L 69.28125 38.09375 
L 69.28125 6.78125 
Q 63.578125 2.734375 56.6875 0.65625 
Q 49.8125 -1.421875 42 -1.421875 
Q 24.90625 -1.421875 15.25 8.5625 
Q 5.609375 18.5625 5.609375 36.375 
Q 5.609375 54.25 15.25 64.234375 
Q 24.90625 74.21875 42 74.21875 
Q 49.125 74.21875 55.546875 72.453125 
Q 61.96875 70.703125 67.390625 67.28125 
L 67.390625 56.78125 
Q 61.921875 61.421875 55.765625 63.765625 
Q 49.609375 66.109375 42.828125 66.109375 
Q 29.4375 66.109375 22.71875 58.640625 
Q 16.015625 51.171875 16.015625 36.375 
Q 16.015625 21.625 22.71875 14.15625 
Q 29.4375 6.6875 42.828125 6.6875 
Q 48.046875 6.6875 52.140625 7.59375 
Q 56.25 8.5 59.515625 10.40625 
z
" id="DejaVuSans-47"/>
      <path d="M 56.203125 29.59375 
L 56.203125 25.203125 
L 14.890625 25.203125 
Q 15.484375 15.921875 20.484375 11.0625 
Q 25.484375 6.203125 34.421875 6.203125 
Q 39.59375 6.203125 44.453125 7.46875 
Q 49.3125 8.734375 54.109375 11.28125 
L 54.109375 2.78125 
Q 49.265625 0.734375 44.1875 -0.34375 
Q 39.109375 -1.421875 33.890625 -1.421875 
Q 20.796875 -1.421875 13.15625 6.1875 
Q 5.515625 13.8125 5.515625 26.8125 
Q 5.515625 40.234375 12.765625 48.109375 
Q 20.015625 56 32.328125 56 
Q 43.359375 56 49.78125 48.890625 
Q 56.203125 41.796875 56.203125 29.59375 
z
M 47.21875 32.234375 
Q 47.125 39.59375 43.09375 43.984375 
Q 39.0625 48.390625 32.421875 48.390625 
Q 24.90625 48.390625 20.390625 44.140625 
Q 15.875 39.890625 15.1875 32.171875 
z
" id="DejaVuSans-65"/>
      <path d="M 54.890625 33.015625 
L 54.890625 0 
L 45.90625 0 
L 45.90625 32.71875 
Q 45.90625 40.484375 42.875 44.328125 
Q 39.84375 48.1875 33.796875 48.1875 
Q 26.515625 48.1875 22.3125 43.546875 
Q 18.109375 38.921875 18.109375 30.90625 
L 18.109375 0 
L 9.078125 0 
L 9.078125 54.6875 
L 18.109375 54.6875 
L 18.109375 46.1875 
Q 21.34375 51.125 25.703125 53.5625 
Q 30.078125 56 35.796875 56 
Q 45.21875 56 50.046875 50.171875 
Q 54.890625 44.34375 54.890625 33.015625 
z
" id="DejaVuSans-6e"/>
      <path d="M 41.109375 46.296875 
Q 39.59375 47.171875 37.8125 47.578125 
Q 36.03125 48 33.890625 48 
Q 26.265625 48 22.1875 43.046875 
Q 18.109375 38.09375 18.109375 28.8125 
L 18.109375 0 
L 9.078125 0 
L 9.078125 54.6875 
L 18.109375 54.6875 
L 18.109375 46.1875 
Q 20.953125 51.171875 25.484375 53.578125 
Q 30.03125 56 36.53125 56 
Q 37.453125 56 38.578125 55.875 
Q 39.703125 55.765625 41.0625 55.515625 
z
" id="DejaVuSans-72"/>
      <path d="M 34.28125 27.484375 
Q 23.390625 27.484375 19.1875 25 
Q 14.984375 22.515625 14.984375 16.5 
Q 14.984375 11.71875 18.140625 8.90625 
Q 21.296875 6.109375 26.703125 6.109375 
Q 34.1875 6.109375 38.703125 11.40625 
Q 43.21875 16.703125 43.21875 25.484375 
L 43.21875 27.484375 
z
M 52.203125 31.203125 
L 52.203125 0 
L 43.21875 0 
L 43.21875 8.296875 
Q 40.140625 3.328125 35.546875 0.953125 
Q 30.953125 -1.421875 24.3125 -1.421875 
Q 15.921875 -1.421875 10.953125 3.296875 
Q 6 8.015625 6 15.921875 
Q 6 25.140625 12.171875 29.828125 
Q 18.359375 34.515625 30.609375 34.515625 
L 43.21875 34.515625 
L 43.21875 35.40625 
Q 43.21875 41.609375 39.140625 45 
Q 35.0625 48.390625 27.6875 48.390625 
Q 23 48.390625 18.546875 47.265625 
Q 14.109375 46.140625 10.015625 43.890625 
L 10.015625 52.203125 
Q 14.9375 54.109375 19.578125 55.046875 
Q 24.21875 56 28.609375 56 
Q 40.484375 56 46.34375 49.84375 
Q 52.203125 43.703125 52.203125 31.203125 
z
" id="DejaVuSans-61"/>
      <path d="M 18.3125 70.21875 
L 18.3125 54.6875 
L 36.8125 54.6875 
L 36.8125 47.703125 
L 18.3125 47.703125 
L 18.3125 18.015625 
Q 18.3125 11.328125 20.140625 9.421875 
Q 21.96875 7.515625 27.59375 7.515625 
L 36.8125 7.515625 
L 36.8125 0 
L 27.59375 0 
Q 17.1875 0 13.234375 3.875 
Q 9.28125 7.765625 9.28125 18.015625 
L 9.28125 47.703125 
L 2.6875 47.703125 
L 2.6875 54.6875 
L 9.28125 54.6875 
L 9.28125 70.21875 
z
" id="DejaVuSans-74"/>
      <path d="M 9.421875 54.6875 
L 18.40625 54.6875 
L 18.40625 0 
L 9.421875 0 
z
M 9.421875 75.984375 
L 18.40625 75.984375 
L 18.40625 64.59375 
L 9.421875 64.59375 
z
" id="DejaVuSans-69"/>
      <path d="M 30.609375 48.390625 
Q 23.390625 48.390625 19.1875 42.75 
Q 14.984375 37.109375 14.984375 27.296875 
Q 14.984375 17.484375 19.15625 11.84375 
Q 23.34375 6.203125 30.609375 6.203125 
Q 37.796875 6.203125 41.984375 11.859375 
Q 46.1875 17.53125 46.1875 27.296875 
Q 46.1875 37.015625 41.984375 42.703125 
Q 37.796875 48.390625 30.609375 48.390625 
z
M 30.609375 56 
Q 42.328125 56 49.015625 48.375 
Q 55.71875 40.765625 55.71875 27.296875 
Q 55.71875 13.875 49.015625 6.21875 
Q 42.328125 -1.421875 30.609375 -1.421875 
Q 18.84375 -1.421875 12.171875 6.21875 
Q 5.515625 13.875 5.515625 27.296875 
Q 5.515625 40.765625 12.171875 48.375 
Q 18.84375 56 30.609375 56 
z
" id="DejaVuSans-6f"/>
      <path id="DejaVuSans-20"/>
      <path d="M 8.5 21.578125 
L 8.5 54.6875 
L 17.484375 54.6875 
L 17.484375 21.921875 
Q 17.484375 14.15625 20.5 10.265625 
Q 23.53125 6.390625 29.59375 6.390625 
Q 36.859375 6.390625 41.078125 11.03125 
Q 45.3125 15.671875 45.3125 23.6875 
L 45.3125 54.6875 
L 54.296875 54.6875 
L 54.296875 0 
L 45.3125 0 
L 45.3125 8.40625 
Q 42.046875 3.421875 37.71875 1 
Q 33.40625 -1.421875 27.6875 -1.421875 
Q 18.265625 -1.421875 13.375 4.4375 
Q 8.5 10.296875 8.5 21.578125 
z
M 31.109375 56 
z
" id="DejaVuSans-75"/>
      <path d="M 52 44.1875 
Q 55.375 50.25 60.0625 53.125 
Q 64.75 56 71.09375 56 
Q 79.640625 56 84.28125 50.015625 
Q 88.921875 44.046875 88.921875 33.015625 
L 88.921875 0 
L 79.890625 0 
L 79.890625 32.71875 
Q 79.890625 40.578125 77.09375 44.375 
Q 74.3125 48.1875 68.609375 48.1875 
Q 61.625 48.1875 57.5625 43.546875 
Q 53.515625 38.921875 53.515625 30.90625 
L 53.515625 0 
L 44.484375 0 
L 44.484375 32.71875 
Q 44.484375 40.625 41.703125 44.40625 
Q 38.921875 48.1875 33.109375 48.1875 
Q 26.21875 48.1875 22.15625 43.53125 
Q 18.109375 38.875 18.109375 30.90625 
L 18.109375 0 
L 9.078125 0 
L 9.078125 54.6875 
L 18.109375 54.6875 
L 18.109375 46.1875 
Q 21.1875 51.21875 25.484375 53.609375 
Q 29.78125 56 35.6875 56 
Q 41.65625 56 45.828125 52.96875 
Q 50 49.953125 52 44.1875 
z
" id="DejaVuSans-6d"/>
      <path d="M 48.6875 27.296875 
Q 48.6875 37.203125 44.609375 42.84375 
Q 40.53125 48.484375 33.40625 48.484375 
Q 26.265625 48.484375 22.1875 42.84375 
Q 18.109375 37.203125 18.109375 27.296875 
Q 18.109375 17.390625 22.1875 11.75 
Q 26.265625 6.109375 33.40625 6.109375 
Q 40.53125 6.109375 44.609375 11.75 
Q 48.6875 17.390625 48.6875 27.296875 
z
M 18.109375 46.390625 
Q 20.953125 51.265625 25.265625 53.625 
Q 29.59375 56 35.59375 56 
Q 45.5625 56 51.78125 48.09375 
Q 58.015625 40.1875 58.015625 27.296875 
Q 58.015625 14.40625 51.78125 6.484375 
Q 45.5625 -1.421875 35.59375 -1.421875 
Q 29.59375 -1.421875 25.265625 0.953125 
Q 20.953125 3.328125 18.109375 8.203125 
L 18.109375 0 
L 9.078125 0 
L 9.078125 75.984375 
L 18.109375 75.984375 
z
" id="DejaVuSans-62"/>
     </defs>
     <g transform="translate(187.163906 335.860562)scale(0.1 -0.1)">
      <use xlink:href="#DejaVuSans-47"/>
      <use x="77.490234" xlink:href="#DejaVuSans-65"/>
      <use x="139.013672" xlink:href="#DejaVuSans-6e"/>
      <use x="202.392578" xlink:href="#DejaVuSans-65"/>
      <use x="263.916016" xlink:href="#DejaVuSans-72"/>
      <use x="305.029297" xlink:href="#DejaVuSans-61"/>
      <use x="366.308594" xlink:href="#DejaVuSans-74"/>
      <use x="405.517578" xlink:href="#DejaVuSans-69"/>
      <use x="433.300781" xlink:href="#DejaVuSans-6f"/>
      <use x="494.482422" xlink:href="#DejaVuSans-6e"/>
      <use x="557.861328" xlink:href="#DejaVuSans-20"/>
      <use x="589.648438" xlink:href="#DejaVuSans-6e"/>
      <use x="653.027344" xlink:href="#DejaVuSans-75"/>
      <use x="716.40625" xlink:href="#DejaVuSans-6d"/>
      <use x="813.818359" xlink:href="#DejaVuSans-62"/>
      <use x="877.294922" xlink:href="#DejaVuSans-65"/>
      <use x="938.818359" xlink:href="#DejaVuSans-72"/>
     </g>
    </g>
   </g>
   <g id="matplotlib.axis_2">
    <g id="ytick_1">
     <g id="line2d_7">
      <defs>
       <path d="M 0 0 
L -3.5 0 
" id="mc33aa682f7" style="stroke:#000000;stroke-width:0.8;"/>
      </defs>
      <g>
       <use style="stroke:#000000;stroke-width:0.8;" x="57.6" xlink:href="#mc33aa682f7" y="281.159515"/>
      </g>
     </g>
     <g id="text_8">
      <!-- 1000 -->
      <g transform="translate(25.15 284.958734)scale(0.1 -0.1)">
       <use xlink:href="#DejaVuSans-31"/>
       <use x="63.623047" xlink:href="#DejaVuSans-30"/>
       <use x="127.246094" xlink:href="#DejaVuSans-30"/>
       <use x="190.869141" xlink:href="#DejaVuSans-30"/>
      </g>
     </g>
    </g>
    <g id="ytick_2">
     <g id="line2d_8">
      <g>
       <use style="stroke:#000000;stroke-width:0.8;" x="57.6" xlink:href="#mc33aa682f7" y="243.541083"/>
      </g>
     </g>
     <g id="text_9">
      <!-- 1100 -->
      <g transform="translate(25.15 247.340302)scale(0.1 -0.1)">
       <use xlink:href="#DejaVuSans-31"/>
       <use x="63.623047" xlink:href="#DejaVuSans-31"/>
       <use x="127.246094" xlink:href="#DejaVuSans-30"/>
       <use x="190.869141" xlink:href="#DejaVuSans-30"/>
      </g>
     </g>
    </g>
    <g id="ytick_3">
     <g id="line2d_9">
      <g>
       <use style="stroke:#000000;stroke-width:0.8;" x="57.6" xlink:href="#mc33aa682f7" y="205.922651"/>
      </g>
     </g>
     <g id="text_10">
      <!-- 1200 -->
      <g transform="translate(25.15 209.72187)scale(0.1 -0.1)">
       <use xlink:href="#DejaVuSans-31"/>
       <use x="63.623047" xlink:href="#DejaVuSans-32"/>
       <use x="127.246094" xlink:href="#DejaVuSans-30"/>
       <use x="190.869141" xlink:href="#DejaVuSans-30"/>
      </g>
     </g>
    </g>
    <g id="ytick_4">
     <g id="line2d_10">
      <g>
       <use style="stroke:#000000;stroke-width:0.8;" x="57.6" xlink:href="#mc33aa682f7" y="168.304218"/>
      </g>
     </g>
     <g id="text_11">
      <!-- 1300 -->
      <g transform="translate(25.15 172.103437)scale(0.1 -0.1)">
       <use xlink:href="#DejaVuSans-31"/>
       <use x="63.623047" xlink:href="#DejaVuSans-33"/>
       <use x="127.246094" xlink:href="#DejaVuSans-30"/>
       <use x="190.869141" xlink:href="#DejaVuSans-30"/>
      </g>
     </g>
    </g>
    <g id="ytick_5">
     <g id="line2d_11">
      <g>
       <use style="stroke:#000000;stroke-width:0.8;" x="57.6" xlink:href="#mc33aa682f7" y="130.685786"/>
      </g>
     </g>
     <g id="text_12">
      <!-- 1400 -->
      <g transform="translate(25.15 134.485005)scale(0.1 -0.1)">
       <use xlink:href="#DejaVuSans-31"/>
       <use x="63.623047" xlink:href="#DejaVuSans-34"/>
       <use x="127.246094" xlink:href="#DejaVuSans-30"/>
       <use x="190.869141" xlink:href="#DejaVuSans-30"/>
      </g>
     </g>
    </g>
    <g id="ytick_6">
     <g id="line2d_12">
      <g>
       <use style="stroke:#000000;stroke-width:0.8;" x="57.6" xlink:href="#mc33aa682f7" y="93.067354"/>
      </g>
     </g>
     <g id="text_13">
      <!-- 1500 -->
      <g transform="translate(25.15 96.866573)scale(0.1 -0.1)">
       <use xlink:href="#DejaVuSans-31"/>
       <use x="63.623047" xlink:href="#DejaVuSans-35"/>
       <use x="127.246094" xlink:href="#DejaVuSans-30"/>
       <use x="190.869141" xlink:href="#DejaVuSans-30"/>
      </g>
     </g>
    </g>
    <g id="ytick_7">
     <g id="line2d_13">
      <g>
       <use style="stroke:#000000;stroke-width:0.8;" x="57.6" xlink:href="#mc33aa682f7" y="55.448922"/>
      </g>
     </g>
     <g id="text_14">
      <!-- 1600 -->
      <defs>
       <path d="M 33.015625 40.375 
Q 26.375 40.375 22.484375 35.828125 
Q 18.609375 31.296875 18.609375 23.390625 
Q 18.609375 15.53125 22.484375 10.953125 
Q 26.375 6.390625 33.015625 6.390625 
Q 39.65625 6.390625 43.53125 10.953125 
Q 47.40625 15.53125 47.40625 23.390625 
Q 47.40625 31.296875 43.53125 35.828125 
Q 39.65625 40.375 33.015625 40.375 
z
M 52.59375 71.296875 
L 52.59375 62.3125 
Q 48.875 64.0625 45.09375 64.984375 
Q 41.3125 65.921875 37.59375 65.921875 
Q 27.828125 65.921875 22.671875 59.328125 
Q 17.53125 52.734375 16.796875 39.40625 
Q 19.671875 43.65625 24.015625 45.921875 
Q 28.375 48.1875 33.59375 48.1875 
Q 44.578125 48.1875 50.953125 41.515625 
Q 57.328125 34.859375 57.328125 23.390625 
Q 57.328125 12.15625 50.6875 5.359375 
Q 44.046875 -1.421875 33.015625 -1.421875 
Q 20.359375 -1.421875 13.671875 8.265625 
Q 6.984375 17.96875 6.984375 36.375 
Q 6.984375 53.65625 15.1875 63.9375 
Q 23.390625 74.21875 37.203125 74.21875 
Q 40.921875 74.21875 44.703125 73.484375 
Q 48.484375 72.75 52.59375 71.296875 
z
" id="DejaVuSans-36"/>
      </defs>
      <g transform="translate(25.15 59.24814)scale(0.1 -0.1)">
       <use xlink:href="#DejaVuSans-31"/>
       <use x="63.623047" xlink:href="#DejaVuSans-36"/>
       <use x="127.246094" xlink:href="#DejaVuSans-30"/>
       <use x="190.869141" xlink:href="#DejaVuSans-30"/>
      </g>
     </g>
    </g>
    <g id="text_15">
     <!-- Average fitness -->
     <defs>
      <path d="M 34.1875 63.1875 
L 20.796875 26.90625 
L 47.609375 26.90625 
z
M 28.609375 72.90625 
L 39.796875 72.90625 
L 67.578125 0 
L 57.328125 0 
L 50.6875 18.703125 
L 17.828125 18.703125 
L 11.1875 0 
L 0.78125 0 
z
" id="DejaVuSans-41"/>
      <path d="M 2.984375 54.6875 
L 12.5 54.6875 
L 29.59375 8.796875 
L 46.6875 54.6875 
L 56.203125 54.6875 
L 35.6875 0 
L 23.484375 0 
z
" id="DejaVuSans-76"/>
      <path d="M 45.40625 27.984375 
Q 45.40625 37.75 41.375 43.109375 
Q 37.359375 48.484375 30.078125 48.484375 
Q 22.859375 48.484375 18.828125 43.109375 
Q 14.796875 37.75 14.796875 27.984375 
Q 14.796875 18.265625 18.828125 12.890625 
Q 22.859375 7.515625 30.078125 7.515625 
Q 37.359375 7.515625 41.375 12.890625 
Q 45.40625 18.265625 45.40625 27.984375 
z
M 54.390625 6.78125 
Q 54.390625 -7.171875 48.1875 -13.984375 
Q 42 -20.796875 29.203125 -20.796875 
Q 24.46875 -20.796875 20.265625 -20.09375 
Q 16.0625 -19.390625 12.109375 -17.921875 
L 12.109375 -9.1875 
Q 16.0625 -11.328125 19.921875 -12.34375 
Q 23.78125 -13.375 27.78125 -13.375 
Q 36.625 -13.375 41.015625 -8.765625 
Q 45.40625 -4.15625 45.40625 5.171875 
L 45.40625 9.625 
Q 42.625 4.78125 38.28125 2.390625 
Q 33.9375 0 27.875 0 
Q 17.828125 0 11.671875 7.65625 
Q 5.515625 15.328125 5.515625 27.984375 
Q 5.515625 40.671875 11.671875 48.328125 
Q 17.828125 56 27.875 56 
Q 33.9375 56 38.28125 53.609375 
Q 42.625 51.21875 45.40625 46.390625 
L 45.40625 54.6875 
L 54.390625 54.6875 
z
" id="DejaVuSans-67"/>
      <path d="M 37.109375 75.984375 
L 37.109375 68.5 
L 28.515625 68.5 
Q 23.6875 68.5 21.796875 66.546875 
Q 19.921875 64.59375 19.921875 59.515625 
L 19.921875 54.6875 
L 34.71875 54.6875 
L 34.71875 47.703125 
L 19.921875 47.703125 
L 19.921875 0 
L 10.890625 0 
L 10.890625 47.703125 
L 2.296875 47.703125 
L 2.296875 54.6875 
L 10.890625 54.6875 
L 10.890625 58.5 
Q 10.890625 67.625 15.140625 71.796875 
Q 19.390625 75.984375 28.609375 75.984375 
z
" id="DejaVuSans-66"/>
      <path d="M 44.28125 53.078125 
L 44.28125 44.578125 
Q 40.484375 46.53125 36.375 47.5 
Q 32.28125 48.484375 27.875 48.484375 
Q 21.1875 48.484375 17.84375 46.4375 
Q 14.5 44.390625 14.5 40.28125 
Q 14.5 37.15625 16.890625 35.375 
Q 19.28125 33.59375 26.515625 31.984375 
L 29.59375 31.296875 
Q 39.15625 29.25 43.1875 25.515625 
Q 47.21875 21.78125 47.21875 15.09375 
Q 47.21875 7.46875 41.1875 3.015625 
Q 35.15625 -1.421875 24.609375 -1.421875 
Q 20.21875 -1.421875 15.453125 -0.5625 
Q 10.6875 0.296875 5.421875 2 
L 5.421875 11.28125 
Q 10.40625 8.6875 15.234375 7.390625 
Q 20.0625 6.109375 24.8125 6.109375 
Q 31.15625 6.109375 34.5625 8.28125 
Q 37.984375 10.453125 37.984375 14.40625 
Q 37.984375 18.0625 35.515625 20.015625 
Q 33.0625 21.96875 24.703125 23.78125 
L 21.578125 24.515625 
Q 13.234375 26.265625 9.515625 29.90625 
Q 5.8125 33.546875 5.8125 39.890625 
Q 5.8125 47.609375 11.28125 51.796875 
Q 16.75 56 26.8125 56 
Q 31.78125 56 36.171875 55.265625 
Q 40.578125 54.546875 44.28125 53.078125 
z
" id="DejaVuSans-73"/>
     </defs>
     <g transform="translate(19.070312 213.503781)rotate(-90)scale(0.1 -0.1)">
      <use xlink:href="#DejaVuSans-41"/>
      <use x="68.330078" xlink:href="#DejaVuSans-76"/>
      <use x="127.509766" xlink:href="#DejaVuSans-65"/>
      <use x="189.033203" xlink:href="#DejaVuSans-72"/>
      <use x="230.146484" xlink:href="#DejaVuSans-61"/>
      <use x="291.425781" xlink:href="#DejaVuSans-67"/>
      <use x="354.902344" xlink:href="#DejaVuSans-65"/>
      <use x="416.425781" xlink:href="#DejaVuSans-20"/>
      <use x="448.212891" xlink:href="#DejaVuSans-66"/>
      <use x="483.417969" xlink:href="#DejaVuSans-69"/>
      <use x="511.201172" xlink:href="#DejaVuSans-74"/>
      <use x="550.410156" xlink:href="#DejaVuSans-6e"/>
      <use x="613.789062" xlink:href="#DejaVuSans-65"/>
      <use x="675.3125" xlink:href="#DejaVuSans-73"/>
      <use x="727.412109" xlink:href="#DejaVuSans-73"/>
     </g>
    </g>
   </g>
   <g id="line2d_14">
    <path clip-path="url(#p4d9c104d62)" d="M 73.832727 53.568 
L 74.484644 59.81266 
L 75.136561 75.597354 
L 75.788478 87.77444 
L 76.440394 102.216157 
L 77.744228 119.964533 
L 78.396145 125.404158 
L 79.048061 132.194285 
L 79.699978 136.828876 
L 80.351895 145.372022 
L 81.003812 155.419905 
L 83.611479 186.816249 
L 84.263395 191.401936 
L 85.567229 203.285599 
L 86.219146 207.566576 
L 86.871062 208.815508 
L 87.522979 211.964171 
L 88.174896 216.342956 
L 88.826813 216.658951 
L 89.478729 218.904772 
L 90.130646 223.49422 
L 90.782563 226.943831 
L 91.43448 229.08432 
L 92.086396 225.412761 
L 92.738313 230.145159 
L 93.39023 232.714498 
L 94.042147 234.016096 
L 94.694064 237.349089 
L 95.34598 241.404356 
L 95.997897 237.984841 
L 96.649814 242.070202 
L 97.301731 242.920379 
L 97.953647 244.33107 
L 98.605564 248.822711 
L 99.257481 246.294752 
L 99.909398 247.378163 
L 100.561314 242.532909 
L 101.213231 243.477132 
L 102.517065 247.7393 
L 103.168981 248.074104 
L 103.820898 248.833996 
L 104.472815 254.450428 
L 105.124732 254.232241 
L 105.776648 251.271671 
L 106.428565 256.011593 
L 107.732399 259.190351 
L 108.384315 257.316953 
L 109.036232 256.195924 
L 109.688149 258.464315 
L 110.340066 254.299955 
L 110.991982 252.607125 
L 112.295816 257.798469 
L 112.947733 257.700661 
L 113.59965 256.937007 
L 114.251566 255.785883 
L 114.903483 258.219795 
L 115.5554 255.22913 
L 116.207317 258.588456 
L 116.859233 259.092543 
L 117.51115 258.59598 
L 118.163067 258.268699 
L 118.814984 258.817928 
L 119.4669 260.691326 
L 120.118817 262.948432 
L 120.770734 262.621152 
L 121.422651 264.20865 
L 122.074567 264.667595 
L 122.726484 265.758529 
L 123.378401 268.143538 
L 124.030318 267.609356 
L 124.682234 268.158585 
L 125.334151 267.519072 
L 125.986068 269.557991 
L 126.637985 270.223837 
L 127.289901 270.084649 
L 127.941818 269.399993 
L 128.593735 271.45396 
L 129.245652 272.473419 
L 129.897568 272.695368 
L 130.549485 273.391309 
L 131.201402 273.22955 
L 132.505235 261.84245 
L 133.157152 262.61739 
L 133.809069 264.520883 
L 134.460986 268.956096 
L 135.112903 265.743482 
L 135.764819 269.738559 
L 136.416736 270.897207 
L 137.068653 272.834556 
L 138.372486 273.963109 
L 139.024403 274.975045 
L 139.67632 276.521163 
L 140.328237 277.717429 
L 140.980153 275.215803 
L 141.63207 275.787603 
L 142.283987 271.438912 
L 142.935904 268.96362 
L 143.58782 270.588736 
L 144.239737 271.134203 
L 144.891654 274.106059 
L 146.195487 275.772556 
L 146.847404 274.309199 
L 147.499321 271.570577 
L 148.151238 270.284027 
L 148.803154 272.458372 
L 149.455071 272.864651 
L 150.106988 268.117205 
L 150.758905 271.675909 
L 151.410821 268.072063 
L 152.062738 272.669035 
L 152.714655 272.563704 
L 153.366572 269.068951 
L 154.018488 270.449548 
L 154.670405 275.82146 
L 155.322322 277.337483 
L 155.974239 279.22969 
L 156.626156 276.878538 
L 157.278072 277.871664 
L 157.929989 279.771395 
L 158.581906 279.41402 
L 159.233823 278.548796 
L 159.885739 278.793316 
L 160.537656 278.759459 
L 161.189573 272.213852 
L 161.84149 267.996826 
L 162.493406 268.215013 
L 163.145323 272.375611 
L 163.79724 274.403245 
L 164.449157 275.223327 
L 165.101073 270.934825 
L 165.75299 275.494179 
L 166.404907 271.408818 
L 167.056824 274.252771 
L 167.70874 270.39312 
L 168.360657 271.058966 
L 169.012574 272.966221 
L 169.664491 277.281055 
L 170.316407 278.797078 
L 170.968324 275.294802 
L 171.620241 278.232801 
L 172.272158 277.935616 
L 172.924074 279.865441 
L 173.575991 279.929393 
L 174.227908 281.38485 
L 174.879825 279.869203 
L 175.531742 279.173262 
L 176.183658 279.590827 
L 176.835575 274.76062 
L 177.487492 273.590687 
L 178.139409 272.12733 
L 178.791325 273.662162 
L 179.443242 274.741811 
L 180.095159 278.153803 
L 180.747076 276.551257 
L 181.398992 275.847793 
L 182.050909 275.941839 
L 182.702826 277.115534 
L 183.354743 279.323736 
L 184.006659 280.990232 
L 184.658576 276.697969 
L 185.310493 275.885411 
L 185.96241 275.674748 
L 186.614326 276.513639 
L 187.266243 280.015915 
L 187.91816 279.564494 
L 188.570077 278.022138 
L 189.221993 277.563193 
L 189.87391 280.234102 
L 190.525827 278.78203 
L 191.177744 279.673587 
L 191.82966 280.911234 
L 192.481577 279.669825 
L 193.133494 282.116528 
L 193.785411 283.23041 
L 194.437327 283.756692 
L 195.089244 283.191287 
L 195.741161 283.072036 
L 196.393078 283.133354 
L 197.044995 281.612065 
L 197.696911 281.62147 
L 198.348828 282.854226 
L 199.000745 283.069779 
L 199.652662 285.077099 
L 200.304578 284.260403 
L 200.956495 285.44764 
L 201.608412 285.762131 
L 202.260329 279.572017 
L 202.912245 282.820745 
L 203.564162 283.427154 
L 204.216079 280.437241 
L 204.867996 280.873615 
L 205.519912 282.157532 
L 206.171829 282.44569 
L 206.823746 282.548388 
L 207.475663 283.539634 
L 208.127579 279.500542 
L 208.779496 283.516686 
L 209.431413 285.997622 
L 210.08333 284.451504 
L 210.735246 284.134757 
L 211.387163 278.285467 
L 212.03908 281.742601 
L 212.690997 282.624753 
L 213.342913 281.751253 
L 213.99483 284.757718 
L 214.646747 284.13551 
L 215.298664 285.303562 
L 215.950581 285.390084 
L 216.602497 280.267958 
L 217.254414 280.177674 
L 217.906331 280.90371 
L 218.558248 276.53621 
L 219.210164 278.10866 
L 219.862081 278.845982 
L 220.513998 281.54849 
L 221.165915 281.913765 
L 221.817831 283.754435 
L 222.469748 284.834836 
L 223.121665 285.399489 
L 223.773582 285.142555 
L 224.425498 285.585324 
L 225.077415 287.297715 
L 225.729332 279.274832 
L 226.381249 280.794617 
L 227.033165 282.751904 
L 227.685082 285.984455 
L 228.336999 282.48707 
L 228.988916 284.653139 
L 229.640832 286.224837 
L 230.292749 285.163997 
L 230.944666 286.471614 
L 231.596583 285.706079 
L 232.248499 287.086299 
L 232.900416 281.65006 
L 233.552333 285.505949 
L 234.20425 281.031613 
L 234.856166 283.30828 
L 235.508083 283.670922 
L 236.16 284.316454 
L 236.811917 285.550715 
L 238.767667 288.139615 
L 239.419584 286.106339 
L 240.071501 277.269769 
L 240.723417 281.958531 
L 241.375334 284.429686 
L 242.027251 284.281469 
L 242.679168 285.111708 
L 243.331084 286.74021 
L 243.983001 283.379003 
L 244.634918 285.804263 
L 245.286835 286.385844 
L 245.938751 287.805188 
L 246.590668 287.823244 
L 247.242585 288.644079 
L 247.894502 287.486559 
L 248.546418 280.042248 
L 249.198335 281.820471 
L 249.850252 280.610286 
L 250.502169 285.265943 
L 251.154085 279.131882 
L 251.806002 282.374591 
L 252.457919 282.525064 
L 253.109836 283.758949 
L 253.761752 286.026588 
L 254.413669 284.858536 
L 255.065586 280.335672 
L 255.717503 277.145629 
L 256.369419 278.827173 
L 257.021336 282.122171 
L 257.673253 282.125557 
L 258.32517 281.151992 
L 258.977087 284.09112 
L 259.629003 278.676699 
L 260.28092 280.061057 
L 260.932837 282.197408 
L 261.584754 283.674308 
L 262.888587 287.415461 
L 263.540504 286.201514 
L 264.192421 287.680294 
L 264.844337 288.25548 
L 265.496254 289.765108 
L 266.148171 287.789388 
L 266.800088 286.505847 
L 267.452004 285.513849 
L 268.103921 281.372436 
L 268.755838 284.163723 
L 269.407755 282.42688 
L 270.059671 282.816607 
L 270.711588 281.529681 
L 271.363505 284.37401 
L 272.015422 285.948718 
L 272.667338 286.267722 
L 273.319255 285.537925 
L 273.971172 281.016565 
L 274.623089 283.714559 
L 275.275005 281.624479 
L 275.926922 281.864109 
L 276.578839 283.784906 
L 277.230756 286.573936 
L 277.882673 286.200385 
L 278.534589 288.288961 
L 279.838423 286.227094 
L 280.49034 285.696674 
L 281.142256 286.307222 
L 282.44609 288.274666 
L 283.098007 287.117146 
L 284.40184 290.335403 
L 285.053757 291.831112 
L 285.705674 286.615693 
L 286.35759 286.550237 
L 287.009507 288.978883 
L 287.661424 283.091598 
L 288.965257 286.507352 
L 289.617174 281.689935 
L 290.269091 282.88244 
L 290.921008 285.693289 
L 291.572924 281.525919 
L 292.224841 283.879704 
L 293.528675 285.847524 
L 294.180591 284.86794 
L 294.832508 283.036299 
L 296.136342 286.614564 
L 296.788258 286.471238 
L 297.440175 286.848551 
L 298.092092 288.852109 
L 298.744009 286.974196 
L 299.395926 286.851937 
L 300.047842 285.952856 
L 300.699759 287.896977 
L 301.351676 288.685083 
L 302.003593 287.500854 
L 302.655509 288.512414 
L 303.307426 285.713603 
L 303.959343 287.268373 
L 304.61126 283.360946 
L 305.263176 286.310231 
L 305.915093 284.067796 
L 306.56701 284.768252 
L 307.218927 286.259446 
L 307.870843 287.168684 
L 308.52276 288.714801 
L 309.174677 289.590558 
L 309.826594 288.000427 
L 310.47851 289.226412 
L 311.130427 289.616515 
L 311.782344 285.718869 
L 312.434261 285.830596 
L 313.086177 287.408689 
L 313.738094 286.442272 
L 314.390011 286.626226 
L 315.041928 288.408963 
L 315.693844 288.726839 
L 316.345761 290.477977 
L 316.997678 289.238826 
L 317.649595 291.194985 
L 318.301512 286.080382 
L 318.953428 288.653483 
L 319.605345 289.089105 
L 320.257262 290.488887 
L 320.909179 289.512688 
L 321.561095 289.399457 
L 322.213012 288.597056 
L 322.864929 289.364472 
L 323.516846 288.901389 
L 324.168762 291.261945 
L 324.820679 290.111574 
L 325.472596 286.33694 
L 326.124513 287.542611 
L 326.776429 283.489601 
L 327.428346 285.560872 
L 328.080263 287.08329 
L 328.73218 286.939587 
L 329.384096 288.106887 
L 330.036013 289.513064 
L 330.68793 290.616037 
L 331.339847 290.156716 
L 331.991763 291.368405 
L 332.64368 290.414026 
L 333.295597 290.623184 
L 333.947514 292.341971 
L 334.59943 290.836105 
L 335.251347 285.571405 
L 335.903264 286.183833 
L 336.555181 287.763055 
L 337.207097 288.418744 
L 337.859014 288.013594 
L 338.510931 289.006344 
L 339.162848 291.198746 
L 339.814765 291.860455 
L 340.466681 291.327401 
L 341.118598 292.743735 
L 341.770515 291.954124 
L 342.422432 290.724378 
L 343.074348 292.630128 
L 343.726265 287.0547 
L 344.378182 287.635528 
L 345.030099 289.896772 
L 345.682015 288.411973 
L 346.333932 290.31998 
L 346.985849 289.491622 
L 347.637766 291.452295 
L 348.289682 290.064927 
L 348.941599 290.501677 
L 349.593516 291.407529 
L 350.245433 290.130007 
L 350.897349 290.390326 
L 351.549266 288.286704 
L 352.201183 291.084763 
L 352.8531 290.203739 
L 353.505016 292.391627 
L 354.156933 289.351681 
L 354.80885 290.694659 
L 355.460767 289.807993 
L 356.112683 291.679886 
L 356.7646 291.796503 
L 357.416517 291.355991 
L 358.068434 292.354761 
L 358.72035 293.587517 
L 359.372267 293.305002 
L 360.024184 294.025019 
L 360.676101 292.94838 
L 361.328018 293.741376 
L 361.979934 294.186402 
L 362.631851 294.131103 
L 363.283768 293.674792 
L 363.935685 291.217179 
L 365.239518 291.551983 
L 365.891435 292.156135 
L 366.543352 292.557148 
L 367.195268 293.20569 
L 367.847185 292.073751 
L 368.499102 294.107404 
L 369.151019 294.286091 
L 370.454852 288.006822 
L 371.106769 289.163213 
L 371.758686 287.751393 
L 372.410602 290.968145 
L 373.062519 292.698593 
L 375.018269 291.296554 
L 375.670186 293.145876 
L 376.322103 290.974917 
L 376.97402 292.553762 
L 377.625936 292.161026 
L 378.277853 292.037261 
L 378.92977 291.402638 
L 379.581687 291.334925 
L 380.88552 291.396995 
L 381.537437 291.062568 
L 382.189354 292.589124 
L 382.841271 293.326821 
L 383.493187 294.814254 
L 384.145104 294.306029 
L 384.797021 294.557696 
L 385.448938 293.526199 
L 386.100854 294.584405 
L 386.752771 293.686453 
L 387.404688 290.770272 
L 388.056605 295.488 
L 388.708521 289.596201 
L 389.360438 288.120806 
L 390.012355 291.052787 
L 390.664272 292.70085 
L 391.316188 288.676054 
L 391.968105 288.937502 
L 392.620022 289.338891 
L 393.271939 290.742059 
L 393.923855 287.482798 
L 394.575772 288.518809 
L 395.227689 290.843628 
L 395.879606 291.052034 
L 396.531522 291.1126 
L 397.183439 290.912846 
L 397.835356 293.674039 
L 398.487273 293.432153 
L 398.487273 293.432153 
" style="fill:none;stroke:#1f77b4;stroke-linecap:square;stroke-width:1.5;"/>
   </g>
   <g id="line2d_15">
    <path clip-path="url(#p4d9c104d62)" d="M 73.832727 53.568 
L 74.484644 61.351254 
L 75.136561 81.360498 
L 75.788478 93.740724 
L 76.440394 101.903924 
L 77.092311 108.539815 
L 77.744228 122.14264 
L 79.048061 140.146822 
L 79.699978 147.557653 
L 80.351895 158.026863 
L 81.003812 165.862782 
L 81.655728 171.667306 
L 82.959562 190.506617 
L 83.611479 193.790706 
L 84.263395 202.281187 
L 84.915312 204.425437 
L 85.567229 207.728336 
L 86.219146 209.221787 
L 86.871062 214.864552 
L 87.522979 215.936677 
L 88.174896 219.450239 
L 88.826813 221.741202 
L 89.478729 226.530028 
L 90.130646 225.585805 
L 90.782563 229.859259 
L 91.43448 231.251141 
L 92.086396 232.28941 
L 92.738313 233.098206 
L 93.39023 235.201077 
L 94.042147 234.008572 
L 95.34598 240.584274 
L 95.997897 243.0859 
L 96.649814 246.215754 
L 97.301731 246.693508 
L 97.953647 245.685334 
L 98.605564 244.428878 
L 99.257481 247.144929 
L 100.561314 243.379324 
L 101.213231 245.737999 
L 101.865148 246.114184 
L 103.168981 250.459113 
L 103.820898 249.939978 
L 104.472815 249.879789 
L 105.124732 249.567556 
L 105.776648 251.43343 
L 106.428565 252.953215 
L 107.080482 252.73879 
L 108.384315 254.860469 
L 109.036232 253.904961 
L 109.688149 253.600252 
L 110.340066 256.297493 
L 110.991982 259.551488 
L 111.643899 261.947782 
L 112.295816 256.590917 
L 112.947733 261.052463 
L 113.59965 260.717659 
L 114.251566 264.092033 
L 114.903483 259.164018 
L 115.5554 261.898878 
L 116.207317 263.286998 
L 116.859233 261.80107 
L 117.51115 262.312681 
L 118.163067 266.123428 
L 118.814984 266.446946 
L 119.4669 265.517771 
L 120.770734 269.911604 
L 121.422651 270.024459 
L 122.074567 269.234472 
L 123.378401 269.196854 
L 124.030318 270.141077 
L 124.682234 268.696529 
L 125.334151 270.118505 
L 125.986068 272.695368 
L 126.637985 271.890334 
L 127.289901 271.702241 
L 127.941818 266.063238 
L 128.593735 266.537231 
L 129.245652 266.721561 
L 129.897568 267.27079 
L 130.549485 270.340454 
L 131.201402 270.972444 
L 131.853319 266.224998 
L 132.505235 265.769815 
L 133.157152 263.584184 
L 133.809069 265.585484 
L 134.460986 267.221886 
L 135.112903 267.725973 
L 135.764819 267.778639 
L 136.416736 272.526085 
L 137.068653 272.138615 
L 137.72057 268.824431 
L 138.372486 271.032633 
L 139.024403 274.136154 
L 139.67632 276.050932 
L 140.328237 272.097235 
L 140.980153 272.793176 
L 141.63207 272.078426 
L 142.283987 275.193232 
L 142.935904 273.353691 
L 143.58782 274.704192 
L 144.239737 273.628305 
L 144.891654 273.342405 
L 145.543571 274.467196 
L 146.195487 276.705493 
L 146.847404 276.92368 
L 147.499321 277.585764 
L 148.151238 279.199595 
L 148.803154 277.461623 
L 149.455071 277.405196 
L 150.106988 278.014614 
L 150.758905 279.131882 
L 151.410821 278.958837 
L 152.062738 279.918107 
L 152.714655 277.928092 
L 153.366572 281.536076 
L 154.018488 279.831585 
L 154.670405 280.019677 
L 155.322322 280.787093 
L 155.974239 278.0259 
L 156.626156 274.162487 
L 157.278072 278.458512 
L 157.929989 276.043409 
L 158.581906 275.415181 
L 159.233823 275.550607 
L 159.885739 277.724952 
L 160.537656 279.444115 
L 161.189573 278.51494 
L 161.84149 279.906822 
L 162.493406 280.358243 
L 163.145323 281.823104 
L 163.79724 279.335021 
L 164.449157 279.967011 
L 165.101073 278.06728 
L 165.75299 277.412719 
L 166.404907 277.999567 
L 167.056824 280.71938 
L 167.70874 281.14823 
L 168.360657 282.521303 
L 169.012574 282.245183 
L 169.664491 279.809014 
L 170.316407 279.240975 
L 170.968324 281.160268 
L 171.620241 279.368878 
L 172.272158 279.210881 
L 172.924074 280.343195 
L 173.575991 276.528686 
L 174.227908 279.974535 
L 174.879825 277.800189 
L 175.531742 278.259134 
L 176.183658 279.666064 
L 176.835575 272.98503 
L 177.487492 277.661001 
L 178.139409 276.04717 
L 178.791325 274.967521 
L 179.443242 276.731826 
L 180.095159 275.689795 
L 180.747076 278.146279 
L 181.398992 278.142517 
L 182.050909 277.243437 
L 182.702826 273.443975 
L 183.354743 275.366277 
L 184.006659 275.603273 
L 184.658576 277.424005 
L 185.310493 274.685383 
L 185.96241 276.8823 
L 186.614326 276.528686 
L 187.266243 279.207119 
L 187.91816 277.691096 
L 188.570077 277.931854 
L 189.221993 281.08804 
L 189.87391 275.648415 
L 190.525827 276.844681 
L 191.177744 275.791365 
L 191.82966 279.94444 
L 192.481577 279.301165 
L 193.133494 278.492368 
L 193.785411 280.418432 
L 194.437327 283.534367 
L 195.089244 284.335263 
L 195.741161 278.684222 
L 196.393078 281.164782 
L 197.044995 277.969472 
L 197.696911 281.065469 
L 198.348828 282.994919 
L 199.000745 283.942903 
L 199.652662 282.213584 
L 200.304578 277.894235 
L 200.956495 281.192243 
L 202.260329 284.18178 
L 202.912245 282.305373 
L 203.564162 282.663876 
L 204.216079 284.50718 
L 204.867996 287.570072 
L 205.519912 286.116872 
L 206.171829 287.662614 
L 206.823746 288.645207 
L 207.475663 280.952614 
L 208.127579 283.876319 
L 208.779496 285.988593 
L 209.431413 283.015609 
L 210.08333 285.867838 
L 210.735246 281.240019 
L 211.387163 283.689355 
L 212.03908 284.717843 
L 212.690997 285.963389 
L 213.342913 287.619353 
L 213.99483 285.931037 
L 214.646747 285.732788 
L 215.298664 288.521066 
L 216.602497 285.3156 
L 217.254414 286.828237 
L 218.558248 287.639666 
L 219.210164 284.245732 
L 219.862081 282.767327 
L 220.513998 284.538779 
L 221.165915 284.80098 
L 221.817831 284.109929 
L 222.469748 286.822218 
L 223.121665 287.249563 
L 225.729332 291.177304 
L 226.381249 291.21906 
L 227.033165 290.114583 
L 227.685082 284.594078 
L 228.336999 284.372882 
L 228.988916 289.661281 
L 229.640832 286.944102 
L 230.292749 287.906757 
L 230.944666 286.131167 
L 231.596583 286.072106 
L 232.248499 288.098988 
L 232.900416 289.537516 
L 233.552333 288.357426 
L 234.856166 283.880833 
L 235.508083 284.570379 
L 236.16 286.1654 
L 236.811917 289.410742 
L 237.463834 284.232565 
L 238.11575 288.992049 
L 238.767667 290.233834 
L 239.419584 289.624039 
L 240.071501 291.235989 
L 240.723417 291.22696 
L 241.375334 292.381846 
L 242.679168 289.443094 
L 243.331084 289.682724 
L 243.983001 289.381024 
L 244.634918 289.394943 
L 245.286835 290.923003 
L 245.938751 290.570895 
L 246.590668 291.717128 
L 247.242585 288.939007 
L 247.894502 291.841645 
L 248.546418 291.031344 
L 249.198335 292.984117 
L 249.850252 292.15275 
L 250.502169 289.464913 
L 251.154085 290.432459 
L 251.806002 290.156716 
L 252.457919 285.403251 
L 253.109836 288.282189 
L 253.761752 289.763603 
L 254.413669 288.182124 
L 255.065586 288.965716 
L 255.717503 292.120022 
L 256.369419 292.17833 
L 257.021336 289.961476 
L 257.673253 289.169984 
L 258.32517 289.883606 
L 258.977087 291.904468 
L 259.629003 289.432185 
L 260.28092 291.343577 
L 260.932837 290.20562 
L 261.584754 290.887642 
L 262.23667 285.799373 
L 262.888587 287.014448 
L 263.540504 286.730805 
L 264.192421 289.144404 
L 264.844337 289.06691 
L 265.496254 291.953372 
L 266.148171 289.384409 
L 266.800088 291.837884 
L 267.452004 291.868731 
L 268.103921 292.447678 
L 268.755838 286.02546 
L 269.407755 286.054802 
L 270.059671 287.607315 
L 270.711588 288.810352 
L 271.363505 292.36078 
L 272.015422 292.462349 
L 272.667338 293.053711 
L 273.319255 292.749378 
L 273.971172 291.6923 
L 274.623089 292.658342 
L 275.275005 291.72879 
L 275.926922 288.300246 
L 276.578839 289.54993 
L 277.230756 291.456056 
L 277.882673 292.471378 
L 278.534589 291.969924 
L 279.186506 291.908606 
L 279.838423 292.591005 
L 280.49034 291.407152 
L 281.142256 292.627494 
L 281.794173 292.877657 
L 282.44609 292.156135 
L 283.098007 292.797154 
L 283.749923 292.882171 
L 284.40184 293.864765 
L 285.053757 292.662856 
L 285.705674 292.552634 
L 287.009507 291.083634 
L 287.661424 292.228363 
L 288.313341 291.720514 
L 288.965257 289.061267 
L 289.617174 290.767263 
L 290.269091 290.888018 
L 290.921008 291.40941 
L 291.572924 292.395765 
L 292.224841 288.743391 
L 292.876758 289.491998 
L 293.528675 291.572674 
L 294.180591 289.780531 
L 294.832508 289.947557 
L 295.484425 289.266287 
L 296.136342 289.133871 
L 296.788258 290.63146 
L 297.440175 290.643498 
L 298.092092 292.258458 
L 298.744009 289.180894 
L 300.047842 292.887814 
L 300.699759 292.348366 
L 301.351676 293.297103 
L 302.003593 294.006962 
L 302.655509 292.829882 
L 303.307426 294.207092 
L 303.959343 291.058806 
L 304.61126 290.036337 
L 305.263176 287.003163 
L 305.915093 290.147687 
L 306.56701 290.351203 
L 307.218927 290.824067 
L 307.870843 290.980183 
L 307.870843 290.980183 
" style="fill:none;stroke:#ff7f0e;stroke-linecap:square;stroke-width:1.5;"/>
   </g>
   <g id="patch_3">
    <path d="M 57.6 307.584 
L 57.6 41.472 
" style="fill:none;stroke:#000000;stroke-linecap:square;stroke-linejoin:miter;stroke-width:0.8;"/>
   </g>
   <g id="patch_4">
    <path d="M 414.72 307.584 
L 414.72 41.472 
" style="fill:none;stroke:#000000;stroke-linecap:square;stroke-linejoin:miter;stroke-width:0.8;"/>
   </g>
   <g id="patch_5">
    <path d="M 57.6 307.584 
L 414.72 307.584 
" style="fill:none;stroke:#000000;stroke-linecap:square;stroke-linejoin:miter;stroke-width:0.8;"/>
   </g>
   <g id="patch_6">
    <path d="M 57.6 41.472 
L 414.72 41.472 
" style="fill:none;stroke:#000000;stroke-linecap:square;stroke-linejoin:miter;stroke-width:0.8;"/>
   </g>
   <g id="text_16">
    <!-- Average fitness over 2 hours -->
    <defs>
     <path d="M 54.890625 33.015625 
L 54.890625 0 
L 45.90625 0 
L 45.90625 32.71875 
Q 45.90625 40.484375 42.875 44.328125 
Q 39.84375 48.1875 33.796875 48.1875 
Q 26.515625 48.1875 22.3125 43.546875 
Q 18.109375 38.921875 18.109375 30.90625 
L 18.109375 0 
L 9.078125 0 
L 9.078125 75.984375 
L 18.109375 75.984375 
L 18.109375 46.1875 
Q 21.34375 51.125 25.703125 53.5625 
Q 30.078125 56 35.796875 56 
Q 45.21875 56 50.046875 50.171875 
Q 54.890625 44.34375 54.890625 33.015625 
z
" id="DejaVuSans-68"/>
    </defs>
    <g transform="translate(149.601562 35.472)scale(0.12 -0.12)">
     <use xlink:href="#DejaVuSans-41"/>
     <use x="68.330078" xlink:href="#DejaVuSans-76"/>
     <use x="127.509766" xlink:href="#DejaVuSans-65"/>
     <use x="189.033203" xlink:href="#DejaVuSans-72"/>
     <use x="230.146484" xlink:href="#DejaVuSans-61"/>
     <use x="291.425781" xlink:href="#DejaVuSans-67"/>
     <use x="354.902344" xlink:href="#DejaVuSans-65"/>
     <use x="416.425781" xlink:href="#DejaVuSans-20"/>
     <use x="448.212891" xlink:href="#DejaVuSans-66"/>
     <use x="483.417969" xlink:href="#DejaVuSans-69"/>
     <use x="511.201172" xlink:href="#DejaVuSans-74"/>
     <use x="550.410156" xlink:href="#DejaVuSans-6e"/>
     <use x="613.789062" xlink:href="#DejaVuSans-65"/>
     <use x="675.3125" xlink:href="#DejaVuSans-73"/>
     <use x="727.412109" xlink:href="#DejaVuSans-73"/>
     <use x="779.511719" xlink:href="#DejaVuSans-20"/>
     <use x="811.298828" xlink:href="#DejaVuSans-6f"/>
     <use x="872.480469" xlink:href="#DejaVuSans-76"/>
     <use x="931.660156" xlink:href="#DejaVuSans-65"/>
     <use x="993.183594" xlink:href="#DejaVuSans-72"/>
     <use x="1034.296875" xlink:href="#DejaVuSans-20"/>
     <use x="1066.083984" xlink:href="#DejaVuSans-32"/>
     <use x="1129.707031" xlink:href="#DejaVuSans-20"/>
     <use x="1161.494141" xlink:href="#DejaVuSans-68"/>
     <use x="1224.873047" xlink:href="#DejaVuSans-6f"/>
     <use x="1286.054688" xlink:href="#DejaVuSans-75"/>
     <use x="1349.433594" xlink:href="#DejaVuSans-72"/>
     <use x="1390.546875" xlink:href="#DejaVuSans-73"/>
    </g>
   </g>
   <g id="legend_1">
    <g id="patch_7">
     <path d="M 272.27625 78.82825 
L 407.72 78.82825 
Q 409.72 78.82825 409.72 76.82825 
L 409.72 48.472 
Q 409.72 46.472 407.72 46.472 
L 272.27625 46.472 
Q 270.27625 46.472 270.27625 48.472 
L 270.27625 76.82825 
Q 270.27625 78.82825 272.27625 78.82825 
z
" style="fill:#ffffff;opacity:0.8;stroke:#cccccc;stroke-linejoin:miter;"/>
    </g>
    <g id="patch_8">
     <path d="M 274.27625 58.070437 
L 294.27625 58.070437 
L 294.27625 51.070437 
L 274.27625 51.070437 
z
" style="fill:#87ceeb;stroke:#87ceeb;stroke-linejoin:miter;"/>
    </g>
    <g id="text_17">
     <!-- Parallel min 961.911 -->
     <defs>
      <path d="M 19.671875 64.796875 
L 19.671875 37.40625 
L 32.078125 37.40625 
Q 38.96875 37.40625 42.71875 40.96875 
Q 46.484375 44.53125 46.484375 51.125 
Q 46.484375 57.671875 42.71875 61.234375 
Q 38.96875 64.796875 32.078125 64.796875 
z
M 9.8125 72.90625 
L 32.078125 72.90625 
Q 44.34375 72.90625 50.609375 67.359375 
Q 56.890625 61.8125 56.890625 51.125 
Q 56.890625 40.328125 50.609375 34.8125 
Q 44.34375 29.296875 32.078125 29.296875 
L 19.671875 29.296875 
L 19.671875 0 
L 9.8125 0 
z
" id="DejaVuSans-50"/>
      <path d="M 9.421875 75.984375 
L 18.40625 75.984375 
L 18.40625 0 
L 9.421875 0 
z
" id="DejaVuSans-6c"/>
      <path d="M 10.984375 1.515625 
L 10.984375 10.5 
Q 14.703125 8.734375 18.5 7.8125 
Q 22.3125 6.890625 25.984375 6.890625 
Q 35.75 6.890625 40.890625 13.453125 
Q 46.046875 20.015625 46.78125 33.40625 
Q 43.953125 29.203125 39.59375 26.953125 
Q 35.25 24.703125 29.984375 24.703125 
Q 19.046875 24.703125 12.671875 31.3125 
Q 6.296875 37.9375 6.296875 49.421875 
Q 6.296875 60.640625 12.9375 67.421875 
Q 19.578125 74.21875 30.609375 74.21875 
Q 43.265625 74.21875 49.921875 64.515625 
Q 56.59375 54.828125 56.59375 36.375 
Q 56.59375 19.140625 48.40625 8.859375 
Q 40.234375 -1.421875 26.421875 -1.421875 
Q 22.703125 -1.421875 18.890625 -0.6875 
Q 15.09375 0.046875 10.984375 1.515625 
z
M 30.609375 32.421875 
Q 37.25 32.421875 41.125 36.953125 
Q 45.015625 41.5 45.015625 49.421875 
Q 45.015625 57.28125 41.125 61.84375 
Q 37.25 66.40625 30.609375 66.40625 
Q 23.96875 66.40625 20.09375 61.84375 
Q 16.21875 57.28125 16.21875 49.421875 
Q 16.21875 41.5 20.09375 36.953125 
Q 23.96875 32.421875 30.609375 32.421875 
z
" id="DejaVuSans-39"/>
      <path d="M 10.6875 12.40625 
L 21 12.40625 
L 21 0 
L 10.6875 0 
z
" id="DejaVuSans-2e"/>
     </defs>
     <g transform="translate(302.27625 58.070437)scale(0.1 -0.1)">
      <use xlink:href="#DejaVuSans-50"/>
      <use x="60.240234" xlink:href="#DejaVuSans-61"/>
      <use x="121.519531" xlink:href="#DejaVuSans-72"/>
      <use x="162.632812" xlink:href="#DejaVuSans-61"/>
      <use x="223.912109" xlink:href="#DejaVuSans-6c"/>
      <use x="251.695312" xlink:href="#DejaVuSans-6c"/>
      <use x="279.478516" xlink:href="#DejaVuSans-65"/>
      <use x="341.001953" xlink:href="#DejaVuSans-6c"/>
      <use x="368.785156" xlink:href="#DejaVuSans-20"/>
      <use x="400.572266" xlink:href="#DejaVuSans-6d"/>
      <use x="497.984375" xlink:href="#DejaVuSans-69"/>
      <use x="525.767578" xlink:href="#DejaVuSans-6e"/>
      <use x="589.146484" xlink:href="#DejaVuSans-20"/>
      <use x="620.933594" xlink:href="#DejaVuSans-39"/>
      <use x="684.556641" xlink:href="#DejaVuSans-36"/>
      <use x="748.179688" xlink:href="#DejaVuSans-31"/>
      <use x="811.802734" xlink:href="#DejaVuSans-2e"/>
      <use x="843.589844" xlink:href="#DejaVuSans-39"/>
      <use x="907.212891" xlink:href="#DejaVuSans-31"/>
      <use x="970.835938" xlink:href="#DejaVuSans-31"/>
     </g>
    </g>
    <g id="patch_9">
     <path d="M 274.27625 72.748562 
L 294.27625 72.748562 
L 294.27625 65.748562 
L 274.27625 65.748562 
z
" style="fill:#ffa500;stroke:#ffa500;stroke-linejoin:miter;"/>
    </g>
    <g id="text_18">
     <!-- Serial min 965.316 -->
     <defs>
      <path d="M 53.515625 70.515625 
L 53.515625 60.890625 
Q 47.90625 63.578125 42.921875 64.890625 
Q 37.9375 66.21875 33.296875 66.21875 
Q 25.25 66.21875 20.875 63.09375 
Q 16.5 59.96875 16.5 54.203125 
Q 16.5 49.359375 19.40625 46.890625 
Q 22.3125 44.4375 30.421875 42.921875 
L 36.375 41.703125 
Q 47.40625 39.59375 52.65625 34.296875 
Q 57.90625 29 57.90625 20.125 
Q 57.90625 9.515625 50.796875 4.046875 
Q 43.703125 -1.421875 29.984375 -1.421875 
Q 24.8125 -1.421875 18.96875 -0.25 
Q 13.140625 0.921875 6.890625 3.21875 
L 6.890625 13.375 
Q 12.890625 10.015625 18.65625 8.296875 
Q 24.421875 6.59375 29.984375 6.59375 
Q 38.421875 6.59375 43.015625 9.90625 
Q 47.609375 13.234375 47.609375 19.390625 
Q 47.609375 24.75 44.3125 27.78125 
Q 41.015625 30.8125 33.5 32.328125 
L 27.484375 33.5 
Q 16.453125 35.6875 11.515625 40.375 
Q 6.59375 45.0625 6.59375 53.421875 
Q 6.59375 63.09375 13.40625 68.65625 
Q 20.21875 74.21875 32.171875 74.21875 
Q 37.3125 74.21875 42.625 73.28125 
Q 47.953125 72.359375 53.515625 70.515625 
z
" id="DejaVuSans-53"/>
     </defs>
     <g transform="translate(302.27625 72.748562)scale(0.1 -0.1)">
      <use xlink:href="#DejaVuSans-53"/>
      <use x="63.476562" xlink:href="#DejaVuSans-65"/>
      <use x="125" xlink:href="#DejaVuSans-72"/>
      <use x="166.113281" xlink:href="#DejaVuSans-69"/>
      <use x="193.896484" xlink:href="#DejaVuSans-61"/>
      <use x="255.175781" xlink:href="#DejaVuSans-6c"/>
      <use x="282.958984" xlink:href="#DejaVuSans-20"/>
      <use x="314.746094" xlink:href="#DejaVuSans-6d"/>
      <use x="412.158203" xlink:href="#DejaVuSans-69"/>
      <use x="439.941406" xlink:href="#DejaVuSans-6e"/>
      <use x="503.320312" xlink:href="#DejaVuSans-20"/>
      <use x="535.107422" xlink:href="#DejaVuSans-39"/>
      <use x="598.730469" xlink:href="#DejaVuSans-36"/>
      <use x="662.353516" xlink:href="#DejaVuSans-35"/>
      <use x="725.976562" xlink:href="#DejaVuSans-2e"/>
      <use x="757.763672" xlink:href="#DejaVuSans-33"/>
      <use x="821.386719" xlink:href="#DejaVuSans-31"/>
      <use x="885.009766" xlink:href="#DejaVuSans-36"/>
     </g>
    </g>
   </g>
  </g>
 </g>
 <defs>
  <clipPath id="p4d9c104d62">
   <rect height="266.112" width="357.12" x="57.6" y="41.472"/>
  </clipPath>
 </defs>
</svg>
